<?xml version="1.0" encoding="utf-8"?>
<svg version="1.1" id="Layer_1" xmlns="http://www.w3.org/2000/svg" xmlns:xlink="http://www.w3.org/1999/xlink" x="0px" y="0px"
	 viewBox="1059.521 646.203 2052.008 302.701" style="enable-background:new 1059.521 646.203 2052.008 302.701;"
	 xml:space="preserve">
<style type="text/css">
	.st0{fill:#000;}
</style>
<g>
	<path class="st0" d="M1200.247,939.96c0,2.26-0.686,4.102-2.051,5.529c-1.368,1.427-3.004,2.29-4.905,2.586
		c-1.903,0.298-3.834,0.507-5.797,0.624c-1.962,0.117-3.539,0.117-4.726,0c-0.714,0.237-2.023,0.268-3.924,0.089
		c-1.904-0.178-3.835-0.384-5.797-0.624c-1.962-0.236-3.718-1.098-5.262-2.586c-1.546-1.485-2.318-3.479-2.318-5.976v-95.421
		c-1.903,9.751-3.094,16.944-3.567,21.581l-5.172,26.397c-3.45,19.858-6.719,36.624-9.81,50.297c-2.14,3.33-4.222,5.412-6.243,6.242
		h-11.236c-10.108,0.714-15.994-1.605-17.658-6.956c-1.31-7.965-5.529-30.855-12.663-68.668c-2.38-13.792-4.103-23.423-5.172-28.894
		v95.778c0,2.26-0.686,4.102-2.051,5.529c-1.368,1.427-3.004,2.29-4.905,2.586c-1.903,0.298-3.834,0.507-5.797,0.624
		c-1.962,0.117-3.539,0.117-4.726,0c-0.833,0.237-2.202,0.268-4.103,0.089c-1.903-0.178-3.807-0.445-5.708-0.803
		c-1.903-0.356-3.567-1.248-4.994-2.675s-2.141-3.327-2.141-5.708V663.862c0-6.778,5.886-9.749,17.658-8.918
		c4.397,0,7.817,0.24,10.255,0.713c2.436,0.477,4.339,1.605,5.708,3.389c1.366,1.784,2.288,3.598,2.765,5.44
		c0.474,1.845,1.009,5.025,1.605,9.542c0.474,6.064,1.485,12.783,3.032,20.154c1.307,5.947,7.251,37.575,17.836,94.886
		c0.831,4.757,2.497,14.358,4.994,28.805s4.518,25.656,6.064,33.621l13.377-71.878c13.198-72.293,20.154-110.404,20.868-114.328
		c1.664-3.447,4.102-6.895,7.312-10.345h21.225c1.544,0,3.269,1.131,5.172,3.389c1.901,2.26,2.854,4.103,2.854,5.529V939.96
		H1200.247z M1130.152,857.38c0.117-0.117,0-0.356-0.357-0.713C1129.795,857.143,1129.913,857.38,1130.152,857.38z"/>
	<path class="st0" d="M1325.454,938.89l-0.356,1.783c-0.833,2.141-2.559,4.816-5.172,8.026h-21.582c-2.497,0-4.637-2.524-6.421-7.58
		c-1.783-5.053-2.795-9.721-3.032-14.001c-0.357-0.474-0.686-1.188-0.981-2.141c-0.298-0.95-0.329-1.427-0.089-1.427h-37.633
		c-1.19,1.903-2.023,5.056-2.497,9.453c-0.477,5.947-2.675,11.178-6.599,15.695h-21.225c-2.737,0-5.056-1.842-6.956-5.529v-0.713
		c-0.477-1.427-0.713-2.734-0.713-3.924c0-0.714,5.557-40.872,16.676-120.481c11.117-79.606,18.34-131.419,21.67-155.439
		c0.594-1.664,1.575-3.06,2.943-4.191c1.366-1.129,3.091-1.873,5.172-2.229c2.079-0.357,3.773-0.594,5.083-0.713
		c1.307-0.117,3.149-0.178,5.529-0.178h2.497c0.713,0,1.873,0.089,3.478,0.268c1.605,0.178,2.765,0.267,3.478,0.267
		c2.854,1.07,5.29,2.974,7.312,5.708c0.237,1.19,0.535,3.152,0.892,5.886c0.356,2.737,0.652,4.699,0.892,5.886
		c1.784,12.961,2.912,21.225,3.389,24.792c7.965,60.048,15.219,111.535,21.76,154.458c1.07,7.374,3.091,21.077,6.064,41.111
		C1322.004,913.713,1324.145,928.784,1325.454,938.89z M1284.61,893.229c0-2.02-1.873-17.626-5.618-46.818
		c-3.746-29.189-6.987-52.822-9.721-70.897c-0.596,3.807-4.28,31.333-11.058,82.58c-0.596,4.28-1.368,10.464-2.319,18.549
		c-0.953,8.088-1.725,14.21-2.318,18.371c0.237,0.239,0.594,0.833,1.07,1.783c0.117,0.12,0.178,0.12,0.178,0
		c0-0.117,0.059-0.117,0.178,0c13.792,0,23.423-0.236,28.894-0.713C1284.371,894.657,1284.61,893.706,1284.61,893.229z"/>
	<path class="st0" d="M1430.686,939.96c0,1.427-0.268,2.675-0.803,3.745c-0.535,1.07-1.279,1.935-2.229,2.586
		c-0.953,0.655-1.903,1.16-2.854,1.517c-0.953,0.356-2.113,0.597-3.478,0.713c-1.369,0.12-2.469,0.207-3.3,0.268
		c-0.833,0.059-1.784,0.059-2.854,0c-1.07-0.061-1.667-0.089-1.784-0.089h-2.141c-2.854,0-4.935-0.089-6.242-0.268
		c-1.31-0.179-2.795-0.771-4.459-1.783c-1.667-1.009-3.004-2.703-4.013-5.084c-1.012-2.377-1.934-5.587-2.765-9.631
		c-3.687-20.333-10.88-53.803-21.581-100.416c-1.547-5.708-2.497-9.749-2.854-12.128v120.57c0,3.21-1.22,5.529-3.656,6.956
		c-2.438,1.427-4.966,2.051-7.58,1.872c-2.617-0.178-4.757-0.206-6.421-0.089c-0.833,0.237-2.14,0.268-3.924,0.089
		c-1.784-0.178-3.598-0.445-5.44-0.803c-1.845-0.356-3.478-1.248-4.905-2.675s-2.14-3.327-2.14-5.708v-275.74
		c0-6.895,5.824-9.868,17.479-8.918h1.962c2.377,0,4.308,0.15,5.796,0.446c1.485,0.298,3.06,0.922,4.727,1.873
		c1.664,0.953,3.06,2.527,4.191,4.727c1.129,2.201,2.051,5.083,2.765,8.65c3.804,19.739,10.88,52.379,21.225,97.918l2.854,12.842
		V663.862c0-6.895,6.123-9.868,18.371-8.918c0.593-0.117,1.396-0.117,2.408,0c1.009,0.12,2.11,0.178,3.3,0.178
		c1.187,0,2.408,0.209,3.656,0.625c1.249,0.418,2.346,0.922,3.299,1.516c0.951,0.596,1.753,1.458,2.408,2.586
		c0.652,1.131,0.981,2.469,0.981,4.013V939.96H1430.686z"/>
	<path class="st0" d="M1551.077,886.987c0,5.471-0.178,10.406-0.535,14.804c-0.356,4.4-1.19,9.186-2.497,14.357
		c-1.31,5.173-3.032,9.604-5.172,13.288c-2.14,3.688-5.203,7.018-9.185,9.988c-3.985,2.974-8.65,4.994-14.001,6.064
		c-10.345,2.14-16.47,3.21-18.371,3.21c-0.953,0-4.521-0.446-10.702-1.338c-6.184-0.892-10.643-1.633-13.377-2.229
		c-6.184-1.187-12.516-5.646-18.995-13.377c-6.482-7.728-9.782-15.575-9.898-23.543c-0.24-0.236-0.357-0.594-0.357-1.07
		c-0.713-1.544-1.07-3.032-1.07-4.459V699.533c0-0.831,0.357-2.14,1.07-3.924l-0.357,0.357c0.474-1.901,0.714-3.149,0.714-3.746
		c0.237-5.351,1.633-10.76,4.191-16.23c2.555-5.468,5.796-9.81,9.72-13.021c7.965-5.351,21.818-8.026,41.558-8.026
		c12.722,0,22.322,1.516,28.805,4.548c6.479,3.032,11.175,8.502,14.09,16.409c2.912,7.909,4.37,19.591,4.37,35.047
		c0,13.082-2.675,19.619-8.026,19.619h-21.938c-0.833-1.307-1.636-2.497-2.408-3.567c-0.774-1.07-1.337-1.873-1.694-2.408
		c-0.356-0.535-0.713-1.098-1.07-1.694c0.237-8.205-1.011-16.468-3.745-24.792c-2.737-8.321-6.719-12.485-11.95-12.485
		c-4.4,0-8.057,1.755-10.969,5.261c-2.915,3.509-4.905,7.581-5.975,12.218c-1.07,4.637-1.605,9.692-1.605,15.16v166.586
		c0,21.403,5.351,32.104,16.052,32.104c3.091,0,6.153-1.098,9.186-3.299c3.032-2.199,5.32-5.855,6.867-10.97v0.357
		c0.831-5.944,1.427-10.702,1.784-14.27c0.237-1.187,0.356-2.733,0.356-4.637c0.237-2.258,0.357-4.339,0.357-6.242
		c0-1.901,0.446-3.835,1.338-5.797s2.288-3.595,4.191-4.905c2.377-0.474,6.242-0.713,11.593-0.713c2.971,0,4.963-0.028,5.975-0.09
		c1.009-0.059,2.436,0.09,4.281,0.446c1.842,0.356,2.943,0.535,3.3,0.535c0.356,0,1.009,0.535,1.962,1.605
		c0.95,1.069,1.427,1.813,1.427,2.229c0,0.418,0.147,1.725,0.446,3.924c0.295,2.201,0.416,3.834,0.357,4.904
		C1551.104,881.102,1551.077,883.42,1551.077,886.987z"/>
	<path class="st0" d="M1663.085,939.96c0,1.427-0.24,2.675-0.713,3.745c-0.477,1.07-1.221,1.935-2.229,2.586
		c-1.012,0.655-1.993,1.16-2.943,1.517c-0.953,0.356-2.113,0.597-3.478,0.713c-1.369,0.12-2.469,0.207-3.3,0.268
		c-0.833,0.059-1.845,0.059-3.032,0c-1.19-0.061-1.845-0.089-1.962-0.089c-0.833,0.237-2.171,0.237-4.013,0
		c-1.845-0.237-3.746-0.505-5.708-0.803c-1.962-0.295-3.687-1.159-5.172-2.586c-1.488-1.427-2.229-3.327-2.229-5.708V814.574
		c0-1.427-1.516-2.141-4.548-2.141s-5.68,0.24-7.937,0.714h-2.14c-7.254-0.831-10.88-0.357-10.88,1.427V939.96
		c0,3.21-1.279,5.529-3.834,6.956c-2.559,1.427-5.172,2.051-7.848,1.872c-2.675-0.178-4.788-0.206-6.332-0.089
		c-0.477,0.237-1.605,0.268-3.389,0.089c-1.784-0.178-3.656-0.384-5.618-0.624c-1.962-0.236-3.746-1.098-5.351-2.586
		c-1.605-1.485-2.408-3.479-2.408-5.976V664.575c0-6.181,5.886-9.274,17.658-9.274c0.713-0.237,2.02-0.237,3.924,0
		c1.9,0.239,3.804,0.507,5.707,0.802c1.901,0.298,3.626,1.19,5.173,2.675c1.543,1.488,2.318,3.42,2.318,5.797v115.041
		c0,1.427,1.842,2.171,5.529,2.229c3.684,0.061,5.944-0.089,6.777-0.446h2.319c7.251,0.833,10.88,0.12,10.88-2.14V664.575
		c0-2.377,0.741-4.309,2.229-5.797c1.485-1.485,3.21-2.377,5.172-2.675c1.962-0.295,3.924-0.563,5.886-0.802
		c1.962-0.237,3.358-0.237,4.191,0c0.117-0.237,1.07-0.268,2.854-0.089s3.746,0.387,5.886,0.624c2.141,0.24,4.103,1.132,5.886,2.676
		c1.783,1.546,2.675,3.567,2.675,6.064L1663.085,939.96L1663.085,939.96z"/>
	<path class="st0" d="M1768.495,934.787c0,9.274-2.559,13.912-7.669,13.912h-71.343c-1.31,0-3.032-1.159-5.172-3.478
		c-2.14-2.319-3.21-4.191-3.21-5.619V664.575c0-1.664,1.249-3.625,3.746-5.886c2.497-2.257,4.518-3.389,6.064-3.389h68.311
		c6.182,0,9.275,4.757,9.275,14.269c0,9.514-2.559,14.269-7.669,14.269h-43.876c-0.477,0-0.713,0.596-0.713,1.784v94.708
		c0,1.19,0.237,1.783,0.713,1.783h31.034c2.257,0,4.072,1.132,5.44,3.389c1.366,2.26,2.168,4.52,2.408,6.777l0.178,3.389
		c0,0.953-0.089,2.051-0.268,3.3c-0.178,1.249-0.507,2.765-0.981,4.548c-0.477,1.783-1.31,3.241-2.497,4.37
		c-1.19,1.131-2.617,1.694-4.281,1.694h-31.034c-0.477,0-0.713,0.596-0.713,1.784v108.085c0,1.19,0.237,1.784,0.713,1.784h43.876
		C1765.937,921.232,1768.495,925.752,1768.495,934.787z"/>
	<path class="st0" d="M1889.957,892.16c0,7.49-0.624,14.21-1.873,20.154c-1.249,5.947-2.795,10.852-4.637,14.714
		c-1.845,3.866-4.37,7.196-7.581,9.988c-3.21,2.795-6.273,4.936-9.186,6.421c-2.915,1.488-6.571,2.647-10.969,3.479
		c-4.4,0.833-8.235,1.337-11.504,1.516c-3.272,0.179-7.285,0.268-12.04,0.268c-8.681,0-17.242-3.121-25.683-9.364
		c-8.444-6.242-14.508-15.664-18.193-28.27c0-2.377-0.24-6.538-0.713-12.484c-0.477-5.708-0.713-8.74-0.713-9.097s0-0.892,0-1.605
		c0-3.327,0-5.707,0-7.134s0.089-3.149,0.268-5.173c0.178-2.021,0.326-3.327,0.446-3.924c0.117-0.594,0.535-1.396,1.249-2.407
		c0.713-1.009,1.276-1.575,1.694-1.694c0.416-0.117,1.338-0.326,2.765-0.625c1.427-0.295,2.614-0.445,3.567-0.445
		c0.95,0,2.614,0,4.994,0h2.141c5.708,0,9.748,0.356,12.128,1.07c1.783,3.33,3.032,5.769,3.745,7.312
		c0.357,4.28,0.683,7.61,0.981,9.987c0.295,2.381,0.772,5.502,1.427,9.364c0.652,3.865,1.396,6.897,2.229,9.097
		c0.83,2.201,1.931,4.489,3.299,6.866c1.366,2.38,3.032,4.103,4.994,5.173c1.962,1.069,4.191,1.604,6.688,1.604
		c5.231,0,9.213-2.051,11.95-6.153c2.734-4.102,4.103-9.48,4.103-16.141c0-3.567-0.864-8.085-2.586-13.556
		c-1.725-5.468-4.877-13.048-9.453-22.74c-4.579-9.69-7.999-16.794-10.256-21.314c-2.26-4.518-6.719-13.315-13.377-26.397
		c-13.438-26.277-22.593-45.777-27.467-58.501c-1.427-4.637-2.765-10.818-4.013-18.549c-1.249-7.728-1.873-14.804-1.873-21.225
		c0-7.728,0.772-14.653,2.318-20.779c1.544-6.123,3.715-11.206,6.51-15.25c2.792-4.041,5.914-7.491,9.364-10.345
		c3.447-2.854,7.371-5.022,11.771-6.51c4.397-1.485,8.62-2.556,12.664-3.21c4.041-0.652,8.321-0.981,12.842-0.981
		c15.456,0,27.316,4.133,35.582,12.396c8.263,8.266,12.396,22.682,12.396,43.252c0,9.751-0.864,15.846-2.586,18.282
		c-1.725,2.438-5.262,3.539-10.612,3.299h-6.243c-1.903,0-3.241-0.028-4.013-0.089c-0.774-0.059-2.023-0.268-3.746-0.625
		c-1.725-0.356-3.152-1.098-4.28-2.229c-1.131-1.128-2.112-2.586-2.943-4.37c-2.26-26.397-7.968-39.595-17.123-39.595
		c-3.807,0-7.552,1.873-11.236,5.618c-3.687,3.746-5.529,8.355-5.529,13.823c0,13.318,7.312,33.531,21.938,60.642
		c3.328,7.374,6.123,13.318,8.383,17.836c3.684,8.324,7.787,17.122,12.307,26.397c3.804,7.611,7.876,15.994,12.218,25.148
		c4.339,9.157,7.104,15.756,8.293,19.797h-0.356C1888.112,864.991,1889.957,877.417,1889.957,892.16z"/>
	<path class="st0" d="M1999.646,668.143c0,9.274-2.438,13.912-7.312,13.912h-21.403c-0.833,0-1.249,0.597-1.249,1.784v256.122
		c0,2.26-0.686,4.074-2.051,5.439c-1.369,1.368-2.974,2.229-4.816,2.586c-1.845,0.357-3.776,0.597-5.796,0.714
		c-2.023,0.117-3.746,0.117-5.172,0c-0.597,0.237-1.756,0.268-3.478,0.089c-1.725-0.178-3.567-0.384-5.529-0.624
		c-1.962-0.236-3.687-1.098-5.172-2.586c-1.488-1.485-2.229-3.479-2.229-5.976V684.194l-0.356-2.14h-22.295
		c-1.784,0-3.241-0.652-4.37-1.962c-1.131-1.307-1.903-2.971-2.319-4.994c-0.418-2.021-0.686-3.506-0.802-4.459
		c-0.12-0.95-0.179-1.783-0.179-2.497c0-8.798,2.913-13.199,8.74-13.199h77.05C1996.731,654.944,1999.646,659.344,1999.646,668.143z
		"/>
	<path class="st0" d="M2103.451,934.787c0,9.274-2.559,13.912-7.67,13.912h-71.343c-1.31,0-3.032-1.159-5.172-3.478
		c-2.14-2.319-3.21-4.191-3.21-5.619V664.575c0-1.664,1.249-3.625,3.746-5.886c2.497-2.257,4.518-3.389,6.064-3.389h68.311
		c6.182,0,9.275,4.757,9.275,14.269c0,9.514-2.559,14.269-7.67,14.269h-43.875c-0.477,0-0.713,0.596-0.713,1.784v94.708
		c0,1.19,0.237,1.783,0.713,1.783h31.034c2.258,0,4.072,1.132,5.439,3.389c1.367,2.26,2.17,4.52,2.408,6.777l0.18,3.389
		c0,0.953-0.09,2.051-0.268,3.3c-0.18,1.249-0.508,2.765-0.982,4.548c-0.477,1.783-1.309,3.241-2.496,4.37
		c-1.189,1.131-2.617,1.694-4.281,1.694h-31.034c-0.477,0-0.713,0.596-0.713,1.784v108.085c0,1.19,0.237,1.784,0.713,1.784h43.875
		C2100.893,921.232,2103.451,925.752,2103.451,934.787z"/>
	<path class="st0" d="M2221.881,770.163c-0.477,4.757-2.438,10.139-5.886,16.141c-3.45,6.006-7.67,9.484-12.664,10.434
		c-0.119,0,0.117,0.178,0.714,0.535c2.377,1.547,4.339,3.093,5.886,4.637c5.351,5.234,8.263,14.21,8.739,26.932v100.95
		c0-0.236,0.059-0.147,0.179,0.268c0.117,0.418,0.268,0.981,0.445,1.694c0.179,0.714,0.385,1.578,0.625,2.587
		c0.236,1.012,0.415,1.755,0.535,2.229l1.069,3.745c-0.953,1.903-1.427,3.629-1.427,5.173c-4.163,2.14-9.274,3.21-15.339,3.21
		h-1.069c-1.547,0-3.183,0.028-4.905,0.089c-1.725,0.059-3.478-0.206-5.262-0.803c-1.783-0.593-3.389-1.396-4.815-2.407
		c-1.427-1.009-2.586-2.614-3.478-4.815c-0.893-2.199-1.338-4.905-1.338-8.115v-82.224c0-1.07-0.24-3.149-0.714-6.242
		c-0.833-10.105-2.915-16.883-6.242-20.333c-3.33-3.447-7.909-5.172-13.733-5.172c-4.4,0-6.6,0.597-6.6,1.784v119.5
		c0,2.26-0.686,4.102-2.051,5.529c-1.368,1.427-3.005,2.29-4.905,2.586c-1.903,0.298-3.807,0.507-5.707,0.624
		c-1.903,0.117-3.389,0.117-4.459,0c-0.834,0.237-2.202,0.268-4.103,0.089c-1.903-0.178-3.807-0.445-5.707-0.803
		c-1.903-0.356-3.567-1.248-4.994-2.675c-1.427-1.427-2.141-3.327-2.141-5.708v-275.74c0-1.307,0.803-3.001,2.408-5.083
		c1.604-2.079,3.001-3.358,4.191-3.834h34.423c7.251,0,12.365,0.031,15.339,0.089c2.971,0.061,7.134,0.596,12.485,1.605
		c5.351,1.012,10.166,2.528,14.446,4.548c4.994,3.093,8.798,7.937,11.415,14.536c2.614,6.599,4.161,12.992,4.638,19.173v75.267
		H2221.881z M2187.636,725.217c0-4.161,0-7.104,0-8.829c0-1.722-0.15-4.397-0.445-8.026c-0.299-3.625-0.714-6.27-1.249-7.937
		c-0.535-1.664-1.338-3.715-2.408-6.153c-1.069-2.436-2.407-4.219-4.013-5.351c-1.605-1.128-3.628-2.14-6.064-3.032
		c-2.438-0.892-5.261-1.338-8.472-1.338c-5.591,0-8.383,0.655-8.383,1.962v98.454c0,1.547,1.427,2.318,4.28,2.318
		c3.685,0,6.984-0.535,9.899-1.605c2.912-1.07,5.289-2.319,7.134-3.746c1.843-1.427,3.417-3.625,4.727-6.599
		c1.308-2.971,2.288-5.587,2.943-7.848c0.652-2.257,1.129-5.618,1.427-10.077c0.295-4.459,0.474-7.996,0.535-10.612
		c0.059-2.614,0.089-6.538,0.089-11.772L2187.636,725.217L2187.636,725.217z"/>
	<path class="st0" d="M2238.289,664.218v-3.032c2.141-4.637,4.34-8.085,6.6-10.345c2.257-2.257,4.13-3.595,5.618-4.013
		c1.485-0.415,3.595-0.625,6.332-0.625c6.301,0,10.938,2.171,13.912,6.51c2.971,4.342,4.458,10.197,4.458,17.568
		c0,0.713-0.061,1.546-0.178,2.497c-0.12,0.953-0.179,1.488-0.179,1.605v5.172c0,6.304-0.535,11.892-1.605,16.766
		c-2.616,8.681-8.801,16.351-18.549,23.008c-3.924-1.664-7.73-4.696-11.415-9.096c4.397-12.602,6.6-20.689,6.6-24.257
		c0-2.614-0.597-4.518-1.784-5.708c-0.239-0.237-0.565-0.741-0.98-1.516c-0.418-0.772-0.803-1.396-1.159-1.873
		C2242.985,673.315,2240.43,669.096,2238.289,664.218z"/>
	<path class="st0" d="M2393.818,892.16c0,7.49-0.625,14.21-1.873,20.154c-1.249,5.947-2.795,10.852-4.638,14.714
		c-1.845,3.866-4.369,7.196-7.58,9.988c-3.21,2.795-6.273,4.936-9.186,6.421c-2.915,1.488-6.571,2.647-10.969,3.479
		c-4.4,0.833-8.235,1.337-11.504,1.516c-3.271,0.179-7.285,0.268-12.039,0.268c-8.682,0-17.242-3.121-25.684-9.364
		c-8.444-6.242-14.509-15.664-18.192-28.27c0-2.377-0.24-6.538-0.714-12.484c-0.477-5.708-0.713-8.74-0.713-9.097s0-0.892,0-1.605
		c0-3.327,0-5.707,0-7.134s0.089-3.149,0.268-5.173c0.178-2.021,0.325-3.327,0.445-3.924c0.117-0.594,0.535-1.396,1.249-2.407
		c0.713-1.009,1.276-1.575,1.694-1.694c0.415-0.117,1.337-0.326,2.765-0.625c1.427-0.295,2.613-0.445,3.566-0.445
		c0.95,0,2.614,0,4.994,0h2.141c5.707,0,9.748,0.356,12.128,1.07c1.784,3.33,3.032,5.769,3.746,7.312
		c0.356,4.28,0.683,7.61,0.98,9.987c0.296,2.381,0.772,5.502,1.427,9.364c0.652,3.865,1.396,6.897,2.229,9.097
		c0.831,2.201,1.932,4.489,3.3,6.866c1.365,2.38,3.032,4.103,4.994,5.173c1.962,1.069,4.191,1.604,6.688,1.604
		c5.23,0,9.213-2.051,11.95-6.153c2.733-4.102,4.102-9.48,4.102-16.141c0-3.567-0.863-8.085-2.586-13.556
		c-1.725-5.468-4.877-13.048-9.453-22.74c-4.578-9.69-7.998-16.794-10.255-21.314c-2.261-4.518-6.72-13.315-13.377-26.397
		c-13.438-26.277-22.593-45.777-27.468-58.501c-1.427-4.637-2.765-10.818-4.013-18.549c-1.248-7.728-1.873-14.804-1.873-21.225
		c0-7.728,0.772-14.653,2.319-20.779c1.544-6.123,3.715-11.206,6.51-15.25c2.792-4.041,5.913-7.491,9.363-10.345
		c3.447-2.854,7.372-5.022,11.772-6.51c4.397-1.485,8.619-2.556,12.663-3.21c4.041-0.652,8.321-0.981,12.842-0.981
		c15.456,0,27.316,4.133,35.582,12.396c8.263,8.266,12.396,22.682,12.396,43.252c0,9.751-0.864,15.846-2.587,18.282
		c-1.725,2.438-5.262,3.539-10.612,3.299h-6.242c-1.903,0-3.241-0.028-4.013-0.089c-0.775-0.059-2.023-0.268-3.746-0.625
		c-1.725-0.356-3.151-1.098-4.28-2.229c-1.132-1.128-2.112-2.586-2.943-4.37c-2.26-26.397-7.967-39.595-17.122-39.595
		c-3.807,0-7.553,1.873-11.236,5.618c-3.688,3.746-5.529,8.355-5.529,13.823c0,13.318,7.312,33.531,21.938,60.642
		c3.327,7.374,6.122,13.318,8.383,17.836c3.684,8.324,7.786,17.122,12.307,26.397c3.804,7.611,7.875,15.994,12.217,25.148
		c4.34,9.157,7.104,15.756,8.294,19.797h-0.356C2391.973,864.991,2393.818,877.417,2393.818,892.16z"/>
	<path class="st0" d="M2598.037,669.569c0,1.427-0.178,3.121-0.535,5.083c-0.356,1.962-1.221,3.985-2.586,6.064
		c-1.368,2.082-3.121,3.121-5.262,3.121h-43.876c-0.239,0.713-0.356,1.31-0.356,1.784v94.708l0.356,1.783h31.392
		c2.496,0,4.428,1.132,5.796,3.389c1.366,2.26,2.168,4.52,2.408,6.777l0.179,3.389c0,1.31-0.179,2.915-0.535,4.816
		c-0.357,1.903-1.221,3.896-2.587,5.975c-1.368,2.082-3.121,3.121-5.261,3.121h-31.392c-0.239,0.713-0.356,1.31-0.356,1.784v128.596
		c0,2.26-0.686,4.102-2.051,5.529c-1.369,1.427-3.032,2.29-4.994,2.586c-1.962,0.298-3.955,0.507-5.976,0.624
		c-2.023,0.117-3.628,0.117-4.815,0c-0.714,0.237-2.023,0.237-3.924,0c-1.903-0.237-3.807-0.505-5.707-0.803
		c-1.904-0.295-3.599-1.159-5.084-2.586c-1.488-1.427-2.229-3.327-2.229-5.708V664.575c0-1.664,1.129-3.625,3.39-5.886
		c2.257-2.257,4.339-3.389,6.242-3.389h67.954C2594.766,655.301,2598.037,660.058,2598.037,669.569z"/>
	<path class="st0" d="M2655.469,939.96c0,3.21-1.189,5.529-3.567,6.956c-2.38,1.427-4.846,2.051-7.401,1.872
		c-2.559-0.178-4.609-0.206-6.153-0.089c-0.833,0.237-2.171,0.237-4.013,0c-1.846-0.237-3.746-0.505-5.708-0.803
		c-1.962-0.295-3.687-1.159-5.172-2.586c-1.488-1.427-2.229-3.327-2.229-5.708V664.575c0-2.614,0.741-4.665,2.229-6.153
		c1.485-1.485,3.21-2.347,5.172-2.586c1.962-0.237,3.894-0.446,5.797-0.624c1.9-0.178,3.327-0.148,4.28,0.089
		c0.95-0.237,2.347-0.237,4.191,0c1.843,0.239,3.715,0.507,5.618,0.802c1.901,0.298,3.537,1.19,4.905,2.675
		c1.365,1.488,2.051,3.42,2.051,5.797L2655.469,939.96L2655.469,939.96z"/>
	<path class="st0" d="M2774.969,939.96c0,1.427-0.268,2.675-0.803,3.745s-1.279,1.935-2.229,2.586
		c-0.953,0.655-1.903,1.16-2.854,1.517c-0.953,0.356-2.112,0.597-3.479,0.713c-1.368,0.12-2.469,0.207-3.299,0.268
		c-0.834,0.059-1.784,0.059-2.854,0c-1.07-0.061-1.666-0.089-1.783-0.089h-2.141c-2.854,0-4.936-0.089-6.242-0.268
		c-1.31-0.179-2.795-0.771-4.459-1.783c-1.667-1.009-3.004-2.703-4.013-5.084c-1.012-2.377-1.935-5.587-2.765-9.631
		c-3.688-20.333-10.88-53.803-21.582-100.416c-1.546-5.708-2.497-9.749-2.854-12.128v120.57c0,3.21-1.221,5.529-3.656,6.956
		c-2.438,1.427-4.966,2.051-7.58,1.872c-2.617-0.178-4.757-0.206-6.421-0.089c-0.833,0.237-2.141,0.268-3.924,0.089
		c-1.783-0.178-3.598-0.445-5.44-0.803c-1.845-0.356-3.478-1.248-4.904-2.675s-2.141-3.327-2.141-5.708v-275.74
		c0-6.895,5.825-9.868,17.479-8.918h1.962c2.377,0,4.309,0.15,5.797,0.446c1.485,0.298,3.06,0.922,4.727,1.873
		c1.663,0.953,3.06,2.527,4.191,4.727c1.128,2.201,2.051,5.083,2.764,8.65c3.805,19.739,10.88,52.379,21.225,97.918l2.854,12.842
		V663.862c0-6.895,6.122-9.868,18.37-8.918c0.594-0.117,1.396-0.117,2.408,0c1.009,0.12,2.109,0.178,3.3,0.178
		c1.187,0,2.407,0.209,3.656,0.625c1.248,0.418,2.347,0.922,3.3,1.516c0.95,0.596,1.753,1.458,2.407,2.586
		c0.652,1.131,0.981,2.469,0.981,4.013V939.96H2774.969z"/>
	<path class="st0" d="M2880.378,934.787c0,9.274-2.558,13.912-7.669,13.912h-71.343c-1.311,0-3.032-1.159-5.173-3.478
		c-2.141-2.319-3.21-4.191-3.21-5.619V664.575c0-1.664,1.248-3.625,3.745-5.886c2.497-2.257,4.518-3.389,6.064-3.389h68.311
		c6.182,0,9.274,4.757,9.274,14.269c0,9.514-2.558,14.269-7.669,14.269h-43.876c-0.477,0-0.714,0.596-0.714,1.784v94.708
		c0,1.19,0.237,1.783,0.714,1.783h31.034c2.257,0,4.071,1.132,5.439,3.389c1.366,2.26,2.169,4.52,2.408,6.777l0.179,3.389
		c0,0.953-0.09,2.051-0.268,3.3c-0.179,1.249-0.508,2.765-0.981,4.548c-0.477,1.783-1.31,3.241-2.497,4.37
		c-1.189,1.131-2.616,1.694-4.28,1.694h-31.034c-0.477,0-0.714,0.596-0.714,1.784v108.085c0,1.19,0.237,1.784,0.714,1.784h43.876
		C2877.82,921.232,2880.378,925.752,2880.378,934.787z"/>
	<path class="st0" d="M3001.84,892.16c0,7.49-0.625,14.21-1.873,20.154c-1.249,5.947-2.795,10.852-4.638,14.714
		c-1.845,3.866-4.369,7.196-7.58,9.988c-3.21,2.795-6.273,4.936-9.186,6.421c-2.915,1.488-6.571,2.647-10.969,3.479
		c-4.4,0.833-8.235,1.337-11.504,1.516c-3.271,0.179-7.285,0.268-12.039,0.268c-8.682,0-17.242-3.121-25.684-9.364
		c-8.444-6.242-14.509-15.664-18.192-28.27c0-2.377-0.24-6.538-0.714-12.484c-0.477-5.708-0.713-8.74-0.713-9.097s0-0.892,0-1.605
		c0-3.327,0-5.707,0-7.134s0.089-3.149,0.268-5.173c0.178-2.021,0.325-3.327,0.445-3.924c0.117-0.594,0.535-1.396,1.249-2.407
		c0.713-1.009,1.276-1.575,1.694-1.694c0.415-0.117,1.337-0.326,2.765-0.625c1.427-0.295,2.613-0.445,3.566-0.445
		c0.95,0,2.614,0,4.994,0h2.141c5.707,0,9.748,0.356,12.128,1.07c1.784,3.33,3.032,5.769,3.746,7.312
		c0.356,4.28,0.683,7.61,0.98,9.987c0.296,2.381,0.772,5.502,1.427,9.364c0.652,3.865,1.396,6.897,2.229,9.097
		c0.831,2.201,1.932,4.489,3.3,6.866c1.365,2.38,3.032,4.103,4.994,5.173c1.962,1.069,4.191,1.604,6.688,1.604
		c5.23,0,9.213-2.051,11.95-6.153c2.733-4.102,4.102-9.48,4.102-16.141c0-3.567-0.863-8.085-2.586-13.556
		c-1.725-5.468-4.877-13.048-9.453-22.74c-4.578-9.69-7.998-16.794-10.255-21.314c-2.261-4.518-6.72-13.315-13.377-26.397
		c-13.438-26.277-22.593-45.777-27.468-58.501c-1.427-4.637-2.765-10.818-4.013-18.549c-1.248-7.728-1.873-14.804-1.873-21.225
		c0-7.728,0.772-14.653,2.319-20.779c1.544-6.123,3.715-11.206,6.51-15.25c2.792-4.041,5.913-7.491,9.363-10.345
		c3.447-2.854,7.372-5.022,11.772-6.51c4.397-1.485,8.619-2.556,12.663-3.21c4.041-0.652,8.321-0.981,12.842-0.981
		c15.456,0,27.316,4.133,35.582,12.396c8.263,8.266,12.396,22.682,12.396,43.252c0,9.751-0.864,15.846-2.587,18.282
		c-1.725,2.438-5.262,3.539-10.612,3.299h-6.242c-1.903,0-3.241-0.028-4.013-0.089c-0.775-0.059-2.023-0.268-3.746-0.625
		c-1.725-0.356-3.151-1.098-4.28-2.229c-1.132-1.128-2.112-2.586-2.943-4.37c-2.26-26.397-7.967-39.595-17.122-39.595
		c-3.807,0-7.553,1.873-11.236,5.618c-3.688,3.746-5.529,8.355-5.529,13.823c0,13.318,7.312,33.531,21.938,60.642
		c3.327,7.374,6.122,13.318,8.383,17.836c3.684,8.324,7.786,17.122,12.307,26.397c3.804,7.611,7.875,15.994,12.217,25.148
		c4.34,9.157,7.104,15.756,8.294,19.797h-0.356C2999.994,864.991,3001.84,877.417,3001.84,892.16z"/>
	<path class="st0" d="M3111.529,668.143c0,9.274-2.438,13.912-7.312,13.912h-21.403c-0.833,0-1.248,0.597-1.248,1.784v256.122
		c0,2.26-0.686,4.074-2.052,5.439c-1.368,1.368-2.974,2.229-4.815,2.586c-1.845,0.357-3.776,0.597-5.797,0.714
		c-2.022,0.117-3.745,0.117-5.172,0c-0.597,0.237-1.756,0.268-3.479,0.089c-1.725-0.178-3.566-0.384-5.528-0.624
		c-1.962-0.236-3.688-1.098-5.173-2.586c-1.488-1.485-2.229-3.479-2.229-5.976V684.194l-0.356-2.14h-22.295
		c-1.783,0-3.241-0.652-4.37-1.962c-1.131-1.307-1.903-2.971-2.318-4.994c-0.418-2.021-0.686-3.506-0.803-4.459
		c-0.119-0.95-0.178-1.783-0.178-2.497c0-8.798,2.912-13.199,8.739-13.199h77.051
		C3108.614,654.944,3111.529,659.344,3111.529,668.143z"/>
</g>
</svg>
