<svg version="1.1" id="Layer_1" xmlns="http://www.w3.org/2000/svg" x="0" y="0" viewBox="0 0 227 392" style="enable-background:new 0 0 227 392" xml:space="preserve"><style>.st1{fill-rule:evenodd;clip-rule:evenodd;fill:#6d3d0f}.st3{fill:#f7c0c2}.st3,.st4{fill-rule:evenodd;clip-rule:evenodd}.st5{fill:#888989}.st5,.st6{fill-rule:evenodd;clip-rule:evenodd}.st6,.st7{fill:#e05512}.st10{fill-rule:evenodd;clip-rule:evenodd;fill:#fff}</style><path d="m62 349 28.8 1.7 8.6-59.5 3.2-.4 3.7 62 14.5-.6 14.7 2 1.3-4.5-5-82.6-25 2.1-4-13.2-4.4-1.6-4.9 13.7-29.6-5.3 1.8 37-3.5 32L62 349z" style="fill-rule:evenodd;clip-rule:evenodd;fill:#144295"/><path class="st1" d="m60.7 349.4 11.7 1.1 13.3-.5 5.1.7-3.2 11.1-7.4 6.3-14.2 7-8.7 2.3-6.5-2.4-2.3-7 2-6.6 4.8-6.2 5.4-5.8z"/><path d="M199 188.3c0-.7-19.7-19.8-19.7-19.8l8-3.5 6.2 5.4 2 5.7 4.4.3 18.8 21.5 1.2 6.6-7.8-3.8-13-12.4h-.2z" style="fill-rule:evenodd;clip-rule:evenodd;fill:#9f6219"/><path class="st3" d="m180.5 168 3.4 5.3 16.5 15-4 1.1-7.4 3.3-20.3-12.9-.3-5.4-.5-7c0-.7 3.3-6.6 3.3-6.6l4.5-2 5.4-1.2 4 1.8.3 3.5-1.8 4.4-3 .7z"/><path d="M112 290.2c1-.3 1-.3 1.7.5l-1.6 2-3.4 3.7-3 3.5c-.3.2-.3.5-.3.8l.1 2.3 3.1-3.5 2.3-2.4.8-.8c.3-.4.8-.8 1.2-1h1.1v1.4l-1.7 2.1-2.2 2.5c-1 1.2-1.9 2.6-2.9 4l-.5.6c-1 .4-1 1.3-.8 2.2l.1 2.7c.8-.8 1.5-1.4 2-2.2 1.4-2 3-3.5 4.7-5.2.5-.5 1-1 1.6-1.3.5-.3 1 0 1.6-.2l.2.4c-.3.6-.6 1.3-1 1.8-2.4 3.2-4.8 6.6-7.6 9.5-1.7 1.7-.5 3.3-1 5h.3l1.2-1.5c1.6-2 3.2-4 5-5.9.5-.7 1.2-1.3 2-1.7.5-.3 1.2-.2 1.8-.3.2 1-.3 1.4-.7 2l-4.5 5.8c-1.5 2-2.6 4-4.4 5.6l-.2.6c0 1.6.2 3.1.4 5 .8-1 1.5-1.6 2-2.4l4.2-5c.2-.4.7-.6 1-.6.7 0 1.1.2.7 1-1 1.6-2 3.5-3.2 5.2-1.3 2-3 3.8-4.4 6-.5.7-.2 2-.4 3h.4l2.2-2.5c1.4-1.6 2.7-3.2 4.2-4.6.3-.4 1-.5 1.4-.5l.8.3c0 .5 0 1.2-.3 1.4-1.4 1.1-2 2.8-3 4.2a52 52 0 0 1-3.7 4.3c-1.5 1.5-1.6 3.3-1.5 5.4l1.8-2c2-2.5 4-5 6.4-7l.8-.7c.7-.7 1.2-.5 2 .2l-1.3 2-5 6.5-1.5 2c-.8 1-2 2-2.6 3.2-.5.8-.3 2-.2 3 0 .4 1.7.4 2.1 0l3.8-4.5 2.4-2.4.8-.7c.3-.5.7-.5 1.1-.2.4.2.4.5.4 1-.3 1.5-1.6 2.2-2.3 3.3-.7 1.2-1.7 2.2-2.5 3.4v.2h3l.5-.8c1.2-1.3 2.4-2.7 3.8-3.9.6-.6 1.5-1 2.3-1.4.2 0 .8.1 1 .3.5.5.1 1 0 1.4l-3.5 4.4 2.2.2 2 .2.6-.4 4.2-4.4c.4-.4 1-.5 1.6-.7.5 0 .8.1.6.6 0 .6-.2 1.2-.5 1.6-.8 1.2-1.7 2.3-2.6 3.3l-.7.8 5.5 1.3c1.5-2.7 1-5.5.6-8.4l-.4-8.3c-.2-4-.2-8.2-.3-12.3l-.3-14-.6-11-.3-7c-.3-3-.8-6.2-1-9.3l-.7-7.7-.6-5.2c0-.6-.4-1-1.2-.9h-5.6c-1.9 0-3.8.2-5.6.4l-5.4.5-3.3.4c-.2 0-.5.3-.8.5-.7.2-1.4.7-2 .7-.7 0-1-.8-1.3-1.7-.3-1.7-1-3.3-1.5-4.9l-1-4c-.2-1-.2-2.3-.8-3.2-.4-.7-1.6-1-2.4-1.4l-.4.4-2 6.7-1.4 4c-.3 1-.8 1.6-2 1.5-1 0-2 .3-3 .2-1.3-.2-2.6-.8-3.9-1.2-1.4-.4-2.9-.5-4.3-.8l-4-.8h-.8l-3.3.1c.2 1.2-.7 1.6-1.3 2.2-.8.8-1.7 1.4-2.5 2l-3.5 3.1v2.2l3.1-2.9c1-.9 2-1.7 3.1-2.4a2 2 0 0 1 1.3-.2c.6.2.8 1.1.2 1.7l-3.8 3.4c-1 1-2 2.2-3.2 2.8-1.2.6-1.3 1.5-1.2 2.6 0 .6-.2 1.1 0 1.8l3-2.7a69 69 0 0 1 4.3-3.3c.8-.2 1 .2 1 1-.3 1.3-1.4 1.8-2.2 2.6l-5.3 6c-.9.8-1 2-.8 3.7h.5l5.8-5.7c.7-.6 1.3-1.3 2.3-1.3.5 0 1 .2.6.8l-.8 1.4-3 3.7-.8.5c-.8.8-1.5 1.6-2.4 2.3l-1.7 1.3c-.3 0-.5.3-.5.5v3.6h.5l5.3-5.2c1-.8 2-1.4 3-2 .4-.2 1 0 1.5 0 0 1.4-1 2-1.6 2.7-1.6 1.6-3.3 3-5 4.5l-3.5 3.6c-.3.4-.4 1-.4 1.5l.3 3 3.8-3.3c1-.8 1.8-1.7 2.8-2.4.6-.4 1.3-.3 2-.5 0 1-.4 2-1 2.7l-6.8 7.1c-.7.8-1 1.6-1 2.5v2.1l1.3-1.2 4.1-4c.4-.4 1-.6 1.5-.8.7-.2 1.1.3.8 1l-1.3 2c-1.3 1.3-2.6 2.6-3.8 4.1-1 1-2 2.2-2.6 3.5-.6 1-.5 2.2-.7 3.4l.2.1 1.1-1.2c2-1.8 4-3.4 5.7-5.2.6-.5 1-1 1.8-1 .3 0 .7.2 1 .5l-.2.8-4.8 5.2c-1.2 1.4-2.4 3-3.9 4.2-1 1-1.3 1.8-1 3v.8l2.5-2.4 4-3.7c.1-.2.4-.5.7-.5h1.2l-.2 1c-.7 2-2.4 3.1-3.6 4.6l-4.4 5.5c-.4.5-.3 1.3-.3 2l-.3 3 3.4-3.7 3.8-3.5 1.1-.5 1.1.2c0 .4 0 1-.3 1.1l-6.8 8-4 4.3c-.2.3 0 1-.2 1.4l.1 2.3 2-1.8 4.6-4.5c.3-.3 1.2-.2 1.8-.2 0 0 .2.5.1.6l-1 1.5-3.6 4.4c-.2.1-.2.3-.3.5 1.7 1 3 .6 4.6-1 1-.9 1.7-1.7 2.7-2.4.3-.2 1-.3 1.4 0 .5.2.3 1 0 1.3l-1.2 1.7-1.2 1.4c1.1.7 2 .2 3 0 1.7-.5 3.5-.4 5.3-.2 1.3.1 2.6-.4 4-.4.5 0 1.3.2 2 .6.4.4.8 1.2.3 2-.3.4-.9.7-1.5.8-.4.1-1 0-1.4-.2H79.3c-1 0-2.4 0-3.4.3-1.5.4-2.9 0-4.3 0l-5.7-.7c-1.2 0-2.3-.3-3.5-.6a2 2 0 0 0-1.8.6l-4.8 5a14.2 14.2 0 0 0-3.6 5.8c-.3 1.3-.9 2.6-1.4 4-.6 1.4-.2 3 0 4.5v.3c0 1.6.7 2.6 2 3.4 2 1 4 1.3 6 1.5l1.5-.3 6-2c2.3-1 4.5-2.3 6.8-3.3 3.1-1.3 5.8-3.2 8.3-5.4 1.4-1 2.3-2.7 3.5-4.2.8-1 1.4-2 1.5-3.5.1-1.2.6-2.5 1-3.6.2-1 .7-1.4 2-1.2.8.1 1 .8 1 1.5l-.6 3c-.4 2.1-1.2 4-2.7 5.8l-3.7 4.3-1.4 1c-2.5 2-5.2 3.5-8.2 4.8-1.4.7-2.6 1.6-4 2.2-2 .8-3.9 1.4-5.9 2l-3.3 1c-1.6.6-3.3.6-5 .2-1.5-.4-3-.7-4.5-1.3-2.8-1.2-3.8-3.7-3.9-6.6 0-1.2-.2-2.4 0-3.5.2-1.2.8-2.5 1.2-3.7 1-2.4 1.7-5 3.5-7l4.7-4.8c1-1 2-1.8 2.8-2.8.4-.6.5-1.5.6-2.4l.1-2.7c-1.2-.6-1-1.6-.6-2.7.5-2.4.7-4.8 1-7l.8-6.3 1.2-11.9 1-12.7v-11l.3-13v-7c0-2.4.2-4.6-.4-6.8v-.6l-.8-.5c-.7-.5-1.3-1-1-2 .8-2 .8-4 1-6l.4-5.8v-2.9l.1-3.5c0-.4 0-1-.4-1.2-.8-.8-1.7-1.4-2.3-2.5 0-.3-.8-.4-1.3-.5h-1a31.4 31.4 0 0 1-9.8-5.2c-1.5-1.2-2.8-2.8-4.3-4-2.4-2-3.8-4.8-5.3-7.6a33 33 0 0 1-2.4-6.6l-1.7-5.7c-.4-1-.5-2.2-.6-3.3 0-2.6-.3-5.2-.2-7.8 0-2 .3-4.3 1-6.3a76 76 0 0 1 3.5-10c1-2.7 2.6-5 4-7.5.5-1 1.3-1.7 2-2.5 2-1.9 4-3.9 6-5.6 2-1.8 4.3-3.6 6.8-4.9 1.7-.7 3.3-1.6 5-2.4 1.2-.6 2.5-1 3.8-1.4l3.5-.6 3.8-.5.2.1c.8.7 1.2.3 1.8-.3.8-.7 1.8-1 2.8-1.7.5-.2.5-.5.6-1 0-2 .2-3.9.3-5.9l.4-8c0-.2-.3-.7-.6-.7-5-1.6-8.9-5-12.7-8.3-2-1.8-3.7-3.6-5-5.9l-2.8-4.6-.3-.4c-.8 1.2-1.7 2.3-3.4 2.6-1.2.2-2.3.8-3.5 1.2-.5.2-1 .5-1.4.5-2.2.1-4 1-6 1.6l-3.6.7c-2.2.5-4.3 1-6.5 1.7-1 .3-1.8.4-2.9.2s-2.4 0-3.6.2l-6.9.8h-3.8l-2.2.2-3.2-.3c-.5 0-1.9-1.6-1.8-2 0-.3.2-.6.4-.7 1.6-1.3 3.2-2.7 4.5-4.4.2-.2.7-.3 1.2-.5l.8-1.2 2.4-4.2c1-1.6 1.6-3.3 2.4-5 1-2 1.6-4 2-6.4l1.4-4.6a58 58 0 0 0 1.6-8c.3-2.9.3-5.8.4-8.7v-5.3l-.3-3.6.2-11.2c0-1.4.3-2.8.4-4 .2-1.5.1-3 .3-4.4 0-.8.2-1.6.4-2.4l1.3-5.4c.8-2.3 1-4.9 2.4-7 .8-1.2 1.2-2.7 2-4 1.2-2.2 1.8-4.6 3.4-6.7 1.6-2 2.7-4.4 4.1-6.6.7-1.2 1.6-2.2 2.5-3.4l2-2.6.7-.8c.6-.7 1-1.5 1.7-2 1-1 2.2-1.9 3.3-2.8 1-.9 2-2 3-2.7 1.3-1 2.8-1.8 4.2-2.6l5-2.7 1.7-.6 7-1.8c1.3-.2 2.6 0 3.8-.3.5 0 1 0 1.4-.3 2-.9 4.2-.7 6.2-.8h5c2 .2 3.8 1 5.4 2.2l3 2c.4.1 1.1 0 1.6-.2 1.3-.5 2.5-1.2 3.7-2 1.5-1 3.2-1 4.8-1.4 2.3-.6 4.2.4 6.3.7 3.2.5 6.3 1.6 9.2 3 1.3.5 2.3 1.6 3.5 2.6 3.4 3 5.4 6.6 6.7 11l1.2 3.8c.7 2 .8 4 .7 6.2l.1.6c2 3 2.8 6.4 3.5 9.8.3 1 .7 1.8.8 2.6l1 4.3c.7 4.4 1.5 9 2 13.5.4 3 .3 6 .5 8.8 0 1.7.4 3.5.3 5.2 0 2.2 0 4.3-.3 6.4l-1.7 11c-.2 1-.7 2-.8 3v2c.4 2 .8 4 1.4 6a90.8 90.8 0 0 0 4.6 11.7l4.2 6.2 5.4 6.5c.6.7 1.3 1 2.2 1.1 3 .2 5.5 1.3 8 3 .8.4 1.5.8 2.1 1.4a7.7 7.7 0 0 1 2.3 6c0 1.3.5 2.7.8 4l.4 1.3c.3 1 1.4 1.4 2.2 2.1.8.8 1.6 1.6 2 2.6 1 1.6 2 3.2 3.4 4.4.3.2 1 .3 1.3.2l4.5-1.8c1.6-.5 3.3-.8 5-1 1.2-.2 2.5.2 3.8.2a4 4 0 0 1 2.3.7c.5.3 1.4.3 2 .2 2.4-.3 4.8 1 6 3l1.4 1.4 1.7 2 2 2.4 1.5 3 .4 1 .5 1.8.5 2.4c.5 2 .7 4 .3 6-.4 1.7-.7 3.4-1.5 5a16 16 0 0 1-2.6 3.8c-.5.7-.6 1 .1 1.6l2.7 2.5c1.1 1.2 2.3 2.3 3.3 3.6 1.6 2 3.2 4 4.6 6.2 1.5 2 2.2 4.5 2 7-.4 1.8-1.8 2.7-3.4 1.8-1.8-1-3.7-2-5.4-3.2-1.6-1-3-2.5-4.5-4l-2.8-2.6c-1.4-1.5-3-2.8-4.4-4.4-.8-1-1.7-1-2.7-.8-1.3.3-2.7.5-3.9 1a18 18 0 0 0-3.7 2.4c-.7.7-1 2-1.5 2.7-1.9 2.8-3.2 6-5.7 8.4-1 1.1-1.8 2.5-2.8 3.7-1 1-2 2-3.2 2.8-1 1-2.3 2-3.6 2.8l-3.4 2c-2.7 1.2-5.3 2.4-8.3 2.8l-5 .5c-1.8.1-3.7.5-5.5.3-3.2-.3-6.3-1-9.4-1.6l-1-.2c.4 1 1 1.8 1.6 2.6l2.6 4.6c.6 1.5 1 3.1 1.3 4.7.3 1.4.6 3 .7 4.3a53.8 53.8 0 0 1-1.5 10c-.7 1.5-1.4 3.2-2.3 4.8-.9 1.5-2 3-3 4.3-.9 1-1.8 2-2.8 2.8L134 258c-1 .7-1.3 1-1 2.7.2 1 .3 2.1.3 3.2 0 .3-.3.7-.4 1l-.3.6.5.3 1 .1c.4.2 1 .7.8 1 0 .4-.5.8-.8 1.1-.3.3-.8.2-1.3.4l.6 4.5 1 10.8c.3 5 1 10.1 1.2 15.2.3 4.7.4 9.6.6 14.3l.3 9 .3 15.2c0 2.4.4 4.8.7 7.2.3 2.7.6 5.4 0 8.1 0 .3-.2.5-.4.7 1.3.7 2.8 1.5 4.2 2 1.2.6 2.5.8 3.8 1.1 1.6.4 2.7 1.3 3.5 2.8 1.2 2 2.5 3.8 3.5 5.8s1.5 4 .5 6.2c-1 2-1.9 4-3.7 5.4a13.2 13.2 0 0 1-9 3.4c-2.3 0-4.3-.7-6.3-1.5l-5.8-1.8c-5.2-1.2-10-3.7-13.9-7.2l-1.2-1a16.9 16.9 0 0 1-5.5-8.5c-.4-1.4-.5-2.8-.6-4v-1h-1c-1 0-1.5-.7-1.5-1.9l.2-6.2v-4.2l-.3-2v-.4c.2-2.8 0-5.5 0-8.2 0-3-.4-6.3-.5-9.5l-.8-8.8-.8-11-.5-6.9-.2-3.2c-.7 0-1 .4-1 1l-1.5 10.6c-.3 2.7-.8 5.3-1.2 8l-1.7 10.5-1.4 11-1.3 9.8-.8 5.2c-.2 1-1.5 2.5-2.6 2.6-.9.2-1.6-.8-1.3-1.7.5-2 1.1-4 1.5-6.2.5-2.6.8-5.3 1.2-8l1.8-12.7 1.7-10.5c.5-2.6.7-5.4 1.1-8l1-6 .6-4.6c0-.2-.4-.5-.6-.5-1.3-.2-2.7-.2-4-.3-1.3 0-1.8-.6-1.7-1.4.1-.9 1.4-1.9 2.3-1.7 1.5.4 3 .5 4.6.2l7.5-1.3c.8 0 1.6-.2 2.3-.5l1-.5c.6-.6 1.3-.8 2-.3.5.3 1 1 .6 1.7.4.4.6.7.6 1l-.8.1c-1.5.5-3 1-4.4 1.7-.4.2-1 .1-1.3.4-.6.5-.5 3 0 4l2.3-2.5a15 15 0 0 1 4.2-3.7l.1.1zM137 51.8h-.3l-1 2.4c-.7 1.3-1.7 2.4-2.3 3.8-.9 2-2 3.6-3.5 5.2-1.3 1.4-2.6 2.6-4.7 2.7-1.8 0-3.8.3-5.5-.2-2.6-.8-4-3.2-5.2-5.4-.5-1-.6-2-1-3.2-.8-2.6-1.5-5.3-1.9-8.2 0-.2-.3-.7-.6-.7l-3-.3c-.8 0-1.8-.2-2.2.6-.7 1.5-1 3-1.8 4.4-.8 1.7-1.3 3.4-2.7 4.8-1 1-2 2.3-3.2 3.1a13.8 13.8 0 0 1-7 2.2c-1.8.1-3.5-.2-4.6-1.4-2-2.2-3.6-4.7-5.5-7-.3-.3-.5-.7-.6-1l-3-7.8c-.6-1.4-.6-1.3-1.9-1h-.3c-1.4 0-2.7-.3-4-.4h-1.5l-3.3.3-4-.3c-.5 0-1 .1-1 .8-.2 1-.8 1.6-1.9 1.7l-2-.3c-3 0-5.7.4-7.6 3-2 2.5-3.5 5.2-4.5 8.2-.5 1.7-.8 3.5-.7 5.2.3 3 2.1 5.2 4.5 6.8 1.3.8 2.7 1.1 4.2.4l2.5-.8c.8-.2 1.4.2 1.7 1 .2.3 0 .8-.2 1.2-.2.4-.7.8-1 1l-.5.6c-.8 1.7-.8 3.6-1 5.4l-.4 5c0 3-.3 6.3-.3 9.5 0 2.1.3 4.3.7 6.4.3 2 .8 3.7 1.2 5.5a103 103 0 0 0 2.6 8.4c1 2.4 1.6 5 3.1 7.1 1.3 2 2.3 4 3.6 5.8 1.4 1.7 3 3.1 4.6 4.6l4.8 4c3 2.2 6.7 3 10.3 4 2.8.7 5.7 1 8.7 1 3.2 0 6.3-.3 9.4-1.4a49.3 49.3 0 0 0 16.1-9.9l2.8-3 4.7-6.2c1.6-2.3 3.4-4.5 4.2-7.2l4.3-13.3c.4-1.4 1-2.8 1.2-4.3l1.7-7.7 1.3-8.6c.3-2 .1-4.2 0-6.2-.4-2.5-.2-5-.4-7.6 0-2.3-.5-4.5-.8-6.8 0-.8-.4-1.7-.6-2.5l-.6-3.5v.1zM83 4h-3.2c-4 .4-8 1.1-12 2-3 .7-5.7 2.3-8.5 3.7-.7.4-1.4.7-2 1.2-2.7 2.1-5.4 4.4-7.9 6.8l-3 3.8c-.9 1-1.8 2.1-2.5 3.3-1 1.4-1.8 3-2.7 4.4l-2.3 3.6-2.5 5.2c-1.2 2.7-2.8 5.1-3.4 8-.6 2.6-1.5 5.1-2 7.6-.4 1.1-.4 2.4-.5 3.5l-.6 6.4c0 3 0 6-.2 9a52 52 0 0 0 0 6.6l.1 6.4c0 2-.2 3.7-.3 5.5l-.4 3.7-.7 3.2-1 4.3c-.4 2-1 4.1-1.6 6.2a40 40 0 0 1-3.4 8l-3 5.6h.1c1.4-1 3-2.2 4.1-3.5 1.2-1.2 2.5-2.2 3-3.8.1 0 1-.3 1.2-.2.3.2 1 .4.6 1.1l-1.2 2a18.1 18.1 0 0 1-4 4.7c-.5.3-.8.7-1.2 1.1l1-.2c2-.8 4-1.5 5.7-2.4 1-.5 1.8 0 3 .3-2.5 2-5.4 2.8-7.8 4.5h2.5c.5 0 1.4-.6 1.6.3.2 1-.8.8-1.3 1l-2.4 1c.1.2.3.2.3.2l7.3-.6h.7c2-.9 3.8-1.5 6-1.6 1.7 0 3.2-.7 5-1l2-.7c1-.2 2-.2 2.8-.5l3-1.3c1.1-.7 3-.4 3.6-1.9h.4l3-.2c-.4-.8-.8-1.6-1-2.4-1-3-2.3-6-3-9.3-.8-2.6-1.5-5.3-1.9-8-.5-3.4-.6-7-.9-10.5v-6.7c0-1.8.4-3.6.7-5.4l1-4h-1.7c-1-.3-2.4-.4-3.4-.9A12 12 0 0 1 44 70a9.8 9.8 0 0 1-2.6-6.8c0-1.4.5-2.8.7-4.2.6-3.8 2.7-7 4.8-10 2.3-3.5 6.2-5.5 10.4-5.3l1.3.1.4-2c.5-2.7 1-5.5 2.3-8l1.3-3 1.5-3.2c.6-1.2 1.5-2.4 2.3-3.7l1.3-1.8 4.6-4.6c1.6-1.6 3-3.3 5-4.4 1-.5 1.8-1 2.7-1.7-1.2.3-2.2.7-3.3 1.2-.7.3-1.3.6-2 .4-.5-.2-1 .1-1.2-.6 0-.6.2-1 .7-1.2.8-.5 1.6-1 2.5-1.3L81 8l2.4-1c-.4 0-.6-.3-.8-.2l-4.7 1c-.8.1-1.3 0-1.7.2-.8.3-2-.3-2.2-1s.1-.8.5-1c1.3-.3 2.7-.8 4-1L83 4zm37.3 205.4-.6-4.7c-.2-1-.5-1.8-.5-2.8a14 14 0 0 0-1.3-5l-2.9-7.3c-.3-.8 0-1.2.8-1.6.7-.3 1.3-.7 2 0 .2.1.5.3.8.2 1 0 1.7.6 1.7 1.5.3 6.1 3 12 7.4 16.1.8 1 1.6 2 2.6 2.7a53.4 53.4 0 0 0 10.2 6.2 35 35 0 0 0 13.3 2.1c1.7 0 3.5-.3 5.2-.4 3.5 0 6.5-1.3 9.6-2.6 2.5-1 4.6-2.7 6.7-4.5 1.6-1.2 3-2.8 4-4.6l-2.5-1.8c-.5-.4-.7-1-1.2-1.4l-2-1.7c-2-2-4-4-6.3-5.7-1.5-1-2.8-2.2-4-3.4-.7-.7-1-.5-1.6 0a4 4 0 0 1-.9.6c-2.2 1.1-4.7 1-7 1.2a23 23 0 0 1-17.7-8.9c-1.7-2-3-4.4-3.6-7-.7-3.2-1.2-6.4-1.8-9.7-.2-.8-.5-1.4-1.4-1.3h-6c-2.8 0-5.6-.4-8.4-.5-2.6 0-5-.4-7.3-1.3l-2.4 2c-2 1.8-4 3.7-6 5.3-2 1.5-3.5 1-4.7-1l-1-1.8c.1.8.4 1.6.4 2.4l.6 5.6c.1 2.4 0 4.8.3 7.2 0 1.7.5 3.3.6 5l.3 10.4c0 .3.2.7.4.7 1.4.6 2 2 2.7 3.2 1 1.7 2.4 3 4.3 3.6 5.7 1.2 11.5 2.2 17.2 3zM171 160c-.4-.3-.8-.6-1-1l-3.7-3.8c-.5-.5-1.2-1-2-1.2a5.3 5.3 0 0 1-3-1.6l-2.3-3a8.3 8.3 0 0 1-1.3-5.8c.4-2.5.7-5 0-7.4-.2-1.3-.3-1.5-1.7-1.4-1.3.1-2.5.5-3.8.4l-9.7-.2c-2 0-3.9-.4-5.9-.6-.7 0-1.3-.4-1.9-.4-4-.4-7.5-2.5-11-4.5-.3-.2-.8-.2-1 0l-5.3 4.4c-1.3 1-2.6 2.2-4 3-2.4 1.2-4.6 2.5-7 3.4-1.5.5-2 1.2-2 2.6l-.2 5.6-.3 4c0 1.7-.4 3.2.3 4.8 1.4-.3 1.8-.2 2.5 1.1.6 1 1.3 1.8 2 2.7 1-.4 1.5.2 2.3.3l6.1.7 4.4.1c2.3.2 4.6.4 7 .4 1 0 2-.2 3-.4 1 0 2 .4 2.3 1.6l1 6.7c.4 1.6.5 3.2 1 4.7.8 2 1.6 4.2 3.1 5.8a56 56 0 0 0 4.1 4c3.5 3 8 4.5 12.7 4.3 2 0 3.7-.3 5.2-1.6l2.8-3c1.3-1.7 2.4-3.5 3.2-5.5a8 8 0 0 0 .1-5.7c-.8-2.5-1.3-5.2 0-7.8.5-1.6 1.3-3 2.6-4.3l1.4-1.4zM52.2 233.5l1.7-2.7c1.5-2.8 3-5.6 4.3-8.5 1.2-2 2.2-4.3 3.2-6.4.3-.5.2-.7-.2-1-1-1-2-2-2.4-3.5l-2.5-8.3c-.7-2.6-.8-5.3 0-7.9l3-7.7a13 13 0 0 1 5-5.9c1-.6 1.8-.3 2.7-.3.2 0 .6.7.5 1-.3.7-.5 1.6-1.5 2-.2 0-.4.3-.4.6l.1 1.3.1 5v6.3l.1 4.1c0 3.4-.5 6.8 0 10.2.3 1.3.2 2.8 1.7 3.6.7.4 1.3 1 2 1.2a8 8 0 0 0 2 1.3c.6.3 1.2.7 1.5 1.6 0 .2.2.5.4.5l2 .1v-2.5c-.4-1.9 0-3.7.3-5.4.4-1.9 1.1-3.7 1.7-5.4 0-.3.4-.6.5-.9.6-2.7 2-5 4.5-6.4 2.4-1.4 5-2.4 8-1.8.7.2 1.4.1 2 .2V187c-.6-3.2-1-6.3-.9-9.5.1-2.9-.3-5.9-1-8.7l-.4-1.5c-.7.9-1.3 1.8-1.8 2.8-.4 1.3-1.4 1.5-2.6 1.5-1 0-1.6-.4-2-1.2L82 168l-2-2-4.4-4.4c-.3-.3-.8-.6-1.2-.6H72c-1.3-.2-2.7 0-4 .2-2.2.5-4.3 1.5-6.4 2.5a29.3 29.3 0 0 0-6.9 4.3c-2.4 2-4.8 4.2-7 6.4a15 15 0 0 0-2.3 3l-2 3.6c-2 3.1-3.4 6.5-4.3 10l-.5 2-1 6.4.1 2.5c.1 2.1 0 4.2.4 6.2.7 3.4 1.7 6.7 2.8 10 .8 2.2 2 4.4 3 6.5s2.8 3.6 4.5 5.2l3.8 3.7h.1zm84.5-187.3-.6-2.5-1.8-5.8-.8-3.2c-.6-2-2-3.7-3-5.5-.8-1.5-1.8-3-2.5-4.5-.6-1-1.5-2-2.6-2.7l-1.6-1c-1.8-1.5-3.4-3-5.2-4.2-1.2-.9-2.6-1.4-4-2-1.3-.6-2.7-1-4-1.5-1.6-.6-3.3-1-4.8-1.4l-5.7-1.5c-.7-.2-1.4 0-2-.2-2.6-.4-5.3-.8-7.8 0-2.5.6-5 1.5-7.4 2.6-2 1-4 2.2-5.8 4L72.7 21c-1.5 1.6-3 3-4 5-.7 1.1-1.5 2.3-2 3.6-.7 1.2-1 2.5-1.9 3.7-1.2 2.1-1.7 4.4-2.2 6.7 0 .5-.2 1 .6 1.1 2 .1 4 .8 6.2.3h.3c1.8-.2 3.6.4 5.3-.2l.4.2c1 .4 1 .3 1-.6.1-1 1.2-2 2-2 1.7 0 3.3-.4 5-.9 1.1-.3 2.3-.8 3.7-.6l5.5.8 6.5 1.2 1 .3c1 .4 1.7 1 2.6 1.2 2 .7 3.5 1.5 4.5 3.4.1.2.4.4.7.4h2.5c.8.2 1-.3 1.2-.8 0-1 1-1.5 1.6-2 .4-.2.6-.2 1 .2.5.6 1.1 1 2 .5a7 7 0 0 1 2.3-.6c2.3-.2 4.6-.3 7-.3.8 0 1.8.2 2.7.5 1.3.4 2.5 1.2 3.8 1.5 1 .2 1.8.5 2.5 1l2.3 1.6zM94 221.6v-2.9c0-1.2-.6-2-1.5-2.6a6.6 6.6 0 0 0-3.8-1.2c-1 0-1.9-1-1.8-2 .1-1.8 2.4-4.5 4.1-4.9 1.2-.2 2.4-.5 3.7-.4.8 0 2 .8 2.2 1.6.3 1.4 1.2 2 2.5 2.5l1.4.4c1.2.3 1.8 1 2.2 2.2.2.7.6 1.5 1 2.2 1.2 1.6 1.2 3 0 4.5l-.4.5c-1 1.7-2.7 2.6-4.8 2.1L95 223l.6 1c1.8 3.2.3 6.8-3.3 7.7-.7.2-1.5.1-2.2.2-1.3 0-2.6 0-3.8.2l-3.3.8c-1 .2-1 .4-.6 1.3l2 4.1c.5 1 1 2 1.6 2.8l7.4 7c5.8 4.6 12.5 8 19.6 9.7 1.6.5 3.3.6 5 1 3.7.5 7.4.3 11-.7a18 18 0 0 0 7.3-4.6c3-2.9 5.2-6.6 6.3-10.6.6-1.7.7-3.6 1-5.4.3-1.5.4-3 0-4.5l-.7-3c-.6-2.4-1.6-4.8-2.9-7-1.2-2-2.8-4-4.8-5.3-2.5-1.7-5.3-2.3-8-3.2a234.7 234.7 0 0 0-22-4.2 13 13 0 0 1-7.8-4 9.4 9.4 0 0 1-1.5-2.3c-.4-.8-.8-1.2-1.7-1-1 0-1.4-.4-1.3-1.5-.9-.3-1.8-.7-2.7-.8-3-.4-5.5.5-7.4 3-.6 1-1 2.2-1.4 3.3a22.8 22.8 0 0 0-2.2 8.5v4.6c0 .2.4.5.6.5h1c1.2-.2 2.3-.5 3.4-.5l3.4.1c2.1 0 4.3.2 6.4 1.4zm45.6 156c2.4-.2 4.3-.4 6-1.3 1.8-.9 2.8-2.4 3.8-4.2 1.2-2 .8-4 0-5.9l-3-5c-.6-1-1.2-1.6-2.2-1.8-2.7-.6-5-1.8-7.4-3.2-.3-.3-1-.3-1.3 0a4 4 0 0 1-3 .1l-5.7-1.4c-2-.5-4-1.4-6.3-1.2-2.9.3-5.8.2-8.8.3-.4 0-1.2.6-1.2 1a9 9 0 0 0 1 6c.4 1.3 1.3 2.3 2.1 3.4l1.6 1.7c.5.5 1 1 1.7 1.4 1 .8 2 1.7 3.1 2.4 3 2 6.4 3.2 9.8 4.4l6.5 2.2 3.3 1v.1zm57-189.8.1-.3-3.2-3-3.2-3-6.2-6c-1.4-1.2-2.7-2.6-4-4v-1c.2-.3 1.8-.3 2.2 0l2.5 2.2 5.3 4.8 2.5 2.3 4 3.8c1.3 1 2.5 2.1 3.6 3.3l4.5 4.7a116.5 116.5 0 0 0 11.1 9c.8.3 1.4.8 2 1.3l.3-.2c0-.4-.3-.8-.4-1.2-.7-2.9-2.6-5-4.5-7l-6-6.3c-1.8-1.7-3.5-3.6-5.2-5.4-1-1-1.7-2-2.6-3.2 0-.2 0-.2-.3-.2h-.3c-2.2.5-4 0-5.8-1.4a5 5 0 0 1-1.4-1.5c-.5-1.2-.6-2.4-.8-3.7l.3-1.4.5-.8c-2.2-.4-4-1-5-3a8.3 8.3 0 0 1-5.2 2.8l-2.7.4h-3c-.7 0-1.2-.8-1-1.3.4-1.3 1.6-2.2 3-1.9 1.2.4 2.5 0 4-.2l1.6-.7c1-.7 1-2.6.6-3.5-.8-1.4-1.7-2.6-3.6-2.6-1 0-2-.2-3 .5-.8.4-1.5 1-2.3 1-2.4.7-3.7 2.6-5 4.6-1 1.7-.7 3.6-.3 5.5.4 2.2 1.3 4.4.6 6.6-.3 1 .2 1.7.8 2.1l12 8.2c1.2 1 2.7 1.7 4.1 2.6 1.3.8 2 .6 3.3-.2 1.6-1 3.2-1.8 5-2.6.2-.2.7 0 1.2 0zm-130.3 57c0 .6-.2 1.1 0 1.5.3 2.4.2 5 0 7.3-.5 2.4-.7 4.8-.9 7.2 0 .7.2 1 .8 1.2 1 .2 2.2.3 3.2.7 2 .8 4 1 6.2 1 1.5-.2 3 0 4.6 0l3 .6 5.1 1c1 .3 2.2.8 3.3 1 1.3.2 1.6 0 2-1.3l.1-.6c1-3 2.2-6 3.5-9 .2-.4 0-.7-.3-.9-.6-.3-1.2-.6-1.6-1-2.7-1.6-5-3.7-7.2-6-.5-.6-.9-.4-1.4-.3-2 .5-3.7 1.2-5.6 1.3-2.8 0-5.6.1-8.4-.7a18 18 0 0 1-6.4-3zm18.8.3c-.6-.8-1.3-1.3-1.7-2a50.7 50.7 0 0 1-3-5.7c-.8-1.8-2.2-3.4-2-5.6l-.2-.2c-.5-.7-.2-1.3.4-1.9.6-.5 1-1 2-.5.7.3 1.4.3 2.2.3.6 0 1.2-.3 1.7-.3l7-.5c1 0 1.8-1 1.5-2-.5-1.9-1.6-3.3-3.6-3.5s-3.9-.3-5.8-.2c-1.8.2-3.6.7-5.4 1l-1.3-.2c-.4 0-.8-.3-1.3-.3l-3.8-.2c-.6 0-.8 0-1 .4l-1.4 2-2 3.5-3.8 7.2c-.3.8-.9 1.5.2 2.2 0 0 .2.3.1.4.2 1 .8 1.5 1.6 2 1.2.7 2.7 1.4 3.7 2.4a8 8 0 0 0 3.8 1.8c2.6.7 5.2 1.1 8 .5 1.3-.4 2.8-.5 4-.6h.1zm64.8-113c-2.5-1.2-5-2.4-7.6-3.4-.7-.3-.7-.7-.4-1 .1-.5.5-1 .8-1 .6 0 1.2 0 1.8.2l4.1 1.5v-.5l-1.7-1.7c-.6-.6-.7-1.9 0-2.2.5-.5 1.1-.2 1.5.3 1 .8 1.8 1.8 2.8 2.7l3.2 2.5.1-.2a56.5 56.5 0 0 1-16.2-27.8l-.8 2.2c-1 2.7-1.8 5.5-2.7 8.2-.6 1.4-1 3-1.8 4.1l-5.3 7.3-2.6 3.7c4.3 2.6 8.8 4.2 13.7 4.7 3.6.4 7.4.4 11 .4h.1zm58.5 44.7.6-1c.4-1.8.7-3.5.5-5.2l-.7-3.3c-.2-2-1-4-2-5.7-.8-1.3-1.9-2.5-2.9-3.7 0-.2-.4-.3-.6-.5l-1.8-1.6c-1-1.4-2-2.5-4.2-2.4-2.2 0-4.4 0-6.8-.2-3-.4-5.8.6-8.6 2l-1.4 1c.6.1 1 .3 1.2.2 1.8 0 3.1 1 4.2 2.1.2.3.6.4.8.4.6 0 1 0 1.3.7 0 .1.4.2.7.1.3 0 .7-.1 1-.3 2-.6 3.8-1.3 5.8-1.7 1.1-.2 2.4.2 3.7.6.2 0 .5.7.5 1.1 0 .3-.5 1-.7 1l-2.5.1c-.2 0-.5-.2-.8 0l-4.5 1.5c-.5.2-1 1-1 1.2.2.8 0 2 1 2.4 1 .3 1.8.8 2.4 1.7h.6l3.5-1.4c1.4-.3 2.8-1 4.3-.7.8.2 1.5 1 1.3 1.6a2 2 0 0 1-1.3 1.1c-1.5.5-3 .5-4.5 1a7 7 0 0 0-2.6 1.8c-.3.4 0 1.3.1 1.8.5.8 1 1.6 1.7 2.1.3.3 1 .2 1.5.2l.4.1c1.6.1 3 .3 4.7-.2 1.2-.5 2.5-.6 4 0l.2.2c.2.7.5 1.3 1 2zM85.3 40.6h-.6c-1.4.8-3 1.4-4.3 2.2-.2 0-.2.6-.2.8l1.3 3.5 2.8 5.6c.8 1.4 1.8 2.8 3 4 .7 1 1.5 2 2.8 2.4 1.2.5 2.3.1 3.6 0a8.7 8.7 0 0 0 6-4 43 43 0 0 0 3.7-7.8c.6-2 .6-2-1.4-2.8l-2.7-1-2.7-.8-2-.4-9.3-1.7zm38.3 4.3-7.2.8c-1.5.2-1.6.7-1.5 2.1.2 3 1.5 5.5 2 8.3.4 1.4 1 2.7 2 4l1.5 1.7c1.3 1 3 1 4.5 1 1 0 1.8-.3 2.5-1 .8-1 1.8-2 2.4-3 1.5-2.6 3.1-4.9 4-7.7.4-1-.2-2.3-1-2.9-2-1.3-4.4-1.6-6.5-2.5-.8-.4-1.8-.5-2.7-.8zm-33 116c1.2-.8 1.4-.7 2.4.4.4.4.7.5 1.3.2l5.7-2c.7-.4 1.3-.6.8-1.5v-.7l.2-6.6c-.7-.3-1.4-.9-2-.9h-5c-1.7 0-3.4.4-5 .4l-6 .1c-.9 0-1.2.2-1 1 0 1.2.2 2.5 0 3.7-.3 1.2.3 1.3 1.1 1.7 2.7 1 5.3 2 7.4 4.1l.1.1zm78.3 21.8-.5.4-3.2 4.6c-.2.2-.2.8 0 1l1.8 1.6 5.4 4.3c1.2 1 2.2 2.1 3.3 3.2 1.5 1.5 3.1 2.8 5 3.8.6.5 1 .3 1.3-.2l3.8-6.3c.3-.5.4-.9-.2-1.2l-5.8-4a98.6 98.6 0 0 1-11-7.2h.1zm-63.3 76.4 2.2 8.2c.2.7.5 1 1.3.6.3-.2.8-.2 1.2-.3l5.6-.5 7-.8 5.7.2 3.4-.2-.8-2-.5-3.2c0-.6-.4-.6-1-.5-.5.3-1.2.6-1.9.7l-5 .7h-4.6a45 45 0 0 1-12.6-2.9zM105 5.5l4.1.7c1.3.2 2.4.6 3.4 1.3.2.2.3 1 .2 1-.6.2-1 .5-1.7.5l-3.3-.3h-.9c1 .5 1.7.8 2.6 1 2.6.5 5.3 1 7.6 2.5 1.3.8 3 1.2 4.2 2.1 1.5 1 2.8 2.2 4.1 3.3l4.6 4c-.3-2.5-1.5-4.6-2.6-6.7-.7-1.2-1.4-2.5-2.4-3.5-1.8-1.8-4-3.3-6.4-4.3-2.3-.9-4.7-1.3-7-1.9-.7 0-1.3 0-2-.2a6 6 0 0 0-4.5.5zM64.2 217.3 55 235l3.4 1.4c.5.2 1.4.2 1.7-.2.5-.5.7-1.3 1-2h-2c-.9-.2-1-1-.8-1.7.6-.8 1.5-1 2.3-.5l1.1 1.1c2.2-4.2 4.5-8.2 7.1-12 .3-.6.1-.8-.3-1l-4.2-2.8zm96.6-82.7-.3.1.2 1c.3 2.5.5 5.1 0 7.7 0 1-.2 2.3.3 3.1.6 1.4 1.7 2.5 2.7 3.6.5.6 1.5.4 2.1-.3 1-1 1.7-2 3.2-2.6.5-.2.8-.8.3-1.3-.2-.3-.5-.5-.6-.8-.7-2.2-1.7-4.3-1.5-6.7a6 6 0 0 0-.2-2.2c-.6-1.8-2-2.5-3.8-3.5.3 1 .6 2 1 2.6.4 1-.4 1.7-.8 2.3-.3.3-.9.5-1.3.6l-1.3-3.6zm-98 76.3h.3v-22.2H63l-.4.3-1.5 3.3c-1.2 3-1.9 6-1 9.2l1 4 1.7 5.4zM89 163.5c-1-.9-1.8-2-3-2.5-2.2-1-4.4-2-6.7-2.7-.4 0-1 .5-1.4.8l.1.8 2.2 2.3 5 5.1c.3.3.5.7.7 1.2.1 0 .3 0 .4-.2l2.7-4.8zm5.7.8 2.6 5 8.5-6.8-2-2-9 3.8zm2 54.4c-.3 1 0 1.8.8 2 1 .3 2.2.6 3 .2 1.3-.5 1.3-2.2.3-3-.5-.6-1-1-.9-2 0-1-.6-1.5-1.6-1.7-1.8-.5-3.4-1.2-4-3-.5-.8-.9-1.3-1.8-1l-2 .6c-.3.2-.4.7-.6 1.1 0 0 .4.4.7.4 1.7.2 3 1 4.3 2 1.4 1 1.7 2.7 1.8 4.4zm80.5-63.4.4-.4-1.6-1-1.2-1.6-.5 1a15 15 0 0 0-2.3 2.1c-.2.3-.5 1-.3 1.2.3.7.8 1.3 1.2 2 0 0 .3.2.4.1 1-.5 1.7-.8 2.4-1.4.6-.6 1-1.4 1.5-2zm-10-3c.7.6 1.2 1.4 1.8 1.6.4.2 1.1-.4 1.6-.8l2-2c1-.9 1.1-1.4.2-2.4-.4-.4-.6-.5-1.2 0l-2.3 1.4c-.7.6-1.2 1.3-2 2.2zm-78.9-5 .2.4 2.8-.3c.2 0 .4-.2.4-.4.1-.9.8-1.3 1.3-1.7l2-2.2c-1.2-.6-2-.4-3 .6l-3.7 3.6zM71.5 266.6l-2.4-.7-1.6-.5-.8.1c0 .3-.3 1 0 1 1 1 .7 2.2.6 3.6l4.2-3.5zM89.1 143v-.5c-.7 0-1.5 0-1.8.4-1.7 1.5-3.2 3.1-4.8 4.7 1 .2 2 .5 2.7-.6.2-.4.5-.8 1-1l3-3zm8.7 4.2.8-1.6 2.5-3c.2 0 .2-.2.2-.5h-.6l-1.7 1.1-1.8 1.8-1.9 2.2H98zm109.8 31.3-4.8-.6-.2.5 2.5 2.4.7.2c.7-.2 1.8-1.8 1.8-2.5zm-79.7 33-.3.1-4.5-5.3c.2.7.4 1 .3 1.4 0 1.7.7 2.8 2.3 3.2l2.2.5zm-44-69.6-1-.3-.5.2v2l1.5-2v.1z"/><path class="st4" d="M136 388.8h-4.2c-.3.1-.7.4-1 .4h-6.2l-7.2-.2-6.4.1h-4.5l-5 .3h-2c-1-.2-1.9-.3-2.9.1-.5.3-1.2.2-1.8 0-.8-.2-1.6 0-2.4 0h-9.3l-10 .2-18.8.2-9.2.3H34.3c-.8 0-1.6-.8-2.3-1.4-.4-.4 0-1 .6-1H34l7.2-.2c1.5 0 3-.3 4.6-.3h6c2.4 0 5-.2 7.2 0h9.8l12-.3h29.6l7.3.2c2 0 3.7 0 5.7.2.8 0 1.6.3 2.4.4h1.2l3.2.1.6.1c1 0 2.3-.2 3.4 0 .7 0 1.2.4 1.6.7l.1.1zm-22.4-15h-2.4l-2.6.2-9-.4H87c-.4 0-1.6-1.6-1.5-2 .2-.2.5-.5 1-.5l3-.2 14.7.4c2.3 0 4.6.4 7 .6 1 .2 2 .9 2.5 1.8zM169.2 119a3.5 3.5 0 0 1-3.5 3.2c-.5 0-1 .2-1.5.6-.7.7-1.7.7-2.5 1.2-.9.5-1.6 0-1.4-1a3 3 0 0 1 1-2c1-1.3 2-2 3.1-2.9 1-.6 2.2-1 3.5-.8.6.1 1.3 1 1.3 1.7zM174 132c-.6-.2-1.9-.7-3-1.3-.9-.4-.7-1.7 0-2.4 1-1.2 2.5-1.3 4-1.6 1.1-.3 2.2 0 3 1 .5.8 1 1.6.4 2.7-.6 1-2.2 1.7-4.4 1.6z"/><path class="st4" d="M136 388.8c.2-.2.5-.5 1-.5h1.3l.8 1h-3.3v-.6l.1.1z"/><path class="st3" d="m137.2 51.8.7 3.4c.1 1 .4 1.7.6 2.5.3 2.2.6 4.5.7 6.8.2 2.6 0 5.1.3 7.6.2 2.1.4 4.2 0 6.3a124 124 0 0 1-1.2 8.5l-1.7 7.7c-.3 1.5-.8 3-1.2 4.3l-4.3 13.3c-.8 2.7-2.6 5-4.2 7.2-1.6 2.1-3 4.2-4.7 6.2a63.1 63.1 0 0 1-8 7.4c-3.4 2.3-7 4.1-10.9 5.5a25.2 25.2 0 0 1-9.4 1.3c-3 0-5.9-.2-8.7-1-3.6-1-7.3-1.7-10.3-4a52.5 52.5 0 0 1-9.3-8.5c-1.4-1.7-2.4-4-3.7-5.8-1.5-2-2.2-4.6-3-7-1-2.8-1.9-5.6-2.7-8.5-.4-1.8-1-3.6-1.2-5.4-.4-2.1-.6-4.3-.7-6.5l.3-9.6c0-1.6.2-3.3.4-4.9.3-1.8.3-3.6 1-5.3l.5-.6c.3-.3.8-.6 1-1s.4-1 .2-1.3c-.3-.7-.9-1.2-1.7-1-.9.3-1.8.5-2.5 1-1.5.6-2.9.3-4.2-.5a9.2 9.2 0 0 1-4.5-6.8c-.2-1.8.2-3.6.7-5.3a28 28 0 0 1 4.5-8c2-2.8 4.5-3.3 7.5-3 .7 0 1.4.2 2.2.1 1 0 1.6-.6 1.7-1.6.1-.7.6-.9 1.2-.8 1.3 0 2.6.3 4 .2l3.2-.3h1.4l4 .4h.4c1.3-.3 1.3-.3 2 1 1.1 3 2.4 5.8 3.6 8.7 2 2.3 3.6 4.8 5.6 7 1 1.2 2.8 1.6 4.4 1.5 2.5 0 5-.8 7.1-2.3 1.2-.7 2.1-2 3.2-3 1.4-1.4 2-3.3 2.7-4.9.7-1.4 1.1-3 1.8-4.3.4-.9 1.3-.7 2.2-.7l3 .3c.3 0 .6.5.6.8.4 2.8 1 5.5 2 8.2.3 1 .4 2.2 1 3.1 1.2 2.3 2.5 4.7 5.1 5.4 1.7.6 3.7.2 5.5.2 2.1 0 3.4-1.3 4.7-2.7a17 17 0 0 0 3.5-5.2c.6-1.4 1.6-2.5 2.3-3.8l1-2.4h.3v.1z"/><path class="st5" d="m83.3 4-4.5.8-4 1c-.4.3-.7.5-.5 1 .3.8 1.4 1.4 2.2 1l1.3-.1 4.8-1h.7L81 8l-4.4 1.9L74 11c-.5.3-.8.6-.7 1.3.2.7.7.4 1 .6.9.2 1.6 0 2.3-.5 1-.5 2-.8 3.3-1.2-1 .6-1.7 1.3-2.7 1.7-2 1-3.5 2.8-5 4.5L67.7 22c-.5.5-1 1.2-1.3 1.8L64 27.5l-1.5 3.3-1.2 3c-1.4 2.4-1.8 5.2-2.4 8l-.4 2h-1.2c-2.4-.4-4.6.4-6.6 1.5-1.5.8-2.8 2.3-3.8 3.7-2.1 3-4.3 6-4.8 10-.2 1.3-.7 2.8-.7 4-.1 2.7 1 5 2.6 6.9 1.2 1.4 2.5 2.6 4.2 3.3 1 .4 2.2.5 3.3.7h1.8c-.4 1.5-.8 2.8-1 4.2-.8 4-1 8-.7 12a64 64 0 0 0 2.7 18.5c1.2 4 2.5 7.8 4 11.7h-3l-.3.3c-.8 1.5-2.5 1.2-3.8 1.8-1 .6-2 1-3 1.3-.8.3-1.8.3-2.8.5-.7 0-1.3.5-2 .6-1.6.5-3.2 1-5 1.2-2 0-4 .7-6 1.4a2 2 0 0 1-.5 0l-7.3.8s-.2 0-.4-.3c.9-.2 1.7-.5 2.5-1 .5-.1 1.5 0 1.3-1-.3-1-1.1-.3-1.7-.3h-2.5c2.4-1.6 5.4-2.5 7.8-4.5-1.1-.3-2-.7-3-.2a50 50 0 0 1-6.6 2.6l1-1.2c1.8-1.1 3-3 4-4.6.6-.6 1-1.3 1.4-2 .4-.7-.3-1-.7-1.1-.2-.2-1 0-1 0-.6 1.8-2 2.8-3.1 4-1.2 1.3-2.7 2.4-4.1 3.6 0-.1-.2-.1-.1-.2l3-5.5c1.4-2.5 2.5-5.2 3.3-8l1.7-6.2 1-4.3c.2-1.1.5-2.1.6-3.2l.5-3.7c0-2 .3-3.7.3-5.5l-.1-6.5c-.2-2.2-.2-4.4 0-6.5 0-3 0-6 .2-9 0-2.2.3-4.3.5-6.4 0-1.2 0-2.4.4-3.5.7-2.6 1.6-5.1 2.2-7.7.6-2.8 2-5.3 3.3-8 .8-1.7 1.6-3.4 2.6-5.1.6-1.3 1.5-2.4 2.2-3.6l2.7-4.5 2.5-3.3 3-3.8L52 15l5.2-4.1 2-1.3c2.8-1.5 5.5-3 8.6-3.7 4-1 8-1.6 12-2h3.5z"/><path class="st6" d="M120.2 209.4c-3.9-.5-7.8-1-11.6-1.7-1.9-.2-3.7-.7-5.5-1.3a8 8 0 0 1-4.3-3.6c-.7-1.2-1.3-2.5-2.7-3-.2 0-.4-.6-.4-.8l-.3-10.5c0-1.6-.5-3.3-.6-4.9l-.3-7.2-.5-5.7-.4-2.3 1 1.7c1 2.2 2.7 2.6 4.6 1.1 2-1.6 4-3.6 6-5.3l2.4-2a20 20 0 0 0 7.3 1.3l8.4.5h6.1c1 0 1.1.5 1.3 1.3l1.8 9.6c.5 2.7 2 5 3.6 7 2 2.8 4.7 5 7.8 6.5a18 18 0 0 0 9.8 2.4c2.4 0 4.8 0 7.1-1l1-.7c.5-.6 1-.7 1.5 0 1.2 1.2 2.6 2.3 4 3.3 2.4 1.7 4.4 3.7 6.4 5.8l2 1.7c.3.4.7 1 1.1 1.3l2.4 1.8a26 26 0 0 1-10.6 9.1c-3 1.4-6 2.7-9.5 2.7-1.8 0-3.5.4-5.3.4-6.1 0-12.2-1.4-17.7-4.3-2-1.2-4-2.5-5.7-4-1-.8-1.8-1.8-2.7-2.7a23 23 0 0 1-7.4-16c0-1-.7-1.6-1.7-1.6l-.7-.2c-.8-.8-1.4-.4-2 0-.8.3-1 .8-.9 1.6 1 2.4 1.8 5 3 7.3.6 1.6 1 3.2 1.2 5 .1 1 .4 1.8.6 2.8 0 1.5.3 3.2.4 4.6z"/><path class="st7" d="m52.2 233.5-4-3.7c-1.6-1.6-3.4-3-4.5-5.2-1-2.2-2.2-4.3-2.9-6.5-1-3.3-2-6.6-2.8-10-.4-2-.3-4-.4-6.2 0-.8-.2-1.7 0-2.5.1-2.2.5-4.2 1-6.3 0-.7.2-1.4.3-2 1-3.6 2.3-7 4.3-10l2-3.9c.7-1 1.4-2 2.3-2.8a308 308 0 0 1 7.1-6.4 30 30 0 0 1 6.8-4.3c2.1-1 4.2-2 6.4-2.5 1.4-.3 2.7-.4 4-.3h2.6c.4 0 1 .4 1.2.7L80 166l2 2a8 8 0 0 1 1.7 2.4c.6.8 1.2 1.2 2.2 1.2 1.2 0 2.1 0 2.6-1.5.3-1 1-1.9 1.7-2.8l.3 1.5c1 3 1.3 5.8 1.1 8.7-.2 3.2.4 6.3.8 9.5v4.3l.2 6.6c-.6 0-1.3 0-2-.2-3-.6-5.6.3-8 1.8A10 10 0 0 0 78 206c0 .3-.3.5-.4 1-.6 1.6-1.3 3.4-1.7 5.3-.4 1.7-.7 3.5-.4 5.4.2.8 0 1.6 0 2.5h-1.9l-.5-.6c-.2-.8-.9-1.2-1.6-1.6l-2-1.3c-.6-.4-1.2-1-1.9-1.2-1.5-.8-1.4-2.3-1.6-3.6-.5-3.4 0-6.7 0-10.2v-10.5l-.2-4.9V185l.2-.7c1-.3 1.3-1.2 1.6-2 0-.2-.3-.9-.5-.9-.9 0-1.8-.3-2.8.3-2 1.5-4 3.4-5 6l-2.9 7.6c-.8 2.6-.8 5.3 0 8l2.4 8.2a7.3 7.3 0 0 0 2.5 3.4c.4.4.5.7.2 1.1l-3.2 6.4-4.3 8.5c-.3 1-.9 1.7-1.6 2.7zm36.3-44c1 0 1.6-.4 1.6-1.3 0-.8-.8-1.8-1.5-1.8-.6 0-2 1.2-2 2 0 .5.8 1 2 1v.1zm.5-10.2c.6.1 1.6-.7 1.6-1.3s-.8-1.5-1.4-1.6c-.8 0-1.8.7-1.9 1.5 0 1 .2 1.2 1.7 1.4z"/><path class="st3" d="m136.9 46.3-2.4-1.7c-.7-.6-1.6-.8-2.5-1-1.3-.5-2.5-1.1-3.8-1.5-1-.3-2-.5-2.8-.5l-7 .3a7 7 0 0 0-2.3.6c-.8.4-1.4 0-2-.6-.3-.4-.6-.4-1-.1-.6.5-1.5.9-1.6 2 0 .5-.3 1-1.1.8h-2.5c-.2 0-.6-.3-.7-.5-1-1.8-2.7-2.6-4.5-3.3l-2.7-1.2c-.3-.2-.6-.2-1-.3-2.2-.4-4.3-1-6.5-1.3l-5.5-.7c-1.3-.2-2.5.2-3.8.6-1.5.6-3.1.9-4.7.9-1 0-2 1-2 2 0 .9-.2 1-1.1.6l-.4-.2c-1.7.6-3.6 0-5.3.2h-.4c-2 .4-4-.2-6.1-.3-1 0-.7-.7-.6-1.2.5-2.3 1-4.5 2.2-6.6.7-1.2 1-2.6 1.7-3.8l2-3.6c1-2 2.7-3.4 4-5l4.6-4.2c1.6-1.7 3.7-2.9 5.8-3.9 2.4-1.2 5-2 7.5-2.8 2.5-.5 5.2-.5 7.7.2.7 0 1.5 0 2 .2 2 .4 3.9 1 5.7 1.5l4.8 1.3 4 1.5c1.4.6 2.8 1.2 4 2 1.9 1.3 3.6 2.8 5.2 4.1l1.7 1.2a7 7 0 0 1 2.5 2.6l2.6 4.5c1 1.9 2.4 3.5 3 5.6l.8 3.2 1.7 5.7.8 2.7z"/><path d="M94 221.8a13 13 0 0 0-6.6-1.8H84c-1 0-2.2.3-3.3.4a3 3 0 0 1-1 0c-.4 0-.7-.3-.7-.4v-4.7c0-3 1-5.7 2.1-8.5l1.5-3.4c1.8-2.5 4.3-3.3 7.4-3l2.7.8c0 1.2.3 1.6 1.3 1.5.8 0 1.3.2 1.7 1 .3.8 1 1.5 1.4 2.2 2 2.5 4.8 3.6 8 4l12 2.2c3.3.6 6.7 1.2 10 2.2 2.6.9 5.4 1.5 8 3.2 2 1.4 3.4 3.2 4.7 5.3a27.1 27.1 0 0 1 3 7l.6 3.1c.4 1.6.3 3 0 4.5-.3 2-.4 3.8-1 5.5-1.2 4-3.4 7.7-6.4 10.6-2 2-4.4 3.9-7.3 4.7-3.5 1-7.2 1.2-10.9.6-9-1.3-17.5-5-24.6-10.7-2.5-2.3-5-4.5-7.4-7-.7-.7-1-1.9-1.6-2.9l-2-4.1c-.5-1-.4-1 .6-1.3 1-.2 2.1-.7 3.2-.8 1.3-.1 2.7 0 4-.2.6 0 1.3 0 2-.2 3.7-1 5-4.5 3.4-7.8l-.6-1 3.8.7c2.1.4 3.6-.5 4.8-2l.4-.7c1.2-1.6 1.2-2.8 0-4.5-.5-.7-.8-1.4-1-2.2-.4-1.1-1-2-2.2-2.2l-1.5-.4c-1.3-.4-2-1.1-2.4-2.5-.2-.8-1.4-1.6-2.2-1.7-1.3 0-2.5.2-3.7.4-1.7.4-4 3-4.2 5 0 1 .7 2 2 2s2.5.5 3.6 1.2c1 .6 1.6 1.5 1.5 2.6l.2 3.3zm16.7 16.6c0-1.9 0-1.9-1-3.2l-1.4-1c-1.2-1.4-2.7-1-4-1-1.2.2-2.4.8-3.5 1.3-.7.4-1.4.8-2 1.4l-3.2 3.7a4.2 4.2 0 0 0-.4 5.2c.2.4.7.7 1.1 1l1.6.2c.8 0 1.3.5 1.5 1.3.1.7.3 1.3.3 2 0 1.6 1 2.4 2.2 3 2.3 1.3 4.5 1 6.8.3.4-.2 1 0 1.3 0 .6 0 1.2.4 1.8.5 1 0 2-.8 2-1.6l.5-5.7c0-1.5-1-4.2-2.7-4.5-.9 0-1.4-.6-1-1.7.2-.4 0-.9 0-1.2h.1zm4-4c0 1.2.3 2.4 1.7 2.8l1.7.3a5 5 0 0 0 3.7-1c2-1.4 3.4-3 4.6-5a4 4 0 0 0 .3-3.7c-.3-.8-.9-1.8 0-2.8.6-.6 1-1.5 1.5-2.2.4-.7.3-1.4-.2-2l-1.5-2c-1-1.6-1.7-2-3.4-1.8H122c-1.3-.3-2.7-.7-4 0-.7.4-1.7.3-2.2 1.1 0 .2-.5.2-.7 0-.8-.2-1.6 0-2.2.5-.6.4-.6 1 .2 1.3 1.5.8 1.6 1.5.8 2.9l-.7.9c-1.6 2-1.6 4.2-.6 6.4.2.5.6 1 1 1.2 1.5.6 1.8 1.5 1.4 3l-.2.1zm12.1 19.3v-.1h1l.3-.2a8.4 8.4 0 0 0 5.6-5 6 6 0 0 0 .6-3.2c0-1.3.3-2.5 1.4-3.3l2-1.6c2-1.5 3-5.7.5-7.4l-2-1.3c-2-.9-3.9-1-5.8.3-.5.4-1 .7-2 .3-.4-.2-1.2 0-1.6.3-.5.4-.7 1-.4 1.5.1.4.2 1 0 1.2-.4 1.2-.8 2.6-1.6 3.7-.8 1.4-2 2.7-2.3 4.5-.6 3-.3 3.4 2 4.2.6.2 1 .7.7 1.3l-1 2c-.3.8-.2 1.6.6 2 .7.5 1.4.5 2 .8z" style="fill:#af8014"/><path class="st1" d="m139.5 377.6-3.3-1-6.5-2.2c-3.4-1.2-6.8-2.4-9.8-4.4l-3-2.5-1.8-1.3a27.6 27.6 0 0 1-3.8-5c-1-2-1.3-4-1-6.2.2-.4 1-1 1.3-.9 3-.2 6 0 8.8-.3 2.3-.2 4.2.7 6.3 1.2l5.7 1.4c1 .3 2 .4 3-.2.3-.2 1-.2 1.3 0 2.3 1.4 4.7 2.7 7.4 3.3 1 .3 1.6 1 2 1.7 1 1.8 2.2 3.4 3 5.1 1 2 1.4 3.8.2 6-1 1.6-2 3.1-3.9 4.1-1.6.8-3.5 1-5.9 1.2z"/><path class="st6" d="M66.1 245a17 17 0 0 0 6.4 3c2.8 1 5.6.8 8.4.7 2 0 3.7-.8 5.6-1.3.5 0 1-.3 1.4.3 2.1 2.3 4.5 4.3 7.1 6l1.7 1c.4.2.5.5.3 1l-1.8 4-1.7 4.8c0 .3 0 .5-.2.7-.4 1.3-.6 1.5-2 1.2l-3.2-.9-8-1.6c-1.7-.2-3.2-.3-4.8 0-2 0-4-.3-6-1L66 262c-.6 0-.9-.5-.8-1l.7-7.4c.3-2.4.5-4.8 0-7.2l.2-1.6z"/><path class="st3" d="M85 245.2c-1.5.1-2.9.2-4.2.5-2.7.6-5.4.2-8-.6a8.6 8.6 0 0 1-3.8-1.7c-1-1-2.5-1.7-3.7-2.5-.8-.5-1.4-1-1.5-2l-.2-.4c-1-.6-.5-1.3-.2-2l3.7-7.3 2.1-3.5c.5-.7 1-1.3 1.3-2 .3-.5.6-.5 1.1-.4l3.8.2c.5 0 1 .2 1.3.3.5 0 1 .3 1.3.2 1.8-.3 3.6-.9 5.4-1 2-.2 3.8 0 5.8.2s3 1.6 3.6 3.4c.2 1-.5 2-1.5 2l-7 .5c-.6 0-1 .4-1.7.4-.8 0-1.5 0-2.2-.4-1-.4-1.4 0-2 .6-.5.5-.8 1-.4 1.8l.1.3c0 2.2 1.3 3.8 2 5.6l3.1 5.6c.4 1 1 1.4 1.7 2.2z"/><path class="st5" d="M149.7 132.2c-3.7.1-7.4 0-11.2-.4a32 32 0 0 1-13.8-4.7l2.6-3.7c1.8-2.4 3.7-4.8 5.3-7.3.8-1.2 1.3-2.7 1.8-4 1-2.8 2-5.6 2.7-8.3l1-2.2a57 57 0 0 0 16.1 27.8v.2l-3.4-2.5-2.7-2.7c-.5-.4-1-.7-1.6-.4-.6.4-.5 1.7 0 2.3l1.6 1.7.2.5-4-1.5-1.9-.3c-.4 0-.7.6-.9 1-.2.4-.2.8.5 1l7.7 3.5z"/><path class="st3" d="M208.2 177c-.4-.8-.6-1.3-1-1.7 0-.2 0-.3-.2-.3a5.9 5.9 0 0 0-4 0c-1.5.5-3 .4-4.6.3l-.4-.1c-.5 0-1 0-1.5-.2a12 12 0 0 1-1.7-2.1c-.2-.6-.4-1.6 0-1.9.6-.8 1.5-1.5 2.5-1.8 1.4-.5 3-.6 4.5-1a2 2 0 0 0 1.3-1.2c.2-.7-.5-1.4-1.4-1.6-1.5-.2-2.8.3-4.2.7-1.2.4-2.4 1-3.5 1.6l-.6-.1c-.5-1-1.5-1.6-2.4-1.9-1.2-.4-.8-1.5-1-2.3 0-.3.5-1 1-1.3l4.5-1.6c.2 0 .6.1.8 0h2.5c.2 0 .7-.6.7-1s-.3-1.1-.5-1.2c-1.3-.3-2.6-.8-3.7-.5-2 .3-4 1-5.8 1.7l-1 .3h-.7c-.2-.8-.7-.9-1.3-.8l-.8-.4c-1-1.3-2.4-2.2-4.2-2.1l-1.2-.3 1.4-1c2.7-1.3 5.6-2.3 8.6-2 2.3.3 4.6.2 6.8.1 2.2 0 3.1 1.1 4.2 2.6.5.6 1.2 1 1.8 1.6l.6.4 3 3.9c1 1.7 1.6 3.7 2 5.8l.6 3.3c.2 1.8 0 3.5-.6 5.2l-.5.8z"/><path d="M85.3 40.6c3.1.6 6.3 1 9.4 1.7.6 0 1.3.2 2 .4l2.7.8 2.7 1c2 .8 2 1 1.3 2.8-1 2.7-2 5.4-3.7 7.8a8.5 8.5 0 0 1-6 4c-1.2.1-2.3.5-3.6 0-1.3-.4-2-1.4-2.8-2.3a33 33 0 0 1-5.8-9.7c-.5-1-.8-2.3-1.2-3.5l.1-.8 4.3-2 .6-.2zM91.1 52l1.6-.3c.5-.3 1.2-.6 1.4-1 .2-.6 0-1.3-.2-1.8 0-.2-.7 0-1-.3-.3 0-.3-.2-.4-.2-.3 0-.7-.2-1 0-1.3 1-2 1.8-.6 3.4.2 0 .2.2.2.2zm32.5-7c.8.2 1.8.3 2.7.7 2 .8 4.4 1.2 6.4 2.5 1 .6 1.5 1.8 1.2 3-1 2.7-2.6 5-4 7.5-.7 1.1-1.7 2-2.5 3-.6.8-1.5 1-2.5 1-1.6 0-3.2.1-4.5-1-.6-.4-1-1-1.5-1.7a9 9 0 0 1-2-4c-.5-2.7-1.8-5.3-2-8.2 0-1.4 0-2 1.5-2 2.3-.4 4.7-.6 7.2-.9zm1.8 9c0-.9-.6-1.8-1.2-1.9-1 0-2.5 1.1-2.6 2 0 1 .6 1.6 1.6 1.7 1 .1 2-.9 2.2-2v.1z" style="fill:#fff"/><path class="st3" d="M90.5 160.8c-2-2-4.7-3-7.3-4.2-.9-.3-1.5-.5-1.3-1.7.3-1.2 0-2.4 0-3.6 0-.8.2-1 1-1h6l5.1-.6h5c.6 0 1.2.6 2 1l-.2 6.6v.7c.5 1-.2 1-.8 1.3l-5.7 2.2c-.6.2-1 .1-1.3-.3-1-1-1.2-1-2.5-.4z"/><path class="st7" d="m169 182.7.7.5c3.2 2.4 6.5 4.8 10 6.8 2 1.2 4 2.6 5.8 4 .6.3.6.7.3 1.2a254 254 0 0 1-3.9 6.3c-.4.5-.7.6-1.4.2-1.8-1-3.4-2.3-4.9-3.8l-3.2-3.3-5.5-4.3-1.8-1.6c-.2-.2 0-.7 0-1l3.3-4.5.5-.5zm9.1 12.1c0 1 .2 2.2.6 2.4.5.2 2-.5 2.6-1 .5-.7 0-1.2-.3-1.6-1-1.2-2-.2-3 .2h.1z"/><path class="st6" d="M105.6 259.1c2.2.7 4.2 1.4 6.2 1.8 3.6.8 7.3 1 11 1 1.7 0 3.4-.3 5-.6.7 0 1.4-.4 2-.7.5 0 .8 0 1 .5l.4 3.2.8 2-3.4.2-5.6-.2-7 .8-5.7.5c-.4 0-.9 0-1.2.3-.9.5-1 .2-1.3-.6l-2.2-8.2z"/><path class="st5" d="M105 5.7c1.5-.8 3-1 4.6-.7l1.8.3c2.4.5 4.8 1 7 1.8 2.6 1 4.6 2.6 6.5 4.4 1 1 1.8 2.2 2.5 3.5 1 2 2.2 4.2 2.5 6.6l-4.6-4a51.9 51.9 0 0 0-4.1-3.2c-1.3-1-3-1.3-4.1-2.2-2.4-1.5-5-2-7.7-2.4-1-.2-1.7-.6-2.6-1h1l3.2.3c.5 0 1-.3 1.7-.6 0 0 0-.8-.2-1a8 8 0 0 0-3.4-1.3c-1.3 0-2.7-.3-4-.5h-.1z"/><path class="st6" d="m64.2 217.3 4.2 2.8c.3.2.6.5.3 1-2.6 3.8-4.9 8-7 12l-1.2-1c-.8-.6-1.7-.3-2.3.5a1 1 0 0 0 .7 1.6h2c-.3.7-.5 1.6-1 2-.4.4-1.2.5-1.7.3l-3.4-1.4 9.3-17.8h.1z"/><path class="st5" d="m160.8 134.6 1.3 3.6c.5 0 1-.2 1.4-.6.5-.6 1.1-1.3.7-2.2l-1-2.7c1.7 1 3.3 1.8 3.8 3.5.2.7.4 1.5.3 2.2-.2 2.4.7 4.5 1.4 6.7 0 .3.5.5.7.8.4.5.2 1.2-.3 1.3-1.5.4-2.3 1.5-3.2 2.6-.6.6-1.6 1-2.2.3-1-1-2-2.3-2.7-3.6-.4-.8-.3-2-.2-3 .4-2.7.3-5.3 0-8l-.3-.8h.3z"/><path class="st10" d="m62.7 211-1.8-5.6-1-4c-.9-3-.2-6 1-9l1.6-3.4.3-.4h.3V211h-.4z"/><path class="st6" d="m89.1 163.5-2.6 4.8-.5.1-.7-1-4.9-5.3-2.2-2.2c-.2-.3-.2-.8-.2-.9.5-.3 1.2-.8 1.5-.8 2.3.8 4.5 1.8 6.7 2.8 1 .6 1.8 1.6 3 2.5zm5.7.8 9.1-3.8 2 2-8.5 6.8-2.6-5z"/><path d="M96.8 218.7c0-1.7-.4-3.5-2-4.5a8.9 8.9 0 0 0-4.2-1.9c-.3 0-.7-.3-.7-.4.2-.4.4-.9.7-1 .5-.4 1.2-.5 1.8-.7 1-.3 1.4.2 1.7 1 .8 1.8 2.3 2.6 4.1 3 1.1.2 1.7.7 1.7 1.6 0 1 .3 1.4 1 2 1 1 1 2.6-.4 3-.9.4-2 .2-3 0-.8-.3-1-1.2-.7-2z" style="fill-rule:evenodd;clip-rule:evenodd;fill:#38aa35"/><path d="m177.3 155.3-1.4 2c-.7.5-1.6 1-2.4 1.3h-.4l-1.3-2c0-.4 0-1 .4-1.3l2.2-2 .6-1c.4.5.7 1.1 1.2 1.5.5.5 1 .8 1.5 1 0 .3-.3.4-.4.5zm-9.9-3c.8-.9 1.3-1.6 2-2.2l2.3-1.5c.5-.4.8-.4 1.2 0 1 1 .8 1.7-.2 2.5l-2 2c-.5.4-1.2 1-1.6.8-.6-.2-1-1-1.7-1.6z" style="fill-rule:evenodd;clip-rule:evenodd;fill:#ddcd06"/><path class="st3" d="M88.4 147.3c1.2-1.2 2.4-2.5 3.7-3.6 1-1 1.8-1.2 3-.6l-2 2.2c-.5.4-1 .8-1.2 1.7 0 .2-.3.4-.4.4l-2.9.3-.2-.4zm.7-4.5-3 3-1 1.1c-.7 1.1-1.6.8-2.7.6l4.8-4.7c.4-.3 1.1-.3 1.7-.4l.2.5zm8.8 4.3h-2.5c1-1.5 2.2-2.8 3.6-4l1.8-1h.6l-.2.4-2.5 3c-.4.4-.5 1-.9 1.6h.1zm109.7 31.3c0 .7-1 2.3-2 2.5 0 0-.4 0-.5-.2l-2.6-2.4.3-.5 4.8.6z"/><path class="st10" d="m128 211.3-2.3-.6c-1.5-.4-2.3-1.4-2.3-3 0-.6 0-.9-.3-1.5l4.5 5.2h.3z"/><path class="st3" d="m84 141.8-1.6 1.8v-2l.4-.2c.3 0 .7.2 1 .4h.1z"/><path class="st4" d="M151.2 145.2c-.2 1.5-.3 3-.6 4.2-.2 1-1.4 1.8-2.5 1.8-.8 0-1.8-1-2-2a8 8 0 0 1 1.2-5 8 8 0 0 1 1.3-2.2c.2-.3.6-.5.8-.6 1.2-.5 1.5-.2 1.5 1l.3 2.8zm-62.7 44.2c-1 0-1.9-.5-1.8-1 0-.7 1.3-2 2-2 .6.1 1.4 1 1.4 2 0 .6-.6 1.1-1.6 1zm.4-10c-1.4-.3-1.7-.5-1.5-1.5 0-.8 1-1.6 2-1.5.5.1 1.3 1 1.3 1.6-.2.6-1 1.3-1.7 1.3z"/><path d="M110.7 238.4v1.2c-.4 1 0 1.5 1 1.7 1.8.2 2.8 2.8 2.6 4.4 0 2-.3 3.8-.4 5.7 0 .8-1 1.8-2 1.6-.6 0-1.2-.4-1.9-.5h-1c-2.4.8-4.7 1-6.9-.2-1.2-.7-2.3-1.5-2.2-3.2l-.3-1.8c-.2-.8-.7-1.2-1.5-1.3-.5-.1-1.2-.1-1.6-.4-.4-.1-.9-.5-1.2-1-1-1.7-.9-3.5.5-5.2l3.2-3.6c.6-.5 1.3-1 2-1.3 1.1-.5 2.2-1.2 3.4-1.3 1.3-.2 3-.4 4 1 .4.3 1 .5 1.4 1 1 1.3 1 1.3 1 3.2zM98 243.3c1.4-3 3.6-5.2 6-7.3-1.2-.3-2.2 0-3 .7l-2.8 3c-1 1.2-1 2.5-.2 3.6zm10-4.5h-.4l-.7.6-4 5.7c-.8 1-.3 1.7-.2 2.7l1.2-2c1-1.2 1.6-2.6 2.7-3.7 1-1 1-2 1.3-3.3zm2 4.7c-1-.7-1.6-.1-2 .5-1.5 2-2.5 4.2-4.5 5.8l1.6.6.4-.4c.3-.6.5-1.3 1-1.9l3.3-4.6h.1zM108 250l.2.2c.5-.2 1-.5 1.5-.5 1.5 0 1.7-1 1.8-2.3.1-.7.4-1.3-.4-2l-3 4.6zm-.8-13.2-.8-.7-6.5 7.3.1.2 1-.1c1-1.3 1.8-2.6 3-3.8 1-1 1.4-2.5 3.2-3v.1zm7.5-2.4v-.3c.5-1.4.1-2.3-1.3-3-.4 0-.9-.7-1-1.2-1-2.3-1-4.5.6-6.5l.6-1c1-1.2.7-2-.8-2.8-.7-.4-.8-.8 0-1.3.5-.5 1.3-.7 2.1-.4h.7c.5-.9 1.5-.8 2.2-1.2 1.3-.6 2.6-.3 4 0h1.2c1.7 0 2.5.2 3.4 1.7l1.5 2c.4.8.6 1.5.1 2-.4.9-.8 1.7-1.4 2.3-.9 1-.3 2 0 2.8a4 4 0 0 1-.3 3.8c-1.2 2-2.7 3.6-4.6 5a5 5 0 0 1-3.8 1l-1.6-.3c-1.3-.2-1.5-1.4-1.6-2.6zm6.3-15.2c-.3.8-.4 1.6-.8 2l-3 3.3c-.4.3-.8.6-1.3.7-.5.2-1 0-1 .8v1.5h.2l1.1-1 3.6-3.8c.4-.4 1.8-.4 2 0 .1.4 0 1-.2 1.2l-4.5 5c-.3.2-.4.5 0 1 .4.3.6.1 1-.2l4-4.4 1-.8c.5-.3 1.1-.5 1.4-1 .3-.4 1-1.2.7-1.6-.4-1-1.2-1.8-1.8-2.6H121zm2.2 7.7c-.2.2-.2.5-.4.6l-4.9 5.8c-.2.2-.2.7-.2 1 0 .2.3.5.5.4.5 0 1 0 1.4-.3a10 10 0 0 0 4-3.5c.7-1 .5-3-.4-4zm-3-7.8c-1.3-.5-2.2 0-3 .8-.2.1 0 .4 0 .7l.5-.1c.5-1 1.6-.8 2.4-1.3h.1zm6.6 34.6-2-.5c-.7-.4-.8-1.2-.4-2l1-2c.3-.7-.2-1.1-.7-1.4-2.3-.8-2.7-1.3-2-4.2.2-1.9 1.4-3 2.3-4.6l1.6-3.6c.2-.4 0-1 0-1.1-.4-.7-.2-1.3.3-1.5.5-.3 1.3-.6 1.6-.4 1 .5 1.5 0 2-.3a5.3 5.3 0 0 1 5.7-.3l2.1 1.3c2.6 1.7 1.6 5.7-.5 7.3l-2 1.6c-1 .9-1.4 2-1.3 3.4 0 1-.3 2.1-.6 3.2a8.3 8.3 0 0 1-5.7 5h-1.4zm1.1-3.2h.5c2-1.3 3.3-2.8 3.2-5.3 0-1.5 0-3 1.3-4l2.8-2.4c1.4-1.2 1.4-3 0-4-.8-.5-1.7-1-2.4-1-1 0-2.4.6-3.4 1-.5.3-.5 1.2-.8 1.8l-1.9 3.5-1.8 3.5c-.4.8 0 1.2.7 1.6 1 .4 1.8 1 2.2 2 .4 1.1.2 2.3-.4 3.3z"/><path class="st4" d="m91.1 52-.2-.2c-1.5-1.5-.7-2.5.6-3.4.3-.2.7 0 1 0l.3.2c.3.1 1 .1 1 .3.3.5.4 1.2.3 1.7-.2.5-.9.8-1.4 1l-1.6.4zm34.3 1.8c0 1.1-1.2 2.1-2.2 2-1 0-1.7-.7-1.6-1.6 0-1 1.6-2 2.7-2 .5 0 1.2 1 1 1.7h.1zm52.7 141c1-.4 1.8-1.4 3-.2.2.4.6 1 .2 1.5-.5.6-2 1.3-2.6 1.1-.4-.3-.7-1.3-.6-2.4z"/><path d="M98 243c-1-1.2-1-2.3.1-3.5l3-3c.6-.8 1.6-1 3-.7-2.5 2-4.6 4.5-6.2 7.2zm9.8-4.4c-.4 1.1-.4 2.2-1.2 3.2-1 1.1-1.9 2.5-2.7 3.8l-1.3 2c0-1.2-.5-1.9.2-2.8l4.1-5.6.7-.7.2.1zm2 4.6c-1.2 1.6-2.4 3-3.5 4.7l-.9 2-.3.2c-.6 0-1-.3-1.6-.6 2-1.6 3-3.7 4.4-5.7.4-.7.8-1.3 1.8-.6zm-1.8 6.5 3.1-4.6c.7.7.5 1.4.4 2-.2 1.3-.3 2.3-1.8 2.4-.5 0-1 .3-1.5.5 0-.2 0-.2-.2-.3zm-.8-13c-1.7.3-2.3 1.8-3.3 3-1 1-1.9 2.3-3 3.5 0 .2-.5.2-.8.3v-.3l6.4-7.2.7.6z" style="fill-rule:evenodd;clip-rule:evenodd;fill:#dede31"/><path d="M121 219.2h2.4c.6 1 1.4 1.6 1.7 2.6.2.4-.3 1.2-.7 1.7l-1.4 1c-.4.2-.8.4-1 .7l-4 4.4c-.4.2-.6.5-1 .1-.4-.3-.2-.7 0-1l4.5-4.9c.2-.2.4-.8.2-1 0-.6-1.5-.6-2-.2l-3.5 3.7c-.4.4-.7.8-1.2 1h-.2V226c0-.9.6-.6 1-.8a3 3 0 0 0 1.3-.7 30 30 0 0 0 3-3.2c.5-.5.6-1.3 1-2h-.2zm2.2 7.6c1 1 1.1 3 .3 4a9.3 9.3 0 0 1-3.8 3.5c-.4.2-1 .2-1.4.3-.2 0-.5-.3-.5-.4 0-.4 0-.9.2-1 1.6-2 3.2-3.9 5-5.7 0-.2 0-.5.2-.7zm-3-7.7c-.9.4-2 .3-2.5 1.3 0 .2-.4.1-.6.2v-.7c.8-.9 1.8-1.3 3-.8z" style="fill-rule:evenodd;clip-rule:evenodd;fill:#c71617"/><path d="M128 250.2a4 4 0 0 0 .3-3.2c-.4-1-1.3-1.6-2.2-2-.8-.4-1-.9-.7-1.7l1.8-3.3 2-3.5c.2-.5.2-1.4.7-1.7a9 9 0 0 1 3.4-1c.7 0 1.6.3 2.3 1 1.5 1 1.5 2.7.1 4L133 241c-1.2 1-1.4 2.5-1.3 4 0 2.4-1.2 4-3.2 5.3h-.5z" style="fill-rule:evenodd;clip-rule:evenodd;fill:#04b6e0"/><path d="M106.6 56a97 97 0 0 0 6.3 27.7c-4.7.8-5.3 1.2-9.9 2.5-1.5 0-2.7 1.6-2.2 3 2 5 4.4 10 7.4 14.5l2 3 1 1.2c.5 1 .4 1.4-.5 1.3-1.3 1-4.3 1-5.9 1.3-4.4.8-8 1-11.9-1.5-2.9-2-7.5-5.6-7-9.5.3-2.4-3.3-2.5-3.6-.2-.6 4.8 3.8 9 7.3 11.7 4.8 3.7 9.3 4.2 15 3.1 3.2-.6 13-1.2 10.8-6.6-.6-1.5-2-3-3-4.3-3.4-5-5.5-9.9-7.6-13.7 4.3-.8 6-1.6 10.7-2.7 1.5 0 2.3-1.4 1.7-2.7-3.9-9-6.3-18.5-7-28.3 0-2-3.8-2.2-3.6.2z" style="fill-rule:evenodd;clip-rule:evenodd;fill:#010202"/></svg>