<?xml version="1.0" encoding="utf-8"?>
<!-- Generator: Adobe Illustrator 25.4.1, SVG Export Plug-In . SVG Version: 6.00 Build 0)  -->
<svg version="1.1" id="Layer_1" xmlns="http://www.w3.org/2000/svg" xmlns:xlink="http://www.w3.org/1999/xlink" x="0px" y="0px"
	 viewBox="0 0 468.8 346.7" style="enable-background:new 0 0 468.8 346.7;" xml:space="preserve">
<style type="text/css">
	.st0{fill:#C1C1C1;}
	.st1{fill:#ADE5F2;}
</style>
<path class="st0" d="M7.5,62l250-57.5l58,157.5l153,105l-2.5,11l-285.5,61.5L48,239.5l-36-157L7.5,62z"/>
<path d="M173.6,346.7l181.2-42.2l1.4-0.5l2.2-0.8l5.6-1l2.4-0.4l0.8-0.2l1-0.2l7.5-1.3l17.5-3l6.1-1.5c4.8-1.3,9.6-2.3,14.5-3
	l8.6-1.6l4-0.9c5.6-1,11.4-2.2,17-3.7c6.2-1.6,12.4-3.6,18.4-5.5l2.6-0.9c0.8-0.2,3.3-1.2,2.6-3.4c-0.8-2.5-0.3-5.1,1.2-7.2
	c0.9-1.3,0.8-2.7,0-4.1c-0.7-1.1-1.5-2.1-2.5-2.9l-11.8-8.9l-5.2-3.8l-3-2.3c-3.4-2.5-6.8-5-10-7.6l-4.7-3.7c-2-1.6-4-3.3-6.2-4.9
	c-1.6-1.2-3.4-2.3-5.1-3.4c-1.4-0.9-2.8-1.7-4.1-2.7c-1-0.6-1.9-1.4-2.7-2.1l-2.5-2c-2.3-1.6-4.6-3.2-7-4.7l-2.9-2
	c-4.8-3.2-9.7-6.4-14.6-9.6c-2.4-1.7-5.1-3-7.7-4.4l-4.3-2.1c-5.2-2.9-10.2-6.3-15-9.5l-1.7-1.1l-19-13l-3.4-2.4l-1.6-1.3
	c-0.5-0.5-1-1-1.5-1.3l-12.3-7l-1.4-0.5l-1.7-0.6c-0.8-0.4-1.9-1.1-2.5-2.1c-0.6-1.1-1-2.3-1.3-3.5v-0.2c-0.5-1.5-0.9-3.1-1.2-4.6
	c-0.7-2.9-1.5-5.8-2.4-8.6l-5-13.3c-1.5-3.9-3-7.9-4.5-11.9c-1.5-4-2.8-8-4-12l-2.9-8.5c-5.1-15.1-10.5-30.1-16-45l-1.4-3.6
	c-3.7-10.6-7.2-21.4-10.4-32.2L262,6.8c-0.6-2-1.4-4-3.5-5c-1.8-1.1-3.7-1.7-5.8-1.8c-1.4,0-2.8,0.4-4.1,1.2
	c-0.7,0.5-1.5,0.6-2.2,0.7l-0.6,0.2l-10.3,2.2l-10.1,2.2l-4.9,1.1l-9,2l-11,2.2l-15.2,3c-7.3,1.5-14.4,3.2-22.8,5.3
	c-5,1.2-10.7,2.6-16.2,4.3c-5.4,1.9-11.1,3.2-16.8,4c-3.8,1-7.7,2-11.5,3c-9.9,3.1-19.9,5.7-30.1,7.6l-11.6,2L55,46l-11.6,2.6
	l-4.2,1c-2.5,0.4-5,0.9-7.4,1.6l-21,6.2L2.2,60c-1.9,0.6-2.2,1-2.3,1c0,0.3,0,0.8,1.2,2.4l0.1,0.2c0.7,1,1.8,2.4,0.5,4
	C0.3,69.5,0.9,71,2,73.4l0.3,0.8l0.8,1.7C4.5,78.3,6,81.2,5,84.7c0,0.1,0,0.6,0.2,1l0.2,0.6c2.1,8.9,4.1,17.7,6.2,26.6
	c6.2,26.6,12.3,53.3,18.3,80c1.6,7.4,3.2,15,5.1,22.3l1.4,5.4c2.4,8.1,4.1,16.4,5.2,24.8c0.8,2.4,2.1,2.4,2.6,2.4h1.1
	c2.1,0,3.5,1.1,4.6,2.2l0.9,0.7c2.6,2.3,5.4,4.8,8.2,7L71.6,268c3.4,2.8,6.7,5.5,10.1,8.3l0.9,1 M460.6,272.3
	c-0.2,0.6-0.8,1.4-2.2,1.9l-1.9,0.6c-11.9,3.7-23.9,6.9-36,9.7l-11.7,2.3l-10.2,2l-14.1,3.2l-14.6,3.2c-1.8,0.3-3.6,0.6-5.4,0.8
	l-4.2,0.7l-3.7,0.6c-6.6,1.3-13.5,2.5-20.1,4c-7.3,1.6-14.5,3.4-21.7,5.4l-8,1.9c-4.2,1-8-0.9-12.2,0.2c-3.8,1-8.1,5-11.9,6l-15,3.9
	c-2.7,0.7-5.5,1.2-8.3,1.7l-6.3,1.3l-9.2,2.2l-12,2.7l-23.9,4.9l-5.3,1l-8.8,1.7l-15,3l-1.5,0.2c-1.2,0-2.3-0.4-3.4-1.2l-9.3-6.8
	l-7.6-5.5l-6.6-4.8c-3.8-2.9-7.8-5.8-11.8-8.6c-3.2-2.2-6.1-4.9-9-7.4c-1.9-1.7-3.8-3.4-5.8-5l-13.5-10.4c-3-2.3-4.7-4.5-7.8-6.9
	c-9.4-7.3-20.1-14.6-28.8-21.5l-13.3-10.7l-7.6-6.2l-2.3-1.6c-0.9-0.5-3.4-2-2.8-5.3c0.1-0.5,0-1-0.1-1.5c-2.6-6-4-12.4-5.5-18.6
	l-1.6-6.7c-3.1-12.6-5.9-25.3-8.4-38.1l-1.1-6.5c-0.2-1-0.5-1.9-0.9-2.9c-0.5-1.5-1-3.1-1.1-4.8c0-3.7-1-7.3-2-10.7l-1.1-4.8
	c-0.8-3.6-2-7.2-3-10.6l-1.4-4.7l-0.1-0.4l-0.3-1.2c-0.5-5.2-2-10.2-3.4-15l-1.8-6.2c-0.3-1.2-0.5-2.8,0.1-4c1.6-3.2,0.9-6.6,0-9.5
	c-1.2-4.5-2.8-9-4.3-13.3c-0.9-2.7-1.8-5.3-2.7-8l-0.5-1.6l-0.3-1l0.9-0.3l3.4-1.3l7.3-2.6c5.7-2,11.7-3.2,17.5-4.4
	c4.2-0.9,8.4-1.9,12.6-3l5.8-1.4c6.2-1.5,13.3-3.2,20.4-4.7l5.7-1.2c7.5-1.7,15.2-3.4,22.9-4.6c5.2-0.9,10.3-2.5,15.2-4
	c3.7-1,7.6-2.2,11.4-3.1l6.9-1.5l7.7-1.6l10.2-2.6l5.7-1.4l7.5-2c16.1-4.1,32.2-7.9,48.4-11.4c6.9-1.5,13.9-2.8,20.9-4l0.7-0.2
	c0.6,0,1.1-0.2,1.5-0.4c3.5-1.5,7.2-2.2,11-2h0.7l0.2,0.7l1.6,4.5l3.5,10.3l2.3,7.2c1,3.5,2.2,7,3.4,10.5c3.3,9.6,6.3,18,9.3,26
	c0.8,2.3,1.8,4.7,2.8,7l3,7.2l3.4,10.3l2,6l1.9,5.6c2,6,4,12.3,6.3,18.4l3.9,10.2c2.9,7.6,6,15.5,8.1,23.5l0.3,1.7l0.3,1.6l0.3,0.7
	c0.5,1.8,1.2,3.7,2,5.4c0.7,1.5,1.9,2.5,3.8,3c5.9,1.7,10.8,5.1,15.3,8.5l0.7,0.6c7.7,6.1,15.8,11.8,24.2,17
	c7.9,4.7,15.9,9.4,23.9,14c3.1,1.8,6.4,3.6,9.5,5.6c2.1,1.2,4.2,2.6,6.1,4l4.5,3c6.2,4,11.7,8,17,12.3c1.6,1.2,3.3,2.2,5.2,3.2
	c1.7,1,3.4,1.9,5,3l0.4,0.4c6.8,5.2,13.8,10.5,20,16.6c0.6,0.6,1.4,1,2.1,1.6l1.5,1l11.8,9c0.8,0.6,1.5,1.4,2,2.2
	C460.9,270.8,460.8,271.7,460.6,272.3L460.6,272.3z M192.6,317.3c4.6-0.9,9.1-2.1,13.5-3.6l4.3-1.5c2-0.7,4-1.4,6-1.9l8.8-2l7.1-1.5
	l13.8-3.5l5.4-1.4l2.5-0.6l10.5-2.7l10.4-2.9l10.4-2.8l6-1.5l7-1.8l3.8-1.2l4-1.2l7-1.8l9-2.3l6.8-2c3.6-1.1,7.3-2.3,11-3.1
	c8-1.8,16-3.5,23.8-5l10.2-2.2c0.5,0,1-0.2,1.6-0.4c1.2-0.3,2.4-0.6,3.6-0.6c7.4-0.6,14.6-2.2,21.6-4.6c2.3-0.7,2.7-1.3,2.9-4.4
	c0.1-1.6,0.5-3.2,1-4.6c0.5-1,0.3-1.5-0.4-2.2l-0.2-0.3c-0.7-0.6-1.4-1.3-2.1-1.7l-3-1.5c-1.6-0.8-3.2-1.6-4.6-2.6
	c-9.6-6.5-18.7-13.5-27.5-21l-11.4-9.1c-3.7-3-7.6-5.7-11.5-8.4l-1.3-1l-7.5-5c-4.5-3.1-9.2-6.3-13.6-9.7c-4.7-3.5-9.8-6.8-14.6-10
	l-5-3.2c-1.1-0.7-2.1-1-3-1c-2.3,0-3,2.1-3.2,3.4c-0.5,2.8-2,3.7-4.3,4.3c-5.5,1.3-11,3-16.4,4.5l-1.1,0.3l-4.9,1.6
	c-2.6,0.8-5.3,1.7-8,2.3l-0.7,0.2c-1.2,0.3-2.4,0.6-3.8,0.6c-1,0-2-0.2-3-0.6c-0.9-0.5-2-0.8-3-1c-0.2,0.3-0.4,1.9-0.5,3.1l-0.1,0.5
	l-0.4,0.3l-0.4,0.2l-0.7,0.4l-4.1,1c-4,1-8,2-12,3.2l-3.6,1.2c-7.5,2.1-13.8,3.9-19.8,5.4l-6.2,1.4c-4.4,1-8.7,2.1-13,3.4l-8.2,2.3
	c-5,1.2-10.2,2.5-15.4,3.2c-5,0.7-10,1.2-14.8,1.7l-12,1.4c-4.4,0.6-9,1.3-13.3,2.1l-3.9,0.7l-3,0.6l-2.8,0.6l-5.9,1l-22,3.8
	c-3.9,0.6-4.7,2.4-6,6.8c-0.6,1.8,0.4,2.5,2.4,3.7l1.1,0.7h0.2l0.5,0.4l5.5,4.4l12.7,9.9l4.7,3.4l4.7,3.4l11.4,8.8l14.3,11l8,5.9
	c4,2.9,8.1,6,12,9.1c2.4,2,5,3.8,7.4,5.5c5.3,3.6,10.2,7.8,14.7,12.4c0.7,0.8,1.8,1.6,2.7,1.6c0.4,0,0.7-0.1,1-0.3
	c1.6-1.1,3.4-1.7,5.3-1.8L192.6,317.3L192.6,317.3z M255.7,293.6c-9.6,3.1-19.7,5.9-31.9,8.6h-0.5l-0.4-0.3l-2.6-2.4
	c-1.7-1.6-3.3-3.2-5-4.6c-3.7-3.1-7.5-6.2-11.3-9.2l-7.4-6.2l-1.2-1.3l-0.7-1l-0.8-1l1.2-0.5l1.7-0.8c1.2-0.5,2.2-1,3.4-1.2
	c4.3-1.1,8.7-2,13.1-2.8c4.5-1,9-2.1,13.5-3.4c1.4,0,2.3,0.7,3,1.3l18.8,16.6c2,1.4,4,3,5.9,4.6c0.6,0.7,1.2,1.4,1.8,2l0.8,1.1
	L255.7,293.6L255.7,293.6z M255.7,244.6l3.4,2.7l1.4,1.4l0.9,1l1,1.1l-1.4,0.5l-1.5,0.6l-2.6,0.9l-16.3,4.8l-5.2,1.5l-0.5,0.2
	l-0.8,0.2c-1.5,0.6-3,1-4.3,1c-3,0-5.6-1.5-8.3-4.5c-1.8-1.8-3.8-3.3-6-4.5c-2-1.1-3.9-2.4-5.7-3.7l-1.3-0.9l-0.5-0.3V246l0.1-0.9
	v-0.7l0.8-0.2l1.6-0.4c1.2-0.4,2.5-0.8,3.9-0.9c8.5-0.8,16.8-3.1,25-5.3l1-0.3c1-0.3,2-0.5,3-0.5c2.1,0,4.1,0.9,5.6,2.4
	c2.1,2,4.4,3.8,6.7,5.5L255.7,244.6z M249.5,235.6l2-0.6l3.1-1l5.6-1.5c8.2-2,16.5-3.9,24.8-5.6l1.1-0.1c0.7,0,1.7,0.1,2.5,0.6
	l13,8.9c0.5,0.3,0.8,0.8,1.2,1.4l0.5,0.7l0.8,1l-1.1,0.5l-0.7,0.4l-1.5,0.7l-13.1,3.7l-14.3,4c-1,0.3-1.8,0.5-2.6,0.5
	c-1.3,0-2.6-0.4-3.6-1.2l-11-7.8l-5-3.5l-1.7-1.2L249.5,235.6z M211.3,254l0.6,0.4c3,1.9,6,3.8,9.3,6.4l1.2,1l-1.4,0.7l-1.2,0.6
	c-0.6,0.4-1,0.6-1.5,0.7l-8.6,2.1c-5.8,1.4-11.6,2.9-17.4,4.5c-0.9,0.2-1.7,0.4-2.5,0.4c-2,0-4-0.8-6-2.4l-11.5-9.3l-1-0.5l-1.2-0.6
	l-3.5-2.3l-1.4-0.9l-0.5-0.3v-0.6l0.2-0.7v-0.9l0.7-0.2l1.3-0.5c1-0.3,2-0.7,3.1-0.9l18.6-3.4l2.3-0.5l1.6-0.2c0.8,0,1.6,0,2.2-0.4
	c0.9-0.4,1.8-0.6,2.6-0.6c2.1,0,3.8,1.3,5.4,2.5h0.1l8.5,6L211.3,254z M296.9,282.6l-1.5,0.6l-2.6,0.8l-12.3,3.1l-13.3,3.4l-1.8,0.3
	c-0.8,0-1.5-0.3-2.2-0.8l-7.3-5.2l-9.2-6.7c-3-2.2-5.8-4.6-8.5-6.8l-3.8-3.2l-0.7-0.6l0.5-0.7c1.2-1.8,2.9-2.3,4.2-2.6l0.7-0.2
	c6.4-2,14-4.4,21.5-6.5c2.4-0.7,5.1-1.2,8.5-1.7h0.4c1.2,0,2.4,0.6,3,1.2c3.6,3,6.5,5.6,9,8l11.5,11.2l2.9,2.9l1,1.1
	c0,0.3,0.3,0.6,0.5,0.9l0.9,1L296.9,282.6L296.9,282.6z M342.7,270.3l-35.3,9.5l-1.5,0.4l-0.5,0.2L305,280l-3.8-3
	c-2.7-2.1-5.3-4.2-7.7-6.3L289,267c-4-3.2-8-6.6-11.3-11.2l-0.5-0.8l0.8-0.6c2.2-1.5,4.6-2.2,7-3c0.5,0,1-0.2,1.3-0.3l14.6-4.2
	l1.2-0.3l1.8-0.5c2.6-0.8,5.3-1.5,8-2c1,0,2.2,0.5,3,1.1c9.4,7.3,18.5,14.7,25.4,20.2c0.6,0.5,1.1,1.2,1.8,2l1,1.3l1.1,1.2
	L342.7,270.3L342.7,270.3z M357.3,234.3l3.9-0.5h0.8c2,0,3.5,0.9,4.7,1.8l0.5,0.5c3.3,2.7,6.8,5.5,10.2,8c3.6,2.7,7.3,5.3,11,7.8
	l4.9,3.4c1,0.7,2,1.4,2.7,2.7l0.7,1.1l-1.3,0.4c-8,2-16.1,3.6-24,5c-6.7,1.2-13.6,2.5-20.3,4.1l-0.6,0.1l-0.4-0.3l-3.3-3l-9.4-8.2
	c-0.7-0.6-1.4-1-2.3-1.5l-0.3-0.2c-4.5-2.7-8.4-6.2-12.6-10l-2.3-2l-1.4-1.3l1.8-0.5c2.6-0.7,5.2-1.4,7.7-2.2l5.8-1.1l7.7-1.6
	C346.8,235.5,352.1,234.8,357.3,234.3L357.3,234.3z M336.1,214.6l0.3-1.4l1.3,0.8c1.5,1.2,3.2,2.2,4.7,3.2c4,2.6,8.3,5.3,11.7,9.4
	l1,1.2l-1.5,0.4l-4.4,1l-8.4,2c-9.7,2.1-19.3,4.1-29,6.1c-0.5,0-1.5,0-2.2-0.6c-4.3-2.8-8.6-5.8-12.3-8.4l-1.1-1.1
	c-0.2-0.3-0.5-0.6-0.7-0.9l-1-1.1l1.5-0.5c0.6-0.2,1.3-0.4,1.9-0.6c1.3-0.5,2.5-1,3.7-1.2c7-1.4,14.3-2.6,21.3-3.9l3.6-0.7l1.3-0.2
	c1.6-0.3,3.2-0.6,4.8-0.7C334.4,217.4,335.6,216.9,336.1,214.6L336.1,214.6z M264.3,202.6l1.5-0.7l2.2-1c10.7-3.5,21.6-6.3,32.7-8.4
	c1-0.9,2-1.3,3.2-1.3c1.6,0,3,1,4.3,2c6,4.3,12.1,8.5,18.3,12.6c1.4,1,3,2,3.8,4.4l0.3,1l-1.1,0.3l-4.6,0.9l-10.9,2
	c-2.3,0.5-4.6,1.1-6.8,1.7c-6.5,1.3-12.9,2.5-19.4,3.7c-1.3,0-2.5-0.4-3.5-1.2l-13-9.4l-1.8-1.3l-3.3-2.2c-0.6-0.5-1.2-1-2-1.4
	l-1.4-1l1.6-0.7L264.3,202.6z M227.1,213.4l0.4-1.2l0.1-0.4l0.5-0.2l2.2-0.7l4.8-1.5l11.3-2.7c3.2-0.7,6.4-1.3,9.6-2
	c1.1,0,2,0.4,2.8,1.3c2.6,3.2,6,5.5,9.6,7.8c2.3,1.6,4.6,3.3,6.8,5l1.6,1.2l1.3,1l-1.6,0.7l-1.2,0.5c-0.7,0.3-1.2,0.6-1.8,0.7
	l-8.7,2.1l-17,4.2c-0.5,0.2-1,0.2-1.5,0.2c-1.7,0-3.2-0.8-4.4-2.5c-2.6-3.5-6-6.3-9.9-8.2c-1.3-0.7-2.4-1.9-3.4-3l-1.3-1.3l-0.4-0.5
	L227.1,213.4L227.1,213.4z M182.9,223.8l2.2-0.8l3.8-1.5c3.2-0.9,6.5-1.7,9.8-2.5l5.5-1.2l8.3-2c2.5-0.6,5-1.5,7.4-2.5l1-0.3l0.3,1
	c0.9,3.6,3.4,5.6,6.2,7.7l0.4,0.3c1.3,1,2.8,1.9,4.3,2.8l2.6,1.6l2.6,1.8l1.6,1.3l1.6,1.2l-1.9,0.5c-9.6,3-17.6,4.9-25.4,6
	c-3.7,0.5-7.4,1.2-11,1.9c-1.3,0-2.4-0.4-3.5-1.3c-3.3-2.6-6.8-5-10.3-7.3l-3.8-3.2l-2-1.8l-1.2-1L182.9,223.8L182.9,223.8z
	 M136.1,231l0.2-0.5v-0.3l0.3-0.6h0.6l3.2-0.4l7.1-0.8l17.4-2l3.2-0.4c1.9-0.3,3.8-0.6,5.8-0.7h0.2c1,0,2.5,0.5,3.2,1.4
	c3.2,4.4,7.1,8,11.6,11c0.4,0.2,0.7,0.6,1,1l0.5,0.8l0.8,1.1l-1.3,0.4l-1.2,0.5l-2.4,0.8l-25.3,5l-1,0.2l-1.7,0.2
	c-1.4,0-2.6-0.4-3.7-1.3l-7.7-5.3l-4.3-3c-0.5-0.3-1.2-0.8-1.6-1.5c-1.3-2-2.7-3.5-4.4-4.4l-0.8-0.4L136.1,231L136.1,231z
	 M116.9,256.4c-0.7,0-1.8-0.1-2.5-0.7c-5.5-4.2-11.1-8.7-16.5-13l-2.2-1.7c-0.4-0.3-0.5-0.7-0.7-1l-0.3-0.9l-0.5-1l1-0.4
	c0.4,0,0.8-0.2,1.1-0.3c0.7-0.3,1.4-0.6,2.1-0.7l5.3-0.9l7.2-1.2c4.7-0.8,9.4-1.7,14-2.8c1.2,0,2.4,0.4,3.3,1.2l7.3,6l3,2.5l1.1,1
	l3.2,2.6l2.1,1.8l1.3,1.2l1.4,1.3l-1.8,0.4c-3.3,0.8-6.7,1.7-10,2.6C129.5,253.8,123.1,255.1,116.9,256.4L116.9,256.4z M149.6,281.3
	c-1.3,0-2.5-0.4-3.6-1.2l-8.5-6.4l-9.7-7.3l-2.4-2l-1.3-1.3l-1.1-1l1.4-0.6c5.6-2.3,11.4-4,17.3-5l2.8-0.5l1.5-0.3
	c1.4-0.2,2.8-0.6,4.2-1c1.1-0.4,2.2-0.6,3.3-0.6c3,0,5.5,1.6,7.6,3.1c2,1.5,4.1,3,6.2,4.3l3.5,2.4l8.6,6l0.9,1.2l0.3,0.7l0.7,1.2
	l-1.3,0.3l-4.6,1.3C166.8,276.9,158.2,279.1,149.6,281.3L149.6,281.3z M183.4,308.8c-1.1-1.2-2-2.2-3.1-3l-5.7-4.2l-3.7-2.8
	l-15.8-12c-0.3-0.2-0.5-0.6-0.7-1l-0.3-0.6l-0.6-1l1-0.4l1-0.5l2.2-0.8l17.7-4.3l1.4-0.3l1.4-0.4c2-0.6,4-0.9,6-1
	c3.1,0,5.6,1.1,7.8,3.3c5.8,5.8,11.8,11.4,18,16.7l0.1,0.1c0.6,0.6,1.3,1.2,1.9,1.4c2.4,0.7,3.2,2.6,4.1,4.7l0.2,0.4l0.5,1l-1.2,0.4
	l-5.2,1.4l-12,3.2l-3,0.8l-3.9,1.1c-0.9,0.2-1.8,0.4-2.6,0.4C186.8,311.4,184.9,310.5,183.4,308.8L183.4,308.8z"/>
<path class="st1" d="M29.4,76.4l207-50.5l8,3l44,130l-220.5,59l-5-1L29.4,76.4z"/>
<path d="M85.6,216.5c3.3-0.9,6.6-2,9.8-3c3.3-1,6.7-2.2,10.2-3c4-1.1,8.3-1.9,12.4-2.7l5.9-1c4.4-1,9-1.9,13.5-3.5
	c3.7-1.2,7.5-2.3,11.4-3.1c5.7-1.3,11.3-2.9,16.9-4.7l11.7-3.2c3.2-0.9,6.5-1.6,9.7-2.4l11.2-2.8c1.8-0.4,3.6-1,5.3-1.6
	s3.6-1.3,5.4-1.7c5.4-1.4,10.8-2.8,16.1-4c15.6-3.9,31.1-8.1,46.6-12.5c1.7-0.4,3.4-1,5-1.7l4-1.4c1.1-0.4,2.2-0.6,3.2-0.8
	s2-0.4,3-0.8c2.2-0.6,4.1-2.1,5.1-4.1c1-2,0.8-4.4-0.2-7c-1.4-3.4-3-7-4.4-10.7l-1.5-4.2l-1.1-3.1l-1.6-4.1c-1-2.4-2-5-2.7-7.5
	l-6.4-20.4l-4-12.7c-0.2-0.7-0.5-1.5-0.9-2.2c-0.4-0.9-0.7-1.8-1-2.7l-2.2-8c-1.1-3.9-2.2-7.8-3.4-11.7c-1.8-6-3.8-12-5.8-17.8
	l-1.8-5.6l-0.5-1.3L250,26c-0.6-1.7-1.1-2-2-2l-1.5,0.2l-0.6,0.1c-0.5,0.1-1.1,0.3-1.7,0.3c-0.5,0-1-0.2-1.3-0.4
	c-1.5-1-3.3-1.5-5.1-1.4c-1.9,0-3.8,0.4-5.7,0.8h-0.4l-17.4,4l-10.9,3c-4,1.1-8,2.3-12.1,3.3l-24.1,5.8l-7.1,1.7l-16.2,3.9l-12.5,3
	l-9.4,2.2l-1.8,0.4l-0.7,0.2l-8.3,2c-1.7,0.5-3.3,1-5,1.3l-4.7,1.3l-1.8,0.4c-2.4,0.6-4.8,1.3-7.3,1.8c-2.6,0.6-5.3,1.1-8,1.5
	l-5,1.1l-2.2,0.6c-1.6,0.4-3.1,0.7-4.7,1c-3.3,0.5-6.3,1-9.2,2.3c-1.2,0.6-2.5,0.8-3.8,1.1l-0.6,0.2c-4.2,1-8.5,1.9-12.7,2.8
	L40.6,70c-2.9,0.9-5.9,1.7-9,2.3l-1,0.2c-2,0.4-4,0.7-5.8,2v0.2l0.4,0.8c2.5,2.2,3,5,3.5,7.8v0.1l1.3,6.4c1.3,7,2.6,14,4.1,21
	c0.8,4,1.8,7.8,2.8,11.6l2.3,9.1l3,14l2.8,12.3l1.2,4.5l1.4,5.2c2,9,3.5,16.8,4.9,24.2c0.5,3,1.3,6.2,2,9.2c1.5,5.5,3,11.3,3.1,17.2
	c0,2,1,2.8,3,2.8h0.5c0.6,0,1.3-0.2,2-0.4l1.1-0.2l0.7-0.2c0.5-0.2,1.1-0.4,1.7-0.4h0.5c1,0.3,2.2,0.4,3.3,0.4
	c3.6,0,7.2-1.1,10.7-2.3C81.1,217.8,85.6,216.5,85.6,216.5z M71.7,215.2c-1.2,0.3-2,0.5-2.6,0.5c-2.1,0-2.7-2-3.2-3.6l-3.1-10
	l-2.6-8.4l-0.3-1.7l-0.1-0.6l-0.6-4.2c-0.5-3.7-0.9-7.2-2.2-10.6c-0.8-2.4-1.1-4.9-1.5-7.3l-0.7-4.6l-2.3-9c-0.7-2.8-1.4-5.6-2-8.4
	l-3-13l-2.6-11.8c-0.2-1-0.6-2-1-3.1c-1.5-5.8-2.7-11.7-3.6-17.6l-1.5-6.2l-1.4-6.5c-0.4-1.8-0.6-3.7-0.8-5.5l-0.3-2.7
	c-0.4-2.8,2-3.5,2.7-3.7l8.7-2.5l5.2-1.5c2.6-0.8,5.3-1.4,8-2c4-1,8.2-1.9,12.1-3.4c2.1-0.8,4.4-1,6.6-1.3l3.8-0.5l0.8-0.2
	c11.7-2.4,23.4-5.1,35-8l10.3-2.8c15-3.6,30-7,45.1-10.2l1.4-0.3c7.3-1.3,14.5-3.1,21.5-5.5c3.9-1.4,7.9-2.5,11.8-3.4
	c5.4-1.3,10.8-2.9,16.1-4.8c3.3-0.8,6.6-1.4,9.8-2l3.4-0.7h0.8c1,0,2.3,0.3,3,2.1l0.6,1.2l0.9,2l3.4,10.6l4,12.4
	c3,9.6,6.2,19.2,9.3,28.6l3.8,11.8c0.7,2.1,1.4,4.3,2.1,6.4l2.5,8c1.6,5.5,3.3,11.2,5.1,16.7c1,3.1,2.3,6.3,3.5,9.3l2.6,6.7l2.5,7.5
	l1,3.4l0.3,0.9l-0.8,0.3c-11.7,5-23.7,9-36,12l-15.6,4l-24.9,6.7c-14.8,3.9-29.5,7.8-44.3,11.8c-14.9,3.9-29.8,7.7-44.7,11.3
	l-3.5,0.9l-5.5,1.3c-3.8,0.9-7.7,1.8-11.5,3c-5.8,1.7-11.6,3.6-17.3,5.5L71.7,215.2L71.7,215.2z"/>
<path d="M118.3,150.8c-0.7,1-0.8,2.2-0.5,3.9l0.1,1.2c0.3,1.1,0.6,2.3,0.8,3.4c0.6,1.7,1.2,3.4,2.1,4.8c4.1,6,10.5,10.1,17.7,11.4
	c2,0.3,4.2,0.4,6.2,0.4l3,0.1l2.8,0.1c14.3-0.2,28.1-5.1,39.3-14c1.3-0.9,2-1.9,2-3s-0.6-2.4-1.9-3.5l-1-0.8l-3.2-3l-17.3-17.2
	l-5.9-6l-0.1-0.2c-0.2,0-0.3-0.2-0.5-0.4c-0.9-1.1-1.2-2.2-1-3c0.3-1,1-1.6,2.2-2c2.6-0.9,5.5-1.8,8.5-2.2c3-0.3,6-0.4,8.8-0.5
	l3.6-0.2c1.7,0,2.9-1,3.6-2.7c0.5-1.5-0.1-3.3-1.6-4.6l-0.4-0.3c-0.8-0.7-1.8-1.5-2.4-2.5c-2.9-4.4-5.5-8.9-7.8-13.6
	c-1.4-2.9-2.9-5.8-4.6-8.5c-4.7-7.8-8.7-15.2-12.3-22.7l-0.2-0.5c-0.6-1.2-1.1-2.3-1.8-3.3c-0.6-0.9-1.4-1.4-2-1.4l-0.4,0.1
	c-1.9,1.3-3.5,2.9-5,4.6v1.4c1.1,2.7,2.1,4.8,3.2,6.6l5.9,10l8,13.8c1.8,3.3,3.4,6.7,5.2,10.2l2.6,5l0.6,1.3l-1.3,0.2l-2,0.3
	c-1.1,0.2-2,0.3-2.7,0.7c-4.3,1.9-8.9,2.6-13.3,3.3l-3.6,0.7c-2.1,0.3-3.5,1.8-4.5,4.6c-0.6,1.4-0.1,2.7,1.5,4.2l22.9,22l6.1,6.6
	l2.8,3l0.8,0.9l-1,0.6l-0.8,0.8c-0.6,0.5-1.1,1-1.8,1.2l-3.1,1.3c-2.9,1.2-5.8,2.4-9,3c-6.7,1.1-13.4,1.7-20.2,1.8
	c-3.7,0-8.4-0.5-12.2-3.8c-3.3-3-7.1-6.3-7.6-12c-0.1-1.4-2.7-3.2-3.8-3.2h-0.1c-1.7,0.2-2.8,0.8-3.5,1.7L118.3,150.8z M102.1,96.8
	l1.7-1.2c0.8-0.5,1.2-1.3,1.1-2.1c-0.1-0.7-0.8-1.1-1.8-1.1l-0.3,0c-0.5,0-1.2,0-1.7-0.2c-2.4-0.7-4.7-1.5-6.9-2.4
	c-1.3-0.6-2.7-1.2-4.2-1.6c-4-1.3-7.7-2.7-11.1-4.3l-0.2-0.1c-0.6-0.2-1.1-0.5-1.6-0.6c-0.5-0.1-1-0.1-1.3,0.1l-0.2,0.2
	c-0.6,1-1,2.1-1.3,3.2l0.3,0.5c1.1,0.6,2.1,1.1,3.1,1.4l5.1,1.7l7,2.5c1.6,0.6,3.2,1.3,4.8,2l2.4,1l0.6,0.3 M100.4,97.4l1-1.8
	c0.5-0.8,0.5-1.6,0.1-2.3c-0.4-0.6-1.2-0.7-2.1-0.2l-0.2,0.1c-0.5,0.2-1.1,0.6-1.6,0.6c-2.4,0.4-4.9,0.7-7.2,0.8
	c-1.5,0-3,0.1-4.4,0.4c-4.2,0.6-8.1,0.9-11.9,1l-0.2,0c-0.6,0-1.2,0-1.7,0.2c-0.5,0.1-0.9,0.4-1.1,0.7l-0.1,0.2
	c-0.1,1.2,0,2.4,0.2,3.4l0.5,0.3c1.3,0.1,2.4,0,3.3-0.1l5.4-0.7l7.4-0.9c1.7-0.2,3.4-0.2,5.2-0.3l2.6-0.2l0.6,0 M82.1,112.3l0.3,1.9
	c0.1,0.9,0.6,1.5,1.3,1.8c0.6,0.2,1.3-0.2,1.7-1.1l0.1-0.2c0.2-0.5,0.5-1,0.8-1.4c1.5-1.7,3.1-3.4,4.8-4.8c1-0.9,2.1-1.8,3-2.9
	c2.7-2.9,5.4-5.4,8.1-7.7l0.2-0.1c0.4-0.4,0.8-0.7,1.2-1.1c0.3-0.4,0.5-0.8,0.4-1.1l-0.1-0.2c-0.6-0.9-1.4-1.7-2.2-2.4l-0.6,0.1
	c-1,0.7-1.7,1.4-2.4,2l-3.5,3.6l-4.9,5c-1.2,1.1-2.4,2.2-3.7,3.3l-1.8,1.6l-0.5,0.4 M202.1,72.1l-1.1,1.7c-0.6,0.8-0.6,1.6-0.3,2.3
	c0.3,0.6,1.2,0.8,2.1,0.4l0.2-0.1c0.5-0.2,1.1-0.5,1.7-0.5c2.5-0.2,4.9-0.3,7.3-0.2c1.5,0.1,3,0.1,4.5,0c4.3-0.2,8.1-0.2,11.9,0
	l0.2,0c0.6,0,1.2,0.1,1.7,0c0.5-0.1,1-0.3,1.2-0.6l0.1-0.2c0.2-1.2,0.2-2.3,0.1-3.5l-0.5-0.4c-1.3-0.2-2.4-0.2-3.3-0.2l-5.4,0.2
	l-7.4,0.2c-1.7,0-3.4-0.1-5.2-0.2l-2.6-0.1l-0.6,0 M203.5,70.9l-0.3,2c-0.2,1,0.1,1.7,0.8,2.2c0.6,0.4,1.4,0.2,2.1-0.6l0.2-0.2
	c0.4-0.4,0.8-0.9,1.3-1.2c2.1-1.3,4.3-2.4,6.5-3.4c1.4-0.6,2.7-1.2,4-2c3.7-2.1,7.2-3.8,10.7-5.2l0.2-0.1c0.6-0.2,1.1-0.4,1.6-0.8
	c0.4-0.3,0.7-0.7,0.8-1l0-0.2c-0.4-1.1-0.8-2.2-1.4-3.1l-0.6-0.1c-1.2,0.4-2.2,0.8-3.1,1.3l-4.8,2.6l-6.6,3.5
	c-1.6,0.8-3.1,1.4-4.8,2.2l-2.3,1.1l-0.6,0.2 M215.2,50.4l-1-1.6c-0.4-0.8-1.1-1.2-1.9-1.2c-0.7,0.1-1.1,0.7-1.2,1.6l0,0.2
	c0,0.5-0.1,1.1-0.3,1.6c-0.8,2.2-1.7,4.3-2.7,6.2c-0.7,1.2-1.3,2.5-1.8,3.8c-1.5,3.7-3.1,7-4.8,10.1l-0.1,0.2
	c-0.3,0.5-0.5,1-0.7,1.5c-0.2,0.5-0.1,0.9,0,1.2l0.1,0.2c0.9,0.6,1.9,1.1,2.9,1.5l0.5-0.3c0.7-1,1.1-1.9,1.5-2.8l2-4.7l2.8-6.4
	c0.7-1.5,1.5-2.9,2.2-4.4l1.1-2.2l0.3-0.5"/>
</svg>
