<?xml version="1.0" encoding="utf-8"?>
<!-- Generator: Adobe Illustrator 19.0.0, SVG Export Plug-In . SVG Version: 6.00 Build 0)  -->
<svg version="1.1" id="Layer_1" xmlns="http://www.w3.org/2000/svg" xmlns:xlink="http://www.w3.org/1999/xlink" x="0px" y="0px"
	 viewBox="0 0 554.616 813.636" style="enable-background:new 0 0 554.616 813.636;" xml:space="preserve">
<style type="text/css">
	.st0{fill:#724D0D;}
	.st1{fill:#F6C0C2;}
	.st2{fill:#D8B060;}
	.st3{fill:#183EA8;}
	.st4{fill:#C1C1C1;}
	.st5{fill:#ADE5F2;}
	.st6{fill:none;}
</style>
<polygon class="st0" points="308.638,744.181 308.638,755.514 360.638,788.847 387.971,795.514 399.304,788.181 397.304,776.181 
	388.638,756.847 364.638,741.514 340.638,739.514 "/>
<polygon class="st0" points="203.304,742.847 165.971,770.847 160.638,787.514 168.638,796.181 193.304,796.181 219.971,786.181 
	243.971,770.847 253.304,757.514 250.638,743.514 "/>
<polygon class="st1" points="63.554,377.514 80.054,345.764 89.054,344.514 95.804,333.014 91.804,321.514 82.054,320.014 
	71.554,326.014 65.304,321.514 57.554,322.264 42.054,305.264 28.804,304.764 24.304,322.014 10.554,325.514 11.304,336.014 
	16.554,348.264 4.804,355.514 5.054,365.514 14.054,373.264 39.054,374.264 "/>
<polygon class="st1" points="431.838,306.472 457.883,323.264 478.986,301.523 481.345,295.898 "/>
<polygon class="st2" points="205.907,528.602 356.468,510.671 353.75,743.845 313.622,739.16 276.403,591.599 255.536,747.063 
	199.575,741.891 "/>
<polygon class="st3" points="171.804,280.514 133.304,296.014 134.304,313.014 134.304,329.014 129.804,344.514 115.304,353.514 
	101.304,353.014 84.304,346.514 79.304,347.014 64.804,379.514 100.304,405.014 136.304,404.014 158.304,395.514 170.804,382.514 
	187.304,362.514 189.304,397.514 189.804,461.014 195.304,529.514 363.304,513.514 356.804,357.014 363.304,358.514 
	378.304,370.014 408.304,373.514 431.304,363.014 447.304,345.514 459.304,325.514 429.804,302.514 417.804,307.514 
	413.804,317.514 407.304,320.014 392.304,314.014 279.304,340.514 260.304,342.514 "/>
<polygon class="st4" points="88.304,63.014 338.304,5.514 396.304,163.014 549.304,268.014 546.804,279.014 261.304,340.514 
	128.804,240.514 92.804,83.514 "/>
<polygon class="st5" points="111.804,78.514 318.804,28.014 326.804,31.014 370.804,161.014 150.304,220.014 145.304,219.014 "/>
<path class="st6" d="M258.312,260.21c3.883,3.045,7.754,6.105,11.558,9.248c1.655,1.368,3.311,2.168,5.278,2.168
	c0.706,0,1.453-0.103,2.254-0.321c8.639-2.343,17.354-4.404,26.033-6.604c0.555-0.141,1.05-0.519,2.465-1.244
	c-3.543-2.73-6.651-4.718-9.753-6.733c-2.902-1.886-5.756-3.854-8.538-5.912c-1.578-1.167-3.07-2.304-4.917-2.304
	c-0.67,0-1.387,0.15-2.172,0.502c-1.202,0.539-2.691,0.418-4.036,0.664c-6.965,1.274-13.933,2.538-20.884,3.884
	c-1.48,0.286-2.897,0.897-4.343,1.358c-0.036,0.31-0.072,0.62-0.108,0.93c1.618,1.058,3.221,2.142,4.862,3.164
	C256.743,259.468,257.643,259.686,258.312,260.21z"/>
<path class="st6" d="M359.938,231.83c-4.737,1.081-9.463,2.215-14.174,3.405c-2.615,0.66-5.189,1.48-8.607,2.466
	c5.918,4.175,10.969,7.731,16.012,11.298c0.978,0.692,1.987,0.964,3.034,0.964c0.754,0,1.527-0.141,2.321-0.369
	c9.102-2.612,18.218-5.175,27.32-7.782c0.644-0.184,1.224-0.59,2.028-0.989c-0.628-0.819-0.964-1.557-1.535-1.957
	c-4.281-2.997-8.576-5.978-12.955-8.828c-0.501-0.326-1.222-0.459-1.92-0.459c-0.326,0-0.646,0.029-0.937,0.08
	C366.978,230.288,363.45,231.029,359.938,231.83z"/>
<path class="st6" d="M320.54,259.966c7.143-2.116,14.29-4.222,21.427-6.358c1.238-0.37,2.439-0.865,4.054-1.445
	c-0.988-1.061-1.494-1.757-2.141-2.275c-3.384-2.708-7.003-5.159-10.147-8.118c-1.618-1.522-3.206-2.155-4.978-2.155
	c-0.859,0-1.762,0.149-2.733,0.417c-8.617,2.38-17.222,4.83-26.185,5.658c-1.805,0.167-3.562,0.858-5.341,1.307
	c-0.027,0.297-0.054,0.594-0.081,0.891c1.424,0.925,2.869,1.819,4.267,2.783c3.051,2.103,6.593,3.784,8.989,6.477
	c2.336,2.625,4.699,4.109,7.502,4.109c1.218,0,2.519-0.28,3.937-0.868C319.567,260.201,320.063,260.108,320.54,259.966z"/>
<path class="st6" d="M353.627,203.794c-1.001,0.309-1.93,0.854-3.502,1.566c2.163,1.466,3.777,2.505,5.333,3.624
	c4.928,3.547,9.867,7.081,14.727,10.72c0.954,0.715,1.927,0.993,2.94,0.993c0.42,0,0.847-0.048,1.283-0.133
	c5.972-1.161,11.936-2.365,17.895-3.593c2.304-0.475,4.574-1.114,6.88-1.579c5.066-1.022,10.145-1.98,15.47-3.013
	c-0.791-2.298-2.475-3.174-3.958-4.211c-5.896-4.123-11.847-8.17-17.696-12.359c-1.277-0.914-2.473-1.771-3.763-1.771
	c-0.786,0-1.607,0.318-2.503,1.135c-0.317,0.289-0.942,0.253-1.43,0.34C374.531,197.456,364.066,200.576,353.627,203.794z"/>
<path class="st6" d="M438.7,229.081c-4.654-5.453-10.637-8.336-16.273-12.345c-0.672,2.783-2.248,3.512-4.496,3.578
	c-1.962,0.058-3.917,0.528-5.864,0.879c-8.31,1.496-16.624,2.973-24.917,4.56c-1.753,0.335-3.422,1.103-5.525,1.803
	c0.802,0.946,1.105,1.498,1.569,1.822c4.062,2.834,8.128,5.665,12.263,8.39c0.433,0.285,1.067,0.417,1.668,0.417
	c0.265,0,0.523-0.026,0.756-0.075c9.348-1.985,18.684-4.031,28.016-6.091C429.976,231.12,434.041,230.153,438.7,229.081z"/>
<path class="st6" d="M381.958,283.56c-0.715-0.958-1.019-1.495-1.442-1.912c-4.777-4.708-9.53-9.443-14.379-14.075
	c-2.877-2.749-5.875-5.376-8.911-7.95c-0.62-0.526-1.596-0.997-2.39-0.997c-0.083,0-0.163,0.005-0.241,0.016
	c-2.829,0.385-5.67,0.88-8.412,1.665c-7.177,2.055-14.315,4.25-21.442,6.476c-1.449,0.452-3.151,0.627-4.346,2.409
	c4.138,3.397,8.056,6.839,12.209,9.968c5.436,4.095,11.092,7.898,16.573,11.936c0.571,0.421,1.081,0.562,1.591,0.562
	c0.488,0,0.977-0.129,1.52-0.267c8.549-2.171,17.113-4.284,25.664-6.451C379.136,284.639,380.271,284.147,381.958,283.56z"/>
<path class="st6" d="M413.6,242.417c-2.357,0.518-4.659,1.289-7.7,2.148c5.17,4.6,9.508,8.804,14.748,11.936
	c0.955,0.57,1.943,1.125,2.778,1.847c4.221,3.646,8.397,7.344,12.749,11.165c14.544-3.543,29.483-5.213,44.324-9.108
	c-0.682-1.127-1.553-1.773-2.441-2.396c-5.29-3.714-10.643-7.341-15.856-11.159c-3.706-2.714-7.257-5.645-10.811-8.559
	c-1.23-1.009-2.443-1.694-4.007-1.694c-0.236,0-0.48,0.016-0.733,0.048c-6.533,0.838-13.09,1.439-19.521,3.004
	C422.661,240.736,418.097,241.43,413.6,242.417z"/>
<path class="st6" d="M387.712,249.436c-5.249,1.481-10.499,2.956-15.73,4.498c-2.768,0.816-5.648,1.426-8.091,3.171
	c4.288,6.202,10.317,10.041,15.582,14.681c3.578,3.153,7.396,6.033,11.496,9.35c11.967-3.237,24.013-6.495,36.799-9.953
	c-1.239-1.402-1.903-2.404-2.795-3.124c-8.39-6.771-16.8-13.519-25.27-20.19c-0.635-0.5-1.65-0.87-2.499-0.87
	c-0.169,0-0.332,0.015-0.484,0.046C393.681,247.672,390.703,248.592,387.712,249.436z"/>
<path class="st6" d="M285.8,276.429c-1.599,0.372-3.094,1.195-4.959,1.942c0.835,1.036,1.212,1.679,1.746,2.137
	c2.455,2.104,4.94,4.173,7.441,6.222c3.742,3.064,7.556,6.041,11.245,9.167c2.504,2.123,4.845,4.438,7.696,7.07
	c10.154-2.252,20.89-4.96,31.788-8.53c-0.716-0.877-1.083-1.518-1.619-1.948c-1.941-1.558-4.026-2.946-5.901-4.578
	c-6.282-5.468-12.507-11.001-18.726-16.54c-0.74-0.659-1.439-1.052-2.321-1.052c-0.318,0-0.66,0.051-1.036,0.159
	c-4.058,1.167-8.145,2.252-12.259,3.202C294.55,274.683,290.143,275.419,285.8,276.429z"/>
<path class="st6" d="M441.933,347.856c1.855-2.049,1.819-2.661-0.388-4.513c-6.573-5.516-13.203-10.966-19.86-16.381
	c-1.828-1.487-3.823-2.767-5.752-4.129c-0.678-0.479-1.36-0.658-2.078-0.658c-0.574,0-1.172,0.115-1.81,0.282
	c-2.503,0.656-5.079,1.157-7.655,1.393c-0.939,0.086-1.87,0.138-2.785,0.138c-4.07,0-7.835-1.03-10.704-4.677
	c-0.728-0.925-1.6-1.363-2.645-1.363c-0.422,0-0.872,0.071-1.352,0.211c-4.065,1.18-8.186,2.169-12.26,3.32
	c-5.261,1.486-10.447,3.271-15.758,4.538c-8.226,1.962-16.541,3.551-24.799,5.387c-4.129,0.918-8.184,2.178-12.324,3.029
	c-9.386,1.931-18.805,3.697-28.208,5.545c-3.091,0.608-3.616,1.363-3.423,4.6c0.229,3.858,0.502,7.715,0.624,11.577
	c0.362,11.449,0.631,22.901,0.989,34.35c0.292,9.334,0.714,18.665,0.976,28c0.254,9.092,0.479,18.188,0.526,27.283
	c0.037,7.223-0.216,14.448-0.336,21.671c-0.087,5.219-0.385,10.447-0.197,15.657c0.23,6.347,0.764,12.69,1.387,19.013
	c0.268,2.715-0.372,5.199-2.188,6.853c-2.213,2.017-2.355,4.433-2.916,7.52c4.498-0.449,8.445-0.82,12.386-1.242
	c9.657-1.035,19.307-2.145,28.97-3.126c8.666-0.88,17.348-1.595,26.015-2.457c2.597-0.258,3.68-1.741,3.555-4.327
	c-0.192-3.959-0.367-7.919-0.519-11.88c-0.524-13.687-0.919-27.38-1.593-41.059c-0.435-8.834-1.356-17.644-1.901-26.474
	c-0.353-5.719-0.37-11.457-0.633-17.182c-0.264-5.719-0.69-11.429-0.969-17.147c-0.535-10.937-1.042-21.876-1.499-32.817
	c-0.099-2.359-0.078-4.746,0.195-7.084c0.085-0.728,1.084-1.666,1.848-1.895c0.07-0.021,0.146-0.031,0.228-0.031
	c0.607,0,1.498,0.536,1.929,1.045c0.686,0.81,1.028,1.912,1.498,2.852c0.368,0,0.664,0.042,0.914,0.042
	c0.143,0,0.271-0.014,0.388-0.057c2.531-0.93,3.915-1.4,4.921-1.4c1.67,0,2.302,1.294,5.414,3.933
	c0.284,0.241,0.569,0.491,0.802,0.778c4.996,6.15,11.763,9.208,19.339,10.206c6.395,0.842,12.899,0.873,19.357,1.212
	c0.47,0.025,0.935,0.037,1.397,0.037c7.313,0,13.573-3.06,18.919-7.831C434.289,356.731,438.02,352.18,441.933,347.856z"/>
<path class="st6" d="M424.523,316.081c2.64,2.398,5.207,4.881,7.92,7.192c2.546,2.169,5.246,4.156,7.869,6.234
	c3.232,2.561,6.455,5.135,9.979,7.941c1.508-3.053,2.923-5.915,4.429-8.965c-3.333-3.723-6.677-6.508-10.948-8.627
	c-5.33-2.645-11.129-5.048-14.646-10.449c-0.266-0.409-1.066-0.787-1.605-0.787c-0.093,0-0.178,0.011-0.251,0.035
	c-1.234,0.407-3.148,0.989-3.345,1.836C423.514,312.255,422.687,314.413,424.523,316.081z"/>
<path class="st6" d="M404.56,314.973c0.834,0.117,1.612,0.18,2.349,0.18c2.476,0,4.494-0.721,6.642-2.594
	c-0.776-0.184-1.488-0.267-2.154-0.267C408.814,312.293,406.908,313.537,404.56,314.973z"/>
<path class="st6" d="M336.599,521.118c-11.288,0.874-22.594,1.379-33.824,3.088c-9.469,1.441-19.048,2.17-28.585,3.145
	c-10.414,1.064-20.84,2.005-31.253,3.083c-6.812,0.705-13.613,1.529-20.411,2.358c-3.762,0.459-7.638,0.357-10.815,1.687
	c0.471,6.06,1.142,11.734,1.285,17.42c0.122,4.84-0.362,9.695-0.582,14.544c-0.496,10.933,0.287,21.876-0.717,32.826
	c-0.966,10.528-1.238,21.124-1.658,31.696c-0.365,9.194-0.52,18.396-0.751,27.595c-0.153,6.095-0.26,12.191-0.418,18.286
	c-0.311,12.043-1.58,24.065-0.497,36.137c0.487,5.428,0.649,10.888,0.87,16.337c0.109,2.682,0.019,5.372,0.019,8.234
	c1.044,1.008,2.304,1.357,3.729,1.357c0.528,0,1.078-0.048,1.649-0.128c1.371-0.192,2.789-0.35,4.185-0.35
	c0.836,0,1.663,0.057,2.468,0.196c0.927,0.161,1.817,0.255,2.696,0.255c1.06,0,2.102-0.138,3.17-0.462
	c2.098-0.638,4.198-0.937,6.33-0.937c1.432,0,2.878,0.135,4.349,0.392c1.419,0.248,2.836,0.352,4.261,0.352
	c3.409,0,6.865-0.592,10.502-1.215c0.15-2.74,0.29-5.314,0.431-7.887c0.034-0.615,0.013-1.24,0.116-1.843
	c0.502-2.927,1.197-5.83,1.531-8.774c0.909-8.03,1.628-16.081,2.502-24.116c0.902-8.29,1.869-16.573,2.86-24.852
	c0.946-7.907,1.814-15.828,2.989-23.702c1.045-7.002,2.662-13.92,3.672-20.926c1.396-9.681,2.26-19.44,3.731-29.109
	c1.197-7.865,2.782-15.683,4.519-23.449c0.817-3.655,3.296-5.639,6.488-5.64c1.119,0,2.324,0.243,3.578,0.744
	c0.848,5.186-1.509,10.07-2.223,15.378c3.807,0.578,4.059,3.513,4.505,6.397c1.405,9.082,2.706,18.185,4.356,27.223
	c1.339,7.333,2.43,14.681,3.051,22.106c0.238,2.844,0.464,5.699,0.925,8.512c1.348,8.219,2.811,16.42,4.231,24.627
	c0.804,4.647,1.424,9.336,2.465,13.929c1.287,5.677,3.056,11.244,4.371,16.916c1.089,4.695,1.793,9.479,2.718,14.214
	c1.093,5.597,2.198,11.193,3.39,16.769c0.33,1.543,0.988,3.016,1.514,4.575c1.633-0.119,2.97-0.162,4.294-0.322
	c4.302-0.517,8.719-0.529,12.71-2.546c2.125-1.074,4.344-1.399,6.573-1.399c1.479,0,2.963,0.143,4.427,0.306
	c0.469,0.052,0.907,0.078,1.315,0.078c1.117,0,2.017-0.191,2.747-0.548c0-3.866,0.004-7.294-0.006-10.721
	c-0.001-0.372-0.089-0.742-0.125-1.115c-0.616-6.29-1.413-12.57-1.785-18.874c-0.263-4.455,0.107-8.945,0.094-13.419
	c-0.021-7.091-0.286-14.185-0.145-21.271c0.11-5.574,0.79-11.135,1.013-16.709c0.299-7.464,0.47-14.934,0.574-22.404
	c0.155-11.093,0.23-22.187,0.289-33.281c0.069-12.948-0.002-25.897,0.155-38.843c0.101-8.34,0.626-16.674,0.711-25.014
	c0.039-3.795,0.552-7.689-0.868-11.721C343.011,520.58,339.807,520.87,336.599,521.118z M237.564,551.227
	c-2.803,6.672-7.442,12.253-10.681,18.648c-0.219,0.432-0.54,0.839-0.893,1.173c-1.221,1.156-2.638,1.779-3.823,1.779
	c-0.595,0-1.132-0.157-1.555-0.482c-1.187-0.911-1.227-2.619,0.265-5.115c2.918-4.881,5.996-9.666,8.97-14.514
	c0.647-1.055,1.263-2.161,1.672-3.322c0.808-2.294,2.153-3.624,4.515-3.624c0.44,0,0.915,0.046,1.429,0.141
	C238.604,547.763,238.38,549.286,237.564,551.227z M331.678,558.067c-0.691,0-1.443-0.218-2.194-0.692
	c-1.389-0.876-2.557-2.368-3.37-3.834c-1.552-2.797-2.719-5.805-4.156-8.67c-1.326-2.644-1.003-3.674,1.784-4.856
	c1.079-0.458,1.852-0.696,2.724-0.696c0.987,0,2.103,0.305,3.938,0.94c0.481,3.375,0.76,6.506,3.124,9.145
	c1.009,1.126,1.218,3.228,1.266,4.901C334.861,556.599,333.471,558.067,331.678,558.067z"/>
<path class="st6" d="M150.221,217.419c0.56,0,1.282-0.179,2.26-0.495c8.528-2.756,17.005-5.679,25.588-8.249
	c5.598-1.676,11.349-2.842,17.027-4.252c8.577-2.129,17.155-4.253,25.724-6.414c7.477-1.886,14.954-3.775,22.408-5.747
	c14.794-3.915,29.57-7.898,44.358-11.835c13.467-3.586,26.942-7.146,40.412-10.722c12.011-3.189,23.958-6.577,35.913-11.877
	c-1.167-3.621-2.234-7.301-3.54-10.894c-1.954-5.376-4.286-10.623-6.08-16.049c-2.698-8.158-5.061-16.427-7.586-24.643
	c-0.657-2.136-1.387-4.25-2.084-6.374c-4.413-13.463-8.851-26.918-13.23-40.391c-2.499-7.687-4.886-15.41-7.369-23.102
	c-0.341-1.057-0.993-2.011-1.422-3.045c-0.425-1.026-1.103-1.568-2.066-1.568c-0.185,0-0.38,0.02-0.586,0.06
	c-4.391,0.861-8.811,1.608-13.151,2.681c-3.245,0.803-6.351,2.151-9.572,3.064c-6.081,1.724-12.354,2.893-18.267,5.059
	c-7.51,2.752-15.257,4.288-23.019,5.908c-6.082,1.269-12.162,2.557-18.22,3.935c-8.961,2.039-17.92,4.092-26.846,6.28
	c-7.482,1.835-14.883,4.006-22.378,5.784c-7.878,1.869-15.815,3.496-23.747,5.131c-3.411,0.703-7.074,0.63-10.271,1.838
	c-6.579,2.488-13.507,3.451-20.2,5.379c-4.636,1.335-9.255,2.731-13.903,4.024c-1.418,0.395-2.191,1.07-1.988,2.622
	c0.355,2.708,0.523,5.451,1.059,8.121c0.855,4.262,2.046,8.457,2.911,12.717c0.938,4.622,1.566,9.308,2.528,13.924
	c0.479,2.299,1.57,4.466,2.098,6.759c1.898,8.25,3.603,16.544,5.518,24.79c1.351,5.819,3.035,11.562,4.359,17.387
	c0.882,3.879,0.852,8.041,2.204,11.718c1.808,4.915,1.981,9.986,2.782,15.004c0.117,0.734,0.166,1.491,0.382,2.195
	c1.892,6.148,3.837,12.28,5.719,18.431C148.572,216.607,149.03,217.419,150.221,217.419z M274.56,71.899
	c0.506-0.693,1.112-1.343,1.778-1.884c1.246-1.013,2.235-1.503,3.2-1.503c0.8,0,1.583,0.336,2.482,0.988
	c2.375,1.722,3.73,4.555,2.86,6.628c-0.39,0.929-1.314,1.853-2.229,2.289c-1.305,0.622-2.825,0.794-3.52,0.971
	c-0.577,0-0.845,0.017-0.99,0.017c-0.083,0-0.126-0.006-0.163-0.023c-1.624-0.778-3.776-1.172-4.727-2.455
	C272.064,75.324,273.452,73.415,274.56,71.899z M195.151,149.859c0.075-0.012,0.155-0.018,0.238-0.018
	c1.612,0,4.696,2.219,4.856,4.193c0.418,5.139,3.823,8.246,7.234,11.249c3.289,2.895,7.422,3.532,11.55,3.532
	c0.638,0,1.277-0.015,1.912-0.04c6.088-0.234,12.225-0.638,18.206-1.717c4.067-0.734,7.918-2.715,11.83-4.23
	c0.765-0.296,1.368-1.011,2.44-1.836c-3.046-3.294-5.849-6.574-8.913-9.588c-7.55-7.427-15.171-14.784-22.88-22.045
	c-1.662-1.566-2.513-3.217-1.762-5.266c0.912-2.487,2.352-4.731,5.276-5.266c5.623-1.029,11.353-1.543,16.677-3.917
	c1.291-0.576,2.823-0.611,4.866-1.019c-2.796-5.473-5.128-10.428-7.805-15.188c-4.505-8.012-9.266-15.881-13.839-23.856
	c-1.23-2.145-2.257-4.421-3.194-6.712c-0.287-0.702-0.297-1.958,0.14-2.436c1.577-1.725,3.234-3.482,5.181-4.727
	c0.352-0.225,0.704-0.322,1.048-0.322c1.072,0,2.061,0.944,2.729,1.886c0.856,1.207,1.466,2.598,2.108,3.945
	c3.686,7.743,7.812,15.235,12.274,22.565c2.713,4.457,4.892,9.237,7.401,13.822c1.546,2.827,3.191,5.607,4.939,8.313
	c0.65,1.006,1.675,1.793,2.611,2.584c1.735,1.466,2.563,3.676,1.847,5.631c-0.744,2.031-2.159,3.315-4.438,3.424
	c-4.106,0.196-8.237,0.189-12.31,0.67c-2.806,0.332-5.583,1.194-8.276,2.104c-1.927,0.651-2.074,1.869-0.771,3.453
	c0.157,0.192,0.354,0.351,0.53,0.528c7.716,7.759,15.419,15.531,23.158,23.267c1.319,1.318,2.778,2.498,4.192,3.72
	c3.001,2.594,3.018,5.867-0.173,8.014c-6.927,4.661-14.015,9.223-22.087,11.5c-5.783,1.631-11.751,2.74-17.824,2.74
	c-0.947,0-1.896-0.027-2.849-0.083c-3.096-0.182-6.246-0.059-9.278-0.597c-7.707-1.369-13.837-5.523-18.37-11.804
	c-1.399-1.938-1.946-4.515-2.757-6.843c-0.322-0.924-0.272-1.972-0.442-2.954C189.747,152.604,191.229,150.501,195.151,149.859z
	 M165.575,101.041c0.419-2.693,2.082-4.52,4.234-5.88c0.416-0.263,0.928-0.381,1.487-0.382c2.056,0,4.75,1.607,5.655,3.585
	c1.078,2.358,0.082,5.359-2.287,6.278c-1.608,0.623-3.359,0.879-4.413,1.142C166.336,105.753,165.078,104.233,165.575,101.041z"/>
<path class="st6" d="M63.403,369.665c3.317-7.491,6.61-14.997,10.156-22.381c1.521-3.168,3.221-6.175,7.422-6.175
	c0.353,0,0.722,0.021,1.112,0.065c0.229,0.026,0.459,0.038,0.691,0.038c3.748,0,7.759-3.296,8.588-6.861
	c0.417-1.793,0.159-4.033-0.579-5.729c-0.701-1.61-4.429-2.771-6.94-2.771c-0.54,0-1.023,0.054-1.408,0.168
	c-2.099,0.622-3.806,1.643-5.014,3.591c-1.864,3.006-4.982,4.019-8.245,4.512c-0.242,0.036-0.473,0.054-0.693,0.054
	c-1.804,0-2.855-1.203-2.951-3.209c-0.029-0.616,0.183-1.245,0.139-1.858c-0.135-1.874-1.123-3.018-2.445-3.018
	c-0.59,0-1.246,0.227-1.924,0.719c-1.536,1.115-2.841,2.805-3.723,4.511c-2.017,3.901-3.152,8.099-3.361,12.541
	c-0.16,3.405-0.5,3.673-4.006,4.63c-0.597,0.163-1.158,0.453-1.741,0.671c-0.376,0.14-0.718,0.208-1.024,0.208
	c-0.911,0-1.516-0.599-1.803-1.694c-0.218-0.831-0.346-1.716-0.332-2.573c0.101-5.935,1.203-11.613,4.529-16.672
	c1.508-2.294,1.484-4.324,0.155-6.924c-1.97-3.852-5.162-6.62-7.669-9.971c-1.534-2.051-4.029-2.898-6.62-2.965
	c-0.037-0.001-0.074-0.001-0.111-0.001c-0.78,0-1.712,0.209-2.274,0.673c-1.987,1.642-2.606,7.838-1.032,10.058
	c1.938,2.733,3.975,5.397,6.005,8.062c1.236,1.623,1.337,4.554,0.131,5.832c-1.606,1.701-3.692,2.561-5.785,2.561
	c-1.91,0-3.826-0.716-5.386-2.162c-0.457-0.424-0.847-0.942-1.358-1.282c-2.366-1.571-4.643-3.351-7.19-4.551
	c-0.523-0.247-0.983-0.365-1.381-0.365c-1.095,0-1.724,0.897-1.93,2.504c-0.395,3.098,0.186,5.998,2.514,8.244
	c3.394,3.274,6.854,6.481,10.345,9.653c2.611,2.373,1.911,6.667-1.377,7.803c-1.405,0.486-2.758,0.801-4.108,0.801
	c-1.562,0-3.119-0.422-4.748-1.491c-1.146-0.752-2.24-1.102-3.214-1.102c-2.315,0-3.955,1.974-4.024,5.202
	c-0.008,0.374-0.001,0.748-0.001,1.122c0.011,0,0.022,0,0.033,0c0,0.872-0.072,1.752,0.013,2.616c0.293,2.976,2.86,6.38,5.585,6.838
	c2.143,0.36,4.28,0.753,6.466,0.753c1.129,0,2.272-0.105,3.435-0.373c1-0.231,2.039-0.301,3.094-0.301
	c1.421,0,2.87,0.128,4.285,0.166c1.836,0.049,3.692,0.423,5.511,0.423c0.384,0,0.766-0.017,1.146-0.056
	c0.927-0.097,1.842-0.144,2.749-0.144c3.065,0,6.03,0.535,9.018,1.468c2.214,0.691,4.616,0.902,6.951,1.042
	c0.105,0.006,0.208,0.009,0.31,0.009C61.252,372.575,62.578,371.529,63.403,369.665z"/>
<path class="st6" d="M200.546,525.682c27.32-3.217,54.816-5.503,81.904-8.458c0.618-3.005,1.113-5.035,1.439-7.092
	c0.426-2.685,1.045-5.394,1.012-8.086c-0.145-11.833-0.584-23.662-0.734-35.494c-0.077-6.106,0.384-12.218,0.324-18.324
	c-0.086-8.843-0.411-17.684-0.659-26.525c-0.223-7.97-0.412-15.943-0.745-23.909c-0.224-5.352-0.88-10.69-0.974-16.041
	c-0.151-8.593,0.081-17.193-0.005-25.788c-0.041-4.053,0.117-8.161-1.102-12.556c-1.985,0.333-3.783,0.693-5.597,0.928
	c-2.522,0.327-5.035,1.167-7.564,1.167c-1.472,0-2.949-0.284-4.436-1.12c-0.401-0.225-0.808-0.332-1.207-0.332
	c-0.778,0-1.528,0.404-2.159,1.119c-0.475,0.539-1.067,0.974-1.49,1.353c-6.068-1.035-5.938-1.197-10.402-4.787
	c-4.933-3.967-10.142-7.591-15.221-11.377c-5.272-3.93-10.619-7.766-15.772-11.846c-4.492-3.557-8.702-7.469-13.149-11.084
	c-2.495-2.029-5.32-3.651-7.82-5.673c-6.184-5-12.124-10.314-18.465-15.101c-1.545-1.166-3.573-2.004-5.605-2.004
	c-0.953,0-1.907,0.184-2.813,0.605c-8.457,3.932-17.739,5.942-25.676,11.06c-0.307,0.198-0.68,0.305-1.032,0.422
	c-4.946,1.635-4.958,1.635-4.452,6.666c0.112,1.113,0.325,2.217,0.519,3.32c0.474,2.69,1.326,5.37,1.377,8.066
	c0.124,6.469,0.182,12.969-0.312,19.412c-0.468,6.098-2.423,11.758-7.974,15.356c-2.387,1.547-4.896,2.91-7.244,4.512
	c-3.964,2.705-8.221,4.27-13.034,4.27c-0.193,0-0.385-0.003-0.58-0.008c-1.673-0.043-3.346-0.057-5.015-0.057
	c-2.645,0-5.279,0.033-7.878,0.033c-0.519,1.306-0.876,2.233-1.255,3.152c-3.076,7.467-6.148,14.937-9.244,22.396
	c-0.572,1.378-1.349,2.676-1.857,4.075c-1.002,2.758-0.865,3.342,1.53,5.008c2.028,1.411,4.155,2.709,6.344,3.856
	c6.827,3.578,14.079,5.347,21.682,5.347c0.911,0,1.826-0.025,2.747-0.076c3.368-0.185,6.726-0.932,10.082-0.932
	c0.087,0,0.173,0,0.26,0.002c0.11,0.001,0.22,0.002,0.33,0.002c5.743,0,11.213-1.745,16.32-3.62
	c7.251-2.662,14.413-6.245,19.069-13.1c1.094-1.61,2.383-3.126,3.776-4.487c3.977-3.889,6.797-8.475,9.031-13.547
	c1.397-3.17,3.219-6.181,5.115-9.091c1.098-1.685,3.358-2.649,5.237-2.649c0.482,0,0.939,0.063,1.345,0.194
	c3.757,1.211,4.941,2.785,4.958,6.429c0.021,4.483,0.231,8.97,0.116,13.448c-0.179,6.969-0.693,13.931-0.829,20.901
	c-0.178,9.097,0.135,18.21-0.261,27.294c-0.284,6.504-0.039,12.952,0.462,19.407c0.887,11.432,1.964,22.849,2.821,34.283
	c0.316,4.218,0.092,8.475,0.365,12.697c0.628,9.689,1.366,19.372,2.162,29.049C198.513,520.779,198.742,523.289,200.546,525.682z
	 M270.506,422.519c-0.201,0.372-0.387,1.275-0.926,1.608c-1.765,1.09-3.576,2.31-5.538,2.793c-0.098,0.024-0.203,0.036-0.311,0.036
	c-0.974,0-2.319-0.91-3.138-1.686c-1.085-1.029-0.847-2.423-0.05-3.766c1.404-2.365,3.169-3.638,5.276-3.638
	c0.233,0,0.47,0.016,0.712,0.047C268.585,418.18,270.633,420.366,270.506,422.519z M261.573,381.701
	c1.041-0.591,2.253-0.928,3.426-1.23c0.37-0.095,0.733-0.148,1.077-0.148c0.999,0,1.843,0.447,2.257,1.619
	c0.51,1.444,0.685,3.013-0.82,3.998c-1.271,0.831-2.712,1.404-4.333,2.22c-1.391-0.905-3.129-1.414-3.506-2.429
	C259.118,384.233,260.059,382.561,261.573,381.701z M260.011,460.25c1.33-2.094,3.037-3.09,5.006-3.09
	c0.535,0,1.089,0.073,1.66,0.218c1.711,0.434,2.434,1.589,2.076,3.32c-0.604,2.92-2.723,4.372-7.118,4.372c-0.013,0-0.027,0-0.04,0
	c-0.444-0.356-1.702-0.912-2.126-1.846C259.119,462.455,259.492,461.068,260.011,460.25z"/>
<path class="st6" d="M72.496,372.857c-2.372,6.664-2.052,6.779,3.737,10.968c0.092,0.067,0.231,0.07,1.155,0.332
	c4.196-9.386,8.366-18.715,12.604-28.195c-2.402-1.648-4.507-3.092-6.773-4.646c-1.386,2.445-2.698,4.52-3.776,6.71
	C77.033,362.926,74.319,367.736,72.496,372.857z"/>
<path class="st6" d="M234.425,771.402c6.536-4.818,10.798-10.846,13.215-18.385c0.436-1.361,0.448-2.858,0.623-4.064
	c-5.479-0.113-10.596-0.275-15.713-0.299c-0.049,0-0.099,0-0.149,0c-2.16,0-4.325,0.223-6.481,0.414
	c-6.035,0.535-12.06,1.4-18.101,1.526c-2.387,0.05-4.395,0.36-6.3,1.606c-6.95,4.548-13.923,9.062-20.799,13.719
	c-5.137,3.479-9.141,8.145-12.246,13.434c-3.596,6.124-0.082,11.688,5.825,12.81c2.778,0.528,5.562,0.793,8.334,0.793
	c4.778,0,9.521-0.786,14.147-2.366C210.228,785.996,222.888,779.907,234.425,771.402z"/>
<path class="st6" d="M316.553,326.574c7.064-1.508,14.053-3.362,21.101-4.947c4.85-1.091,9.789-1.805,14.61-3.006
	c8.816-2.195,17.561-4.678,26.36-6.943c6.871-1.768,13.785-3.372,20.672-5.079c7.24-1.794,14.434-3.795,21.717-5.392
	c7.902-1.733,15.876-3.146,23.834-4.616c3.183-0.588,6.444-0.781,9.605-1.454c9.604-2.043,19.163-4.294,28.766-6.344
	c7.303-1.559,14.672-2.819,21.964-4.422c7.03-1.546,14.036-3.23,20.986-5.1c5.637-1.517,11.19-3.353,16.748-5.147
	c1.651-0.533,2.037-1.771,1.158-3.214c-0.444-0.729-1.06-1.408-1.737-1.931c-3.923-3.04-7.881-6.035-11.84-9.028
	c-1.19-0.9-2.56-1.603-3.612-2.636c-6.32-6.206-13.38-11.521-20.41-16.848c-3.152-2.388-7.051-3.815-10.109-6.297
	c-5.427-4.404-11.075-8.444-16.94-12.219c-3.549-2.285-6.945-4.815-10.543-7.016c-4.872-2.979-9.882-5.732-14.816-8.611
	c-6.231-3.636-12.455-7.284-18.665-10.956c-8.805-5.206-16.877-11.438-24.984-17.645c-4.53-3.468-9.335-6.723-14.917-8.317
	c-2.136-0.61-3.641-1.724-4.52-3.533c-0.969-1.992-1.592-4.161-2.255-6.288c-0.329-1.055-0.326-2.21-0.62-3.28
	c-3.166-11.53-7.946-22.484-12.01-33.695c-2.88-7.946-5.507-15.985-8.21-23.995c-1.832-5.427-3.467-10.923-5.435-16.299
	c-1.75-4.78-3.977-9.385-5.744-14.16c-3.196-8.637-6.27-17.321-9.271-26.029c-2.026-5.877-3.807-11.839-5.758-17.743
	c-1.627-4.924-3.34-9.82-5.021-14.744c-3.826,0.106-7.275,0.28-10.508,1.88c-0.753,0.372-1.667,0.433-2.515,0.598
	c-6.954,1.351-13.936,2.577-20.86,4.065c-9.127,1.962-18.229,4.051-27.307,6.229c-9.555,2.293-19.07,4.748-28.6,7.145
	c-5.297,1.333-10.57,2.771-15.888,4.015c-4.84,1.133-9.741,2.005-14.589,3.107c-8.971,2.039-17.521,5.575-26.668,7.092
	c-9.574,1.588-19.051,3.772-28.547,5.806c-6.797,1.456-13.565,3.052-20.327,4.666c-4.6,1.099-9.134,2.486-13.754,3.48
	c-7.419,1.596-14.914,2.866-22.113,5.351c-3.501,1.208-6.961,2.536-10.693,3.903c0.565,1.637,1.017,2.905,1.442,4.182
	c2.082,6.254,4.346,12.457,6.156,18.789c0.941,3.294,1.621,6.786-0.104,10.23c-0.437,0.873-0.276,2.214-0.01,3.242
	c1.834,7.093,4.434,13.998,5.157,21.362c0.047,0.482,0.283,0.943,0.42,1.417c1.49,5.126,3.268,10.19,4.386,15.396
	c1.117,5.201,3.02,10.23,3.135,15.689c0.054,2.532,1.449,5.008,1.964,7.564c0.956,4.752,1.549,9.579,2.585,14.311
	c2.209,10.093,4.448,20.184,6.974,30.201c2.124,8.422,3.449,17.078,6.975,25.119c0.276,0.629,0.364,1.453,0.232,2.126
	c-0.406,2.078,0.592,3.294,2.247,4.254c0.859,0.498,1.689,1.065,2.462,1.688c6.958,5.611,13.855,11.299,20.857,16.853
	c9.069,7.194,18.186,14.327,27.342,21.409c7.574,5.859,15.335,11.478,22.819,17.448c5.003,3.991,9.437,8.653,14.74,12.33
	c6.229,4.319,12.223,8.975,18.349,13.443c5.627,4.104,11.314,8.125,16.926,12.249c0.93,0.683,1.796,0.993,2.807,0.993
	c0.415,0,0.854-0.052,1.332-0.152c7.904-1.651,15.852-3.09,23.774-4.653C297.029,330.54,306.812,328.654,316.553,326.574z
	 M151.466,223.855c-1.131,0-2.279-0.101-3.451-0.335c-0.11-0.022-0.223-0.032-0.337-0.032c-0.687,0-1.444,0.349-2.158,0.502
	c-1.09,0.234-2.167,0.615-3.267,0.692c-0.183,0.013-0.363,0.019-0.537,0.019c-2.425,0-3.954-1.24-4.014-3.779
	c-0.214-9.088-3.529-17.54-5.139-26.336c-1.479-8.074-3.107-16.123-4.814-24.152c-0.697-3.276-1.906-6.442-2.651-9.71
	c-1.992-8.74-3.781-17.527-5.799-26.261c-1.594-6.901-3.595-13.711-5.079-20.634c-1.954-9.116-3.598-18.299-5.335-27.461
	c-0.514-2.712-0.979-5.379-3.279-7.316c-0.497-0.419-0.576-1.334-0.925-2.216c2.53-1.952,5.187-2.238,7.9-2.764
	c4.868-0.945,9.599-2.579,14.423-3.78c4.223-1.051,8.5-1.884,12.744-2.854c1.433-0.327,2.917-0.602,4.24-1.205
	c4.495-2.048,9.406-2.261,14.107-3.381c2.388-0.569,4.764-1.193,7.166-1.69c2.665-0.551,5.37-0.912,8.028-1.492
	c3.021-0.659,6.012-1.453,9.009-2.215c3.239-0.823,6.467-1.691,9.707-2.514c3.005-0.763,6.016-1.497,9.028-2.233
	c3.739-0.915,7.477-1.835,11.222-2.724c9.556-2.267,19.119-4.503,28.672-6.78c10.405-2.48,20.825-4.902,31.195-7.519
	c7.716-1.947,15.341-4.252,23.049-6.233c5.764-1.482,11.585-2.756,17.402-4.023c2.101-0.457,4.206-0.948,6.295-0.948
	c1.903,0,3.792,0.407,5.654,1.616c0.219,0.142,0.506,0.194,0.825,0.194c0.637,0,1.406-0.207,2.041-0.315
	c0.657-0.112,1.212-0.176,1.689-0.176c1.538,0,2.262,0.669,2.939,2.581c1.741,4.918,3.366,9.878,5.001,14.833
	c2.572,7.796,5.216,15.57,7.637,23.413c2.016,6.53,3.724,13.154,5.64,19.716c0.484,1.658,1.337,3.207,1.856,4.858
	c3.471,11.031,6.838,22.095,10.372,33.106c1.252,3.902,2.896,7.678,4.324,11.525c0.905,2.439,1.68,4.928,2.624,7.352
	c1.397,3.588,2.87,7.148,4.351,10.702c2.323,5.575,0.18,10.576-5.472,12.43c-2.005,0.658-4.146,0.895-6.158,1.536
	c-3.07,0.978-6.031,2.315-9.125,3.192c-9.662,2.739-19.339,5.429-29.057,7.959c-11.183,2.911-22.43,5.576-33.619,8.466
	c-3.613,0.933-7.088,2.4-10.7,3.342c-6.969,1.819-14.006,3.378-20.984,5.163c-5.049,1.291-10.053,2.759-15.069,4.174
	c-2.624,0.74-5.215,1.596-7.848,2.3c-5.646,1.509-11.436,2.593-16.924,4.537c-4.493,1.592-9.068,2.523-13.683,3.449
	c-6.092,1.222-12.261,2.143-18.265,3.703c-6.722,1.747-13.234,4.296-19.951,6.063C161.842,221.549,156.855,223.855,151.466,223.855z
	 M271.604,321.94c-0.506,0.389-1.038,0.549-1.567,0.549c-1.311,0-2.6-0.983-3.42-1.905c-6.369-7.16-14.619-11.986-21.95-17.935
	c-6.471-5.252-13.416-9.916-20.053-14.969c-8.61-6.554-17.101-13.264-25.687-19.85c-3.054-2.343-6.294-4.444-9.347-6.788
	c-6.121-4.698-12.171-9.486-18.252-14.235c-0.196-0.153-0.41-0.284-0.617-0.423c-2.018-1.345-4.892-2.239-3.932-5.518
	c1.314-4.487,2.354-6.753,6.72-7.449c9.334-1.487,18.635-3.187,27.945-4.83c1.958-0.346,3.88-0.895,5.839-1.226
	c5.758-0.975,11.506-2.047,17.296-2.787c8.883-1.136,17.822-1.854,26.69-3.089c5.149-0.717,10.237-1.969,15.295-3.215
	c5.054-1.245,10.017-2.858,15.056-4.169c4.093-1.065,8.263-1.83,12.357-2.89c6.622-1.715,13.22-3.524,19.804-5.377
	c2.501-0.704,4.903-1.762,7.409-2.441c4.074-1.103,8.197-2.023,12.296-3.034c0.229-0.056,0.427-0.234,0.853-0.478
	c0.375-2.837,0.549-3.964,1.684-3.964c0.657,0,1.637,0.378,3.164,1.019c0.923,0.388,1.813,0.531,2.677,0.531
	c1.471,0,2.871-0.413,4.243-0.735c4.346-1.019,8.548-2.634,12.843-3.885c5.839-1.699,11.678-3.419,17.585-4.853
	c2.109-0.512,3.119-1.194,3.521-3.489c0.497-2.834,2.087-4.331,4.157-4.331c1.069,0,2.267,0.399,3.509,1.219
	c6.622,4.371,13.38,8.517,19.726,13.328c6.823,5.173,14.067,9.788,21.085,14.708c4.336,3.04,8.703,6.055,12.86,9.33
	c7.875,6.202,15.54,12.67,23.425,18.859c4.984,3.911,10.136,7.622,15.357,11.212c2.331,1.602,5.051,2.627,7.527,4.033
	c0.956,0.543,1.767,1.373,2.569,2.149c0.972,0.94,1.263,1.972,0.684,3.369c-0.557,1.343-0.893,2.837-1.011,4.29
	c-0.262,3.235-0.807,4.353-3.615,5.214c-7.129,2.186-14.283,4.27-21.816,4.636c-1.709,0.083-3.389,0.703-5.087,1.057
	c-11.305,2.361-22.646,4.56-33.901,7.138c-6.037,1.383-11.906,3.482-17.886,5.133c-5.277,1.457-10.611,2.704-15.901,4.114
	c-2.62,0.698-5.181,1.618-7.798,2.328c-4.319,1.172-8.669,2.228-12.993,3.382c-6.958,1.857-13.901,3.771-20.86,5.628
	c-4.328,1.155-8.671,2.255-13.01,3.368c-6.374,1.635-12.733,3.338-19.133,4.866c-5.312,1.268-10.711,2.18-16.001,3.527
	c-3.461,0.881-6.767,2.353-10.196,3.384c-4.514,1.357-9.027,2.83-13.647,3.674C275.833,320.533,273.665,320.356,271.604,321.94z"/>
<path class="st6" d="M227.226,237.983c0.318,0.509,0.851,0.919,1.357,1.27c3.971,2.76,7.998,5.441,11.921,8.266
	c1.034,0.744,2.08,1.048,3.184,1.048c0.459,0,0.928-0.052,1.411-0.148c8.782-1.732,17.564-3.462,26.337-5.238
	c1.12-0.227,2.186-0.719,3.551-1.181c-0.648-0.871-0.857-1.384-1.239-1.63c-4.649-2.999-8.58-6.725-11.863-11.188
	c-0.444-0.604-1.574-1.026-2.415-1.026c-0.059,0-0.116,0.002-0.171,0.006c-2.97,0.223-5.916,0.736-8.878,1.09
	c-5.802,0.693-11.608,1.361-17.414,2.025c-3.436,0.393-6.876,0.759-10.314,1.136c-0.099,0.266-0.197,0.531-0.296,0.797
	C224.505,234.335,226.001,236.021,227.226,237.983z"/>
<path class="st6" d="M220.939,253.278c3.097-0.714,6.165-1.552,9.957-2.514c-1.448-1.319-2.387-2.221-3.376-3.065
	c-1.417-1.207-2.87-2.373-4.31-3.553c-3.441-2.82-6.915-5.603-10.311-8.477c-0.871-0.737-1.73-1.045-2.695-1.045
	c-0.45,0-0.923,0.067-1.43,0.189c-4.105,0.988-8.236,1.885-12.384,2.673c-4.134,0.785-8.306,1.367-12.451,2.101
	c-0.934,0.165-1.822,0.586-3.036,0.992c0.433,0.886,0.507,1.314,0.761,1.516c6.205,4.931,12.396,9.881,18.696,14.689
	c0.452,0.345,1.169,0.476,1.886,0.476c0.434,0,0.868-0.048,1.244-0.125C209.324,255.929,215.135,254.616,220.939,253.278z"/>
<path class="st6" d="M250.598,278.179c4.745-1.278,9.486-2.572,14.53-3.941c-0.481-0.804-0.626-1.324-0.968-1.572
	c-2.823-2.047-5.667-4.065-8.535-6.049c-3.253-2.25-6.627-4.336-9.781-6.715c-2.219-1.674-4.432-2.932-6.994-2.932
	c-0.935,0-1.917,0.167-2.963,0.544c-1.855,0.667-3.855,0.943-5.799,1.349c-6.564,1.37-13.207,2.437-19.959,5.416
	c1.408,1.269,2.435,2.341,3.606,3.224c6.062,4.572,12.172,9.082,18.24,13.646c0.962,0.723,1.933,1.026,2.967,1.026
	c0.627,0,1.277-0.111,1.962-0.307C241.448,280.568,246.033,279.408,250.598,278.179z"/>
<path class="st6" d="M300.75,305.395c-0.984-2.24-1.598-3.921-3.686-4.601c-0.896-0.292-1.677-1.056-2.405-1.722
	c-6.034-5.522-12.217-10.899-17.981-16.691c-2.194-2.205-4.545-2.913-7.154-2.913c-0.537,0-1.084,0.03-1.644,0.083
	c-1.837,0.174-3.638,0.756-5.446,1.188c-6.389,1.529-12.78,3.054-19.157,4.632c-0.988,0.245-1.91,0.759-2.998,1.204
	c0.453,0.76,0.565,1.159,0.829,1.359c5.222,3.986,10.454,7.961,15.702,11.914c3.144,2.369,6.352,4.655,9.462,7.067
	c1.171,0.908,2.209,2.01,3.203,3.116c1.405,1.563,3.034,2.213,4.827,2.213c0.749,0,1.527-0.113,2.329-0.321
	c2.287-0.592,4.551-1.274,6.832-1.89C289.065,308.523,294.671,307.026,300.75,305.395z"/>
<path class="st6" d="M313.758,214.46c-0.131,0.369-0.262,0.738-0.393,1.106c1.49,1.419,2.773,3.21,4.513,4.182
	c3.964,2.213,7.574,4.665,10.227,8.475c0.827,1.188,1.937,2.107,3.543,2.107c0.389,0,0.807-0.054,1.258-0.171
	c8.539-2.22,17.138-4.209,25.706-6.315c0.789-0.194,1.524-0.604,2.892-1.161c-1.707-1.379-2.975-2.509-4.346-3.493
	c-4.736-3.398-10.032-6.067-13.804-10.71c-0.594-0.731-1.276-0.959-2.006-0.959c-0.563,0-1.154,0.136-1.757,0.281
	c-6.278,1.517-12.577,2.949-18.845,4.506C318.385,212.895,316.086,213.735,313.758,214.46z"/>
<path class="st6" d="M298.369,238.19c8.249-1.258,16.316-3.257,25.317-6.018c-1.868-1.375-2.988-2.288-4.193-3.068
	c-2.295-1.486-4.785-2.71-6.929-4.382c-2.9-2.263-5.974-4.465-7.011-8.574c-2.782,0.955-5.075,1.916-7.457,2.522
	c-4.566,1.161-9.19,2.093-13.778,3.175c-3.257,0.768-6.517,1.543-9.729,2.473c-1.833,0.531-3.575,1.381-5.946,2.32
	c2.214,1.914,3.894,3.548,5.756,4.938c3.365,2.512,6.892,4.807,10.24,7.339c0.962,0.728,1.875,1.046,2.906,1.046
	c0.395,0,0.808-0.047,1.248-0.135C291.966,239.186,295.168,238.678,298.369,238.19z"/>
<path d="M552.891,266.286c-0.744-1.104-1.489-2.153-2.411-2.86c-3.909-2.998-7.928-5.993-11.815-8.889
	c-1.717-1.279-3.434-2.558-5.147-3.842c-1.032-0.773-2.065-1.545-3.099-2.316c-3.297-2.462-6.707-5.009-10.021-7.57
	c-1.557-1.204-3.104-2.465-4.599-3.685c-2.003-1.635-4.074-3.325-6.177-4.878c-1.655-1.222-3.441-2.354-5.169-3.448
	c-1.341-0.85-2.729-1.729-4.063-2.654c-0.962-0.667-1.858-1.421-2.724-2.15c-0.843-0.71-1.64-1.38-2.495-1.981
	c-2.301-1.616-4.693-3.196-7.006-4.724c-0.958-0.633-1.917-1.266-2.872-1.904c-1.506-1.005-3.014-2.008-4.522-3.01
	c-3.296-2.191-6.704-4.457-10.038-6.716c-2.458-1.665-5.171-3.02-7.795-4.329c-1.386-0.692-2.82-1.407-4.21-2.165
	c-5.226-2.848-10.253-6.221-15.114-9.482l-1.646-1.103c-6.388-4.275-12.806-8.729-19.013-13.036l-3.423-2.374
	c-0.562-0.389-1.05-0.844-1.523-1.283c-0.524-0.487-1.019-0.947-1.557-1.268c-3.533-2.104-7.418-4.323-12.228-6.983
	c-0.409-0.226-0.9-0.379-1.421-0.541c-0.551-0.172-1.122-0.349-1.674-0.636c-0.801-0.416-1.935-1.084-2.535-2.084
	c-0.651-1.087-0.982-2.306-1.302-3.484l-0.067-0.247c-0.413-1.514-0.792-3.061-1.159-4.557c-0.705-2.876-1.433-5.85-2.424-8.652
	c-1.578-4.461-3.319-8.956-5.002-13.302c-1.496-3.864-3.044-7.859-4.476-11.826c-1.427-3.953-2.742-8.012-4.014-11.938
	c-0.915-2.824-1.861-5.744-2.839-8.595c-2.522-7.35-5.097-14.6-8.188-23.226c-1.217-3.396-2.48-6.842-3.702-10.174
	c-1.386-3.781-2.819-7.69-4.194-11.55l-1.311-3.674c-2.288-6.403-4.654-13.024-6.767-19.613c-1.333-4.158-2.54-8.424-3.708-12.55
	c-0.854-3.019-1.737-6.141-2.662-9.19c-0.606-1.997-1.443-3.99-3.449-5.037C341.002,1.542,339.204,1,337.499,1
	c-1.434,0-2.781,0.401-4.119,1.225c-0.697,0.429-1.505,0.577-2.217,0.708c-0.203,0.037-0.405,0.074-0.602,0.117
	c-3.414,0.755-6.829,1.506-10.244,2.256c-3.381,0.743-6.762,1.486-10.142,2.234c-1.621,0.359-3.24,0.73-4.858,1.101
	c-2.931,0.672-5.962,1.367-8.965,1.974c-3.686,0.745-7.439,1.465-11.069,2.161c-5.008,0.96-10.186,1.953-15.253,3.025
	c-7.26,1.535-14.36,3.225-22.788,5.289c-5.001,1.225-10.67,2.614-16.137,4.352c-5.855,1.862-11.161,3.451-16.811,4.05
	c-1.456,0.154-2.938,0.541-4.195,0.899c-2.424,0.691-4.883,1.432-7.261,2.148c-4.784,1.442-9.731,2.933-14.683,4.101
	c-5.18,1.222-10.49,2.235-15.624,3.215c-3.768,0.719-7.663,1.463-11.469,2.281c-7.076,1.522-14.253,3.166-21.193,4.756
	c-3.852,0.882-7.704,1.765-11.559,2.632c-1.422,0.32-2.87,0.604-4.272,0.879c-2.43,0.477-4.943,0.97-7.336,1.655
	c-7.052,2.018-14.194,4.179-21.102,6.269c-2.842,0.86-5.685,1.72-8.529,2.573c-1.849,0.554-2.223,0.92-2.281,1.089
	c-0.059,0.172,0.01,0.698,1.141,2.294l0.189,0.262c0.64,0.881,1.712,2.355,0.486,3.93c-1.473,1.891-0.869,3.449,0.237,5.834
	c0.123,0.265,0.246,0.531,0.365,0.798c0.25,0.562,0.535,1.137,0.81,1.694c1.253,2.534,2.674,5.406,1.65,8.871
	c-0.057,0.194,0.09,0.691,0.197,1.055c0.062,0.21,0.123,0.418,0.17,0.619c0.808,3.439,1.622,6.876,2.435,10.313
	c1.279,5.405,2.558,10.81,3.818,16.219c2.671,11.47,5.48,23.62,8.588,37.145c2.636,11.473,5.026,21.963,7.308,32.07
	c0.818,3.625,1.619,7.316,2.393,10.886c1.587,7.319,3.229,14.888,5.105,22.256c0.453,1.779,0.919,3.554,1.386,5.329
	c2.035,7.744,4.139,15.751,5.014,23.93c0.034,0.316,0.129,0.65,0.208,0.905c0.751,2.426,2.109,2.426,2.556,2.426
	c0.13,0,0.266-0.008,0.405-0.025c0.252-0.03,0.501-0.046,0.742-0.046c2.125,0,3.45,1.177,4.619,2.215l0.814,0.724
	c2.656,2.361,5.402,4.803,8.203,7.06c4.227,3.406,8.556,6.832,12.743,10.145c2.869,2.27,5.737,4.54,8.597,6.822
	c0.548,0.437,1.001,0.944,1.527,1.531c0.259,0.289,0.542,0.606,0.87,0.951l1.015,1.067l-1.366,0.55
	c-0.923,0.372-1.804,0.73-2.656,1.077c-1.822,0.742-3.544,1.443-5.271,2.102c-0.833,0.318-1.664,0.647-2.495,0.975
	c-2.483,0.982-5.051,1.999-7.682,2.714c-1.971,0.536-3.907,1.308-5.779,2.055c-1.474,0.588-2.998,1.197-4.544,1.692
	c-2.736,0.878-4.962,1.959-7.005,3.403c-2.437,1.723-3.457,3.943-3.117,6.788c0.083,0.697,0.161,1.396,0.24,2.095
	c0.262,2.342,0.532,4.764,1.006,7.08c1.335,6.523,1.763,13.449,1.388,22.458c-0.291,6.984-3.492,12.077-10.074,16.027
	c-1.904,1.143-3.909,1.408-5.848,1.664c-0.809,0.107-1.573,0.208-2.332,0.37c-1.758,0.374-3.52,0.564-5.238,0.564
	c-3.975,0-7.801-0.971-11.698-2.969c-0.9-0.461-1.854-1.072-2.105-2.105c-0.249-1.024,0.309-1.99,0.887-2.799
	c1.381-1.932,2.754-3.986,4.082-6.105c2.335-3.726,2.064-7.739,0.939-12.619c-0.196-0.849-0.363-1.03-0.394-1.058
	c-0.584-0.408-1.17-0.839-1.756-1.27c-1.743-1.282-3.546-2.607-5.463-3.404c-2.157-0.897-4.291-1.352-6.341-1.352
	c-2.369,0-4.663,0.609-6.82,1.81c-0.975,0.543-1.951,0.807-2.983,0.807c-0.987,0-2.006-0.238-3.207-0.748
	c-1.83-0.778-3.814-1.252-5.737-1.372c-0.191-0.012-0.382-0.018-0.575-0.018c-1.311,0-2.808,0.259-4.576,0.793
	c-0.51,0.154-0.963,0.229-1.386,0.229c-1.797,0-2.677-1.413-3.259-2.348c-3.764-6.045-7.266-10.135-11.354-13.259
	c-2.065-1.578-5.401-2.558-8.705-2.558c-2.546,0-4.78,0.587-6.292,1.653c-3.782,2.667-8.23,6.503-9.055,12.541
	c-0.419,3.061-1.89,4.474-4.919,4.724c-3.954,0.327-6.909,2.596-10.129,5.904c-0.466,0.479-0.853,1.389-1.036,2.435
	c-1.064,6.081-0.211,10.683,2.687,14.482c0.537,0.704,0.861,1.506,1.148,2.215c0.11,0.271,0.215,0.532,0.327,0.769l0.188,0.396
	l-0.164,0.406c-0.046,0.115-0.077,0.204-0.1,0.274c-0.068,0.199-0.153,0.448-0.392,0.666c-0.392,0.359-0.803,0.7-1.157,0.993
	c-4.762,3.93-7.63,7.453-7.217,12.866c0.048,0.635,0.084,1.275,0.12,1.915c0.184,3.312,0.359,6.441,2.277,9.038
	c3.405,4.609,7.935,6.946,13.465,6.946c0.28,0,0.563-0.006,0.848-0.018c0.66-0.028,1.319-0.059,1.978-0.089
	c2.566-0.118,5.22-0.241,7.844-0.241c1.892,0,3.598,0.063,5.215,0.192c0.581,0.046,1.201,0.069,1.896,0.069
	c0.998,0,2.029-0.047,3.026-0.094c1.019-0.047,2.072-0.096,3.115-0.096c0.884,0,1.672,0.035,2.407,0.107
	c3.377,0.33,6.655,0.905,10.126,1.514c1.472,0.258,2.96,0.519,4.472,0.763l0.846,0.136l-0.005,0.857
	c-0.008,1.439,0.435,2.948,3.789,3.236c1.209,0.104,2.79,0.668,3.595,1.696c4.019,5.13,8.266,9.154,12.983,12.299
	c0.495,0.33,0.987,0.662,1.479,0.993c4.251,2.863,8.267,5.568,13.218,6.87c0.848,0.223,1.695,0.452,2.543,0.68
	c5.361,1.445,10.905,2.94,16.483,2.94c0.392,0,0.786-0.007,1.181-0.022c10.879-0.414,19.095-1.622,26.643-3.917
	c4.617-1.404,8.972-3.112,13.315-5.223c4.998-2.43,9.906-6.045,15.005-11.051c3.311-3.252,6.162-7.143,8.919-10.906
	c1.336-1.824,2.718-3.71,4.143-5.513c0.429-0.542,1.01-0.838,1.625-1.15c0.263-0.133,0.535-0.271,0.803-0.434l1.25-0.757l0.253,1.44
	c0.064,0.364,0.134,0.673,0.195,0.945c0.128,0.566,0.238,1.055,0.199,1.585c-0.214,2.915-0.445,5.828-0.676,8.742
	c-0.257,3.239-0.522,6.587-0.759,9.881c-0.218,3.029-0.454,6.549-0.504,9.982c-0.038,2.621-0.024,5.291-0.011,7.874
	c0.015,2.925,0.03,5.951-0.029,8.931c-0.038,1.911-0.173,3.843-0.305,5.712c-0.203,2.887-0.413,5.873-0.252,8.758
	c0.366,6.566,0.969,13.238,1.553,19.69c0.286,3.168,0.583,6.443,0.847,9.668l0.227,2.734c0.384,4.608,0.782,9.373,1.006,14.076
	c0.167,3.497,0.3,7.051,0.428,10.489c0.365,9.758,0.742,19.849,1.941,29.706c0.239,1.968,0.166,4.444-2.55,6.142
	c-0.553,0.346-1.137,1.495-1.135,2.236c0.007,3.3,2.343,5.604,5.681,5.604c0.311,0,0.631-0.021,0.95-0.062
	c0.576-0.074,1.157-0.227,1.771-0.39c0.596-0.157,1.211-0.32,1.854-0.415c1.295-0.193,2.592-0.321,3.846-0.445
	c0.52-0.051,1.035-0.102,1.541-0.157l0.716-0.077l0.3,0.654c0.116,0.253,0.22,0.453,0.307,0.621
	c0.188,0.362,0.349,0.675,0.403,1.065c0.15,1.093,0.244,2.199,0.335,3.268l0.011,0.131c0.712,8.359,0.282,16.805-0.133,24.974
	c-0.104,2.054-0.209,4.108-0.296,6.163c-0.147,3.461-0.162,6.996-0.176,10.415c-0.015,3.567-0.03,7.256-0.195,10.888
	c-0.485,10.691-1.209,21.381-1.91,31.72c-0.805,11.889-1.613,25.923-1.499,39.874c0.013,1.571-0.103,3.148-0.215,4.673
	c-0.076,1.038-0.155,2.111-0.191,3.157l-0.118,3.427c-0.219,6.33-0.444,12.876-0.565,19.312c-0.037,1.946-0.18,3.904-0.318,5.797
	c-0.276,3.768-0.561,7.664,0.008,11.518c0.609,4.128,0.626,8.68,0.053,14.324c-0.592,5.833-0.238,10.573,1.114,14.917l0.232,0.745
	l-0.667,0.406c-1.757,1.07-3.526,2.123-5.295,3.175c-3.909,2.326-7.952,4.731-11.779,7.294c-6.064,4.061-12.977,8.928-18.267,15.31
	c-3.345,4.035-5.649,7.901-7.043,11.819c-1.583,4.451-0.907,8.622,1.957,12.062c4.814,5.783,10.668,9.119,17.401,9.915
	c1.309,0.155,2.735,0.23,4.359,0.23c1.82,0,3.689-0.094,5.497-0.185c0.491-0.025,0.982-0.049,1.471-0.073
	c6.28-0.294,11.266-1.289,15.692-3.13c8.215-3.416,15.595-6.542,22.725-10.204c10.385-5.333,17.659-10.463,23.586-16.633
	c4.389-4.569,7.028-9.988,8.556-17.571c0.287-1.427-0.065-2.612-1.047-3.524c-0.489-0.454-0.851-0.993-1.202-1.514
	c-0.148-0.219-0.298-0.444-0.462-0.666l-0.81-1.096l1.288-0.444c4.334-1.494,7.154-4.966,7.184-8.846
	c0.038-4.855,0.122-10.495,0.633-16.002c0.302-3.255,0.785-6.535,1.251-9.707c0.403-2.744,0.821-5.581,1.116-8.373
	c0.393-3.717,0.704-7.513,1.004-11.183c0.378-4.617,0.768-9.39,1.329-14.074c1.517-12.675,3.226-25.377,5.082-37.753
	c0.932-6.216,2.107-12.492,3.245-18.561c0.47-2.507,0.939-5.015,1.394-7.524c0.09-0.497,0.25-0.948,0.405-1.385
	c0.063-0.178,0.126-0.355,0.183-0.534l0.959-3.033l0.949,3.036c1.423,4.553,2.472,9.251,3.303,14.786
	c0.556,3.703,1.047,7.475,1.522,11.122c0.426,3.269,0.866,6.649,1.35,9.963c0.565,3.867,1.242,7.791,1.895,11.585
	c0.241,1.398,0.482,2.795,0.718,4.194c0.373,2.205,0.732,4.413,1.092,6.621c0.863,5.299,1.755,10.779,2.82,16.121
	c0.963,4.83,2.111,9.716,3.222,14.441c0.625,2.661,1.272,5.413,1.88,8.128c0.606,2.708,1.122,5.474,1.62,8.149l0.122,0.656
	c0.357,1.914,0.699,3.831,1.041,5.748c0.63,3.531,1.281,7.182,2.021,10.745c0.465,2.241,1.078,4.506,1.671,6.696
	c0.36,1.332,0.733,2.708,1.071,4.075c0.313,1.262,1.046,1.876,2.242,1.876c0.09,0,0.181-0.003,0.274-0.01
	c3.622-0.266,7.368-0.54,11.005-1.174c3.378-0.588,6.793-1.381,10.095-2.148c1.185-0.275,2.37-0.551,3.556-0.818
	c1.479-0.333,3.05-0.495,4.805-0.495c2.049,0,4.102,0.221,6.086,0.435c1.013,0.109,2.061,0.222,3.086,0.302
	c1.067,0.084,2.202,0.166,3.312,0.166c1.455,0,2.656-0.145,3.672-0.443c0.957-0.281,1.846-0.418,2.718-0.418
	c1.491,0,2.899,0.397,4.43,1.251c1.957,1.09,3.921,2.168,5.885,3.245c3.218,1.765,6.546,3.59,9.789,5.447
	c6.714,3.845,10.991,8.25,13.459,13.862c0.207,0.471,0.5,0.93,0.81,1.415c0.294,0.461,0.599,0.937,0.852,1.461
	c0.383,0.792,0.819,1.591,1.241,2.365c1.496,2.742,3.043,5.577,2.92,9.138c-0.049,1.407-0.122,3.532-2.06,4.442
	c-3.092,1.451-5.942,2.581-8.713,3.454c-1.241,0.391-2.519,0.581-3.907,0.581c-2.593,0-5.108-0.676-7.54-1.33
	c-0.527-0.142-1.052-0.283-1.576-0.417c-3.006-0.767-6.15-1.878-9.895-3.497c-2.232-0.964-4.375-2.169-6.449-3.334
	c-0.613-0.345-1.227-0.689-1.842-1.028c-0.825-0.453-1.655-0.899-2.485-1.344c-2.429-1.303-4.94-2.65-7.288-4.201
	c-6.112-4.038-12.536-8.454-19.641-13.501c-2.696-1.915-5.518-4.031-7.88-6.522c-1.804-1.902-3.869-2.907-5.97-2.907
	c-1.723,0-3.444,0.651-5.122,1.936c-0.036,1.988,0.735,3.769,2.198,5.053c2.943,2.583,6.207,4.986,9.036,7.035
	c1.376,0.997,2.833,1.954,4.242,2.879c2.186,1.435,4.446,2.919,6.509,4.617c7.445,6.125,14.708,10.878,22.204,14.532
	c1.453,0.708,2.91,1.458,4.318,2.184c4.825,2.485,9.814,5.054,15.259,6.222c3.893,0.835,8.527,1.695,13.376,1.747l0.375,0.002
	c6.266,0,12.095-1.645,17.819-5.03c3.586-2.12,5.322-5.532,5.161-10.142c-0.142-4.083-1.359-7.919-3.617-11.401l-0.507-0.779
	c-1.469-2.255-2.987-4.586-4.086-7.096c-2.238-5.111-6.075-8.88-9.169-11.592c-7.368-6.461-16.302-11.259-27.313-14.67
	c-2.085-0.646-4.447-1.378-6.348-3.499l-0.662-0.739l0.733-0.668c2.396-2.183,2.092-4.735,1.401-8.102
	c-0.057-0.276-0.116-0.552-0.176-0.828c-0.204-0.949-0.416-1.93-0.52-2.932l-0.25-2.377c-0.393-3.716-0.8-7.558-1.045-11.357
	c-0.325-5.044-0.512-10.079-0.556-14.964c-0.015-1.689,0.1-3.388,0.211-5.031c0.111-1.643,0.226-3.342,0.205-4.991
	c-0.031-2.445-0.15-4.941-0.266-7.354c-0.171-3.58-0.348-7.282-0.245-10.936c0.141-4.981,0.467-10.031,0.783-14.915
	c0.268-4.157,0.546-8.455,0.707-12.68c0.152-3.981,0.126-8.047,0.101-11.979c-0.017-2.551-0.034-5.189-0.002-7.787
	c0.034-2.825,0.118-5.692,0.2-8.465c0.087-2.964,0.177-6.029,0.206-9.04c0.055-5.751,0.084-11.599,0.113-17.255
	c0.039-7.826,0.08-15.919,0.189-23.88c0.035-2.561,0.208-5.151,0.376-7.656c0.191-2.85,0.388-5.798,0.377-8.679
	c-0.017-4.534-0.25-9.154-0.475-13.622c-0.107-2.115-0.217-4.302-0.303-6.456c-0.031-0.782,0.145-1.362,0.538-1.771
	c0.229-0.239,0.642-0.523,1.305-0.523c0.419,0,0.894,0.114,1.451,0.349l0.733,0.308l-0.135,0.784
	c-0.045,0.262-0.076,0.532-0.108,0.804c-0.079,0.679-0.169,1.449-0.468,2.167c-0.337,0.809-0.268,1.197,0.791,1.764
	c0.834,0.446,1.396,0.628,1.941,0.628c0.347,0,0.695-0.078,1.065-0.239c2.586-1.127,3.853-1.697,4.379-2.322
	c0.432-0.514,0.463-1.231,0.49-3.231c0.004-0.302,0.008-0.625,0.015-0.974c0.008-0.432,0.216-0.754,0.354-0.966
	c0.027-0.042,0.056-0.084,0.078-0.127l0.166-0.325l0.336-0.142c0.596-0.251,1.196-0.496,1.797-0.742
	c1.321-0.539,2.688-1.097,3.982-1.718c1.562-0.749,1.592-0.825,1.067-2.685c-0.927-3.289-3.115-4.949-6.688-5.073l-1.114-0.039
	l0.159-1.103c0.075-0.523,0.185-1.005,0.291-1.471c0.184-0.808,0.343-1.506,0.223-2.024c-1.024-4.429-0.909-8.927-0.797-13.277
	c0.102-3.964,0.207-8.063-0.577-12.001c-0.352-1.768-0.283-3.585-0.215-5.342c0.038-0.98,0.076-1.994,0.037-2.96
	c-0.132-3.235-0.314-6.527-0.491-9.71c-0.082-1.471-0.163-2.943-0.241-4.414c-0.046-0.88-0.086-1.76-0.126-2.64
	c-0.077-1.701-0.156-3.459-0.283-5.178c-0.186-2.521-0.393-5.041-0.601-7.561c-0.349-4.232-0.709-8.608-0.956-12.924
	c-0.308-5.383-0.52-10.857-0.725-16.15c-0.104-2.691-0.208-5.383-0.325-8.074c-0.05-1.148-0.096-2.297-0.143-3.446
	c-0.147-3.622-0.299-7.367-0.551-11.036c-0.207-3.011-0.477-6.074-0.738-9.036c-0.232-2.628-0.472-5.344-0.667-8.023
	c-0.105-1.437-0.079-2.848-0.052-4.341c0.012-0.676,0.025-1.364,0.025-2.069v-1.471l1.368,0.542c0.193,0.076,0.36,0.135,0.507,0.186
	c0.326,0.114,0.635,0.222,0.928,0.42l0.285,0.191c0.657,0.44,1.337,0.894,1.945,1.466c5.586,5.261,12.697,8.244,22.38,9.387
	c3.553,0.419,7.21,0.611,10.747,0.796c1.245,0.065,2.49,0.13,3.734,0.205c1.313,0.079,2.604,0.119,3.836,0.119
	c9.545,0,17.193-2.318,24.069-7.296c5.697-4.124,10.396-9.321,14.939-14.348l1.205-1.331c1.325-1.461,2.605-2.723,4.852-3.362
	c1.395-0.397,2.38-1.101,2.929-2.094c0.575-1.041,0.644-2.391,0.202-3.904l-0.017-0.059c-0.29-0.991-0.652-2.225-0.096-3.151
	c0.764-1.273,1.417-2.676,2.049-4.033c1.461-3.139,2.972-6.385,6.055-8.729c0.44-0.335,0.864-1.383,0.807-1.699
	c-1.336-3.19,0.708-4.8,2.351-6.094c0.502-0.395,0.957-0.874,1.44-1.381c0.664-0.699,1.352-1.421,2.209-1.968
	c4.485-2.861,6.153-7.748,7.624-12.06c0.275-0.806,0.264-1.478-0.031-1.891c-0.271-0.379-0.824-0.587-1.557-0.587
	c-0.193,0-0.4,0.015-0.613,0.043c-2.715,0.366-4.231,1.425-4.914,3.436c-1.505,4.427-4.669,7.549-7.729,10.568
	c-0.333,0.328-0.665,0.656-0.996,0.986c-0.929,0.927-1.761,1.544-2.802,1.544c-0.916,0-1.737-0.487-2.687-1.219
	c-0.424-0.326-0.838-0.671-1.253-1.015c-0.927-0.77-1.802-1.498-2.768-2.012c-1.617-0.861-3.321-1.652-4.969-2.417
	c-1.445-0.671-2.939-1.364-4.387-2.11c-0.806-0.415-1.45-0.994-2.265-1.726c-0.395-0.355-0.842-0.757-1.364-1.187l-1.354-1.117
	l1.651-0.595c0.53-0.191,0.985-0.369,1.392-0.529c0.823-0.323,1.473-0.578,2.189-0.727c1.865-0.388,3.766-0.727,5.605-1.056
	c0.804-0.144,1.608-0.287,2.411-0.435c0.268-0.049,0.536-0.105,0.804-0.16c0.342-0.07,0.684-0.141,1.028-0.201
	c2.494-0.433,4.989-0.86,7.484-1.286c5.724-0.978,11.642-1.989,17.443-3.075c2.067-0.387,4.159-0.918,6.182-1.431
	c1.771-0.45,3.603-0.914,5.434-1.288c3.015-0.615,6.089-1.177,9.062-1.72c2.797-0.511,5.689-1.039,8.518-1.61
	c1.362-0.275,2.726-0.545,4.089-0.815c5.598-1.109,11.387-2.256,16.98-3.71c6.19-1.608,12.401-3.623,18.406-5.571l2.591-0.839
	c0.788-0.255,3.306-1.253,2.613-3.403c-0.794-2.463-0.426-4.747,1.157-7.188C553.852,269.077,553.828,267.676,552.891,266.286z
	 M65.204,368.066l-0.887,2.004c-1.283,2.897-3.388,3.505-4.928,3.505c-0.121,0-0.245-0.004-0.37-0.011
	c-2.22-0.133-4.79-0.337-7.189-1.086c-3.067-0.957-5.919-1.423-8.721-1.423c-0.877,0-1.767,0.047-2.644,0.139
	c-0.397,0.042-0.806,0.062-1.25,0.062c-1.026,0-2.053-0.112-3.047-0.219c-0.862-0.094-1.677-0.182-2.491-0.204
	c-0.59-0.016-1.185-0.047-1.782-0.078c-0.818-0.043-1.665-0.088-2.476-0.088c-1.142,0-2.054,0.088-2.869,0.276
	c-1.163,0.268-2.36,0.399-3.66,0.399c-2.1,0-4.151-0.347-6.134-0.682l-0.498-0.084c-3.388-0.569-6.1-4.529-6.415-7.726
	c-0.064-0.654-0.048-1.295-0.032-1.916c0.001-0.042,0.002-0.084,0.003-0.126l-0.022-0.672l-0.001-0.349
	c-0.002-0.265-0.003-0.53,0.003-0.794c0.08-3.697,2.099-6.181,5.024-6.181c1.217,0,2.482,0.426,3.762,1.266
	c1.361,0.893,2.734,1.327,4.199,1.327c1.107,0,2.308-0.237,3.781-0.746c1.161-0.401,1.97-1.329,2.22-2.545
	c0.27-1.315-0.174-2.651-1.189-3.572c-3.91-3.553-7.301-6.717-10.366-9.673c-2.347-2.264-3.293-5.322-2.812-9.091
	c0.375-2.939,1.991-3.377,2.922-3.377c0.551,0,1.159,0.155,1.807,0.461c1.957,0.923,3.754,2.169,5.492,3.375
	c0.606,0.421,1.212,0.841,1.825,1.248c0.426,0.283,0.766,0.641,1.065,0.957c0.137,0.145,0.274,0.29,0.419,0.424
	c1.319,1.222,2.991,1.895,4.706,1.895c1.894,0,3.69-0.798,5.057-2.247c0.86-0.911,0.755-3.287-0.199-4.54l-0.314-0.412
	c-1.9-2.494-3.864-5.072-5.712-7.678c-1.87-2.637-1.146-9.46,1.211-11.407c1.013-0.837,2.484-0.902,2.911-0.902l0.138,0.002
	c3.206,0.084,5.833,1.279,7.394,3.366c0.867,1.159,1.848,2.281,2.797,3.365c1.787,2.043,3.635,4.156,4.962,6.75
	c1.534,3,1.472,5.372-0.209,7.929c-2.865,4.358-4.252,9.487-4.365,16.14c-0.012,0.715,0.091,1.511,0.299,2.302
	c0.249,0.948,0.645,0.948,0.836,0.948c0.19,0,0.417-0.049,0.675-0.145c0.199-0.074,0.396-0.158,0.593-0.242
	c0.389-0.165,0.791-0.336,1.234-0.457c3.137-0.856,3.137-0.856,3.271-3.712c0.214-4.553,1.381-8.911,3.471-12.953
	c1.035-2.002,2.464-3.728,4.023-4.861c0.82-0.596,1.689-0.91,2.511-0.91c1.889,0,3.272,1.586,3.443,3.946
	c0.03,0.422-0.026,0.818-0.075,1.167c-0.037,0.263-0.072,0.51-0.062,0.715c0.071,1.497,0.728,2.257,1.952,2.257
	c0.171,0,0.354-0.015,0.544-0.043c2.746-0.414,5.79-1.22,7.544-4.05c1.227-1.98,3-3.258,5.58-4.023
	c0.468-0.139,1.037-0.209,1.692-0.209c2.612,0,6.912,1.201,7.857,3.372c0.85,1.953,1.094,4.388,0.636,6.354
	c-0.947,4.067-5.415,7.634-9.562,7.634c-0.27,0-0.541-0.015-0.803-0.045c-0.345-0.039-0.682-0.059-0.999-0.059
	c-3.546,0-4.995,2.431-6.52,5.608C71.237,354.428,68.17,361.361,65.204,368.066z M78.302,384.565l-0.353,0.789l-0.832-0.235
	c-0.383-0.108-0.627-0.171-0.788-0.213c-0.286-0.073-0.474-0.122-0.681-0.271l-0.236-0.171c-5.903-4.269-6.377-4.866-3.857-11.943
	c1.391-3.908,3.308-7.668,5.162-11.304c0.617-1.21,1.233-2.419,1.832-3.634c0.747-1.518,1.599-2.974,2.501-4.514
	c0.423-0.722,0.858-1.466,1.301-2.247l0.537-0.948l0.898,0.616l4.488,3.079l2.285,1.567l0.688,0.472l-0.34,0.761l-9.146,20.459
	L78.302,384.565z M200.663,526.675l-0.57,0.067l-0.346-0.458c-2.003-2.657-2.23-5.419-2.431-7.855
	c-0.888-10.807-1.596-20.315-2.163-29.066c-0.133-2.053-0.15-4.134-0.167-6.146c-0.018-2.153-0.036-4.379-0.198-6.541
	c-0.46-6.131-0.991-12.362-1.506-18.388c-0.444-5.207-0.904-10.591-1.315-15.892c-0.575-7.404-0.722-13.609-0.464-19.528
	c0.233-5.345,0.219-10.802,0.206-16.079c-0.009-3.667-0.019-7.459,0.054-11.191c0.073-3.708,0.254-7.469,0.43-11.105
	c0.155-3.214,0.315-6.537,0.399-9.801c0.072-2.811,0.014-5.685-0.042-8.464c-0.033-1.623-0.067-3.301-0.075-4.954
	c-0.015-3.229-0.932-4.407-4.265-5.482c-0.301-0.097-0.65-0.146-1.038-0.146c-1.476,0-3.461,0.754-4.399,2.195
	c-1.672,2.566-3.578,5.636-5.038,8.949c-2.509,5.693-5.533,10.227-9.247,13.859c-1.391,1.36-2.619,2.819-3.648,4.334
	c-5.023,7.395-12.703,10.962-19.552,13.477c-4.853,1.781-10.543,3.682-16.665,3.682l-0.342-0.002l-0.249-0.001
	c-1.85,0-3.766,0.243-5.618,0.478c-1.438,0.182-2.926,0.371-4.409,0.453c-0.934,0.051-1.877,0.077-2.802,0.077
	c-7.781,0-15.232-1.837-22.146-5.461c-2.19-1.147-4.36-2.467-6.451-3.921c-2.749-1.913-3.069-2.951-1.899-6.171
	c0.306-0.842,0.698-1.64,1.078-2.41c0.288-0.585,0.56-1.138,0.796-1.706c2.584-6.225,5.151-12.457,7.717-18.689l1.526-3.704
	c0.247-0.6,0.485-1.205,0.766-1.918l0.484-1.223l0.251-0.631h0.679c1.292,0,2.592-0.008,3.898-0.017
	c1.322-0.008,2.649-0.017,3.98-0.017c1.938,0,3.54,0.018,5.04,0.057c0.185,0.005,0.37,0.007,0.554,0.007
	c4.352,0,8.431-1.34,12.47-4.096c1.352-0.923,2.768-1.774,4.137-2.597c1.034-0.622,2.104-1.265,3.126-1.928
	c4.596-2.979,6.985-7.616,7.521-14.593c0.501-6.534,0.428-13.125,0.309-19.316c-0.033-1.732-0.415-3.457-0.82-5.284
	c-0.19-0.858-0.386-1.744-0.542-2.628l-0.089-0.498c-0.168-0.94-0.342-1.913-0.441-2.896c-0.553-5.498-0.266-5.93,5.121-7.711
	l0.148-0.049c0.261-0.085,0.508-0.165,0.668-0.268c5-3.224,10.565-5.253,15.946-7.215c3.274-1.194,6.659-2.428,9.85-3.911
	c0.997-0.464,2.085-0.699,3.235-0.699c2.089,0,4.351,0.804,6.208,2.206c3.985,3.009,7.867,6.27,11.621,9.423
	c2.242,1.883,4.559,3.83,6.87,5.698c1.209,0.978,2.535,1.886,3.816,2.765c1.336,0.915,2.717,1.862,4.006,2.91
	c2.038,1.657,4.055,3.4,6.004,5.085c2.314,2,4.707,4.068,7.135,5.991c3.707,2.935,7.585,5.796,11.335,8.562
	c1.473,1.086,2.946,2.173,4.413,3.267c1.625,1.211,3.264,2.406,4.902,3.601c3.43,2.501,6.977,5.088,10.348,7.798l0.812,0.655
	c3.468,2.804,3.701,2.992,8.669,3.846c0.021-0.018,0.043-0.036,0.064-0.054c0.337-0.282,0.685-0.573,0.97-0.896
	c0.829-0.94,1.862-1.458,2.909-1.458c0.583,0,1.154,0.155,1.697,0.46c1.205,0.677,2.459,0.992,3.946,0.992
	c1.468,0,2.939-0.305,4.496-0.627c0.957-0.198,1.946-0.403,2.939-0.532c1.214-0.158,2.424-0.372,3.706-0.6
	c0.603-0.107,1.219-0.216,1.854-0.323l0.888-0.149l0.241,0.868c1.101,3.969,1.115,7.686,1.129,11.28
	c0.002,0.512,0.004,1.023,0.009,1.533c0.039,3.912,0.013,7.887-0.013,11.73c-0.031,4.608-0.063,9.372,0.019,14.05
	c0.053,2.994,0.288,6.05,0.516,9.006c0.177,2.294,0.36,4.667,0.458,7.011c0.269,6.434,0.447,12.976,0.619,19.303l0.127,4.62
	c0.06,2.159,0.126,4.318,0.191,6.477c0.198,6.575,0.404,13.373,0.469,20.067c0.029,3.024-0.069,6.089-0.164,9.054
	c-0.098,3.042-0.199,6.187-0.16,9.267c0.074,5.865,0.222,11.83,0.365,17.598c0.145,5.864,0.296,11.928,0.369,17.896
	c0.027,2.179-0.352,4.352-0.719,6.455c-0.105,0.601-0.21,1.202-0.305,1.801c-0.222,1.401-0.525,2.807-0.876,4.436
	c-0.176,0.818-0.367,1.706-0.572,2.701l-0.147,0.714l-0.724,0.079c-11.599,1.266-23.481,2.429-34.971,3.553
	C232.195,523.278,216.28,524.836,200.663,526.675z M249.253,749.096c-0.051,0.352-0.087,0.729-0.125,1.121
	c-0.093,0.964-0.199,2.056-0.535,3.105c-2.508,7.823-6.948,14-13.573,18.884c-10.849,7.998-23.252,14.321-37.917,19.328
	c-4.701,1.605-9.569,2.419-14.47,2.419c-2.825,0-5.692-0.273-8.521-0.81c-3.404-0.647-6.081-2.613-7.343-5.394
	c-1.233-2.718-0.935-5.881,0.842-8.905c3.402-5.792,7.624-10.42,12.548-13.755c5.574-3.775,11.303-7.516,16.843-11.134l3.97-2.594
	c2.257-1.477,4.615-1.723,6.826-1.769c4.134-0.086,8.352-0.531,12.43-0.962c1.835-0.194,3.732-0.394,5.603-0.56l0.782-0.07
	c1.89-0.171,3.843-0.348,5.787-0.348l0.153,0c3.631,0.018,7.215,0.102,11.01,0.192c1.548,0.037,3.119,0.074,4.72,0.107l1.131,0.023
	L249.253,749.096z M348.222,529.819c-0.026,0.742-0.051,1.48-0.059,2.215c-0.043,4.261-0.203,8.586-0.359,12.768
	c-0.149,4.016-0.303,8.169-0.352,12.248c-0.097,8.005-0.107,16.148-0.116,24.022c-0.006,4.938-0.012,9.876-0.038,14.814
	c-0.057,10.572-0.131,21.923-0.289,33.29c-0.116,8.347-0.304,15.684-0.575,22.43c-0.1,2.499-0.294,5.027-0.481,7.472
	c-0.232,3.024-0.471,6.151-0.532,9.217c-0.088,4.409-0.016,8.903,0.053,13.249c0.042,2.621,0.085,5.331,0.092,7.999
	c0.005,1.704-0.046,3.431-0.095,5.101c-0.08,2.72-0.162,5.532-0.001,8.262c0.26,4.405,0.737,8.882,1.198,13.213
	c0.2,1.874,0.399,3.748,0.583,5.623c0.012,0.122,0.031,0.243,0.049,0.365c0.038,0.252,0.08,0.538,0.081,0.844
	c0.008,2.632,0.007,5.263,0.006,8.093l0,2.631v0.624l-0.561,0.274c-0.894,0.437-1.937,0.65-3.187,0.65
	c-0.447,0-0.926-0.028-1.426-0.084c-1.303-0.145-2.82-0.3-4.316-0.3c-2.433,0-4.378,0.411-6.122,1.292
	c-3.356,1.696-6.966,2.042-10.457,2.378c-0.863,0.083-1.726,0.166-2.585,0.269c-0.918,0.11-1.847,0.167-2.831,0.227
	c-0.478,0.029-0.978,0.06-1.51,0.099l-0.773,0.056l-0.247-0.734c-0.163-0.485-0.34-0.961-0.515-1.433
	c-0.388-1.046-0.789-2.128-1.029-3.253c-1.234-5.772-2.399-11.691-3.394-16.786c-0.338-1.732-0.651-3.495-0.954-5.2
	c-0.526-2.959-1.069-6.019-1.756-8.98c-0.633-2.732-1.388-5.495-2.118-8.167c-0.78-2.856-1.587-5.809-2.254-8.754
	c-0.732-3.228-1.263-6.54-1.777-9.744c-0.227-1.413-0.454-2.826-0.698-4.236c-0.388-2.242-0.779-4.483-1.17-6.724
	c-1.023-5.867-2.082-11.933-3.062-17.912c-0.444-2.708-0.675-5.477-0.898-8.155l-0.036-0.435c-0.557-6.665-1.551-13.865-3.038-22.01
	c-1.276-6.987-2.36-14.123-3.409-21.023c-0.315-2.076-0.631-4.152-0.952-6.227l-0.065-0.427c-0.453-2.998-0.844-4.715-3.602-5.134
	l-0.972-0.148l0.131-0.974c0.256-1.901,0.714-3.742,1.158-5.523c0.769-3.086,1.497-6.011,1.149-8.992
	c-0.927-0.315-1.823-0.474-2.67-0.474c-2.813,0-4.823,1.771-5.513,4.858c-2.024,9.052-3.456,16.481-4.506,23.381
	c-0.781,5.135-1.402,10.39-2.002,15.473c-0.528,4.47-1.074,9.093-1.728,13.628c-0.523,3.627-1.217,7.281-1.888,10.813
	c-0.629,3.313-1.28,6.738-1.785,10.117c-0.932,6.247-1.684,12.635-2.41,18.814c-0.19,1.62-0.381,3.24-0.575,4.86
	c-1.169,9.766-2.077,17.66-2.859,24.841c-0.392,3.604-0.759,7.274-1.114,10.823c-0.436,4.359-0.887,8.867-1.388,13.297
	c-0.222,1.957-0.602,3.909-0.971,5.797c-0.194,0.995-0.395,2.025-0.568,3.034c-0.06,0.348-0.07,0.731-0.081,1.135
	c-0.005,0.198-0.011,0.396-0.022,0.593l-0.307,5.606l-0.125,2.281l-0.044,0.796l-0.786,0.135c-3.694,0.633-7.178,1.229-10.67,1.229
	c-1.573,0-3.023-0.12-4.434-0.367c-1.431-0.25-2.836-0.377-4.176-0.377c-2.087,0-4.062,0.292-6.039,0.894
	c-1.118,0.34-2.25,0.506-3.461,0.506c-0.881,0-1.819-0.088-2.867-0.27c-0.705-0.122-1.456-0.181-2.297-0.181
	c-1.435,0-2.916,0.182-4.046,0.341c-0.661,0.093-1.245,0.138-1.788,0.138c-1.835,0-3.282-0.536-4.424-1.637l-0.306-0.295v-0.425
	c0-0.907,0.009-1.798,0.018-2.676c0.019-1.907,0.038-3.708-0.036-5.518l-0.101-2.556c-0.176-4.512-0.358-9.177-0.766-13.733
	c-0.776-8.647-0.349-17.379,0.064-25.823c0.167-3.419,0.34-6.955,0.43-10.429c0.082-3.182,0.151-6.363,0.219-9.545
	c0.063-2.913,0.125-5.827,0.199-8.74c0.062-2.451,0.118-4.901,0.174-7.352c0.152-6.639,0.309-13.505,0.578-20.257
	c0.074-1.86,0.143-3.721,0.212-5.582c0.32-8.586,0.651-17.464,1.449-26.166c0.581-6.336,0.559-12.799,0.537-19.048
	c-0.016-4.497-0.031-9.148,0.176-13.732c0.067-1.48,0.16-2.982,0.25-4.435c0.204-3.3,0.415-6.712,0.331-10.039
	c-0.098-3.911-0.445-7.781-0.813-11.878c-0.161-1.801-0.325-3.627-0.47-5.49l-0.056-0.721l0.667-0.279
	c2.444-1.023,5.262-1.248,7.986-1.466c1.019-0.082,2.073-0.166,3.095-0.291c7.263-0.886,13.813-1.675,20.43-2.36
	c5.484-0.568,11.061-1.106,16.455-1.627c4.852-0.468,9.869-0.953,14.799-1.457c2.451-0.251,4.904-0.485,7.358-0.719
	c6.965-0.665,14.168-1.353,21.178-2.419c8.639-1.315,17.449-1.929,25.968-2.523c2.643-0.184,5.287-0.369,7.929-0.573
	c2.192-0.17,4.383-0.359,6.598-0.55c1.024-0.088,2.054-0.177,3.091-0.265l0.771-0.065l0.257,0.729
	C348.444,523.391,348.331,526.659,348.222,529.819z M442.674,348.527c-0.941,1.039-1.871,2.092-2.801,3.145
	c-2.91,3.293-5.918,6.698-9.251,9.672c-6.011,5.365-12.6,8.085-19.584,8.085c-0.479,0-0.966-0.013-1.449-0.038
	c-1.776-0.093-3.588-0.164-5.341-0.233c-4.63-0.182-9.419-0.37-14.094-0.986c-8.471-1.116-15.195-4.671-19.985-10.567
	c-0.181-0.223-0.432-0.441-0.673-0.646c-0.971-0.824-1.707-1.521-2.299-2.08c-1.325-1.254-1.74-1.616-2.469-1.616
	c-0.867,0-2.375,0.53-4.576,1.339c-0.219,0.08-0.452,0.118-0.733,0.118c-0.134,0-0.279-0.009-0.438-0.02
	c-0.142-0.01-0.299-0.021-0.475-0.021h-0.618l-0.276-0.553c-0.147-0.294-0.283-0.603-0.419-0.915
	c-0.288-0.658-0.559-1.28-0.947-1.738c-0.303-0.357-0.909-0.672-1.145-0.691c-0.47,0.164-1.06,0.788-1.104,1.043
	c-0.237,2.027-0.298,4.292-0.189,6.924c0.415,9.938,0.905,20.67,1.499,32.809c0.132,2.706,0.3,5.458,0.463,8.12
	c0.181,2.958,0.367,6.016,0.506,9.03c0.112,2.433,0.181,4.904,0.247,7.293c0.09,3.241,0.183,6.593,0.386,9.874
	c0.237,3.841,0.551,7.748,0.855,11.526c0.394,4.898,0.801,9.963,1.047,14.961c0.461,9.353,0.797,18.865,1.122,28.064
	c0.153,4.336,0.306,8.671,0.472,13.006c0.146,3.821,0.316,7.704,0.518,11.87c0.197,4.053-2.314,5.158-4.455,5.371
	c-4.089,0.407-8.248,0.787-12.27,1.154c-4.507,0.412-9.167,0.838-13.743,1.303c-6.082,0.618-12.264,1.298-18.241,1.956
	c-3.574,0.393-7.148,0.787-10.723,1.17c-2.681,0.287-5.37,0.551-8.216,0.83c-1.348,0.132-2.734,0.268-4.177,0.412l-1.321,0.132
	l0.237-1.306c0.069-0.382,0.132-0.753,0.193-1.114c0.451-2.666,0.841-4.969,3.033-6.966c1.865-1.7,2.044-4.21,1.866-6.016
	c-0.516-5.231-1.14-12.127-1.391-19.075c-0.133-3.667-0.026-7.387,0.078-10.985c0.046-1.575,0.091-3.15,0.117-4.725
	c0.038-2.267,0.089-4.534,0.14-6.801c0.109-4.869,0.222-9.904,0.197-14.848c-0.044-8.621-0.242-17.133-0.525-27.26
	c-0.144-5.149-0.341-10.385-0.531-15.449c-0.154-4.112-0.314-8.363-0.445-12.548c-0.175-5.598-0.329-11.198-0.483-16.797
	c-0.158-5.754-0.322-11.703-0.507-17.553c-0.094-2.98-0.282-6.015-0.464-8.95c-0.054-0.866-0.107-1.733-0.159-2.599
	c-0.225-3.776,0.645-4.936,4.229-5.641c3.146-0.619,6.295-1.228,9.443-1.837c6.153-1.191,12.516-2.423,18.756-3.706
	c2.226-0.458,4.477-1.048,6.655-1.619c1.845-0.484,3.753-0.984,5.654-1.407c3.293-0.732,6.647-1.436,9.89-2.117
	c4.894-1.027,9.955-2.089,14.894-3.267c3.335-0.796,6.691-1.819,9.937-2.808c1.89-0.576,3.845-1.172,5.782-1.719
	c1.875-0.53,3.787-1.032,5.637-1.518c2.176-0.572,4.426-1.164,6.617-1.799c0.572-0.166,1.121-0.25,1.631-0.25
	c1.366,0,2.52,0.587,3.431,1.745c2.337,2.971,5.396,4.296,9.918,4.296c0.829,0,1.711-0.044,2.694-0.134
	c2.334-0.214,4.855-0.673,7.493-1.365c0.83-0.218,1.466-0.315,2.064-0.315c0.985,0,1.853,0.275,2.655,0.841
	c0.544,0.384,1.094,0.762,1.643,1.14c1.388,0.954,2.823,1.94,4.163,3.03c7.449,6.059,13.949,11.421,19.872,16.391
	c1.26,1.057,2.003,1.87,2.073,2.897C444.337,346.59,443.554,347.554,442.674,348.527z M401.656,315.577l2.382-1.457l0.318-0.195
	c2.304-1.413,4.293-2.633,7.04-2.633c0.771,0,1.551,0.096,2.385,0.294l1.893,0.448l-1.466,1.278
	c-2.253,1.964-4.504,2.841-7.299,2.841c-0.758,0-1.572-0.062-2.488-0.19L401.656,315.577z M442.558,318.148
	c0.556,0.271,1.109,0.541,1.658,0.813c4.133,2.051,7.602,4.782,11.249,8.856l0.451,0.504l-0.299,0.606l-1.539,3.114l-2.89,5.85
	l-0.549,1.112l-0.97-0.772l-3.132-2.495c-2.347-1.87-4.594-3.661-6.846-5.445c-0.876-0.694-1.76-1.378-2.645-2.062
	c-1.741-1.346-3.541-2.738-5.252-4.195c-1.834-1.563-3.624-3.223-5.355-4.828c-0.86-0.798-1.721-1.596-2.589-2.385
	c-2.075-1.886-1.479-4.248-1.043-5.973c0.05-0.198,0.099-0.393,0.143-0.582c0.314-1.35,2.167-1.957,3.802-2.492l0.205-0.067
	c0.172-0.057,0.362-0.086,0.564-0.086c0.786,0,1.944,0.475,2.443,1.241C432.969,313.476,437.844,315.851,442.558,318.148z
	 M545.37,273.24c-0.22,0.593-0.772,1.393-2.146,1.837l-1.898,0.614c-4.856,1.572-9.878,3.197-14.897,4.548
	c-6.658,1.791-13.537,3.463-21.031,5.111c-3.913,0.86-7.908,1.634-11.771,2.382c-3.349,0.648-6.812,1.319-10.2,2.042
	c-4.719,1.007-9.509,2.081-14.141,3.12c-4.789,1.074-9.741,2.184-14.625,3.223c-1.776,0.378-3.592,0.609-5.348,0.833
	c-1.414,0.18-2.875,0.366-4.283,0.626l-3.627,0.667c-6.632,1.217-13.489,2.476-20.174,3.942c-4.799,1.053-9.649,2.304-14.339,3.514
	c-2.407,0.621-4.896,1.263-7.352,1.872c-2.65,0.657-5.304,1.298-7.958,1.94c-4.171,1.008-8.483,2.051-12.705,3.137
	c-3.791,0.976-7.637,2.009-11.357,3.009c-4.911,1.32-9.989,2.685-15.011,3.935c-2.746,0.684-5.563,1.218-8.288,1.734
	c-2.088,0.396-4.246,0.805-6.344,1.276c-3.078,0.692-6.201,1.449-9.221,2.182c-3.887,0.943-7.907,1.917-11.891,2.768
	c-7.974,1.703-16.106,3.301-23.97,4.846l-5.343,1.052c-2.936,0.579-5.875,1.142-8.814,1.704c-4.907,0.939-9.981,1.909-14.949,2.947
	c-0.558,0.116-1.061,0.173-1.537,0.173c-1.217,0-2.297-0.377-3.399-1.187c-3.092-2.271-6.261-4.551-9.325-6.755
	c-2.537-1.825-5.074-3.65-7.598-5.491c-2.199-1.604-4.415-3.257-6.558-4.856c-3.829-2.857-7.788-5.811-11.771-8.573
	c-3.227-2.237-6.161-4.855-8.998-7.387c-1.873-1.672-3.811-3.4-5.796-4.983c-4.442-3.543-9.065-7.025-13.535-10.392
	c-3.048-2.296-6.201-4.67-9.273-7.047c-9.423-7.29-18.626-14.495-27.352-21.417c-4.457-3.536-8.944-7.183-13.282-10.711
	c-2.524-2.052-5.049-4.105-7.581-6.147c-0.724-0.584-1.51-1.123-2.336-1.602c-0.836-0.485-3.381-1.961-2.727-5.311
	c0.093-0.477,0.026-1.093-0.167-1.533c-2.624-5.984-4.06-12.36-5.449-18.526c-0.5-2.22-1.017-4.516-1.58-6.75
	c-2.54-10.071-4.751-20.047-6.981-30.232c-0.575-2.627-1.02-5.315-1.451-7.914c-0.349-2.11-0.711-4.292-1.138-6.414
	c-0.193-0.958-0.519-1.908-0.864-2.912c-0.533-1.55-1.083-3.153-1.119-4.828c-0.078-3.68-1.023-7.271-1.938-10.743
	c-0.408-1.55-0.831-3.154-1.175-4.757c-0.77-3.583-1.88-7.178-2.954-10.655c-0.472-1.528-0.96-3.108-1.414-4.672
	c-0.041-0.141-0.093-0.281-0.144-0.421c-0.126-0.345-0.268-0.735-0.311-1.177c-0.504-5.135-1.975-10.17-3.397-15.039
	c-0.589-2.015-1.197-4.098-1.733-6.17c-0.294-1.135-0.517-2.74,0.084-3.941c1.618-3.229,0.867-6.601,0.037-9.507
	c-1.284-4.494-2.828-9.008-4.321-13.374c-0.612-1.79-1.225-3.58-1.822-5.375c-0.282-0.846-0.575-1.689-0.906-2.639l-0.532-1.533
	l-0.32-0.928l0.922-0.338c1.18-0.432,2.333-0.86,3.468-1.282c2.488-0.924,4.839-1.797,7.243-2.627
	c5.742-1.982,11.739-3.213,17.538-4.404c1.565-0.321,3.13-0.643,4.691-0.979c2.637-0.567,5.303-1.279,7.88-1.968
	c1.912-0.511,3.889-1.039,5.852-1.508c6.14-1.466,13.283-3.158,20.349-4.672c1.894-0.406,3.787-0.817,5.68-1.229
	c7.485-1.628,15.225-3.31,22.913-4.586c5.197-0.862,10.313-2.418,15.26-3.923c3.69-1.122,7.505-2.283,11.35-3.157
	c2.282-0.519,4.608-0.993,6.857-1.452c2.54-0.518,5.166-1.054,7.726-1.653c3.43-0.803,6.905-1.703,10.265-2.573
	c1.868-0.484,3.736-0.968,5.606-1.438c2.512-0.632,5.023-1.268,7.534-1.904c6.9-1.747,14.035-3.555,21.077-5.244
	c9.667-2.319,18.607-4.359,27.33-6.234c4.706-1.012,9.511-1.916,14.158-2.791c2.242-0.422,4.483-0.844,6.722-1.279
	c0.226-0.044,0.456-0.081,0.687-0.118c0.591-0.094,1.149-0.184,1.575-0.394c3.331-1.648,6.772-1.868,10.924-1.983l0.736-0.021
	l0.238,0.697c0.516,1.51,1.034,3.018,1.552,4.525c1.151,3.347,2.342,6.809,3.471,10.228c0.799,2.417,1.581,4.881,2.337,7.264
	c1.092,3.442,2.222,7.001,3.417,10.466c3.292,9.552,6.323,18.06,9.264,26.008c0.859,2.323,1.85,4.655,2.808,6.91
	c1.002,2.358,2.038,4.797,2.937,7.253c1.246,3.404,2.375,6.904,3.467,10.289c0.639,1.982,1.3,4.031,1.976,6.034
	c0.627,1.859,1.251,3.72,1.874,5.581c2.026,6.048,4.121,12.302,6.329,18.393c1.247,3.441,2.585,6.919,3.88,10.283
	c2.925,7.6,5.949,15.459,8.154,23.488c0.156,0.567,0.234,1.131,0.31,1.677c0.078,0.561,0.151,1.09,0.301,1.569l0.236,0.762
	c0.562,1.819,1.144,3.7,1.964,5.386c0.731,1.503,1.969,2.459,3.895,3.009c5.842,1.668,10.782,5.063,15.25,8.484l0.78,0.597
	c7.686,5.886,15.634,11.973,24.106,16.982c5.68,3.358,11.784,6.941,18.66,10.953c1.758,1.026,3.526,2.035,5.293,3.045
	c3.144,1.796,6.394,3.652,9.541,5.576c2.081,1.273,4.118,2.67,6.088,4.022c1.459,1.001,2.969,2.037,4.475,3.006
	c6.159,3.965,11.729,7.983,17.029,12.284c1.537,1.247,3.285,2.21,5.136,3.229c1.668,0.919,3.392,1.869,4.947,3.046l0.468,0.355
	c6.791,5.145,13.814,10.464,20.039,16.577c0.595,0.584,1.325,1.065,2.098,1.574c0.468,0.308,0.952,0.627,1.417,0.978
	c4.408,3.332,8.08,6.113,11.85,9.035c0.779,0.603,1.481,1.385,1.978,2.202C545.698,271.655,545.593,272.638,545.37,273.24z"/>
<path d="M443.016,740.033c4.245-0.417,8.635-0.848,12.969-1.14c4.483-0.302,9.043-0.452,13.453-0.596
	c3.401-0.112,6.918-0.227,10.367-0.411c2.279-0.122,4.606-0.433,6.857-0.734c1.14-0.153,2.28-0.305,3.422-0.436
	c0.303-0.035,0.606-0.071,0.909-0.108c1.149-0.139,2.337-0.282,3.531-0.321c2.6-0.085,5.241-0.145,7.796-0.203
	c2.096-0.048,4.192-0.096,6.287-0.157c2.92-0.085,5.557-0.205,8.062-0.365c0.127-0.008,0.266-0.037,0.43-0.083
	c-1.512-0.731-2.924-0.834-4.396-0.942c-1.725-0.127-3.439-0.256-5.154-0.385c-7.321-0.553-14.892-1.125-22.338-1.383
	c-1.698-0.059-3.473-0.087-5.427-0.087c-3.478,0-7.023,0.093-10.452,0.183c-1.883,0.049-3.765,0.099-5.646,0.134
	c-0.724,0.013-1.448,0.025-2.172,0.037c-3.565,0.058-7.251,0.118-10.844,0.395c-12.238,0.943-23.037,1.402-33.013,1.402
	c-1.467,0-2.937-0.01-4.405-0.03c-3.352-0.046-6.911-0.273-10.878-0.692c-0.326-0.034-0.601-0.051-0.839-0.051
	c-0.661,0-0.832,0.134-0.868,0.175c-0.056,0.063-0.229,0.356-0.099,1.49c0.27,2.36,1.982,4.095,4.468,4.529
	c0.997,0.174,2.016,0.233,3.094,0.295c1.291,0.075,2.625,0.152,3.933,0.444c2.274,0.507,4.771,0.754,7.631,0.754
	c2.582,0,5.223-0.197,7.777-0.387c0.84-0.063,1.679-0.125,2.518-0.181C434.331,740.887,438.746,740.453,443.016,740.033z"/>
<path d="M153.087,736.2c0.209-0.289,0.032-1.428-0.144-2.325c-0.352-0.004-0.707-0.009-1.064-0.015
	c-0.641-0.01-1.29-0.02-1.943-0.02c-0.862,0-1.575,0.018-2.245,0.056c-3.653,0.208-7.368,0.444-10.961,0.672
	c-4.587,0.292-9.33,0.593-14.001,0.839c-7.674,0.404-14.644,0.683-21.307,0.853c-6.185,0.158-12.472,0.253-18.552,0.344
	c-3.252,0.049-6.505,0.098-9.757,0.156c-1.332,0.024-2.666,0.034-3.999,0.044c-3.574,0.027-7.269,0.054-10.859,0.367
	c-2.208,0.193-4.028,0.495-5.123,2.179c0.08,0.023,0.16,0.047,0.24,0.07c1.004,0.292,1.953,0.568,2.798,1.138
	c3.565,2.406,7.792,2.483,11.879,2.558c0.435,0.008,0.868,0.016,1.297,0.027c5.572,0.138,11.16,0.208,16.608,0.208
	c8.197,0,16.372-0.159,24.295-0.472c12.941-0.511,23.882-1.563,34.114-3.29l1.29-0.858c1.776-1.181,3.591-1.875,5.393-2.064
	C151.598,736.609,152.888,736.474,153.087,736.2z"/>
<path d="M354.782,806.513c-0.182,0-0.369,0.004-0.559,0.013c-5.936,0.269-12.089,0.454-18.289,0.552
	c-0.803,0.013-1.607,0.027-2.411,0.042c-2.235,0.04-4.546,0.082-6.823,0.082c-2.75,0-5.044-0.059-7.222-0.186
	c-6.062-0.354-12.211-0.86-18.158-1.35c-3.552-0.293-7.224-0.595-10.836-0.862c-0.471-0.035-0.978-0.051-1.594-0.051
	c-0.478,0-0.957,0.01-1.435,0.019c-0.491,0.01-0.982,0.02-1.47,0.02c-0.938,0-2.172-0.032-3.403-0.278
	c-3.655-0.732-7.647-1.073-12.565-1.073c-2.591,0-5.166,0.089-8.022,0.197c-1.613,0.061-3.251,0.281-4.449,1.375l1.401,2.395
	l0.974,1.665c0.24,0.001,0.473,0.003,0.7,0.005c0.367,0.003,0.718,0.005,1.062,0.005c0.414,0,0.815-0.004,1.217-0.016
	c1.464-0.045,2.962-0.132,4.411-0.216c2.14-0.124,4.352-0.252,6.535-0.252c1.031,0,1.977,0.028,2.891,0.085
	c13.117,0.82,25.045,1.765,36.466,2.889c6.725,0.662,13.822,0.984,21.698,0.984c3.013,0,6.104-0.046,9.45-0.141l1.094-0.032
	c1.55-0.046,3.152-0.094,4.734-0.094c2.097,0,3.831,0.083,5.46,0.261c0.542,0.059,1.04,0.088,1.523,0.088
	c1.327,0,2.496-0.222,3.626-0.695C360.215,808.146,358.389,806.513,354.782,806.513z"/>
<path d="M300.674,761.397c0.026-0.016,0.051-0.027,0.077-0.042C300.725,761.369,300.701,761.381,300.674,761.397z"/>
<path d="M300.273,761.639c0.069-0.034,0.142-0.079,0.215-0.126C300.415,761.56,300.342,761.605,300.273,761.639z"/>
<path d="M301.287,762.633c-0.078,0.092-0.162,0.194-0.245,0.307c-0.085-0.145-0.163-0.276-0.234-0.397
	c0.071,0.121,0.149,0.252,0.234,0.397C301.125,762.827,301.209,762.725,301.287,762.633z"/>
<path d="M300.876,761.295c0.026-0.01,0.049-0.013,0.073-0.018C300.925,761.282,300.902,761.286,300.876,761.295z"/>
<path d="M301.649,762.155c-0.055,0.126-0.191,0.277-0.362,0.479C301.458,762.432,301.594,762.281,301.649,762.155z"/>
<path d="M269.054,423.276c0.111-0.087,0.27-0.506,0.346-0.707c0.037-0.097,0.073-0.191,0.111-0.282
	c-0.028-1.507-1.54-3.179-3.111-3.383c-0.197-0.026-0.393-0.039-0.583-0.039c-1.69,0-3.176,1.059-4.416,3.148
	c-1.005,1.693-0.34,2.322-0.122,2.529c0.836,0.792,1.912,1.412,2.45,1.412c0.04,0,0.063-0.004,0.073-0.007
	c1.594-0.392,3.158-1.368,4.671-2.312L269.054,423.276z"/>
<path d="M260.855,460.786c-0.43,0.678-0.625,1.697-0.477,2.024c0.191,0.42,0.842,0.827,1.273,1.096
	c0.09,0.056,0.175,0.109,0.255,0.161c4.531-0.076,5.51-1.843,5.867-3.572c0.249-1.204-0.153-1.846-1.343-2.148
	c-0.491-0.124-0.966-0.188-1.414-0.188C263.339,458.16,261.977,459.019,260.855,460.786z"/>
<path d="M260.612,385.381c0.121,0.325,0.959,0.759,1.632,1.107c0.325,0.168,0.657,0.34,0.988,0.53
	c0.347-0.169,0.685-0.328,1.015-0.484c1.026-0.484,1.911-0.903,2.721-1.432c0.6-0.393,1.067-1.007,0.424-2.828
	c-0.236-0.667-0.629-0.952-1.314-0.952c-0.248,0-0.527,0.039-0.828,0.117c-1.146,0.295-2.253,0.603-3.182,1.131
	C261.066,383.139,260.216,384.317,260.612,385.381z"/>
<path d="M230.752,561.366c2.128-3.348,4.329-6.809,5.891-10.526c0.734-1.748,0.799-2.824,0.188-4.017
	c-0.28-0.036-0.547-0.054-0.796-0.054c-1.773,0-2.842,0.884-3.572,2.957c-0.469,1.331-1.189,2.577-1.763,3.513
	c-1.172,1.91-2.36,3.811-3.548,5.711c-1.795,2.872-3.652,5.841-5.416,8.793c-0.643,1.076-1.565,3.002-0.514,3.809
	c0.238,0.183,0.557,0.276,0.947,0.276c0.968,0,2.141-0.563,3.136-1.505c0.289-0.274,0.534-0.593,0.689-0.899
	C227.41,566.621,229.109,563.95,230.752,561.366z"/>
<path d="M333.796,554.335c-0.023-0.801-0.093-3.238-1.011-4.262c-2.397-2.675-2.82-5.722-3.268-8.947l-0.016-0.117
	c-1.311-0.439-2.259-0.688-3.033-0.688c-0.651,0-1.261,0.161-2.334,0.616c-1.122,0.476-1.738,0.898-1.882,1.291
	c-0.144,0.393,0.046,1.091,0.601,2.196c0.599,1.194,1.157,2.424,1.697,3.613c0.76,1.675,1.546,3.407,2.44,5.02
	c0.86,1.55,1.936,2.784,3.029,3.473c0.558,0.352,1.132,0.538,1.661,0.538c0.555,0,1.045-0.202,1.416-0.584
	C333.572,555.991,333.821,555.228,333.796,554.335z"/>
<path d="M277.92,319.135c3.872-0.708,7.755-1.89,11.51-3.033c0.676-0.206,1.352-0.412,2.028-0.615
	c1.444-0.434,2.903-0.961,4.313-1.471c1.917-0.693,3.9-1.409,5.924-1.924c2.931-0.746,5.934-1.368,8.838-1.969
	c2.361-0.489,4.802-0.994,7.178-1.561c4.609-1.1,9.278-2.312,13.793-3.485c1.774-0.461,3.548-0.921,5.324-1.377l2.54-0.651
	c3.432-0.878,6.982-1.787,10.461-2.715c3.487-0.93,6.97-1.875,10.454-2.82c3.467-0.941,6.935-1.881,10.406-2.808
	c1.983-0.529,3.972-1.038,5.96-1.547c2.308-0.59,4.694-1.201,7.029-1.834c1.255-0.34,2.526-0.739,3.756-1.125
	c1.318-0.413,2.68-0.84,4.046-1.204c2.323-0.619,4.69-1.216,6.978-1.793c2.93-0.739,5.959-1.503,8.915-2.318
	c2.293-0.633,4.615-1.346,6.86-2.036c3.601-1.106,7.325-2.25,11.069-3.108c7.896-1.808,15.961-3.457,23.761-5.051
	c3.388-0.692,6.775-1.385,10.159-2.091c0.538-0.112,1.071-0.252,1.635-0.399c1.161-0.304,2.362-0.618,3.608-0.678
	c7.241-0.351,14.053-2.288,21.571-4.593c2.257-0.692,2.665-1.3,2.911-4.339c0.13-1.609,0.505-3.197,1.084-4.592
	c0.394-0.95,0.27-1.565-0.456-2.267l-0.233-0.226c-0.679-0.661-1.382-1.345-2.135-1.772c-0.95-0.539-1.967-1.036-2.951-1.516
	c-1.562-0.762-3.177-1.55-4.649-2.562c-5.831-4.009-10.872-7.688-15.408-11.249c-4.05-3.178-8.105-6.482-12.026-9.676
	c-3.721-3.031-7.569-6.166-11.4-9.184c-3.706-2.919-7.655-5.683-11.473-8.356l-1.343-0.94c-2.466-1.729-5.006-3.451-7.461-5.116
	c-4.53-3.071-9.213-6.248-13.653-9.614c-4.718-3.577-9.765-6.848-14.645-10.012c-1.679-1.088-3.358-2.177-5.028-3.279
	c-1.044-0.689-2.066-1.053-2.958-1.053c-2.226,0-2.943,2.195-3.172,3.503c-0.498,2.84-1.943,3.723-4.27,4.288
	c-5.517,1.339-11.076,2.958-16.451,4.524l-1.09,0.317c-1.62,0.472-3.262,1.007-4.849,1.525c-2.612,0.852-5.313,1.733-8.046,2.373
	c-0.222,0.052-0.446,0.107-0.67,0.161c-1.205,0.295-2.451,0.6-3.801,0.6c-1.087,0-2.09-0.199-3.065-0.609
	c-1.181-0.496-2.281-0.941-2.777-0.941c-0.057,0-0.079,0.007-0.08,0.007c-0.236,0.232-0.445,1.816-0.614,3.088l-0.065,0.491
	l-0.43,0.246c-0.137,0.078-0.248,0.15-0.343,0.21c-0.226,0.145-0.46,0.294-0.766,0.37c-1.359,0.335-2.721,0.66-4.083,0.986
	c-2.694,0.644-5.48,1.309-8.191,2.043c-1.257,0.34-2.528,0.794-3.756,1.232c-1.181,0.421-2.402,0.857-3.643,1.206
	c-7.534,2.12-13.833,3.831-19.824,5.383c-2.05,0.531-4.145,0.994-6.172,1.443c-2.036,0.45-4.142,0.916-6.185,1.447
	c-2.261,0.588-4.551,1.25-6.765,1.89c-2.71,0.783-5.511,1.594-8.304,2.281c-5.005,1.233-10.181,2.508-15.396,3.234
	c-4.918,0.685-9.933,1.219-14.783,1.736c-3.911,0.417-7.956,0.848-11.918,1.354c-4.458,0.57-8.975,1.352-13.344,2.109
	c-1.304,0.226-2.607,0.452-3.911,0.672c-0.983,0.167-1.987,0.396-2.958,0.618c-0.935,0.214-1.902,0.435-2.874,0.607
	c-1.943,0.343-3.885,0.688-5.827,1.034c-7.246,1.288-14.739,2.621-22.134,3.799c-3.78,0.602-4.625,2.327-5.917,6.742
	c-0.551,1.883,0.442,2.568,2.395,3.712c0.376,0.22,0.764,0.448,1.133,0.693l0.148,0.098c0.18,0.118,0.36,0.237,0.53,0.369
	c1.85,1.445,3.697,2.893,5.544,4.341c4.153,3.256,8.447,6.623,12.702,9.889c1.514,1.162,3.108,2.287,4.649,3.376
	c1.552,1.096,3.158,2.23,4.698,3.411c3.812,2.924,7.668,5.921,11.398,8.82c4.671,3.631,9.502,7.385,14.287,11.028
	c2.622,1.996,5.341,3.966,7.97,5.872c4.022,2.915,8.18,5.929,12.108,9.116c2.372,1.925,4.893,3.77,7.331,5.553
	c5.1,3.732,10.374,7.59,14.736,12.494c0.675,0.759,1.732,1.569,2.673,1.569c0.345,0,0.658-0.112,0.957-0.342
	c1.771-1.362,3.58-1.578,5.329-1.788C276.849,319.297,277.392,319.232,277.92,319.135z M341.068,295.387
	c-9.576,3.137-19.707,5.856-31.883,8.556l-0.511,0.113l-0.384-0.355c-0.914-0.844-1.776-1.655-2.607-2.438
	c-1.735-1.633-3.373-3.176-5.057-4.603c-2.326-1.972-4.747-3.92-7.089-5.804c-1.384-1.114-2.768-2.227-4.142-3.352
	c-2.73-2.235-5.169-4.275-7.458-6.236c-0.428-0.367-0.747-0.792-1.152-1.331c-0.203-0.27-0.435-0.58-0.723-0.937l-0.849-1.053
	l1.256-0.503c0.591-0.237,1.15-0.484,1.689-0.723c1.155-0.511,2.245-0.993,3.415-1.266c2.216-0.516,4.477-0.966,6.664-1.401
	c2.116-0.421,4.303-0.857,6.432-1.348c3.836-0.886,7.829-1.929,12.207-3.188c0.464-0.133,0.893-0.198,1.313-0.198
	c1.347,0,2.304,0.698,2.986,1.305c6.286,5.598,12.447,11.075,18.717,16.533c1.079,0.939,2.265,1.822,3.412,2.675
	c0.811,0.604,1.65,1.228,2.458,1.877c0.449,0.361,0.776,0.797,1.155,1.303c0.178,0.238,0.375,0.502,0.613,0.792l0.922,1.129
	L341.068,295.387z M341.042,246.436c1.142,0.865,2.322,1.759,3.462,2.671c0.489,0.391,0.882,0.839,1.379,1.405
	c0.249,0.284,0.531,0.605,0.87,0.969l1.033,1.11l-1.427,0.513c-0.536,0.192-1.026,0.375-1.487,0.548
	c-0.946,0.353-1.763,0.658-2.619,0.915c-5.412,1.619-10.829,3.222-16.246,4.824l-5.184,1.534c-0.17,0.05-0.342,0.095-0.514,0.14
	c-0.297,0.077-0.577,0.149-0.817,0.249c-1.532,0.635-2.945,0.944-4.32,0.944c-2.931,0-5.552-1.412-8.25-4.444
	c-1.588-1.785-3.714-3.1-5.964-4.493c-0.944-0.584-1.919-1.188-2.845-1.826c-0.947-0.653-1.941-1.289-2.902-1.904
	c-0.448-0.287-0.896-0.574-1.343-0.864l-0.505-0.329l0.055-0.6l0.081-0.891l0.064-0.706l0.687-0.174
	c0.542-0.137,1.1-0.302,1.64-0.463c1.239-0.368,2.52-0.748,3.854-0.871c8.514-0.787,16.88-3.101,24.97-5.338l1.041-0.288
	c1.103-0.305,2.084-0.453,2.999-0.453c2.104,0,3.904,0.771,5.663,2.427C336.473,242.976,338.796,244.735,341.042,246.436z
	 M334.878,237.318l2.001-0.577c1.121-0.323,2.15-0.629,3.12-0.917c2.009-0.596,3.744-1.11,5.519-1.559
	c4.668-1.179,9.444-2.326,14.197-3.41c3.922-0.895,7.401-1.608,10.635-2.18c0.354-0.063,0.738-0.096,1.112-0.096
	c0.69,0,1.677,0.108,2.466,0.621c4.518,2.94,8.891,5.983,12.983,8.847c0.531,0.372,0.873,0.883,1.234,1.424
	c0.155,0.233,0.322,0.484,0.521,0.743l0.739,0.964l-1.088,0.54c-0.257,0.127-0.489,0.255-0.708,0.376
	c-0.49,0.27-0.954,0.525-1.489,0.678c-4.363,1.25-8.729,2.49-13.095,3.729c-4.743,1.347-9.486,2.693-14.225,4.053
	c-0.957,0.275-1.807,0.408-2.597,0.408c-1.338,0-2.519-0.375-3.611-1.148c-3.575-2.529-7.154-5.052-11.044-7.794l-4.968-3.503
	L334.878,237.318z M296.692,255.887l0.606,0.393c2.885,1.873,5.868,3.809,9.213,6.386l1.25,0.963l-1.404,0.719
	c-0.524,0.268-0.919,0.488-1.236,0.665c-0.583,0.324-0.968,0.539-1.439,0.658c-2.863,0.726-5.73,1.436-8.597,2.147
	c-5.722,1.418-11.639,2.885-17.419,4.453c-0.882,0.239-1.705,0.355-2.516,0.355c-2.056,0-3.935-0.762-5.915-2.397
	c-3.855-3.185-7.823-6.319-11.538-9.232c-0.28-0.219-0.665-0.388-1.072-0.567c-0.375-0.164-0.763-0.335-1.142-0.57
	c-1.177-0.733-2.348-1.507-3.481-2.254c-0.466-0.308-0.932-0.616-1.4-0.921l-0.517-0.338l0.071-0.614l0.072-0.62l0.036-0.31
	l0.075-0.641l0.615-0.196c0.446-0.142,0.889-0.299,1.333-0.456c1.002-0.354,2.038-0.721,3.124-0.931
	c6.184-1.197,12.482-2.348,18.572-3.461l2.322-0.425c0.529-0.097,1.059-0.141,1.573-0.183c0.832-0.069,1.617-0.133,2.235-0.41
	c0.884-0.396,1.728-0.589,2.581-0.589c2.134,0,3.795,1.23,5.402,2.419l0.11,0.081C290.877,251.986,293.733,253.964,296.692,255.887z
	 M382.287,284.504c-0.569,0.198-1.075,0.385-1.54,0.558c-0.922,0.341-1.718,0.636-2.549,0.846c-4.104,1.04-8.212,2.068-12.319,3.095
	c-4.449,1.113-8.899,2.226-13.344,3.355l-0.064,0.016c-0.57,0.145-1.108,0.282-1.702,0.282c-0.779,0-1.493-0.248-2.185-0.757
	c-2.428-1.789-4.935-3.563-7.36-5.279c-3.043-2.153-6.189-4.379-9.221-6.664c-2.888-2.175-5.718-4.547-8.454-6.841
	c-1.251-1.048-2.509-2.102-3.788-3.153l-0.702-0.576l0.506-0.754c1.205-1.796,2.852-2.245,4.176-2.606
	c0.239-0.065,0.474-0.129,0.702-0.2c6.404-2,13.962-4.334,21.465-6.482c2.409-0.69,5.126-1.228,8.552-1.694
	c0.122-0.017,0.247-0.025,0.376-0.025c1.168,0,2.366,0.665,3.037,1.234c3.592,3.046,6.438,5.585,8.955,7.99
	c3.868,3.695,7.735,7.515,11.475,11.209l2.915,2.878c0.334,0.329,0.592,0.697,0.919,1.161c0.172,0.244,0.371,0.528,0.622,0.865
	l0.816,1.094L382.287,284.504z M428.028,272.148l-35.289,9.545l-1.509,0.408l-0.493,0.133l-0.397-0.321
	c-1.291-1.045-2.555-2.046-3.791-3.026c-2.71-2.148-5.269-4.176-7.737-6.351c-1.423-1.254-2.938-2.478-4.404-3.661
	c-4.003-3.233-8.141-6.575-11.34-11.202l-0.56-0.81l0.802-0.572c2.198-1.569,4.678-2.267,7.077-2.941
	c0.439-0.123,0.877-0.247,1.313-0.375c4.838-1.426,9.772-2.818,14.543-4.163l1.198-0.338c0.61-0.172,1.219-0.347,1.828-0.522
	c2.357-0.678,4.794-1.379,7.249-1.885c0.214-0.044,0.445-0.067,0.686-0.067c1.058,0,2.281,0.426,3.118,1.084
	c9.301,7.325,18.396,14.642,25.28,20.198c0.661,0.533,1.198,1.186,1.82,1.943c0.319,0.388,0.673,0.819,1.096,1.297l1.067,1.207
	L428.028,272.148z M442.669,236.13c1.286-0.156,2.572-0.311,3.857-0.476c0.291-0.037,0.581-0.056,0.861-0.056
	c2.025,0,3.482,0.971,4.641,1.921l0.56,0.46c3.303,2.709,6.719,5.51,10.207,8.066c3.582,2.624,7.297,5.203,10.889,7.698
	c1.652,1.147,3.305,2.295,4.951,3.45c0.998,0.701,1.958,1.435,2.722,2.697l0.693,1.145l-1.295,0.34
	c-7.987,2.096-16.092,3.567-23.931,4.99c-6.728,1.221-13.685,2.484-20.41,4.122l-0.505,0.123l-0.391-0.343
	c-1.138-0.999-2.264-1.99-3.382-2.974c-3.213-2.827-6.247-5.496-9.361-8.186c-0.666-0.575-1.452-1.042-2.285-1.535l-0.353-0.21
	c-4.499-2.689-8.393-6.196-12.517-9.91c-0.778-0.701-1.571-1.414-2.383-2.138l-1.364-1.213l1.757-0.496
	c0.995-0.281,1.91-0.552,2.774-0.809c1.805-0.536,3.365-0.998,4.983-1.353c1.933-0.424,3.904-0.8,5.81-1.163
	c2.538-0.483,5.162-0.983,7.7-1.601C432.116,237.407,437.481,236.758,442.669,236.13z M421.455,216.502l0.347-1.437l1.205,0.857
	c1.574,1.119,3.206,2.17,4.785,3.186c4.048,2.606,8.235,5.3,11.669,9.324l1.07,1.254l-1.607,0.37
	c-1.497,0.344-2.934,0.678-4.328,1.002c-2.937,0.682-5.71,1.327-8.483,1.939c-8.837,1.95-18.348,4.038-28.024,6.092
	c-0.303,0.064-0.627,0.097-0.964,0.097c-0.498,0-1.45-0.076-2.219-0.582c-4.257-2.805-8.522-5.78-12.285-8.405
	c-0.42-0.293-0.71-0.668-1.077-1.144c-0.184-0.238-0.401-0.52-0.682-0.851l-0.955-1.128l1.403-0.467
	c0.682-0.227,1.317-0.461,1.925-0.685c1.271-0.469,2.472-0.911,3.728-1.151c7.074-1.354,14.28-2.648,21.248-3.9l3.68-0.662
	c0.429-0.077,0.859-0.16,1.289-0.244c1.532-0.297,3.117-0.603,4.723-0.651C419.778,219.26,420.901,218.795,421.455,216.502z
	 M349.713,204.449c0.54-0.244,1.003-0.469,1.418-0.671c0.825-0.4,1.477-0.716,2.201-0.94c10.612-3.271,21.029-6.369,31.794-8.309
	c0.16-0.029,0.333-0.047,0.508-0.065c0.15-0.015,0.37-0.037,0.466-0.067c1.016-0.914,2.042-1.359,3.136-1.359
	c1.612,0,3.002,0.995,4.346,1.958c3.802,2.724,7.715,5.433,11.499,8.054c2.065,1.43,4.129,2.86,6.188,4.299
	c0.185,0.129,0.373,0.256,0.562,0.383c1.392,0.938,2.97,2.001,3.769,4.322l0.375,1.088l-1.13,0.219
	c-1.56,0.303-3.1,0.599-4.624,0.892c-3.734,0.719-7.261,1.397-10.839,2.119c-1.167,0.235-2.354,0.523-3.501,0.802
	c-1.1,0.267-2.238,0.543-3.374,0.777c-6.539,1.348-12.396,2.524-17.906,3.595c-0.522,0.102-1.004,0.151-1.474,0.151
	c-1.31,0-2.468-0.39-3.54-1.193c-4.266-3.195-8.67-6.362-12.929-9.426l-1.783-1.283c-1.021-0.735-2.077-1.441-3.299-2.258
	c-0.621-0.415-1.285-0.859-2.011-1.35l-1.479-1.002L349.713,204.449z M312.423,215.231l0.393-1.106l0.168-0.471l0.478-0.149
	c0.724-0.225,1.446-0.462,2.167-0.699c1.583-0.519,3.22-1.056,4.878-1.468c3.742-0.929,7.556-1.829,11.244-2.699
	c2.537-0.598,5.074-1.197,7.608-1.809c0.7-0.169,1.333-0.309,1.992-0.309c1.13,0,2.066,0.447,2.782,1.329
	c2.658,3.271,6.062,5.501,9.666,7.863c1.303,0.854,2.651,1.737,3.945,2.665c0.946,0.679,1.819,1.403,2.829,2.243
	c0.486,0.404,1,0.831,1.562,1.285l1.318,1.065l-1.569,0.639c-0.476,0.194-0.873,0.369-1.223,0.524
	c-0.679,0.3-1.215,0.536-1.808,0.682c-2.884,0.709-5.771,1.404-8.658,2.1c-5.593,1.347-11.377,2.741-17.035,4.212
	c-0.519,0.135-1.027,0.203-1.51,0.203c-1.724,0-3.193-0.853-4.364-2.536c-2.654-3.812-6.323-6.181-9.894-8.174
	c-1.335-0.745-2.386-1.877-3.403-2.972c-0.447-0.482-0.869-0.936-1.312-1.358l-0.47-0.448L312.423,215.231z M268.275,225.708
	c0.773-0.306,1.478-0.603,2.142-0.882c1.4-0.589,2.608-1.097,3.895-1.469c3.108-0.9,6.139-1.628,9.778-2.486
	c1.814-0.428,3.661-0.838,5.447-1.235c2.734-0.607,5.562-1.236,8.314-1.936c1.565-0.398,3.137-0.971,4.801-1.578
	c0.821-0.299,1.674-0.61,2.578-0.92l1.028-0.353l0.266,1.054c0.898,3.557,3.469,5.555,6.192,7.669l0.465,0.361
	c1.308,1.021,2.738,1.861,4.251,2.75c0.859,0.505,1.748,1.027,2.605,1.582c0.824,0.533,1.592,1.113,2.566,1.848
	c0.494,0.373,1.042,0.787,1.677,1.254l1.601,1.179l-1.901,0.583c-9.593,2.942-17.683,4.864-25.459,6.05
	c-2.893,0.441-6.253,0.967-9.529,1.627c-0.518,0.104-0.991,0.155-1.445,0.155c-1.267,0-2.382-0.397-3.509-1.249
	c-1.738-1.314-3.562-2.591-5.326-3.825c-1.619-1.133-3.293-2.305-4.909-3.511c-1.291-0.964-2.513-2.056-3.807-3.212
	c-0.629-0.562-1.289-1.151-2.005-1.771l-1.248-1.079L268.275,225.708z M221.461,232.863l0.181-0.489l0.114-0.308l0.215-0.579
	l0.614-0.067l3.207-0.35c2.368-0.258,4.736-0.515,7.103-0.786c5.25-0.601,11.358-1.302,17.409-2.025
	c1.044-0.125,2.085-0.269,3.127-0.414c1.891-0.262,3.846-0.534,5.794-0.68c0.08-0.006,0.162-0.009,0.246-0.009
	c1.05,0,2.536,0.502,3.22,1.433c3.211,4.366,7.114,8.047,11.599,10.94c0.418,0.27,0.671,0.654,0.964,1.099
	c0.142,0.215,0.31,0.472,0.535,0.774l0.821,1.103l-1.302,0.441c-0.443,0.15-0.853,0.303-1.244,0.449
	c-0.825,0.307-1.604,0.598-2.429,0.765c-8.431,1.707-17.011,3.399-25.309,5.035l-1.034,0.204c-0.568,0.112-1.093,0.167-1.604,0.167
	c-1.38,0-2.613-0.404-3.769-1.236c-2.524-1.817-5.139-3.607-7.667-5.338c-1.416-0.969-2.832-1.939-4.24-2.918
	c-0.575-0.4-1.219-0.898-1.634-1.562c-1.307-2.092-2.721-3.496-4.45-4.419l-0.77-0.411L221.461,232.863z M202.247,258.259
	c-0.73,0-1.756-0.118-2.493-0.68c-5.553-4.237-11.109-8.655-16.482-12.928l-2.23-1.773c-0.359-0.286-0.515-0.658-0.694-1.09
	c-0.084-0.203-0.189-0.456-0.343-0.771l-0.502-1.026l1.084-0.362c0.394-0.132,0.754-0.265,1.091-0.39
	c0.708-0.263,1.377-0.511,2.087-0.637c1.773-0.314,3.578-0.604,5.323-0.885c2.339-0.376,4.757-0.765,7.116-1.214
	c4.005-0.761,8.155-1.657,12.336-2.663c0.607-0.146,1.151-0.217,1.664-0.217c1.229,0,2.321,0.419,3.341,1.282
	c2.393,2.025,4.869,4.041,7.264,5.99c1.013,0.824,2.025,1.649,3.035,2.476l1.128,0.921c1.053,0.858,2.141,1.745,3.196,2.644
	c0.674,0.574,1.304,1.156,2.103,1.893c0.39,0.36,0.816,0.753,1.299,1.193l1.374,1.251l-1.801,0.457
	c-1.229,0.312-2.381,0.611-3.484,0.896c-2.258,0.585-4.39,1.138-6.495,1.623c-5.196,1.198-11.335,2.593-17.471,3.86
	C203.23,258.208,202.73,258.259,202.247,258.259z M234.942,283.175c-1.304,0-2.471-0.401-3.568-1.227
	c-2.834-2.132-5.677-4.251-8.519-6.371c-3.19-2.379-6.49-4.839-9.722-7.276c-0.825-0.622-1.55-1.304-2.391-2.093
	c-0.399-0.374-0.82-0.77-1.282-1.187l-1.148-1.034l1.414-0.624c5.876-2.592,11.692-3.765,17.316-4.9
	c0.949-0.191,1.896-0.383,2.842-0.58c0.494-0.103,0.991-0.198,1.489-0.293c1.471-0.28,2.861-0.545,4.177-1.018
	c1.112-0.4,2.223-0.602,3.301-0.602c3.033,0,5.542,1.584,7.596,3.134c2.001,1.509,4.14,2.931,6.208,4.306
	c1.164,0.774,2.368,1.574,3.54,2.385c2.78,1.923,5.658,3.963,8.553,6.062c0.412,0.299,0.627,0.718,0.855,1.163
	c0.103,0.201,0.223,0.436,0.384,0.705l0.679,1.133l-1.275,0.346l-4.61,1.252c-3.372,0.917-6.646,1.807-9.922,2.689
	c-1.521,0.41-3.044,0.811-4.566,1.213c-2.995,0.79-6.091,1.607-9.114,2.471C236.365,283.061,235.633,283.175,234.942,283.175z
	 M268.73,310.702c-1.09-1.213-2.03-2.186-3.072-2.995c-1.867-1.447-3.806-2.876-5.681-4.259c-1.26-0.929-2.52-1.858-3.77-2.8
	c-4.843-3.649-9.981-7.548-15.707-11.918c-0.342-0.261-0.516-0.595-0.717-0.981c-0.093-0.178-0.206-0.396-0.364-0.661l-0.595-0.998
	l1.075-0.44c0.342-0.14,0.667-0.287,0.983-0.43c0.719-0.325,1.398-0.632,2.153-0.819c5.895-1.459,11.898-2.895,17.703-4.284
	l1.461-0.35c0.473-0.113,0.946-0.237,1.42-0.361c1.345-0.352,2.736-0.715,4.165-0.851c0.621-0.059,1.19-0.087,1.739-0.087
	c3.187,0,5.685,1.019,7.863,3.207c4.239,4.259,8.79,8.369,13.191,12.344c1.589,1.435,3.178,2.87,4.756,4.315l0.172,0.159
	c0.614,0.565,1.248,1.149,1.867,1.35c2.386,0.777,3.186,2.613,4.113,4.739l0.179,0.411l0.469,1.066l-1.125,0.302l-5.251,1.407
	c-4.124,1.105-8.08,2.165-12.035,3.232c-0.962,0.26-1.92,0.531-2.879,0.802c-1.295,0.367-2.634,0.746-3.964,1.09
	c-0.905,0.234-1.773,0.353-2.58,0.353C272.122,313.246,270.248,312.39,268.73,310.702z"/>
<path d="M166.706,219.236c3.289-0.865,6.596-1.941,9.794-2.982c3.307-1.076,6.728-2.189,10.16-3.081
	c4.115-1.069,8.36-1.851,12.464-2.606c1.923-0.354,3.912-0.72,5.856-1.11c4.44-0.891,9.03-1.812,13.545-3.411
	c3.724-1.319,7.625-2.257,11.398-3.164c1.843-0.443,3.749-0.901,5.602-1.397c1.48-0.396,2.98-0.85,4.43-1.289
	c1.113-0.337,2.263-0.685,3.405-1.008c1.132-0.32,2.264-0.642,3.396-0.964c3.823-1.088,7.776-2.214,11.697-3.217
	c3.247-0.83,6.557-1.624,9.758-2.391c3.686-0.884,7.497-1.798,11.222-2.77c1.755-0.458,3.524-1.058,5.234-1.638
	c1.775-0.602,3.61-1.225,5.468-1.705c5.348-1.382,10.797-2.733,16.067-4.04c5.759-1.429,11.714-2.906,17.551-4.425
	c10.638-2.769,21.105-5.705,29.036-7.954c1.695-0.481,3.398-1.12,5.044-1.739c1.317-0.495,2.678-1.007,4.051-1.444
	c1.032-0.329,2.09-0.555,3.112-0.773c1.062-0.227,2.065-0.441,3.038-0.76c2.439-0.8,4.193-2.239,5.074-4.162
	c0.917-2.001,0.843-4.399-0.213-6.933c-1.422-3.412-2.93-7.051-4.36-10.724c-0.54-1.387-1.031-2.81-1.505-4.185
	c-0.361-1.048-0.735-2.131-1.125-3.182c-0.505-1.361-1.048-2.74-1.573-4.073c-0.958-2.434-1.949-4.951-2.765-7.494
	c-2.176-6.781-4.324-13.693-6.401-20.378c-1.319-4.246-2.638-8.492-3.973-12.733c-0.233-0.739-0.537-1.458-0.859-2.219
	c-0.36-0.852-0.733-1.733-1.003-2.659c-0.773-2.647-1.524-5.346-2.249-7.956c-1.074-3.863-2.185-7.857-3.386-11.745
	c-1.835-5.943-3.831-11.95-5.762-17.759c-0.624-1.878-1.248-3.756-1.869-5.635l-0.421-1.275c-1.467-4.45-2.985-9.052-4.573-13.538
	c-0.614-1.733-1.08-1.914-1.996-1.914c-0.389,0-0.872,0.051-1.522,0.162c-0.171,0.029-0.353,0.066-0.538,0.104
	c-0.522,0.106-1.114,0.225-1.67,0.225c-0.553,0-1.001-0.116-1.37-0.356c-1.528-0.992-3.151-1.454-5.109-1.454
	c-1.852,0-3.718,0.408-5.692,0.84l-0.39,0.085c-5.364,1.168-11.443,2.491-17.365,4.014c-3.649,0.938-7.345,1.967-10.919,2.962
	c-3.967,1.104-8.069,2.246-12.134,3.272c-8.007,2.02-16.173,3.956-24.071,5.828c-2.379,0.564-4.759,1.128-7.137,1.695
	c-5.403,1.288-10.809,2.562-16.214,3.837c-4.153,0.979-8.307,1.958-12.459,2.944c-3.15,0.747-6.349,1.531-9.443,2.288l-1.773,0.434
	l-0.689,0.168c-2.733,0.668-5.559,1.359-8.33,2.063c-1.634,0.415-3.264,0.841-4.895,1.267c-1.603,0.419-3.206,0.838-4.812,1.247
	l-1.724,0.441c-2.39,0.613-4.86,1.246-7.319,1.782c-1.442,0.314-2.912,0.568-4.333,0.813c-1.22,0.21-2.482,0.428-3.706,0.681
	c-1.657,0.343-3.337,0.755-4.963,1.154c-0.725,0.178-1.449,0.356-2.175,0.529c-1.587,0.378-3.208,0.657-4.776,0.926
	c-3.219,0.553-6.259,1.075-9.149,2.392c-1.22,0.556-2.527,0.846-3.791,1.126l-0.64,0.143c-1.638,0.374-3.28,0.728-4.922,1.082
	c-2.567,0.553-5.221,1.125-7.803,1.768c-1.85,0.461-3.725,0.997-5.539,1.515c-2.905,0.83-5.908,1.689-8.935,2.276
	c-0.329,0.064-0.657,0.124-0.985,0.184c-2.08,0.382-4.056,0.746-5.923,1.981c0.021,0.071,0.041,0.141,0.061,0.209
	c0.089,0.306,0.223,0.767,0.326,0.86c2.525,2.126,3.064,4.974,3.585,7.728l0.031,0.166c0.402,2.122,0.8,4.245,1.197,6.369
	c1.295,6.921,2.634,14.077,4.133,21.069c0.826,3.852,1.832,7.744,2.805,11.508c0.77,2.978,1.566,6.058,2.271,9.11
	c1.072,4.639,2.096,9.368,3.085,13.941c0.875,4.043,1.78,8.224,2.714,12.323c0.347,1.522,0.809,3.062,1.256,4.552
	c0.504,1.679,1.025,3.414,1.398,5.172c1.902,8.947,3.478,16.856,4.82,24.18c0.565,3.084,1.359,6.193,2.126,9.2
	c1.42,5.561,2.888,11.312,3.029,17.293c0.044,1.886,1.031,2.802,3.015,2.802c0.152,0,0.308-0.006,0.467-0.017
	c0.648-0.045,1.314-0.218,2.02-0.401c0.369-0.096,0.738-0.191,1.108-0.271c0.214-0.046,0.448-0.117,0.695-0.193
	c0.507-0.155,1.082-0.331,1.673-0.331c0.184,0,0.363,0.017,0.532,0.051c1.066,0.212,2.131,0.315,3.255,0.315
	c3.662,0,7.257-1.151,10.733-2.263C163.669,220.121,165.189,219.635,166.706,219.236z M152.789,217.875
	c-1.195,0.386-1.939,0.544-2.567,0.544c-2.141,0-2.744-1.971-3.228-3.555c-1.023-3.344-2.065-6.682-3.106-10.021
	c-0.874-2.802-1.749-5.604-2.612-8.409c-0.179-0.58-0.254-1.158-0.328-1.716c-0.027-0.206-0.054-0.412-0.086-0.616
	c-0.225-1.408-0.403-2.835-0.574-4.215c-0.459-3.68-0.892-7.157-2.159-10.602c-0.855-2.325-1.18-4.821-1.495-7.236
	c-0.2-1.531-0.406-3.114-0.745-4.606c-0.684-3.009-1.48-6.054-2.25-8.999c-0.716-2.74-1.456-5.572-2.109-8.383
	c-1.001-4.309-1.959-8.699-2.886-12.946c-0.849-3.887-1.726-7.906-2.632-11.846c-0.24-1.044-0.603-2.058-0.987-3.132
	c-0.419-1.172-0.852-2.384-1.116-3.647c-0.503-2.413-0.921-4.877-1.325-7.259c-0.372-2.194-0.756-4.462-1.205-6.67
	c-0.422-2.08-0.933-4.187-1.428-6.226c-0.514-2.12-1.046-4.311-1.483-6.494c-0.364-1.815-0.563-3.67-0.756-5.465
	c-0.098-0.909-0.195-1.818-0.314-2.723c-0.375-2.856,1.948-3.503,2.711-3.715c2.92-0.813,5.88-1.681,8.743-2.52
	c1.716-0.503,3.432-1.006,5.151-1.501c2.626-0.756,5.319-1.373,7.924-1.969c4.051-0.927,8.239-1.886,12.199-3.384
	c2.109-0.798,4.387-1.065,6.59-1.323c1.274-0.149,2.592-0.304,3.833-0.56l0.795-0.164c7.533-1.553,15.323-3.158,22.923-4.961
	c4.024-0.955,8.094-2.043,12.031-3.095c3.381-0.904,6.878-1.838,10.339-2.687c8.951-2.195,17.814-4.225,26.862-6.284
	c6.209-1.413,12.435-2.728,18.238-3.939l1.39-0.289c7.127-1.483,14.496-3.015,21.489-5.578c3.853-1.412,7.899-2.416,11.811-3.387
	c2.15-0.533,4.372-1.085,6.527-1.696c1.403-0.398,2.821-0.893,4.193-1.372c1.752-0.612,3.564-1.244,5.412-1.701
	c3.24-0.802,6.566-1.43,9.783-2.038c1.139-0.215,2.278-0.431,3.415-0.654c0.268-0.052,0.53-0.079,0.779-0.079
	c0.951,0,2.242,0.379,2.99,2.185c0.164,0.395,0.367,0.785,0.583,1.198c0.316,0.605,0.642,1.23,0.866,1.922
	c1.15,3.563,2.28,7.133,3.409,10.702c1.287,4.068,2.618,8.274,3.959,12.398c3.092,9.513,6.265,19.176,9.334,28.521
	c1.299,3.956,2.598,7.912,3.895,11.868c0.22,0.673,0.444,1.344,0.668,2.015c0.477,1.429,0.969,2.907,1.421,4.376
	c0.824,2.682,1.631,5.369,2.438,8.057c1.636,5.448,3.328,11.082,5.141,16.566c1.044,3.156,2.297,6.316,3.508,9.372
	c0.86,2.17,1.75,4.413,2.562,6.649c0.911,2.505,1.715,5.08,2.492,7.571c0.35,1.122,0.7,2.243,1.06,3.358l0.276,0.856l-0.823,0.365
	c-12.219,5.417-24.515,8.864-36.062,11.929c-5.17,1.373-10.34,2.743-15.511,4.113c-8.301,2.2-16.602,4.4-24.9,6.609
	c-5.935,1.58-11.869,3.168-17.802,4.756c-8.702,2.328-17.7,4.736-26.557,7.08c-7.597,2.01-15.472,3.997-22.419,5.75
	c-7.42,1.872-14.971,3.746-22.273,5.558l-3.455,0.857c-1.842,0.457-3.719,0.895-5.534,1.319c-3.78,0.882-7.688,1.795-11.448,2.92
	c-5.815,1.741-11.685,3.679-17.361,5.553C158.261,216.088,155.527,216.99,152.789,217.875z"/>
<path d="M191.884,152.534c-0.615,0.863-0.77,2.115-0.474,3.827c0.07,0.405,0.105,0.805,0.139,1.192
	c0.052,0.586,0.1,1.14,0.262,1.604c0.203,0.581,0.389,1.178,0.576,1.776c0.559,1.789,1.087,3.48,2.047,4.811
	c4.535,6.283,10.501,10.119,17.734,11.404c2,0.355,4.127,0.414,6.183,0.47c0.976,0.027,1.984,0.055,2.979,0.113
	c0.915,0.054,1.854,0.081,2.79,0.081c5.364,0,11.105-0.884,17.552-2.702c7.802-2.2,14.764-6.632,21.801-11.367
	c1.219-0.82,1.898-1.821,1.962-2.892c0.07-1.169-0.599-2.424-1.885-3.535c-0.335-0.29-0.673-0.577-1.011-0.864
	c-1.082-0.921-2.202-1.872-3.234-2.905c-5.759-5.757-11.594-11.63-17.237-17.309l-5.923-5.96c-0.053-0.053-0.107-0.104-0.162-0.155
	c-0.134-0.125-0.286-0.267-0.431-0.443c-0.922-1.121-1.255-2.161-0.99-3.089c0.252-0.88,0.996-1.535,2.213-1.946
	c2.526-0.854,5.473-1.795,8.479-2.15c2.916-0.345,5.889-0.443,8.764-0.539c1.206-0.04,2.412-0.08,3.616-0.137
	c1.734-0.083,2.894-0.989,3.547-2.769c0.546-1.489-0.064-3.264-1.553-4.523l-0.358-0.3c-0.884-0.738-1.798-1.501-2.447-2.505
	c-1.707-2.641-3.381-5.459-4.977-8.375c-0.961-1.756-1.886-3.564-2.78-5.313c-1.443-2.822-2.935-5.739-4.597-8.469
	c-4.748-7.8-8.779-15.211-12.323-22.655l-0.26-0.55c-0.551-1.17-1.071-2.274-1.76-3.246c-0.641-0.903-1.374-1.464-1.914-1.464
	c-0.169,0-0.336,0.054-0.509,0.165c-1.807,1.155-3.388,2.816-4.982,4.559c-0.104,0.172-0.134,0.938,0.048,1.383
	c1.094,2.675,2.091,4.771,3.136,6.593c1.936,3.377,3.94,6.792,5.879,10.096c2.638,4.495,5.365,9.144,7.965,13.767
	c1.838,3.269,3.508,6.615,5.276,10.159c0.82,1.643,1.66,3.328,2.548,5.065l0.601,1.177l-1.296,0.259
	c-0.716,0.143-1.376,0.242-1.959,0.33c-1.099,0.166-1.967,0.296-2.696,0.622c-4.29,1.913-8.85,2.654-13.26,3.37
	c-1.198,0.195-2.436,0.396-3.645,0.617c-2.091,0.383-3.484,1.81-4.517,4.626c-0.53,1.445-0.078,2.699,1.509,4.194
	c7.362,6.935,15.065,14.358,22.895,22.06c2.118,2.084,4.066,4.241,6.128,6.525c0.926,1.026,1.86,2.06,2.818,3.097l0.743,0.804
	l-0.867,0.668c-0.348,0.268-0.641,0.521-0.925,0.767c-0.591,0.511-1.101,0.953-1.764,1.209c-1.039,0.402-2.098,0.848-3.122,1.279
	c-2.856,1.202-5.809,2.446-8.891,3.002c-6.366,1.149-12.846,1.52-18.346,1.732c-0.706,0.027-1.344,0.04-1.95,0.04
	c-3.685,0-8.404-0.43-12.211-3.781c-3.333-2.934-7.11-6.259-7.57-11.919c-0.114-1.406-2.732-3.274-3.86-3.274
	c-0.027,0-0.053,0.001-0.077,0.005C193.617,151.123,192.495,151.676,191.884,152.534z"/>
<path d="M170.137,104.783c0.274-0.065,0.588-0.131,0.929-0.202c0.958-0.2,2.151-0.449,3.237-0.87
	c0.801-0.311,1.438-0.963,1.793-1.836c0.407-1.002,0.388-2.129-0.053-3.094c-0.705-1.543-3.011-3.001-4.745-3.001
	c-0.389,0-0.718,0.079-0.953,0.227c-2.249,1.421-3.45,3.069-3.78,5.188c-0.197,1.264-0.078,2.131,0.364,2.651
	C167.432,104.44,168.511,104.755,170.137,104.783z"/>
<path d="M275.367,72.489c-1.17,1.601-2.009,2.9-1.312,3.841c0.486,0.655,1.61,1.073,2.698,1.476
	c0.496,0.184,1.007,0.374,1.492,0.595l0.059-0.001c0.154-0.005,0.376-0.011,0.708-0.013c0.168-0.039,0.37-0.078,0.595-0.122
	c0.74-0.144,1.753-0.341,2.614-0.752c0.719-0.343,1.45-1.088,1.737-1.773c0.649-1.548-0.46-3.933-2.525-5.431
	c-0.761-0.552-1.345-0.798-1.895-0.798c-0.69,0-1.482,0.394-2.57,1.278C276.388,71.263,275.834,71.85,275.367,72.489z"/>
</svg>
