<svg xmlns="http://www.w3.org/2000/svg" viewBox="0 0 468.8 346.7" style="enable-background:new 0 0 468.84 346.72" xml:space="preserve"><path style="fill:#c1c1c1" d="m7.5 62 250-57.5 58 157.5 153 105-2.5 11-285.5 61.5L48 239.5l-36-157z"/><path d="m173.6 346.7 181.2-42.2 1.4-.5 2.2-.8 5.6-1 2.4-.4.8-.2 1-.2 7.5-1.3 17.5-3 6.1-1.5a126.7 126.7 0 0 1 14.5-3l8.6-1.6 4-.9c5.6-1 11.4-2.2 17-3.7 6.2-1.6 12.4-3.6 18.4-5.5l2.6-.9c.8-.2 3.3-1.2 2.6-3.4a8 8 0 0 1 1.2-7.2c.9-1.3.8-2.7 0-4.1a12 12 0 0 0-2.5-2.9l-11.8-8.9-5.2-3.8-3-2.3c-3.4-2.5-6.8-5-10-7.6l-4.7-3.7c-2-1.6-4-3.3-6.2-4.9-1.6-1.2-3.4-2.3-5.1-3.4-1.4-.9-2.8-1.7-4.1-2.7-1-.6-1.9-1.4-2.7-2.1l-2.5-2a253 253 0 0 0-7-4.7l-2.9-2a1181 1181 0 0 0-14.6-9.6c-2.4-1.7-5.1-3-7.7-4.4l-4.3-2.1c-5.2-2.9-10.2-6.3-15-9.5l-1.7-1.1-19-13-3.4-2.4-1.6-1.3c-.5-.5-1-1-1.5-1.3l-12.3-7-1.4-.5-1.7-.6c-.8-.4-1.9-1.1-2.5-2.1-.6-1.1-1-2.3-1.3-3.5v-.2c-.5-1.5-.9-3.1-1.2-4.6-.7-2.9-1.5-5.8-2.4-8.6l-5-13.3a561 561 0 0 1-4.5-11.9c-1.5-4-2.8-8-4-12l-2.9-8.5a1803 1803 0 0 0-16-45l-1.4-3.6A644.2 644.2 0 0 1 264.7 16L262 6.8c-.6-2-1.4-4-3.5-5a12.4 12.4 0 0 0-5.8-1.8c-1.4 0-2.8.4-4.1 1.2-.7.5-1.5.6-2.2.7l-.6.2-10.3 2.2-10.1 2.2-4.9 1.1-9 2-11 2.2-15.2 3c-7.3 1.5-14.4 3.2-22.8 5.3-5 1.2-10.7 2.6-16.2 4.3a84.8 84.8 0 0 1-16.8 4 476.3 476.3 0 0 0-11.5 3A253.3 253.3 0 0 1 87.9 39L76.3 41 55 46l-11.6 2.6-4.2 1c-2.5.4-5 .9-7.4 1.6l-21 6.2L2.2 60c-1.9.6-2.2 1-2.3 1 0 .3 0 .8 1.2 2.4l.1.2c.7 1 1.8 2.4.5 4-1.4 1.9-.8 3.4.3 5.8l.3.8.8 1.7C4.5 78.3 6 81.2 5 84.7c0 .1 0 .6.2 1l.2.6a16303 16303 0 0 0 6.2 26.6 14538.8 14538.8 0 0 1 18.3 80c1.6 7.4 3.2 15 5.1 22.3l1.4 5.4a161.5 161.5 0 0 1 5.2 24.8c.8 2.4 2.1 2.4 2.6 2.4h1.1c2.1 0 3.5 1.1 4.6 2.2l.9.7c2.6 2.3 5.4 4.8 8.2 7L71.6 268a2858.4 2858.4 0 0 1 10.1 8.3l.9 1m378-5c-.2.6-.8 1.4-2.2 1.9l-1.9.6a470 470 0 0 1-36 9.7l-11.7 2.3-10.2 2-14.1 3.2-14.6 3.2a63 63 0 0 1-5.4.8l-4.2.7-3.7.6c-6.6 1.3-13.5 2.5-20.1 4a400.2 400.2 0 0 0-21.7 5.4l-8 1.9c-4.2 1-8-.9-12.2.2-3.8 1-8.1 5-11.9 6l-15 3.9c-2.7.7-5.5 1.2-8.3 1.7l-6.3 1.3-9.2 2.2-12 2.7-23.9 4.9-5.3 1-8.8 1.7-15 3-1.5.2c-1.2 0-2.3-.4-3.4-1.2l-9.3-6.8-7.6-5.5-6.6-4.8c-3.8-2.9-7.8-5.8-11.8-8.6-3.2-2.2-6.1-4.9-9-7.4a133 133 0 0 0-5.8-5l-13.5-10.4c-3-2.3-4.7-4.5-7.8-6.9-9.4-7.3-20.1-14.6-28.8-21.5l-13.3-10.7-7.6-6.2-2.3-1.6c-.9-.5-3.4-2-2.8-5.3.1-.5 0-1-.1-1.5-2.6-6-4-12.4-5.5-18.6l-1.6-6.7a981.9 981.9 0 0 1-8.4-38.1l-1.1-6.5c-.2-1-.5-1.9-.9-2.9-.5-1.5-1-3.1-1.1-4.8 0-3.7-1-7.3-2-10.7l-1.1-4.8c-.8-3.6-2-7.2-3-10.6l-1.4-4.7-.1-.4-.3-1.2c-.5-5.2-2-10.2-3.4-15l-1.8-6.2c-.3-1.2-.5-2.8.1-4 1.6-3.2.9-6.6 0-9.5-1.2-4.5-2.8-9-4.3-13.3a848.2 848.2 0 0 1-2.7-8l-.5-1.6-.3-1 .9-.3 3.4-1.3 7.3-2.6c5.7-2 11.7-3.2 17.5-4.4a353.9 353.9 0 0 0 12.6-3l5.8-1.4c6.2-1.5 13.3-3.2 20.4-4.7l5.7-1.2c7.5-1.7 15.2-3.4 22.9-4.6 5.2-.9 10.3-2.5 15.2-4 3.7-1 7.6-2.2 11.4-3.1l6.9-1.5 7.7-1.6 10.2-2.6 5.7-1.4 7.5-2a1546.4 1546.4 0 0 1 48.4-11.4 552 552 0 0 1 20.9-4l.7-.2c.6 0 1.1-.2 1.5-.4a25 25 0 0 1 11-2h.7l.2.7 1.6 4.5 3.5 10.3 2.3 7.2c1 3.5 2.2 7 3.4 10.5 3.3 9.6 6.3 18 9.3 26 .8 2.3 1.8 4.7 2.8 7l3 7.2 3.4 10.3 2 6 1.9 5.6c2 6 4 12.3 6.3 18.4l3.9 10.2c2.9 7.6 6 15.5 8.1 23.5l.3 1.7.3 1.6.3.7a38 38 0 0 0 2 5.4c.7 1.5 1.9 2.5 3.8 3 5.9 1.7 10.8 5.1 15.3 8.5l.7.6a247 247 0 0 0 24.2 17 3331.7 3331.7 0 0 0 23.9 14c3.1 1.8 6.4 3.6 9.5 5.6 2.1 1.2 4.2 2.6 6.1 4l4.5 3c6.2 4 11.7 8 17 12.3 1.6 1.2 3.3 2.2 5.2 3.2 1.7 1 3.4 1.9 5 3l.4.4c6.8 5.2 13.8 10.5 20 16.6.6.6 1.4 1 2.1 1.6l1.5 1 11.8 9c.8.6 1.5 1.4 2 2.2.7 1.3.6 2.2.4 2.8zm-268 45a105.9 105.9 0 0 0 13.5-3.6l4.3-1.5c2-.7 4-1.4 6-1.9l8.8-2 7.1-1.5 13.8-3.5 5.4-1.4 2.5-.6 10.5-2.7 10.4-2.9 10.4-2.8 6-1.5 7-1.8 3.8-1.2 4-1.2 7-1.8 9-2.3 6.8-2c3.6-1.1 7.3-2.3 11-3.1 8-1.8 16-3.5 23.8-5l10.2-2.2c.5 0 1-.2 1.6-.4 1.2-.3 2.4-.6 3.6-.6a88 88 0 0 0 21.6-4.6c2.3-.7 2.7-1.3 2.9-4.4.1-1.6.5-3.2 1-4.6.5-1 .3-1.5-.4-2.2l-.2-.3c-.7-.6-1.4-1.3-2.1-1.7l-3-1.5c-1.6-.8-3.2-1.6-4.6-2.6a304.8 304.8 0 0 1-27.5-21l-11.4-9.1c-3.7-3-7.6-5.7-11.5-8.4l-1.3-1-7.5-5c-4.5-3.1-9.2-6.3-13.6-9.7-4.7-3.5-9.8-6.8-14.6-10l-5-3.2c-1.1-.7-2.1-1-3-1-2.3 0-3 2.1-3.2 3.4-.5 2.8-2 3.7-4.3 4.3-5.5 1.3-11 3-16.4 4.5l-1.1.3-4.9 1.6c-2.6.8-5.3 1.7-8 2.3l-.7.2c-1.2.3-2.4.6-3.8.6-1 0-2-.2-3-.6a10.8 10.8 0 0 0-3-1c-.2.3-.4 1.9-.5 3.1l-.1.5-.4.3-.4.2-.7.4-4.1 1a287.8 287.8 0 0 0-12 3.2l-3.6 1.2c-7.5 2.1-13.8 3.9-19.8 5.4l-6.2 1.4a172.5 172.5 0 0 0-13 3.4l-8.2 2.3c-5 1.2-10.2 2.5-15.4 3.2-5 .7-10 1.2-14.8 1.7l-12 1.4c-4.4.6-9 1.3-13.3 2.1l-3.9.7-3 .6-2.8.6-5.9 1-22 3.8c-3.9.6-4.7 2.4-6 6.8-.6 1.8.4 2.5 2.4 3.7l1.1.7h.2l.5.4 5.5 4.4 12.7 9.9 4.7 3.4 4.7 3.4 11.4 8.8 14.3 11 8 5.9c4 2.9 8.1 6 12 9.1 2.4 2 5 3.8 7.4 5.5A91.4 91.4 0 0 1 182 318c.7.8 1.8 1.6 2.7 1.6.4 0 .7-.1 1-.3a9.9 9.9 0 0 1 5.3-1.8l1.6-.3zm63.1-23.7c-9.6 3.1-19.7 5.9-31.9 8.6h-.5l-.4-.3-2.6-2.4c-1.7-1.6-3.3-3.2-5-4.6a368 368 0 0 0-11.3-9.2l-7.4-6.2-1.2-1.3-.7-1-.8-1 1.2-.5 1.7-.8c1.2-.5 2.2-1 3.4-1.2a193.4 193.4 0 0 1 13.1-2.8 239.4 239.4 0 0 0 13.5-3.4c1.4 0 2.3.7 3 1.3l18.8 16.6a80.4 80.4 0 0 1 5.9 4.6 36.7 36.7 0 0 0 1.8 2l.8 1.1-1.4.5zm0-49 3.4 2.7 1.4 1.4.9 1 1 1.1-1.4.5-1.5.6-2.6.9-16.3 4.8-5.2 1.5-.5.2-.8.2c-1.5.6-3 1-4.3 1-3 0-5.6-1.5-8.3-4.5a26 26 0 0 0-6-4.5 68.4 68.4 0 0 1-5.7-3.7l-1.3-.9-.5-.3v-.6l.1-.9v-.7l.8-.2 1.6-.4c1.2-.4 2.5-.8 3.9-.9 8.5-.8 16.8-3.1 25-5.3l1-.3c1-.3 2-.5 3-.5a8 8 0 0 1 5.6 2.4c2.1 2 4.4 3.8 6.7 5.5zm-6.2-9 2-.6 3.1-1 5.6-1.5a601.2 601.2 0 0 1 24.8-5.6l1.1-.1c.7 0 1.7.1 2.5.6l13 8.9c.5.3.8.8 1.2 1.4l.5.7.8 1-1.1.5-.7.4-1.5.7-13.1 3.7-14.3 4c-1 .3-1.8.5-2.6.5a6 6 0 0 1-3.6-1.2l-11-7.8-5-3.5-1.7-1.2zM211.3 254l.6.4c3 1.9 6 3.8 9.3 6.4l1.2 1-1.4.7-1.2.6c-.6.4-1 .6-1.5.7l-8.6 2.1a892 892 0 0 0-17.4 4.5c-.9.2-1.7.4-2.5.4-2 0-4-.8-6-2.4l-11.5-9.3-1-.5-1.2-.6-3.5-2.3-1.4-.9-.5-.3v-.6l.2-.7V252.3l.7-.2 1.3-.5c1-.3 2-.7 3.1-.9l18.6-3.4 2.3-.5 1.6-.2c.8 0 1.6 0 2.2-.4.9-.4 1.8-.6 2.6-.6 2.1 0 3.8 1.3 5.4 2.5h.1l8.5 6zm85.6 28.6-1.5.6-2.6.8-12.3 3.1-13.3 3.4-1.8.3c-.8 0-1.5-.3-2.2-.8l-7.3-5.2-9.2-6.7c-3-2.2-5.8-4.6-8.5-6.8l-3.8-3.2-.7-.6.5-.7c1.2-1.8 2.9-2.3 4.2-2.6l.7-.2c6.4-2 14-4.4 21.5-6.5 2.4-.7 5.1-1.2 8.5-1.7h.4c1.2 0 2.4.6 3 1.2 3.6 3 6.5 5.6 9 8l11.5 11.2 2.9 2.9 1 1.1c0 .3.3.6.5.9l.9 1-1.4.5zm45.8-12.3-35.3 9.5-1.5.4-.5.2-.4-.4-3.8-3c-2.7-2.1-5.3-4.2-7.7-6.3L289 267c-4-3.2-8-6.6-11.3-11.2l-.5-.8.8-.6c2.2-1.5 4.6-2.2 7-3 .5 0 1-.2 1.3-.3l14.6-4.2 1.2-.3 1.8-.5a93.8 93.8 0 0 1 8-2c1 0 2.2.5 3 1.1 9.4 7.3 18.5 14.7 25.4 20.2.6.5 1.1 1.2 1.8 2l1 1.3 1.1 1.2-1.5.4zm14.6-36 3.9-.5h.8c2 0 3.5.9 4.7 1.8l.5.5c3.3 2.7 6.8 5.5 10.2 8 3.6 2.7 7.3 5.3 11 7.8l4.9 3.4c1 .7 2 1.4 2.7 2.7l.7 1.1-1.3.4c-8 2-16.1 3.6-24 5-6.7 1.2-13.6 2.5-20.3 4.1l-.6.1-.4-.3-3.3-3-9.4-8.2c-.7-.6-1.4-1-2.3-1.5l-.3-.2c-4.5-2.7-8.4-6.2-12.6-10l-2.3-2-1.4-1.3 1.8-.5a160.4 160.4 0 0 0 7.7-2.2l5.8-1.1 7.7-1.6c5.3-1.3 10.6-2 15.8-2.6zm-21.2-19.7.3-1.4 1.3.8c1.5 1.2 3.2 2.2 4.7 3.2 4 2.6 8.3 5.3 11.7 9.4l1 1.2-1.5.4-4.4 1-8.4 2a3487 3487 0 0 1-29 6.1c-.5 0-1.5 0-2.2-.6-4.3-2.8-8.6-5.8-12.3-8.4l-1.1-1.1a18 18 0 0 0-.7-.9l-1-1.1 1.5-.5a80 80 0 0 0 1.9-.6c1.3-.5 2.5-1 3.7-1.2 7-1.4 14.3-2.6 21.3-3.9l3.6-.7 1.3-.2c1.6-.3 3.2-.6 4.8-.7 1.8 0 3-.5 3.5-2.8zm-71.8-12 1.5-.7 2.2-1a272 272 0 0 1 32.7-8.4c1-.9 2-1.3 3.2-1.3 1.6 0 3 1 4.3 2a862.1 862.1 0 0 0 18.3 12.6c1.4 1 3 2 3.8 4.4l.3 1-1.1.3-4.6.9-10.9 2a98.9 98.9 0 0 0-6.8 1.7 1798.7 1798.7 0 0 1-19.4 3.7c-1.3 0-2.5-.4-3.5-1.2l-13-9.4-1.8-1.3-3.3-2.2c-.6-.5-1.2-1-2-1.4l-1.4-1 1.6-.7zm-37.2 10.8.4-1.2.1-.4.5-.2 2.2-.7 4.8-1.5 11.3-2.7a2096.5 2096.5 0 0 0 9.6-2c1.1 0 2 .4 2.8 1.3 2.6 3.2 6 5.5 9.6 7.8a130.2 130.2 0 0 1 6.8 5l1.6 1.2 1.3 1-1.6.7-1.2.5c-.7.3-1.2.6-1.8.7l-8.7 2.1-17 4.2c-.5.2-1 .2-1.5.2-1.7 0-3.2-.8-4.4-2.5a28 28 0 0 0-9.9-8.2c-1.3-.7-2.4-1.9-3.4-3l-1.3-1.3-.4-.5.2-.6zm-44.2 10.4 2.2-.8 3.8-1.5a200 200 0 0 1 9.8-2.5l5.5-1.2 8.3-2a49.7 49.7 0 0 0 7.4-2.5l1-.3.3 1c.9 3.6 3.4 5.6 6.2 7.7l.4.3c1.3 1 2.8 1.9 4.3 2.8l2.6 1.6 2.6 1.8 1.6 1.3 1.6 1.2-1.9.5c-9.6 3-17.6 4.9-25.4 6a206 206 0 0 0-11 1.9c-1.3 0-2.4-.4-3.5-1.3a173.8 173.8 0 0 0-10.3-7.3l-3.8-3.2-2-1.8-1.2-1 1.5-.7zm-46.8 7.2.2-.5v-.3l.3-.6h.6l3.2-.4 7.1-.8 17.4-2 3.2-.4c1.9-.3 3.8-.6 5.8-.7h.2c1 0 2.5.5 3.2 1.4 3.2 4.4 7.1 8 11.6 11 .4.2.7.6 1 1l.5.8.8 1.1-1.3.4-1.2.5-2.4.8-25.3 5-1 .2-1.7.2c-1.4 0-2.6-.4-3.7-1.3l-7.7-5.3-4.3-3c-.5-.3-1.2-.8-1.6-1.5-1.3-2-2.7-3.5-4.4-4.4l-.8-.4.3-.8zm-19.2 25.4c-.7 0-1.8-.1-2.5-.7-5.5-4.2-11.1-8.7-16.5-13l-2.2-1.7c-.4-.3-.5-.7-.7-1l-.3-.9-.5-1 1-.4c.4 0 .8-.2 1.1-.3.7-.3 1.4-.6 2.1-.7l5.3-.9 7.2-1.2a270 270 0 0 0 14-2.8 5 5 0 0 1 3.3 1.2l7.3 6 3 2.5 1.1 1 3.2 2.6 2.1 1.8 1.3 1.2 1.4 1.3-1.8.4a326.4 326.4 0 0 0-10 2.6 805.4 805.4 0 0 1-19 4zm32.7 24.9c-1.3 0-2.5-.4-3.6-1.2l-8.5-6.4-9.7-7.3-2.4-2-1.3-1.3-1.1-1 1.4-.6a81 81 0 0 1 17.3-5l2.8-.5 1.5-.3a28 28 0 0 0 4.2-1c1.1-.4 2.2-.6 3.3-.6 3 0 5.5 1.6 7.6 3.1 2 1.5 4.1 3 6.2 4.3l3.5 2.4 8.6 6 .9 1.2.3.7.7 1.2-1.3.3-4.6 1.3a2832 2832 0 0 1-25.8 6.7zm33.8 27.5c-1.1-1.2-2-2.2-3.1-3l-5.7-4.2-3.7-2.8-15.8-12c-.3-.2-.5-.6-.7-1l-.3-.6-.6-1 1-.4 1-.5 2.2-.8 17.7-4.3 1.4-.3 1.4-.4a27.3 27.3 0 0 1 6-1c3.1 0 5.6 1.1 7.8 3.3a338.8 338.8 0 0 0 18 16.7l.1.1c.6.6 1.3 1.2 1.9 1.4 2.4.7 3.2 2.6 4.1 4.7l.2.4.5 1-1.2.4-5.2 1.4-12 3.2-3 .8-3.9 1.1c-.9.2-1.8.4-2.6.4-2.1 0-4-.9-5.5-2.6z"/><g><path style="fill:#ade5f2" d="m29.4 76.4 207-50.5 8 3 44 130-220.5 59-5-1z"/><path d="M85.6 216.5c3.3-.9 6.6-2 9.8-3 3.3-1 6.7-2.2 10.2-3 4-1.1 8.3-1.9 12.4-2.7l5.9-1c4.4-1 9-1.9 13.5-3.5a111 111 0 0 1 11.4-3.1 199.1 199.1 0 0 0 16.9-4.7l11.7-3.2c3.2-.9 6.5-1.6 9.7-2.4l11.2-2.8c1.8-.4 3.6-1 5.3-1.6 1.7-.6 3.6-1.3 5.4-1.7 5.4-1.4 10.8-2.8 16.1-4a1613.5 1613.5 0 0 0 46.6-12.5c1.7-.4 3.4-1 5-1.7l4-1.4c1.1-.4 2.2-.6 3.2-.8 1-.2 2-.4 3-.8a8 8 0 0 0 5.1-4.1c1-2 .8-4.4-.2-7-1.4-3.4-3-7-4.4-10.7l-1.5-4.2-1.1-3.1-1.6-4.1c-1-2.4-2-5-2.7-7.5l-6.4-20.4-4-12.7c-.2-.7-.5-1.5-.9-2.2a24 24 0 0 1-1-2.7l-2.2-8a395 395 0 0 0-3.4-11.7c-1.8-6-3.8-12-5.8-17.8l-1.8-5.6-.5-1.3L250 26c-.6-1.7-1.1-2-2-2l-1.5.2-.6.1c-.5.1-1.1.3-1.7.3-.5 0-1-.2-1.3-.4a9 9 0 0 0-5.1-1.4c-1.9 0-3.8.4-5.7.8h-.4l-17.4 4-10.9 3c-4 1.1-8 2.3-12.1 3.3l-24.1 5.8-7.1 1.7-16.2 3.9-12.5 3-9.4 2.2-1.8.4-.7.2-8.3 2c-1.7.5-3.3 1-5 1.3l-4.7 1.3-1.8.4c-2.4.6-4.8 1.3-7.3 1.8a99.3 99.3 0 0 1-8 1.5l-5 1.1-2.2.6a76 76 0 0 1-4.7 1c-3.3.5-6.3 1-9.2 2.3-1.2.6-2.5.8-3.8 1.1l-.6.2a433 433 0 0 1-12.7 2.8L40.6 70c-2.9.9-5.9 1.7-9 2.3l-1 .2c-2 .4-4 .7-5.8 2v.2l.4.8c2.5 2.2 3 5 3.5 7.8v.1l1.3 6.4c1.3 7 2.6 14 4.1 21 .8 4 1.8 7.8 2.8 11.6l2.3 9.1 3 14 2.8 12.3 1.2 4.5 1.4 5.2c2 9 3.5 16.8 4.9 24.2.5 3 1.3 6.2 2 9.2 1.5 5.5 3 11.3 3.1 17.2 0 2 1 2.8 3 2.8h.5c.6 0 1.3-.2 2-.4l1.1-.2.7-.2c.5-.2 1.1-.4 1.7-.4h.5c1 .3 2.2.4 3.3.4 3.6 0 7.2-1.1 10.7-2.3l4.5-1.3zm-13.9-1.3c-1.2.3-2 .5-2.6.5-2.1 0-2.7-2-3.2-3.6l-3.1-10-2.6-8.4-.3-1.7-.1-.6-.6-4.2c-.5-3.7-.9-7.2-2.2-10.6-.8-2.4-1.1-4.9-1.5-7.3l-.7-4.6-2.3-9a293 293 0 0 1-2-8.4l-3-13-2.6-11.8c-.2-1-.6-2-1-3.1a195.1 195.1 0 0 1-3.6-17.6l-1.5-6.2-1.4-6.5c-.4-1.8-.6-3.7-.8-5.5l-.3-2.7c-.4-2.8 2-3.5 2.7-3.7l8.7-2.5 5.2-1.5c2.6-.8 5.3-1.4 8-2 4-1 8.2-1.9 12.1-3.4 2.1-.8 4.4-1 6.6-1.3l3.8-.5.8-.2a798.6 798.6 0 0 0 35-8l10.3-2.8a1698.2 1698.2 0 0 1 45.1-10.2l1.4-.3a151 151 0 0 0 21.5-5.5c3.9-1.4 7.9-2.5 11.8-3.4a179.5 179.5 0 0 0 16.1-4.8c3.3-.8 6.6-1.4 9.8-2l3.4-.7h.8c1 0 2.3.3 3 2.1l.6 1.2.9 2 3.4 10.6 4 12.4c3 9.6 6.2 19.2 9.3 28.6l3.8 11.8a157.7 157.7 0 0 0 2.1 6.4l2.5 8c1.6 5.5 3.3 11.2 5.1 16.7 1 3.1 2.3 6.3 3.5 9.3l2.6 6.7 2.5 7.5 1 3.4.3.9-.8.3a238.2 238.2 0 0 1-36 12l-15.6 4-24.9 6.7a11714.2 11714.2 0 0 0-44.3 11.8 1975 1975 0 0 1-44.7 11.3l-3.5.9-5.5 1.3c-3.8.9-7.7 1.8-11.5 3-5.8 1.7-11.6 3.6-17.3 5.5l-8.2 2.7z"/><path d="M118.3 150.8c-.7 1-.8 2.2-.5 3.9l.1 1.2a74.4 74.4 0 0 1 .8 3.4c.6 1.7 1.2 3.4 2.1 4.8a27.2 27.2 0 0 0 17.7 11.4c2 .3 4.2.4 6.2.4l3 .1 2.8.1a64.5 64.5 0 0 0 39.3-14c1.3-.9 2-1.9 2-3s-.6-2.4-1.9-3.5l-1-.8-3.2-3-17.3-17.2-5.9-6-.1-.2c-.2 0-.3-.2-.5-.4-.9-1.1-1.2-2.2-1-3 .3-1 1-1.6 2.2-2 2.6-.9 5.5-1.8 8.5-2.2 3-.3 6-.4 8.8-.5l3.6-.2c1.7 0 2.9-1 3.6-2.7.5-1.5-.1-3.3-1.6-4.6l-.4-.3c-.8-.7-1.8-1.5-2.4-2.5a133.3 133.3 0 0 1-7.8-13.6c-1.4-2.9-2.9-5.8-4.6-8.5-4.7-7.8-8.7-15.2-12.3-22.7l-.2-.5c-.6-1.2-1.1-2.3-1.8-3.3-.6-.9-1.4-1.4-2-1.4l-.4.1a26.1 26.1 0 0 0-5 4.6v1.4c1.1 2.7 2.1 4.8 3.2 6.6l5.9 10 8 13.8c1.8 3.3 3.4 6.7 5.2 10.2l2.6 5 .6 1.3-1.3.2-2 .3c-1.1.2-2 .3-2.7.7-4.3 1.9-8.9 2.6-13.3 3.3l-3.6.7c-2.1.3-3.5 1.8-4.5 4.6-.6 1.4-.1 2.7 1.5 4.2l22.9 22 6.1 6.6 2.8 3 .8.9-1 .6-.8.8c-.6.5-1.1 1-1.8 1.2l-3.1 1.3c-2.9 1.2-5.8 2.4-9 3a132.5 132.5 0 0 1-20.2 1.8c-3.7 0-8.4-.5-12.2-3.8-3.3-3-7.1-6.3-7.6-12-.1-1.4-2.7-3.2-3.8-3.2h-.1c-1.7.2-2.8.8-3.5 1.7zM96.5 103.1l1-.2 3.2-.9c.8-.3 1.4-1 1.8-1.8.4-1 .4-2.1 0-3.1a6 6 0 0 0-4.8-3c-.4 0-.7 0-1 .2-2.2 1.4-3.4 3.1-3.8 5.2-.2 1.3 0 2.1.4 2.7.5.6 1.6.9 3.2.9zM201.7 70.8c-1.1 1.6-2 3-1.3 3.9.5.6 1.6 1 2.7 1.4l1.5.6h.8l.6-.1c.7-.1 1.7-.3 2.6-.8.7-.3 1.4-1 1.7-1.7.7-1.6-.4-4-2.5-5.4-.8-.6-1.3-.8-1.9-.8-.7 0-1.5.3-2.5 1.2a8 8 0 0 0-1.7 1.7z"/></g></svg>