<svg version="1.1" id="Layer_1" xmlns="http://www.w3.org/2000/svg" x="0" y="0" viewBox="0 0 348 321.8" style="enable-background:new 0 0 348 321.79" xml:space="preserve"><style>.st0,.st1{fill-rule:evenodd;clip-rule:evenodd;fill:#f7c0c2}.st1{fill:#888989}</style><path d="M157.7 316.3c-15.6-6.3-20.1-11.4-28.8-18.9-4.5-4-8.3-8.1-11.3-13.3l-6.3-10.5-.7-.9c-1.8 2.7-3.9 5.2-7.7 5.9-2.7.4-5.2 1.8-8 2.7-1 .5-2.2 1.1-3.1 1.1-5 .3-9 2.3-13.6 3.7l-8.2 1.6c-5 1.1-9.7 2.2-14.7 3.8-2.3.7-4 1-6.6.5-2.5-.5-5.4 0-8.1.4l-15.7 1.8h-8.6l-5 .5-7.2-.7c-1.1 0-4.3-3.6-4-4.5a2 2 0 0 1 .8-1.6c3.6-3 7.3-6.1 10.2-10 .5-.4 1.6-.7 2.7-1.1l1.8-2.7 5.5-9.6c2.3-3.6 3.6-7.4 5.4-11.3a49 49 0 0 0 4.6-14.5l3.1-10.4c1.7-6 2.9-12 3.7-18.2.6-6.6.6-13.1.9-19.7v-12l-.7-8.2.4-25.4c0-3.1.7-6.3 1-9 .4-3.4.2-6.8.6-10 0-1.8.5-3.6 1-5.5l2.9-12.2c1.8-5.2 2.3-11.1 5.4-15.9 1.8-2.7 2.7-6 4.6-9 2.7-5 4-10.5 7.7-15.2 3.6-4.6 6-10 9.2-15 1.6-2.7 3.7-5 5.7-7.7l4.5-5.9 1.6-1.8c1.4-1.6 2.3-3.4 3.9-4.5 2.3-2.3 5-4.3 7.5-6.4 2.2-2 4.5-4.5 6.8-6 3-2.4 6.3-4.2 9.5-6l11.3-6.1 3.9-1.4 15.8-4c3-.5 6 0 8.6-.7 1.2 0 2.3 0 3.2-.7 4.5-2 9.5-1.6 14-1.8h11.4c4.5.4 8.6 2.3 12.2 5l6.8 4.5a7 7 0 0 0 3.7-.4c3-1.2 5.6-2.8 8.3-4.6 3.4-2.2 7.3-2.2 11-3.1 5.1-1.4 9.4.9 14.2 1.5a75 75 0 0 1 20.8 6.8c3 1.2 5.3 3.7 8 6 7.7 6.7 12.2 14.9 15.2 24.9l2.7 8.6c1.6 4.5 1.8 9 1.6 14l.2 1.4a61 61 0 0 1 8 22.2c.6 2.3 1.5 4.1 1.7 6l2.3 9.7c1.6 10 3.4 20.4 4.5 30.6 1 6.8.7 13.6 1.2 20 0 3.8.9 7.8.6 11.7 0 5 0 9.8-.6 14.5l-3.9 25c-.4 2.2-1.6 4.5-1.8 6.8v4.5c1 4.5 1.8 9 3.2 13.6 2.8 9 6.3 18 10.4 26.5l9.5 14 12.3 14.8A48.6 48.6 0 0 0 348 295c-2 0-1 0-3 1-6 2-11 5-27 6-54 0-56-14-59-10 0 .4-36 44-99 25m130.8-202.2h-.7l-2.2 5.5c-1.6 3-3.9 5.4-5.2 8.6-2 4.5-4.6 8.1-8 11.8-3 3.1-5.8 5.9-10.6 6.1-4 0-8.6.7-12.5-.5-5.9-1.8-9-7.2-11.7-12.2-1.2-2.3-1.4-4.5-2.3-7.2a118 118 0 0 1-4.3-18.6c0-.5-.7-1.6-1.4-1.6l-6.8-.7c-1.8 0-4-.5-5 1.4-1.6 3.4-2.3 6.8-4 10-1.9 3.8-3 7.6-6.2 10.8-2.3 2.3-4.5 5.2-7.2 7-4.8 3.1-10.3 4.8-15.9 5-4 .3-8-.4-10.4-3.1-4.5-5-8.2-10.7-12.5-16a6 6 0 0 1-1.3-2.2l-6.8-17.7c-1.4-3.1-1.4-3-4.3-2.2h-.7c-3.2 0-6.1-.7-9-1h-3.5l-7.5.7-9-.6c-1.2 0-2.3.2-2.3 1.8-.4 2.2-1.8 3.6-4.3 3.8l-4.5-.7c-6.8 0-13 1-17.3 6.8-4.5 5.7-7.9 11.8-10.2 18.6-1 3.9-1.8 8-1.5 11.8a21 21 0 0 0 10.2 15.4c3 1.8 6 2.5 9.5 1l5.6-1.9c1.9-.4 3.2.5 3.9 2.3.4.7 0 1.8-.5 2.7-.4 1-1.5 1.8-2.2 2.3l-1.2 1.4c-1.8 3.8-1.8 8.1-2.2 12.2l-1 11.3c0 6.8-.6 14.3-.6 21.6 0 4.7.7 9.7 1.6 14.5.7 4.5 1.8 8.4 2.7 12.5a234 234 0 0 0 5.9 19c2.3 5.4 3.6 11.3 7 16.1 3 4.5 5.2 9 8.2 13.2 3.1 3.8 6.8 7 10.4 10.4l10.9 9c6.8 5 15.1 6.9 23.3 9.1a80.7 80.7 0 0 0 41-.9c13.5-5 25.9-12.7 36.5-22.4l6.3-6.8 10.7-14c3.6-5.3 7.7-10.3 9.5-16.4l9.7-30.2c1-3.1 2.3-6.3 2.8-9.7l3.8-17.5 3-19.5c.6-4.5.2-9.5 0-14-1-5.7-.5-11.4-1-17.3 0-5.2-1-10.2-1.8-15.4 0-1.8-.9-3.8-1.3-5.6l-1.4-8v.3h-.2zM168.5 6.5h-7.3c-9 .9-18.1 2.5-27.2 4.5-6.8 1.6-12.9 5.2-19.2 8.4-1.6 1-3.2 1.6-4.6 2.7-6 4.8-12.2 10-17.9 15.4l-6.8 8.7c-2 2.2-4 4.7-5.6 7.4-2.3 3.2-4.1 6.8-6.2 10l-5.2 8.2L63 83.6c-2.7 6-6.4 11.5-7.7 18-1.4 6-3.4 11.7-4.6 17.3-.9 2.5-.9 5.5-1 8L48 141.4c0 6.8 0 13.6-.4 20.4-.3 5-.3 10 0 15l.2 14.4c0 4.6-.4 8.4-.7 12.5l-.9 8.4-1.6 7.2-2.2 9.8c-1 4.5-2.3 9.3-3.7 14a91.1 91.1 0 0 1-7.7 18.2L24.3 274h.3c3.1-2.3 6.8-5 9.3-8 2.7-2.7 5.6-5 6.8-8.5.2 0 2.2-.7 2.7-.5.7.5 2.3 1 1.3 2.5L42 264c-2.4 4-5.4 7.7-9 10.7-1.2.6-1.8 1.6-2.8 2.5l2.3-.5c4.5-1.8 9-3.4 13-5.4 2.2-1.2 4 0 6.7.6-5.6 4.6-12.2 6.4-17.6 10.3h5.6c1.2 0 3.2-1.4 3.7.6.4 2.3-1.8 1.8-3 2.3l-5.4 2.3c.2.4.7.4.7.4l16.5-1.3h1.6c4.5-2 8.6-3.4 13.6-3.7 3.8 0 7.2-1.6 11.3-2.2l4.5-1.6c2.3-.5 4.6-.5 6.4-1.2l6.8-3c2.5-1.5 6.8-.8 8.1-4.2h1l6.8-.5a28 28 0 0 1-2.3-5.4c-2.3-6.8-5.2-13.6-6.8-21a125 125 0 0 1-4.3-18.2c-1.2-7.7-1.4-15.9-2-23.8v-15.2c0-4.1.8-8.2 1.5-12.3l2.3-9h-3.9c-2.2-.7-5.4-1-7.7-2-3.6-1.7-6.9-4-9.5-7.1-3.8-4.2-6-9.7-5.9-15.4 0-3.2 1.2-6.4 1.6-9.5a55.5 55.5 0 0 1 11-22.7c5.1-8 14-12.5 23.5-12l3 .2.8-4.5c1.2-6.1 2.3-12.5 5.2-18.2l3-6.8 3.4-7.2c1.4-2.7 3.4-5.5 5.2-8.4l3-4L144.3 37c3.6-3.6 6.8-7.5 11.3-10 2.3-1.1 4-2.3 6.1-3.8-2.7.6-5 1.6-7.5 2.7-1.5.7-2.9 1.3-4.5.9-1.1-.5-2.3.2-2.7-1.4 0-1.3.4-2.2 1.6-2.7 1.8-1.1 3.6-2.3 5.7-3l9.7-4.2 5.4-2.3c-.9 0-1.3-.7-1.8-.5L157 15.1c-1.8.2-3 0-3.9.5-1.8.6-4.5-.7-5-2.3s.3-1.8 1.2-2.3c3-.7 6-1.8 9-2.3l10.2-2.2zM290 102.2l-1.3-5.7-4-13.2-1.9-7.2c-1.4-4.5-4.5-8.4-6.8-12.5-1.8-3.4-4-6.8-5.7-10.2a19 19 0 0 0-5.9-6.1L261 45c-4-3.4-7.7-6.8-11.8-9.5-2.7-2-5.9-3.2-9-4.5-3-1.4-6.2-2.3-9-3.4-3.7-1.4-7.6-2.3-11-3.2L207.2 21c-1.6-.5-3.2 0-4.5-.5-6-.9-12-1.8-17.7 0a92.4 92.4 0 0 0-16.8 6 49 49 0 0 0-13.1 9l-10 9.5c-3.4 3.7-6.8 6.8-9 11.4-1.6 2.5-3.4 5.2-4.6 8.1-1.6 2.8-2.2 5.7-4.3 8.4-2.7 4.8-3.8 10-5 15.2 0 1.1-.4 2.3 1.4 2.5 4.5.2 9 1.8 14 .7h.7c4.1-.5 8.2.9 12-.5l1 .5c2.2.9 2.2.7 2.2-1.4.2-2.3 2.7-4.5 4.5-4.5 3.9 0 7.5-1 11.4-2 2.5-.7 5.2-1.9 8.4-1.4l12.4 1.8 14.8 2.7 2.2.7c2.3 1 3.9 2.3 6 2.7 4.4 1.6 7.8 3.4 10.1 7.7.2.5 1 1 1.6 1h5.7c1.8.4 2.2-.7 2.7-1.9 0-2.2 2.3-3.4 3.6-4.5 1-.5 1.4-.5 2.3.4 1.1 1.4 2.5 2.3 4.5 1.2 1.7-.8 3.4-1.2 5.2-1.4 5.2-.4 10.4-.7 15.9-.7 1.8 0 4 .5 6.1 1.2 3 .9 5.7 2.7 8.6 3.4 2.3.4 4.1 1.1 5.7 2.2l5.2 3.7h-.3zm30 194.7c-5.7-2.7-11.4-5.4-17.3-7.7-1.5-.7-1.5-1.6-.9-2.3.3-1.1 1.2-2.3 1.9-2.3 1.3 0 2.7 0 4 .5l9.3 3.4v-1.1l-3.8-3.9c-1.4-1.4-1.6-4.3 0-5 1.1-1.1 2.5-.4 3.4.7 2.2 1.8 4 4 6.3 6.1l7.3 5.7.2-.5a128 128 0 0 1-36.7-63l-1.8 5c-2.3 6.1-4.1 12.5-6.2 18.6-1.3 3.2-2.2 6.8-4 9.3l-12 16.5-6 8.4c9.8 6 20 9.6 31.1 10.7 8.2.9 16.8.9 25 .9h.2zM173.7 89.5h-1.4c-3.2 1.8-6.8 3.1-9.7 5-.5 0-.5 1.3-.5 1.7l3 8 6.3 12.7c1.8 3.1 4.1 6.3 6.8 9 1.6 2.3 3.4 4.6 6.4 5.5 2.7 1.1 5.2.2 8.1 0 5.7-1 10.6-4.2 13.6-9a97.3 97.3 0 0 0 8.4-17.8c1.4-4.5 1.4-4.5-3.2-6.3l-6-2.3-6.2-1.8-4.5-.9-21.1-3.8zm86.8 9.7-16.3 1.8c-3.4.5-3.7 1.6-3.4 4.8.4 6.8 3.4 12.4 4.5 18.8.9 3.2 2.3 6.1 4.5 9l3.4 4c3 2.2 6.8 2.2 10.2 2.2 2.3 0 4-.7 5.7-2.3 1.8-2.3 4-4.5 5.4-6.8 3.4-5.9 7-11.1 9-17.5 1-2.2-.4-5.2-2.2-6.5-4.5-3-10-3.7-14.7-5.7-1.8-.9-4-1.1-6.1-1.8zM218.3 9.9l9.3 1.6c3 .4 5.4 1.3 7.7 3 .5.4.7 2.2.5 2.2-1.4.4-2.3 1.1-3.9 1.1l-7.5-.7h-2c2.3 1.2 3.8 1.8 5.9 2.3 5.9 1.1 12 2.3 17.2 5.7 3 1.8 6.8 2.7 9.5 4.7 3.4 2.3 6.4 5 9.3 7.5l10.4 9c-.6-5.6-3.4-10.3-5.9-15.1-1.5-2.7-3.1-5.7-5.4-8-4-4-9-7.4-14.5-9.7-5.2-2-10.6-3-15.9-4.3-1.5 0-3 0-4.5-.4-3.4-1-7-.6-10.2 1z"/><path class="st0" d="m291.3 114.9 1.5 7.8c.3 2.2 1 3.8 1.4 5.7.7 5 1.4 10.3 1.6 15.5.4 6 0 11.7.7 17.4.4 4.8.9 9.6 0 14.4-.7 6.5-1.6 13-2.8 19.4l-3.8 17.6c-.7 3.4-1.8 6.8-2.7 9.8l-9.8 30.4c-1.8 6.1-5.8 11.4-9.5 16.4-3.6 4.8-6.8 9.6-10.6 14.2a142.6 142.6 0 0 1-18.1 16.9c-7.7 5.2-15.9 9.4-24.7 12.5-6.8 2.4-14 3.4-21.3 3-6.8 0-13.3-.4-19.7-2.3-8.1-2.2-16.5-3.8-23.3-9.1a119.6 119.6 0 0 1-21-19.4c-3.2-4-5.4-9.2-8.4-13.3-3.4-4.5-5-10.5-6.8-16-2.2-6.4-4.3-12.8-6-19.4-1-4.1-2.4-8.2-2.8-12.3-1-4.8-1.4-9.8-1.6-14.9l.7-22c0-3.6.4-7.4.9-11.1.7-4.1.7-8.2 2.3-12.1l1-1.4c.8-.7 1.9-1.3 2.3-2.3s1-2.2.5-3c-.7-1.5-2-2.7-3.9-2.2-2 .7-4 1.1-5.6 2.3a10 10 0 0 1-9.5-1.2A21 21 0 0 1 82 140.7c-.5-4.1.4-8.2 1.6-12.1a64 64 0 0 1 10.2-18.3c4.5-6.4 10.1-7.5 17-6.8 1.5 0 3.1.4 5 .2 2.2 0 3.5-1.4 3.8-3.6.2-1.6 1.3-2.1 2.7-1.9 3 0 5.9.7 9 .5l7.3-.7h3.1l9.1.9h1c2.8-.7 2.8-.7 4.4 2.3 2.5 6.8 5.5 13.2 8.2 19.9 4.5 5.2 8.1 11 12.7 16 2.2 2.7 6.3 3.6 10 3.4 5.6 0 11.2-1.9 16-5.3 2.7-1.6 4.7-4.5 7.2-6.8 3.2-3.2 4.6-7.6 6.1-11.2 1.6-3.2 2.5-6.9 4.1-9.8 1-2.1 3-1.6 5-1.6l6.8.7c.7 0 1.3 1 1.3 1.8 1 6.4 2.3 12.5 4.6 18.7.7 2.3.9 5 2.2 7 2.8 5.3 5.7 10.8 11.6 12.4 3.8 1.4 8.4.5 12.4.5 4.8 0 7.7-3 10.7-6.2 3.3-3.4 6-7.4 7.9-11.9 1.3-3.2 3.6-5.7 5.2-8.6l2.3-5.5h.6v.2z"/><path class="st1" d="M169 6.5 159 8.3l-9.1 2.3c-1 .6-1.6 1-1.1 2.2.7 1.8 3.1 3.2 5 2.3l3-.2 10.8-2.3h1.6l-5.2 3-10 4.3-5.9 2.5c-1.1.6-1.8 1.3-1.6 2.9.5 1.6 1.6 1 2.3 1.4a6 6 0 0 0 5.2-1.2c2.3-1.1 4.5-1.8 7.5-2.7-2.3 1.4-3.9 3-6.1 3.9-4.6 2.2-8 6.3-11.4 10.2l-10.2 10.4a17 17 0 0 0-3 4l-5.4 8.5-3.4 7.4-2.7 6.8c-3.2 5.5-4 11.8-5.4 18.2l-1 4.5h-2.7a23 23 0 0 0-15 3.4 27.4 27.4 0 0 0-8.5 8.4c-4.8 6.8-9.8 13.6-11 22.7-.4 3-1.5 6.3-1.5 9A22.7 22.7 0 0 0 80 156c2.7 3.1 5.7 5.9 9.5 7.5 2.3.9 5 1 7.5 1.5h4c-.8 3.4-1.7 6.4-2.2 9.6a100 100 0 0 0-1.6 27.2c0 14.2 2 28.3 6.1 42a365 365 0 0 0 9.1 26.4h-6.8l-.7.7c-1.8 3.4-5.6 2.7-8.6 4a29.5 29.5 0 0 1-6.8 3c-1.8.7-4 .7-6.3 1.2-1.6 0-3 1.1-4.6 1.3-3.6 1.2-7.2 2.3-11.3 2.7-4.5 0-9 1.6-13.6 3.2h-1.1L36 288s-.5 0-1-.6c2.1-.5 4-1.2 5.8-2.3 1-.2 3.4 0 3-2.3-.8-2.2-2.6-.7-4-.7h-5.6c5.4-3.6 12.2-5.6 17.7-10.2-2.5-.6-4.6-1.5-6.8-.4-4.9 2.3-9.9 4.3-15 5.9l2.3-2.7c4-2.5 6.8-6.8 9-10.5 1.4-1.3 2.3-3 3.2-4.5 1-1.6-.7-2.3-1.6-2.5-.4-.4-2.2 0-2.2 0-1.4 4-4.6 6.4-7 9-2.8 3-6.2 5.5-9.4 8.2 0-.2-.4-.2-.2-.4l6.8-12.5a85 85 0 0 0 7.5-18.1l3.8-14 2.3-9.8c.5-2.5 1.1-4.8 1.4-7.3L47 204c0-4.5.7-8.4.7-12.4l-.2-14.8c-.5-5-.5-10 0-14.7 0-6.8 0-13.6.4-20.4 0-5 .7-9.8 1.1-14.5 0-2.7 0-5.5 1-8 1.5-5.8 3.6-11.5 5-17.4 1.3-6.4 4.5-12 7.4-18.2A140 140 0 0 1 68.4 72c1.4-3 3.4-5.5 5-8.2l6.1-10.2 5.7-7.5 6.8-8.6 6.1-6 11.8-9.4 4.5-3c6.4-3.3 12.5-6.7 19.5-8.3a188 188 0 0 1 27.2-4.5h8v.2z"/><path class="st0" d="m290.6 102.4-5.5-3.9c-1.6-1.3-3.6-1.8-5.6-2.2-3-1.2-5.7-2.5-8.6-3.4-2.3-.7-4.6-1.2-6.4-1.2l-15.9.7c-1.8.2-3.5.6-5.2 1.4-1.8.9-3.1 0-4.5-1.4-.7-.9-1.4-.9-2.3-.2-1.3 1.1-3.4 2-3.6 4.5 0 1.1-.7 2.3-2.5 1.8h-5.7c-.4 0-1.3-.7-1.6-1.1-2.2-4-6-5.9-10.2-7.5l-6-2.7c-.8-.5-1.4-.5-2.3-.7-5-.9-9.8-2.3-14.8-3L177.4 82c-2.9-.5-5.6.4-8.6 1.3-3.4 1.4-7 2-10.6 2a4.9 4.9 0 0 0-4.5 4.6c0 2-.5 2.3-2.5 1.4l-1-.5c-3.8 1.4-8.1 0-12 .5h-.9c-4.5.9-9-.5-13.8-.7-2.3 0-1.6-1.6-1.4-2.7a50.5 50.5 0 0 1 5-15c1.6-2.7 2.3-5.9 3.9-8.6l4.5-8.2c2.3-4.5 6.1-7.7 9-11.3l10.5-9.5c3.6-3.9 8.4-6.6 13.2-8.9 5.4-2.7 11.3-4.5 17-6.3a38 38 0 0 1 17.4.4c1.6 0 3.4 0 4.5.5 4.6.9 8.9 2.3 13 3.4l10.8 3 9.1 3.3c3.2 1.4 6.4 2.8 9 4.6 4.4 3 8.2 6.3 11.9 9.3l3.8 2.7a16 16 0 0 1 5.7 5.9l5.9 10.2c2.3 4.3 5.4 7.9 6.8 12.7l1.8 7.2 3.8 13 1.9 6z"/><path class="st1" d="M320.5 297.1c-8.6.2-17.2 0-26-1a74.3 74.3 0 0 1-32-10.8l6-8.6c4.2-5.6 8.6-11.2 12.3-17 1.9-2.8 3-6.3 4.2-9.3 2.3-6.5 4.6-13 6.3-19.3l2.3-5.1c6 24.7 19 47.1 37.4 64.6v.5l-8-5.9-6.2-6.2c-1.1-1-2.3-1.7-3.7-1-1.4 1-1.2 4 0 5.4l3.7 4 .5 1.1-9.3-3.5-4.4-.7c-1 0-1.7 1.4-2.1 2.3-.5 1-.5 1.9 1.1 2.3l18 8.2z"/><path d="M173.6 89.5c7 1.3 14.3 2.2 21.3 3.8 1.4 0 3 .5 4.6 1l6 1.7 6.2 2.3c4.5 1.8 4.5 2.3 3 6.3-2.3 6.2-4.6 12.3-8.4 17.7-3 5-8 8.2-13.7 9-2.7.3-5.2 1.2-8.1 0-3-.8-4.5-3-6.4-5.1a75 75 0 0 1-13.1-22c-1.1-2.3-1.8-5.2-2.7-8l.2-1.8 9.8-4.5 1.3-.5zm13.2 25.8 3.6-.7c1.1-.7 2.7-1.3 3.1-2.3.5-1.3 0-2.9-.4-4 0-.5-1.6 0-2.3-.7-.7 0-.7-.5-.9-.5-.7 0-1.6-.4-2.3 0-2.9 2.3-4.5 4.1-1.3 7.7.4 0 .4.5.4.5zm73.6-15.9c1.8.5 4.1.7 6.2 1.6 4.5 1.8 10 2.7 14.5 5.7 2.2 1.4 3.4 4 2.7 6.8-2.3 6.1-6 11.3-9 17-1.7 2.5-4 4.5-5.8 6.8-1.3 1.8-3.4 2.3-5.6 2.3-3.7 0-7.3.2-10.2-2.3-1.4-1-2.3-2.3-3.4-3.9a20.3 20.3 0 0 1-4.6-9c-1-6.1-4-12-4.5-18.6 0-3.2 0-4.5 3.4-4.5 5.2-1 10.7-1.4 16.3-2v.1zm4.1 20.4c0-2-1.4-4-2.7-4.3-2.3 0-5.7 2.5-5.9 4.5 0 2.3 1.4 3.7 3.6 3.9 2.3.2 4.6-2 5-4.5v.4z" style="fill:#fff"/><path class="st1" d="M218.3 10.3c3.4-1.8 6.8-2.2 10.4-1.6l4 .7c5.5 1.2 11 2.3 16 4.1a44.7 44.7 0 0 1 14.7 10c2.3 2.3 4 5 5.7 8 2.2 4.4 5 9.4 5.6 14.9l-10.4-9.1c-3-2.6-6-5-9.3-7.2-3-2.3-6.8-3-9.3-5a43.7 43.7 0 0 0-17.4-5.5c-2.3-.4-3.9-1.3-6-2.3h2.3l7.3.7c1.1 0 2.3-.6 3.8-1.3 0 0 0-1.8-.4-2.3-2.3-1.6-5-2.6-7.7-3-3 0-6.1-.6-9-1h-.3z"/><path d="m186.8 115.3-.5-.5c-3.4-3.4-1.6-5.6 1.4-7.7.6-.4 1.6 0 2.2 0l.7.5c.7.2 2.3.2 2.3.7.7 1.1.9 2.7.7 3.8-.5 1.2-2 1.8-3.2 2.3l-3.7.9zm77.7 4c0 2.6-2.7 4.8-5 4.6-2.3 0-3.8-1.6-3.6-3.6 0-2.3 3.6-4.5 6.1-4.5 1.1 0 2.7 2.2 2.3 3.8h.2v-.2z" style="fill-rule:evenodd;clip-rule:evenodd"/><path d="M221.9 124.4a220 220 0 0 0 14.3 62.8c-10.7 1.8-12 2.7-22.5 5.6-3.4 0-6 3.7-5 6.8 4.6 11.4 10 22.7 16.8 33l4.5 6.7 2.3 2.7c1.1 2.3 1 3.2-1.1 3-3 2.3-9.8 2.3-13.4 3-10 1.7-18.1 2.2-27-3.5-6.5-4.5-17-12.7-15.8-21.5.6-5.4-7.5-5.7-8.2-.5-1.4 11 8.6 20.4 16.6 26.6 10.8 8.4 21 9.5 34 7 7.2-1.4 29.4-2.7 24.4-15-1.3-3.4-4.5-6.8-6.8-9.7-7.7-11.4-12.4-22.5-17.2-31 9.8-1.9 13.6-3.7 24.3-6.2 3.4 0 5.2-3.2 3.8-6.1-8.8-20.4-14.3-42-15.9-64.2 0-4.5-8.6-5-8.1.5z" style="fill-rule:evenodd;clip-rule:evenodd;fill:#010202"/></svg>