<?xml version="1.0" encoding="utf-8"?>
<svg version="1.1" id="Layer_1" xmlns="http://www.w3.org/2000/svg" xmlns:xlink="http://www.w3.org/1999/xlink" x="0px" y="0px"
	 viewBox="0 0 464.84 712.919" style="enable-background:new 0 0 464.84 712.919;" xml:space="preserve">
<style type="text/css">
	.st0{fill:#EFCC9A;}
	.st1{fill:#F2DD19;}
	.st2{fill:#DDB068;}
	.st3{fill:#424031;}
	.st4{fill:#B2B2B2;}
	.st5{fill:#E799F2;}
</style>
<polygon class="st0" points="309.123,357.942 350.333,380.183 371.332,378.683 381.399,366.31 387.831,356.184 378.411,348.621 
	389.331,326.186 393.416,318.278 405.83,327.686 416.33,345.685 435.12,324.953 448.1,333.061 447.828,348.684 443.328,360.684 
	452.328,368.183 456.828,377.183 459.827,383.183 459.72,396.329 440.328,398.182 426.829,398.182 412.586,388.376 404.712,409.182 
	380.331,416.181 363.832,417.681 342.833,413.181 "/>
<polygon class="st0" points="149.819,431.594 154.368,447.402 135.844,450.679 114.845,449.179 108.845,438.68 96.97,422.205 
	93.276,407.662 81.846,417.681 78.846,428.18 84.846,446.18 63.348,439.675 57.848,456.679 78.846,471.678 59.469,482.046 
	68.347,495.677 83.346,501.677 98.637,479.9 126.844,488.177 149.343,486.678 168.842,468.678 "/>
<polygon class="st1" points="119.344,183.693 258.321,511.585 243.838,515.176 233.191,521.662 219.131,532.834 203.34,536.175 
	54.336,204.708 "/>
<polygon class="st2" points="198.34,532.175 350.833,674.668 390.017,657.702 368.832,478.178 353.833,466.178 332.834,466.178 
	319.334,476.678 317.131,501.178 301.335,490.177 281.836,490.177 265.14,494.083 265.166,516.202 239.838,511.176 229.191,517.662 
	"/>
<polygon class="st3" points="119.344,183.693 173.342,161.194 312.835,497.177 288.82,487.889 281.122,501.855 264.837,513.676 
	258.837,519.676 "/>
<polygon class="st1" points="312.835,497.177 315.078,483.196 326.334,473.178 336.834,470.178 357.833,470.178 363.832,476.178 
	308.448,344.551 312.835,339.685 273.455,289.909 300.835,267.689 243.838,203.192 218.34,141.695 173.342,161.194 "/>
<polygon class="st4" points="6.492,116.21 3.678,131.289 17.204,136.618 33.849,137.195 53.348,183.693 41.348,195.692 
	54.578,215.176 218.34,141.695 219.453,129.176 218.989,118.35 201.84,119.196 183.841,77.198 192.841,65.199 180.841,53.199 
	165.121,49.211 "/>
<polygon class="st5" points="8.35,60.699 56.348,21.701 104.345,6.702 152.343,8.201 174.842,45.7 18.849,111.696 0.381,80.566 "/>
<path d="M447.169,402.706c5.394-1.456,9.266-3.423,12.551-6.377c3.227-2.902,4.765-6.155,4.986-10.547l0.033-0.64
	c0.082-1.549,0.159-3.013,0.041-4.435c-0.035-0.419-0.066-0.839-0.097-1.259c-0.319-4.262-0.594-7.942-3.934-10.458
	c-0.393-0.296-1.338-1.117-1.629-2.351c-0.46-1.947-1.852-2.958-4.084-4.447c-0.289-0.193-0.579-0.386-0.865-0.583
	c-0.843-0.578-1.554-1.28-2.125-1.844c-0.209-0.207-0.408-0.404-0.598-0.577l-0.991-0.904l0.46-1.26
	c2.239-6.131,3.328-11.285,1.367-16.513c-0.776-2.069-1.674-4.213-2.978-5.88c-0.407-0.521-0.807-1.047-1.205-1.572
	c-2.909-3.832-5.422-7.142-10.498-7.909c-0.875-0.132-1.711-0.199-2.483-0.199c-3.085,0-5.541,1.03-8.212,3.445
	c-1.871,1.692-4.137,2.763-6.328,3.799l-0.267,0.126c-0.372,0.176-0.79,0.266-1.242,0.266c-1.136,0-2.552-0.604-3.368-1.437
	c-1.107-1.13-1.988-2.511-2.481-3.89c-1.015-2.841-3.196-4.887-5.195-6.515c-1.136-0.925-2.441-1.694-3.823-2.508
	c-0.471-0.278-0.942-0.555-1.406-0.839c-1.017-0.622-2.402-0.965-3.898-0.965c-2.137,0-4.238,0.706-5.483,1.842
	c-0.137,0.125-0.3,0.312-0.473,0.51c-0.504,0.578-1.132,1.297-2.105,1.666c-4.422,1.676-6.756,5.488-8.948,9.579
	c-0.328,0.612-0.703,1.185-1.065,1.738c-0.63,0.963-1.225,1.872-1.331,2.631c-0.182,1.312-0.438,2.608-0.685,3.86
	c-0.697,3.534-1.356,6.871-0.398,10.359c0.244,0.89,0.457,1.782,0.662,2.646c0.671,2.818,1.304,5.479,2.935,7.667
	c1.816,2.436,1.594,5.124-0.609,7.376c-4.679,4.784-10.628,9.793-19.273,10.68c-1.16,0.119-2.11,0.174-2.992,0.174
	c-3.15,0-5.644-0.747-7.847-2.352c-0.042-0.018-0.281-0.086-0.439-0.131c-0.468-0.133-1.051-0.298-1.619-0.686
	c-0.583-0.398-1.133-0.591-1.684-0.591c-0.703,0-1.514,0.309-2.481,0.946c-2.31,1.521-3.633,4.076-3.931,7.593
	c-0.124,1.465,1.386,2.433,3.705,3.744l0.202,0.114c3.943,2.233,7.914,3.365,11.803,3.365c2.129,0,4.285-0.339,6.409-1.009
	c1.342-0.423,2.674-0.661,3.962-0.891c1.855-0.331,3.607-0.644,5.207-1.474c4.352-2.258,8.559-5.26,12.863-9.179
	c1.816-1.654,3.492-3.618,5.112-5.517l0.358-0.42c0.368-0.431,0.703-0.967,1.057-1.535c0.454-0.728,0.923-1.48,1.558-2.185
	c2.059-2.286,2.897-4.213,2.801-6.444l-0.037-0.82c-0.075-1.646-0.153-3.348-0.081-5.06c0.02-0.471-0.016-0.629-1.016-1.484
	c-6.303-5.389-7.348-12.422-2.797-18.813c2.097-2.946,4.187-3.564,5.571-3.563c1.508,0,3.682,0.706,5.473,4.068
	c2.19,4.112,4.813,9.651,5.656,16.028c0.183,1.38,0.587,2.783,0.986,4.102c0.242,0.801,0.708,1.206,1.387,1.206
	c0.137,0,0.282-0.017,0.431-0.05c4.449-0.994,7.598-2.816,9.361-5.415c0.617-0.909,1.218-1.828,1.818-2.746
	c1.747-2.671,3.554-5.433,5.755-7.958c1.102-1.265,2.64-2.716,4.765-2.716c1.281,0,2.537,0.534,3.839,1.632
	c3.124,2.634,4.823,5.561,5.05,8.699c0.247,3.411-1.268,6.988-4.502,10.632l-0.309,0.348l-0.43,0.176
	c-2.04,0.834-2.706,2.514-3.623,5.186c-0.312,0.91-0.635,1.85-1.062,2.763c-0.42,0.9,0.528,3.917,1.258,4.504
	c0.354,0.253,0.712,0.359,1.23,0.359c0.497,0,1.091-0.101,1.718-0.207l0.3-0.051c1.108-0.185,2.206-0.278,3.263-0.278
	c7.648,0.001,12.91,4.782,13.733,12.479c0.298,2.789-0.66,4.855-2.849,6.14l-0.105,0.062c-1.133,0.666-2.416,1.42-3.876,1.761
	c-0.539,0.126-1.078,0.255-1.617,0.385c-3.195,0.769-6.499,1.563-9.971,1.563c-1.16,0-2.301-0.091-3.391-0.271
	c-0.919-0.152-1.869-0.281-2.788-0.406c-3.413-0.465-6.942-0.946-10.357-2.678c-2.056-1.042-4.378-1.667-6.369-1.712
	c-0.091-0.002-0.181-0.003-0.272-0.003c-2.81,0-4.659,1.027-6.184,3.436c-3.835,6.058-8.477,11.986-16.41,14.331
	c-1.306,0.386-2.586,1.043-3.942,1.738c-1.248,0.64-2.538,1.302-3.934,1.791c-1.937,0.678-3.926,1.136-5.85,1.579
	c-1.034,0.238-2.103,0.484-3.125,0.757c-1.734,0.463-3.478,0.698-5.184,0.698c-2.074,0-4.124-0.346-6.093-1.029
	c-1.561-0.541-3.044-1.23-4.478-1.897c-1.128-0.524-2.194-1.02-3.288-1.445l-0.296-0.116c-0.954-0.374-1.856-0.728-2.625-0.728
	c-0.422,0-0.781,0.104-1.163,0.338c-0.75,0.459-1.518,0.692-2.284,0.692c-1.002,0-2.449-0.398-3.66-2.297
	c-0.118-0.185-0.237-0.369-0.357-0.553c-0.617-0.949-1.255-1.93-1.708-3.073c-0.49-1.236-0.918-2.495-1.332-3.712
	c-0.49-1.441-0.952-2.801-1.51-4.131c-0.665-1.587-1.44-3.108-2.261-4.718c-1.194-2.343-2.428-4.765-3.295-7.406
	c-0.886-2.7-2.143-5.317-3.369-7.742c-0.715-1.415-1.531-2.522-2.36-3.204c-0.376-0.309-0.647-0.419-0.774-0.419
	c-0.169,0-0.558,0.218-1.097,0.833c-0.288,0.328-0.564,0.744-0.857,1.185c-0.506,0.761-1.079,1.625-1.912,2.324
	c-1.334,1.121-1.725,2.405-1.267,4.163c0.664,2.553,1.668,5.069,2.561,7.193c1.853,4.405,3.832,8.765,5.523,12.45
	c0.632,1.377,1.32,2.773,1.986,4.123c0.943,1.912,1.918,3.89,2.781,5.905c1.254,2.931,2.471,5.926,3.647,8.822
	c1.543,3.8,3.139,7.729,4.826,11.524c2.727,6.136,5.603,12.338,8.385,18.336c1.604,3.46,3.209,6.919,4.796,10.387
	c0.318,0.695,0.335,1.357,0.35,1.941c0.005,0.189,0.009,0.391,0.03,0.608l0.213,2.193h-2.203c-0.325,0-0.62,0.01-0.895,0.019
	c-0.279,0.009-0.54,0.017-0.79,0.017c-0.42,0-0.771-0.023-1.107-0.071c-1.727-0.25-3.516-0.376-5.319-0.376
	c-3.474,0-7.057,0.45-10.955,1.377c-2.301,0.547-4.69,1.178-6.397,2.349c-9.946,6.818-12.737,12.469-14.057,16.631
	c-0.945,2.979-3.243,4.688-6.303,4.688c-0.642,0-1.316-0.078-2.002-0.231c-3.467-0.773-6.85-1.467-10.114-1.467
	c-2.909,0-5.473,0.557-7.838,1.703c-0.55,0.266-1.077,0.329-1.462,0.375c-0.074,0.009-0.148,0.017-0.221,0.029
	c-0.734,0.115-1.466,0.236-2.2,0.357c-1.757,0.289-3.573,0.589-5.39,0.81c-3.08,0.374-5.363,1.852-7.184,4.652
	c-0.896,1.377-1.906,2.811-3.225,3.972c-3.017,2.658-6.022,5.7-7.563,9.925c-0.498,1.365-1.676,2.223-2.309,2.684
	c-0.061,0.044-0.115,0.083-0.158,0.116l-0.788,0.777l-1.122-0.321c-0.97-0.277-1.86-0.535-2.697-0.777
	c-1.752-0.507-3.266-0.945-4.779-1.353c-0.605-0.163-1.242-0.289-1.918-0.423c-1.425-0.282-2.898-0.574-4.304-1.259
	c-0.612-0.299-1.229-0.438-1.94-0.438c-0.837,0-1.742,0.192-2.701,0.396c-0.496,0.105-0.996,0.211-1.504,0.297
	c-3.464,0.589-6.332,2.503-9.369,4.529c-2.026,1.352-4.122,2.75-6.466,3.785c-1.912,0.844-3.676,2.647-5.381,4.39
	c-0.511,0.523-1.02,1.043-1.533,1.54c-1.928,1.872-4.129,3.447-7.138,5.107l-1.79,0.987l-0.948-1.811
	c-0.334-0.637-0.663-1.246-0.983-1.838c-0.699-1.291-1.359-2.511-1.946-3.799c-0.823-1.804-1.618-3.647-2.387-5.429
	c-1.299-3.011-2.642-6.124-4.13-9.068c-0.291-0.576-0.583-1.15-0.876-1.725c-2.983-5.864-6.068-11.927-7.379-18.745
	c-0.168-0.872-0.331-1.116-0.378-1.17c-1.979-2.323-3.06-4.976-4.106-7.542c-0.605-1.485-1.177-2.888-1.904-4.196
	c-0.781-1.407-1.407-2.87-2.012-4.285c-0.294-0.688-0.588-1.377-0.9-2.056c-0.485-1.057-0.984-2.108-1.483-3.159
	c-1.008-2.122-2.05-4.315-2.966-6.547c-0.939-2.286-1.825-4.624-2.682-6.885c-1.217-3.209-2.475-6.528-3.882-9.685
	c-1.7-3.815-3.558-7.655-5.354-11.368c-1.843-3.81-3.749-7.751-5.502-11.698c-1.754-3.949-3.37-8.016-4.932-11.95
	c-1.161-2.924-2.362-5.947-3.604-8.881c-3.765-8.893-7.599-17.628-11.523-26.539c-0.982-2.231-2.032-4.489-3.048-6.673
	c-1.732-3.724-3.522-7.574-5.068-11.479c-0.968-2.444-2.113-4.902-3.22-7.28c-2.624-5.632-5.336-11.454-6.202-18.011
	c-0.031-0.073-0.108-0.215-0.166-0.321c-0.176-0.323-0.396-0.726-0.531-1.228c-0.196-0.729-0.417-1.453-0.652-2.219
	c-0.611-1.997-1.242-4.061-1.404-6.241c-0.045-0.611-0.084-1.219-0.122-1.825c-0.228-3.607-0.443-7.015-2.165-10.212
	c-2.29-4.254-4.339-8.693-6.321-12.986c-1.064-2.305-2.164-4.688-3.283-7.002l-0.542-1.126c-1.146-2.391-2.331-4.863-3.793-6.996
	c-2.602-3.795-4.517-7.768-5.854-12.146c-1.582-5.179-4.148-9.852-6.863-14.8c-1.093-1.991-2.223-4.05-3.27-6.124
	c-0.591-1.17-1.076-2.373-1.544-3.536c-0.957-2.374-1.861-4.616-3.536-6.325l-0.409-0.417l-0.12-0.572
	c-1.082-5.152-3.545-9.677-6.154-14.467c-0.612-1.123-1.223-2.247-1.816-3.379c-0.33-0.63-0.431-1.245-0.521-1.789
	c-0.029-0.175-0.057-0.357-0.1-0.542l-0.376-1.647l1.561-0.646c0.561-0.232,1.106-0.447,1.638-0.657
	c1.052-0.415,2.046-0.807,2.965-1.26c7.033-3.468,14.421-6.284,21.567-9.007c1.434-0.546,2.867-1.093,4.299-1.645
	c3.96-1.526,7.954-3.204,11.816-4.827c2.582-1.085,5.252-2.206,7.897-3.277c6.586-2.665,13.303-5.313,19.799-7.873l1.791-0.706
	c1.143-0.451,2.307-0.871,3.431-1.277c1.995-0.72,3.878-1.4,5.699-2.248c9.126-4.254,16.683-7.365,23.782-9.788
	c0.813-0.278,1.641-0.535,2.443-0.785c2.333-0.726,4.537-1.412,6.391-2.547c2.666-1.631,5.342-2.779,8.182-3.509
	c1.299-0.334,2.564-0.953,3.903-1.608c2.093-1.023,4.453-2.178,7.247-2.27c0.02-0.018,0.041-0.036,0.062-0.054
	c0.268-0.232,0.602-0.521,1.039-0.745c2.608-1.338,5.225-2.66,7.857-3.99l2.64-1.335l1.625-0.822l0.971,1.541
	c0.469,0.744,0.907,1.397,1.33,2.029c0.863,1.288,1.609,2.4,2.192,3.663c0.516,1.117,1.041,2.233,1.566,3.348
	c2.057,4.374,4.185,8.897,5.8,13.568c1.305,3.771,2.532,6.363,4.944,8.447c0.667,0.576,1.63,0.906,2.643,0.906
	c1.317,0,2.413-0.534,2.93-1.428c0.689-1.192,1.207-2.526,1.755-3.938c0.225-0.581,0.451-1.161,0.689-1.734
	c0.31-0.746,0.322-1.437-0.501-2.951c-1.808-3.328-3.319-6.718-4.967-10.486c-1.073-2.454-2.13-4.958-3.153-7.379
	c-1.453-3.44-2.955-6.996-4.516-10.442c-0.953-2.104-0.668-3.822-0.218-5.366c0.894-3.064,1.478-5.573,1.837-7.895
	c0.039-0.252-0.134-0.979-0.64-1.806c-0.828-1.352-1.744-2.707-2.631-4.017c-0.93-1.375-1.892-2.798-2.783-4.258
	c-1.121-1.838-2.502-2.707-4.617-2.905c-2.47-0.231-4.892-0.751-7.235-1.254l-0.824-0.176c-1.122-0.239-2.244-1.088-2.792-2.112
	c-0.23-0.43-0.463-0.859-0.695-1.288c-1.161-2.144-2.362-4.361-3.299-6.702c-1.363-3.406-2.695-6.882-3.984-10.244
	c-1.788-4.666-3.637-9.492-5.586-14.168c-1.22-2.927-0.832-4.916,1.383-7.094c3.001-2.951,5.425-8.179,2.379-13.203
	c-0.423-0.698-0.716-1.431-0.975-2.077c-0.207-0.518-0.403-1.008-0.635-1.412l-0.06-0.105c-2.656-4.62-5.165-8.983-10.352-10.338
	c-2.053-0.536-3.524-1.908-4.498-4.195c-0.951-2.236-1.882-4.229-2.844-6.095c-0.914-1.772-1.876-3.566-2.806-5.301
	c-1.548-2.888-3.149-5.874-4.604-8.893c-0.787-1.634-1.42-3.33-2.031-4.97c-0.813-2.181-1.581-4.241-2.663-6.093
	c-4.141-7.088-10.805-10.735-20.372-11.15c-0.153-0.007-0.308-0.008-0.462-0.008c-0.15,0-0.301,0.002-0.452,0.004
	c-0.166,0.002-0.332,0.004-0.498,0.004c-0.571,0-1.25-0.02-1.953-0.171C139.021,0.428,134.631,0,129.707,0
	c-5.21,0-10.453,0.496-14.438,0.928c-1.884,0.204-3.777,0.296-5.608,0.384c-2.82,0.136-5.484,0.265-8.123,0.77
	c-2.028,0.388-4.09,0.73-6.085,1.06c-3.891,0.644-7.914,1.311-11.719,2.337c-4.348,1.173-8.706,2.769-12.921,4.313
	c-1.827,0.669-3.717,1.361-5.591,2.014c-0.526,0.183-1.07,0.398-1.615,0.639c-2.527,1.115-4.87,2.514-7.352,3.995
	c-2.608,1.556-5.304,3.165-8.253,4.432c-4.594,1.974-8.965,4.926-13.193,7.781c-1.747,1.18-3.554,2.401-5.369,3.548
	c-1.419,0.898-2.93,1.973-4.754,3.383c-1.665,1.287-3.337,2.639-4.955,3.947c-0.808,0.653-1.616,1.306-2.428,1.955
	c-0.834,0.667-1.67,1.331-2.505,1.995c-1.537,1.221-3.073,2.442-4.597,3.679c-0.314,0.255-0.634,0.572-0.973,0.908
	c-0.71,0.703-1.515,1.5-2.576,2.023c-2.763,1.361-4.066,3.396-4.357,6.805c-0.3,3.521-0.584,6.846,1.296,9.702l0.858,1.303
	l-1.055,1.149c-3.014,3.283-4.028,7.157-3.013,11.515c0.448,1.921,1.524,3.791,2.664,5.77c0.546,0.949,1.111,1.929,1.615,2.937
	c0.328,0.655,0.713,1.314,1.122,2.011c1.037,1.772,2.11,3.604,2.429,5.725c0.078,0.521,0.15,1.042,0.221,1.561
	c0.371,2.707,0.721,5.264,2.072,7.454c1.478,2.396,1.065,4.921-1.133,6.928c-0.16,0.147-0.328,0.288-0.497,0.43
	c-0.248,0.208-0.504,0.422-0.616,0.577c-0.57,0.787-1.178,1.531-1.766,2.251c-1.486,1.82-2.89,3.539-3.47,5.674
	c-0.844,3.109-0.184,6.358,0.656,9.405c1.06,3.849,4.346,6.781,7.739,9.377c0.375,0.287,0.755,0.572,1.136,0.857
	c1.794,1.345,3.65,2.735,5.197,4.485c0.844,0.955,1.376,1.083,1.785,1.083c0.297,0,0.658-0.075,1.072-0.223
	c2.271-0.813,4.543-1.624,6.815-2.434c1.069-0.381,2.082-0.575,3.011-0.575c2.247,0,3.877,1.196,4.253,3.12
	c0.195,0.996,0.518,2.005,0.859,3.073c0.887,2.773,1.893,5.915,0.675,9.453c-0.255,0.741-0.228,1.475,0.695,2.838
	c2.104,3.106,3.922,6.307,5.402,9.514c1.136,2.462,2.02,4.964,2.874,7.384c0.347,0.983,0.686,1.945,1.031,2.868l0.566,1.514
	l-1.361,0.871c-0.767,0.491-1.506,0.927-2.22,1.348c-1.47,0.868-2.74,1.617-3.766,2.55c-1.729,1.572-3.158,3.628-4.21,5.244
	c-2.262,3.473-2.9,6.822-1.847,9.685c1.047,2.845,3.783,5.052,7.705,6.215c3.02,0.896,4.587,2.704,5.933,4.479
	c1.608,2.121,2.091,2.285,2.598,2.285c0.645,0,1.668-0.315,2.583-0.624c0.771-0.26,1.591-0.5,2.374-0.5
	c2.35,0,3.229,2.064,3.651,3.056c0.9,2.116,2.026,4.11,3.217,6.222c1.761,3.12,3.581,6.346,4.625,10.01
	c0.051,0.07,0.148,0.185,0.216,0.266l0.001,0.001l0.033,0.039c1.683,1.993,1.683,4.148,1.432,6.179
	c-0.311,2.514-0.006,3.795,0.304,4.426c2.612,5.317,5.467,10.646,8.228,15.798c0.833,1.555,1.667,3.11,2.495,4.667
	c0.051,0.064,0.112,0.122,0.17,0.182c0.236,0.247,0.56,0.584,0.808,1.061c1.354,2.606,2.689,5.22,4.024,7.835l1.524,2.982
	c0.131,0.255,0.259,0.513,0.386,0.77c0.31,0.625,0.602,1.215,0.931,1.755l0.209,0.343c1.971,3.233,4.204,6.897,3.277,11.693
	c-0.279,1.446,0.091,2.966,1.278,5.247c2.676,5.142,5.442,10.46,7.591,16.035c4.588,11.903,10.23,23.627,15.616,34.615
	c0.642,1.311,1.159,2.659,1.66,3.963c0.144,0.375,0.287,0.749,0.434,1.122c0.577,1.47,1.139,2.947,1.701,4.424
	c1.128,2.965,2.294,6.031,3.565,8.969c0.862,1.995,1.864,3.999,2.832,5.938c0.986,1.975,2.006,4.017,2.908,6.099
	c3.503,8.088,6.964,16.348,10.31,24.337l1.727,4.122c2.664,6.352,5.345,12.82,7.938,19.074l2.151,5.187
	c1.133,2.731,0.861,4.922-0.809,6.513c-0.216,0.206-0.434,0.417-0.652,0.628c-1.562,1.511-3.331,3.223-5.494,4.173
	c-2.37,1.042-4.874,1.675-7.294,2.287c-0.92,0.233-1.872,0.473-2.784,0.729c-0.452,0.127-0.895,0.195-1.286,0.255
	c-0.33,0.051-0.829,0.128-0.968,0.212c-0.987,0.669-2.034,1.009-3.109,1.009c-1.111,0-2.21-0.355-3.361-1.085
	c-1.134-0.72-2.239-1.487-3.308-2.23c-1.089-0.756-2.214-1.538-3.335-2.242c-2.531-1.59-3.748-4.04-3.617-7.283
	c0.125-3.077,0.133-5.837-1.033-8.452c-0.923-2.071-1.456-4.289-1.855-6.185c-0.847-4.021-3.525-7.219-8.188-9.775
	c-3.009-1.649-6.188-2.486-9.449-2.486c-3.56,0-7.247,0.987-10.957,2.933c-2.716,1.425-4.663,2.86-5.952,4.388
	c-4.429,5.251-5.379,11.148-2.824,17.529c0.424,1.058,0.825,2.441,0.158,3.75c-0.666,1.308-2.028,1.784-2.994,2.028
	c-2.74,0.693-5.146,1.145-7.358,1.384c-2.347,0.253-5.588,1.166-7.698,4.077c-1.288,1.777-2.198,3.887-3.162,6.12
	c-0.381,0.883-0.775,1.795-1.195,2.688c-0.022,0.054-0.035,0.196-0.023,0.26c0.247,1.29,0.383,2.588,0.515,3.843
	c0.313,2.992,0.609,5.817,2.361,8.088l0.433,0.562c1.411,1.833,2.869,3.729,4.468,5.342c3.12,3.147,3.646,4.308,1.648,8.489
	c-0.442,0.925-0.823,1.885-1.227,2.902c-0.589,1.484-1.198,3.019-2.026,4.481c-1.436,2.534-1.551,5.097-0.363,8.065
	c0.392,0.98,0.948,1.938,1.537,2.953c0.29,0.5,0.58,1,0.854,1.507c2.551,4.721,6.78,7.531,12.929,8.592
	c1.427,0.246,2.889,0.371,4.346,0.371c3.842,0,7.794-0.841,12.083-2.57c5.087-2.051,8.675-5.327,10.97-10.017
	c0.517-1.055,1.188-1.996,1.78-2.826c0.243-0.34,0.481-0.674,0.701-1.005l0.867-1.31l1.478,0.531
	c1.049,0.377,2.044,0.767,3.006,1.144c1.998,0.783,3.885,1.522,5.759,1.942c1.479,0.331,2.849,0.838,4.173,1.328
	c1.917,0.709,3.728,1.379,5.699,1.461c0.673,0.028,1.365,0.042,2.057,0.042c6.81,0,13.616-1.386,20.197-2.726
	c1.566-0.319,3.131-0.638,4.7-0.94c1.42-0.273,3.023-0.926,4.637-1.886c2.451-1.459,4.849-3.248,6.966-4.827
	c1.076-0.803,2.094-1.677,3.172-2.601c0.543-0.466,1.086-0.932,1.637-1.389c0.384-0.319,0.779-0.625,1.209-0.958
	c0.196-0.152,0.4-0.31,0.614-0.477l1.553-1.219l1.239,1.538c0.181,0.224,0.364,0.423,0.536,0.61c0.457,0.498,0.974,1.063,1.29,1.831
	c1.026,2.495,2.041,5.037,3.022,7.496c1.33,3.332,2.706,6.778,4.119,10.131c2.147,5.096,4.426,10.246,6.631,15.227
	c0.579,1.309,1.159,2.618,1.737,3.928c0.712,1.615,1.475,3.254,2.213,4.839c1.535,3.297,3.122,6.706,4.403,10.207
	c0.248,0.677,0.483,1.36,0.717,2.041c1.477,4.295,2.752,8.004,7.027,9.658c0.848,0.328,1.416,0.948,1.831,1.401l0.078,0.085
	c1.124,1.219,2.242,2.443,3.36,3.668c1.268,1.389,2.536,2.777,3.812,4.158c0.112,0.121,0.224,0.248,0.337,0.377
	c0.185,0.211,0.462,0.527,0.598,0.618c3.037,1.118,5.113,3.332,6.946,5.287c0.628,0.669,1.22,1.302,1.838,1.886
	c4.439,4.194,8.849,8.551,13.113,12.764c3.927,3.879,7.987,7.89,12.047,11.751c5.786,5.503,11.77,11.004,17.557,16.323
	c3.234,2.973,6.577,6.047,9.852,9.089c2.701,2.509,5.427,5.076,8.064,7.559c3.1,2.919,6.306,5.937,9.483,8.874
	c1.002,0.926,2.002,1.882,2.969,2.807c2.788,2.666,5.67,5.423,8.78,7.609c6.342,4.458,11.943,9.787,17.361,14.942
	c1.593,1.516,3.241,3.083,4.877,4.599c1.83,1.695,3.616,3.473,5.343,5.191c1.095,1.089,2.227,2.216,3.351,3.302
	c5.811,5.616,11.635,11.219,17.459,16.822l3.074,2.958c0.298,0.287,0.688,0.586,1.1,0.902c1.11,0.852,2.369,1.817,2.862,3.335
	c0.792,2.44,2.785,3.31,5.746,3.923c3.978,0.824,6.444,3.17,8.518,5.583c1.428,1.662,3.215,2.599,5.459,3.494
	c1.676,0.669,3.104,1.694,4.485,2.686l0.38,0.273c0.679,0.485,1.261,1.02,1.825,1.538c0.475,0.437,0.924,0.849,1.382,1.185
	c0.646,0.473,1.24,0.713,1.767,0.713c0.589,0,1.201-0.296,1.871-0.905c0.199-0.181,0.387-0.375,0.575-0.568
	c0.339-0.347,0.722-0.74,1.176-1.098c3.965-3.129,5.851-9.04,4.693-14.708c-1.264-6.189-1.894-12.461-2.385-18.316
	c-0.266-3.17-0.309-6.376-0.351-9.476c-0.027-2.021-0.056-4.11-0.146-6.145c-0.063-1.423-0.258-2.844-0.464-4.349
	c-0.118-0.861-0.24-1.752-0.335-2.644c-0.182-1.712-0.375-3.423-0.568-5.134c-0.493-4.378-1.002-8.905-1.331-13.389
	c-0.411-5.607-0.652-11.304-0.884-16.814c-0.063-1.496-0.126-2.993-0.193-4.489c-0.063-1.414-0.083-2.838-0.103-4.216
	c-0.028-1.973-0.057-4.013-0.214-5.977c-0.606-7.604-1.345-15.211-2.054-22.298c-0.364-3.635-0.791-7.332-1.203-10.908
	c-0.207-1.794-0.414-3.588-0.615-5.383c-0.161-1.443-0.376-2.927-0.584-4.363c-0.484-3.344-0.985-6.802-0.906-10.275
	c0.1-4.409-0.607-8.667-1.355-13.176c-0.605-3.643-1.23-7.411-1.381-11.238c-0.09-2.3-0.423-4.576-0.775-6.986
	c-0.2-1.372-0.407-2.79-0.564-4.206c-0.23-2.078-0.416-4.188-0.596-6.228c-0.352-3.991-0.716-8.117-1.42-12.07l-0.119-0.669
	c-1.112-6.242-2.263-12.697-2.089-19.295c0.031-1.176-0.225-1.84-0.978-2.539c-2.924-2.711-3.905-6.332-4.388-8.82
	c-0.338-1.735-0.943-3.547-1.751-5.239c-0.904-1.893-1.9-3.801-2.863-5.647c-1.345-2.577-2.736-5.242-3.936-7.973
	c-2.051-4.666-3.911-9.335-5.879-14.278c-0.844-2.12-1.702-4.272-2.591-6.464l-1.323-3.264l3.481,0.535
	c0.563,0.087,1.049,0.152,1.482,0.21c0.886,0.119,1.585,0.212,2.321,0.398c1.732,0.437,3.482,0.659,5.202,0.659
	c2.152,0,4.346-0.348,6.519-1.034c1.54-0.486,3.107-0.94,4.622-1.379c2.184-0.633,4.442-1.287,6.6-2.034
	c1.917-0.664,3.76-1.5,5.712-2.386c0.713-0.323,1.425-0.647,2.141-0.961c0.843-0.37,1.694-0.727,2.546-1.083
	c2.211-0.926,4.3-1.8,6.26-2.912c0.262-0.149,0.526-0.295,0.79-0.441c1.881-1.041,3.505-1.94,4.48-3.761
	c1.088-2.031,3.011-3.493,4.708-4.782c0.253-0.192,0.503-0.382,0.748-0.572c1.118-0.868,2.632-1.407,3.949-1.407
	c0.253,0,0.502,0.02,0.738,0.059c2.286,0.382,4.551,0.917,6.742,1.435c1.125,0.266,2.249,0.532,3.377,0.777
	c2.754,0.599,5.682,1.184,8.559,1.184c2.097,0,3.986-0.31,5.776-0.948c1.928-0.687,3.907-1.196,5.821-1.688
	C445.811,403.064,446.491,402.889,447.169,402.706z M9.461,76.115c-0.441-1.719,0.23-3.42,0.823-4.921
	c0.168-0.425,0.326-0.827,0.445-1.194c0.203-0.626,0.504-1.148,0.769-1.609c0.195-0.339,0.398-0.691,0.443-0.902
	c0.908-4.257,2.95-7.792,6.072-10.506c3.214-2.795,6.71-5.649,11.001-8.981c1.922-1.492,3.93-2.898,5.872-4.258
	c0.932-0.652,1.864-1.305,2.788-1.968c7.11-5.1,13.865-9.205,20.653-12.55c2.131-1.05,4.271-2.219,6.34-3.349
	c1.639-0.895,3.335-1.821,5.035-2.694c1.212-0.622,2.464-1.073,3.675-1.508c0.365-0.131,0.731-0.263,1.093-0.398
	c0.412-0.154,0.799-0.204,1.081-0.241c0.03-0.004,0.061-0.007,0.091-0.011c2.505-1.823,5.278-2.528,7.962-3.21
	c0.564-0.143,1.128-0.287,1.69-0.441c1.617-0.445,3.269-0.987,4.867-1.51c2.979-0.977,6.06-1.987,9.25-2.5
	c6.955-1.118,13.782-1.727,20.292-1.811c0.513-0.007,1.025-0.01,1.538-0.01c5.788,0,11.642,0.406,17.303,0.799
	c1.257,0.087,2.514,0.174,3.771,0.257c2.143,0.141,4.215,0.63,6.219,1.104c0.388,0.092,0.776,0.183,1.164,0.272
	c6.187,1.417,8.418,6.703,10.048,10.562c0.235,0.557,0.469,1.115,0.702,1.673c0.817,1.953,1.661,3.972,2.57,5.896
	c0.735,1.553,1.534,3.124,2.308,4.643c0.811,1.593,1.649,3.24,2.43,4.897c1.63,3.463,0.793,5.867-2.634,7.565
	c-1.639,0.812-3.678,1.822-5.843,2.226c-6.113,1.139-12.021,3.504-17.735,5.791l-1.354,0.541c-1.85,0.738-3.749,1.382-5.586,2.005
	c-4.148,1.406-8.066,2.735-11.553,5.079c-1.058,0.712-2.364,1.271-3.775,1.618c-3.854,0.947-7.321,2.748-10.991,4.654
	c-0.46,0.239-0.922,0.479-1.384,0.717c-3.503,1.803-7.216,3.223-10.806,4.596c-1.24,0.474-2.48,0.949-3.712,1.438
	c-2.454,0.976-4.955,1.942-7.373,2.876c-2.802,1.082-5.7,2.202-8.528,3.338c-1.067,0.428-2.105,0.922-3.204,1.445
	c-1.306,0.621-2.656,1.263-4.069,1.792c-2.822,1.056-5.701,2.076-8.486,3.062c-3.412,1.209-6.941,2.459-10.363,3.775
	c-3.924,1.509-7.889,3.142-11.724,4.721c-2.671,1.1-5.433,2.237-8.166,3.326c-1.418,0.565-2.851,1.013-4.368,1.486
	c-0.705,0.22-1.433,0.447-2.19,0.696l-1.515,0.498l-0.823-1.366c-0.124-0.206-0.247-0.38-0.356-0.536
	c-0.32-0.458-0.683-0.977-0.818-1.7c-0.752-4.034-2.726-7.545-4.816-11.261c-0.736-1.31-1.498-2.663-2.2-4.04
	C11.477,82.257,10.231,79.119,9.461,76.115z M33.089,130.894c-1.264,0.531-2.554,0.937-3.802,1.331
	c-1.048,0.33-2.037,0.642-2.997,1.018c-0.925,0.362-1.831,0.791-2.79,1.245c-1.242,0.588-2.527,1.197-3.894,1.668
	c-0.903,0.311-1.689,0.463-2.402,0.463c-1.485,0-2.697-0.678-3.411-1.91c-0.541-0.932-0.792-2.152-0.792-3.84v-0.152l0.013-0.087
	l0.003-0.1c0.009-0.5,0.027-1.432,0.577-2.271l0.068-0.104c2.195-3.351,4.465-6.816,8.652-8.682
	c1.626-0.725,3.246-1.461,4.867-2.198c1.251-0.568,2.501-1.137,3.754-1.7c1.378-0.619,2.758-1.233,4.137-1.847
	c1.937-0.862,3.875-1.724,5.806-2.6c1.643-0.746,3.311-1.529,4.923-2.287c3.373-1.586,6.862-3.225,10.401-4.646
	c2.994-1.201,6.079-2.238,9.063-3.24c2.216-0.744,4.508-1.514,6.719-2.338c2.452-0.914,4.927-1.948,7.321-2.948
	c1.721-0.719,3.502-1.462,5.275-2.163c1.028-0.406,2.068-0.735,3.074-1.053c0.946-0.299,1.841-0.582,2.708-0.919
	c2.015-0.783,4.06-1.611,6.038-2.412c3.468-1.404,7.054-2.856,10.655-4.14c4.092-1.458,7.589-3.056,10.692-4.885
	c1.442-0.85,2.972-1.442,4.451-2.013c0.58-0.224,1.161-0.449,1.732-0.688c1.409-0.591,2.814-1.192,4.219-1.792
	c3.333-1.424,6.779-2.896,10.235-4.224c4.27-1.64,8.633-3.224,12.852-4.757c2.719-0.987,5.438-1.975,8.149-2.982
	c1.057-0.393,2.086-0.829,3.176-1.291c1.145-0.486,2.329-0.988,3.54-1.43c4.072-1.489,8.244-2.244,12.398-2.244
	c0.741,0,1.493,0.024,2.235,0.072c1.664,0.107,3.1,0.969,3.809,1.473c1.176,0.837,1.863,1.967,1.936,3.18
	c0.069,1.151-0.43,2.274-1.406,3.162c-2.724,2.48-5.706,5.029-9.558,6.563c-1.305,0.519-2.567,1.134-3.903,1.785
	c-1.182,0.576-2.405,1.171-3.663,1.696c-3.117,1.301-6.308,2.534-9.394,3.727l-2.249,0.87c-0.803,0.312-1.615,0.603-2.4,0.884
	c-1.136,0.407-2.209,0.792-3.263,1.236c-2.004,0.844-4.036,1.736-6.001,2.599c-1.7,0.747-3.4,1.494-5.108,2.221
	c-2.208,0.941-4.423,1.865-6.638,2.789c-2.316,0.966-4.711,1.965-7.054,2.966c-2.194,0.938-4.419,1.921-6.57,2.872
	c-4.123,1.822-8.386,3.706-12.673,5.379c-5.518,2.153-11.168,4.205-16.633,6.189c-3.453,1.254-7.023,2.55-10.518,3.857
	c-2.054,0.768-4.131,1.629-6.14,2.461c-1.542,0.639-3.137,1.3-4.727,1.921c-1.186,0.464-2.391,0.879-3.557,1.28
	c-1.072,0.369-2.18,0.751-3.238,1.159l-2.291,0.885c-5.41,2.088-11.003,4.247-16.452,6.475c-1.716,0.701-3.446,1.523-5.12,2.317
	C36.355,129.435,34.734,130.204,33.089,130.894z M44.049,146.696c-1.463-2.644-2.52-4.555-1.72-6.544
	c0.727-1.807,2.652-2.721,5.523-3.609c0.828-0.256,1.669-0.688,2.56-1.146c1.203-0.617,2.447-1.256,3.874-1.585
	c5.761-1.331,11-3.735,16.547-6.28c2.066-0.948,4.203-1.929,6.345-2.836c2.6-1.101,5.281-2.061,7.873-2.989
	c0.966-0.346,1.933-0.692,2.896-1.046c5.022-1.843,10.167-3.718,15.728-5.733c1.365-0.495,2.735-0.975,4.106-1.456
	c2.635-0.924,5.359-1.879,7.977-2.918c1.745-0.693,3.505-1.514,5.207-2.308c1.443-0.673,2.935-1.37,4.446-2.002
	c1.725-0.723,3.494-1.344,5.205-1.945c0.795-0.279,1.59-0.559,2.381-0.848c0.548-0.2,1.101-0.39,1.654-0.58
	c1.243-0.426,2.418-0.829,3.515-1.348c1.516-0.717,2.767-1.195,3.947-1.195c2.965,0,4.042,2.921,4.685,4.666
	c0.193,0.522,0.251,1.021,0.302,1.46c0.019,0.165,0.039,0.341,0.07,0.532l0.289,1.785l-1.747,0.467l-0.666,0.178l-1.224,0.327
	c-1.664,0.449-2.915,1.428-3.523,2.758c-0.57,1.247-0.507,2.715,0.177,4.132c1.932,4,4.068,8.028,6.531,12.316
	c0.192,0.334,0.744,0.748,1.344,1.187c0.201-0.221,0.397-0.436,0.589-0.647c1.179-1.294,2.197-2.411,3.11-3.566
	c0.936-1.185,2.45-2.759,4.78-2.759c0.656,0,1.342,0.129,2.038,0.382c0.25,0.091,0.385,0.101,0.432,0.101
	c0.025,0,0.035-0.003,0.035-0.003c0.029-0.009,0.182-0.114,0.402-0.454c0.771-1.189,1.924-2.015,3.04-2.759
	c2.226-1.485,2.881-3.466,1.945-5.887c-0.357-0.924-0.84-1.832-1.352-2.794c-0.261-0.491-0.523-0.983-0.77-1.479
	c-0.487-0.98-0.979-1.957-1.471-2.935c-1.204-2.391-2.449-4.864-3.605-7.344c-1.69-3.627-1.049-5.517,2.54-7.492
	c1.836-1.01,3.588-1.658,5.208-1.926c0.257-0.042,0.515-0.064,0.768-0.064c1.368,0,2.576,0.636,3.233,1.7
	c0.651,1.055,0.675,2.353,0.068,3.561c-1.201,2.39-0.846,4.158,1.463,7.275c1.198,1.618,2.063,3.401,2.899,5.126
	c0.679,1.401,1.321,2.725,2.11,3.917c1.369,2.069,3.308,3.951,5.024,5.519c0.054,0.049,0.096,0.081,0.124,0.1
	c0.255-0.101,0.84-0.613,1.198-0.926c0.219-0.192,0.436-0.381,0.65-0.555l2.13-1.728l0.994,2.556
	c0.923,2.374,1.35,4.175,0.625,5.812c-0.757,1.71-2.536,2.512-4.144,3.129l-0.396,0.152c-2.339,0.896-4.757,1.823-6.684,3.166
	c-4.113,2.867-8.675,4.424-13.087,5.93c-1.024,0.35-2.049,0.699-3.069,1.066l-0.379,0.136c-2.504,0.899-5.094,1.829-7.505,2.936
	c-3.106,1.426-6.23,2.99-9.252,4.503c-0.963,0.482-1.927,0.965-2.892,1.444c-1.711,0.85-3.416,1.711-5.122,2.572
	c-3.409,1.721-6.934,3.5-10.457,5.162c-1.978,0.933-4.031,1.689-6.016,2.42c-0.869,0.32-1.737,0.639-2.599,0.974
	c-0.475,0.184-0.953,0.361-1.431,0.538c-0.945,0.349-1.838,0.679-2.701,1.065c-2.613,1.167-5.22,2.347-7.827,3.526
	c-4.12,1.864-8.38,3.791-12.598,5.639c-2.285,1.001-4.611,1.468-7.321,1.468c-0.522,0-1.069-0.018-1.625-0.053l-3.618-0.228
	l2.123-2.939c0.389-0.538,0.743-1.033,1.075-1.497c0.75-1.048,1.397-1.953,2.076-2.842c0.3-0.393,0.624-0.716,0.91-1
	c0.229-0.228,0.446-0.444,0.58-0.629c1.249-1.732,1.173-2.19,0.682-2.893c-0.238-0.341-0.431-0.435-0.895-0.435
	c-0.387,0-0.85,0.079-1.341,0.163l-0.322,0.055c-2.71,0.447-5.563,1.093-8.067,2.781c-1.263,0.851-2.645,1.32-3.981,1.773
	c-0.575,0.195-1.119,0.38-1.632,0.588c-2.967,1.203-5.932,2.411-8.949,3.64l-3.736,1.522l-0.782,0.319l-0.774-0.339
	c-2.44-1.069-3.083-3.187-3.553-4.733c-0.178-0.587-0.346-1.141-0.584-1.606l-0.836-1.635l1.557-0.972
	c0.271-0.169,0.532-0.357,0.784-0.539c0.647-0.467,1.316-0.95,2.204-1.178c8.602-2.213,16.822-6.568,25.13-13.314
	c1.095-0.889,2.089-1.942,3.141-3.056c0.424-0.449,0.848-0.897,1.279-1.336c0.216-0.219,0.438-0.511,0.659-0.866
	c0.826-1.322,0.683-2.666,0.443-2.924c-0.506-0.543-1.596-0.938-2.592-0.938c-0.491,0-0.918,0.098-1.173,0.269
	c-4.94,3.315-10.446,5.176-15.77,6.977c-1.266,0.428-2.532,0.856-3.79,1.303c-0.411,0.146-0.823,0.29-1.235,0.434
	c-3.631,1.267-7.06,2.465-9.62,5.194c-0.984,1.049-2.039,1.581-3.136,1.581C46.249,149.335,45.017,148.447,44.049,146.696z
	 M61.771,202.214c-2.448,0.987-4.983,1.753-7.435,2.494c-0.584,0.177-1.168,0.353-1.751,0.532c-0.813,0.25-1.614,0.384-2.542,0.538
	c-0.445,0.074-0.935,0.156-1.489,0.261l-2.926,0.557l0.591-2.919c0.149-0.734,0.257-1.398,0.363-2.039
	c0.234-1.43,0.436-2.664,0.96-3.875c0.477-1.103,1.82-3.718,3.993-4.196c2.07-0.455,3.907-1.54,5.853-2.688
	c1.627-0.96,3.31-1.953,5.224-2.628c3.231-1.139,6.49-2.433,9.641-3.683c1.496-0.594,2.991-1.187,4.491-1.768
	c0.472-0.183,1.06-0.411,1.752-0.436c7.304-0.262,13.534-3.402,20.13-6.727c2.648-1.335,5.386-2.715,8.187-3.884
	c0.062-0.039,0.119-0.088,0.179-0.133c0.316-0.241,0.793-0.605,1.46-0.767c3.698-0.895,7.019-2.64,10.534-4.488
	c1.852-0.974,3.768-1.981,5.743-2.851c1.8-0.793,3.674-1.306,5.487-1.801c1.399-0.382,2.72-0.743,3.988-1.219
	c1.801-0.676,3.53-1.525,5.36-2.424c0.805-0.396,1.61-0.791,2.421-1.171c0.556-0.26,1.115-0.516,1.674-0.771
	c1.303-0.595,2.535-1.158,3.745-1.789c1.673-0.873,3.366-1.799,5.003-2.694c1.32-0.722,2.64-1.443,3.968-2.15l0.339-0.182
	c0.881-0.476,1.88-1.016,3.045-1.219c5.7-0.993,10.69-3.608,15.973-6.377c1.465-0.768,2.979-1.561,4.496-2.309
	c1.133-0.559,2.274-1.107,3.414-1.656c3.349-1.61,6.813-3.275,9.999-5.188c2.822-1.694,5.813-2.495,8.706-3.269
	c1.684-0.451,3.275-0.877,4.813-1.465c1.046-0.4,2.134-0.594,3.325-0.594c1.7,0,3.405,0.382,5.605,0.998l3.362,0.942l-2.513,2.424
	c-0.856,0.825-1.651,1.666-2.421,2.479c-1.712,1.808-3.328,3.516-5.338,4.796c-1.108,0.705-2.238,1.475-3.332,2.219
	c-4.17,2.838-8.482,5.773-13.658,6.796c-4.425,0.874-8.345,2.721-12.495,4.676c-1.085,0.511-2.169,1.021-3.26,1.513
	c-1.265,0.57-2.551,1.193-3.795,1.796c-2.353,1.141-4.786,2.32-7.333,3.27c-1.389,0.518-2.797,1.123-4.16,1.708
	c-1.135,0.487-2.31,0.992-3.494,1.456c-0.693,0.272-1.387,0.413-1.999,0.537c-0.39,0.079-0.758,0.154-1.078,0.252l-0.685,0.206
	c-1.059,0.316-2.06,0.615-2.937,1.043c-1.355,0.662-2.725,1.387-4.051,2.089c-1.978,1.047-4.023,2.13-6.13,3.065
	c-4.031,1.79-8.201,3.379-12.234,4.916l-0.93,0.355c-1.335,0.509-2.693,0.96-4.008,1.396c-1.586,0.526-3.084,1.024-4.559,1.618
	c-2.022,0.816-4.062,1.749-6.034,2.653c-1.215,0.556-2.43,1.113-3.653,1.649c-1.555,0.682-3.118,1.345-4.682,2.009
	c-1.469,0.624-2.939,1.247-4.401,1.886c-0.931,0.407-1.879,0.846-2.796,1.272c-1.343,0.623-2.731,1.266-4.144,1.845
	c-3.397,1.392-6.862,2.765-10.213,4.093c-1.525,0.604-3.051,1.209-4.574,1.817c-0.819,0.327-1.619,0.648-2.405,0.99
	c-1.47,0.639-2.936,1.288-4.401,1.937C68.493,199.372,65.135,200.859,61.771,202.214z M162.298,472.471
	c-2.195,1.865-4.632,3.421-6.94,4.855c-1.638,1.018-3.423,2.026-5.37,2.508c-3.798,0.94-7.86,1.777-12.782,2.632
	c-2.699,0.469-5.464,0.752-8.219,0.842c-0.36,0.012-0.721,0.018-1.085,0.018c-2.053,0-3.845-0.197-5.48-0.603
	c-2.837-0.704-5.211-1.599-7.258-2.735c-1.086-0.603-2.224-0.86-3.809-0.86c-0.633,0-1.286,0.039-2.071,0.098
	c-0.798,0.06-1.457,0.088-2.073,0.088c-0.922,0-1.743-0.064-2.509-0.195c-1.082-0.185-1.877-0.268-2.578-0.268
	c-1.365,0-2.441,0.323-3.488,1.049c-1.171,0.81-1.916,1.531-2.657,2.569c-2.382,3.337-4.943,6.444-7.613,9.234
	c-1.681,1.756-3.806,2.646-6.316,2.646c-1.868,0-3.688-0.475-5.377-0.988c-1.95-0.592-3.552-2.013-4.839-3.155
	c-1.42-1.259-2.019-2.822-1.644-4.287c0.377-1.475,1.666-2.565,3.536-2.992l0.762-0.176c1.8-0.419,3.661-0.852,5.601-0.926
	c5.044-0.193,8.333-2.881,10.35-8.458c0.199-0.551,0.272-1.279-1.396-2.948c-2.06-2.062-4.767-3.083-7.634-4.163
	c-0.561-0.212-1.124-0.424-1.683-0.644c-4.111-1.618-8.77-3.453-12.072-7.446c-0.704-0.851-1.191-1.813-1.62-2.662
	c-0.173-0.342-0.346-0.685-0.533-1.016l-0.685-1.212l0.899-1.063l0.772-0.912l0.701-0.828l1.076,0.135
	c0.603,0.076,1.208,0.141,1.814,0.206c1.394,0.151,2.835,0.306,4.272,0.59c2.215,0.438,4.431,0.964,6.574,1.472
	c0.913,0.216,1.826,0.433,2.74,0.643l0.104,0.024c0.056,0.013,0.112,0.027,0.168,0.037c0.016,0.002,0.034,0.002,0.052,0.002
	c2.417,0,8.388-5.008,8.54-6.727c0.003-0.065-0.026-0.278-0.158-0.591c-0.653-1.546-1.324-3.084-1.995-4.623
	c-1.474-3.38-2.998-6.875-4.31-10.412c-0.845-2.276-0.845-4.85-0.779-7.084c0.078-2.641,1.955-4.558,4.462-4.558
	c0.345,0,0.699,0.037,1.052,0.111l0.194,0.04c1.948,0.406,4.373,0.911,5.974,2.464c3.023,2.933,6.771,7.567,4.418,13.92
	c-0.041,0.112-0.089,0.226-0.137,0.341c-0.012,0.029-0.025,0.058-0.037,0.087c0.061,0.57,0.12,1.14,0.18,1.71
	c0.288,2.762,0.585,5.617,1.046,8.366c0.08,0.478,0.523,1.18,0.912,1.444c1.43,0.972,2.865,1.977,4.252,2.95
	c4.874,3.417,9.915,6.951,15.383,9.418c0.367,0.165,1.059,0.363,2.274,0.363c0.136,0,0.271-0.002,0.404-0.007
	c4.85-0.157,9.149-2.154,13.699-4.268c1.356-0.63,2.759-1.282,4.171-1.877c2.833-1.195,5.131-2.272,6.787-4.332
	c0.789-0.981,1.826-1.587,2.829-2.172c0.406-0.237,0.826-0.482,1.218-0.747l1.77-1.196l1.077,1.844
	c0.178,0.304,0.351,0.579,0.513,0.837c0.381,0.604,0.74,1.175,1.015,1.855c1.781,4.407,3.549,8.909,5.208,13.142
	C165.313,467.359,164.725,470.408,162.298,472.471z M367.484,493.336c0.668,10.3,1.903,20.763,3.097,30.881l0.415,3.522
	c0.294,2.503,0.827,5.065,1.342,7.543c0.367,1.764,0.747,3.589,1.047,5.415c0.432,2.625,0.753,5.511,0.983,8.824
	c0.168,2.43,0.295,4.896,0.417,7.28c0.197,3.833,0.4,7.796,0.781,11.653c0.236,2.389,0.684,4.84,1.117,7.21
	c0.418,2.284,0.85,4.647,1.11,7.024c0.58,5.295,0.945,10.682,1.299,15.893c0.078,1.155,0.157,2.31,0.237,3.465
	c0.066,0.943,0.135,1.886,0.204,2.829c0.291,3.958,0.591,8.05,0.625,12.109c0.029,3.394,0.405,6.875,0.77,10.242
	c0.552,5.102,1.123,10.377,0.564,15.727c-0.055,0.53-0.142,1.037-0.251,1.68c-0.058,0.339-0.124,0.727-0.198,1.189l-0.474,2.97
	l-2.556-1.585c-1.757-1.09-3.54-1.62-5.451-1.62c-2.448,0-4.868,0.833-7.43,1.714c-0.539,0.185-1.077,0.371-1.616,0.548
	c-0.52,0.171-1.055,0.404-1.622,0.649c-1.264,0.548-2.697,1.17-4.259,1.17c-0.349,0-0.693-0.031-1.03-0.093l-0.031,0.027
	l-11.662,10.012l-1.335,1.146l-1.307-1.177l-1.964-1.774c-1.453-1.314-2.915-2.636-4.388-3.945
	c-1.501-1.334-3.008-2.661-4.515-3.988c-2.73-2.404-5.552-4.89-8.296-7.382c-1.277-1.16-2.517-2.375-3.717-3.549
	c-1.373-1.344-2.792-2.734-4.235-4.008c-0.912-0.805-1.962-1.504-3.073-2.243c-0.657-0.437-1.336-0.888-1.998-1.373
	c-0.237-0.173-0.477-0.346-0.716-0.518c-1.137-0.819-2.313-1.665-3.382-2.692c-2.505-2.407-5.025-4.874-7.463-7.261
	c-4.068-3.983-8.275-8.101-12.507-12.031c-2.601-2.416-5.392-4.752-8.091-7.012c-2.267-1.898-4.611-3.861-6.859-5.882
	c-4.305-3.871-8.519-7.96-12.593-11.914l-1.034-1.003l-0.881-0.854c-6.445-6.252-13.11-12.716-19.563-19.188
	c-3.787-3.798-7.544-7.738-11.176-11.548c-1.563-1.639-3.126-3.279-4.695-4.911l-0.108-0.112c-0.514-0.534-1.046-1.087-1.547-1.702
	c-0.213-0.262-0.514-0.565-0.833-0.886c-1.081-1.088-2.305-2.322-2.174-4c0.2-2.555,1.198-5.16,2.67-6.968
	c3.455-4.242,7.923-7.793,14.06-11.173c1.478-0.814,2.995-1.227,4.509-1.227c0.839,0,1.694,0.127,2.539,0.376
	c0.746,0.22,1.541,0.381,2.383,0.551c1.639,0.331,3.333,0.674,4.91,1.508c2.533,1.34,4.775,3.126,6.944,4.854
	c0.35,0.279,0.699,0.557,1.049,0.833c1.147,0.905,2.205,1.344,3.234,1.344c0.797,0,1.636-0.253,2.566-0.772
	c0.33-0.184,0.663-0.366,0.996-0.547c1.207-0.657,2.346-1.278,3.327-2.034c2.06-1.59,3.276-3.784,3.518-6.345
	c0.577-6.132,4.044-10.425,7.396-14.576c0.585-0.725,1.171-1.449,1.74-2.184c0.888-1.148,2.384-1.506,2.821-1.588l2.002-0.38
	c3.157-0.603,6.421-1.225,9.683-1.668c1.027-0.139,2.036-0.21,2.997-0.21c5.081,0,9.352,1.923,13.055,5.878
	c2.667,2.847,4.409,3.177,5.488,3.177c1.774,0,3.823-1.044,6.783-3.473c0.296-1.013,0.753-1.917,1.165-2.733
	c0.79-1.565,1.262-2.589,1.017-3.878c-0.399-2.097-0.329-4.201-0.261-6.237c0.023-0.702,0.047-1.403,0.049-2.1
	c0.003-0.885,0.342-1.672,0.674-2.324c4.172-8.221,10.584-12.389,19.058-12.389c0.846,0,1.723,0.042,2.608,0.126
	c1.023,0.097,1.802,0.14,2.524,0.14c0.213,0,0.425-0.004,0.637-0.013c0.189-0.008,0.376-0.012,0.565-0.012
	C358.681,475.761,366.967,485.376,367.484,493.336z"/>
<path d="M236.107,203.432c-0.073,1.041,0.13,1.939,0.543,2.402c1.717,1.927,3.673,3.761,5.564,5.534l0.216,0.202
	c1.33,1.247,2.712,2.497,4.049,3.706c2.093,1.892,4.257,3.848,6.312,5.877c7.133,7.043,13.562,13.524,19.653,19.815
	c0.9,0.93,1.806,1.854,2.711,2.778c5.559,5.675,11.307,11.542,15.707,18.593c2.227,3.569,2.24,6.688,0.041,9.817
	c-0.585,0.832-1.252,1.558-1.885,2.23c-0.807,0.858-1.62,1.755-2.405,2.622c-2.013,2.223-4.095,4.523-6.43,6.546
	c-0.771,0.669-1.465,1.448-2.199,2.273c-1.278,1.436-2.6,2.92-4.529,4.081c-1.646,0.99-2.936,3.33-3.451,6.258
	c-0.264,1.501-0.262,3.135-0.225,4.535c0.053,2.012,0.665,2.671,1.704,3.13c3.479,1.537,5.932,3.642,7.5,6.438
	c0.148,0.264,0.529,0.607,0.896,0.939c0.2,0.18,0.399,0.361,0.588,0.545c1.441,1.41,2.936,2.827,4.382,4.197
	c3.272,3.1,6.654,6.306,9.735,9.734c3.117,3.468,5.945,7.24,8.68,10.887c1.034,1.379,2.069,2.759,3.119,4.123
	c0.494,0.641,0.803,1.314,1.076,1.907c0.092,0.201,0.182,0.398,0.278,0.582l0.712,1.367l-1.141,1.036
	c-0.559,0.508-1.093,0.939-1.565,1.319c-0.792,0.639-1.418,1.144-1.727,1.648c-2.265,3.694-5.591,5.74-9.087,7.678
	c-0.768,0.426-1.516,0.939-2.307,1.483c-1.139,0.782-2.316,1.592-3.659,2.202c-3.213,1.461-6.125,2.485-8.905,3.132
	c-1.058,0.246-2.089,0.279-2.958,0.279c-0.314,0-0.629-0.005-0.944-0.01c-0.294-0.005-0.587-0.01-0.88-0.01
	c-0.626,0-1.355,0.02-2.01,0.165c-1.184,0.263-2.42,0.397-3.673,0.397c-3.517,0-6.753-1.014-9.881-1.994l-0.834-0.26
	c-6.585-2.044-11.595-6.794-15.315-14.521c-0.655-1.36-1.26-2.751-1.845-4.096c-0.645-1.483-1.312-3.016-2.03-4.466
	c-0.066-0.133-0.132-0.272-0.199-0.413c-0.144-0.303-0.371-0.784-0.537-0.991c-0.035,0.008-0.079,0.02-0.135,0.04
	c-4.04,1.395-5.823,3.766-5.611,7.461c0.21,3.654,1.21,7.509,3.149,12.133c3.245,7.738,9.148,13.221,18.045,16.762
	c4.917,1.957,10.202,2.949,15.708,2.949c2.017,0,4.103-0.133,6.2-0.396c6.167-0.772,11.895-2.749,17.026-5.876
	c0.865-0.527,1.743-1.028,2.593-1.513c3.365-1.921,6.544-3.735,8.611-6.931c0.757-1.171,1.882-1.928,2.875-2.596
	c0.375-0.252,0.73-0.491,1.035-0.731c0.218-0.171,0.445-0.332,0.673-0.491c0.266-0.186,0.517-0.362,0.691-0.526
	c1.186-1.121,2.361-2.254,3.536-3.387c2.327-2.244,4.732-4.563,7.201-6.76c1.93-1.718,2.962-3.819,3.247-6.612
	c0.054-0.531-0.007-0.869-0.804-1.66c-1.103-1.096-2.271-2.19-3.4-3.247c-3.517-3.293-7.153-6.699-9.842-11.05l-0.426-0.695
	c-0.831-1.361-1.616-2.647-2.581-3.677c-2.345-2.503-4.805-4.994-7.184-7.404c-1.495-1.514-2.991-3.029-4.471-4.558
	c-2.19-2.262-4.32-4.484-6.31-6.797c-2.749-3.197-2.304-5.061-0.265-8.03c0.601-0.876,0.616-1.239,0.616-1.242
	c-0.015-3.883,2.329-6.171,4.398-8.19l0.263-0.257c0.379-0.372,0.764-0.696,1.136-1.01c0.312-0.263,0.606-0.512,0.868-0.763
	c1.542-1.483,3.079-2.97,4.617-4.457c2.602-2.517,5.293-5.12,7.964-7.66c1.651-1.57,1.702-2.683,1.533-3.565
	c-0.398-2.082-1.528-3.868-3.456-5.459l-0.348-0.286c-1.009-0.828-2.053-1.684-2.934-2.779c-1.559-1.938-3.103-3.931-4.596-5.858
	c-2.543-3.282-5.172-6.677-7.915-9.842c-2.608-3.01-5.471-5.928-8.239-8.75c-1.591-1.622-3.237-3.3-4.828-4.987
	c-0.773-0.82-1.471-1.687-2.146-2.525c-0.913-1.133-1.775-2.204-2.753-3.087c-1.77-1.599-3.596-3.206-5.362-4.76
	c-6.829-6.01-13.89-12.225-19.695-19.667c-1.118-1.433-2.273-2.13-3.53-2.13c-1.018,0-2.209,0.434-3.538,1.291l-0.454,0.291
	c-0.786,0.501-1.528,0.975-2.161,1.511C236.962,200.196,236.22,201.834,236.107,203.432z"/>
<path d="M200.228,347.726c-1.202-2.84-2.55-5.697-3.853-8.459c-1.088-2.307-2.213-4.692-3.26-7.078
	c-0.843-1.921-1.583-3.895-2.3-5.804c-0.605-1.612-1.23-3.278-1.903-4.871c-0.822-1.947-1.541-3.949-2.235-5.886
	c-1.688-4.707-3.283-9.154-6.275-12.948c-0.513-0.65-0.792-1.378-1.017-1.963l-0.098-0.254c-0.383-0.971-0.76-1.944-1.136-2.916
	c-1.922-4.965-3.738-9.655-6.385-14.149c-3.594-6.102-6.241-12.633-8.857-19.346c-1.597-4.099-3.53-8.159-5.398-12.086
	c-1.651-3.47-3.359-7.059-4.854-10.704c-1.104-2.694-2.311-5.416-3.478-8.049c-1.986-4.481-4.04-9.115-5.699-13.842
	c-1.957-5.576-5.301-10.041-10.224-13.648c-0.128-0.054-0.574-0.169-1.4-0.169c-1.69,0-3.143,0.451-3.448,0.692
	c-0.525,0.428-0.756,1.973,0.093,3.326c3.597,5.73,5.974,10.927,7.482,16.354c0.916,3.297,2.321,6.588,3.679,9.771
	c0.588,1.378,1.196,2.803,1.764,4.225c0.367,0.918,0.726,1.84,1.086,2.762c0.947,2.43,1.927,4.943,3.026,7.317
	c0.797,1.721,1.674,3.458,2.523,5.137c1.94,3.838,3.945,7.806,5.271,12.103c0.371,1.201,0.988,2.384,1.642,3.636l0.281,0.539
	c0.431,0.832,0.891,1.641,1.378,2.497c0.65,1.142,1.322,2.323,1.914,3.557c1.47,3.065,2.904,6.199,4.292,9.23
	c0.593,1.297,1.187,2.593,1.784,3.888c0.349,0.757,0.706,1.511,1.063,2.265c0.772,1.632,1.571,3.319,2.289,5.031
	c0.612,1.458,1.167,2.952,1.704,4.396c1.014,2.727,1.971,5.303,3.286,7.689c2.819,5.118,4.736,9.689,6.033,14.384
	c1.217,4.406,3.207,8.766,5.131,12.981c0.611,1.338,1.221,2.675,1.81,4.016c0.482,1.098,1.01,2.212,1.52,3.288
	c1.998,4.213,4.063,8.57,4.336,13.79c0.124,2.368,2.451,4.138,4.45,4.138c0.386,0,0.749-0.066,1.08-0.195
	c2.577-1.007,4.401-2.689,5.422-5.001c0.101-0.229,0.181-0.545,0.274-0.912c0.008-0.033,0.017-0.065,0.025-0.098
	c-0.252-0.809-0.493-1.622-0.727-2.413C201.674,351.763,201.064,349.7,200.228,347.726z"/>
<path d="M219.722,421.97c0.719,1.983,1.552,3.987,2.357,5.925c0.57,1.371,1.159,2.788,1.711,4.205
	c0.817,2.097,1.584,4.245,2.325,6.322c1.517,4.253,3.086,8.651,5.121,12.655c4.129,8.124,7.325,16.219,9.771,24.746l0.643,2.246
	c1.263,4.417,2.569,8.984,3.978,13.421c0.995,3.136,2.14,6.107,3.404,8.834c0.199,0.169,0.769,0.433,1.241,0.49
	c0.098,0.012,0.203,0.018,0.313,0.018c2.238,0,5.569-2.249,6.479-4.375c0.21-0.491,0.369-1.075,0.553-1.751
	c0.054-0.197,0.109-0.4,0.167-0.609c-0.147-0.505-0.274-1.018-0.397-1.518c-0.325-1.318-0.661-2.681-1.309-3.495
	c-3.171-3.982-4.88-8.525-6.533-12.919c-0.691-1.835-1.405-3.733-2.206-5.521c-1.708-3.81-3.25-7.744-4.742-11.548
	c-0.877-2.237-1.784-4.55-2.711-6.801c-1.146-2.783-2.342-5.606-3.499-8.336c-1.569-3.703-3.192-7.533-4.72-11.337
	c-2.299-5.725-3.931-10.173-5.289-14.422c-0.732-2.289-2.502-3.606-4.552-5.13c-0.458-0.341-0.916-0.682-1.362-1.034
	c-0.077-0.061-0.547-0.363-2.246-0.363l-0.154,0.001c-0.451,0.004-0.799,0.136-0.981,0.372c-0.235,0.305-0.167,0.758-0.106,1.002
	C217.721,415.995,218.644,418.998,219.722,421.97z"/>
<path d="M283.88,405.386c-1.279-2.862-2.525-2.862-2.934-2.862c-0.86,0-1.98,0.493-3.238,1.425
	c-0.466,0.345-0.941,0.779-1.411,1.289c-1.748,1.895-2,3.724-0.842,6.115c0.356,0.735,0.721,1.467,1.087,2.198
	c0.769,1.538,1.563,3.128,2.268,4.755c0.67,1.547,1.409,3.113,2.123,4.627c2.094,4.439,4.259,9.028,5.242,14.176
	c0.294,1.539,1.397,3.184,2.463,4.774c0.264,0.393,0.525,0.784,0.776,1.172c0.278,0.431,0.835,0.689,1.488,0.689
	c0.297,0,0.599-0.055,0.872-0.158c2.164-0.821,4.883-4.629,5.003-7.855c-0.016-0.06-0.032-0.125-0.05-0.193
	c-0.123-0.484-0.309-1.214-0.579-1.843l-2.268-5.293C290.64,420.84,287.29,413.018,283.88,405.386z"/>
<path d="M223.624,230.627c0.098-0.196,0.197-0.395,0.302-0.596c-0.124-0.6-0.224-1.189-0.322-1.765
	c-0.255-1.502-0.496-2.922-1.093-3.851c-0.722-1.124-2.429-1.85-4.348-1.85c-1.638,0-3.729,0.592-4.685,2.254
	c-0.401,0.697-0.854,1.332-1.291,1.947c-0.628,0.882-1.222,1.715-1.512,2.534c-0.847,2.393-1.308,4.078-0.05,5.617
	c0.853,1.044,1.872,1.574,3.027,1.574c0.507,0,1.035-0.103,1.57-0.306c2.857-1.085,5.514-2.768,7.51-4.114
	C222.991,231.896,223.357,231.162,223.624,230.627z"/>
<path d="M292.852,188.882c-0.511,0.654-0.962,1.396-1.44,2.182c-0.3,0.494-0.611,1.004-0.947,1.509
	c-0.755,1.134-1.49,2.829-0.707,4.468c0.769,1.609,2.768,2.784,5.284,3.132c0.382-0.166,0.789-0.323,1.21-0.485
	c1.289-0.497,2.751-1.06,3.545-1.935c2.463-2.711,3.523-4.593,3.338-5.922c-0.17-1.218-1.478-2.572-3.999-4.139
	c-1.076-0.669-2.036-1.008-2.854-1.008C295.857,186.685,294.567,186.685,292.852,188.882z"/>
</svg>
