<svg version="1.1" id="Layer_1" xmlns="http://www.w3.org/2000/svg" x="0" y="0" viewBox="0 0 1962.009 1876.399" xml:space="preserve"><style>.st1{fill:#8c8c8c}.st5{fill:#dd527e}</style><path d="M599.361 1873.102c-7.558.828-15.154 1.399-22.664 2.538-14.144 2.144-27.68-.605-41.352-3.836-13.391-3.165-25.561-8.808-37.312-15.656-7.42-4.324-15.043-8.346-22.179-13.099-6.35-4.229-12.288-9.149-15.096-16.741-.338-.915-.854-1.867-1.545-2.534-16.974-16.394-26.949-37.198-36.827-58.093-2.545-5.383-6.14-10.31-8.331-15.813-6.345-15.939-12.202-32.073-18.29-48.115-3.522-9.28-7.795-18.338-10.518-27.843-3.478-12.136-8.276-23.69-12.76-35.432-7.647-20.027-14.074-40.517-21.244-60.731-3.631-10.237-7.47-20.423-11.79-30.383-2.388-5.505-5.512-10.582-4.965-16.944.132-1.533-.63-3.242-1.297-4.727-5.025-11.184-10.486-22.19-15.057-33.554-2.3-5.719-2.88-12.111-4.507-18.125-1.703-6.293-3.691-12.51-5.627-18.738-1.864-5.994-3.912-11.932-5.706-17.947-1.131-3.791-1.713-7.752-2.938-11.507-4.808-14.735-10.099-29.321-14.566-44.156-3.048-10.122-4.68-20.664-7.562-30.844-4.758-16.803-8.897-33.916-15.413-50.042-5.23-12.944-9.428-25.888-12.319-39.496-2.32-10.923-5.86-21.618-9.38-32.241-1.957-5.908-4.943-11.479-7.528-17.173-5.106-11.247-7.294-23.328-10.434-35.16-1.759-6.63-5.404-12.734-7.691-19.253-6.577-18.743-12.539-37.709-19.422-56.336-6.054-16.384-13.161-32.375-19.54-48.643-4.171-10.638-7.866-21.463-11.788-32.199-6.598-18.057-13.546-35.995-19.711-54.198-5.52-16.297-10.097-32.911-15.274-49.327-1.683-5.338-4.002-10.473-5.931-15.737-6.122-16.707-12.541-33.317-18.184-50.185-4.624-13.821-7.947-28.076-12.51-41.92-3.827-11.61-8.814-22.832-12.925-34.355-7.464-20.921-15.047-41.814-21.843-62.955-5.568-17.322-10.821-34.816-14.848-52.544-5.184-22.824-11.652-45.264-18.2-67.688-5.462-18.705-12.554-36.966-17.379-55.819-5.938-23.203-9.173-46.759-5.057-70.962 5.927-34.854 17.473-67.684 33.083-99.252 4.094-8.279 7.085-17.158 11.739-25.083 2.487-4.235 7.395-7.072 11.3-10.436 1.473-1.269 3.73-1.9 4.717-3.416 4.145-6.369 7.57-13.231 11.968-19.406 5.372-7.542 11.426-14.601 17.237-21.827 7.301-9.078 15.954-16.363 25.544-23.222 20.311-14.527 42.075-26.593 63.33-39.468 11.831-7.166 25.038-12.34 38.089-17.153 24.602-9.071 49.491-17.136 72.765-29.689 15.11-8.15 31.438-14.064 47.308-20.775a661.1 661.1 0 0128.605-11.32c14.597-5.387 29.464-10.075 43.908-15.832 14.147-5.639 27.738-12.673 41.882-18.321 18.507-7.389 37.383-13.845 55.976-21.025 16.356-6.316 32.535-13.089 48.802-19.634 9.465-3.808 18.365-8.983 29.1-9.414 4.406-.177 8.699-3.062 13.051-4.695 12.074-4.529 24.064-9.307 36.258-13.489 9.987-3.425 20.218-6.138 30.343-9.163 14.153-4.229 28.409-7.774 41.956-14.249 11.566-5.528 24.596-7.687 37.507-9.027 6.6-.685 13.206-1.328 19.819-1.883 1.98-.166 4.142-.443 5.961.14 8.09 2.596 16.003 5.762 24.134 8.208 14.433 4.341 23.838 14.968 32.891 25.929 6.557 7.94 12.759 16.21 18.594 24.694 2.972 4.321 5.112 9.308 7.067 14.217 7.732 19.426 15.211 38.952 22.846 58.417 4.339 11.062 8.83 22.064 13.198 33.114 4.996 12.64 9.991 25.281 14.881 37.963 7.06 18.307 13.587 36.833 21.14 54.933 9.952 23.85 20.753 47.345 31.029 71.062 3.564 8.226 6.614 16.674 9.96 24.996 6.29 15.645 12.649 31.262 18.934 46.909 13.098 32.607 25.917 65.329 39.325 97.808 10.778 26.106 22.215 51.94 33.439 77.861a2456.093 2456.093 0 0016.918 38.238c5.608 12.37 11.507 24.607 17.136 36.966 4.946 10.86 9.913 21.719 14.48 32.741 6.479 15.638 12.269 31.568 18.964 47.11 6.964 16.163 15.146 31.808 21.911 48.047 9.94 23.86 19.04 48.069 28.623 72.079 2.696 6.755 5.837 13.333 8.765 19.997 7.593 17.279 15.402 34.468 22.693 51.873 4.869 11.624 8.967 23.571 13.47 35.35 2.943 7.697 6.236 15.269 8.944 23.046 4.525 12.997 8.812 26.079 13.01 39.186 6.155 19.216 12.094 38.5 18.218 57.726 5.123 16.083 10.337 32.138 15.589 48.179 4.104 12.535 7.632 25.318 12.646 37.484 10.165 24.661 18.358 49.989 27.146 75.129 5.327 15.238 11.923 30.027 17.608 45.146 3.033 8.067 5.227 16.445 7.997 24.615 8.088 23.858 14.693 48.079 19.133 72.91 1.039 5.808 3.252 11.593 5.926 16.883 5.343 10.568 8.605 21.832 9.062 33.373.555 14.012 6.887 28.011.777 42.135 3.248 16.365-4.693 30.517-9.818 44.912-5.654 15.881-14.45 30.637-20.221 46.485-5.354 14.701-15.336 25.397-25.894 35.935-15.527 15.498-33.443 27.949-51.618 40.082-6.047 4.037-11.643 8.77-17.301 13.364-8.545 6.937-17.791 12.309-28.066 16.6-9.68 4.043-18.304 10.609-27.397 16.059-9.17 5.495-18.709 9.814-29.321 12.119-8.371 1.818-16.369 5.332-24.561 8.006-6.264 2.045-12.452 4.608-18.885 5.798-16.207 2.998-30.391 11.273-45.657 16.688-13.408 4.756-26.464 10.708-40.129 14.493-26.968 7.47-51.145 21.733-77.491 30.576-13.158 4.417-26.453 8.423-39.636 12.768-6.567 2.164-12.989 4.763-19.531 7.008-16.53 5.673-32.875 12.041-49.696 16.665-18.51 5.088-37.365 9.119-56.262 12.559-25.133 4.575-50.452 8.125-75.686 12.144-1.961.312-3.899.802-5.824 1.3-6.716 1.736-13.332 4.122-20.152 5.118-8.555 1.249-17.005 2.454-24.814 6.396-14.729 7.436-31.242 8.57-46.779 13.172-7.872 2.332-16.088 3.501-24.149 5.195-.105-.539-.205-1.077-.304-1.614zm743.217-398.418c.188-1.211.741-2.869.65-4.491-.535-9.595-.491-19.306-2.091-28.732-1.202-7.083-4.742-13.745-6.946-20.688-2.806-8.839-5.573-17.706-7.895-26.681-4.556-17.606-7.762-35.633-13.416-52.866-7.439-22.673-16.737-44.735-25.165-67.086-6.916-18.342-13.963-36.64-20.526-55.109-7.456-20.98-14.408-42.139-21.636-63.201-5.065-14.759-10.246-29.479-15.337-44.229-10.36-30.017-15.978-61.467-27.824-91.058-10.088-25.2-19.258-50.768-29.376-75.955-14.844-36.949-29.945-73.8-45.393-110.5-7.203-17.113-15.94-33.581-23.137-50.696-7.557-17.972-17.758-34.838-22.561-53.988-1.204-4.801-3.255-9.444-5.358-13.954-5.463-11.72-11.392-23.225-16.736-34.997-11.265-24.812-22.298-49.728-33.382-74.622-9.726-21.843-19.78-43.552-28.985-65.614-10.877-26.068-20.855-52.509-31.495-78.677-7.891-19.41-16.49-38.534-24.279-57.984-10.11-25.249-18.758-51.047-31.966-75.05-6.698-12.173-11.522-25.44-16.523-38.47-9.64-25.119-18.517-50.533-28.247-75.616-9.618-24.797-19.854-49.355-29.951-73.963-1.088-2.652-2.547-6.35-4.713-7.134-6.253-2.262-7.465-7.274-8.317-12.501-1.695-10.4-5.672-19.801-11.779-28.265-3.857-5.345-8.162-10.372-12.355-15.468-5.901-7.173-11.253-14.953-17.983-21.253-9.961-9.324-21.864-13.719-35.836-9.562-11.072 3.294-22.296 6.079-33.357 9.406-21.303 6.408-42.606 12.831-63.779 19.652-14.215 4.579-28.206 9.855-42.298 14.817-13.164 4.635-26.415 9.041-39.474 13.956-16.801 6.323-33.364 13.279-50.187 19.54-14.937 5.559-30.244 10.143-45.099 15.902-12.671 4.912-24.754 11.341-37.415 16.281-20.772 8.105-41.643 16.02-62.765 23.145-24.642 8.313-48.599 18.096-71.83 29.755-18.423 9.246-37.095 17.881-56.83 24.149-12.668 4.024-25.581 7.951-37.377 13.914-30.909 15.624-59.564 34.959-86.832 56.305-2.282 1.787-4.108 4.233-5.894 6.565-12.04 15.717-20.142 33.395-26.201 52.156-3.523 10.911-5.43 22.179-3.032 33.189 1.463 6.719 2.847 13.456 4.246 20.21 3.766 18.187 6.888 36.695 12.842 54.198 8.636 25.386 18.573 50.425 32.625 73.535 3.182 5.232 4.496 10.912 2.759 17.212-.757 2.746-.764 6.08.042 8.805 2.632 8.895 5.86 17.612 8.737 26.437 2.972 9.117 5.747 18.299 8.706 27.421 6.04 18.622 11.871 37.319 18.326 55.796 3.911 11.196 9.411 21.845 13.162 33.086 5.641 16.902 11.466 33.876 15.147 51.257 2.92 13.787 7.018 27.057 12.465 39.813 9.387 21.982 17.513 44.359 24.469 67.195 2.599 8.535 4.91 17.176 7.931 25.559 5.161 14.323 10.784 28.48 16.203 42.71 4.432 11.639 8.803 23.302 13.303 34.915 1.42 3.664 3.703 7.061 4.678 10.817 4.652 17.919 11.341 35.101 18.083 52.289 1.797 4.582 2.682 9.523 3.966 14.304.767 2.856 1.296 5.792 2.274 8.572 4.93 14.006 9.987 27.966 14.971 41.953 4.337 12.174 8.829 24.297 12.906 36.558 6.273 18.869 12.283 37.826 18.336 56.768 2.805 8.776 5.341 17.638 8.203 26.394 1.845 5.646 4.409 11.072 6.031 16.772 2.5 8.786 4.12 17.826 6.731 26.575 6.811 22.819 13.886 45.56 20.99 68.29 6.626 21.2 11.162 43.011 19.527 63.726 3.959 9.804 5.978 20.384 9.032 30.565 4.453 14.846 8.745 29.752 13.684 44.438 3.556 10.574 8.381 20.719 12.03 31.267 2.779 8.035 4.167 16.55 6.946 24.585 4.418 12.777 9.483 25.33 14.263 37.982 1.291 3.418 3.597 6.841 3.632 10.28.183 17.644 12.32 31.131 15.963 47.681 2.667 12.116 9.344 23.295 12.835 35.299 5.131 17.645 12.878 33.787 23.773 48.48 3.536 4.769 8.412 8.867 10.766 14.127 5.163 11.536 15.518 15.769 25.748 20.149 15.253 6.529 30.604 13.103 47.877 11.524 1.257-.115 2.596.856 3.879.812 11.267-.391 23.065 1.049 33.662-1.858 13.702-3.758 27.149-8.187 41.291-10.268 5.125-.754 10.027-2.968 15.063-4.399 5.721-1.626 11.431-3.334 17.231-4.627 10.669-2.378 21.791-3.363 32.019-6.942 17.352-6.071 34.695-12.041 52.475-16.719 5.426-1.427 10.853-2.865 16.224-4.48 10.465-3.146 20.846-6.578 31.345-9.604 15.282-4.405 30.64-8.545 45.958-12.824 5.392-1.506 10.831-2.883 16.131-4.668 17.599-5.928 35.153-11.99 52.704-18.06 4.057-1.403 7.915-3.766 12.068-4.444 17.62-2.877 33.183-11.161 49.324-17.973 11.894-5.019 23.659-10.495 35.895-14.506 10.346-3.391 21.835-3.618 31.828-7.681 13.677-5.562 29.143-6.533 41.307-15.963 1.233-.956 3.108-1.095 4.695-1.578 16.848-5.124 33.856-9.783 50.486-15.536 9.671-3.346 18.987-7.978 28.01-12.868 12.545-6.798 24.311-15.093 37.065-21.428 13.021-6.467 23.837-16.661 37.722-21.5 1.241-.432 2.451-1.094 3.519-1.865 11.248-8.125 22.57-15.917 35.58-21.328 7.618-3.168 12.438-9.927 11.79-19.13-.191-2.656-.35-5.318-.551-8.429zm-287.841 189.924c-14.026 5.18-27.619 10.156-41.178 15.222-12.123 4.529-24.134 9.371-36.348 13.635-4.625 1.615-6.505 4.226-8.088 8.849-4.169 12.181-9.588 23.928-14.109 35.997-1.655 4.418-2.183 9.257-3.502 15.139 6.736-2.822 11.874-5 17.032-7.131 9.776-4.04 19.591-7.99 29.338-12.098 7.534-3.175 14.72-7.872 22.554-9.454 8.716-1.761 13.309-6.334 16.386-13.888 5.885-14.445 11.948-28.817 17.874-43.245.317-.771.041-1.784.041-3.026zm-115.557 39.74c-8.878 3.041-15.904 5.53-22.985 7.855-13.265 4.356-26.479 8.9-39.878 12.802-7.036 2.049-13.262 4.09-14.382 12.671-.241 1.85-2.027 3.443-2.689 5.301-4.213 11.829-8.404 23.669-12.351 35.588-.659 1.991-.093 4.387-.093 7.626 5.554-1.113 10.832-1.026 14.901-3.201 11.885-6.354 24.785-8.93 37.653-11.872 4.203-.961 8.357-2.146 12.513-3.302 4.256-1.182 6.846-3.433 6.725-8.462-.077-3.23.641-6.688 1.85-9.705 5.754-14.362 11.797-28.609 18.736-45.301zm-539.03-99.069c2.481 7.817 4.038 15.76 7.481 22.779 4.032 8.219 5.029 17.343 9.842 25.474 4.376 7.391 5.211 16.828 7.971 25.244a175.167 175.167 0 007.185 18.385c.927 2.023 3.375 3.349 5.517 5.359 5.929-13.498 11.434-25.731 16.601-38.104.811-1.942.635-4.69-.011-6.779-3.485-11.281-7.178-22.5-10.961-33.685-4.431-13.099-9.039-26.139-13.549-39.212-2.411-6.988-4.777-13.991-7.163-20.987l-2.127.119c-3.426 8.475-7.675 16.738-9.939 25.513-1.176 4.56-3.014 7.763-6.141 10.77-1.642 1.58-3.095 3.357-4.706 5.124zM158.407 888.723c1.17-1.255 2.088-1.854 2.459-2.695 6.81-15.413 13.675-30.804 20.172-46.349.88-2.106.348-5.174-.391-7.525-5.354-17.026-11.016-33.955-16.403-50.971-3.054-9.648-5.773-19.401-9.056-30.506-1.728 2.506-3.122 3.817-3.651 5.414-2.879 8.685-5.311 17.525-8.373 26.141-1.764 4.963-4.526 9.369-3.966 15.166.28 2.9-1.266 7.274-3.494 8.854-4.907 3.478-3.656 7.203-2.306 11.391 5.565 17.265 10.979 34.581 16.798 51.759 2.195 6.481 5.338 12.639 8.211 19.321zM115.18 763.068c2.101-1.237 2.796-1.45 3.181-1.918a10.457 10.457 0 001.525-2.534c5.765-13.592 11.21-27.372 22.005-38.041 2.751-2.719 1.341-5.301.304-8.18-6.73-18.689-13.337-37.423-19.973-56.146-2.708-7.64-5.389-15.29-8.542-24.242-1.338 2.534-2.31 3.795-2.703 5.217-1.943 7.03-3.379 14.219-5.66 21.132-3.354 10.167-3.02 21.875-12.529 29.582-3.416 2.769-1.767 6.625-.537 10.158 4.017 11.537 7.848 23.138 11.901 34.662 3.472 9.874 7.15 19.677 11.028 30.31zm609.059 1005.883c-2.604.237-5.583.227-8.432.83-4.528.958-8.955 2.388-13.452 3.507-9.574 2.383-19.177 4.649-28.747 7.048-9.947 2.493-19.75 5.881-29.839 7.386-8.303 1.239-15.775 1.6-15.051 12.813.072 1.117-1.405 2.252-1.787 3.494-2.478 8.053-6.046 15.88-6.084 25.796 16.837-4.09 32.96-7.118 47.598-14.946 4.339-2.32 8.477-3.588 13.219-1.966 2.482.849 4.899 1.926 7.425 2.603 6.731 1.805 15.318-1.193 17.462-6.068 5.789-13.16 11.514-26.349 17.688-40.497zm-122.255 21.033c-4.031-.356-5.972-.57-7.919-.692-13.229-.825-26.37-2.11-38.904-6.893-4.625-1.765-9.4-3.167-13.937-5.127-4.412-1.906-6.944-.617-8.378 3.743-.517 1.572-1.358 3.041-1.823 4.625-3.405 11.597-6.752 23.211-10.259 35.307-.079-.114.168.646.673.908 18.308 9.512 37.96 13.228 58.402 12.968 1.988-.025 4.935-2.246 5.753-4.165 5.546-13.023 10.64-26.238 16.392-40.674zM236.575 992.353l-2.19.125c-.888 3.632-1.93 7.235-2.634 10.903-1.915 9.981-2.393 20.411-9.418 28.712-1.282 1.515-2.73 2.933-3.767 4.604-3.176 5.115-4.902 9.738-2.142 16.449 7.794 18.953 14.269 38.448 21.431 57.666.721 1.934 2.581 3.443 4.928 6.45 1.977-4.099 3.604-6.831 4.654-9.769 3.081-8.625 4.793-17.959 11.8-24.593 6.811-6.449 7.101-13.175 2.434-20.959-1.665-2.777-2.082-6.29-3.159-9.436-5.901-17.245-11.776-34.5-17.801-51.702-1.029-2.939-2.74-5.639-4.136-8.45zm592.123 747.506c-9.971 2.442-18.339 4.154-26.499 6.569-11.752 3.478-23.411 7.303-34.964 11.391-2.093.74-4.066 3.174-5.102 5.307-4.324 8.902-8.374 17.942-12.313 27.023-2.331 5.374-4.265 10.92-7.144 18.373 5.038-.987 8.132-1.353 11.075-2.229 4.109-1.223 8.003-3.529 12.169-4.133 11.808-1.713 23.683-3.184 35.583-3.943 4.951-.316 7.299-2.265 8.557-6.541 1.4-4.758 2.543-9.612 4.26-14.253 4.457-12.048 9.167-24.004 14.378-37.564zM197.265 877.988l-3.448-.122c-3.084 9.704-6.716 19.277-9.098 29.151-2.377 9.856-5.892 18.869-13.256 26.375 8.617 22.795 16.939 45.521 26.732 68.671 5.566-5.405 5.975-11.133 7.302-16.556 2.953-12.069 4.571-24.861 17.014-32.433-8.876-25.166-16.08-50.465-25.246-75.086zm60.962 286.388c.651 3.521.733 7.328 2.069 10.627 7.729 19.087 13.819 38.638 18.086 58.793.752 3.551 1.858 7.546 6.136 9.983 1.7-3.478 3.397-6.309 4.518-9.351 4.639-12.598 8.86-25.354 13.758-37.848 1.805-4.603 2.291-8.561.605-13.314-7.963-22.446-15.599-45.008-23.437-67.499-.229-.657-1.415-.98-3.076-2.055-4.434 17.567-6.118 35.623-18.659 50.664zm90.276 299.99l2.911.24c2.155-5.13 4.256-10.283 6.479-15.383 3.025-6.941 5.375-14.335 9.417-20.633 5.078-7.913 6.363-15.395 3.369-24.371-4.826-14.469-8.771-29.23-13.242-43.821-2.075-6.773-4.511-13.436-6.783-20.148l-2.413.022c-5.284 18.457-4.913 39.269-21.078 52.429 6.487 24.708 12.908 48.502 21.34 71.665zm726.49 238.298c3.043-.254 4.754-.103 6.276-.568 13.598-4.156 27.228-8.229 40.705-12.752 4.991-1.675 9.245-4.402 11.668-9.959 5.931-13.598 12.618-26.865 18.878-40.322 1.171-2.517 1.773-5.298 3.216-9.737l-63.393 22.617c-4.963 16.434-16.636 31.035-17.35 50.721zm96.408-33.941l1.475 2.024c3.245-1.228 6.714-2.06 9.696-3.75 15.867-8.99 31.687-18.07 47.358-27.396 5.433-3.234 9.699-7.245 10.928-14.457 1.486-8.723 4.302-17.294 9.205-24.963 2.063-3.227 2.945-6.873 2.527-11.274-2.663.853-4.661 1.221-6.406 2.094-17.426 8.714-34.755 17.621-52.252 26.189-3.486 1.707-4.579 4.037-5.34 7.549-.968 4.47-2.742 8.795-4.458 13.067-4.155 10.341-8.478 20.616-12.733 30.917zM58.988 579.693c1.317 5.865 2.799 13.675 4.865 21.327 2.067 7.656 4.532 15.22 7.168 22.702 2.519 7.15 1.761 15.571 7.674 21.796.83-1.039 1.383-1.488 1.622-2.066 5.319-12.868 10.59-25.756 15.912-38.622.725-1.753 1.233-4.154 2.606-4.976 4.265-2.553 3.619-6.025 2.4-9.575a2604.051 2604.051 0 00-13.162-37.425c-2.901-8.048-6.02-16.019-9.12-23.994-.177-.456-1.064-.636-2.046-1.18-.733.891-1.934 1.73-2.245 2.823-2.729 9.594-5.08 19.299-7.995 28.833-1.881 6.158-4.521 12.083-7.679 20.357zm396.429 1165.994c10.3 20.804 21.946 39.936 38.333 56.799 5.363-13.924 10.441-27.09 15.502-40.263 1.442-3.754-.544-6.047-3.111-8.585-5.155-5.096-10.769-10.053-14.609-16.078-6.013-9.433-10.709-19.705-15.969-29.618-.926-1.745-1.886-3.472-2.83-5.208l-2.685 1.123c-1.702 4.148-4.787 8.28-4.837 12.448-.131 10.823-4.655 19.831-9.794 29.382zm-67.533-182.93c2.475-5.593 4.647-10.996 7.226-16.197 2.753-5.552 4.697-12.357 9.135-16.022 6.814-5.626 5.512-10.814 3.075-17.347-5.883-15.771-11.475-31.651-17.23-47.47-.621-1.707-1.546-3.303-2.661-5.647-1.642 1.963-3.091 3.026-3.622 4.436-4.17 11.054-8.119 22.191-12.255 33.258-.793 2.121-1.609 4.774-3.28 5.921-4.362 2.996-3.841 6.64-2.257 10.513 6.352 15.533 12.818 31.02 19.293 46.502.22.528.996.822 2.576 2.053zm-47.746-263.379c-3.038-10.275-5.337-19.96-8.798-29.209-3.375-9.02-4.014-19.118-9.86-27.887-3.102 8.199-4.883 16.09-8.891 22.61-4.047 6.583-9.513 12.827-19.362 13.784 3.937 11.559 7.757 22.089 11.096 32.769 3.244 10.377 3.337 21.83 10.418 32.447 7.934-16.089 10.798-33.189 25.397-44.514zM46.334 429.469c-14.257 26.393-13.516 88.074-.716 99.363 6.128-12.25 8.128-26.494 18.58-36.919-3.529-10.307-7.472-20.49-10.465-30.945-2.964-10.357-4.971-20.988-7.399-31.499zm1273.73 1118.395c-10.759 7.664-21.533 12.519-26.962 22.985-4.142 7.985-6.233 17.035-9.757 27.095 3.407-1.176 6.16-1.255 7.276-2.647 11.207-13.977 24.363-26.774 29.443-47.433zM1306.959 832.773c-4.906 5.104-8.702 9.083-12.532 13.03-4.651 4.793-9.225 9.388-16.607 10.071-10.963 1.015-17.569-3.689-17.803-14.476-.117-5.408-1.623-8.599-6.676-10.82-2.291-1.007-5.35-4.217-5.189-6.193.823-10.096-2.479-20.255 2.364-30.443 3.482-7.326 3.671-16.15 5.953-24.127 5.164-18.053 10.673-35.998 17.757-53.434 5.875-14.458 11.299-29.099 16.991-43.633 1.433-3.658 3.237-7.17 4.663-10.83.94-2.412 2.058-4.956 2.115-7.463.084-3.705-2.553-6.141-5.86-4.126-6.116 3.728-12.216 1.696-18.432 1.518-7.878-.226-15.823-.469-23.645.28-12.389 1.186-23.973-2.494-35.128-6.327-10.176-3.497-20.992-6.402-29.662-13.746-2.022-1.713-5.529-2.123-8.402-2.292-7.218-.423-13.278-2.367-18.587-7.914-11.546-12.062-22.286-24.469-28.048-40.532-.927-2.584-3.439-4.866-5.716-6.654-11.537-9.056-22.306-18.896-31.474-30.368-19.37-24.237-36.177-49.94-46.646-79.479-4.089-11.536-10.521-22.251-12.315-34.601-3.246-22.348-9.639-44.473-7.713-67.247 2.043-24.166.368-48.635 5.65-72.523 4.589-20.751 9.372-41.459 14.121-62.174a18.698 18.698 0 011.751-4.654c13.711-25.392 27.309-50.847 41.349-76.056 2.699-4.846 6.929-8.942 10.873-12.972 8.818-9.008 17.709-17.962 26.916-26.568 21.044-19.668 45.45-34.079 71.62-45.894 14.463-6.53 28.355-14.321 42.556-21.441 2.361-1.184 4.953-1.95 7.493-2.728 17.721-5.434 36.046-9.429 53.015-16.627 15.783-6.695 32.073-10.27 48.515-13.865 10.701-2.34 21.466-5.182 32.323-5.853 26.757-1.654 53.511-2.905 80.351.787 19.383 2.666 39.088 2.903 58.6 4.745 13.831 1.306 27.583 3.46 41.365 5.276 15.138 1.995 30.311 3.774 45.39 6.144 10.716 1.684 21.56 3.071 32.09 5.238 11.873 2.443 23.293 7.686 34.489 12.659 11.154 4.955 21.564 11.588 32.727 16.518 7.209 3.184 15.227 4.497 22.803 6.9 4.102 1.301 8.232 2.764 12.011 4.786 10.787 5.772 21.969 11.054 31.958 18.018 17.221 12.006 34.808 23.598 49.133 39.426 9.48 10.474 20.321 19.706 30.351 29.698 3.042 3.031 5.32 6.815 8.1 10.125 8.521 10.143 17.27 20.097 25.639 30.362 8.551 10.488 17.323 20.868 24.972 32 9.928 14.449 19.337 29.312 28.022 44.537 6.048 10.602 10.136 22.145 12.096 34.462 1.348 8.473 4.477 16.651 6.594 25.015 4.252 16.808 3.157 33.624-.225 50.42-3.672 18.235-6.684 36.63-11.121 54.676-4.666 18.973-10.465 37.519-24.266 52.649-7.717 8.46-14.193 18.205-20.251 27.976-4.847 7.818-7.636 16.9-12.377 24.798-7.827 13.038-14.736 26.897-26.685 36.937-9.372 7.875-19.195 15.212-28.558 23.096-7.873 6.629-15.249 13.846-23.081 20.525-5.024 4.284-10.106 8.738-15.831 11.907-7.803 4.319-16.471 7.06-24.345 11.269-7.574 4.049-14.472 9.347-21.94 13.62-3.929 2.248-8.389 3.633-12.711 5.108-2.808.958-6.067.833-8.669 2.116-22.927 11.309-48.429 10.739-72.703 15.711-10.967 2.246-22.476 1.82-33.734 2.674-11.579.878-23.138 2.349-34.73 2.659-25.201.674-50.438.976-75.456-2.965-5.537-.872-10.916-2.771-16.351-4.255-5.233-1.429-9.376-.523-13.421 3.716-13.55 14.198-26.374 28.85-37.2 45.355-6.091 9.285-14.256 17.205-21.448 25.773-9.833 11.714-19.545 23.53-29.49 35.148-3.221 3.764-7.121 6.938-10.522 10.558-12.226 13.012-24.182 26.285-36.621 39.089-7.241 7.454-15.62 13.105-26.727 13.649-7.91.387-9.911-.588-11.833-8.464-.601-2.44-1.06-4.916-1.985-9.28zm12.499-239.406c3.538-.29 6.831-.768 10.126-.782 5.356-.023 9.638 3.365 10.447 7.802 1.343 7.361 3.196 16.182.397 22.385-4.28 9.485-7.151 18.63-8.412 28.948-.937 7.667-5.238 14.899-7.859 22.388-6.246 17.85-12.519 35.693-18.509 53.629-2.818 8.439-5.114 17.06-7.464 25.648-3.582 13.093-7.038 26.22-10.434 39.362-.289 1.119.267 2.458.625 5.158 3.118-2.436 5.559-3.989 7.568-5.978 5.804-5.746 10.72-12.694 17.304-17.273 9.197-6.396 16.235-14.491 23.277-22.883 6.812-8.117 13.747-16.197 21.295-23.614 9.892-9.721 20.533-18.675 30.682-28.141 22.639-21.115 45.125-42.396 67.798-63.475 3.756-3.492 6.073-7.206 7.778-12.239 2.05-6.05 5.657-12.468 10.485-16.398 3.899-3.174 10.562-3.654 16.083-4.009 21.208-1.364 42.309 3.24 63.558 1.54.311-.025.661.125.957.267 11.173 5.387 23.487 1.809 35.071 4.452 6.073 1.385 12.546 1.802 18.789 1.526 30.599-1.352 60.944-5.019 91.01-10.936 12.698-2.499 25.644-4.062 38.076-7.5 11.412-3.156 22.444-7.894 33.357-12.599 14.317-6.173 28.394-12.912 42.473-19.622 2.646-1.261 5.119-3.234 7.154-5.371 22.908-24.05 45.449-48.345 64.832-75.517 12.203-17.107 20.901-35.245 25.219-55.737 1.845-8.753 5.225-17.179 7.137-25.922 2.478-11.333 4.776-22.767 6.094-34.279 2.138-18.677-3.681-36.501-9.233-53.738-9.198-28.555-27.724-51.976-46.49-74.893-9.227-11.268-19.239-21.889-28.752-32.927-9.535-11.064-18.16-23.02-28.506-33.248-13.378-13.225-23.937-29.354-40.324-39.535-5.924-3.681-11.626-7.736-17.295-11.806-17.942-12.883-37.627-22.058-58.592-28.932-10.357-3.396-20.483-7.817-30.198-12.784-18.867-9.645-38.83-15.865-59.469-19.811-14.346-2.743-28.942-4.205-43.445-6.092-17.15-2.231-34.301-4.476-51.488-6.387-11.91-1.324-23.956-1.557-35.808-3.228-21.733-3.064-43.268-5.817-65.468-4.932-24.134.962-48.066 3.208-71.155 9.382-28.825 7.708-57.016 17.862-85.311 27.461-25.644 8.699-49.665 21.28-72.743 35.084-29.988 17.937-55.426 41.104-71.468 73.162-6.835 13.658-14.973 26.677-21.535 40.455-10.656 22.372-14.285 46.804-19.2 70.818-3.017 14.741-2.576 29.702-2.835 44.624-.19 10.941-1.818 22.003-.688 32.789 2.392 22.841 3.329 46.036 13.925 67.365 5.713 11.5 9.359 24.016 14.898 35.615 10.083 21.115 24.258 39.484 40.526 56.184 4.833 4.961 10.277 9.516 16.055 13.325 11.346 7.479 23.611 12.984 37.159 15.525 5.426 1.018 10.599 3.371 15.896 5.088 9.705 3.146 19.23 7.221 29.171 9.18 14.943 2.945 30.17 4.463 45.294 6.457 4.922.649 9.891.984 14.85 1.287 5.87.359 11.814.109 17.594.993 2.189.334 4.413 2.795 5.89 4.819 1.71 2.342 2.614 5.274 3.831 7.87z"/><path d="M1342.578 1474.684c.201 3.111.36 5.773.547 8.432.647 9.203-4.172 15.961-11.79 19.13-13.011 5.411-24.333 13.203-35.58 21.328-1.068.772-2.277 1.433-3.519 1.865-13.885 4.839-24.702 15.033-37.722 21.5-12.755 6.335-24.521 14.63-37.065 21.428-9.023 4.89-18.34 9.522-28.01 12.868-16.63 5.753-33.638 10.411-50.486 15.536-1.588.483-3.463.623-4.695 1.578-12.164 9.431-27.63 10.402-41.307 15.963-9.993 4.063-21.482 4.29-31.828 7.681-12.236 4.011-24.001 9.486-35.895 14.506-16.141 6.812-31.704 15.096-49.324 17.973-4.153.678-8.011 3.041-12.068 4.444-17.551 6.07-35.105 12.132-52.704 18.06-5.3 1.785-10.739 3.162-16.131 4.668-15.319 4.278-30.677 8.418-45.958 12.824-10.499 3.026-20.88 6.458-31.345 9.604-5.372 1.615-10.799 3.052-16.224 4.48-17.781 4.677-35.124 10.647-52.475 16.719-10.228 3.579-21.35 4.564-32.019 6.942-5.8 1.292-11.51 3.001-17.231 4.627-5.037 1.431-9.938 3.645-15.063 4.399-14.142 2.081-27.589 6.51-41.291 10.268-10.597 2.907-22.394 1.466-33.662 1.858-1.283.045-2.622-.927-3.879-.812-17.273 1.579-32.624-4.995-47.877-11.524-10.231-4.379-20.586-8.612-25.748-20.149-2.354-5.259-7.229-9.357-10.766-14.127-10.895-14.693-18.642-30.834-23.773-48.48-3.49-12.004-10.167-23.182-12.835-35.299-3.643-16.55-15.78-30.038-15.963-47.681-.036-3.439-2.341-6.862-3.632-10.28-4.78-12.652-9.846-25.205-14.263-37.982-2.778-8.035-4.166-16.551-6.946-24.585-3.648-10.547-8.473-20.692-12.03-31.267-4.939-14.686-9.23-29.591-13.684-44.438-3.054-10.181-5.073-20.76-9.032-30.565-8.366-20.715-12.901-42.526-19.527-63.726-7.105-22.73-14.18-45.471-20.99-68.29-2.611-8.748-4.231-17.789-6.731-26.575-1.622-5.701-4.186-11.127-6.031-16.772-2.862-8.756-5.398-17.619-8.203-26.394-6.053-18.942-12.063-37.899-18.336-56.768-4.076-12.261-8.568-24.384-12.906-36.558-4.983-13.987-10.041-27.947-14.971-41.953-.978-2.78-1.507-5.716-2.274-8.572-1.284-4.781-2.168-9.722-3.966-14.304-6.742-17.188-13.431-34.37-18.083-52.289-.975-3.756-3.258-7.153-4.678-10.817-4.5-11.613-8.871-23.276-13.303-34.915-5.419-14.23-11.042-28.387-16.203-42.71-3.021-8.384-5.332-17.025-7.931-25.559-6.955-22.836-15.082-45.213-24.469-67.195-5.447-12.755-9.545-26.026-12.465-39.813-3.681-17.381-9.506-34.355-15.147-51.257-3.751-11.24-9.251-21.89-13.162-33.086-6.455-18.478-12.286-37.174-18.326-55.796-2.959-9.122-5.734-18.304-8.706-27.421-2.877-8.825-6.105-17.542-8.737-26.437-.806-2.725-.799-6.059-.042-8.805 1.736-6.299.422-11.979-2.759-17.212-14.052-23.11-23.989-48.149-32.625-73.535-5.954-17.504-9.076-36.011-12.842-54.198-1.399-6.754-2.782-13.492-4.246-20.21-2.398-11.009-.491-22.278 3.032-33.189 6.059-18.762 14.16-36.439 26.201-52.156 1.787-2.332 3.612-4.779 5.894-6.565 27.268-21.347 55.924-40.681 86.832-56.305 11.796-5.963 24.709-9.891 37.377-13.914 19.735-6.268 38.406-14.903 56.83-24.149 23.232-11.66 47.188-21.443 71.83-29.755 21.122-7.125 41.993-15.04 62.765-23.145 12.662-4.94 24.744-11.369 37.415-16.281 14.855-5.759 30.162-10.342 45.099-15.902 16.823-6.261 33.386-13.217 50.187-19.54 13.059-4.915 26.31-9.321 39.474-13.956 14.092-4.962 28.083-10.237 42.298-14.817 21.173-6.821 42.476-13.244 63.779-19.652 11.061-3.327 22.285-6.113 33.357-9.406 13.972-4.156 25.875.238 35.836 9.562 6.73 6.3 12.082 14.08 17.983 21.253 4.193 5.096 8.498 10.123 12.355 15.468 6.107 8.463 10.084 17.865 11.779 28.265.852 5.227 2.064 10.239 8.317 12.501 2.166.783 3.625 4.482 4.713 7.134 10.097 24.608 20.333 49.166 29.951 73.963 9.73 25.084 18.607 50.497 28.247 75.616 5.001 13.03 9.824 26.297 16.523 38.47 13.209 24.003 21.856 49.801 31.966 75.05 7.788 19.45 16.387 38.574 24.279 57.984 10.639 26.169 20.618 52.61 31.495 78.677 9.205 22.062 19.259 43.77 28.985 65.614 11.084 24.893 22.118 49.81 33.382 74.622 5.345 11.772 11.273 23.277 16.736 34.997 2.102 4.51 4.154 9.153 5.358 13.954 4.803 19.15 15.004 36.016 22.561 53.988 7.197 17.115 15.934 33.583 23.137 50.696 15.448 36.701 30.549 73.551 45.393 110.5 10.119 25.187 19.289 50.755 29.376 75.955 11.846 29.591 17.464 61.041 27.824 91.058 5.091 14.75 10.272 29.47 15.337 44.229 7.228 21.062 14.181 42.221 21.636 63.201 6.563 18.469 13.61 36.767 20.526 55.109 8.428 22.351 17.726 44.413 25.165 67.086 5.654 17.233 8.86 35.26 13.416 52.866 2.322 8.974 5.09 17.841 7.895 26.681 2.204 6.943 5.744 13.605 6.946 20.688 1.599 9.426 1.556 19.136 2.091 28.732.095 1.619-.458 3.277-.646 4.488zm-84.471-134.595l-.572-.016c.32-6.297 2.633-13.386.516-18.716-3.621-9.117-3.513-18.854-6.768-27.781-5.538-15.189-11.512-30.229-17.681-45.175-4.778-11.575-10.282-22.847-15.195-34.369-6.079-14.256-11.909-28.618-17.793-42.956-5.281-12.868-10.363-25.818-15.776-38.629-3.475-8.224-8.948-15.923-10.806-24.45-4.916-22.573-19.341-41.178-24.815-63.62-2.682-10.997-9.846-20.911-13.252-32.262-3.886-12.952-9.941-25.247-14.916-37.882-2.38-6.043-4.53-12.182-6.624-18.332-2.775-8.148-4.522-16.774-8.256-24.442-8.4-17.25-15.738-34.915-22.613-52.789-4.759-12.373-9.076-24.916-13.742-37.325-3.473-9.235-7.236-18.361-10.783-27.569-3.681-9.556-7.079-19.223-10.915-28.715-7.178-17.761-14.586-35.429-21.895-53.137-10.106-24.484-20.143-48.997-30.333-73.446-9.932-23.827-22.208-46.514-33.908-69.486-6.005-11.791-10.57-24.376-17.229-35.759-10.519-17.98-17.91-37.594-29.422-55.02-1.039-1.572-1.058-3.795-1.667-5.678-3.576-11.048-6.746-22.253-10.896-33.082-5.212-13.603-12.258-26.575-16.606-40.417-3.945-12.561-6.754-25.351-12.028-37.633-8.063-18.777-14.071-38.424-21.613-57.44-7.066-17.817-15.04-35.273-22.513-52.93-2.965-7.007-5.737-14.099-8.457-21.205-4.849-12.667-9.798-25.302-14.304-38.091-2.948-8.367-6.44-16.357-14.872-20.25-5.665-2.616-11.874-4.867-18.011-5.442-7.456-.699-15.13.207-22.639 1.048-5.185.581-10.225 2.367-15.379 3.355-4.216.808-8.634.765-12.74 1.902-33.613 9.305-67.171 18.807-100.752 28.228-8.544 2.397-17.858 2.88-24.481 9.981-6.609-.182-11.232 5.654-17.152 6.306-14.566 1.604-26.648 9.351-39.693 14.65-9.177 3.728-17.816 8.758-26.906 12.724-15.714 6.856-31.699 13.094-47.363 20.059-10.297 4.579-20.109 10.242-30.357 14.941-12.223 5.604-24.686 10.684-37.034 16.016-10.593 4.574-21.172 9.179-31.753 13.779-2.089.908-4.205 1.769-6.233 2.8-12.357 6.281-24.562 12.878-37.081 18.816-8.063 3.825-16.759 6.312-24.835 10.113-8.625 4.06-16.783 9.102-25.3 13.406-2.579 1.303-5.698 1.508-8.533 2.342-5.319 1.565-10.922 2.579-15.855 4.964-12.786 6.181-25.137 13.262-37.923 19.445-10.095 4.881-18.339 11.392-23.609 21.455-6.462 12.341-14.055 24.208-19.259 37.049-3.493 8.62-4.89 18.298 4.43 26.292 4.185 3.59 6.462 9.939 8.431 15.456 3.094 8.67 4.888 17.796 7.779 26.549 7.265 21.997 14.817 43.899 22.312 65.819.851 2.489 2.12 4.833 3.115 7.277.874 2.145 2.285 4.319 2.344 6.51.508 18.695 9.644 35.083 14.33 52.63 7.532 28.201 18.129 55.57 26.826 83.479 3.234 10.379 4.395 21.385 7.157 31.934 6.118 23.367 12.714 46.609 18.983 69.937 2.667 9.923 5.006 19.934 7.487 29.907 5.11 20.539 9.891 41.167 15.417 61.594 5.095 18.831 10.786 37.509 16.593 56.137 4.532 14.537 9.308 29.018 14.591 43.297 5.726 15.476 12.197 30.675 18.284 46.018 4.27 10.763 8.363 21.596 12.683 32.339 3.333 8.289 7.119 16.401 10.305 24.743 4.965 13.003 9.486 26.175 14.391 39.201 4.786 12.711 10.92 25.029 14.465 38.063 4.483 16.483 11.549 31.813 17.685 47.589 7.461 19.182 14.028 38.71 21.135 58.032 3.408 9.265 7.805 18.211 10.618 27.641 3.778 12.663 8.483 25.025 10.519 38.286 3.061 19.931 12.305 38.428 14.648 58.624.147 1.266 1.028 2.439 1.525 3.673 7.038 17.488 14.789 34.732 20.891 52.542 5.745 16.765 14.586 31.932 22.031 47.814 3.636 7.755 7.769 15.301 12.058 22.721 7.5 12.974 18.944 20.891 32.94 25.931 4.934 1.777 9.452 2.265 14.502 1.78 23.38-2.249 44.834-10.909 66.21-19.755 8.211-3.398 15.981-7.879 24.232-11.16 5.145-2.046 10.895-2.511 16.236-4.135 19.909-6.054 39.682-12.565 59.661-18.37 13.66-3.969 27.582-7.032 41.378-10.535 7.06-1.793 14.124-3.577 21.147-5.511 19.828-5.46 39.603-11.121 59.463-16.462 16.194-4.356 31.976-10.295 48.722-12.577 4.588-.625 9.246-1.507 13.582-3.074 16.039-5.797 32.771-8.266 49.484-10.885 1.266-.198 2.657.061 3.826-.355 10.49-3.734 20.921-7.635 31.414-11.36 8.739-3.103 17.541-6.026 26.308-9.047 10.29-3.545 20.523-7.266 30.881-10.597 4.967-1.597 10.142-2.586 15.265-3.647 5.796-1.201 11.99-1.303 17.371-3.47 6.402-2.578 12.213-6.701 18.118-10.413 7.965-5.008 16.508-8.214 25.781-9.862 4.551-.809 9.383-1.85 13.285-4.15 11.223-6.615 23.446-8.613 36.078-10.124 8.46-1.012 16.747-3.577 25.063-5.642 7.198-1.787 11.239-6.665 12.499-13.868.954-5.449.99-11.204 2.836-16.316 2.236-6.193 6.007-11.823 8.988-17.76.975-1.943 2.087-4.052 2.211-6.14.318-5.296.108-10.622.108-15.935zm-261.222 232.237c-.865-8.439-1.507-15.521-2.38-22.574-.195-1.574-.938-3.24-1.88-4.535-4.67-6.42-9.363-12.831-14.291-19.053-6.25-7.891-14.941-12.953-24.289-9.095-6.404 2.642-11.327 1.165-16.956.379-2.617-.365-5.202-1.344-7.805-1.362-7.837-.054-15.264.493-22.076 5.845-16.469 12.939-24.472 30.517-28.463 50.192-1.546 7.62-2.07 15.85-.975 23.504 1.435 10.033 6.842 17.918 15.795 24.144 10.165 7.069 20.244 10.763 32.504 8.333 7.421-1.471 14.929-3.198 22.434-3.386 12.592-.316 22.077-6.394 30.713-14.469 2.603-2.434 4.257-5.855 6.707-8.486 8.12-8.722 10.157-19.417 10.962-29.437zM452.894 217.506c-6.142 1.969-12.165 2.953-17.156 5.769-4.85 2.736-9.557 4.793-14.995 4.366-8.214-.646-15.678 2.163-23.354 4.222-8.295 2.226-16.845 3.65-24.936 6.434-4.476 1.54-8.773 4.613-12.168 7.984-3.205 3.183-5.298 7.564-7.568 11.594-3.391 6.018-1.099 14.113 5.189 15.81 8.287 2.237 17.198 4.612 25.373.313 12.957-6.814 26.791-9.154 41.071-10.9 8.739-1.068 17.651-2.592 25.387-7.927 6.762-4.663 9.731-11.595 12.466-18.637 2.097-5.399-3.529-8.081-5.52-12.063-.879-1.761-1.876-3.464-3.789-6.965zm43.919-21.453c-.762 11.18 1.271 14.019 9.574 15.764 8.731 1.834 17.08 2.636 22.866-6.553 2.211-3.512 6.502-5.944 8-9.62 1.969-4.832 2.907-11.28-2.297-14.602-6.085-3.884-11.946-10.779-20.573-6.784-10.281 4.761-16.642 12.722-17.57 21.795z" fill="#5b5b5b"/><path class="st1" d="M1054.737 1664.608c0 1.242.276 2.255-.041 3.026-5.925 14.428-11.989 28.8-17.874 43.245-3.077 7.553-7.67 12.127-16.386 13.888-7.833 1.583-15.02 6.279-22.554 9.454-9.748 4.108-19.562 8.058-29.338 12.098-5.158 2.131-10.296 4.309-17.032 7.131 1.319-5.882 1.847-10.722 3.502-15.139 4.521-12.07 9.94-23.817 14.109-35.997 1.582-4.623 3.463-7.234 8.088-8.849 12.214-4.263 24.225-9.105 36.348-13.635 13.559-5.066 27.152-10.042 41.178-15.222zM939.18 1704.348c-6.939 16.692-12.982 30.938-18.735 45.301-1.208 3.017-1.927 6.475-1.85 9.705.12 5.029-2.47 7.28-6.725 8.462-4.156 1.155-8.31 2.341-12.513 3.302-12.868 2.942-25.768 5.518-37.653 11.872-4.069 2.175-9.347 2.089-14.901 3.201 0-3.239-.566-5.635.093-7.626 3.947-11.919 8.139-23.759 12.351-35.588.662-1.858 2.447-3.452 2.689-5.301 1.12-8.581 7.346-10.623 14.382-12.671 13.399-3.902 26.613-8.446 39.878-12.802 7.08-2.325 14.106-4.814 22.984-7.855zM400.15 1605.279c1.611-1.767 3.064-3.544 4.707-5.124 3.128-3.007 4.965-6.21 6.141-10.77 2.264-8.775 6.513-17.037 9.939-25.513l2.127-.119c2.386 6.996 4.752 14 7.163 20.987 4.51 13.073 9.118 26.112 13.549 39.212 3.783 11.185 7.476 22.404 10.961 33.685.646 2.089.822 4.838.011 6.779-5.168 12.373-10.672 24.606-16.601 38.104-2.143-2.011-4.59-3.337-5.517-5.359a175.387 175.387 0 01-7.185-18.385c-2.76-8.416-3.595-17.853-7.971-25.244-4.814-8.131-5.81-17.255-9.842-25.474-3.444-7.018-5.001-14.962-7.482-22.779zM158.407 888.723c-2.873-6.682-6.016-12.84-8.211-19.32-5.819-17.179-11.234-34.494-16.798-51.759-1.35-4.188-2.6-7.913 2.306-11.391 2.228-1.58 3.774-5.954 3.494-8.854-.56-5.797 2.202-10.203 3.966-15.166 3.062-8.617 5.494-17.456 8.373-26.141.529-1.597 1.923-2.908 3.651-5.414 3.283 11.104 6.001 20.858 9.056 30.506 5.387 17.016 11.048 33.945 16.403 50.971.74 2.352 1.272 5.419.391 7.525-6.496 15.545-13.361 30.937-20.172 46.349-.371.84-1.289 1.439-2.459 2.694zM115.18 763.068c-3.878-10.633-7.556-20.435-11.028-30.31-4.052-11.524-7.884-23.125-11.901-34.662-1.23-3.534-2.879-7.39.537-10.158 9.508-7.707 9.175-19.415 12.529-29.582 2.281-6.913 3.717-14.102 5.66-21.132.393-1.421 1.365-2.683 2.703-5.217 3.154 8.952 5.834 16.602 8.542 24.242 6.636 18.723 13.243 37.457 19.973 56.146 1.037 2.88 2.447 5.462-.304 8.18-10.795 10.669-16.24 24.45-22.005 38.041-.383.902-.904 1.78-1.525 2.534-.385.468-1.08.681-3.181 1.918zM724.239 1768.951c-6.174 14.149-11.899 27.337-17.687 40.498-2.144 4.875-10.731 7.873-17.462 6.068-2.526-.677-4.943-1.754-7.425-2.603-4.742-1.622-8.881-.354-13.219 1.966-14.638 7.828-30.762 10.856-47.598 14.946.038-9.916 3.605-17.743 6.084-25.796.382-1.242 1.859-2.377 1.787-3.494-.724-11.213 6.748-11.574 15.051-12.813 10.089-1.505 19.892-4.893 29.839-7.386 9.57-2.398 19.173-4.665 28.747-7.048 4.497-1.119 8.924-2.549 13.452-3.507 2.848-.604 5.827-.595 8.431-.831zM601.984 1789.984c-5.752 14.437-10.846 27.652-16.392 40.674-.818 1.919-3.765 4.14-5.753 4.165-20.442.26-40.094-3.456-58.402-12.968-.505-.263-.753-1.022-.673-.908 3.506-12.095 6.854-23.709 10.259-35.307.465-1.583 1.306-3.053 1.823-4.625 1.434-4.359 3.966-5.649 8.378-3.743 4.537 1.96 9.312 3.362 13.937 5.127 12.534 4.782 25.674 6.068 38.904 6.893 1.947.121 3.888.336 7.919.692zM236.575 992.353c1.396 2.81 3.107 5.511 4.136 8.45 6.025 17.202 11.9 34.457 17.801 51.702 1.076 3.146 1.493 6.658 3.159 9.436 4.667 7.785 4.378 14.51-2.434 20.959-7.007 6.634-8.719 15.968-11.8 24.593-1.05 2.938-2.677 5.671-4.654 9.769-2.347-3.007-4.207-4.516-4.928-6.45-7.162-19.219-13.637-38.713-21.431-57.666-2.76-6.711-1.034-11.334 2.142-16.449 1.037-1.67 2.485-3.089 3.767-4.604 7.025-8.301 7.503-18.731 9.418-28.712.704-3.668 1.746-7.271 2.634-10.903l2.19-.125zM828.698 1739.859c-5.211 13.56-9.921 25.516-14.378 37.566-1.717 4.641-2.859 9.495-4.26 14.253-1.258 4.276-3.607 6.225-8.557 6.541-11.9.758-23.775 2.23-35.583 3.943-4.166.604-8.06 2.91-12.169 4.133-2.942.875-6.036 1.241-11.075 2.229 2.879-7.453 4.813-12.999 7.144-18.373 3.938-9.081 7.989-18.121 12.313-27.023 1.036-2.134 3.01-4.567 5.102-5.307 11.553-4.088 23.212-7.913 34.964-11.391 8.16-2.417 16.528-4.129 26.499-6.571zM197.265 877.988c9.165 24.621 16.37 49.919 25.247 75.087-12.443 7.572-14.061 20.364-17.014 32.433-1.327 5.422-1.736 11.151-7.302 16.556-9.793-23.15-18.115-45.877-26.732-68.671 7.363-7.507 10.879-16.519 13.256-26.375 2.381-9.874 6.014-19.446 9.098-29.151l3.447.121zM258.227 1164.376c12.541-15.041 14.225-33.097 18.659-50.663 1.662 1.075 2.847 1.398 3.076 2.055 7.838 22.491 15.474 45.053 23.437 67.499 1.686 4.753 1.199 8.71-.605 13.314-4.898 12.493-9.12 25.25-13.758 37.848-1.12 3.043-2.817 5.874-4.518 9.351-4.278-2.437-5.384-6.432-6.136-9.983-4.266-20.155-10.356-39.706-18.086-58.793-1.336-3.3-1.418-7.107-2.069-10.628zM348.503 1464.366c-8.432-23.163-14.853-46.957-21.339-71.667 16.165-13.16 15.794-33.972 21.078-52.429l2.413-.022c2.272 6.713 4.708 13.375 6.783 20.148 4.47 14.591 8.415 29.352 13.242 43.821 2.994 8.977 1.709 16.458-3.369 24.371-4.042 6.299-6.392 13.693-9.417 20.633-2.223 5.1-4.324 10.254-6.479 15.383-.971-.078-1.942-.158-2.912-.238zM1074.993 1702.664c.714-19.685 12.388-34.286 17.35-50.722l63.393-22.617c-1.443 4.439-2.045 7.22-3.216 9.737-6.26 13.457-12.947 26.724-18.878 40.322-2.424 5.557-6.677 8.284-11.668 9.959-13.477 4.523-27.107 8.596-40.705 12.752-1.522.466-3.233.315-6.276.569zM1171.401 1668.723c4.255-10.302 8.578-20.576 12.734-30.917 1.716-4.271 3.49-8.597 4.458-13.067.761-3.513 1.854-5.843 5.34-7.549 17.497-8.567 34.826-17.475 52.252-26.189 1.745-.873 3.742-1.241 6.406-2.094.418 4.402-.464 8.047-2.527 11.274-4.903 7.669-7.719 16.24-9.205 24.963-1.229 7.212-5.494 11.223-10.928 14.457-15.671 9.326-31.491 18.406-47.358 27.396-2.983 1.69-6.452 2.522-9.696 3.75l-1.476-2.024zM58.988 579.693c3.157-8.274 5.797-14.199 7.68-20.356 2.915-9.534 5.266-19.24 7.995-28.833.311-1.093 1.512-1.933 2.245-2.823.982.544 1.869.724 2.046 1.18 3.1 7.975 6.218 15.946 9.12 23.994a2620.638 2620.638 0 0113.162 37.425c1.219 3.55 1.865 7.021-2.4 9.575-1.374.822-1.881 3.223-2.606 4.976-5.322 12.866-10.593 25.754-15.912 38.622-.239.578-.792 1.027-1.622 2.066-5.913-6.225-5.155-14.646-7.674-21.796-2.636-7.482-5.1-15.046-7.168-22.702-2.067-7.653-3.549-15.463-4.866-21.328zM455.417 1745.687c5.139-9.55 9.663-18.559 9.794-29.381.05-4.168 3.135-8.3 4.837-12.448l2.685-1.123c.944 1.736 1.904 3.463 2.83 5.208 5.26 9.913 9.956 20.185 15.969 29.618 3.84 6.025 9.454 10.982 14.609 16.078 2.567 2.538 4.553 4.831 3.111 8.585-5.061 13.173-10.139 26.339-15.502 40.263-16.387-16.865-28.033-35.996-38.333-56.8zM387.884 1562.757c-1.58-1.231-2.356-1.526-2.576-2.053-6.475-15.482-12.941-30.969-19.293-46.502-1.584-3.873-2.106-7.517 2.257-10.513 1.671-1.147 2.487-3.8 3.28-5.921 4.136-11.067 8.085-22.205 12.255-33.258.532-1.41 1.98-2.473 3.622-4.436 1.115 2.344 2.04 3.94 2.661 5.647 5.756 15.819 11.347 31.699 17.23 47.47 2.437 6.533 3.739 11.721-3.075 17.347-4.438 3.665-6.382 10.47-9.135 16.022-2.579 5.202-4.751 10.604-7.226 16.197zM340.138 1299.378c-14.598 11.325-17.462 28.424-25.397 44.514-7.082-10.616-7.174-22.069-10.418-32.447-3.339-10.68-7.158-21.21-11.096-32.769 9.849-.957 15.315-7.2 19.362-13.784 4.008-6.521 5.789-14.411 8.891-22.61 5.846 8.769 6.485 18.866 9.86 27.887 3.461 9.25 5.759 18.934 8.798 29.209zM46.334 429.469c2.427 10.511 4.435 21.142 7.4 31.498 2.993 10.455 6.936 20.638 10.465 30.945-10.452 10.425-12.453 24.669-18.58 36.919-12.8-11.288-13.542-72.969.715-99.362zM1320.064 1547.864c-5.08 20.659-18.236 33.455-29.443 47.433-1.116 1.392-3.869 1.471-7.276 2.647 3.524-10.061 5.615-19.11 9.757-27.095 5.429-10.466 16.203-15.321 26.962-22.985z"/><path d="M1319.458 593.367c-1.217-2.596-2.121-5.527-3.831-7.871-1.477-2.025-3.701-4.485-5.89-4.819-5.78-.883-11.724-.634-17.594-.993-4.958-.303-9.928-.638-14.85-1.287-15.124-1.994-30.352-3.512-45.294-6.457-9.941-1.959-19.466-6.035-29.171-9.18-5.297-1.717-10.471-4.07-15.896-5.088-13.548-2.542-25.813-8.046-37.159-15.525-5.778-3.809-11.222-8.364-16.055-13.325-16.268-16.699-30.443-35.069-40.526-56.184-5.539-11.599-9.185-24.115-14.898-35.615-10.596-21.33-11.532-44.525-13.925-67.365-1.13-10.786.498-21.849.688-32.789.259-14.922-.182-29.883 2.835-44.624 4.915-24.013 8.544-48.445 19.2-70.818 6.562-13.778 14.7-26.797 21.535-40.455 16.043-32.058 41.481-55.225 71.468-73.162 23.077-13.804 47.099-26.385 72.743-35.084 28.295-9.598 56.485-19.752 85.311-27.461 23.089-6.174 47.021-8.42 71.155-9.382 22.199-.885 43.735 1.869 65.468 4.932 11.852 1.671 23.898 1.904 35.808 3.228 17.187 1.911 34.338 4.155 51.488 6.387 14.503 1.887 29.099 3.349 43.445 6.092 20.638 3.945 40.602 10.166 59.469 19.811 9.715 4.966 19.841 9.388 30.198 12.784 20.965 6.874 40.65 16.049 58.592 28.932 5.669 4.071 11.371 8.126 17.295 11.806 16.386 10.182 26.946 26.31 40.324 39.535 10.346 10.228 18.971 22.185 28.506 33.248 9.512 11.038 19.525 21.659 28.752 32.927 18.766 22.917 37.292 46.339 46.49 74.893 5.553 17.238 11.372 35.062 9.233 53.738-1.318 11.512-3.615 22.946-6.094 34.279-1.912 8.743-5.292 17.169-7.137 25.922-4.319 20.492-13.016 38.63-25.219 55.737-19.383 27.172-41.924 51.467-64.832 75.517-2.036 2.137-4.509 4.11-7.154 5.371-14.078 6.709-28.156 13.448-42.473 19.622-10.913 4.706-21.945 9.443-33.357 12.599-12.432 3.438-25.378 5.001-38.076 7.5-30.066 5.918-60.411 9.584-91.01 10.936-6.243.276-12.716-.141-18.789-1.526-11.584-2.642-23.898.936-35.071-4.452-.296-.143-.646-.292-.957-.267-21.249 1.7-42.349-2.904-63.558-1.54-5.521.355-12.184.836-16.083 4.009-4.828 3.93-8.436 10.348-10.485 16.398-1.705 5.033-4.022 8.747-7.778 12.239-22.673 21.08-45.159 42.36-67.798 63.475-10.149 9.466-20.79 18.419-30.682 28.141-7.548 7.418-14.483 15.497-21.295 23.614-7.042 8.391-14.081 16.487-23.277 22.883-6.584 4.579-11.5 11.527-17.304 17.273-2.009 1.989-4.449 3.542-7.568 5.978-.357-2.7-.914-4.039-.625-5.158 3.397-13.142 6.853-26.269 10.434-39.362 2.349-8.588 4.645-17.209 7.464-25.648 5.99-17.936 12.262-35.779 18.509-53.629 2.621-7.489 6.922-14.721 7.859-22.388 1.261-10.318 4.132-19.464 8.412-28.948 2.799-6.203.947-15.024-.397-22.385-.81-4.437-5.091-7.825-10.447-7.802-3.295.015-6.588.493-10.126.783zm142.153-261.271c.094-14.745-8.089-25.359-18.539-24.041-14.288 1.802-26.371 9.209-26.657 26.88-.167 10.299 9.241 17.845 21.664 18.361 8.835.367 14.884-4.984 21.372-9.345 5.252-3.53 2.384-9.044 2.16-11.855zm149.59-7.564c-.643-1.816-1.739-5.265-3.073-8.618-3.719-9.347-11.371-12.791-20.483-9.299-1.236.474-2.403 1.129-3.641 1.596-15.842 5.97-18.718 11.23-16.259 27.52.968 6.413 4.291 10.09 9.879 12.508 12.773 5.526 33.545-8 33.577-23.707zm-320.977 15.439c13.931.379 19.986-4.092 24.436-19.399 3.52-12.107-10.737-24.877-21.277-22.129-7.925 2.065-15.568 7.093-20.968 14.118-.952 1.239-1.507 2.965-1.746 4.542-2.161 14.25 5.344 22.975 19.555 22.868z" fill="#fff"/><path d="M1258.107 1340.089c0 5.313.21 10.639-.104 15.933-.124 2.088-1.236 4.198-2.211 6.14-2.981 5.937-6.752 11.567-8.988 17.76-1.846 5.112-1.882 10.867-2.836 16.316-1.261 7.203-5.301 12.081-12.499 13.868-8.316 2.065-16.604 4.63-25.063 5.642-12.632 1.511-24.855 3.509-36.078 10.124-3.901 2.3-8.734 3.341-13.285 4.15-9.273 1.648-17.816 4.854-25.781 9.862-5.905 3.712-11.716 7.835-18.118 10.413-5.381 2.167-11.575 2.269-17.371 3.47-5.123 1.061-10.299 2.049-15.265 3.647-10.358 3.331-20.591 7.052-30.881 10.597-8.768 3.021-17.57 5.944-26.308 9.047-10.493 3.726-20.924 7.626-31.414 11.36-1.168.416-2.56.157-3.826.355-16.714 2.619-33.446 5.087-49.484 10.885-4.336 1.567-8.994 2.449-13.582 3.074-16.745 2.282-32.528 8.221-48.722 12.577-19.86 5.341-39.634 11.002-59.463 16.462-7.022 1.934-14.086 3.719-21.147 5.511-13.796 3.503-27.718 6.566-41.378 10.535-19.979 5.805-39.753 12.316-59.661 18.37-5.341 1.624-11.091 2.089-16.236 4.135-8.252 3.281-16.021 7.761-24.232 11.16-21.376 8.846-42.83 17.506-66.21 19.755-5.05.486-9.568-.003-14.502-1.78-13.996-5.04-25.44-12.958-32.94-25.931-4.289-7.42-8.423-14.965-12.058-22.721-7.445-15.881-16.286-31.049-22.031-47.814-6.102-17.809-13.853-35.053-20.891-52.542-.497-1.234-1.378-2.407-1.525-3.673-2.343-20.196-11.587-38.692-14.648-58.624-2.037-13.26-6.741-25.622-10.519-38.286-2.813-9.429-7.21-18.375-10.618-27.641-7.108-19.322-13.674-38.85-21.135-58.032-6.137-15.776-13.202-31.106-17.685-47.589-3.545-13.034-9.679-25.352-14.465-38.063-4.905-13.026-9.426-26.198-14.391-39.201-3.185-8.343-6.971-16.454-10.305-24.743-4.32-10.743-8.413-21.576-12.683-32.339-6.087-15.343-12.558-30.543-18.284-46.018-5.283-14.278-10.059-28.759-14.591-43.297-5.807-18.628-11.498-37.306-16.593-56.137-5.526-20.427-10.307-41.055-15.417-61.594-2.481-9.973-4.82-19.984-7.487-29.907-6.269-23.328-12.866-46.57-18.983-69.937-2.762-10.549-3.922-21.555-7.157-31.934-8.698-27.909-19.294-55.278-26.826-83.479-4.687-17.547-13.823-33.936-14.33-52.63-.06-2.191-1.471-4.365-2.344-6.51-.995-2.444-2.264-4.788-3.115-7.277-7.495-21.92-15.047-43.822-22.312-65.819-2.891-8.753-4.684-17.879-7.779-26.549-1.969-5.516-4.245-11.866-8.431-15.456-9.32-7.994-7.923-17.672-4.43-26.292 5.203-12.842 12.796-24.708 19.259-37.049 5.269-10.063 13.514-16.574 23.609-21.455 12.785-6.183 25.136-13.264 37.923-19.445 4.933-2.385 10.536-3.399 15.855-4.964 2.835-.834 5.954-1.039 8.533-2.342 8.518-4.304 16.675-9.346 25.3-13.406 8.076-3.801 16.772-6.288 24.835-10.113 12.518-5.938 24.724-12.535 37.081-18.816 2.028-1.031 4.144-1.892 6.233-2.8 10.581-4.6 21.16-9.205 31.753-13.779 12.348-5.332 24.811-10.411 37.034-16.016 10.248-4.699 20.06-10.363 30.357-14.941 15.664-6.965 31.649-13.203 47.363-20.059 9.09-3.966 17.729-8.996 26.906-12.724 13.044-5.299 25.126-13.046 39.693-14.65 5.92-.652 10.543-6.488 17.152-6.306 6.622-7.101 15.936-7.584 24.481-9.981 33.581-9.42 67.139-18.923 100.752-28.228 4.106-1.137 8.525-1.093 12.74-1.902 5.154-.988 10.194-2.775 15.379-3.355 7.509-.841 15.183-1.747 22.639-1.048 6.138.575 12.346 2.826 18.011 5.442 8.432 3.893 11.924 11.884 14.872 20.25 4.506 12.79 9.456 25.424 14.304 38.091 2.72 7.107 5.492 14.198 8.457 21.205 7.473 17.657 15.447 35.113 22.513 52.93 7.541 19.016 13.55 38.663 21.613 57.44 5.274 12.282 8.083 25.072 12.028 37.633 4.348 13.843 11.394 26.814 16.606 40.417 4.149 10.829 7.32 22.034 10.896 33.082.609 1.883.628 4.105 1.667 5.678 11.512 17.425 18.903 37.039 29.422 55.02 6.659 11.382 11.224 23.968 17.229 35.759 11.699 22.972 23.976 45.659 33.908 69.486 10.191 24.449 20.227 48.962 30.333 73.446 7.309 17.708 14.717 35.376 21.895 53.137 3.836 9.492 7.235 19.159 10.915 28.715 3.547 9.208 7.311 18.333 10.783 27.569 4.666 12.41 8.983 24.952 13.742 37.325 6.875 17.874 14.213 35.538 22.613 52.789 3.734 7.668 5.481 16.294 8.256 24.442 2.094 6.15 4.245 12.289 6.624 18.332 4.975 12.635 11.03 24.93 14.916 37.882 3.406 11.351 10.569 21.266 13.252 32.262 5.474 22.442 19.899 41.047 24.815 63.62 1.857 8.527 7.331 16.226 10.806 24.45 5.413 12.811 10.495 25.761 15.776 38.629 5.884 14.338 11.714 28.701 17.793 42.956 4.913 11.521 10.417 22.794 15.195 34.369 6.169 14.946 12.144 29.985 17.681 45.175 3.255 8.927 3.146 18.664 6.768 27.781 2.117 5.329-.196 12.418-.516 18.716.186.008.377.013.568.018zm-47.665 35.887c1.392-4.24 2.54-8.333 4.095-12.265 1.05-2.653 2.047-5.984 4.155-7.444 7.577-5.25 7.414-12.062 6.688-20.256-1.169-13.176-6.84-24.981-9.629-37.614-.682-3.091-1.982-6.09-3.316-8.985-5.392-11.706-11.111-23.266-16.317-35.053-4.382-9.921-8.233-20.077-12.301-30.136-3.947-9.759-7.958-19.492-11.784-29.298-5.073-13.003-9.687-26.194-15.053-39.073-7.838-18.815-16.47-37.301-24.184-56.164-5.262-12.866-9.263-26.243-14.313-39.203-8.266-21.212-16.883-42.288-25.431-63.39-10.593-26.151-21.398-52.216-31.825-78.432-3.175-7.982-5.012-16.495-8.159-24.491-5.459-13.872-11.366-27.573-17.273-41.264-3.522-8.163-7.947-15.969-11.025-24.285-9.881-26.694-18.794-53.756-29.1-80.28-8.522-21.935-18.504-43.301-27.808-64.933-3.901-9.068-7.315-18.371-11.669-27.213-7.913-16.07-16.483-31.815-24.554-47.81-6.593-13.065-11.713-27.021-19.497-39.308-18.647-29.434-30.518-61.825-43.357-93.841-3.463-8.635-6.982-17.263-10.009-26.055-14.372-41.741-28.462-83.593-46.081-124.114-7.132-16.404-14.688-32.66-22.886-48.553-7.154-13.87-14.834-27.407-19.307-42.496-2.808-9.473-4.333-10.57-14.145-10.097-24.055 1.16-47.586 5.732-70.675 12.306-12.715 3.62-25.039 8.596-37.617 12.726-4.39 1.441-9.118 1.851-13.508 3.294-15.161 4.984-30.437 9.709-45.304 15.475a1550.765 1550.765 0 00-63.464 26.232c-21.877 9.62-43.308 20.25-65.115 30.037-21.17 9.501-42.605 18.41-63.849 27.748-8.827 3.88-17.49 8.137-26.176 12.328-13.449 6.489-26.817 13.148-40.298 19.568-5.097 2.427-10.445 4.322-15.625 6.581-16.432 7.166-32.833 14.404-49.258 21.585-11.882 5.194-23.846 10.206-35.628 15.618-2.527 1.161-4.766 3.422-6.53 5.656-2.647 3.351-4.673 7.185-7.113 10.708-6.169 8.907-11.734 17.732-6.589 29.395 1.193 2.703.855 6.934-.421 9.704-3.032 6.58-1.106 12.215 1.56 18.075 2.202 4.838 4.358 9.711 6.239 14.679 4.217 11.136 7.298 22.823 12.637 33.377 4.918 9.722 7.078 19.897 9.431 30.211.736 3.224 1.702 6.406 2.741 9.548 4.575 13.834 10.287 27.403 13.516 41.541 2.927 12.815 7.088 24.692 13.975 35.821 2.043 3.302 2.932 7.398 3.957 11.236 2.632 9.85 4.91 19.795 7.575 29.636 3.966 14.647 11.497 27.993 13.645 43.487 1.835 13.233 6.279 26.156 7.459 39.642.112 1.277.827 2.499 1.247 3.751 4.518 13.462 10.427 26.489 11.651 40.947.382 4.512 2.36 8.883 3.552 13.333 3.768 14.066 7.941 28.044 11.107 42.245 2.071 9.286 2.784 18.64 8.657 26.916 3.071 4.327 3.886 10.347 5.329 15.708 1.195 4.438 1.372 9.174 2.77 13.531 6.476 20.186 12.99 40.367 19.954 60.388 4.107 11.807 8.652 23.508 13.852 34.866 2.354 5.141 5.098 9.867 5.524 15.692.239 3.27 1.104 6.615 2.325 9.672 6.508 16.297 12.194 33.036 20.137 48.615 8.33 16.339 13.72 33.547 18.974 50.858a666.157 666.157 0 0028.797 77.272c3.59 8.076 8.216 15.919 10.314 24.379 3.495 14.094 7.753 27.763 13.434 41.142 4.906 11.555 8.492 23.672 12.64 35.547.216.618.215 1.309.351 1.959 3.842 18.359 7.866 36.69 13.665 54.538 6.33 19.481 13.111 38.816 19.855 58.159.851 2.442 2.576 4.611 4.062 6.794 5.34 7.841 6.182 17.753 12.518 25.416 2.495 3.018 3.643 8.018 5.945 12.024 5.355 9.319 9.621 19.256 14.565 28.821 3.151 6.095 6.084 12.49 10.343 17.757 2.676 3.309 7.365 5.785 11.604 6.887 12.873 3.347 25.485 2.377 37.683-3.755 5.28-2.655 11.362-3.665 16.892-5.888 5.195-2.088 10.136-4.806 15.202-7.218 7.125-3.392 13.944-8.322 21.452-9.846 23.482-4.769 46.089-12.276 68.787-19.627 7.873-2.549 15.857-4.792 23.875-6.846 17.893-4.584 35.886-8.779 53.742-13.498 8.969-2.37 17.666-5.75 26.599-8.276 6.642-1.879 13.469-3.101 20.205-4.652 5.437-1.251 10.859-2.566 16.292-3.834 2.248-.524 4.651-.661 6.737-1.551 14.207-6.055 29.372-7.951 44.393-10.506 1.581-.269 3.131-.811 4.644-1.368 6.158-2.266 12.156-5.131 18.477-6.741 7.017-1.787 14.419-2.03 21.477-3.691 12.235-2.879 25.17-4.606 36.283-9.978 14.208-6.869 28.619-11.878 43.957-14.914 3.509-.695 6.738-2.747 10.139-4.066 4.307-1.67 8.618-4.421 12.996-4.563 6.898-.224 12.748-3.264 19.083-4.649 6.813-1.49 11.615-5.924 17.586-8.386 11.654-4.806 23.789-8.567 35.088-14.071 8.468-4.125 18.701-4.206 25.781-11.736 1.625-1.729 5.634-1.542 8.567-1.649 6.24-.227 12.49-.069 19.411-.069zM996.885 1572.326c-.806 10.021-2.842 20.715-10.963 29.437-2.45 2.632-4.104 6.052-6.707 8.486-8.636 8.075-18.121 14.153-30.713 14.469-7.505.188-15.013 1.915-22.434 3.386-12.26 2.43-22.339-1.264-32.504-8.333-8.952-6.226-14.36-14.111-15.795-24.144-1.095-7.654-.571-15.884.975-23.504 3.992-19.675 11.994-37.252 28.463-50.192 6.812-5.352 14.24-5.899 22.076-5.845 2.604.018 5.188.997 7.805 1.362 5.629.786 10.552 2.263 16.956-.379 9.348-3.857 18.039 1.204 24.289 9.095 4.928 6.222 9.621 12.633 14.291 19.053.942 1.295 1.685 2.961 1.88 4.535.874 7.053 1.516 14.135 2.381 22.574zm-36.772 1.263c2.271-7.334-3.838-13.018-8.042-19.647-2.565-4.045-5.78-6.404-10.219-6.865-4.584-.477-9.239-.324-13.864-.339-4.337-.014-7.156 2.242-9.801 5.674-7.095 9.207-7.627 19.572-5.627 30.198 1.463 7.772 12.14 13.377 20.048 11.614a259.816 259.816 0 0118.427-3.39c5.322-.789 8.967-4.132 9.485-9.645.184-1.953-.189-3.957-.407-7.6zM452.894 217.506c1.912 3.501 2.909 5.203 3.79 6.964 1.991 3.982 7.617 6.663 5.52 12.063-2.735 7.042-5.705 13.974-12.466 18.637-7.736 5.335-16.649 6.859-25.387 7.927-14.28 1.746-28.115 4.086-41.071 10.9-8.174 4.299-17.086 1.924-25.373-.313-6.288-1.697-8.58-9.792-5.189-15.81 2.27-4.03 4.363-8.411 7.568-11.594 3.395-3.371 7.693-6.444 12.168-7.984 8.091-2.785 16.64-4.209 24.936-6.434 7.676-2.059 15.14-4.868 23.354-4.222 5.438.428 10.144-1.63 14.995-4.366 4.99-2.814 11.014-3.799 17.155-5.768zM496.813 196.053c.928-9.073 7.289-17.034 17.569-21.795 8.628-3.996 14.489 2.899 20.573 6.784 5.204 3.322 4.266 9.77 2.297 14.602-1.498 3.676-5.789 6.108-8 9.62-5.786 9.189-14.134 8.388-22.866 6.553-8.302-1.745-10.335-4.584-9.573-15.764zM1461.611 332.096c.224 2.811 3.091 8.325-2.16 11.855-6.488 4.361-12.537 9.712-21.372 9.345-12.423-.516-21.83-8.063-21.664-18.361.286-17.67 12.369-25.078 26.657-26.88 10.45-1.318 18.633 9.296 18.539 24.041zM1611.201 324.532c-.031 15.707-20.804 29.233-33.578 23.706-5.588-2.418-8.911-6.095-9.879-12.508-2.459-16.29.417-21.551 16.259-27.52 1.238-.467 2.405-1.122 3.641-1.596 9.112-3.491 16.765-.048 20.483 9.299 1.335 3.354 2.431 6.802 3.074 8.619zM1290.224 339.971c-14.211.107-21.715-8.618-19.555-22.868.239-1.577.793-3.304 1.746-4.542 5.4-7.025 13.043-12.053 20.968-14.118 10.54-2.747 24.797 10.023 21.277 22.129-4.451 15.308-10.506 19.778-24.436 19.399z"/><path d="M1210.442 1375.976c-6.922 0-13.172-.158-19.407.07-2.933.107-6.942-.08-8.567 1.649-7.079 7.53-17.312 7.611-25.781 11.736-11.298 5.504-23.434 9.265-35.088 14.071-5.971 2.463-10.773 6.897-17.586 8.386-6.335 1.385-12.185 4.426-19.083 4.649-4.379.142-8.689 2.892-12.996 4.563-3.4 1.319-6.629 3.372-10.139 4.066-15.338 3.035-29.749 8.045-43.957 14.914-11.113 5.373-24.048 7.099-36.283 9.978-7.059 1.661-14.461 1.904-21.477 3.691-6.321 1.61-12.319 4.476-18.477 6.741-1.513.557-3.063 1.099-4.644 1.368-15.021 2.555-30.186 4.451-44.393 10.506-2.087.889-4.49 1.026-6.737 1.551-5.433 1.268-10.856 2.582-16.292 3.834-6.736 1.551-13.563 2.773-20.205 4.652-8.932 2.527-17.63 5.906-26.599 8.276-17.856 4.719-35.85 8.914-53.742 13.498-8.018 2.054-16.002 4.297-23.875 6.846-22.698 7.35-45.305 14.858-68.787 19.627-7.508 1.525-14.328 6.454-21.452 9.846-5.066 2.412-10.007 5.13-15.202 7.218-5.53 2.223-11.612 3.233-16.892 5.888-12.198 6.132-24.81 7.101-37.683 3.755-4.24-1.102-8.929-3.578-11.604-6.887-4.259-5.267-7.192-11.662-10.343-17.757-4.944-9.565-9.21-19.502-14.565-28.821-2.302-4.006-3.45-9.006-5.945-12.024-6.336-7.663-7.178-17.575-12.518-25.416-1.486-2.182-3.211-4.352-4.062-6.794-6.744-19.343-13.525-38.678-19.855-58.159-5.799-17.848-9.823-36.179-13.665-54.538-.136-.65-.135-1.341-.351-1.959-4.148-11.876-7.734-23.992-12.64-35.547-5.681-13.379-9.939-27.048-13.434-41.142-2.098-8.459-6.723-16.303-10.314-24.379a666.225 666.225 0 01-28.797-77.272c-5.254-17.311-10.644-34.52-18.974-50.858-7.943-15.58-13.629-32.318-20.137-48.615-1.221-3.057-2.085-6.402-2.325-9.672-.426-5.825-3.17-10.551-5.524-15.692-5.2-11.358-9.746-23.059-13.852-34.866-6.964-20.021-13.479-40.202-19.954-60.388-1.398-4.357-1.575-9.092-2.77-13.531-1.443-5.36-2.259-11.38-5.329-15.708-5.873-8.276-6.586-17.63-8.657-26.916-3.166-14.201-7.339-28.178-11.107-42.245-1.192-4.45-3.17-8.821-3.552-13.333-1.224-14.458-7.133-27.485-11.651-40.947-.42-1.253-1.136-2.474-1.247-3.751-1.18-13.486-5.625-26.409-7.459-39.642-2.148-15.494-9.68-28.84-13.645-43.487-2.665-9.841-4.943-19.786-7.575-29.636-1.025-3.837-1.913-7.933-3.957-11.236-6.887-11.129-11.049-23.006-13.975-35.821-3.229-14.138-8.94-27.706-13.516-41.541-1.039-3.142-2.005-6.324-2.741-9.548-2.354-10.314-4.513-20.488-9.431-30.211-5.339-10.554-8.42-22.241-12.637-33.377-1.882-4.969-4.038-9.841-6.239-14.679-2.667-5.86-4.592-11.495-1.56-18.075 1.277-2.771 1.614-7.001.421-9.704-5.145-11.663.42-20.488 6.589-29.395 2.441-3.524 4.466-7.358 7.113-10.708 1.765-2.234 4.003-4.495 6.53-5.656 11.781-5.412 23.746-10.423 35.628-15.618 16.426-7.181 32.826-14.419 49.258-21.585 5.18-2.259 10.528-4.153 15.625-6.581 13.482-6.42 26.849-13.079 40.298-19.568 8.687-4.191 17.35-8.448 26.176-12.328 21.244-9.338 42.679-18.247 63.849-27.748 21.806-9.787 43.238-20.417 65.115-30.037a1552.18 1552.18 0 0163.464-26.232c14.867-5.766 30.143-10.491 45.304-15.475 4.389-1.443 9.118-1.853 13.508-3.294 12.578-4.13 24.901-9.106 37.617-12.726 23.089-6.574 46.62-11.146 70.675-12.306 9.811-.473 11.337.624 14.145 10.097 4.473 15.089 12.153 28.626 19.307 42.496 8.198 15.893 15.753 32.149 22.886 48.553 17.619 40.521 31.709 82.373 46.081 124.114 3.027 8.792 6.546 17.42 10.009 26.055 12.84 32.016 24.71 64.407 43.357 93.841 7.784 12.287 12.904 26.243 19.497 39.308 8.071 15.994 16.64 31.74 24.554 47.81 4.354 8.842 7.769 18.145 11.669 27.213 9.304 21.632 19.286 42.998 27.808 64.933 10.305 26.524 19.219 53.586 29.1 80.28 3.078 8.315 7.502 16.122 11.025 24.285 5.908 13.691 11.814 27.391 17.273 41.264 3.147 7.996 4.984 16.509 8.159 24.491 10.428 26.216 21.232 52.282 31.825 78.432 8.548 21.102 17.165 42.177 25.431 63.39 5.05 12.96 9.051 26.336 14.313 39.203 7.714 18.863 16.346 37.349 24.184 56.164 5.365 12.879 9.979 26.07 15.053 39.073 3.826 9.806 7.837 19.54 11.784 29.298 4.068 10.059 7.918 20.216 12.301 30.136 5.207 11.787 10.925 23.347 16.317 35.053 1.334 2.895 2.633 5.894 3.316 8.985 2.789 12.633 8.46 24.438 9.629 37.614.727 8.194.89 15.006-6.688 20.256-2.107 1.46-3.105 4.791-4.155 7.444-1.559 3.932-2.707 8.025-4.099 12.264zm-351.576-205.205c-2.825 2.848-6.483 4.868-7.434 7.774-5.031 15.374-14.476 28.085-23.055 41.44-4.07 6.337-5.289 6.761-13.055 5.475-7.109-1.177-13.993-3.786-21.114-4.806-8.902-1.275-16.478-4.854-22.46-11.291-10.532-11.332-21.138-22.619-29.014-36.146-10.031-17.229-19.959-34.415-23.942-54.346-1.763-8.823-1.99-17.658-2.563-26.563-.737-11.449-.125-22.493 3.449-33.389 2.412-7.354 3.363-8.286 11.371-7.747a675.612 675.612 0 0065.568 1.245c14.424-.43 28.355-2.609 42.312-5.52 6.82-1.422 13.542-4.121 20.385-4.409 7.426-.312 13.221-3.994 19.594-6.53 7.434-2.958 10.282-8.546 9.127-16.594-.754-5.256-.429-11.34-5.317-14.261-14.524-8.679-23.232-23.271-35.765-34.083-18.021-15.546-33.682-33.809-50.601-50.66-7.047-7.019-14.683-13.454-22.153-20.039-13.457-11.862-26.511-24.25-40.611-35.299-18.815-14.743-36.594-30.56-53.359-47.522-4.517-4.57-7.874-10.286-12.125-15.958 2.945-1.644 4.569-2.729 6.329-3.505 15.482-6.831 31.113-13.339 46.452-20.475 15.269-7.103 30.334-14.66 45.31-22.364 4.646-2.39 9.155-5.442 12.945-9.019 7.267-6.859 7.386-17.331.941-24.956-8.127-9.614-16.647-18.924-24.305-28.897-10.721-13.96-21.015-28.264-31.11-42.688-13.885-19.838-27.35-39.969-41.114-59.893-10.353-14.987-20.779-29.926-31.384-44.735-7.547-10.539-15.554-20.747-23.155-31.248-6.602-9.12-12.12-19.16-19.571-27.492-9.145-10.226-16.582-21.411-23.282-33.204-3.28-5.772-17.054-13.421-22.727-12.206-14.757 3.16-21.847 21.926-13.049 34.155 9.894 13.753 19.427 27.766 29.42 41.445 11.148 15.26 22.647 30.265 33.974 45.395 7.77 10.379 15.796 20.581 23.203 31.214 19.574 28.099 38.628 56.562 58.384 84.531 10.342 14.641 21.791 28.497 32.589 42.822 2.685 3.562 4.779 7.568 6.872 10.931-1.297 1.636-1.602 2.324-2.13 2.643-20.762 12.554-42.54 23.104-65.31 31.37-8.29 3.009-17.368 3.867-26.104 5.621-6.912 1.388-13.531 3.242-19.078 8.023-10.324 8.899-10.842 25.462-1.011 34.817 1.908 1.816 3.373 4.095 5.07 6.138 3.812 4.586 7.347 9.447 11.526 13.672 7.946 8.035 16.91 15.14 24.295 23.637 16.526 19.012 38.121 31.956 56.6 48.603 10.299 9.278 21.755 17.274 32.046 26.561 14.544 13.124 28.8 26.604 42.586 40.52 8.807 8.891 16.666 18.742 24.658 28.404 1.725 2.085 2.2 5.203 3.419 8.27-2.462 1.155-4.146 2.503-5.955 2.697-7.895.843-15.828 1.336-23.744 1.983-20.303 1.661-40.413-.451-60.413-3.53-13.017-2.004-26.138-3.869-38.406-9.169-.855-.369-1.906-.62-2.807-.495-12.442 1.731-24.891 3.432-37.295 5.413-2.519.402-5.184 1.491-7.224 3.011-9.512 7.088-19.32 13.892-28.106 21.814-15.533 14.005-25.88 31.384-32.39 51.418-2.796 8.603-4.636 17.232-5.975 26.027-1.44 9.458-3.29 19.037-3.086 28.522.385 17.884 3.302 35.512 7.47 53 3.791 15.907 10.028 30.827 17.631 44.985 6.983 13.004 15.791 25.029 25.635 36.306 17.194 19.696 38.133 32.451 63.634 38.118 3.992.887 7.944 3.235 11.22 5.796 6.035 4.719 11.901 6.602 19.16 2.746 2.804-1.49 6.326-2.414 9.486-2.328 33.914.917 62.005-13.432 86.873-34.454 23.216-19.625 39.915-44.289 49.342-73.444 2.39-7.392 4.231-15.003 5.64-22.64.355-1.921-2.022-6.242-2.987-6.196-5.459.258-6.645-4.565-10.23-8.441zM447.16 586.806c.279-8.832-4.093-14.086-14.451-17.369-6.854-2.172-16.778.737-20.078 6.834-2.799 5.172-4.799 10.895-6.347 16.593-1.613 5.936.704 10.384 5.75 14.533 5.655 4.651 10.732 3.201 16.577 1.661 8.796-2.317 18.268-13.348 18.549-22.252zm312.53-120.02c.927-7.091-3.131-11.853-8.972-14.889-6.11-3.176-12.147-5.773-19.472-.943-8.626 5.688-11.027 13.497-11.158 22.783-.104 7.407 3.245 11.64 10.407 13.735 13.34 3.904 28.284-6.55 29.195-20.686z" fill="#a3e1f0"/><path d="M960.113 1573.589c.219 3.643.592 5.647.408 7.599-.518 5.513-4.163 8.857-9.485 9.645a259.816 259.816 0 00-18.427 3.39c-7.909 1.763-18.586-3.843-20.048-11.614-2-10.626-1.468-20.991 5.627-30.198 2.645-3.432 5.464-5.688 9.801-5.674 4.625.015 9.28-.137 13.864.339 4.438.462 7.653 2.82 10.219 6.865 4.203 6.63 10.312 12.314 8.041 19.648z" fill="#565656"/><path d="M858.866 1170.771c3.585 3.876 4.771 8.698 10.229 8.438.965-.046 3.341 4.275 2.987 6.196-1.41 7.637-3.25 15.248-5.64 22.64-9.427 29.155-26.126 53.819-49.342 73.444-24.868 21.022-52.958 35.371-86.873 34.454-3.16-.086-6.682.839-9.486 2.328-7.259 3.856-13.125 1.973-19.16-2.746-3.275-2.561-7.227-4.908-11.22-5.796-25.501-5.667-46.44-18.422-63.634-38.118-9.844-11.277-18.652-23.302-25.635-36.306-7.602-14.158-13.84-29.078-17.631-44.985-4.168-17.487-7.085-35.116-7.47-53-.204-9.486 1.645-19.064 3.086-28.522 1.339-8.795 3.179-17.424 5.975-26.027 6.51-20.034 16.857-37.413 32.39-51.418 8.786-7.922 18.594-14.726 28.106-21.814 2.04-1.52 4.705-2.609 7.224-3.011 12.404-1.981 24.852-3.682 37.295-5.413.9-.125 1.952.125 2.807.495 12.268 5.3 25.389 7.166 38.406 9.169 20 3.079 40.11 5.19 60.413 3.53 7.917-.647 15.849-1.14 23.744-1.983 1.808-.193 3.493-1.542 5.955-2.697-1.219-3.066-1.694-6.185-3.419-8.27-7.993-9.661-15.851-19.513-24.658-28.404-13.785-13.916-28.042-27.395-42.586-40.52-10.291-9.287-21.747-17.282-32.046-26.561-18.479-16.648-40.074-29.591-56.6-48.603-7.385-8.496-16.349-15.602-24.295-23.637-4.178-4.225-7.714-9.086-11.526-13.672-1.697-2.042-3.162-4.321-5.07-6.138-9.831-9.355-9.314-25.918 1.011-34.817 5.548-4.782 12.166-6.635 19.078-8.023 8.736-1.754 17.814-2.612 26.104-5.621 22.77-8.266 44.548-18.816 65.31-31.37.528-.319.833-1.007 2.13-2.643-2.093-3.363-4.188-7.369-6.872-10.931-10.797-14.325-22.247-28.181-32.589-42.822-19.756-27.969-38.81-56.433-58.384-84.531-7.407-10.633-15.433-20.835-23.203-31.214-11.327-15.13-22.826-30.134-33.974-45.395-9.993-13.679-19.526-27.693-29.42-41.445-8.798-12.23-1.708-30.995 13.049-34.155 5.673-1.215 19.448 6.434 22.727 12.206 6.701 11.793 14.138 22.978 23.282 33.204 7.452 8.333 12.97 18.373 19.571 27.492 7.601 10.501 15.608 20.71 23.155 31.248 10.605 14.809 21.032 29.748 31.384 44.735 13.763 19.924 27.229 40.055 41.114 59.893 10.095 14.424 20.388 28.727 31.11 42.688 7.659 9.973 16.179 19.283 24.305 28.897 6.446 7.625 6.326 18.098-.941 24.956-3.79 3.577-8.299 6.628-12.945 9.019-14.976 7.705-30.042 15.261-45.31 22.364-15.339 7.136-30.97 13.644-46.452 20.475-1.76.777-3.384 1.861-6.329 3.505 4.251 5.672 7.608 11.388 12.125 15.958a563.857 563.857 0 0053.359 47.522c14.1 11.048 27.154 23.437 40.611 35.299 7.47 6.585 15.106 13.02 22.153 20.039 16.919 16.851 32.58 35.115 50.601 50.66 12.533 10.812 21.241 25.404 35.765 34.083 4.888 2.921 4.562 9.005 5.317 14.261 1.155 8.047-1.693 13.635-9.127 16.594-6.372 2.536-12.168 6.218-19.594 6.53-6.843.288-13.565 2.987-20.385 4.409-13.957 2.911-27.888 5.09-42.312 5.52a674.983 674.983 0 01-65.568-1.245c-8.008-.539-8.959.394-11.371 7.747-3.574 10.897-4.186 21.94-3.449 33.389.573 8.905.8 17.74 2.563 26.563 3.982 19.932 13.91 37.117 23.942 54.346 7.876 13.526 18.482 24.813 29.014 36.146 5.983 6.437 13.558 10.016 22.46 11.291 7.12 1.019 14.004 3.629 21.114 4.806 7.765 1.286 8.984.861 13.055-5.475 8.579-13.356 18.023-26.066 23.055-41.44.952-2.903 4.61-4.923 7.435-7.771zm-237.871 10.845l2.129.299c2.786-3.973 5.859-7.778 8.301-11.952 5.493-9.385 10.412-19.112 16.043-28.41 8.071-13.328 16.492-26.447 24.914-39.558 4.733-7.368 8.354-14.905 8.197-24.029-.13-7.589.158-15.235 3.273-22.462.627-1.454.09-3.409.09-6.762-4.817 6.965-8.376 12.486-12.308 17.727-13.647 18.193-28.277 35.701-38.561 56.203-.736 1.467-1.604 2.955-2.733 4.121-4.133 4.271-8.63 8.212-12.521 12.685-1.8 2.069-3.617 5.109-3.543 7.655.345 11.874 4.774 22.905 6.719 34.483zm62.441-38.532c-6.172 11.966-11.245 21.905-16.411 31.796-8.342 15.973-12.561 34.089-24.914 47.99-.355.4-.178 1.272-.31 2.478l17.19 21.967c3.306-5.52 5.995-9.173 7.823-13.216 6.077-13.442 10.365-27.681 20.082-39.397 3.719-4.485 5.689-10.464 8.206-15.879.792-1.703 1.588-4.105.986-5.638-3.706-9.442-7.812-18.728-12.652-30.101zm4.885 127.073c5.512 1.214 9.329 1.788 12.975 2.914 7.671 2.368 7.347 2.316 11.237-4.255 5.804-9.807 9.37-20.821 18.22-29.025 6.16-5.71 5.265-11.156.142-17.508-2.88-3.571-5.479-7.377-8.473-10.844-1.349-1.563-3.354-2.559-6.05-4.538l-28.051 63.256zm106.364-12.048c-11.398-2.907-21.518-5.637-31.738-7.92-1.362-.304-4.066 1.256-4.722 2.633-3.523 7.396-6.595 15.007-10.459 24.029 18.195-1.441 33.253-6.331 46.919-18.742zM447.16 586.806c-.282 8.904-9.753 19.935-18.55 22.253-5.845 1.54-10.921 2.989-16.577-1.661-5.046-4.149-7.363-8.597-5.75-14.533 1.548-5.698 3.548-11.421 6.347-16.593 3.3-6.097 13.224-9.006 20.078-6.834 10.36 3.281 14.732 8.536 14.452 17.368zM759.69 466.786c-.91 14.136-15.855 24.589-29.195 20.687-7.162-2.095-10.511-6.328-10.407-13.735.131-9.286 2.532-17.096 11.158-22.783 7.325-4.83 13.362-2.233 19.472.943 5.841 3.035 9.899 7.797 8.972 14.888z"/><path class="st5" d="M620.995 1181.616c-1.945-11.578-6.374-22.609-6.718-34.482-.074-2.546 1.743-5.586 3.543-7.655 3.891-4.473 8.388-8.414 12.521-12.685 1.129-1.166 1.997-2.654 2.733-4.121 10.284-20.502 24.914-38.01 38.561-56.203 3.932-5.241 7.49-10.762 12.308-17.727 0 3.353.536 5.308-.09 6.762-3.115 7.227-3.404 14.873-3.273 22.462.157 9.124-3.464 16.661-8.197 24.029-8.422 13.111-16.843 26.23-24.914 39.558-5.631 9.298-10.55 19.025-16.043 28.41-2.443 4.174-5.515 7.979-8.301 11.952l-2.13-.3zM683.436 1143.084c4.839 11.373 8.946 20.659 12.652 30.102.602 1.534-.195 3.936-.986 5.638-2.517 5.414-4.486 11.394-8.206 15.879-9.717 11.717-14.004 25.956-20.082 39.397-1.828 4.042-4.516 7.695-7.823 13.216l-17.19-21.967c.131-1.206-.046-2.078.31-2.478 12.353-13.901 16.572-32.017 24.914-47.99 5.166-9.892 10.24-19.831 16.411-31.797zM688.321 1270.157l28.051-63.257c2.696 1.979 4.701 2.975 6.05 4.538 2.994 3.468 5.593 7.273 8.473 10.844 5.123 6.352 6.018 11.798-.142 17.508-8.85 8.204-12.416 19.218-18.22 29.025-3.89 6.572-3.565 6.623-11.237 4.255-3.647-1.125-7.464-1.699-12.975-2.913zM794.685 1258.109c-13.666 12.411-28.724 17.301-46.919 18.742 3.864-9.022 6.936-16.633 10.459-24.029.656-1.377 3.361-2.937 4.722-2.633 10.22 2.283 20.34 5.013 31.738 7.92z"/></svg>