<?xml version="1.0" encoding="utf-8"?>
<!-- Generator: Adobe Illustrator 19.0.0, SVG Export Plug-In . SVG Version: 6.00 Build 0)  -->
<svg version="1.1" id="Layer_1" xmlns="http://www.w3.org/2000/svg" xmlns:xlink="http://www.w3.org/1999/xlink" x="0px" y="0px"
	 viewBox="0 0 554.616 813.636" style="enable-background:new 0 0 554.616 813.636;" xml:space="preserve">
<style type="text/css">
	.st0{fill:#FFFFFF;}
</style>
<g>
	<polygon class="st0" points="479.784,732.681 479.784,731.681 479.783,732.681 	"/>
	<path class="st0" d="M413.551,312.56c-0.776-0.184-1.488-0.267-2.154-0.267c-2.583,0-4.489,1.245-6.837,2.68
		c0.834,0.117,1.612,0.18,2.349,0.18C409.385,315.154,411.403,314.433,413.551,312.56z"/>
	<path class="st0" d="M549.872,264.219c-3.902-2.993-7.917-5.985-11.8-8.878c-1.719-1.281-3.437-2.561-5.153-3.846
		c-1.031-0.773-2.064-1.544-3.096-2.315c-3.301-2.465-6.714-5.014-10.036-7.581c-1.568-1.212-3.119-2.477-4.619-3.702
		c-1.994-1.627-4.056-3.31-6.14-4.849c-1.626-1.201-3.397-2.322-5.109-3.407c-1.35-0.855-2.747-1.74-4.098-2.677
		c-1-0.694-1.915-1.463-2.799-2.207c-0.826-0.695-1.606-1.352-2.426-1.927c-2.29-1.608-4.676-3.184-6.984-4.709
		c-0.959-0.634-1.918-1.267-2.875-1.906c-1.503-1.003-3.008-2.003-4.513-3.004c-3.3-2.194-6.713-4.463-10.053-6.726
		c-2.403-1.628-4.967-2.908-7.681-4.262c-1.394-0.696-2.836-1.415-4.242-2.182c-5.266-2.87-10.311-6.255-15.191-9.528l-1.647-1.104
		c-6.392-4.278-12.811-8.732-19.018-13.039l-3.432-2.38c-0.621-0.43-1.136-0.909-1.634-1.373c-0.484-0.45-0.941-0.875-1.388-1.141
		c-3.526-2.099-7.403-4.313-12.201-6.968c-0.32-0.177-0.764-0.315-1.234-0.462c-0.565-0.176-1.206-0.376-1.837-0.703
		c-0.909-0.472-2.202-1.24-2.932-2.458c-0.722-1.206-1.087-2.551-1.409-3.737l-0.067-0.245c-0.417-1.528-0.798-3.081-1.166-4.584
		c-0.699-2.852-1.421-5.801-2.395-8.555c-1.573-4.446-3.311-8.934-4.992-13.274c-1.499-3.869-3.048-7.87-4.484-11.849
		c-1.432-3.968-2.75-8.035-4.024-11.968c-0.914-2.82-1.859-5.737-2.834-8.58c-2.519-7.342-5.093-14.589-8.183-23.213
		c-1.216-3.394-2.479-6.839-3.7-10.17c-1.387-3.782-2.82-7.693-4.196-11.557l-1.311-3.675c-2.29-6.41-4.659-13.038-6.777-19.642
		c-1.339-4.175-2.548-8.449-3.718-12.583c-0.853-3.015-1.735-6.132-2.657-9.172c-0.627-2.067-1.369-3.613-2.954-4.44
		C340.719,2.522,339.013,2,337.498,2c-1.242,0-2.418,0.352-3.594,1.076c-0.857,0.527-1.802,0.701-2.561,0.84
		c-0.191,0.035-0.381,0.069-0.566,0.11c-3.407,0.754-6.815,1.503-10.223,2.252c-3.388,0.744-6.776,1.489-10.163,2.238
		c-1.619,0.358-3.235,0.729-4.851,1.099c-2.937,0.674-5.975,1.37-8.991,1.98c-3.691,0.746-7.447,1.466-11.079,2.163
		c-5.003,0.959-10.176,1.951-15.234,3.021c-7.245,1.532-14.337,3.22-22.757,5.282c-4.986,1.221-10.637,2.606-16.072,4.334
		c-5.908,1.879-11.265,3.483-17.009,4.091c-1.38,0.146-2.81,0.52-4.026,0.867c-2.417,0.689-4.873,1.429-7.248,2.144
		c-4.798,1.446-9.76,2.941-14.741,4.116c-5.202,1.227-10.522,2.242-15.667,3.224c-3.762,0.718-7.651,1.46-11.446,2.276
		c-7.07,1.521-14.245,3.164-21.183,4.753c-3.852,0.882-7.705,1.765-11.56,2.632c-1.435,0.323-2.891,0.609-4.299,0.885
		c-2.41,0.473-4.901,0.962-7.253,1.635c-7.043,2.016-14.18,4.175-21.083,6.264c-2.845,0.861-5.689,1.721-8.536,2.575
		c-0.752,0.226-1.191,0.399-1.446,0.519c0.127,0.255,0.37,0.673,0.834,1.329l0.182,0.252c0.645,0.887,2.155,2.964,0.466,5.132
		c-1.076,1.382-0.777,2.359,0.355,4.799c0.125,0.269,0.25,0.54,0.371,0.811c0.242,0.544,0.51,1.084,0.793,1.657
		c1.32,2.669,2.815,5.691,1.748,9.474c0.023,0.147,0.105,0.422,0.161,0.613c0.067,0.228,0.133,0.455,0.184,0.673
		c0.807,3.433,1.619,6.864,2.431,10.296c1.281,5.411,2.561,10.823,3.822,16.239c2.674,11.482,5.484,23.634,8.588,37.148
		c2.641,11.495,5.032,21.987,7.309,32.074c0.819,3.629,1.621,7.323,2.395,10.895c1.585,7.31,3.225,14.869,5.096,22.22
		c0.452,1.777,0.918,3.55,1.384,5.322c2.044,7.779,4.159,15.823,5.041,24.078c0.025,0.23,0.103,0.503,0.169,0.716
		c0.533,1.722,1.254,1.722,1.6,1.722c0.092,0,0.188-0.006,0.286-0.018c0.292-0.035,0.582-0.053,0.861-0.053
		c2.505,0,4.045,1.368,5.283,2.467l0.812,0.721c2.648,2.354,5.386,4.788,8.17,7.032c4.222,3.402,8.55,6.826,12.734,10.138
		c2.87,2.271,5.741,4.543,8.602,6.826c0.613,0.489,1.093,1.025,1.648,1.646c0.253,0.283,0.529,0.592,0.85,0.929l2.029,2.134
		l-2.732,1.099c-0.922,0.371-1.801,0.729-2.653,1.076c-1.828,0.744-3.554,1.447-5.291,2.11c-0.829,0.316-1.656,0.644-2.483,0.971
		c-2.509,0.993-5.103,2.019-7.788,2.749c-1.916,0.521-3.74,1.249-5.671,2.019c-1.49,0.595-3.031,1.209-4.609,1.716
		c-2.636,0.845-4.775,1.883-6.733,3.267c-2.139,1.512-2.998,3.372-2.701,5.853c0.084,0.7,0.162,1.402,0.24,2.104
		c0.259,2.32,0.527,4.718,0.992,6.989c1.352,6.606,1.786,13.607,1.408,22.7c-0.302,7.251-3.755,12.761-10.558,16.843
		c-2.082,1.25-4.287,1.541-6.232,1.798c-0.789,0.104-1.535,0.203-2.255,0.356c-1.826,0.389-3.659,0.586-5.447,0.586
		c-4.137,0-8.113-1.007-12.155-3.079c-1.037-0.532-2.272-1.326-2.62-2.759c-0.346-1.425,0.377-2.681,1.045-3.617
		c1.369-1.915,2.731-3.952,4.048-6.054c2.152-3.434,1.881-7.226,0.812-11.864c-0.073-0.317-0.131-0.492-0.168-0.585
		c-0.536-0.378-1.068-0.77-1.601-1.161c-1.774-1.304-3.449-2.536-5.254-3.286c-2.035-0.846-4.04-1.275-5.957-1.275
		c-2.196,0-4.327,0.567-6.334,1.684c-1.127,0.628-2.263,0.933-3.47,0.933c-1.126,0-2.269-0.263-3.598-0.828
		c-1.702-0.723-3.623-1.183-5.408-1.295c-0.17-0.011-0.341-0.016-0.512-0.016c-1.212,0-2.615,0.245-4.287,0.75
		c-0.605,0.183-1.153,0.271-1.675,0.271c-2.353,0-3.452-1.765-4.108-2.82c-3.697-5.938-7.125-9.945-11.113-12.993
		c-1.87-1.429-5.049-2.353-8.098-2.353c-2.341,0-4.371,0.522-5.715,1.47c-5.373,3.788-8.038,7.446-8.641,11.859
		c-0.482,3.522-2.333,5.296-5.828,5.585c-3.645,0.301-6.431,2.458-9.494,5.605c-0.321,0.33-0.623,1.079-0.768,1.909
		c-1.027,5.866-0.257,10.092,2.497,13.703c0.618,0.811,0.985,1.717,1.279,2.446c0.102,0.252,0.199,0.495,0.303,0.716l0.376,0.792
		l-0.328,0.813c-0.038,0.094-0.062,0.166-0.082,0.223c-0.082,0.241-0.236,0.69-0.664,1.081c-0.408,0.373-0.83,0.725-1.195,1.025
		c-4.515,3.726-7.237,7.036-6.857,12.019c0.049,0.642,0.085,1.288,0.121,1.935c0.176,3.159,0.342,6.142,2.083,8.499
		c3.206,4.34,7.465,6.54,12.661,6.54c0.266,0,0.534-0.006,0.805-0.017c0.659-0.028,1.317-0.059,1.975-0.089
		c2.577-0.119,5.242-0.242,7.89-0.242c1.918,0,3.649,0.064,5.294,0.195c0.555,0.044,1.149,0.066,1.817,0.066
		c0.975,0,1.949-0.045,2.979-0.092c1.03-0.048,2.095-0.097,3.16-0.097c0.917,0,1.737,0.037,2.505,0.112
		c3.416,0.334,6.713,0.912,10.203,1.524c1.467,0.257,2.95,0.517,4.457,0.76l1.691,0.273l-0.01,1.713
		c-0.005,0.885-0.012,1.986,2.874,2.234c1.321,0.113,3.239,0.725,4.297,2.076c3.953,5.045,8.123,8.998,12.751,12.084
		c0.496,0.331,0.99,0.663,1.483,0.995c4.179,2.815,8.127,5.473,12.914,6.732c0.85,0.224,1.699,0.453,2.549,0.682
		c5.542,1.494,10.777,2.906,16.222,2.906c0.38,0,0.761-0.007,1.142-0.022c10.79-0.411,18.928-1.606,26.39-3.875
		c4.566-1.388,8.874-3.078,13.168-5.166c4.899-2.382,9.721-5.936,14.741-10.866c3.253-3.195,6.08-7.053,8.813-10.784
		c1.342-1.831,2.729-3.725,4.165-5.542c0.565-0.714,1.304-1.09,1.957-1.421c0.258-0.131,0.501-0.255,0.737-0.398l2.5-1.515
		l0.506,2.879c0.061,0.346,0.127,0.639,0.186,0.898c0.139,0.617,0.27,1.2,0.221,1.879c-0.215,2.917-0.446,5.832-0.677,8.747
		c-0.257,3.237-0.522,6.584-0.759,9.874c-0.217,3.015-0.452,6.517-0.501,9.925c-0.037,2.611-0.024,5.276-0.011,7.853
		c0.015,2.932,0.03,5.964-0.029,8.957c-0.038,1.936-0.175,3.882-0.307,5.763c-0.21,2.988-0.408,5.81-0.251,8.632
		c0.365,6.548,0.967,13.21,1.55,19.652c0.287,3.171,0.583,6.45,0.848,9.681l0.226,2.726c0.385,4.619,0.784,9.395,1.009,14.118
		c0.167,3.502,0.3,7.059,0.428,10.499c0.364,9.738,0.74,19.807,1.935,29.623c0.254,2.085,0.217,5.091-3.013,7.11
		c-0.255,0.179-0.666,0.969-0.665,1.386c0.006,2.755,1.887,4.606,4.681,4.606c0.269,0,0.546-0.018,0.823-0.054
		c0.511-0.066,1.061-0.211,1.644-0.364c0.622-0.164,1.265-0.334,1.962-0.438c1.319-0.197,2.629-0.326,3.896-0.451
		c0.517-0.051,1.028-0.102,1.531-0.156l1.431-0.155l0.601,1.308c0.108,0.235,0.205,0.422,0.286,0.578
		c0.211,0.407,0.429,0.828,0.506,1.389c0.153,1.118,0.249,2.236,0.341,3.317l0.011,0.133c0.718,8.426,0.286,16.907-0.131,25.109
		c-0.104,2.051-0.209,4.103-0.296,6.155c-0.146,3.443-0.161,6.968-0.175,10.378c-0.015,3.577-0.03,7.276-0.196,10.928
		c-0.486,10.709-1.21,21.402-1.911,31.742c-0.804,11.87-1.611,25.881-1.497,39.798c0.013,1.612-0.104,3.21-0.218,4.755
		c-0.076,1.028-0.154,2.091-0.189,3.117l-0.119,3.45c-0.218,6.319-0.443,12.853-0.564,19.274c-0.037,1.973-0.181,3.945-0.321,5.851
		c-0.284,3.885-0.553,7.554,0,11.3c0.622,4.212,0.64,8.842,0.059,14.571c-0.578,5.694-0.237,10.308,1.074,14.519l0.464,1.49
		l-1.333,0.812c-1.76,1.072-3.532,2.127-5.304,3.181c-3.898,2.319-7.929,4.718-11.734,7.265
		c-6.006,4.022-12.849,8.839-18.054,15.117c-3.269,3.944-5.516,7.711-6.87,11.516c-1.479,4.158-0.88,7.888,1.783,11.087
		c4.644,5.58,10.28,8.797,16.749,9.561c1.27,0.15,2.657,0.223,4.242,0.223c1.795,0,3.651-0.094,5.447-0.184
		c0.492-0.025,0.984-0.05,1.474-0.073c6.16-0.289,11.039-1.259,15.355-3.054c8.195-3.408,15.556-6.526,22.652-10.17
		c10.282-5.28,17.475-10.35,23.322-16.436c4.25-4.424,6.809-9.69,8.297-17.076c0.289-1.435-0.288-2.167-0.747-2.593
		c-0.574-0.533-0.987-1.147-1.352-1.689c-0.139-0.207-0.281-0.419-0.436-0.629l-1.619-2.191l2.576-0.888
		c3.928-1.354,6.483-4.458,6.51-7.908c0.038-4.875,0.122-10.54,0.637-16.087c0.305-3.282,0.789-6.575,1.257-9.76
		c0.402-2.734,0.818-5.561,1.111-8.333c0.392-3.705,0.702-7.494,1.002-11.158c0.379-4.626,0.77-9.41,1.333-14.113
		c1.518-12.687,3.229-25.398,5.086-37.782c0.935-6.234,2.112-12.519,3.251-18.598c0.469-2.505,0.939-5.01,1.393-7.517
		c0.105-0.577,0.286-1.089,0.446-1.54c0.059-0.167,0.119-0.334,0.172-0.501l1.918-6.067l1.898,6.073
		c1.439,4.604,2.499,9.35,3.337,14.935c0.557,3.713,1.049,7.488,1.524,11.14c0.425,3.266,0.865,6.643,1.349,9.949
		c0.564,3.855,1.239,7.774,1.892,11.563c0.241,1.398,0.482,2.796,0.718,4.194c0.373,2.208,0.733,4.419,1.093,6.63
		c0.861,5.289,1.752,10.759,2.813,16.083c0.959,4.813,2.106,9.691,3.215,14.408c0.626,2.663,1.274,5.418,1.882,8.138
		c0.609,2.724,1.127,5.499,1.627,8.182l0.123,0.659c0.358,1.918,0.701,3.839,1.044,5.76c0.628,3.522,1.278,7.165,2.015,10.712
		c0.459,2.212,1.068,4.462,1.657,6.638c0.362,1.337,0.736,2.719,1.077,4.096c0.231,0.934,0.641,1.116,1.271,1.116
		c0.066,0,0.133-0.003,0.201-0.008c3.598-0.264,7.318-0.536,10.907-1.161c3.35-0.583,6.75-1.373,10.039-2.137
		c1.188-0.276,2.376-0.552,3.565-0.819c1.552-0.349,3.196-0.519,5.025-0.519c2.103,0,4.182,0.224,6.192,0.44
		c1.006,0.108,2.047,0.22,3.058,0.3c1.048,0.082,2.161,0.163,3.233,0.163c1.358,0,2.467-0.132,3.39-0.403
		c1.05-0.309,2.031-0.459,3-0.459c1.668,0,3.231,0.438,4.917,1.377c1.954,1.089,3.916,2.165,5.877,3.241
		c3.223,1.768,6.555,3.596,9.807,5.458c6.909,3.957,11.319,8.509,13.877,14.327c0.176,0.401,0.449,0.828,0.738,1.28
		c0.31,0.485,0.631,0.987,0.909,1.564c0.372,0.769,0.783,1.523,1.218,2.321c1.488,2.727,3.175,5.817,3.042,9.652
		c-0.05,1.448-0.143,4.143-2.634,5.313c-3.133,1.471-6.024,2.616-8.838,3.503c-1.34,0.422-2.717,0.627-4.207,0.627
		c-2.725,0-5.304-0.694-7.799-1.364c-0.523-0.141-1.044-0.281-1.564-0.414c-3.058-0.781-6.25-1.908-10.045-3.548
		c-2.279-0.985-4.446-2.202-6.541-3.379c-0.611-0.343-1.222-0.687-1.835-1.024c-0.822-0.452-1.649-0.896-2.477-1.34
		c-2.448-1.313-4.98-2.671-7.366-4.247c-6.124-4.046-12.557-8.468-19.669-13.52c-2.738-1.945-5.605-4.097-8.027-6.649
		c-1.611-1.698-3.424-2.595-5.245-2.595c-1.365,0-2.745,0.483-4.114,1.437c0.085,1.503,0.715,2.805,1.85,3.801
		c2.909,2.554,6.023,4.847,8.963,6.977c1.357,0.983,2.805,1.934,4.205,2.853c2.208,1.45,4.49,2.949,6.595,4.68
		c7.383,6.074,14.581,10.786,22.007,14.406c1.463,0.713,2.924,1.466,4.338,2.194c4.986,2.568,9.695,4.993,15.011,6.133
		c3.845,0.824,8.417,1.674,13.177,1.725l0.365,0.002c6.082,0,11.745-1.6,17.311-4.891c3.292-1.947,4.82-4.971,4.671-9.246
		c-0.136-3.899-1.299-7.564-3.456-10.892l-0.506-0.777c-1.491-2.289-3.032-4.655-4.165-7.241c-2.159-4.93-5.897-8.598-8.912-11.242
		c-7.26-6.366-16.075-11.098-26.949-14.466c-2.209-0.684-4.712-1.459-6.797-3.787l-1.324-1.477l1.466-1.336
		c2.011-1.832,1.739-4.025,1.094-7.162c-0.056-0.273-0.115-0.546-0.174-0.819c-0.21-0.975-0.427-1.983-0.537-3.039l-0.25-2.373
		c-0.395-3.726-0.803-7.58-1.049-11.4c-0.326-5.064-0.513-10.117-0.558-15.019c-0.016-1.727,0.101-3.446,0.213-5.108
		c0.115-1.698,0.223-3.301,0.203-4.91c-0.031-2.428-0.15-4.915-0.265-7.32c-0.172-3.599-0.35-7.32-0.245-11.011
		c0.142-4.999,0.469-10.057,0.784-14.949c0.268-4.151,0.545-8.443,0.706-12.655c0.151-3.959,0.125-8.013,0.1-11.934
		c-0.016-2.556-0.034-5.199-0.002-7.806c0.034-2.833,0.119-5.705,0.2-8.482c0.087-2.959,0.177-6.02,0.205-9.02
		c0.055-5.752,0.084-11.602,0.113-17.26c0.039-7.825,0.08-15.917,0.189-23.88c0.035-2.588,0.209-5.192,0.378-7.71
		c0.189-2.833,0.385-5.762,0.375-8.608c-0.017-4.509-0.249-9.117-0.473-13.573c-0.107-2.119-0.217-4.309-0.304-6.469
		c-0.042-1.054,0.232-1.896,0.816-2.504c0.514-0.535,1.234-0.83,2.026-0.83c0.556,0,1.157,0.14,1.839,0.427l1.466,0.617l-0.27,1.567
		c-0.042,0.244-0.07,0.496-0.1,0.749c-0.086,0.744-0.185,1.588-0.538,2.436c-0.042,0.101-0.066,0.177-0.079,0.23
		c0.068,0.057,0.195,0.148,0.419,0.268c0.668,0.358,1.107,0.51,1.469,0.51c0.21,0,0.421-0.05,0.665-0.156
		c2.019-0.88,3.614-1.575,4.013-2.049c0.224-0.267,0.237-1.246,0.255-2.601c0.004-0.304,0.008-0.629,0.015-0.98
		c0.014-0.716,0.351-1.238,0.513-1.489l0.043-0.068l0.332-0.65l0.657-0.255c0.599-0.253,1.203-0.499,1.806-0.746
		c1.308-0.534,2.661-1.086,3.928-1.694c0.44-0.211,0.667-0.351,0.782-0.432c-0.017-0.162-0.075-0.476-0.245-1.08
		c-0.816-2.895-2.592-4.235-5.761-4.345l-2.228-0.078l0.318-2.206c0.081-0.563,0.201-1.088,0.306-1.551
		c0.137-0.601,0.292-1.282,0.224-1.577c-1.053-4.553-0.936-9.116-0.823-13.528c0.105-4.089,0.204-7.952-0.558-11.78
		c-0.375-1.883-0.303-3.76-0.234-5.576c0.038-1.005,0.075-1.955,0.037-2.881c-0.131-3.231-0.314-6.522-0.491-9.704
		c-0.082-1.47-0.163-2.939-0.24-4.409c-0.046-0.88-0.086-1.761-0.126-2.642c-0.077-1.695-0.156-3.448-0.282-5.155
		c-0.186-2.519-0.393-5.037-0.6-7.555c-0.349-4.237-0.71-8.618-0.958-12.946c-0.309-5.393-0.521-10.872-0.726-16.171
		c-0.104-2.689-0.208-5.378-0.325-8.067c-0.05-1.148-0.096-2.297-0.143-3.445c-0.147-3.616-0.299-7.355-0.55-11.012
		c-0.206-3.002-0.476-6.059-0.737-9.016c-0.232-2.631-0.472-5.352-0.668-8.039c-0.108-1.483-0.082-2.915-0.054-4.432
		c0.012-0.67,0.025-1.352,0.025-2.051v-2.942l2.736,1.082c0.178,0.071,0.333,0.124,0.469,0.172c0.372,0.13,0.757,0.265,1.157,0.535
		l0.283,0.19c0.659,0.441,1.405,0.94,2.074,1.569c5.422,5.106,12.353,8.005,21.811,9.121c3.521,0.416,7.162,0.606,10.683,0.791
		c1.247,0.065,2.495,0.131,3.741,0.206c1.292,0.078,2.562,0.117,3.776,0.117c9.324,0,16.786-2.258,23.483-7.106
		c5.612-4.062,10.066-8.99,14.783-14.207l1.207-1.334c1.378-1.519,2.821-2.942,5.319-3.652c1.129-0.321,1.912-0.865,2.327-1.615
		c0.56-1.013,0.373-2.267,0.117-3.14l-0.017-0.058c-0.309-1.053-0.775-2.645,0.006-3.947c0.737-1.228,1.35-2.546,2-3.941
		c1.513-3.249,3.077-6.609,6.356-9.103c0.12-0.115,0.321-0.507,0.391-0.759c-1.407-3.747,1.089-5.712,2.753-7.023
		c0.446-0.351,0.877-0.805,1.334-1.285c0.673-0.707,1.435-1.509,2.395-2.122c3.889-2.481,5.444-6.348,7.216-11.54
		c0.217-0.634,0.136-0.939,0.102-0.986c-0.026-0.036-0.227-0.169-0.744-0.169c-0.148,0-0.31,0.012-0.48,0.034
		c-2.352,0.317-3.54,1.118-4.1,2.767c-1.581,4.651-4.831,7.857-7.974,10.958c-0.331,0.327-0.663,0.654-0.992,0.982
		c-0.956,0.954-2.042,1.837-3.508,1.837c-1.269,0-2.335-0.686-3.297-1.427c-0.433-0.334-0.858-0.686-1.281-1.038
		c-0.886-0.737-1.723-1.432-2.599-1.898c-1.593-0.848-3.284-1.633-4.92-2.392c-1.454-0.675-2.958-1.373-4.424-2.128
		c-0.921-0.474-1.641-1.122-2.476-1.872c-0.406-0.365-0.826-0.742-1.332-1.16l-2.707-2.234l3.302-1.19
		c0.521-0.188,0.966-0.363,1.366-0.519c0.833-0.327,1.552-0.609,2.35-0.775c1.88-0.391,3.788-0.732,5.634-1.062
		c0.802-0.143,1.604-0.286,2.405-0.434c0.261-0.048,0.521-0.102,0.782-0.155c0.353-0.073,0.706-0.145,1.06-0.207
		c2.495-0.434,4.992-0.86,7.488-1.287c5.719-0.977,11.634-1.988,17.426-3.072c2.036-0.381,4.112-0.908,6.121-1.417
		c1.783-0.452,3.626-0.92,5.479-1.298c3.025-0.617,6.103-1.179,9.08-1.723c2.793-0.51,5.681-1.038,8.502-1.607
		c1.362-0.275,2.726-0.545,4.09-0.815c5.585-1.107,11.36-2.251,16.926-3.697c6.163-1.601,12.36-3.612,18.353-5.556l2.588-0.838
		c0.724-0.234,2.366-0.911,1.969-2.144c-0.893-2.771-0.489-5.325,1.27-8.039c0.679-1.047,0.66-1.991-0.061-3.06
		C551.366,265.813,550.674,264.835,549.872,264.219z M66.116,368.475l-0.885,1.999c-1.171,2.644-3.246,4.1-5.843,4.1
		c-0.141,0-0.283-0.004-0.428-0.013c-2.28-0.136-4.922-0.347-7.429-1.129c-2.969-0.927-5.724-1.377-8.423-1.377
		c-0.842,0-1.697,0.045-2.54,0.133c-0.433,0.045-0.876,0.067-1.355,0.067c-1.08,0-2.135-0.114-3.154-0.225
		c-0.841-0.091-1.636-0.178-2.41-0.198c-0.599-0.016-1.203-0.048-1.809-0.08c-0.842-0.044-1.638-0.086-2.422-0.086
		c-1.064,0-1.905,0.079-2.644,0.25c-1.238,0.286-2.508,0.424-3.884,0.424c-2.184,0-4.276-0.354-6.299-0.696l-0.498-0.084
		c-3.89-0.653-6.886-4.982-7.244-8.614c-0.065-0.661-0.055-1.284-0.04-1.888l-0.015-0.924l-0.001-0.343
		c-0.002-0.274-0.003-0.548,0.003-0.822c0.092-4.282,2.513-7.159,6.024-7.159c1.415,0,2.865,0.481,4.311,1.429
		c1.209,0.794,2.369,1.163,3.65,1.163c0.992,0,2.09-0.22,3.454-0.692c0.819-0.283,1.39-0.94,1.567-1.801
		c0.198-0.966-0.131-1.95-0.882-2.631c-3.917-3.559-7.315-6.729-10.388-9.693c-2.587-2.495-3.633-5.838-3.11-9.937
		c0.504-3.944,3.123-4.251,3.913-4.251c0.7,0,1.451,0.187,2.234,0.556c2.032,0.958,3.864,2.229,5.636,3.458
		c0.601,0.417,1.201,0.834,1.808,1.236c0.52,0.346,0.918,0.765,1.238,1.102c0.122,0.129,0.244,0.259,0.373,0.379
		c1.134,1.05,2.564,1.629,4.027,1.629c1.616,0,3.153-0.687,4.33-1.934c0.438-0.464,0.471-2.279-0.267-3.247l-0.313-0.411
		c-1.905-2.501-3.875-5.086-5.733-7.707c-2.183-3.078-1.377-10.47,1.389-12.756c1.236-1.021,2.893-1.131,3.549-1.131l0.166,0.002
		c3.518,0.092,6.419,1.429,8.167,3.766c0.844,1.129,1.769,2.186,2.748,3.305c1.827,2.089,3.717,4.249,5.1,6.953
		c1.697,3.319,1.616,6.074-0.264,8.933c-2.756,4.192-4.091,9.152-4.201,15.608c-0.01,0.625,0.082,1.327,0.266,2.032
		c0.018,0.067,0.035,0.122,0.051,0.167c0.041-0.012,0.088-0.027,0.143-0.047c0.186-0.069,0.369-0.148,0.551-0.225
		c0.4-0.17,0.853-0.362,1.362-0.501c0.668-0.182,2.06-0.562,2.29-0.796c0.106-0.167,0.191-0.842,0.245-1.998
		c0.22-4.698,1.425-9.194,3.582-13.366c1.105-2.138,2.641-3.989,4.324-5.211c0.992-0.72,2.063-1.101,3.099-1.101
		c2.445,0,4.23,1.959,4.44,4.874c0.038,0.528-0.028,1-0.082,1.379c-0.029,0.205-0.059,0.417-0.054,0.528
		c0.062,1.304,0.577,1.304,0.953,1.304c0.121,0,0.254-0.011,0.394-0.032c3.573-0.539,5.619-1.612,6.844-3.588
		c1.364-2.201,3.317-3.617,6.145-4.455c0.56-0.166,1.225-0.25,1.977-0.25c2.841,0,7.595,1.263,8.774,3.973
		c0.931,2.14,1.197,4.815,0.693,6.98c-1.061,4.557-5.886,8.407-10.536,8.407c-0.308,0-0.616-0.017-0.916-0.051
		c-0.307-0.035-0.606-0.052-0.886-0.052c-2.737,0-3.945,1.555-5.619,5.041C72.145,354.848,69.08,361.776,66.116,368.475z
		 M79.215,384.973l-0.706,1.579l-1.664-0.471c-0.372-0.105-0.609-0.166-0.765-0.206c-0.323-0.083-0.657-0.169-1.017-0.429
		l-0.237-0.171c-6.259-4.527-6.898-5.548-4.214-13.088c1.413-3.969,3.345-7.758,5.213-11.423c0.615-1.206,1.229-2.411,1.825-3.622
		c0.763-1.551,1.624-3.021,2.536-4.578c0.42-0.718,0.854-1.458,1.294-2.235l1.075-1.896l1.797,1.233l4.415,3.029l2.358,1.617
		l1.375,0.943l-0.68,1.522L79.215,384.973z M200.78,527.668l-1.14,0.134l-0.691-0.917c-2.178-2.889-2.428-5.931-2.629-8.376
		c-0.889-10.809-1.597-20.323-2.164-29.083c-0.135-2.081-0.152-4.177-0.169-6.203c-0.018-2.136-0.036-4.346-0.195-6.474
		c-0.459-6.127-0.991-12.357-1.505-18.381c-0.444-5.208-0.904-10.593-1.316-15.896c-0.578-7.446-0.726-13.69-0.466-19.649
		c0.232-5.322,0.218-10.766,0.205-16.031c-0.009-3.673-0.019-7.471,0.055-11.215c0.073-3.723,0.255-7.492,0.431-11.137
		c0.155-3.207,0.315-6.524,0.399-9.776c0.072-2.788,0.014-5.65-0.042-8.417c-0.033-1.627-0.067-3.309-0.075-4.97
		c-0.012-2.625-0.483-3.539-3.572-4.535c-0.198-0.064-0.451-0.098-0.731-0.098c-1.384,0-2.915,0.748-3.562,1.74
		c-1.65,2.532-3.529,5.558-4.96,8.806c-2.561,5.812-5.656,10.447-9.463,14.171c-1.344,1.314-2.528,2.721-3.52,4.181
		c-5.183,7.629-13.036,11.284-20.035,13.853c-5.296,1.944-11.022,3.743-17.009,3.743l-0.355-0.002l-0.236-0.001
		c-1.788,0-3.588,0.228-5.493,0.47c-1.456,0.185-2.961,0.375-4.479,0.459c-0.953,0.052-1.914,0.079-2.856,0.079
		c-7.945,0-15.552-1.876-22.611-5.576c-2.227-1.167-4.434-2.508-6.558-3.986c-3.127-2.176-3.594-3.684-2.268-7.333
		c0.325-0.893,0.729-1.715,1.12-2.509c0.281-0.571,0.546-1.11,0.77-1.649c2.583-6.223,5.149-12.453,7.715-18.683l1.527-3.708
		c0.246-0.598,0.484-1.201,0.764-1.912l0.481-1.217l0.501-1.261h1.357c1.29,0,2.588-0.008,3.892-0.017
		c1.324-0.008,2.653-0.017,3.986-0.017c1.95,0,3.56,0.018,5.066,0.057c0.177,0.005,0.352,0.007,0.528,0.007
		c4.144,0,8.039-1.283,11.907-3.922c1.376-0.939,2.805-1.798,4.187-2.629c1.027-0.618,2.089-1.256,3.096-1.909
		c4.312-2.795,6.558-7.19,7.067-13.831c0.498-6.491,0.424-13.054,0.306-19.22c-0.031-1.632-0.403-3.31-0.796-5.087
		c-0.192-0.868-0.391-1.766-0.551-2.671l-0.088-0.494c-0.172-0.959-0.349-1.952-0.452-2.973c-0.604-6.003-0.062-6.822,5.802-8.761
		l0.154-0.05c0.147-0.048,0.37-0.12,0.439-0.16c5.09-3.282,10.708-5.33,16.141-7.311c3.254-1.186,6.619-2.413,9.771-3.879
		c1.13-0.525,2.36-0.792,3.656-0.792c2.302,0,4.784,0.878,6.811,2.408c4.006,3.024,7.898,6.294,11.662,9.455
		c2.238,1.88,4.552,3.824,6.855,5.686c1.179,0.953,2.429,1.81,3.753,2.717c1.352,0.927,2.75,1.885,4.072,2.959
		c2.05,1.667,4.073,3.415,6.028,5.105c2.306,1.993,4.69,4.054,7.101,5.963c3.693,2.924,7.564,5.779,11.307,8.54
		c1.475,1.088,2.949,2.175,4.418,3.27c1.622,1.209,3.258,2.402,4.894,3.595c3.44,2.508,6.996,5.102,10.385,7.827l0.814,0.657
		c3.287,2.657,3.495,2.825,7.75,3.559c0.21-0.181,0.411-0.364,0.573-0.547c1.022-1.159,2.321-1.796,3.66-1.796
		c0.756,0,1.492,0.198,2.186,0.588c1.049,0.589,2.147,0.864,3.457,0.864c1.366,0,2.788-0.295,4.294-0.606
		c0.975-0.202,1.982-0.411,3.013-0.544c1.191-0.155,2.391-0.367,3.661-0.593c0.606-0.108,1.225-0.217,1.862-0.324l1.777-0.298
		l0.482,1.736c1.137,4.098,1.151,7.883,1.165,11.543c0.002,0.51,0.004,1.019,0.009,1.527c0.039,3.92,0.013,7.899-0.013,11.746
		c-0.031,4.602-0.063,9.361,0.019,14.027c0.052,2.965,0.286,6.005,0.513,8.946c0.177,2.303,0.361,4.684,0.46,7.047
		c0.269,6.439,0.447,12.983,0.619,19.312l0.127,4.625c0.061,2.161,0.126,4.322,0.191,6.483c0.198,6.577,0.404,13.378,0.469,20.078
		c0.03,3.045-0.069,6.121-0.165,9.096c-0.098,3.03-0.198,6.164-0.16,9.222c0.074,5.858,0.222,11.819,0.365,17.584
		c0.145,5.868,0.296,11.936,0.369,17.911c0.028,2.272-0.36,4.492-0.734,6.638c-0.104,0.596-0.208,1.192-0.302,1.786
		c-0.227,1.428-0.532,2.848-0.886,4.493c-0.175,0.814-0.366,1.698-0.569,2.689l-0.294,1.427l-1.448,0.158
		c-11.605,1.266-23.49,2.43-34.984,3.555C232.297,524.273,216.387,525.831,200.78,527.668z M250.242,749.24
		c-0.049,0.337-0.083,0.699-0.119,1.074c-0.098,1.014-0.209,2.162-0.578,3.314c-2.575,8.03-7.132,14.371-13.933,19.384
		c-10.933,8.06-23.424,14.428-38.187,19.47c-4.805,1.641-9.782,2.473-14.793,2.473c-2.887,0-5.817-0.279-8.707-0.828
		c-3.728-0.709-6.668-2.882-8.066-5.963c-1.372-3.023-1.056-6.512,0.89-9.825c3.478-5.922,7.801-10.658,12.85-14.077
		c5.579-3.778,11.308-7.519,16.849-11.138l3.977-2.599c2.468-1.615,4.993-1.883,7.353-1.932c4.092-0.085,8.288-0.528,12.346-0.957
		c1.839-0.194,3.74-0.395,5.62-0.562l0.781-0.07c1.911-0.173,3.888-0.352,5.876-0.352l0.159,0c3.639,0.017,7.226,0.103,11.024,0.193
		c1.549,0.037,3.119,0.074,4.721,0.107l2.262,0.047L250.242,749.24z M349.222,529.853c-0.025,0.734-0.051,1.464-0.058,2.191
		c-0.043,4.275-0.204,8.607-0.359,12.797c-0.149,4.009-0.302,8.155-0.351,12.221c-0.097,8.002-0.107,16.144-0.116,24.018
		c-0.006,4.937-0.012,9.875-0.038,14.812c-0.057,10.583-0.131,21.942-0.289,33.298c-0.116,8.357-0.305,15.702-0.576,22.456
		c-0.101,2.517-0.295,5.054-0.483,7.508c-0.23,3.011-0.469,6.124-0.529,9.161c-0.087,4.39-0.016,8.874,0.053,13.211
		c0.042,2.625,0.085,5.339,0.093,8.015c0.005,1.721-0.046,3.456-0.095,5.133c-0.079,2.698-0.161,5.488-0.003,8.174
		c0.258,4.381,0.734,8.848,1.195,13.167c0.2,1.876,0.4,3.753,0.584,5.63c0.01,0.105,0.027,0.21,0.042,0.315
		c0.041,0.272,0.091,0.61,0.092,0.99c0.008,2.642,0.007,5.285,0.006,8.128l0,2.599v1.248l-1.121,0.548
		c-1.034,0.506-2.22,0.752-3.626,0.752c-0.483,0-1-0.03-1.536-0.09c-1.277-0.142-2.761-0.294-4.205-0.294
		c-2.27,0-4.072,0.376-5.671,1.184c-3.524,1.781-7.229,2.137-10.813,2.481c-0.855,0.082-1.71,0.164-2.56,0.266
		c-0.947,0.114-1.89,0.172-2.888,0.233c-0.475,0.029-0.972,0.059-1.5,0.098l-1.545,0.112l-0.495-1.468
		c-0.16-0.475-0.334-0.942-0.505-1.405c-0.4-1.079-0.814-2.195-1.069-3.391c-1.236-5.78-2.402-11.704-3.397-16.804
		c-0.34-1.741-0.654-3.508-0.958-5.218c-0.523-2.946-1.065-5.993-1.745-8.928c-0.629-2.714-1.381-5.467-2.109-8.13
		c-0.783-2.866-1.592-5.83-2.265-8.795c-0.739-3.259-1.273-6.588-1.79-9.807c-0.226-1.409-0.452-2.818-0.695-4.224
		c-0.388-2.243-0.779-4.485-1.17-6.727c-1.024-5.868-2.082-11.935-3.064-17.918c-0.451-2.747-0.683-5.536-0.908-8.233l-0.036-0.435
		c-0.555-6.633-1.545-13.802-3.026-21.914c-1.279-7.003-2.364-14.147-3.414-21.056c-0.315-2.074-0.63-4.148-0.951-6.22l-0.065-0.43
		c-0.453-2.997-0.768-3.992-2.763-4.295l-1.944-0.295l0.262-1.949c0.263-1.955,0.728-3.824,1.179-5.631
		c0.688-2.763,1.343-5.393,1.183-7.988c-0.602-0.157-1.182-0.236-1.735-0.236c-2.338,0-3.949,1.448-4.537,4.076
		c-2.019,9.029-3.447,16.437-4.494,23.313c-0.779,5.118-1.398,10.365-1.997,15.438c-0.529,4.477-1.075,9.106-1.731,13.655
		c-0.527,3.65-1.223,7.314-1.896,10.858c-0.627,3.303-1.276,6.718-1.778,10.078c-0.93,6.228-1.68,12.606-2.405,18.773
		c-0.191,1.624-0.382,3.248-0.576,4.871c-1.169,9.766-2.077,17.656-2.857,24.831c-0.392,3.601-0.759,7.27-1.113,10.818
		c-0.436,4.361-0.887,8.871-1.389,13.306c-0.226,1.997-0.611,3.969-0.983,5.876c-0.193,0.99-0.393,2.013-0.564,3.012
		c-0.048,0.278-0.057,0.626-0.067,0.993c-0.006,0.207-0.012,0.415-0.023,0.621l-0.288,5.263l-0.143,2.624l-0.087,1.593l-1.572,0.269
		c-3.739,0.64-7.262,1.243-10.839,1.243c-1.632,0-3.138-0.125-4.606-0.381c-1.374-0.24-2.721-0.362-4.004-0.362
		c-1.987,0-3.867,0.278-5.748,0.851c-1.214,0.369-2.441,0.549-3.752,0.549c-0.939,0-1.933-0.093-3.037-0.285
		c-0.647-0.112-1.343-0.167-2.127-0.167c-1.373,0-2.809,0.177-3.907,0.331c-0.707,0.099-1.337,0.147-1.927,0.147
		c-2.107,0-3.781-0.627-5.118-1.918l-0.611-0.59v-0.849c0-0.911,0.009-1.805,0.018-2.686c0.019-1.894,0.037-3.683-0.035-5.467
		l-0.101-2.558c-0.175-4.5-0.357-9.152-0.763-13.683c-0.782-8.716-0.353-17.483,0.061-25.961c0.167-3.414,0.339-6.944,0.429-10.406
		c0.082-3.181,0.151-6.362,0.219-9.543c0.063-2.914,0.125-5.828,0.199-8.742c0.062-2.45,0.118-4.9,0.174-7.35
		c0.152-6.644,0.31-13.513,0.578-20.274c0.074-1.859,0.143-3.718,0.212-5.577c0.32-8.6,0.652-17.493,1.452-26.223
		c0.577-6.289,0.555-12.727,0.533-18.954c-0.015-4.509-0.032-9.172,0.177-13.78c0.068-1.488,0.161-2.994,0.251-4.45
		c0.203-3.279,0.412-6.669,0.33-9.953c-0.098-3.879-0.443-7.734-0.809-11.815c-0.162-1.805-0.326-3.634-0.471-5.5l-0.112-1.442
		l1.334-0.558c2.592-1.085,5.49-1.317,8.292-1.541c1.009-0.081,2.052-0.164,3.053-0.286c7.265-0.886,13.818-1.676,20.448-2.362
		c5.486-0.568,11.065-1.107,16.46-1.627c4.851-0.468,9.868-0.953,14.796-1.456c2.453-0.251,4.909-0.485,7.365-0.72
		c6.952-0.664,14.14-1.35,21.123-2.413c8.68-1.321,17.51-1.937,26.05-2.532c2.64-0.184,5.281-0.368,7.92-0.572
		c2.191-0.17,4.38-0.358,6.595-0.55c1.023-0.088,2.051-0.177,3.088-0.264l1.541-0.13l0.514,1.459
		C349.449,523.237,349.334,526.601,349.222,529.853z M443.416,349.198c-0.938,1.036-1.865,2.086-2.793,3.136
		c-2.929,3.315-5.958,6.743-9.335,9.757c-6.199,5.533-13.013,8.339-20.25,8.339c-0.496,0-1.001-0.013-1.502-0.04
		c-1.77-0.093-3.579-0.164-5.329-0.233c-4.653-0.183-9.464-0.372-14.184-0.994c-8.733-1.15-15.674-4.827-20.63-10.928
		c-0.127-0.156-0.338-0.339-0.544-0.514c-0.992-0.842-1.739-1.548-2.339-2.116c-1.219-1.154-1.469-1.342-1.781-1.342
		c-0.698,0-2.261,0.554-4.232,1.277c-0.328,0.121-0.681,0.179-1.077,0.179c-0.155,0-0.323-0.01-0.507-0.023
		c-0.121-0.008-0.256-0.019-0.406-0.019h-1.236l-0.553-1.105c-0.155-0.309-0.298-0.634-0.441-0.962
		c-0.257-0.589-0.501-1.146-0.794-1.491c-0.055-0.065-0.174-0.155-0.294-0.228c-0.083,0.072-0.166,0.154-0.219,0.223
		c-0.214,1.931-0.267,4.09-0.163,6.592c0.414,9.928,0.904,20.658,1.498,32.802c0.132,2.699,0.3,5.447,0.462,8.105
		c0.181,2.962,0.368,6.025,0.507,9.047c0.113,2.442,0.181,4.918,0.248,7.313c0.09,3.232,0.182,6.575,0.384,9.838
		c0.237,3.833,0.55,7.735,0.853,11.509c0.394,4.905,0.802,9.978,1.049,14.99c0.461,9.362,0.797,18.879,1.122,28.084
		c0.153,4.333,0.306,8.665,0.472,12.997c0.144,3.771,0.319,7.761,0.518,11.86c0.181,3.72-1.771,6.058-5.354,6.414
		c-4.09,0.407-8.249,0.787-12.27,1.154c-4.507,0.412-9.167,0.838-13.741,1.302c-6.082,0.618-12.265,1.298-18.244,1.956
		c-3.571,0.393-7.142,0.786-10.714,1.169c-2.684,0.287-5.374,0.551-8.221,0.831c-1.348,0.132-2.735,0.269-4.179,0.413l-2.641,0.264
		l0.474-2.611c0.069-0.378,0.131-0.745,0.191-1.103c0.462-2.73,0.899-5.309,3.345-7.538c1.558-1.42,1.7-3.6,1.545-5.179
		c-0.517-5.246-1.143-12.162-1.396-19.137c-0.134-3.699-0.026-7.436,0.078-11.05c0.045-1.571,0.091-3.142,0.117-4.712
		c0.038-2.268,0.089-4.536,0.14-6.805c0.109-4.863,0.222-9.892,0.197-14.823c-0.044-8.615-0.242-17.119-0.525-27.237
		c-0.144-5.145-0.34-10.379-0.531-15.441c-0.154-4.113-0.314-8.366-0.445-12.553c-0.175-5.603-0.329-11.207-0.483-16.811
		c-0.158-5.749-0.321-11.694-0.506-17.538c-0.094-2.964-0.281-5.989-0.463-8.915c-0.054-0.869-0.108-1.737-0.159-2.606
		c-0.253-4.259,0.97-5.882,5.034-6.681c3.146-0.618,6.293-1.228,9.441-1.837c6.152-1.191,12.514-2.422,18.75-3.705
		c2.2-0.452,4.438-1.039,6.603-1.607c1.854-0.486,3.77-0.989,5.69-1.416c3.298-0.733,6.655-1.438,9.902-2.119
		c4.888-1.026,9.942-2.086,14.867-3.261c3.305-0.788,6.646-1.807,9.877-2.792c1.895-0.578,3.854-1.175,5.801-1.725
		c1.884-0.532,3.801-1.036,5.654-1.523c2.17-0.57,4.414-1.16,6.592-1.793c0.663-0.192,1.305-0.29,1.909-0.29
		c1.665,0,3.123,0.735,4.217,2.126c2.13,2.707,4.946,3.914,9.132,3.914c0.799,0,1.65-0.043,2.603-0.13
		c2.279-0.209,4.745-0.658,7.33-1.336c0.916-0.24,1.631-0.347,2.317-0.347c1.198,0,2.256,0.335,3.232,1.025
		c0.541,0.382,1.087,0.757,1.633,1.132c1.404,0.965,2.856,1.963,4.227,3.079c7.454,6.064,13.958,11.428,19.883,16.401
		c1.22,1.024,2.323,2.069,2.428,3.595C445.362,346.912,444.405,348.105,443.416,349.198z M417.798,311.51l-2.932,2.557
		c-2.448,2.135-4.902,3.087-7.956,3.087c-0.805,0-1.664-0.065-2.626-0.2l-5.531-0.773l4.764-2.914 M436.436,329.022
		c-1.751-1.354-3.561-2.753-5.29-4.226c-1.851-1.577-3.649-3.244-5.388-4.857c-0.858-0.795-1.715-1.591-2.581-2.377
		c-2.52-2.29-1.781-5.212-1.34-6.958c0.048-0.192,0.096-0.38,0.139-0.564c0.442-1.898,2.672-2.629,4.465-3.216l0.202-0.066
		c0.273-0.09,0.569-0.136,0.877-0.136c1.055,0,2.564,0.594,3.281,1.696c2.854,4.382,7.391,6.593,12.194,8.932
		c0.558,0.272,1.114,0.543,1.665,0.816c4.252,2.11,7.814,4.912,11.549,9.084l0.902,1.008l-0.599,1.212l-2.363,4.783l-2.066,4.182
		l-1.098,2.223l-1.94-1.545l-3.139-2.501 M546.307,273.589c-0.297,0.8-1.021,1.873-2.776,2.44l-1.897,0.613
		c-4.868,1.576-9.902,3.205-14.945,4.562c-6.671,1.795-13.565,3.471-21.076,5.122c-3.926,0.863-7.927,1.638-11.797,2.387
		c-3.344,0.647-6.802,1.317-10.18,2.038c-4.713,1.006-9.5,2.079-14.129,3.118c-4.792,1.075-9.747,2.186-14.638,3.226
		c-1.816,0.386-3.653,0.62-5.429,0.847c-1.464,0.187-2.848,0.363-4.229,0.618l-3.627,0.667c-6.624,1.216-13.473,2.473-20.142,3.935
		c-4.782,1.049-9.624,2.298-14.306,3.506c-2.409,0.622-4.899,1.264-7.359,1.874c-2.651,0.657-5.307,1.299-7.962,1.941
		c-4.168,1.007-8.477,2.049-12.693,3.134c-3.786,0.975-7.631,2.008-11.348,3.007c-4.915,1.321-9.996,2.687-15.027,3.94
		c-2.774,0.691-5.605,1.227-8.343,1.746c-2.079,0.394-4.229,0.802-6.311,1.27c-3.07,0.69-6.188,1.447-9.204,2.178
		c-3.894,0.944-7.921,1.921-11.918,2.774c-7.983,1.705-16.12,3.304-23.989,4.85l-5.339,1.051c-2.939,0.58-5.882,1.143-8.824,1.706
		c-4.901,0.938-9.97,1.907-14.929,2.943c-0.626,0.131-1.195,0.194-1.741,0.194c-1.441,0-2.709-0.439-3.991-1.381
		c-3.089-2.27-6.258-4.549-9.322-6.753c-2.537-1.825-5.074-3.65-7.599-5.492c-2.203-1.607-4.421-3.262-6.566-4.862
		c-3.822-2.852-7.775-5.801-11.744-8.553c-3.277-2.272-6.234-4.911-9.094-7.463c-1.863-1.662-3.79-3.382-5.753-4.948
		c-4.431-3.534-9.046-7.011-13.51-10.373c-3.052-2.299-6.207-4.675-9.285-7.056c-9.424-7.29-18.63-14.498-27.361-21.424
		c-4.461-3.539-8.949-7.187-13.289-10.716c-2.524-2.052-5.049-4.105-7.581-6.147c-0.684-0.552-1.427-1.062-2.209-1.515
		c-2.652-1.538-3.731-3.681-3.207-6.367c0.054-0.275,0.01-0.688-0.101-0.939c-2.663-6.072-4.11-12.496-5.509-18.709
		c-0.499-2.214-1.014-4.503-1.574-6.725c-2.543-10.085-4.757-20.07-6.988-30.262c-0.581-2.652-1.028-5.352-1.46-7.964
		c-0.348-2.102-0.708-4.275-1.132-6.38c-0.18-0.893-0.495-1.812-0.83-2.785c-0.558-1.623-1.134-3.301-1.173-5.131
		c-0.075-3.561-0.964-6.936-1.905-10.509c-0.411-1.561-0.837-3.176-1.186-4.802c-0.761-3.54-1.865-7.115-2.933-10.571
		c-0.473-1.531-0.962-3.115-1.419-4.686c-0.035-0.121-0.08-0.239-0.123-0.359c-0.139-0.38-0.311-0.854-0.367-1.422
		c-0.495-5.043-1.888-9.81-3.362-14.857c-0.591-2.022-1.201-4.112-1.741-6.199c-0.336-1.3-0.582-3.161,0.158-4.639
		c1.315-2.624,0.963-5.307-0.03-8.784c-1.277-4.47-2.817-8.972-4.306-13.326c-0.613-1.792-1.226-3.585-1.824-5.381
		c-0.281-0.845-0.574-1.685-0.904-2.633l-0.531-1.527l-0.641-1.856l1.844-0.675c1.177-0.431,2.326-0.858,3.459-1.279
		c2.496-0.927,4.853-1.803,7.27-2.637c5.803-2.002,11.832-3.241,17.661-4.438c1.562-0.321,3.125-0.642,4.683-0.977
		c2.614-0.562,5.267-1.271,7.834-1.956c1.918-0.512,3.901-1.042,5.877-1.514c6.15-1.469,13.303-3.162,20.372-4.677
		c1.892-0.405,3.784-0.817,5.676-1.228c7.497-1.63,15.25-3.316,22.963-4.595c5.133-0.852,10.217-2.398,15.133-3.894
		c3.706-1.127,7.539-2.293,11.419-3.175c2.293-0.521,4.625-0.997,6.88-1.457c2.533-0.517,5.151-1.051,7.696-1.647
		c3.419-0.8,6.887-1.699,10.241-2.567c1.87-0.484,3.741-0.969,5.614-1.44c2.512-0.632,5.023-1.268,7.534-1.904
		c6.902-1.748,14.039-3.556,21.086-5.246c9.676-2.322,18.623-4.363,27.353-6.239c4.719-1.014,9.53-1.92,14.183-2.796
		c2.24-0.422,4.479-0.843,6.716-1.278c0.237-0.046,0.478-0.085,0.72-0.124c0.514-0.082,1-0.16,1.29-0.303
		c3.513-1.738,7.064-1.967,11.34-2.086l1.473-0.041l0.476,1.394c0.515,1.508,1.033,3.014,1.55,4.519
		c1.153,3.352,2.345,6.817,3.476,10.243c0.801,2.423,1.584,4.891,2.341,7.278c1.09,3.435,2.218,6.987,3.408,10.44
		c3.292,9.55,6.319,18.051,9.256,25.986c0.851,2.301,1.837,4.622,2.791,6.866c1.007,2.37,2.048,4.82,2.956,7.3
		c1.253,3.421,2.385,6.931,3.479,10.324c0.638,1.979,1.299,4.026,1.973,6.023c0.627,1.857,1.249,3.716,1.872,5.574
		c2.025,6.045,4.119,12.296,6.324,18.379c1.244,3.432,2.58,6.905,3.873,10.265c2.933,7.623,5.966,15.505,8.185,23.582
		c0.173,0.63,0.26,1.254,0.336,1.805c0.072,0.519,0.14,1.008,0.265,1.408l0.237,0.765c0.577,1.865,1.121,3.627,1.908,5.244
		c0.606,1.245,1.614,2.012,3.271,2.484c6.002,1.714,11.037,5.171,15.583,8.652l0.777,0.595c7.664,5.869,15.589,11.938,24.01,16.917
		c5.683,3.36,11.785,6.942,18.655,10.95c1.756,1.024,3.521,2.033,5.286,3.041c3.15,1.799,6.407,3.66,9.565,5.591
		c2.104,1.287,4.152,2.692,6.133,4.051c1.453,0.997,2.956,2.028,4.449,2.989c6.19,3.985,11.789,8.024,17.117,12.348
		c1.467,1.191,3.177,2.133,4.988,3.13c1.699,0.936,3.456,1.904,5.069,3.125l0.468,0.355c6.816,5.163,13.865,10.503,20.136,16.661
		c0.526,0.516,1.216,0.971,1.947,1.452c0.482,0.317,0.979,0.645,1.47,1.016c4.405,3.33,8.076,6.11,11.86,9.042
		c0.885,0.686,1.653,1.541,2.22,2.473C546.546,271.125,546.732,272.445,546.307,273.589z"/>
	<path class="st0" d="M479.783,733.681c-3.464,0-7.003,0.093-10.426,0.183c-1.885,0.05-3.77,0.099-5.654,0.134
		c-0.725,0.013-1.449,0.025-2.174,0.037c-3.55,0.058-7.221,0.117-10.784,0.392c-12.264,0.945-23.088,1.405-33.089,1.405
		c-1.472,0-2.946-0.01-4.419-0.03c-3.383-0.047-6.972-0.275-10.97-0.698c-0.287-0.03-0.534-0.046-0.734-0.046
		c-0.005,0-0.01,0-0.014,0c0.003,0.136,0.013,0.317,0.04,0.551c0.221,1.93,1.584,3.297,3.646,3.657
		c0.941,0.164,1.931,0.221,2.98,0.282c1.33,0.077,2.706,0.157,4.093,0.466c2.202,0.491,4.627,0.73,7.413,0.73
		c2.545,0,5.167-0.195,7.702-0.384c0.843-0.063,1.685-0.125,2.526-0.182c4.328-0.289,8.736-0.722,12.998-1.141
		c4.253-0.418,8.65-0.85,12.999-1.143c4.5-0.303,9.069-0.453,13.487-0.598c3.396-0.111,6.907-0.227,10.346-0.411
		c2.239-0.12,4.546-0.429,6.778-0.727c1.146-0.153,2.293-0.307,3.44-0.438c0.301-0.034,0.602-0.071,0.902-0.107
		c1.17-0.141,2.381-0.287,3.618-0.328c2.605-0.085,5.249-0.145,7.806-0.204c1.097-0.025,2.195-0.05,3.292-0.077
		c-6.721-0.506-13.623-1.003-20.413-1.238c-1.686-0.058-3.449-0.087-5.39-0.087h-0.001v-1c0,0,0,0-0.001,0L479.783,733.681z"/>
	<path class="st0" d="M151.863,734.86c-0.636-0.01-1.28-0.02-1.927-0.02c-0.843,0-1.538,0.017-2.188,0.054
		c-3.65,0.207-7.363,0.443-10.954,0.672c-4.59,0.292-9.336,0.593-14.012,0.839c-7.683,0.404-14.661,0.684-21.334,0.854
		c-6.19,0.158-12.479,0.253-18.561,0.344c-3.252,0.049-6.504,0.098-9.755,0.156c-1.336,0.024-2.673,0.034-4.01,0.044
		c-3.554,0.026-7.23,0.054-10.779,0.364c-1.457,0.127-2.515,0.306-3.294,0.731c0.575,0.208,1.142,0.466,1.681,0.83
		c3.32,2.24,7.396,2.315,11.338,2.387c0.438,0.008,0.872,0.016,1.304,0.027c5.564,0.138,11.144,0.208,16.584,0.208
		c8.184,0,16.345-0.159,24.256-0.471c12.81-0.506,23.648-1.543,33.777-3.241l1.112-0.739c1.912-1.271,3.878-2.02,5.843-2.226
		c0.551-0.058,0.964-0.115,1.233-0.17c-0.01-0.153-0.032-0.359-0.076-0.639C152.022,734.863,151.942,734.861,151.863,734.86z"/>
	<path class="st0" d="M354.782,807.513c-0.168,0-0.339,0.004-0.514,0.012c-5.947,0.269-12.11,0.455-18.318,0.553
		c-0.803,0.013-1.606,0.027-2.409,0.042c-2.239,0.04-4.555,0.082-6.841,0.082c-2.77,0-5.083-0.06-7.281-0.188
		c-6.074-0.354-12.229-0.862-18.182-1.352c-3.549-0.293-7.22-0.595-10.827-0.861c-0.446-0.033-0.929-0.048-1.52-0.048
		c-0.471,0-0.943,0.01-1.415,0.019c-0.498,0.01-0.995,0.02-1.49,0.02c-0.984,0-2.282-0.034-3.599-0.298
		c-3.588-0.719-7.519-1.054-12.369-1.054c-2.573,0-5.138,0.089-7.984,0.196c-1.266,0.048-2.329,0.195-3.166,0.653l0.789,1.348
		l0.841,1.438c0.044,0,0.088,0.001,0.132,0.001c0.364,0.003,0.713,0.005,1.054,0.005c0.403,0,0.795-0.004,1.186-0.016
		c1.451-0.045,2.942-0.131,4.384-0.215c2.154-0.125,4.381-0.254,6.593-0.254c1.052,0,2.018,0.028,2.953,0.087
		c13.129,0.82,25.069,1.766,36.501,2.892c6.692,0.659,13.757,0.979,21.599,0.979c3.004,0,6.086-0.046,9.422-0.14l1.092-0.032
		c1.557-0.047,3.167-0.095,4.764-0.095c2.134,0,3.903,0.085,5.568,0.267c0.505,0.055,0.968,0.082,1.415,0.082
		c0.895,0,1.709-0.112,2.486-0.347C358.941,808.196,357.176,807.513,354.782,807.513z"/>
	<path class="st0" d="M301.287,762.633c-0.078,0.092-0.162,0.194-0.245,0.307c-0.085-0.145-0.163-0.276-0.234-0.397
		c0.071,0.121,0.149,0.252,0.234,0.397C301.125,762.827,301.209,762.725,301.287,762.633z"/>
	<path class="st0" d="M266.271,419.896c-0.154-0.02-0.307-0.03-0.454-0.03c-0.489,0-1.978,0-3.556,2.659
		c-0.223,0.376-0.558,1.043-0.294,1.293c0.646,0.612,1.4,1.044,1.727,1.127c1.395-0.374,2.783-1.24,4.25-2.156l0.388-0.241
		c0.045-0.099,0.098-0.239,0.134-0.333c0.011-0.028,0.021-0.057,0.032-0.085C268.365,421.153,267.282,420.027,266.271,419.896z"/>
	<path class="st0" d="M266.185,459.317c-0.41-0.104-0.803-0.157-1.168-0.157c-1.309,0-2.394,0.707-3.318,2.162
		c-0.221,0.348-0.36,0.872-0.368,1.128c0.164,0.179,0.619,0.464,0.85,0.608c0.001,0.001,0.002,0.001,0.003,0.002
		c3.742-0.127,4.345-1.488,4.61-2.767C266.936,459.608,266.862,459.489,266.185,459.317z"/>
	<path class="st0" d="M263.263,385.893c0.188-0.09,0.373-0.177,0.556-0.263c0.992-0.468,1.849-0.873,2.6-1.364
		c0.211-0.138,0.499-0.326,0.029-1.658c-0.101-0.285-0.126-0.285-0.371-0.285c-0.162,0-0.362,0.03-0.579,0.085
		c-1.079,0.277-2.115,0.565-2.937,1.032c-0.662,0.376-1.108,1.026-1.04,1.482c0.228,0.184,0.794,0.477,1.182,0.678
		C262.882,385.693,263.07,385.79,263.263,385.893z"/>
	<path class="st0" d="M236.034,547.769c-1.125,0-1.957,0.383-2.629,2.289c-0.501,1.42-1.254,2.725-1.854,3.703
		c-1.174,1.913-2.363,3.816-3.553,5.718c-1.793,2.867-3.646,5.833-5.406,8.776c-0.863,1.444-0.966,2.347-0.764,2.502
		c0.041,0.032,0.155,0.069,0.338,0.069c0.53,0,1.489-0.322,2.448-1.231c0.205-0.194,0.381-0.422,0.484-0.625
		c1.441-2.845,3.153-5.538,4.808-8.142c2.203-3.465,4.284-6.738,5.813-10.377c0.506-1.205,0.645-1.948,0.422-2.682
		C236.106,547.77,236.07,547.769,236.034,547.769z"/>
	<path class="st0" d="M328.596,541.767c-1.02-0.32-1.643-0.447-2.129-0.447c-0.5,0-1.009,0.141-1.944,0.537
		c-0.888,0.377-1.209,0.621-1.315,0.721c0.017,0.144,0.105,0.535,0.538,1.397c0.608,1.212,1.17,2.451,1.714,3.649
		c0.786,1.733,1.529,3.37,2.404,4.948c0.769,1.386,1.748,2.52,2.687,3.112c0.398,0.251,0.788,0.384,1.127,0.384
		c0.283,0,0.518-0.094,0.699-0.28c0.288-0.296,0.437-0.802,0.419-1.422c-0.072-2.499-0.505-3.343-0.756-3.624
		C329.574,547.988,329.029,544.841,328.596,541.767z"/>
	<path class="st0" d="M488.645,256.223c-0.663-0.646-1.29-1.255-1.932-1.62c-0.923-0.524-1.881-0.992-2.896-1.487
		c-1.594-0.778-3.243-1.583-4.777-2.637c-5.849-4.021-10.906-7.713-15.459-11.286c-4.057-3.184-8.115-6.49-12.04-9.687
		c-3.718-3.029-7.563-6.161-11.388-9.174c-3.684-2.902-7.621-5.658-11.427-8.323l-1.343-0.941c-2.46-1.725-4.996-3.444-7.448-5.107
		c-4.54-3.079-9.235-6.263-13.697-9.645c-4.689-3.555-9.719-6.815-14.584-9.969c-1.682-1.09-3.363-2.18-5.036-3.284
		c-0.88-0.581-1.712-0.888-2.407-0.888c-1.42,0-1.974,1.455-2.187,2.676c-0.588,3.353-2.432,4.459-5.019,5.087
		c-5.494,1.334-11.042,2.95-16.406,4.512l-1.092,0.318c-1.605,0.467-3.239,1-4.819,1.515c-2.632,0.858-5.354,1.746-8.127,2.396
		c-0.219,0.051-0.439,0.105-0.661,0.159c-1.204,0.294-2.568,0.628-4.039,0.628c-1.223,0-2.352-0.225-3.452-0.687
		c-0.411-0.173-1.2-0.504-1.782-0.703c-0.112,0.574-0.222,1.402-0.31,2.066l-0.13,0.982l-0.86,0.492
		c-0.12,0.069-0.217,0.131-0.3,0.185c-0.267,0.171-0.599,0.383-1.065,0.498c-1.362,0.336-2.726,0.662-4.09,0.987
		c-2.687,0.642-5.466,1.305-8.163,2.036c-1.22,0.33-2.415,0.757-3.681,1.208c-1.197,0.427-2.435,0.869-3.708,1.227
		c-7.542,2.122-13.848,3.835-19.844,5.388c-2.068,0.536-4.172,1.001-6.206,1.451c-2.027,0.448-4.124,0.912-6.149,1.439
		c-2.248,0.585-4.531,1.245-6.739,1.883c-2.719,0.786-5.53,1.599-8.343,2.292c-5.03,1.239-10.231,2.52-15.497,3.253
		c-4.934,0.687-9.957,1.222-14.815,1.74c-3.906,0.416-7.946,0.846-11.897,1.352c-4.435,0.567-8.942,1.348-13.3,2.102
		c-1.305,0.226-2.61,0.452-3.916,0.673c-0.955,0.162-1.9,0.378-2.902,0.607c-0.947,0.217-1.927,0.441-2.924,0.617
		c-1.941,0.343-3.881,0.688-5.822,1.033c-7.252,1.289-14.75,2.623-22.155,3.803c-3.098,0.494-3.834,1.66-5.115,6.036
		c-0.299,1.021-0.173,1.33,1.94,2.568c0.388,0.227,0.789,0.463,1.181,0.724l0.141,0.093c0.204,0.133,0.406,0.268,0.598,0.418
		c1.849,1.444,3.695,2.891,5.541,4.339c4.152,3.256,8.446,6.623,12.699,9.887c1.498,1.15,3.084,2.27,4.618,3.353
		c1.56,1.102,3.174,2.241,4.729,3.435c3.815,2.926,7.673,5.924,11.403,8.824c4.669,3.629,9.497,7.381,14.279,11.021
		c2.612,1.989,5.327,3.956,7.952,5.859c4.032,2.923,8.202,5.945,12.15,9.149c2.353,1.909,4.863,3.746,7.291,5.523
		c5.142,3.763,10.46,7.653,14.893,12.636c0.646,0.727,1.438,1.234,1.926,1.234c0.09,0,0.194-0.016,0.348-0.135
		c1.988-1.529,4.024-1.773,5.82-1.988c0.534-0.064,1.038-0.124,1.536-0.215c3.816-0.698,7.671-1.871,11.399-3.006
		c0.677-0.206,1.354-0.412,2.032-0.616c1.418-0.426,2.863-0.948,4.261-1.453c1.94-0.701,3.946-1.426,6.017-1.953
		c2.953-0.751,5.967-1.375,8.881-1.979c2.354-0.487,4.787-0.991,7.149-1.555c4.6-1.098,9.264-2.309,13.775-3.48
		c1.774-0.461,3.549-0.921,5.325-1.377l2.544-0.651c3.429-0.877,6.975-1.785,10.448-2.711c3.487-0.93,6.969-1.875,10.452-2.82
		c3.468-0.941,6.936-1.881,10.408-2.808c1.986-0.53,3.978-1.04,5.97-1.549c2.304-0.589,4.687-1.199,7.015-1.831
		c1.236-0.335,2.498-0.731,3.719-1.114c1.328-0.416,2.7-0.847,4.087-1.216c2.329-0.621,4.699-1.219,6.991-1.797
		c2.924-0.737,5.948-1.5,8.893-2.313c2.279-0.629,4.594-1.34,6.833-2.028c3.618-1.111,7.36-2.261,11.139-3.126
		c7.907-1.811,15.978-3.461,23.784-5.056c3.386-0.692,6.772-1.384,10.155-2.091c0.514-0.107,1.035-0.243,1.586-0.388
		c1.211-0.317,2.462-0.644,3.813-0.709c7.126-0.346,13.874-2.265,21.326-4.55c1.752-0.537,1.985-0.712,2.208-3.463
		c0.139-1.712,0.539-3.404,1.157-4.895c0.252-0.609,0.177-0.774-0.227-1.166L488.645,256.223z M412.989,218.984
		c1.571-0.304,3.196-0.619,4.883-0.668c1.599-0.047,2.2-0.35,2.611-2.049l0.694-2.874l2.409,1.714
		c1.555,1.106,3.177,2.15,4.746,3.16c4.109,2.645,8.359,5.38,11.888,9.516l2.141,2.508l-3.214,0.739
		c-1.496,0.344-2.93,0.677-4.323,1.001c-2.94,0.683-5.718,1.328-8.497,1.942c-8.843,1.952-18.36,4.041-28.031,6.094
		c-0.371,0.079-0.765,0.119-1.172,0.119c-0.61,0-1.782-0.097-2.769-0.747c-4.269-2.813-8.539-5.792-12.307-8.42
		c-0.546-0.38-0.894-0.831-1.297-1.353c-0.177-0.229-0.385-0.499-0.654-0.816l-1.911-2.256l2.805-0.934
		c0.671-0.224,1.297-0.454,1.895-0.675c1.311-0.483,2.549-0.939,3.886-1.195c7.079-1.355,14.286-2.65,21.257-3.902 M306.176,258.478
		c-1.491-1.676-3.557-2.954-5.743-4.307c-0.954-0.59-1.94-1.2-2.887-1.853c-0.933-0.644-1.92-1.275-2.874-1.885
		c-0.45-0.288-0.9-0.576-1.348-0.867l-1.011-0.657l0.109-1.201l0.081-0.891l0.128-1.411l1.374-0.347
		c0.522-0.132,1.046-0.287,1.6-0.452c1.285-0.381,2.614-0.776,4.046-0.908c8.426-0.779,16.748-3.081,24.797-5.307l1.04-0.288
		c1.191-0.329,2.259-0.489,3.265-0.489c2.342,0,4.419,0.883,6.349,2.698c2.016,1.898,4.215,3.562,6.542,5.325
		c1.147,0.869,2.333,1.767,3.484,2.688c0.558,0.446,0.997,0.947,1.505,1.526c0.244,0.278,0.519,0.591,0.85,0.948l2.066,2.22
		l-2.854,1.025c-0.532,0.191-1.018,0.373-1.475,0.543c-0.963,0.36-1.794,0.67-2.682,0.936c-5.408,1.618-10.82,3.219-16.233,4.821
		l-5.199,1.539c-0.181,0.054-0.364,0.101-0.547,0.149c-0.262,0.068-0.509,0.132-0.684,0.204c-1.656,0.686-3.195,1.02-4.703,1.02
		C311.936,263.258,309.077,261.739,306.176,258.478z M309.62,263.8l-2.809,1.438c-0.511,0.262-0.896,0.476-1.206,0.649
		c-0.604,0.336-1.082,0.602-1.68,0.754c-2.864,0.726-5.732,1.437-8.601,2.148c-5.718,1.417-11.63,2.882-17.4,4.448
		c-0.955,0.259-1.889,0.39-2.777,0.39c-2.301,0-4.383-0.835-6.552-2.626c-3.847-3.178-7.809-6.308-11.518-9.216
		c-0.18-0.141-0.509-0.285-0.857-0.438c-0.389-0.17-0.829-0.364-1.269-0.638c-1.189-0.741-2.367-1.518-3.505-2.27
		c-0.464-0.306-0.928-0.613-1.394-0.917l-1.035-0.677l0.143-1.228l0.047-0.404l0.061-0.526l0.149-1.282l1.23-0.392
		c0.436-0.139,0.87-0.293,1.303-0.446c1.036-0.367,2.108-0.746,3.268-0.97c6.192-1.199,12.494-2.351,18.59-3.465l2.315-0.423
		c0.577-0.106,1.133-0.151,1.67-0.196c0.744-0.061,1.447-0.119,1.908-0.326c1.001-0.449,2.008-0.677,2.991-0.677
		c2.464,0,4.341,1.389,5.997,2.615l0.11,0.081c2.657,1.966,5.497,3.931,8.438,5.843l0.604,0.392c2.902,1.884,5.903,3.831,9.28,6.433
		L309.62,263.8z M340.993,242.854l-4.989-3.518l-3.404-2.401l4.003-1.155c1.118-0.323,2.146-0.627,3.114-0.915
		c2.019-0.599,3.763-1.116,5.558-1.569c4.676-1.181,9.46-2.33,14.219-3.416c3.939-0.898,7.433-1.615,10.683-2.19
		c0.416-0.074,0.849-0.111,1.286-0.111c0.825,0,2.017,0.136,3.011,0.783c4.531,2.948,8.912,5.996,13.011,8.866
		c0.685,0.48,1.096,1.094,1.493,1.688c0.144,0.216,0.299,0.45,0.484,0.691l1.477,1.928l-2.176,1.08
		c-0.243,0.12-0.463,0.242-0.67,0.356c-0.517,0.285-1.052,0.579-1.696,0.763c-4.367,1.251-8.738,2.492-13.108,3.733
		c-4.739,1.345-9.477,2.691-14.212,4.049c-1.048,0.301-1.988,0.447-2.873,0.447c-1.53,0-2.939-0.448-4.188-1.331
		C348.446,248.108,344.874,245.59,340.993,242.854z M349.301,203.538c0.531-0.24,0.986-0.461,1.395-0.659
		c0.829-0.402,1.545-0.75,2.343-0.996c10.643-3.281,21.091-6.387,31.912-8.337c0.185-0.033,0.384-0.056,0.584-0.076
		c0.041-0.004,0.083-0.008,0.124-0.011c1.128-0.942,2.33-1.42,3.579-1.42c1.933,0,3.456,1.09,4.928,2.145
		c3.796,2.719,7.705,5.426,11.486,8.045c2.066,1.431,4.132,2.862,6.192,4.302c0.18,0.126,0.363,0.249,0.547,0.373
		c1.447,0.975,3.247,2.188,4.155,4.826l0.749,2.176l-2.26,0.438c-1.56,0.302-3.098,0.599-4.622,0.892
		c-3.733,0.718-7.26,1.397-10.834,2.118c-1.148,0.232-2.326,0.517-3.464,0.793c-1.108,0.269-2.255,0.547-3.407,0.784
		c-6.539,1.348-12.4,2.525-17.917,3.598c-0.586,0.114-1.131,0.169-1.664,0.169c-1.513,0-2.906-0.468-4.139-1.392
		c-4.258-3.189-8.658-6.353-12.912-9.414l-1.784-1.283c-1.007-0.725-2.056-1.426-3.271-2.238c-0.622-0.416-1.288-0.861-2.016-1.354
		l-2.958-2.004L349.301,203.538z M311.481,214.896l0.393-1.106l0.335-0.943l0.955-0.297c0.719-0.224,1.436-0.459,2.153-0.694
		c1.6-0.525,3.255-1.068,4.948-1.488c3.748-0.931,7.565-1.831,11.255-2.701c2.535-0.598,5.071-1.196,7.603-1.808
		c0.735-0.178,1.459-0.337,2.227-0.337c1.445,0,2.642,0.571,3.558,1.698c2.56,3.15,5.901,5.339,9.438,7.657
		c1.312,0.86,2.669,1.749,3.98,2.689c0.974,0.699,1.86,1.434,2.885,2.286c0.483,0.401,0.994,0.825,1.552,1.277l2.635,2.13
		l-3.138,1.278c-0.465,0.189-0.854,0.361-1.196,0.512c-0.695,0.307-1.295,0.572-1.974,0.739c-2.885,0.709-5.774,1.405-8.662,2.101
		c-5.589,1.346-11.369,2.739-17.018,4.208c-0.601,0.156-1.194,0.235-1.761,0.235c-2.071,0-3.815-0.997-5.185-2.965
		c-2.538-3.645-6.095-5.937-9.56-7.872c-1.473-0.822-2.579-2.013-3.648-3.165c-0.436-0.47-0.848-0.914-1.269-1.314l-0.94-0.895
		L311.481,214.896z M267.906,224.778c0.766-0.304,1.465-0.598,2.123-0.874c1.428-0.6,2.661-1.119,4.003-1.508
		c3.131-0.907,6.174-1.638,9.827-2.499c1.82-0.429,3.67-0.84,5.459-1.238c2.727-0.606,5.547-1.232,8.284-1.929
		c1.516-0.386,2.994-0.924,4.705-1.548c0.827-0.301,1.686-0.614,2.596-0.927l2.056-0.706l0.532,2.108
		c0.814,3.223,3.253,5.118,5.836,7.124l0.466,0.363c1.256,0.98,2.658,1.804,4.143,2.676c0.869,0.51,1.767,1.038,2.642,1.604
		c0.854,0.553,1.636,1.143,2.626,1.89c0.491,0.371,1.036,0.782,1.667,1.246l3.202,2.357l-3.801,1.166
		c-9.641,2.956-17.776,4.889-25.602,6.083c-2.882,0.439-6.229,0.963-9.483,1.619c-0.584,0.118-1.121,0.175-1.643,0.175
		c-1.476,0-2.821-0.475-4.112-1.451c-1.723-1.303-3.54-2.574-5.296-3.804c-1.625-1.137-3.306-2.313-4.934-3.528
		c-1.326-0.99-2.564-2.096-3.875-3.267c-0.625-0.558-1.281-1.145-1.993-1.76l-2.495-2.157L267.906,224.778z M220.524,232.515
		l0.296-0.797l0.429-1.158l1.227-0.135l3.215-0.351c2.364-0.257,4.728-0.514,7.091-0.785c5.242-0.6,11.341-1.3,17.404-2.024
		c1.037-0.124,2.072-0.268,3.107-0.411c1.906-0.264,3.878-0.538,5.858-0.687c0.104-0.008,0.211-0.012,0.321-0.012
		c1.287,0,3.096,0.576,4.026,1.841c3.139,4.268,6.953,7.866,11.336,10.693c0.596,0.384,0.932,0.895,1.257,1.39
		c0.133,0.202,0.291,0.443,0.502,0.727l1.641,2.207l-2.605,0.881c-0.433,0.146-0.834,0.296-1.216,0.439
		c-0.862,0.321-1.677,0.625-2.579,0.808c-8.428,1.706-17.004,3.397-25.297,5.033l-1.05,0.207c-0.632,0.125-1.221,0.185-1.798,0.185
		c-1.598,0-3.021-0.466-4.353-1.425c-2.514-1.81-5.124-3.597-7.647-5.324c-1.418-0.971-2.836-1.942-4.247-2.922
		c-0.659-0.458-1.401-1.036-1.911-1.853c-1.211-1.938-2.505-3.23-4.073-4.067l-1.541-0.823L220.524,232.515z M202.247,259.259
		c-0.885,0-2.14-0.154-3.099-0.886c-5.562-4.244-11.122-8.665-16.499-12.941l-2.228-1.771c-0.561-0.446-0.792-1-0.995-1.488
		c-0.078-0.188-0.176-0.424-0.319-0.716l-1.003-2.052l2.167-0.723c0.383-0.128,0.732-0.258,1.059-0.379
		c0.752-0.279,1.462-0.543,2.261-0.684c1.781-0.315,3.589-0.606,5.338-0.887c2.332-0.375,4.743-0.763,7.088-1.209
		c3.988-0.758,8.123-1.65,12.289-2.653c0.685-0.165,1.305-0.245,1.898-0.245c1.475,0,2.779,0.497,3.987,1.519
		c2.385,2.019,4.857,4.031,7.247,5.977c1.014,0.826,2.028,1.651,3.039,2.48l1.124,0.918c1.058,0.862,2.151,1.753,3.215,2.66
		c0.689,0.587,1.357,1.204,2.132,1.919c0.389,0.359,0.813,0.751,1.295,1.189l2.747,2.503l-3.602,0.914
		c-1.227,0.311-2.378,0.61-3.479,0.895c-2.264,0.587-4.402,1.141-6.521,1.629c-5.201,1.199-11.346,2.596-17.493,3.865
		C203.367,259.201,202.797,259.259,202.247,259.259z M230.772,282.747c-2.832-2.13-5.673-4.248-8.514-6.367
		c-3.192-2.38-6.493-4.841-9.728-7.281c-0.868-0.654-1.648-1.387-2.473-2.162c-0.394-0.37-0.81-0.761-1.267-1.173l-2.296-2.069
		l2.827-1.247c5.976-2.636,11.845-3.82,17.522-4.965c0.947-0.191,1.892-0.382,2.836-0.579c0.499-0.104,1.002-0.2,1.505-0.296
		c1.432-0.273,2.784-0.531,4.026-0.977c1.221-0.439,2.445-0.661,3.64-0.661c3.328,0,6.012,1.686,8.199,3.335
		c1.977,1.491,4.103,2.904,6.159,4.271c1.168,0.776,2.376,1.579,3.556,2.395c2.786,1.927,5.67,3.971,8.572,6.075
		c0.606,0.439,0.899,1.011,1.158,1.516c0.094,0.184,0.204,0.4,0.352,0.647l1.357,2.266l-2.549,0.692l-4.606,1.251
		c-3.374,0.917-6.65,1.808-9.927,2.69c-1.523,0.41-3.048,0.813-4.573,1.215c-2.989,0.789-6.08,1.604-9.092,2.466
		c-0.904,0.258-1.725,0.384-2.512,0.384C233.434,284.175,232.032,283.694,230.772,282.747z M259.383,304.253
		c-1.263-0.931-2.525-1.862-3.778-2.805c-4.846-3.651-9.985-7.551-15.712-11.922c-0.519-0.396-0.773-0.884-0.997-1.314
		c-0.086-0.165-0.19-0.366-0.336-0.611l-1.189-1.996l2.15-0.879c0.331-0.135,0.645-0.278,0.95-0.416
		c0.728-0.329,1.481-0.67,2.325-0.878c5.899-1.46,11.904-2.897,17.712-4.286l1.46-0.349c0.467-0.112,0.933-0.234,1.4-0.356
		c1.383-0.362,2.814-0.736,4.324-0.879c0.653-0.062,1.252-0.092,1.833-0.092c3.47,0,6.194,1.113,8.572,3.502
		c4.22,4.24,8.761,8.341,13.152,12.307c1.591,1.436,3.181,2.873,4.762,4.319l0.175,0.161c0.51,0.469,1.087,1.001,1.499,1.135
		c2.813,0.916,3.782,3.14,4.72,5.29l0.178,0.408l0.937,2.133l-2.25,0.604l-5.263,1.41c-4.119,1.103-8.071,2.162-12.022,3.229
		c-0.958,0.259-1.913,0.529-2.868,0.8c-1.3,0.368-2.644,0.749-3.985,1.096c-0.986,0.255-1.939,0.385-2.83,0.385
		c-2.475,0-4.6-0.967-6.315-2.876 M341.379,296.338c-9.608,3.148-19.769,5.875-31.978,8.582l-1.021,0.227l-0.769-0.71
		c-0.917-0.846-1.781-1.66-2.615-2.445c-1.725-1.624-3.354-3.158-5.017-4.568c-2.316-1.963-4.733-3.908-7.07-5.788
		c-1.386-1.115-2.772-2.231-4.149-3.358c-2.735-2.24-5.181-4.284-7.475-6.25c-0.511-0.438-0.877-0.926-1.301-1.491
		c-0.197-0.262-0.422-0.563-0.701-0.91l-1.698-2.106l2.511-1.006c0.575-0.23,1.125-0.473,1.657-0.709
		c1.199-0.53,2.331-1.031,3.593-1.325c2.231-0.519,4.501-0.971,6.695-1.408c2.108-0.42,4.288-0.854,6.403-1.342
		c3.819-0.882,7.795-1.921,12.156-3.175c0.555-0.16,1.075-0.237,1.589-0.237c1.704,0,2.9,0.89,3.651,1.559
		c6.284,5.596,12.443,11.071,18.709,16.525c1.05,0.914,2.168,1.747,3.352,2.628c0.818,0.609,1.665,1.239,2.487,1.899
		c0.548,0.44,0.928,0.947,1.329,1.483c0.17,0.228,0.359,0.481,0.587,0.759l1.844,2.258L341.379,296.338z M382.616,285.448
		c-0.562,0.196-1.062,0.381-1.522,0.551c-0.948,0.351-1.768,0.654-2.651,0.878c-4.107,1.041-8.218,2.069-12.329,3.098
		c-4.446,1.112-8.892,2.225-13.334,3.353l-0.064,0.016c-0.604,0.154-1.229,0.312-1.948,0.312c-1,0-1.908-0.311-2.778-0.952
		c-2.42-1.783-4.924-3.554-7.345-5.268c-3.048-2.157-6.201-4.388-9.245-6.681c-2.909-2.191-5.749-4.572-8.495-6.874
		c-1.248-1.046-2.503-2.098-3.779-3.146l-1.403-1.152l1.011-1.508c1.413-2.106,3.338-2.631,4.743-3.014
		c0.227-0.062,0.45-0.122,0.667-0.19c6.41-2.002,13.975-4.338,21.488-6.489c2.456-0.703,5.218-1.251,8.693-1.724
		c0.165-0.023,0.337-0.034,0.511-0.034c1.437,0,2.845,0.76,3.684,1.471c3.608,3.059,6.467,5.611,8.999,8.029
		c3.875,3.702,7.745,7.525,11.489,11.222l2.912,2.875c0.399,0.393,0.694,0.812,1.035,1.298c0.167,0.237,0.361,0.514,0.606,0.842
		l1.632,2.187L382.616,285.448z M428.289,273.113l-2.159,0.584l-34.64,9.369l-0.986,0.267l-0.794-0.642
		c-1.289-1.043-2.549-2.042-3.783-3.02c-2.72-2.156-5.289-4.192-7.777-6.385c-1.407-1.24-2.913-2.457-4.371-3.634
		c-4.058-3.277-8.253-6.666-11.534-11.411l-1.12-1.62l1.603-1.145c2.34-1.671,4.906-2.392,7.387-3.09
		c0.435-0.122,0.869-0.244,1.3-0.371c4.844-1.428,9.78-2.82,14.554-4.167l1.199-0.338c0.608-0.172,1.215-0.346,1.823-0.521
		c2.375-0.683,4.831-1.389,7.323-1.903c0.281-0.058,0.58-0.087,0.888-0.087c1.268,0,2.735,0.51,3.737,1.298
		c9.301,7.325,18.401,14.646,25.289,20.205c0.74,0.597,1.307,1.287,1.964,2.085c0.313,0.38,0.659,0.802,1.073,1.27l2.133,2.414
		L428.289,273.113z M481.008,262.34c-8.024,2.106-16.149,3.58-24.007,5.007c-6.714,1.219-13.656,2.479-20.352,4.11l-1.011,0.246
		l-0.782-0.686l-3.38-2.972c-3.212-2.826-6.245-5.495-9.357-8.182c-0.599-0.518-1.349-0.962-2.142-1.432l-0.355-0.211
		c-4.582-2.739-8.513-6.278-12.673-10.026c-0.777-0.7-1.568-1.412-2.379-2.134l-2.727-2.427l3.513-0.992
		c0.99-0.28,1.901-0.55,2.762-0.805c1.824-0.541,3.399-1.008,5.052-1.371c1.947-0.428,3.925-0.804,5.838-1.169
		c2.525-0.481,5.137-0.978,7.65-1.59c5.279-1.284,10.673-1.937,15.889-2.569c1.284-0.155,2.568-0.311,3.851-0.475
		c0.333-0.043,0.666-0.064,0.988-0.064c2.353,0,4.055,1.148,5.275,2.148l0.562,0.461c3.292,2.7,6.696,5.492,10.163,8.031
		c3.572,2.616,7.281,5.192,10.867,7.682c1.654,1.148,3.308,2.297,4.956,3.454c0.823,0.578,2.067,1.451,3.003,2.997l1.386,2.29
		L481.008,262.34z"/>
	<path class="st0" d="M186.409,212.204c4.15-1.078,8.413-1.863,12.535-2.622c1.919-0.353,3.904-0.718,5.84-1.107
		c4.405-0.884,8.961-1.798,13.408-3.374c3.774-1.337,7.701-2.281,11.498-3.194c1.837-0.442,3.737-0.898,5.577-1.39
		c1.464-0.391,2.956-0.843,4.399-1.28c1.117-0.338,2.272-0.688,3.423-1.013c1.132-0.319,2.263-0.641,3.394-0.964
		c3.829-1.09,7.788-2.218,11.723-3.224c3.254-0.832,6.568-1.627,9.772-2.395c3.681-0.883,7.488-1.795,11.203-2.765
		c1.72-0.449,3.394-1.017,5.165-1.618c1.792-0.608,3.645-1.237,5.539-1.726c5.353-1.383,10.805-2.735,16.077-4.043
		c5.756-1.428,11.708-2.904,17.539-4.422c10.628-2.767,21.089-5.701,29.016-7.948c1.655-0.469,3.263-1.073,4.965-1.713
		c1.328-0.499,2.702-1.015,4.099-1.461c1.079-0.344,2.161-0.575,3.207-0.798c1.035-0.221,2.013-0.43,2.935-0.732
		c2.167-0.711,3.715-1.965,4.477-3.628c0.798-1.741,0.719-3.862-0.227-6.132c-1.424-3.417-2.934-7.062-4.369-10.746
		c-0.547-1.405-1.041-2.837-1.518-4.222c-0.359-1.042-0.731-2.12-1.117-3.16c-0.502-1.351-1.043-2.726-1.566-4.055
		c-0.964-2.449-1.961-4.981-2.787-7.555c-2.177-6.784-4.325-13.697-6.402-20.383c-1.319-4.246-2.638-8.492-3.973-12.734
		c-0.218-0.694-0.513-1.391-0.826-2.13c-0.372-0.878-0.756-1.786-1.042-2.768c-0.775-2.653-1.526-5.355-2.253-7.968
		c-1.073-3.856-2.182-7.844-3.378-11.718c-1.831-5.932-3.826-11.934-5.755-17.738c-0.625-1.879-1.249-3.758-1.87-5.638l-0.422-1.28
		c-1.465-4.444-2.981-9.038-4.565-13.513c-0.442-1.248-0.572-1.248-1.054-1.248c-0.326,0-0.769,0.048-1.354,0.148
		c-0.161,0.027-0.333,0.062-0.508,0.098c-0.568,0.115-1.212,0.245-1.868,0.245c-0.742,0-1.386-0.174-1.914-0.517
		c-1.358-0.882-2.809-1.293-4.564-1.293c-1.744,0-3.558,0.397-5.478,0.817l-0.391,0.085c-5.355,1.166-11.424,2.487-17.329,4.006
		c-3.64,0.936-7.331,1.963-10.901,2.957c-3.972,1.106-8.08,2.249-12.157,3.278c-8.012,2.022-16.181,3.958-24.081,5.83
		c-2.38,0.564-4.761,1.128-7.141,1.695c-5.404,1.288-10.811,2.563-16.218,3.838c-4.153,0.979-8.305,1.958-12.456,2.943
		c-3.146,0.747-6.343,1.529-9.434,2.286l-1.775,0.434l-0.689,0.169c-2.731,0.668-5.554,1.358-8.321,2.061
		c-1.632,0.414-3.261,0.84-4.89,1.266c-1.605,0.419-3.209,0.839-4.817,1.248l-1.723,0.44c-2.398,0.615-4.877,1.25-7.352,1.79
		c-1.464,0.319-2.944,0.574-4.375,0.821c-1.212,0.209-2.466,0.425-3.673,0.675c-1.639,0.339-3.31,0.749-4.926,1.146
		c-0.727,0.178-1.454,0.357-2.182,0.53c-1.618,0.385-3.255,0.667-4.838,0.939c-3.153,0.542-6.131,1.054-8.903,2.317
		c-1.315,0.599-2.675,0.901-3.989,1.192l-0.634,0.142c-1.642,0.375-3.288,0.73-4.935,1.085c-2.559,0.551-5.205,1.121-7.771,1.76
		c-1.833,0.456-3.7,0.99-5.505,1.506c-2.925,0.836-5.95,1.701-9.02,2.297c-0.332,0.065-0.664,0.126-0.995,0.186
		c-1.798,0.331-3.401,0.625-4.907,1.444c2.656,2.34,3.241,5.431,3.759,8.165l0.031,0.166c0.402,2.123,0.8,4.247,1.197,6.371
		c1.294,6.914,2.632,14.064,4.128,21.044c0.822,3.832,1.825,7.714,2.795,11.467c0.771,2.984,1.569,6.07,2.277,9.135
		c1.073,4.646,2.098,9.378,3.088,13.954c0.875,4.041,1.779,8.219,2.712,12.313c0.339,1.489,0.776,2.945,1.239,4.487
		c0.509,1.698,1.036,3.453,1.419,5.252c1.904,8.956,3.482,16.874,4.825,24.208c0.559,3.05,1.348,6.142,2.112,9.133
		c1.434,5.616,2.916,11.422,3.06,17.516c0.027,1.156,0.366,1.826,2.015,1.826c0.129,0,0.262-0.005,0.398-0.014
		c0.556-0.039,1.179-0.201,1.838-0.372c0.383-0.099,0.765-0.198,1.149-0.281c0.172-0.037,0.386-0.102,0.613-0.172
		c0.546-0.167,1.225-0.375,1.965-0.375c0.249,0,0.494,0.024,0.727,0.07c1.001,0.199,2.002,0.296,3.06,0.296
		c3.506,0,6.868-1.076,10.429-2.216c1.482-0.474,3.014-0.965,4.558-1.371c3.261-0.858,6.554-1.929,9.739-2.966
		C179.513,214.222,182.947,213.104,186.409,212.204z M161.309,216.135c-2.736,0.903-5.472,1.806-8.213,2.692
		c-1.302,0.421-2.135,0.592-2.875,0.592c-2.881,0-3.665-2.565-4.184-4.262c-1.023-3.344-2.064-6.682-3.106-10.02
		c-0.874-2.801-1.748-5.603-2.611-8.407c-0.203-0.661-0.288-1.308-0.363-1.88c-0.026-0.197-0.051-0.394-0.083-0.589
		c-0.227-1.425-0.406-2.861-0.579-4.249c-0.451-3.622-0.878-7.043-2.105-10.38c-0.893-2.43-1.226-4.983-1.548-7.452
		c-0.206-1.577-0.4-3.067-0.729-4.513c-0.681-2.994-1.474-6.031-2.242-8.968c-0.718-2.746-1.46-5.586-2.115-8.41
		c-1.002-4.315-1.961-8.708-2.889-12.958c-0.848-3.885-1.725-7.901-2.63-11.836c-0.227-0.987-0.58-1.974-0.954-3.02
		c-0.43-1.204-0.876-2.449-1.153-3.779c-0.507-2.432-0.926-4.904-1.331-7.295c-0.371-2.186-0.754-4.446-1.199-6.639
		c-0.418-2.061-0.927-4.16-1.42-6.189c-0.516-2.129-1.05-4.331-1.492-6.533c-0.373-1.86-0.575-3.738-0.77-5.555
		c-0.097-0.901-0.193-1.802-0.311-2.699c-0.182-1.388,0.022-3.858,3.434-4.808c2.913-0.811,5.87-1.678,8.729-2.516
		c1.718-0.504,3.436-1.007,5.156-1.503c2.652-0.764,5.359-1.384,7.977-1.983c4.018-0.92,8.173-1.871,12.069-3.344
		c2.224-0.841,4.564-1.115,6.827-1.381c1.311-0.154,2.549-0.299,3.747-0.546l0.792-0.163c7.527-1.551,15.31-3.155,22.897-4.955
		c4.01-0.951,8.074-2.038,12.004-3.088c3.386-0.905,6.887-1.841,10.359-2.692c8.961-2.197,17.827-4.228,26.878-6.288
		c6.216-1.415,12.448-2.731,18.255-3.943l1.391-0.29c7.091-1.475,14.424-3,21.348-5.538c3.904-1.431,7.976-2.441,11.914-3.418
		c2.142-0.531,4.357-1.081,6.495-1.687c1.375-0.39,2.716-0.858,4.136-1.353c1.774-0.619,3.609-1.259,5.502-1.728
		c3.268-0.808,6.608-1.44,9.839-2.05c1.137-0.215,2.273-0.43,3.408-0.652c0.331-0.065,0.658-0.098,0.971-0.098
		c1.75,0,3.176,1.021,3.914,2.803c0.147,0.354,0.341,0.725,0.546,1.118c0.319,0.612,0.682,1.305,0.931,2.078
		c1.151,3.564,2.281,7.135,3.411,10.706c1.287,4.066,2.617,8.271,3.957,12.393c3.093,9.517,6.269,19.186,9.339,28.536
		c1.297,3.95,2.594,7.9,3.89,11.851c0.22,0.671,0.443,1.341,0.667,2.011c0.478,1.434,0.973,2.917,1.428,4.398
		c0.825,2.683,1.632,5.373,2.44,8.062c1.634,5.442,3.324,11.069,5.134,16.541c1.034,3.128,2.282,6.275,3.488,9.318
		c0.863,2.176,1.755,4.427,2.573,6.676c0.919,2.527,1.726,5.113,2.507,7.614c0.349,1.119,0.698,2.237,1.057,3.35l0.552,1.713
		l-1.645,0.729c-12.286,5.447-24.625,8.906-36.211,11.982c-5.177,1.375-10.356,2.747-15.534,4.119
		c-8.293,2.198-16.586,4.395-24.877,6.603c-5.933,1.58-11.863,3.167-17.794,4.754c-8.705,2.329-17.706,4.738-26.566,7.083
		c-7.604,2.012-15.481,4-22.431,5.753c-7.41,1.87-14.95,3.741-22.241,5.55l-3.49,0.866c-1.849,0.459-3.729,0.898-5.547,1.322
		c-3.765,0.879-7.659,1.788-11.389,2.905C172.841,212.328,166.978,214.263,161.309,216.135z"/>
	<path class="st0" d="M212.344,176.163c1.927,0.342,3.923,0.397,6.035,0.455c0.983,0.027,2,0.055,3.01,0.115
		c0.896,0.053,1.815,0.08,2.731,0.08c5.271,0,10.923-0.872,17.281-2.664c7.659-2.16,14.547-6.547,21.514-11.234
		c0.663-0.446,1.465-1.177,1.522-2.123c0.051-0.85-0.496-1.816-1.54-2.718c-0.333-0.288-0.669-0.573-1.005-0.859
		c-1.097-0.933-2.232-1.899-3.294-2.96c-5.762-5.76-11.599-11.635-17.244-17.316l-5.918-5.955c-0.044-0.044-0.09-0.086-0.135-0.129
		c-0.149-0.139-0.335-0.312-0.521-0.539c-1.143-1.39-1.54-2.736-1.179-3.999c0.239-0.835,0.928-1.968,2.855-2.619
		c2.574-0.87,5.58-1.829,8.682-2.196c2.958-0.35,5.952-0.449,8.848-0.545c1.201-0.04,2.402-0.08,3.601-0.137
		c1.342-0.064,2.136-0.697,2.656-2.115c0.393-1.073-0.113-2.446-1.26-3.415l-0.353-0.296c-0.898-0.749-1.915-1.598-2.647-2.73
		c-1.72-2.661-3.407-5.501-5.014-8.438c-0.968-1.769-1.896-3.583-2.793-5.338c-1.435-2.805-2.919-5.706-4.561-8.405
		c-4.766-7.83-8.813-15.27-12.372-22.745l-0.262-0.554c-0.531-1.128-1.033-2.194-1.671-3.093c-0.475-0.669-0.896-0.967-1.071-1.032
		c-1.653,1.062-3.121,2.579-4.596,4.187c-0.012,0.17,0.01,0.419,0.053,0.531c1.076,2.632,2.054,4.689,3.077,6.473
		c1.934,3.372,3.937,6.786,5.874,10.087c2.64,4.499,5.369,9.152,7.974,13.783c1.85,3.29,3.526,6.648,5.299,10.203
		c0.818,1.64,1.657,3.322,2.543,5.056l1.203,2.354l-2.592,0.518c-0.739,0.148-1.412,0.249-2.006,0.339
		c-1.024,0.154-1.832,0.276-2.438,0.546c-4.408,1.965-9.033,2.717-13.506,3.444c-1.193,0.194-2.427,0.394-3.625,0.614
		c-1.725,0.316-2.849,1.508-3.758,3.987c-0.267,0.729-0.391,1.571,1.256,3.122c7.367,6.94,15.076,14.368,22.911,22.076
		c2.14,2.105,4.097,4.273,6.169,6.568c0.923,1.023,1.855,2.055,2.81,3.088l1.486,1.607l-1.735,1.335
		c-0.325,0.25-0.607,0.494-0.88,0.731c-0.634,0.548-1.233,1.066-2.057,1.385c-1.025,0.397-2.078,0.84-3.095,1.268
		c-2.906,1.224-5.911,2.489-9.102,3.064c-6.427,1.16-12.951,1.534-18.485,1.747c-0.719,0.028-1.37,0.041-1.989,0.041
		c-3.861,0-8.813-0.458-12.872-4.03c-3.303-2.907-7.414-6.526-7.906-12.588c-0.058-0.716-1.946-2.273-2.839-2.353
		c-1.366,0.232-2.28,0.659-2.715,1.271c-0.446,0.626-0.548,1.661-0.303,3.077c0.077,0.446,0.114,0.867,0.15,1.274
		c0.046,0.522,0.089,1.016,0.21,1.363c0.206,0.591,0.396,1.198,0.586,1.807c0.534,1.71,1.038,3.324,1.904,4.523
		C199.623,171.223,205.375,174.926,212.344,176.163z"/>
	<path class="st0" d="M171.297,96.78c-0.296,0-0.408,0.065-0.419,0.073c-1.987,1.255-3.044,2.684-3.326,4.496
		c-0.141,0.906-0.091,1.581,0.138,1.85c0.109,0.128,0.591,0.534,2.343,0.582c0.251-0.057,0.529-0.116,0.828-0.178
		c0.922-0.193,2.07-0.433,3.08-0.824c0.731-0.283,1.083-0.923,1.228-1.28c0.299-0.737,0.286-1.597-0.036-2.302
		C174.585,98,172.649,96.78,171.297,96.78z"/>
	<path class="st0" d="M277.1,76.869c0.442,0.164,0.896,0.332,1.344,0.527c0.121-0.003,0.27-0.006,0.456-0.008
		c0.153-0.033,0.327-0.067,0.516-0.104c0.687-0.134,1.628-0.317,2.375-0.673c0.495-0.236,1.053-0.8,1.245-1.257
		c0.411-0.98-0.371-2.915-2.19-4.235c-0.563-0.408-0.991-0.607-1.308-0.607c-0.426,0-1.078,0.355-1.939,1.054
		c-0.515,0.419-1.008,0.942-1.425,1.513c-0.529,0.724-1.631,2.231-1.316,2.656C275.167,76.152,276.239,76.549,277.1,76.869z"/>
</g>
</svg>
