<?xml version="1.0" encoding="utf-8"?>
<!-- Generator: Adobe Illustrator 19.0.0, SVG Export Plug-In . SVG Version: 6.00 Build 0)  -->
<svg version="1.1" id="Layer_1" xmlns="http://www.w3.org/2000/svg" xmlns:xlink="http://www.w3.org/1999/xlink" x="0px" y="0px"
	 viewBox="523 297.697 2066.529 513.683" style="enable-background:new 523 297.697 2066.529 513.683;" xml:space="preserve">
<style type="text/css">
	.st0{fill:none;stroke:#000000;stroke-width:22.9717;stroke-linecap:round;stroke-miterlimit:10;}
</style>
<path d="M1693.343,603.776c-3.198,7.477-11.158,9.961-18.234,13.466c-3.854,1.909-7.75,1.484-10.83-2.173
	c-6.2-7.359-12.492-14.64-18.725-21.972c-3.852-4.532-7.474-9.277-11.551-13.594c-3.561-3.77-7.882-3.042-11.889-0.573
	c-14.684,9.048-29.424,18.017-43.846,27.469c-2.331,1.528-3.624,5.212-4.547,8.166c-1.071,3.431-0.797,7.276-1.823,10.728
	c-3.028,10.18-11.173,16.027-21.581,15.951c-8.208-0.06-12.055-4.383-10.354-12.625c2.543-12.313,5.506-24.543,8.489-36.76
	c3.781-15.481,7.997-30.858,11.59-46.381c3.595-15.533,6.393-31.253,10.068-46.766c1.591-6.714,3.647-13.596,6.988-19.563
	c8.274-14.777,21.281-17.883,32.943-1.566c11.335,15.86,20.723,33.113,30.953,49.762c0.522,0.849,0.891,1.79,1.377,2.663
	c4.956,8.893,6.784,9.999,16.784,7.812c5.882-1.286,10.427-0.65,14.065,5.721c-3.471,4.995-7.014,10.094-10.818,15.568
	c6.453,13.223,17.82,22.752,28.342,33.181c-1.549-5.535-1.288-11.443-6.08-15.854c-3.263-3.004-5.425-7.653-2.729-11.717
	c4.77-7.193,3.149-14.688,2.439-22.186c-0.89-9.394-2.156-18.753-3.293-28.123c-0.118-0.971-0.459-1.915-0.85-3.49
	c-1.63-0.45-3.453-1.123-5.336-1.445c-8.264-1.414-10.504-5.495-6.561-13.149c4.488-8.71,11.056-15.781,18.807-21.729
	c11.042-8.473,23.654-13.461,37.299-15.37c11.171-1.563,22.476-2.669,33.739-2.84c5.05-0.076,10.994,1.429,15.047,4.309
	c10.14,7.204,12.969,13.034,9.755,24.758c-3.601,13.133-8.805,25.685-19.609,34.982c-1.361,1.171-1.989,3.195-3.422,5.607
	c14.194,1.637,28.06-3.538,41.506,5.292c0.668-5.02,1.06-8.192,1.516-11.354c2.39-16.597,8.539-31.273,21.328-42.737
	c10.522-9.432,17.162-10.113,29.406-2.522c0.829,0.514,1.794,0.809,3.529,1.573c1.992-1.603,4.39-3.273,6.481-5.265
	c5.044-4.807,7.046-5.242,12.974-1.729c10.768,6.382,17.089,16.444,21.916,27.523c3.831,8.794,3.686,17.888,2.327,27.396
	c-2.16,15.107-6.516,29.53-15.83,41.317c-12.794,16.19-28.74,28.83-50.79,29.2c-10.087,0.169-19.998-1.978-26.302-11.457
	c-0.538-0.809-1.34-1.452-2.071-2.116c-0.214-0.194-0.604-0.194-1.633-0.489c-1.23,1.434-2.741,3.046-4.086,4.786
	c-9.382,12.137-19.625,23.254-33.266,30.892c-12.729,7.127-26.298,6.434-39.809,4.448c-3.233-0.475-6.88-4.312-8.584-7.53
	c-2.417-4.563-5.087-5.845-10.142-5.823C1703.847,607.469,1699.261,605.318,1693.343,603.776L1693.343,603.776z M1855.837,489.131
	c-2.734,1.591-4.791,2.649-6.702,3.925c-6.148,4.107-12.41,8.821-14.081,16.11c-3.504,15.278-5.093,30.889-0.891,46.372
	c2.732,10.067,9.526,12.288,18.127,6.019c11.663-8.501,17.588-20.621,19.898-34.459
	C1874.815,511.36,1867.08,499.715,1855.837,489.131L1855.837,489.131z M1727.478,588.873c4.758,0.834,9.303,0.668,12.879,2.448
	c8.537,4.25,15.991,2.359,23.339-2.345c8.118-5.197,12.936-13.288,17.462-21.333c3.719-6.613-1.681-15.59-9.381-15.593
	c-16.548-0.006-32.133,3.761-45.989,13.458c-3.973,2.78-4.924,5.96-3.341,10.218C1724.159,580.334,1725.957,584.91,1727.478,588.873
	L1727.478,588.873z M1718.1,537.31c5.875-5.375,11.197-10.239,16.514-15.107c8.4-7.692,14.955-16.758,20.015-26.931
	c2.93-5.89,0.839-11.409-5.303-11.961c-13.351-1.2-26.579-0.196-38.977,5.555c-2.484,1.152-4.523,3.264-7.586,5.541
	c8.964,5.09,10.551,12.673,10.752,20.983C1713.689,522.584,1714.241,529.753,1718.1,537.31L1718.1,537.31z M1597.468,523.27
	c-5.406,14.527-8.711,28.996-11.708,44.938c11.43-4.918,21.234-9.137,32.011-13.774
	C1610.945,543.242,1605.181,532.875,1597.468,523.27z M577.761,411.766c0.158,3.105,0.215,6.219,0.491,9.313
	c1.829,20.545,3.752,41.081,5.52,61.63c0.312,3.622,0.555,7.396-0.131,10.912c-0.536,2.746-1.935,6.567-4.041,7.531
	c-6.526,2.989-13.433,5.635-20.463,6.875c-5.161,0.91-7.524-2.497-7.458-8.134c0.093-7.947,0.511-15.895,0.406-23.838
	c-0.039-2.918-1.284-5.802-1.779-8.735c-1.221-7.237-2.837-14.201-2.072-21.917c0.791-7.976-1.406-16.305-2.694-24.416
	c-2.007-12.636-3.842-25.337-6.752-37.776c-1.621-6.928-5.268-13.381-8.483-21.222c3.043-4.139,3.977-9.459-2.713-13.834
	c-0.691-0.452-1.08-1.676-1.227-2.602c-1.192-7.518-2.589-15.022-3.335-22.588c-0.691-7.013,10.574-23.407,17.326-25.033
	c2.611-0.629,6.007,0.077,8.521,1.276c17.384,8.291,34.648,16.836,51.915,25.37c24.131,11.927,48.13,24.125,72.386,35.792
	c12.268,5.901,24.921,11.016,37.503,16.238c6.418,2.664,12.849,5.406,20.188,2.175c1.944-0.856,5.419-0.042,7.372,1.247
	c7.423,4.896,15.521,9.361,21.474,15.75c7.714,8.278,5.597,18.075-3.013,22.568c-12.143,6.336-23.018,3.493-34.246-1.473
	c-5.672-2.509-11.491-4.691-17.115-7.298c-3.854-1.786-7.37-4.312-11.24-6.054c-14.715-6.624-29.279-13.679-44.344-19.402
	c-15.83-6.014-30.667-14.282-44.99-22.663c-11.926-6.978-25.21-10.144-36.774-17.276c-0.744-0.459-1.892-0.264-3.713-0.472
	c-0.419,2.184-1.548,4.443-1.098,6.325c2.346,9.812,3.689,19.957,8.391,31.363c3.771-3.791,6.088-6.361,8.654-8.652
	c6-5.358,13.606-5.216,17.451,0.205c0.568,0.801,1.253,1.664,1.421,2.582c3.089,16.932,14.62,28.504,25.546,40.481
	c22.227,24.364,47.058,45.979,72.018,67.389c16.907,14.502,35.487,26.736,55.033,37.632c20.597,11.481,40.576,24.082,60.697,36.401
	c10.186,6.236,20.204,12.766,30.052,19.522c2.907,1.995,5.932,4.845,7.146,7.984c1.147,2.965,1.227,7.598-0.37,10.158
	c-7.76,12.442-25.573,14.268-36.642,4.508c-9.611-8.474-20.074-15.479-31.503-21.627c-9.912-5.333-19.735-11.17-29.443-17.038
	c-10.442-6.311-20.768-12.854-30.794-19.8c-13.336-9.239-26.534-18.707-39.418-28.563c-11.001-8.416-21.679-17.288-32.114-26.401
	c-6.956-6.074-13.298-12.861-19.802-19.44c-12.767-12.914-25.671-25.705-38.062-38.973c-4.446-4.761-7.576-10.75-11.307-16.178
	C579.345,411.647,578.553,411.706,577.761,411.766z M1000.973,599.997c3.647-7.544,7.188-13.419,9.397-19.758
	c3.924-11.26,6.638-22.944,10.627-34.178c2.932-8.256,4.28-17.13,11.505-23.768c13.22-12.144,23.974-4.489,27.124,7.275
	c4.809,17.96,10.685,35.635,15.434,53.608c4.828,18.272,8.603,36.821,13.348,55.117c1.553,5.986,3.952,12.039,7.275,17.22
	c7.773,12.118,5.693,21.39-7.967,25.555c-11.955,3.646-16.393,2.415-21.402-8.909c-5.686-12.853-8.427-26.408-12.562-39.628
	c-3.159-10.1-7.002-19.92-8.419-30.533c-0.499-3.74-1.832-7.931-7.478-9.203c-1.353,2.777-2.939,5.578-4.117,8.541
	c-2.814,7.08-5.135,14.369-8.198,21.334c-6.031,13.713-17.241,19.309-32.276,17.044c-9.574-1.442-16.872-4.95-19.411-15.448
	c-0.947-3.916-3.907-7.344-7.114-13.075c-1.571,4.911-2.736,7.514-3.223,10.238c-3.976,22.21-7.888,44.432-11.685,66.673
	c-1.826,10.696-15.856,19.601-25.76,16.135c-3.382-1.184-6.925-6.868-6.319-11.319c1.108-8.144,2.653-16.229,4.08-24.327
	c1.952-11.08,2.489-22.707,6.396-33.055c3.4-9.006,2.131-18.563,6.747-27.564c4.529-8.832,4.61-19.896,6.98-29.901
	c1.827-7.709,3.705-15.468,6.435-22.883c2.439-6.627,6.867-11.993,13.357-15.57c9.254-5.1,17.203-2.607,20.208,7.438
	c2.258,7.547,2.946,15.562,5.165,23.125C991.926,579.741,992.321,590.388,1000.973,599.997L1000.973,599.997z M1246.36,585.934
	c14.762,5.126,27.4,9.897,40.279,13.895c17.866,5.545,34.904,12.946,51.546,21.38c8.263,4.188,9.57,10.953,3.458,18.327
	c-9.41,11.351-14.063,11.779-27.381,5.908c-15.756-6.946-31.981-12.85-48.11-18.919c-8.32-3.131-16.875-5.639-25.77-8.576
	c-3.057,8.245-0.326,15.331,0.065,22.373c0.201,3.608,1.613,7.146,1.84,10.757c0.671,10.674-9.177,20.584-19.95,20.339
	c-4.798-0.109-8.42-1.787-9.343-7.098c-1.307-7.525-3.19-14.987-3.941-22.564c-1.34-13.533-1.714-27.162-3.071-40.693
	c-1.057-10.541-3.169-20.972-4.467-31.494c-0.687-5.568-0.595-11.23-0.926-16.845c-0.781-13.236,5.557-21.272,17.216-27.276
	c9.34-4.81,17.309-12.239,26.061-18.254c3.255-2.237,6.821-4.346,10.558-5.5c16.187-4.997,32.494-9.603,48.746-14.385
	c5.453-1.605,10.44-0.657,15.323,2.134c6.979,3.988,8.859,8.795,7.2,16.47c-2.326,10.756-9.586,18.346-17.001,25.193
	c-12.137,11.207-25.44,21.148-38.216,31.665c-5.647,4.649-11.329,9.267-16.749,14.17
	C1251.363,579.075,1249.619,581.896,1246.36,585.934L1246.36,585.934z M1290.394,517.585c-21.381-5.345-55.719,22.407-55.428,44.924
	c16.656-12.521,32.647-24.397,48.43-36.543C1286.065,523.911,1287.844,520.7,1290.394,517.585L1290.394,517.585z M2373.113,488.072
	c-1.968,3.995-4.408,7.318-5.264,11.009c-2.058,8.868-7.442,15.976-13.359,21.876c-8.276,8.252-18.635,13.341-31.331,12.352
	c-11.582-0.903-18.667-7.523-24.652-16.37c-2.356-3.483-4.939-6.814-8.224-11.318c-1.39,3.081-2.538,4.637-2.785,6.326
	c-2.988,20.389-5.961,40.782-8.645,61.213c-0.629,4.785-2.432,8.565-6.875,10.065c-4.622,1.56-9.572,2.899-14.395,2.954
	c-10.158,0.117-11.697-2.508-9.844-12.706c2.843-15.648,5.18-31.387,8.068-47.026c2.406-13.029,5.36-25.956,7.946-38.953
	c1.357-6.819,3.068-13.656,3.478-20.552c0.428-7.201,4.222-12.444,8.481-17.282c6.668-7.574,15.701-9.256,22.274,0.914
	c2.306,3.567,3.437,7.876,5.274,11.767c4.962,10.504,9.748,21.107,15.186,31.362c1.796,3.388,5.11,6.16,8.197,8.629
	c4.306,3.443,8.328,2.844,10.75-2.096c5.254-10.716,10.256-21.591,14.643-32.685c3.281-8.298,4.758-17.334,8.292-25.498
	c3.288-7.594,8.118-14.606,17.426-16.225c7.141-1.242,10.042-0.188,12.634,6.412c4.001,10.189,7.332,20.643,10.877,31.009
	c2.798,8.181,5.769,16.318,8.168,24.618c4.794,16.577,9.208,33.264,13.862,49.883c1.972,7.04,4,14.071,6.283,21.014
	c2.39,7.267,1.936,8.814-4.842,12.745c-16.047,9.306-16.407,9.104-26.259-6.432c-2.244-3.538-2.618-6.771-2.948-10.884
	c-0.738-9.178-1.958-18.865-5.702-27.109c-4.342-9.561-6.951-19.332-8.991-29.389
	C2379.979,493.47,2378.699,490.093,2373.113,488.072L2373.113,488.072z"/>
<path d="M1373.231,554.78c8.865-1.876,18.215-3.824,27.547-5.855c1.944-0.423,3.803-1.222,5.731-1.733
	c6.49-1.718,10.409-0.603,12.132,3.383c2.226,5.149,0.411,11.599-4.936,14.447c-7.575,4.035-15.527,7.359-23.276,11.074
	c-3.292,1.579-6.401,3.552-9.731,5.036c-5.017,2.235-6.594,5.474-5.475,11.107c2.601,13.088,6.803,15.76,18.342,9.006
	c10.863-6.357,21.559-13.182,29.843-23.095c2.945-3.524,6.416-6.85,10.251-9.331c5.377-3.478,10.826-0.378,11,6.113
	c0.086,3.221-0.365,6.926-1.928,9.627c-3.645,6.293-7.391,12.806-12.39,17.98c-11.335,11.732-23.902,22.44-38.474,29.738
	c-9.487,4.751-20.748,5.322-31.068,1.508c-9.815-3.628-14.174-12.546-17.48-21.826c-0.66-1.854-0.63-3.942-1.106-5.876
	c-0.929-3.777-2.442-6.072-7.262-6.551c-8.312-0.826-11.55-7.266-6.087-13.169c9.704-10.487,7.983-22.524,7.407-34.705
	c-0.045-0.947-0.582-1.87-1.029-3.223c-3.018-0.731-6.309-1.151-9.299-2.332c-6.46-2.552-7.805-6.226-4.807-12.528
	c6.041-12.699,15.862-20.979,29.314-25.157c8.559-2.658,17.03-5.614,25.476-8.616c19.395-6.896,38.693-14.068,58.16-20.754
	c5.28-1.814,10.987-2.528,16.563-3.244c1.558-0.2,4.266,1,4.808,2.262c0.756,1.757,0.813,4.941-0.307,6.177
	c-4.085,4.507-7.808,8.913-14.176,11.561c-21.692,9.019-42.901,19.224-64.109,29.364c-7.893,3.774-8.691,6.084-7.603,14.184
	c0.574,4.276,1.405,8.52,2.203,12.762C1371.576,552.702,1372.163,553.202,1373.231,554.78L1373.231,554.78z M2565.3,428.24
	c-1.688,10.863-8.741,15.033-15.936,18.032c-6.658,2.776-14.05,3.836-21.161,5.467c-15.83,3.631-31.752,6.886-47.509,10.807
	c-9.269,2.306-9.792,3.537-9.591,13.365c0.107,5.259,0.508,10.512,0.834,16.911c21.412-4.63,41.847-9.049,62.235-13.458
	c2.454,11.064,0.741,14.501-6.868,19.26c-11.459,7.166-23.346,13.244-36.086,17.86c-4.48,1.624-8.237,5.243-13.622,8.812
	c3.14,3.341,5.037,6.604,7.868,8.118c6.347,3.394,13.491,3.626,20.363,1.883c6.407-1.625,12.571-4.197,18.868-6.274
	c7.937-2.62,15.33-6.02,21.739-11.684c4.666-4.123,9.845-8.168,16.847-6.454c6.286,10.39,6.602,10.686-0.924,18.727
	c-4.689,5.011-10.118,9.573-15.895,13.277c-16.973,10.884-35.326,18.106-55.645,20.242c-18.58,1.953-35.562-7.87-41.204-25.698
	c-2.985-9.433-4.904-19.266-6.553-29.045c-2.249-13.332-1.214-27.219-6.859-39.977c2.669-5.566,4.33-11.999,8.217-16.518
	c8.009-9.311,19.484-13.12,31.203-15.429c13.657-2.69,27.376-5.232,41.178-6.968c13.498-1.698,27.127-2.42,40.717-3.268
	C2559.886,426.082,2562.347,427.434,2565.3,428.24L2565.3,428.24z M1996.06,523.568c-3.169,3.344-4.474,4.338-5.285,5.64
	c-4.912,7.878-9.768,15.792-14.533,23.76c-5.511,9.216-14.411,13.717-24.169,15.975c-15.007,3.473-25.501-2.562-30.014-17.435
	c-2.276-7.502-2.757-15.628-3.42-23.525c-1.361-16.192-2.024-32.446-3.512-48.624c-0.877-9.536,4.353-20.029,12.945-23.773
	c7.785-3.393,16.675,0.729,18.974,9.218c0.845,3.121,1.231,6.781,0.459,9.852c-3.089,12.284-1.474,24.458-0.01,36.674
	c0.672,5.61,1.297,11.235,2.282,16.794c0.545,3.074,1.791,6.024,3.103,10.263c10.278-9.815,15.974-20.503,20.844-31.806
	c6.413-14.886,8.224-30.713,9.729-46.58c0.562-5.925,2.783-10.718,6.524-15.251c4.157-5.036,8.993-6.512,15.06-4.578
	c5.032,1.604,9.667,7.929,9.554,13.934c-0.452,23.897,5.242,46.418,14.953,68.045c1.339,2.982,3.366,5.669,5.181,8.423
	c3.311,5.024,7.656,6.698,13.734,5.139c6.286-1.612,10.37,1.929,9.65,8.194c-0.32,2.791-1.677,5.792-3.416,8.037
	c-9.017,11.64-26.043,12.796-37.024,2.648C2008.75,546.348,1998.794,538.887,1996.06,523.568L1996.06,523.568z M1144.645,539.629
	c1.381-1.165,2.884-2.453,4.409-3.715c8.979-7.428,19.255-6.684,27.235,1.857c7.014,7.506,11.676,16.119,12.722,26.457
	c2.237,22.094-1.522,43.012-12.375,62.523c-7.342,13.198-17.642,23.411-31.867,28.611c-14.427,5.274-29.033,5.611-41.025-5.755
	c-4.588-4.348-8.801-10.387-10.368-16.391c-5.147-19.72-4.654-39.708,3.948-58.433c5.687-12.379,13.979-23.359,25.448-31.366
	C1127.733,539.955,1137.969,538.272,1144.645,539.629L1144.645,539.629z M1120.169,601.321c1.08,6.524,2.206,13.041,3.224,19.574
	c0.732,4.696,3.848,6.648,8.109,7.51c10.296,2.083,22.151-7.102,23.26-18.107c0.194-1.926-0.458-4.193,0.341-5.762
	c6.53-12.825,3.804-25.803,0.635-38.649c-2.269-9.2-14.005-12.566-19.917-4.682C1126.769,573.278,1119.808,585.597,1120.169,601.321
	L1120.169,601.321z"/>
<path d="M2080.233,468.906c-1.983-0.425-3.084-1.046-3.874-0.772c-12.086,4.202-25.252,4.58-36.678,11.639
	c-3.801,2.348-10.343,1.188-15.391,0.285c-3.842-0.687-5.714-8.052-3.143-13.167c3.59-7.144,8.183-13.933,16.119-16.933
	c5.562-2.104,11.365-3.837,17.213-4.873c31.079-5.506,62.18-10.903,93.332-15.975c10.132-1.65,20.429-2.412,30.684-3.082
	c2.076-0.135,5.659,1.589,6.1,3.148c0.524,1.854-1.114,4.894-2.691,6.619c-1.959,2.143-4.645,3.826-7.312,5.082
	c-14.087,6.632-28.509,12.404-43.7,16.055c-4.189,1.007-8.523,1.649-12.519,3.172c-6.62,2.523-7.782,4.707-6.292,11.471
	c4.782,21.717,9.66,43.414,14.704,65.072c1.271,5.454,2.249,10.566-3.093,14.384c-6.212,4.439-12.275,9.657-20.813,6.383
	c-1.465-0.562-3.316-1.578-3.847-2.858c-2.276-5.487-4.822-11.01-5.995-16.779c-3.237-15.917-5.796-31.972-8.702-47.957
	C2083.044,482.726,2081.565,475.668,2080.233,468.906L2080.233,468.906z"/>
<path class="st0" d="M932.663,750.88c64.137-9.827,128.275-19.653,192.412-29.48c116.677-17.876,233.431-35.763,351.339-48.732
	c127.526-14.026,256.114-22.268,384.601-30.501c28.697-1.839,57.395-3.678,86.092-5.517c11.423-0.732,22.847-1.464,34.275-2.151
	c141.32-8.49,283.436-10.029,425.043-4.602c56.739,2.174,114.578,5.393,169.603-4.858"/>
</svg>
