<?xml version="1.0" standalone="no"?>
<!DOCTYPE svg PUBLIC "-//W3C//DTD SVG 20010904//EN"
 "http://www.w3.org/TR/2001/REC-SVG-20010904/DTD/svg10.dtd">
<svg version="1.0" xmlns="http://www.w3.org/2000/svg"
 width="1024.000000pt" height="1024.000000pt" viewBox="0 0 1024.000000 1024.000000"
 preserveAspectRatio="xMidYMid meet">
<metadata>
Created by potrace 1.11, written by Peter Selinger 2001-2013
</metadata>
<g transform="translate(0.000000,1024.000000) scale(0.100000,-0.100000)"
fill="#000000" stroke="none">
<path d="M6230 9929 c-158 -38 -224 -63 -310 -118 -109 -69 -226 -128 -269
-134 -45 -7 -94 13 -221 94 -159 100 -232 133 -345 154 -36 6 -312 7 -375 1
-25 -3 -99 -7 -164 -11 -140 -7 -186 -15 -286 -49 -41 -13 -109 -27 -150 -31
-107 -9 -143 -13 -197 -26 -26 -6 -55 -12 -63 -14 -64 -13 -389 -110 -460
-138 -61 -23 -455 -256 -592 -349 -49 -33 -134 -106 -191 -162 -57 -55 -132
-126 -168 -158 -130 -114 -161 -146 -209 -218 -8 -12 -31 -43 -51 -69 -57 -73
-244 -335 -281 -393 -19 -29 -52 -87 -75 -128 -22 -41 -56 -104 -76 -140 -47
-88 -93 -166 -127 -215 -48 -69 -91 -155 -147 -295 -31 -74 -66 -156 -79 -182
-13 -26 -35 -77 -49 -115 -14 -37 -50 -117 -80 -178 -45 -92 -78 -194 -99
-301 -2 -11 -20 -86 -40 -169 -34 -144 -61 -272 -72 -345 -3 -19 -7 -42 -10
-49 -33 -96 -40 -1330 -9 -1646 22 -230 23 -957 1 -1070 -2 -11 -7 -47 -12
-80 -4 -33 -8 -62 -9 -65 -1 -3 -5 -27 -10 -55 -4 -27 -9 -57 -11 -65 -39
-191 -57 -271 -70 -314 -19 -63 -49 -186 -60 -246 -4 -25 -8 -47 -9 -50 -1 -3
-4 -18 -8 -35 -4 -16 -9 -39 -11 -50 -15 -77 -35 -140 -78 -233 -15 -35 -28
-65 -28 -67 0 -8 -51 -118 -126 -270 -66 -135 -92 -185 -176 -335 -17 -30 -39
-52 -66 -65 -22 -11 -63 -49 -93 -85 -58 -70 -111 -124 -201 -203 -32 -27 -60
-57 -63 -67 -16 -51 72 -147 145 -157 74 -10 224 -11 248 -1 15 6 88 12 162
14 143 3 282 12 302 19 12 4 57 11 121 20 73 11 112 17 117 20 3 1 32 6 65 10
33 3 83 11 110 16 28 5 86 9 130 9 165 -2 155 -3 291 38 55 17 160 49 234 72
133 41 182 53 250 65 58 10 122 27 175 48 175 66 256 90 343 103 35 5 81 22
210 80 28 13 82 33 120 45 95 30 146 62 193 122 23 29 46 52 52 52 6 0 53 -65
104 -145 107 -167 103 -163 165 -245 53 -71 194 -216 283 -290 33 -27 71 -60
85 -73 85 -78 260 -195 400 -267 254 -130 406 -202 411 -193 3 5 11 3 17 -5
21 -25 165 -86 262 -110 166 -43 255 -52 505 -52 268 0 378 14 657 79 84 20
327 100 381 126 22 11 45 20 50 20 15 0 299 145 382 195 225 136 461 317 645
493 41 40 77 72 80 72 3 0 33 -21 66 -48 71 -56 121 -92 128 -92 3 0 27 -13
53 -28 78 -46 281 -109 408 -127 22 -3 49 -7 60 -10 11 -2 56 -7 100 -10 44
-4 91 -9 105 -11 112 -18 707 -27 820 -12 93 12 106 19 101 51 0 4 2 7 6 8 5
0 26 2 48 5 224 21 471 119 603 238 48 43 47 52 -12 90 -30 19 -87 61 -125 93
-39 31 -83 59 -98 61 -68 9 -85 23 -334 296 -30 32 -62 68 -72 80 -10 11 -30
34 -44 50 -47 53 -172 216 -241 314 -123 175 -202 320 -298 550 -126 302 -175
443 -234 667 -44 172 -46 210 -17 340 29 122 30 134 52 315 3 30 8 62 10 70 2
8 7 49 10 90 4 41 8 77 10 80 2 3 6 39 10 80 4 41 9 89 11 105 27 221 27 623
-1 805 -5 32 -13 121 -20 230 -5 78 -11 161 -20 279 -4 57 -16 160 -21 186 -2
11 -6 34 -9 50 -3 17 -10 53 -15 80 -5 28 -11 61 -14 75 -2 14 -12 63 -21 110
-9 47 -19 96 -21 110 -3 14 -21 102 -40 195 -20 94 -38 181 -41 195 -2 14 -10
53 -18 86 -8 34 -16 73 -19 85 -10 57 -41 165 -85 304 -27 83 -63 200 -80 260
-51 175 -106 302 -177 409 -32 49 -33 55 -38 171 -6 139 -18 211 -51 304 -13
36 -52 147 -87 246 -109 305 -193 457 -353 633 -25 28 -128 118 -230 201 -76
61 -163 105 -330 164 -94 34 -262 80 -330 90 -140 23 -260 44 -315 56 -65 14
-174 10 -260 -10z"/>
<path d="M4736 517 c3 -10 9 -15 12 -12 3 3 0 11 -7 18 -10 9 -11 8 -5 -6z"/>
</g>
</svg>
