<svg version="1.1" id="Layer_1" xmlns="http://www.w3.org/2000/svg" x="0" y="0" viewBox="0 0 736.4 2316.8" style="enable-background:new 0 0 736.4 2316.8" xml:space="preserve"><style>.st0{fill:#fcf87a}.st0,.st1{opacity:.61;enable-background:new}</style><path transform="rotate(-15.2 551.2 1017.7)" class="st0" d="M445.2 912.3h212v210.8h-212z"/><path class="st1" d="m492 655.9 7.8-14.2c.6-1.2 1.3-2.5 1.4-3.7.4-15.2 2.6-30.3.8-45.7-1.3-11.2-.4-22.6-.4-33.9 0-12.9-.3-25.9.3-38.8 1.2-27.6 2.8-55.1 4.3-82.6.6-10.6 1.4-21.2 2.3-31.8 1.5-19.5 2.9-39.1 4.7-58.6 1.3-14.5 3.1-29 4.5-43.4 1.6-15.5 3.6-31.1 4.4-46.6 1.2-22.8 1.4-45.6 2.1-68.5.4-12.6 1.1-25.3 1.2-37.9.1-14.9-.5-29.8-.6-44.7-.1-20.6.1-41.3.2-61.9V32.3c-4.2-.7-7.4-1.4-10.6-1.6a454.4 454.4 0 0 0-85.7.8c-22.1 2.5-44.2 5.5-66.2 8.4-22.8 3-45.6 5.6-68.2 9.3-18 3-35.8 7.4-53.7 11-11.1 2.3-22.2 4.3-33.2 6.6a385.4 385.4 0 0 1-70.2 7.4c-20.3.4-40.5-.2-60.6-3.6-6.5-1.1-13.1-1.9-19.6-3.4-1.9-.4-4.9-2.7-4.9-4a9.3 9.3 0 0 1 3.6-6.3 31.1 31.1 0 0 1 26.5-6.2c21.8 4.2 44.2 5 66.6 3.7 20.3-1.2 40.3-3.9 60.2-7.6a7935 7935 0 0 1 127.7-22.7c16.7-2.8 33.7-3.4 50.5-5.5 8.5-1 16.9-3.3 25.4-4.5 6.9-1 13.8-1.7 20.8-1.9 16.3-.6 32.5-.9 48.8-1 12.3-.1 24.6.1 36.9.6 7.4.3 13.6.5 19.5-6.3 8.2-9.6 19.6-6.1 23.6 6.1 1.1 3.5 2.1 7.1 2.4 10.7.2 2-.3 5.1-1.7 6.2-9.2 7.5-9.1 18.4-9.4 28.3-.8 29.6.5 59.2-1 88.8-2.1 42.8-5.7 85.6-8.8 128.4-1.4 19.9-2.9 39.9-4.5 59.8-1.8 21.5-4.2 43-5.6 64.6-2 30.5-3.7 61.1-4.6 91.7a2215 2215 0 0 0 .8 138.8c.2 6.3-.4 12.2-2.9 18.4-2.2 5.4-1.2 12.4-.5 18.6 1.6 14.9-.8 18.6-15.6 22-6.1 1.4-11.5 2.1-15.6-4.6-2.8-4.5-8.3-4.5-12.8-3.3-24.9 6.4-49.6.9-74.5 0-19.9-.7-39.7-1.4-59.7.9-26.3 3-51.2 11.5-76.9 16.4-23.8 4.5-47.3 11-71.7 12.6-20.5 1.4-41 3.6-61.4 6.2-16.4 2.1-32.6-.2-48.8-1.7-5.3-.5-10.6-1-15.8-2.3-9.7-2.4-13.4-6.8-11.9-13 1.2-5.1 10.4-10.8 16.8-10.1 5.6.6 11.1 1.8 16.7 2.4 13.8 1.6 27.6 3.2 41.7 1.5 31-3.7 62.2-6.7 93.2-10.6 11.5-1.4 22.9-4.2 34.3-6.6 30-6.1 59.9-12.3 90-18.2a82 82 0 0 1 17.9-.8c19.9.7 39.9 1.4 59.8 2.8 17.4 1.2 34.8 4.6 51.9-2.4 2.3-1.2 5.5-.9 8-1.2zM478 1149.6c-3.7.8-6.5 1.3-9.2 2a14.6 14.6 0 0 1-17.3-12c-.6-4.9-1.2-9.7-2.3-14.5-1.5-6.7-2.3-14.1-5.7-19.7-3.1-5.1-4.3-10.2-5.9-15.6-6.4-22.1-12.8-44.2-19-66.4-2.9-10.5-5.1-21.3-8-31.8-3.5-12.7-7.6-25.2-11.3-37.9-2.3-7.9-4.5-15.8-6.4-23.8-1.5-6.2 5.8-17.4 12.8-19.7 2.5-.8 5.2-1.2 7.9-1.3 6.4-.3 8.5 2 10.1 10.7 1.8 9.7 2.9 10.9 12.3 9.5 14.4-2.2 28.7-5.3 43.1-7.5 20-3.1 37.7-12.1 55.5-21.2 20.7-10.5 41.9-20.1 62.9-30.1 5.7-2.7 11.7-5 16.9-8.5 4.5-3.1 8.5-7.3 11.8-11.7 6.5-8.7 15.3-10.4 24.2-4.2 4.5 3.2 9.5 5.8 14.7 9-1.3 1.9-2 4.2-3.6 4.9-6.3 3.1-6 8-4.3 13.5l22.9 71.3c.7 2.2 1.7 4.4 2.3 6.6 7.8 29.9 15.5 59.8 23.4 89.6 2.1 8 4.7 15.9 6.9 23.9 1 3.6 2.8 6 6.9 5.9l3 .3c6.7 1.7 14.3 9.3 14.1 15.4-.2 6.7-5.3 10.6-10.7 13.2a38.1 38.1 0 0 1-27.2 3 25.8 25.8 0 0 0-19.1 1.5c-26.4 10.8-52.5 22.4-78.9 33.3-9.5 3.9-19.3 6.8-29.1 10-15.8 5.2-31.4 10.9-47.4 15a232.6 232.6 0 0 1-36.3 5.8c-9.5 1-10.9-1.3-9.6-10.7-.1-2-.4-4.3-.4-7.8zm-46.4-196.9 1.7 7.1c7.8 27.5 15.8 54.9 23.5 82.4 4.6 16.6 8.1 33.6 13.2 50.1 5.2 16.7 8.3 34.4 21 48.2 15.3-.7 30.5-1.8 45.9-5.8 28-7.2 54.7-17.9 81.4-28.5 15.8-6.2 31.4-12.9 47.1-19.3 4.6-1.9 9.3-3.5 13.9-5.5 4.4-1.9 5.4-4.9 3.9-9.7-2.9-9.4-5-19.1-7.7-28.6-1.5-5.1-3.9-9.8-5.3-14.9-3-11.2-5.3-22.6-8.4-33.7-4.7-16.8-10-33.5-14.9-50.2-1.6-5.4-2.5-11-4.4-16.2-3.8-10.6-8-21-12-31.6-1.6-4.3-2.6-8.9-4.2-13.1-2.2-5.6-3.5-6.3-8.9-4-4.6 1.9-8.8 4.6-13.3 6.8-20.2 10-40.4 20.3-60.8 29.9a763.5 763.5 0 0 1-50.1 21.6 214 214 0 0 1-51.3 12c-3.1.2-6.1 1.7-10.3 3z"/><path class="st1" d="M98.8 262.8c-3.1-1.1-6.1-2.5-9.3-3.3-3.7-.9-6.6-3.1-6.2-6.6.3-2.5 2.5-5.5 4.8-6.8 5-3 10.3-4.6 16.8-4.4 26.2.6 52.5.7 78.7-.2 18.9-.7 37.8-3 56.6-5.1 8.9-1 17.7-3.1 26.5-4.8l65.4-12.4c8.2-1.6 16.2-3.6 24.4-5.3 17.5-3.6 35-7.5 52.5-10.7 12.4-2.2 25-3.8 37.5-5.1 10.6-1.1 21.3-.9 31.8-2.3 11.6-1.6 17.4 6.8 24.2 13 3.4 3.1 2.1 9.5-2.4 10.9-10.9 3.5-12 11.3-11.9 20.9.1 10.1-1.3 20.3-1.4 30.5-.2 17 .2 33.9.2 50.9-.1 15.9-.2 31.8-.8 47.7-.1 2.9-1.5 7.8-3.3 8.4-6.1 1.9-12.3 6.6-19 2.5-1.9-1.1-3.1-4.4-3.4-6.8-.9-6.6-1.1-13.2-1.6-19.8l-.4-7.7c-3 .3-5.7.1-7.9 1-17 7.2-35.5 8.5-53 13.4-13.1 3.7-26.3 7-39.6 10.1-24.3 5.6-48.7 10.8-73 16.2-26.8 6-54 7.5-81.3 8.3-6.9.2-13.9-.9-20.8-1.3-3-.1-6.1-.4-8.9.3-18.1 4.4-35.9 9.6-54.1 13.2-8.9 1.8-18.4 1.4-27.6.9-7.2-.4-9.2-6.9-10.8-12.8-.8-2.8-.9-6-.5-8.9 1.2-8.8 3.3-17.5 4-26.3 1.2-15.2 5.9-29.9 4.9-45.4-.5-7.2 1.1-14.6 1.6-21.9.2-3.3.2-6.6-.2-9.9-1.7-11.3-1.1-13.3 7.5-20.4zm14.5 117.1c3.2 0 5.2.3 7.1 0 11-1.9 20.9-6.5 29.4-13.6 3.7-3.1 6.9-3.8 11.7-2.3 12 3.9 24.3 7.1 37 2.6 2.2-.8 4.5-1.5 6.7-1.7 9.1-.7 18.5-3 26.2 5 1.7 1.7 5.6 2.1 8.3 1.8 18.4-2 36.9-3.8 55.1-6.7 17.4-2.8 34.5-6.9 51.8-10.4 18.2-3.7 36.4-8 54.7-10.8 17-2.7 34-7.2 51.4-2.9 2 .5 4.2-.4 6.7-.7V215.4c-5.9-.9-11.3-2.7-16.3-2.1a480.3 480.3 0 0 0-41.3 6.8c-20.2 4.4-40.1 9.7-60.2 14.4-15.9 3.7-31.7 7.5-47.7 10.7-24.1 4.8-48.2 10.5-72.6 13.2-28.4 3.2-57.1 3.5-85.6 5.1l-11.9.9c-.9 6-2 10.9-2.2 15.8a744.8 744.8 0 0 1-8.4 83.1c-.6 5.4.1 11 .1 16.6zM30.8 63.4c6.9 3.8 7.2 10 7.5 15.9 1.4 27.5 2.9 55.1 3.8 82.7a3910.5 3910.5 0 0 1-1.3 263.1c-1 26.9-3 53.8-4 80.7-.7 17.6 0 35.2-.6 52.8-.7 18.9-2.4 37.8-3.3 56.7-.8 17.9-1.1 35.8-1.6 53.7-.1 5 .2 10-.2 14.9-.8 9.9-16.6 19.7-25.9 15.9-2-.8-4.3-3.7-4.5-5.8-.5-7.5-1.3-15.4.1-22.7 2.2-11.6 2.7-23 2.2-34.6a45 45 0 0 1 3.6-24.2c1.3-2.3.9-5.8.6-8.6a53.7 53.7 0 0 1 1.1-26.4c1.2-3.2.9-7.2.4-10.7a114 114 0 0 1-.5-28.6c1.6-15.2 1.4-30.5 2.1-45.8l1.4-25.7v-2c-3.2-20.2 2.3-40.1 1.5-60.3-.6-13.9.1-27.9.5-41.9.3-11.6 1.4-23.2 1.6-34.8.3-18.9-.2-37.8.1-56.6.2-9.9 1.7-19.8 1.8-29.6.1-12.2-.8-24.4-1.1-36.6-.3-11.2-.1-22.3-.4-33.5-.6-19.5-1.5-38.9-2.1-58.4-.4-10.1-.6-20-.6-30 0-7.5 3.9-12.3 10.7-15.2 2.4-.9 4.4-2.7 7.1-4.4zM90.8 592c.6-10.5 1.3-21 1.7-31.5.8-21.2 1.3-42.5 2-63.7.1-3.5-.9-5.8-4.2-8.2-6.8-5.1-6.6-8.8.3-14.1 9.1-7.1 18.7-11.6 31.2-9.7 16.3 2.4 32.4-1.6 48.3-5.3 12.5-2.9 24.9-6.8 37.3-10.2 11.2-3 22.4-6.1 33.7-8.9 6.4-1.6 13-2.7 19.6-3.5 10-1.3 16.7 1.6 19.3 8.5.7 1.9 1 4.8.1 6.4-5.6 9.3-5.8 19.8-6.4 30-1.4 23.2-1.9 46.5-2.8 69.8-.1 3.3-.9 6.6-1.4 9.8-1 6.2-3.1 12.4-2.9 18.5.4 9.1-5.4 13.6-11.8 16.5-6.6 3-14.1 3.1-21.5 1.1a60.8 60.8 0 0 0-17.5-2.1c-18.3.7-36.1 4.5-53.9 9.3a164 164 0 0 1-48.8 8c-14.6-.4-23.3-3.5-22.3-20.7zm35-100.8c0 8.5.3 15.8-.1 23-.8 16.3-2.1 32.5-2.6 48.8-.3 9.2.6 9.7 9.8 8 20.8-3.9 41.7-7.9 62.5-11.6 13.4-2.4 26.8-4.3 40.9-6.6 1.5-5.2 3.6-10.4 4.3-15.9 1.2-8.1 1.7-16.3 2.1-24.5.7-15.9 1.2-31.9 1.7-47.8 0-.9-.6-1.8-1.3-3.6-3.1.4-6.4.4-9.5 1.4-11.8 3.5-23.5 7.3-35.2 10.9a760.7 760.7 0 0 1-50.7 14.3c-6.8 1.4-13.7 2.2-21.9 3.6zM487.2 415.4c-.5 2.9-.5 3.9-1 4.8-6.3 13.2-3.9 27.4-5 41.2-1.8 22.2-2.6 44.5-7 66.4-3.2 15.6-4.7 31.6-6.7 47.4-.4 3.2.4 6.5.9 9.8.8 6.3-.9 10.1-6.5 13.2a55.4 55.4 0 0 1-9.9 4.6c-7 2.4-11 0-12.4-7.5-1-5.8-5.8-6.8-10.1-8-2.8-.8-6-.6-8.9-.2-16.4 2.3-32.8 5.1-49.2 7.1a838.6 838.6 0 0 1-47.5 4.6c-7.9.5-9.6-3.1-7.1-10.8a28.2 28.2 0 0 1 14.2-15.9c3.7-2 5-4.2 5.9-8.2 2.3-10.1 3.6-20 3.7-30.5.3-17.5 2.7-34.9 4-52.4.4-6 .2-12 .3-18 .1-4.7-2.6-6.6-7-6.5-2.6.1-5.2.6-7.9 1-2.6.4-5.2 1.2-7.8 1.2-3.9.1-8.4 1-10.5-3.6-2-4.4.8-8.2 3.6-10.7a38 38 0 0 1 14.1-8.8c13.7-3.7 27.7-6.6 41.8-9.2 18.9-3.5 37.8-6.5 55.8-14.1 10.8-4.6 23-6.1 34.7-8.3a25 25 0 0 1 20 4.2c2.7 2.2 4.2 5.5 5.5 7.2zm-111.6 33.8-2.7 38.9c-.9 12.2-1.5 24.5-2.7 36.7-1.2 12.2-3.2 24.4-5 38.2l76.3-5.9c.7-1.5 1.3-2.4 1.5-3.3 6.6-29.5 9.4-59.5 10.3-89.7.2-8 0-16 .8-23.8.5-5.1 2.6-10 4.4-16.4-4.1.3-7.5-.2-10.3.8-11.1 4.1-22 8.6-33 13-3.7 1.4-7.2 3.1-11 4.2l-28.6 7.3zM168.2 145.2c-5.8-8.7-8.8-9.3-18.3-6.5-6.9 2-14.2 3-21.4 4.2-1.1.2-2.4-.7-4-1.1.6-6.3 2.7-11.9 7.5-14.8 15.9-9.6 32.9-15.1 51.1-6.6 17.6 8.2 20.4 20 13.6 36.3a66.7 66.7 0 0 1-54.9 41.1 77.7 77.7 0 0 1-33.4-3.7 34.5 34.5 0 0 1-21.5-23.5 114 114 0 0 1-4.7-25.3 37.4 37.4 0 0 1 27.4-36.9c4.5-1.1 9.2-1.6 13.8-1.6 4.8 0 8.4 2.7 9.5 7.4 1.1 4.3-2.1 6.7-5.3 8.8-1.9 1.3-4.1 2.2-6 3.6-4.6 3.2-7.9 7.5-7.8 13.2a52 52 0 0 0 5.9 25c7.5 13 22.3 15.4 33.8 5.5a42.2 42.2 0 0 0 14.7-25.1zM476.4 134.9l27.3-2.4c5.5-.4 7.4 4.2 9.2 7.9 2 4.1-2 5.8-4.7 7.5-12 7.1-24.2 13-38.9 10.3a47 47 0 0 1-24.4-14.5c-2.2-2.1-4.1-4.3-6.2-6.5a15.7 15.7 0 0 0-16.4-4.6c-10.5 2.9-21.2 5.4-31.5 9.2-28 10.3-56.3 15.7-86 9.3-2.9-.6-6-.4-8.9-.9-5.5-1-6.8-3.3-4.7-8.3 1.8-4.4 4.4-8.2 9.4-9.7 7.2-2.2 14-3.9 22.2-2.9 16.7 2 33.4 1.8 50.2-3.2 20.6-6.1 40.6-14.9 62.8-15a42.7 42.7 0 0 1 29.1 10.9c4.8 4.1 8.7 9.7 11.5 12.9zM242.2 1499.6c9.8.8 19 1.6 28.1 2.2 3.7.2 5.7-2 5.1-5.7a109 109 0 0 0-2.8-12.6c-4.9-16.2-10.9-32.2-11.2-49.5-.1-4.9.7-9.8 1.1-15.3 5.2-.3 9.5-1 13.7-.6 11.1.9 15.8 5.7 15 16.8a111.4 111.4 0 0 0 8.4 45.7c1.8 5 3.3 10.1 4.6 15.2 2.1 8.6-.3 16.7-4.5 23.9-1.6 2.8-5.4 5-8.6 5.9a70.4 70.4 0 0 1-32.6 1.3c-11.8-2.1-23.6-3.8-35.3-6.3a397.7 397.7 0 0 1-33.8-8.5 39.3 39.3 0 0 1-21.9-14.9c-1.7-2.5-2.4-5.7-3.6-8.6 19.5-6.4 36.4 1.7 55.1 4.9-7-15.3-13.2-30.1-20.3-44.4-11.1-22.3-23.3-44.1-33.9-66.7a467 467 0 0 1-21.8-54.6 113 113 0 0 1-3-50.2c2.8-20.3 11.6-37.9 19.3-56.3 7.3-17.4 19.5-31.3 30.2-46.3 7.5-10.3 25.3-7.5 30.5 4.3 2.4 5.3.4 10.4-3.3 13.8-12.1 11-19.9 25.3-27.7 38.8-12.5 21.8-21.8 45.2-21 71.8.6 22.4 7.1 42.9 16.4 62.2 15.7 32.6 33.6 64.2 50.7 96.1 1.2 2.3 2.9 4.4 4.5 6.6 5.2 7.1 8.1 14.4 3.3 23.1-1 2-.4 4.6-.7 7.9z"/><path d="M113.3 379.9c0-5.7-.7-11.3.1-16.7 4.2-27.6 7.3-55.3 8.4-83.1.2-4.9 1.3-9.8 2.2-15.8l11.9-.9c28.6-1.6 57.3-1.9 85.6-5.1 24.4-2.7 48.5-8.4 72.6-13.2 16-3.2 31.8-7 47.7-10.7 20.1-4.7 40-10 60.2-14.4 13.6-3 27.4-5.1 41.3-6.8 5-.6 10.3 1.3 16.3 2.1v124.8c-2.4.3-4.7 1.2-6.7.7-17.5-4.3-34.5.3-51.4 2.9-18.4 2.9-36.5 7.1-54.7 10.8-17.2 3.5-34.4 7.6-51.8 10.4-18.3 2.9-36.7 4.7-55.1 6.7-2.7.3-6.7-.1-8.3-1.8-7.7-8-17.1-5.7-26.2-5-2.3.2-4.6.9-6.7 1.7-12.7 4.4-25 1.2-37-2.6-4.8-1.5-8-.9-11.7 2.3a61.7 61.7 0 0 1-29.4 13.6c-2.1.4-4.1.1-7.3.1z" style="opacity:.61;fill:#bcbcbc;enable-background:new"/><path d="M125.8 491.2c8.3-1.4 15.2-2.2 21.9-3.7a437 437 0 0 0 25-6.5c8.6-2.5 17.1-5.2 25.7-7.8 11.7-3.6 23.4-7.4 35.2-10.9 3.1-.9 6.4-.9 9.5-1.4.7 1.8 1.3 2.7 1.3 3.6-.5 15.9-.9 31.9-1.7 47.8-.4 8.2-.9 16.4-2.1 24.5-.8 5.4-2.9 10.7-4.3 15.9-14.1 2.3-27.5 4.2-40.9 6.6-20.9 3.7-41.7 7.7-62.5 11.6-9.2 1.7-10.1 1.3-9.8-8 .6-16.3 1.9-32.5 2.6-48.8.4-7.1.1-14.4.1-22.9z" style="opacity:.61;fill:#646464;enable-background:new"/><path d="M375.6 449.2c10.2-2.6 19.5-4.9 28.7-7.4 3.8-1 7.4-2.7 11-4.2 11-4.3 21.9-8.9 33-13 2.8-1 6.2-.5 10.3-.8-1.8 6.4-3.9 11.4-4.4 16.4-.8 7.9-.6 15.9-.8 23.8-1 30.2-3.7 60.2-10.3 89.7-.2.9-.8 1.8-1.5 3.3l-76.3 5.9c1.8-13.8 3.7-26 5-38.2 1.2-12.2 1.9-24.5 2.7-36.7l2.6-38.8z" style="opacity:.61;fill:#989898;enable-background:new"/><path class="st1" d="M495.3 1063.1c2.8-17 13-25.6 30.3-28.3 12.3-1.9 24.3-5.9 36.5-8.8 10-2.4 19.9-4.8 30-6.8 7.4-1.5 14.8-2 20.9-7.8 4.2-3.9 9.2-7.5 16.1-6.4 7.9 1.3 11.5 5.8 8.5 13.1-5.5 13.1-14.1 23.1-29.6 24.4-6.6.6-13.3.4-19.8 1.4-9.8 1.5-19.6 3.2-29.2 5.7-7.3 2-14.2 5.6-21.4 8.1-8.7 3-17.5 6-26.4 8.3a18 18 0 0 1-15.9-2.9zM587.8 964.9c-3.2-.6-5.2-.8-7-1.5-6.1-2.2-10.7 0-15.4 4-9.9 8.3-19.6 16.9-30.3 24.1a42.6 42.6 0 0 1-31.6 6.1c-8.9-1.6-10.5-6.3-6-14.4 4.7-8.4 11.5-12.8 21.2-11.8 6.5.7 11-1.5 16.1-5.7 13-10.8 26.8-20.6 40.3-30.9 3.5-2.7 7-3 11.2-1.5 5.2 1.9 10.7 3.1 16 4.6l1 .1c6.2.6 11 4 12.7 9.7 1.8 5.8-4.5 8.3-7.9 10.1-6.5 3.5-14.1 5-20.3 7.1zM315.1 2261.4c7.9-9.1 16.3-17.8 25.1-26.1a253.6 253.6 0 0 0 39.2-46.7 225 225 0 0 0 32.1-170.2c-4.2-23.9-8.5-47.4-22-68.3-4.2-6.5-1.9-12.6 4.7-16.2 12.5-6.7 26.9-1.9 31.7 11.4 5.8 16.3 12.1 32.6 15.5 49.4 5.5 26.9 9.3 54.1 7.5 82a263 263 0 0 1-22.3 93 249 249 0 0 1-29 47c-9.9 13-20.7 24.7-32.2 36.2-8.1 8.1-14.7 17.7-21.9 26.5 6.8 6.8 6.8 7.1 13.5 6.7 12.7-.7 20.9 5.9 28.1 16.8-10 7.4-17.6 16.5-32.1 13.2a276.1 276.1 0 0 0-42.5-5.5 76.8 76.8 0 0 1-27-7.4c-8.7-4-19.2-13.8-14.5-27.3 1.9-5.3 2.8-11 5.1-16.1 5.8-13.1 12.5-25.8 18.1-38.9 3.1-7.4 7.1-14 15.3-15 9.7-1.2 18.8 1 24.1 10.9-4.9 9.9-9.9 19.6-14.5 29.4-4.5 9.8-12.9 18.2-10.8 30.1 3-5 5.1-10.6 8.8-14.9z"/><path transform="rotate(-9.4 498 1702.5)" class="st0" d="M385 1582.7h226v239.6H385z"/><path class="st1" d="M421.9 1824.9c-3.7 2.1-6.4 4.1-9.4 5.4-13.5 5.6-22.7.6-25.6-13.8-6.2-31-8-62.6-12.1-93.8-1.3-9.9-2.9-19.7-4.7-29.5-3.5-19.2-7.2-38.4-10.8-57.5-.2-1-.7-2.2-.3-2.9 3.2-7 2.1-14.2 2.1-21.5 0-3.7 3.1-8 6.1-10.8a44.9 44.9 0 0 1 21.3-10.4c20.7-4.6 41.4-9.2 62-14.3 10.6-2.6 20.8-6.9 31.5-9.5 17.4-4.2 35-7.8 52.5-11.3 6.8-1.3 13.8-1.6 20.8-2.1 3.9-.3 7-1.2 9-5 1.4-2.6 3.4-5 5.1-7.4 3.5-4.7 8.1-6.6 14-5.9 5.9.7 7.3 5.1 8.6 9.7l11.3 41.2c3 10.8 6.3 21.6 9.1 32.5 5.5 21.6 10.6 43.2 15.9 64.8 7.6 30.6 13.3 61.6 22.9 91.7 2.9 9 7.3 17 11 25.5 5.7 13.1-1 24.9-15.3 24.2-25.5-1.4-50.2 3.6-75.1 8.2-15 2.7-30.3 4.3-45.5 6a231.7 231.7 0 0 0-84.1 23.5c-14.1 7.4-29.7 9.6-44.3 14.8-5 1.8-10.2-5.2-7.3-10.6 4.6-8.5 7.9-18.3 18.8-22.2 26.3-9.4 51.7-21.4 79.1-27.1 14.3-3 28.8-5.2 43.2-7.5 14.4-2.3 28.9-4.2 43.4-6.2 10.2-1.5 20.4-2.8 30.5-4.5 6.1-1 12.7-1 17.8-7.1-1.6-7-3.2-14.4-5.1-21.8-3-11.9-6.4-23.7-9.2-35.6-7.1-29.8-13.6-59.6-21-89.3-4-16.1-9.3-31.8-14-47.8-1.3-4.5-2.4-9-3.5-13.5-1.2-4.5-4.3-6.4-8.8-6.5-15-.3-29.8.7-44.3 5.6-5.9 2-12.5 1.9-18.5 3.7-23.2 7-46.1 14.9-69.4 21.5-14.7 4.2-29.8 6.7-44.8 10-3.8.8-7.5 1.9-12.2 3.1 2.5 1.8 3.8 3.4 5.5 4 8.1 2.8 10.2 9.4 11.6 16.9 5.5 30.1 11.7 60 16.6 90.2 3 18.3 3.5 37 6 55.4 1.2 8.8 4.4 17.4 6.6 26 1 3.4 1.9 6.9 3 11.5z"/><path class="st1" d="M538.4 1636.5c-3.9 14.4-16.6 17.7-27.9 18.1a150 150 0 0 0-49.3 9.1c-6.2 2.4-12.6 4-19 5.8a20 20 0 0 1-6.8 1c-6.3-.8-8.8-6.4-5.2-11.7a49.5 49.5 0 0 1 31.1-21.2c9.5-2.1 19.6-3 27.5-10.2 2.3-2.1 6.9-2.6 10.3-2.3 9.2.8 18.3 2.7 27.5 3.6 5.7.5 9.3 3.1 11.8 7.8zM450.8 1719.3h-4.3c-8.5-.8-11.1-4.7-6.4-11.7a73 73 0 0 1 13.5-14.3c5.1-4.4 11.7-5.4 18.1-7 10.2-2.5 20-6.8 29.9-10.5 7.1-2.7 11.2-1.9 16 3.3 2.7 3 3.1 6.1.2 8.8a37.8 37.8 0 0 1-8.7 6.3c-5.5 2.8-11.4 5.2-17.1 7.6l-29.1 12.2c-1.8.8-3.5 1.7-5.3 2.4a99.5 99.5 0 0 1-6.8 2.9zM457.3 1785.6c-5.2-.1-9.1-5.6-7.1-10.5 1.1-2.7 3-5.2 5-7.3a78.5 78.5 0 0 1 26.4-17.3c4.7-2 10.7-.6 13.4 3.4a8.3 8.3 0 0 1 .7 6.4c-3.3 9.6-27.9 25.5-38.4 25.3z"/></svg>