<?xml version="1.0" encoding="utf-8"?>
<!-- Generator: Adobe Illustrator 19.0.0, SVG Export Plug-In . SVG Version: 6.00 Build 0)  -->
<svg version="1.1" id="Layer_1" xmlns="http://www.w3.org/2000/svg" xmlns:xlink="http://www.w3.org/1999/xlink" x="0px" y="0px"
	 viewBox="0 0 3452.644 1328.678" style="enable-background:new 0 0 3452.644 1328.678;" xml:space="preserve">
<style type="text/css">
	.st0{opacity:0.61;fill:#FCF87A;}
	.st1{opacity:0.61;}
	.st2{opacity:0.61;fill:#BCBCBC;}
	.st3{opacity:0.61;fill:#929292;}
	.st4{opacity:0.61;fill:#646464;}
	.st5{opacity:0.61;fill:#989898;}
	.st6{opacity:0.61;fill:#818181;}
	.st7{opacity:0.61;fill:#9B9B9B;}
</style>
<rect x="3205.71" y="1017.927" transform="matrix(0.9697 0.2444 -0.2444 0.9697 378.4712 -774.2485)" class="st0" width="206.344" height="239.813"/>
<rect x="2567.57" y="630.903" transform="matrix(0.976 -0.2178 0.2178 0.976 -99.4123 599.7394)" class="st0" width="206.344" height="239.813"/>
<rect x="2076.736" y="919.372" transform="matrix(0.976 -0.2178 0.2178 0.976 -173.3085 506.2846)" class="st0" width="266.283" height="239.813"/>
<rect x="2062.681" y="291.621" transform="matrix(0.9998 -0.019 0.019 0.9998 -7.2383 41.1247)" class="st0" width="196.683" height="219.869"/>
<rect x="1382.203" y="576.335" transform="matrix(0.9875 0.1577 -0.1577 0.9875 127.1243 -229.2104)" class="st0" width="250.738" height="219.869"/>
<rect x="383.262" y="1072.43" transform="matrix(0.9649 -0.2626 0.2626 0.9649 -292.1503 169.8368)" class="st0" width="211.997" height="210.764"/>
<rect x="671.292" y="395.184" transform="matrix(0.9866 -0.1634 0.1634 0.9866 -73.6195 135.0903)" class="st0" width="225.949" height="239.639"/>
<path d="M3699.088-170.04c-0.452-4.903-1.148-9.797-1.315-14.709c-0.8-23.58-1.145-47.18-2.251-70.745
	c-1.084-23.076-2.855-46.12-4.395-69.173c-0.991-14.845-2.108-29.683-3.171-44.523c-0.024-0.332-0.143-0.679-0.082-0.992
	c3.157-16.17-0.139-31.961-2.614-47.832c-0.608-3.901-0.51-8.019-0.059-11.96c1.639-14.32,0.159-28.471-1.217-42.717
	c-1.298-13.445-1.187-27.02-2.071-40.513c-0.668-10.2-2.095-20.349-2.872-30.545c-0.678-8.898-0.532-17.869-1.458-26.734
	c-1.103-10.56-2.962-21.042-4.495-31.557c8.667,0,17.333,0,26,0C3699.088-458.04,3699.088-314.04,3699.088-170.04z"/>
<path d="M-180.912,2421.96c1.953-1.797,3.765-3.785,5.889-5.349c3.881-2.856,7.81-4.91,12.69-1.374
	c1.572,1.139,4.614,1.558,6.413,0.852c8.494-3.335,16.789-7.174,25.645-11.048c-3.035-5.704-6.222-11.813-9.52-17.862
	c-4.068-7.46-3.025-10.778,5.182-13.029c4.019-1.102,8.447-0.712,13.504-0.56c-7.376,3.771-4.035,10.094-4.573,15.733
	c4.963,1.845,9.761,4.992,15.855,2.696c1.494-0.563,4.572,0.067,5.388,1.228c3.868,5.5,9.189,5.31,15.466,3.823
	c0,2.097,0.412,3.53-0.07,4.534c-2.307,4.803-13.991,9.519-19.297,8.092c-4.034-1.085-8.12-1.98-12.844-3.12
	c0.854,5.782,1.563,10.583,2.272,15.383C-139.579,2421.96-160.246,2421.96-180.912,2421.96z"/>
<path d="M-250.912,2421.96c3.476-2.239,6.952-4.477,11.187-7.205c-0.754-1.399-1.522-3.455-2.811-5.105
	c-5.479-7.014-4.933-8.718,3.982-11.708c3.217,8.013,6.429,16.016,9.642,24.019C-236.246,2421.96-243.579,2421.96-250.912,2421.96z"
	/>
<path d="M29.088,2421.96c-6.258-10.187-6.258-10.187,1.184-19.776c6.077,5.413,8.906,12.311,10.816,19.776
	C37.088,2421.96,33.088,2421.96,29.088,2421.96z"/>
<path d="M-38.912,2421.96c-1.896-4.992-2.707-10.026-0.956-15.216c9.809,1.116,14.137,8.467,18.956,15.216
	C-26.912,2421.96-32.912,2421.96-38.912,2421.96z"/>
<path d="M-80.912,2421.96c0.428-0.511,0.797-1.087,1.291-1.523c10.83-9.55,14.154-9.341,24.709,1.523
	C-63.579,2421.96-72.246,2421.96-80.912,2421.96z"/>
<path d="M-290.912,2421.96c2.292-3.199,4.583-6.398,7.288-10.174c3.654,3.471,7.183,6.823,10.712,10.174
	C-278.912,2421.96-284.912,2421.96-290.912,2421.96z"/>
<path d="M-332.912,2139.96c6.498,8.01,6.498,9.592,0,14C-332.912,2149.293-332.912,2144.627-332.912,2139.96z"/>
<path d="M-332.912,2315.96c1.84,2.648,3.679,5.296,5.519,7.939c0-0.005,0.302-0.587,0.302-0.587
	c-1.941,0.216-3.881,0.432-5.822,0.648C-332.912,2321.293-332.912,2318.627-332.912,2315.96z"/>
<path d="M-332.912,2167.96c1.515,1.151,3.03,2.301,4.545,3.451c-1.515,0.85-3.03,1.699-4.545,2.549
	C-332.912,2171.96-332.912,2169.96-332.912,2167.96z"/>
<path d="M-308.912,2421.96c5.097-5.926,5.591-5.926,8,0C-303.579,2421.96-306.246,2421.96-308.912,2421.96z"/>
<path d="M-332.912,2093.96c1.442,0.927,2.883,1.854,4.325,2.781c-1.442,1.073-2.883,2.146-4.325,3.219
	C-332.912,2097.96-332.912,2095.96-332.912,2093.96z"/>
<path d="M-332.912,2239.96c1.325,0.707,2.649,1.414,3.974,2.121c-1.325,1.293-2.649,2.586-3.974,3.879
	C-332.912,2243.96-332.912,2241.96-332.912,2239.96z"/>
<path d="M-332.912,2417.96c2,1.333,4,2.667,6,4C-329.449,2421.431-334.133,2424.125-332.912,2417.96z"/>
<path class="st1" d="M3287.094,35.55c-25.821-2.571-50.215-4.845-74.573-7.463c-34.922-3.752-69.912-6.665-104.975-8.601
	c-24.229-1.337-48.492-3.022-72.734-2.935c-27.272,0.098-54.539,1.972-81.805,3.163c-7.652,0.334-15.311,0.772-22.931,1.529
	c-21.12,2.096-42.279,3.954-63.305,6.783c-10.129,1.363-19.92,5.085-30.006,6.981c-5.063,0.952-10.473,0.516-15.671,0.071
	c-1.978-0.169-3.804-2.123-5.823-3.339c1.678-6.211,5.499-9.94,10.699-11.433c12.441-3.572,24.813-7.47,38.058-7.507
	c6.591-0.018,13.159-1.823,19.77-2.504c42.011-4.326,84.059-7.796,126.37-7.104c22.918,0.375,45.866-0.575,68.77,0.105
	c19.245,0.572,38.449,2.583,57.664,4.06c18.899,1.452,37.823,2.697,56.673,4.637c26.777,2.756,53.495,6.078,80.242,9.128
	c4.596,0.524,9.209,0.897,14.776,1.433c0.362-3.178,0.821-5.662,0.897-8.158c0.26-8.497,5.155-13.873,13.239-14.349
	c5.801-0.341,7.704,1.056,8.907,6.835c0.611,2.933,0.964,5.919,1.431,8.882c0.683,4.331,1.949,8.027,5.613,11.232
	c2.307,2.018,4.016,6.314,3.698,9.347c-0.422,4.013-4.986,3.405-8.236,3.794c-0.953,0.114-1.862,0.595-3.627,1.19
	c-0.291,2.632-0.828,5.517-0.897,8.412c-0.999,41.951,0.647,83.811,3.921,125.642c1.455,18.581,1.45,37.272,2.692,55.875
	c2.039,30.528,4.516,61.027,6.879,91.532c2.056,26.533,4.188,53.06,6.327,79.587c2.542,31.514,5.071,63.028,7.709,94.534
	c2.915,34.805,5.9,69.604,8.943,104.397c2.288,26.169,4.729,52.325,7.062,78.49c0.266,2.979,0.42,5.983,0.381,8.972
	c-0.096,7.564,1.087,13.727,8.599,18.511c7.598,4.839,7.66,11.959,0.75,17.337c-4.733,3.683-5.808,7.921-5.628,12.934
	c0.5,13.959,1.325,27.906,2.022,41.858c0.896,17.935,1.793,35.87,2.713,54.283c-6.137,2.113-11.089,8.907-18.002,4.592
	c-0.59-5.384-1.172-9.786-1.538-14.205c-0.934-11.27-2.398-22.541-2.508-33.823c-0.184-18.898-1.481-37.693-3.417-56.46
	c-0.886-8.594-2.028-9.14-10.607-9.561c-33.396-1.64-66.374,3.306-99.487,6.11c-11.932,1.01-23.831,2.411-35.76,3.447
	c-18.884,1.64-37.796,2.971-56.67,4.725c-13.584,1.262-27.114,3.101-40.688,4.496c-12.23,1.257-24.466,2.666-36.736,3.29
	c-23.59,1.2-47.208,2.674-70.81,2.61c-34.94-0.094-69.888-1.117-104.812-2.338c-26.6-0.93-53.164-2.844-79.753-4.158
	c-4.215-0.208-8.472,0.447-14.091,0.786c1.413,10.751,2.369,20.572,4.053,30.267c2.73,15.718,5.583,31.433,9.084,46.991
	c1.915,8.506,2.265,17.864,10.507,23.967c3.004,2.225,3.496,15.414,1.069,18.04c-4.196,4.539-9.681,7.312-15.888,7.097
	c-2.195-0.076-4.819-2.313-6.348-4.268c-4.062-5.194-9.136-6.554-15.058-4.661c-20.868,6.672-41.597,13.789-62.543,20.2
	c-10.405,3.185-21.133,5.361-31.777,7.715c-19.642,4.344-39.226,9.08-59.035,12.488c-12.413,2.135-25.188,2.187-37.806,3.094
	c-11.255,0.809-22.51,1.757-33.781,2.137c-4.781,0.161-11.144,1.184-13.212-4.423c-1.931-5.237,1.837-9.643,5.3-14.009
	c4.928-6.213,11.558-6.162,18.029-6.533c14.608-0.838,29.352-0.205,43.851-1.843c25.759-2.91,51.634-5.816,76.986-11.029
	c27.285-5.611,54.018-13.9,81.008-20.958c5.711-1.493,11.492-2.715,18.116-4.268c-0.622-3.478-0.934-6.347-1.661-9.107
	c-5.668-21.52-10.331-43.215-12.38-65.43c-0.517-5.601-2.059-11.099-2.82-16.687c-2.545-18.689-4.846-37.413-7.457-56.093
	c-1.147-8.212-2.367-16.463-4.356-24.498c-2.95-11.918-6.672-23.643-9.949-35.482c-1.63-5.89-3.364-7.593-9.21-5.15
	c-7.747,3.236-15.554,3.249-23.508,2.828c-11-0.581-20.997,3.503-30.76,7.286c-27.859,10.796-56.716,16.272-86.313,19.017
	c-7.586,0.704-15.003,2.359-22.691,0.996c-1.75-0.31-3.746,0.764-6.516,1.406c0.475,4.796,0.735,9.329,1.399,13.801
	c3.079,20.724,6.787,41.369,9.282,62.161c2.735,22.784,3.85,45.766,6.694,68.533c2.049,16.405,5.528,32.652,8.853,48.87
	c1.667,8.131,0.83,11.724-5.045,13.783c-8.8,3.085-17.002,0.596-19.299-6.613c-2.622-8.232-5.259-16.635-6.312-25.158
	c-3.341-27.061-5.921-54.216-8.848-81.329c-1.171-10.85-2.242-21.719-3.778-32.519c-2.614-18.384-5.683-36.703-8.291-55.088
	c-0.742-5.229-2.224-8.592-8.303-9.184c-2.871-0.28-6.976-2.313-7.931-4.623c-1.608-3.886,1.075-7.591,4.519-10.143
	c5.837-4.324,11.643-8.693,17.555-12.912c5.162-3.684,12.686-3.132,16.803,1.893c2.771,3.382,5.991,3.792,9.694,3.822
	c21.301,0.168,42.628-0.03,63.456-5.049c19.393-4.672,38.575-10.212,57.882-15.249c7.724-2.015,15.452-4.368,23.329-5.327
	c6.102-0.743,10.613-3.419,14.871-7.262c2.222-2.005,4.23-4.328,6.69-5.976c11.209-7.51,20.312-4.223,24.495,8.743
	c1.819,5.639,3.454,11.338,6.672,17.149c0.739-3.254,1.973-6.484,2.135-9.766c0.901-18.281,1.587-36.573,2.262-54.865
	c1.19-32.272,2.381-64.544,3.45-96.821c0.66-19.931,0.815-39.882,1.692-59.802c1.886-42.858,4.332-85.693,6.099-128.555
	c1.781-43.228,3.33-86.47,4.36-129.721c0.499-20.95-0.325-41.936-0.731-62.902c-0.315-16.253-1.122-32.498-1.28-48.751
	c-0.066-6.747,1.73-13.164,7.019-18.107c3.834-3.584,7.969-6.796,13.296-4.092c4.836,2.455,6.577,7.35,6.614,12.582
	c0.021,2.954-0.941,5.905-1.041,8.872c-0.819,24.254-1.711,48.507-2.246,72.768c-0.645,29.294-0.743,58.601-1.479,87.893
	c-0.802,31.918-1.867,63.832-3.19,95.732c-0.91,21.94-2.527,43.849-3.696,65.78c-1.365,25.59-2.938,51.176-3.796,76.785
	c-1.582,47.204-2.658,94.425-4.041,141.636c-0.876,29.906-2.036,59.805-2.828,89.713c-0.238,8.973,0.175,17.974,0.592,26.948
	c0.258,5.547-0.116,10.665-4.764,14.519c-4.397,3.645-3.037,8.587-2.377,13.017c0.632,4.24,4.728,4.137,7.988,4.391
	c8.609,0.672,17.234,1.136,25.849,1.731c26.546,1.836,53.071,4.076,79.642,5.415c18.911,0.953,37.883,0.864,56.829,0.951
	c22.296,0.101,44.602,0.255,66.887-0.298c18.888-0.469,37.76-1.797,56.625-2.966c12.94-0.802,25.879-1.752,38.777-3.045
	c19.173-1.921,38.28-4.561,57.472-6.236c20.465-1.786,41.005-2.693,61.495-4.218c8.275-0.616,16.72-0.991,24.709-2.989
	c16.776-4.196,33.826-1.588,50.671-3.209c7.573-0.729,15.175-1.145,23.745-1.775c0.233-3.727,0.786-6.941,0.574-10.103
	c-1.198-17.898-2.427-35.797-3.943-53.67c-1.236-14.572-3.024-29.096-4.309-43.664c-0.845-9.579-0.948-19.225-1.874-28.794
	c-3.105-32.092-6.709-64.137-9.583-96.249c-2.193-24.504-3.607-49.079-5.298-73.627c-1.783-25.875-3.315-51.768-5.274-77.629
	c-1.684-22.219-4.159-44.382-5.651-66.612c-1.401-20.879-2.139-41.809-2.832-62.727c-0.297-8.952,0.559-17.938,0.368-26.897
	c-0.503-23.565-0.961-47.14-2.097-70.679c-0.641-13.267-2.595-26.469-3.944-39.703C3288.406,49.013,3287.843,43.144,3287.094,35.55z
	"/>
<path class="st1" d="M491.96,745.055c3.108-5.606,5.521-9.877,7.84-14.198c0.62-1.156,1.33-2.456,1.361-3.706
	c0.376-15.21,2.577-30.31,0.793-45.666c-1.297-11.167-0.431-22.592-0.43-33.902c0.001-12.926-0.296-25.87,0.26-38.774
	c1.189-27.554,2.791-55.091,4.336-82.628c0.596-10.623,1.445-21.233,2.264-31.842c1.51-19.536,2.939-39.08,4.678-58.596
	c1.292-14.498,3.079-28.951,4.541-43.435c1.568-15.536,3.579-31.056,4.379-46.635c1.171-22.795,1.42-45.637,2.095-68.458
	c0.374-12.631,1.09-25.259,1.156-37.891c0.078-14.91-0.521-29.823-0.57-44.736c-0.067-20.638,0.108-41.277,0.175-61.915
	c0.012-3.579,0.002-7.159,0.002-11.278c-4.181-0.657-7.381-1.392-10.618-1.632c-28.597-2.123-57.204-2.463-85.731,0.801
	c-22.108,2.529-44.163,5.539-66.228,8.435c-22.75,2.985-45.565,5.592-68.199,9.299c-18.032,2.953-35.825,7.355-53.741,11.034
	c-11.064,2.271-22.175,4.31-33.235,6.597c-23.169,4.791-46.617,6.945-70.228,7.398c-20.271,0.389-40.504-0.215-60.566-3.568
	c-6.539-1.093-13.137-1.921-19.593-3.381c-1.929-0.436-4.904-2.654-4.858-3.968c0.076-2.172,1.727-4.937,3.569-6.286
	c7.875-5.767,15.688-8.281,26.526-6.193c21.838,4.207,44.223,5.026,66.609,3.659c20.255-1.238,40.256-3.947,60.2-7.607
	c42.52-7.803,85.052-15.574,127.695-22.656c16.689-2.772,33.716-3.446,50.538-5.497c8.53-1.04,16.911-3.253,25.423-4.499
	c6.878-1.007,13.841-1.698,20.786-1.935c16.253-0.555,32.517-0.926,48.779-1.037c12.288-0.084,24.591,0.103,36.867,0.646
	c7.428,0.328,13.586,0.525,19.478-6.333c8.233-9.583,19.643-6.084,23.636,6.091c1.136,3.463,2.088,7.067,2.44,10.673
	c0.199,2.038-0.299,5.069-1.674,6.188c-9.24,7.518-9.13,18.393-9.406,28.342c-0.821,29.582,0.472,59.243-0.95,88.783
	c-2.062,42.84-5.749,85.602-8.799,128.393c-1.42,19.925-2.858,39.851-4.493,59.759c-1.769,21.54-4.2,43.034-5.578,64.597
	c-1.952,30.542-3.689,61.114-4.641,91.7c-1.439,46.263-0.726,92.54,0.796,138.801c0.206,6.266-0.408,12.163-2.906,18.388
	c-2.174,5.417-1.17,12.417-0.507,18.603c1.596,14.887-0.769,18.555-15.645,21.988c-6.07,1.401-11.54,2.094-15.649-4.597
	c-2.761-4.495-8.344-4.474-12.809-3.328c-24.877,6.384-49.641,0.892-74.466-0.022c-19.888-0.732-39.716-1.382-59.701,0.932
	c-26.253,3.039-51.181,11.484-76.925,16.354c-23.833,4.508-47.299,10.979-71.694,12.636c-20.516,1.394-40.999,3.593-61.405,6.164
	c-16.436,2.071-32.572-0.173-48.795-1.677c-5.281-0.489-10.621-1.038-15.754-2.293c-9.705-2.373-13.439-6.761-11.948-13.03
	c1.223-5.139,10.437-10.817,16.805-10.086c5.593,0.642,11.127,1.809,16.721,2.441c13.846,1.563,27.643,3.177,41.678,1.495
	c31.042-3.72,62.169-6.746,93.196-10.581c11.525-1.424,22.883-4.244,34.292-6.552c29.985-6.067,59.928-12.348,89.957-18.185
	c5.789-1.125,11.908-1.015,17.85-0.8c19.942,0.719,39.898,1.375,59.799,2.762c17.431,1.215,34.816,4.593,51.878-2.4
	C486.278,745.116,489.484,745.365,491.96,745.055z"/>
<path class="st1" d="M708.225,637.355c-3.714,2.149-6.413,4.141-9.423,5.38c-13.546,5.574-22.655,0.594-25.553-13.786
	c-6.246-30.993-8.026-62.56-12.085-93.834c-1.282-9.88-2.9-19.726-4.683-29.53c-3.492-19.199-7.209-38.357-10.822-57.534
	c-0.184-0.976-0.675-2.162-0.323-2.929c3.203-6.979,2.054-14.198,2.096-21.495c0.021-3.651,3.126-8.032,6.063-10.762
	c5.91-5.493,13.316-8.583,21.291-10.362c20.697-4.615,41.413-9.177,61.992-14.281c10.619-2.634,20.829-6.927,31.46-9.495
	c17.408-4.205,34.968-7.822,52.548-11.253c6.802-1.327,13.824-1.641,20.767-2.088c3.945-0.254,7.007-1.236,8.975-5.033
	c1.367-2.637,3.351-4.962,5.134-7.372c3.478-4.699,8.127-6.563,13.95-5.896c5.864,0.671,7.326,5.136,8.594,9.7
	c3.814,13.728,7.49,27.493,11.284,41.226c2.997,10.846,6.33,21.605,9.091,32.51c5.458,21.557,10.58,43.198,15.919,64.786
	c7.562,30.577,13.258,61.587,22.942,91.694c2.897,9.008,7.296,17.008,10.974,25.456c5.684,13.057-1.027,24.92-15.267,24.161
	c-25.55-1.363-50.216,3.636-75.07,8.161c-15.03,2.737-30.284,4.344-45.487,6.006c-29.354,3.21-57.871,9.74-84.099,23.501
	c-14.126,7.411-29.664,9.555-44.32,14.815c-5.017,1.801-10.229-5.165-7.303-10.589c4.608-8.541,7.879-18.277,18.78-22.16
	c26.272-9.36,51.653-21.363,79.12-27.138c14.292-3.005,28.756-5.238,43.191-7.511c14.441-2.274,28.943-4.153,43.416-6.227
	c10.183-1.459,20.386-2.811,30.534-4.489c6.124-1.013,12.739-1.048,17.8-7.092c-1.613-6.985-3.203-14.414-5.058-21.776
	c-2.998-11.902-6.389-23.708-9.227-35.647c-7.073-29.757-13.609-59.645-20.998-89.322c-4.006-16.089-9.35-31.844-14.019-47.77
	c-1.308-4.46-2.359-8.996-3.535-13.495c-1.189-4.547-4.348-6.433-8.834-6.533c-15.026-0.334-29.812,0.725-44.254,5.58
	c-5.925,1.992-12.541,1.871-18.546,3.689c-23.178,7.019-46.104,14.901-69.389,21.529c-14.682,4.179-29.841,6.677-44.774,9.987
	c-3.768,0.835-7.486,1.891-12.197,3.093c2.466,1.826,3.834,3.415,5.546,4.008c8.125,2.814,10.21,9.393,11.576,16.906
	c5.467,30.072,11.693,60.017,16.572,90.181c2.964,18.322,3.549,37.018,6.049,55.43c1.196,8.811,4.365,17.352,6.629,26.019
	C706.168,629.279,707.054,632.79,708.225,637.355z"/>
<path class="st1" d="M1638.46,574.4c3.526-3.799,5.921-7.113,9.005-9.56c7.657-6.078,14.995-3.603,17.295,5.795
	c0.77,3.144,0.991,6.662,0.467,9.846c-5.828,35.461-11.014,71.057-18.084,106.274c-5.744,28.613-11.411,57.359-21.041,85.071
	c-1.184,3.407-1.505,7.114-2.377,11.426c2.499,1.417,4.948,2.965,7.534,4.236c4.083,2.006,6.739,4.929,8.36,9.344
	c4.338,11.817,1.387,19.089-10.45,23.73c-4.951,1.942-9.972,4.109-15.157,4.918c-4.062,0.634-8.589-0.083-12.623-1.217
	c-10.169-2.856-20.113-6.509-30.263-9.442c-22.922-6.624-46.456-7.803-70.129-7.147c-19.597,0.543-39.181,1.608-58.78,1.982
	c-21.573,0.412-43.081-0.851-64.457-3.989c-2.942-0.432-5.957-0.867-8.9-0.685c-6.029,0.373-9.425-2.255-10.575-7.825
	c6.902-16.686,19.902-20.31,35.995-17.607c26.996,4.534,54.219,5.929,81.542,5.542c8.945-0.127,17.877-1.241,26.821-1.327
	c18.629-0.179,37.28-0.457,55.884,0.281c9.218,0.366,18.367,2.797,27.514,4.472c6.988,1.28,8.282,0.888,9.997-5.904
	c6.264-24.799,12.937-49.519,18.27-74.523c6.093-28.568,11.009-57.39,16.213-86.143c0.94-5.197,0.799-10.589,1.18-16.234
	c-8.729-7.4-19.706-7.704-30.04-9.108c-22.034-2.992-44.17-5.236-66.278-7.665c-6.285-0.691-12.64-0.759-18.922-1.47
	c-10.571-1.196-21.119-2.611-31.66-4.054c-17.092-2.341-34.133-5.113-51.271-7.033c-8.279-0.928-9.74,0.683-11.912,8.372
	c-2.168,7.677-4.293,15.369-6.25,23.102c-8.891,35.123-18.25,70.141-26.327,105.452c-3.746,16.379-9.96,32.341-9.598,49.689
	c0.081,3.861-3.424,8.648-6.626,11.49c-3.323,2.95-8.133,4.576-12.56,5.851c-7.214,2.078-11.905-2.154-10.928-9.517
	c1.737-13.099,4.468-25.889,8.648-38.557c4.759-14.422,7.526-29.507,11.032-44.334c7.329-30.993,14.389-62.051,21.953-92.986
	c2.814-11.508,6.605-22.787,10.206-34.089c1.374-4.31,2.765-8.9,5.366-12.478c6.432-8.85,12.431-10.375,22.61-6.777
	c22.055,7.797,44.895,12.482,67.933,15.734c36.489,5.15,73.113,9.35,109.695,13.831
	C1617.311,572.458,1627.898,573.334,1638.46,574.4z"/>
<path class="st1" d="M416.01,1309.785c-3.713,0.779-6.508,1.263-9.25,1.96c-7.668,1.948-16.366-4.128-17.301-11.981
	c-0.579-4.862-1.22-9.748-2.321-14.51c-1.549-6.698-2.27-14.084-5.74-19.695c-3.132-5.063-4.325-10.249-5.862-15.572
	c-6.382-22.118-12.825-44.219-19.007-66.394c-2.934-10.525-5.09-21.266-8.033-31.788c-3.548-12.682-7.64-25.211-11.34-37.851
	c-2.307-7.88-4.462-15.81-6.429-23.781c-1.519-6.158,5.751-17.366,12.759-19.715c2.492-0.835,5.219-1.184,7.86-1.316
	c6.403-0.319,8.491,1.998,10.097,10.679c1.796,9.708,2.866,10.925,12.339,9.494c14.421-2.178,28.7-5.281,43.111-7.537
	c20.042-3.138,37.686-12.146,55.497-21.158c20.726-10.487,41.915-20.057,62.887-30.058c5.7-2.719,11.743-4.977,16.892-8.517
	c4.521-3.108,8.537-7.322,11.847-11.742c6.503-8.685,15.3-10.355,24.204-4.151c4.548,3.169,9.459,5.817,14.672,8.984
	c-1.305,1.879-2.049,4.155-3.553,4.904c-6.271,3.123-6.041,7.95-4.271,13.461c7.627,23.749,15.229,47.506,22.859,71.255
	c0.713,2.219,1.728,4.351,2.315,6.598c7.805,29.87,15.509,59.765,23.358,89.623c2.11,8.025,4.695,15.924,6.915,23.922
	c1.005,3.619,2.821,5.96,6.876,5.91c0.992-0.012,2.017,0.052,2.973,0.295c6.651,1.687,14.251,9.338,14.055,15.371
	c-0.217,6.676-5.279,10.625-10.731,13.244c-8.633,4.147-18.517,5.749-27.214,2.957c-7.339-2.356-13.316-0.86-19.144,1.523
	c-26.431,10.808-52.536,22.415-78.92,33.343c-9.463,3.92-19.349,6.841-29.1,10.04c-15.756,5.169-31.382,10.871-47.402,15.049
	c-11.812,3.081-24.11,4.634-36.292,5.848c-9.543,0.951-10.913-1.272-9.65-10.713C416.259,1315.576,416.01,1313.315,416.01,1309.785z
	 M369.634,1112.85c0.802,3.353,1.185,5.271,1.72,7.147c7.829,27.458,15.825,54.869,23.467,82.378
	c4.618,16.624,8.092,33.584,13.182,50.053c5.156,16.684,8.344,34.396,20.978,48.238c15.278-0.682,30.516-1.807,45.873-5.763
	c28.038-7.223,54.687-17.925,81.442-28.523c15.772-6.248,31.388-12.89,47.089-19.32c4.608-1.887,9.318-3.533,13.888-5.507
	c4.364-1.885,5.422-4.869,3.918-9.69c-2.938-9.416-4.966-19.111-7.689-28.599c-1.453-5.062-3.948-9.831-5.31-14.91
	c-3.001-11.186-5.273-22.572-8.406-33.718c-4.722-16.801-9.971-33.452-14.899-50.196c-1.583-5.379-2.484-10.981-4.353-16.248
	c-3.763-10.605-8.05-21.022-11.968-31.574c-1.601-4.311-2.584-8.854-4.246-13.138c-2.175-5.606-3.519-6.29-8.867-4.048
	c-4.573,1.917-8.814,4.609-13.273,6.815c-20.249,10.02-40.378,20.298-60.833,29.879c-16.477,7.718-33.139,15.148-50.125,21.642
	c-16.456,6.291-33.716,9.932-51.28,11.968C376.781,1110.102,373.749,1111.571,369.634,1112.85z"/>
<path class="st1" d="M98.754,351.977c-3.115-1.13-6.11-2.533-9.26-3.278c-3.74-0.884-6.56-3.073-6.165-6.631
	c0.274-2.475,2.537-5.491,4.772-6.833c5.046-3.031,10.305-4.582,16.828-4.42c26.212,0.649,52.475,0.717,78.676-0.218
	c18.908-0.675,37.774-3.027,56.604-5.127c8.897-0.992,17.67-3.121,26.491-4.782c21.811-4.107,43.629-8.178,65.418-12.397
	c8.164-1.581,16.243-3.599,24.386-5.296c17.497-3.646,34.953-7.525,52.536-10.706c12.401-2.244,24.952-3.783,37.492-5.102
	c10.572-1.113,21.308-0.858,31.821-2.302c11.591-1.592,17.375,6.751,24.209,12.977c3.391,3.089,2.121,9.461-2.359,10.915
	c-10.924,3.546-11.997,11.291-11.855,20.933c0.149,10.149-1.33,20.312-1.449,30.477c-0.199,16.958,0.24,33.922,0.183,50.882
	c-0.053,15.904-0.238,31.812-0.766,47.705c-0.098,2.942-1.494,7.796-3.34,8.365c-6.089,1.877-12.335,6.572-18.984,2.503
	c-1.858-1.137-3.055-4.374-3.376-6.804c-0.867-6.554-1.112-13.191-1.575-19.798c-0.159-2.266-0.231-4.537-0.387-7.721
	c-2.988,0.346-5.702,0.072-7.901,1.008c-16.984,7.235-35.461,8.459-53.014,13.392c-13.1,3.681-26.306,7.036-39.569,10.083
	c-24.293,5.582-48.678,10.756-72.995,16.235c-26.785,6.036-54.04,7.472-81.335,8.33c-6.915,0.218-13.865-0.92-20.807-1.268
	c-2.965-0.149-6.077-0.387-8.908,0.297c-18.061,4.366-35.938,9.597-54.137,13.243c-8.925,1.788-18.444,1.374-27.631,0.851
	c-7.184-0.408-9.247-6.9-10.826-12.753c-0.76-2.819-0.922-5.989-0.537-8.892c1.166-8.78,3.296-17.461,4.019-26.266
	c1.244-15.169,5.909-29.908,4.892-45.397c-0.474-7.219,1.121-14.56,1.575-21.859c0.204-3.276,0.241-6.63-0.219-9.868
	C89.638,361.055,90.247,359.117,98.754,351.977z M113.283,469.102c3.176,0,5.18,0.286,7.076-0.047
	c10.989-1.935,20.902-6.451,29.423-13.593c3.74-3.135,6.91-3.81,11.725-2.264c12.024,3.861,24.297,7.075,37.021,2.639
	c2.18-0.76,4.455-1.515,6.73-1.688c9.124-0.695,18.457-2.983,26.2,4.979c1.672,1.719,5.583,2.101,8.323,1.806
	c18.405-1.986,36.861-3.77,55.125-6.705c17.363-2.79,34.508-6.927,51.758-10.427c18.223-3.698,36.362-7.955,54.715-10.832
	c16.97-2.661,33.98-7.199,51.448-2.943c1.957,0.477,4.25-0.423,6.677-0.719c0-41.894,0-82.973,0-124.845
	c-5.94-0.851-11.265-2.729-16.288-2.12c-13.835,1.676-27.657,3.867-41.274,6.823c-20.154,4.374-40.104,9.679-60.183,14.406
	c-15.852,3.731-31.703,7.517-47.672,10.691c-24.125,4.795-48.194,10.494-72.576,13.21c-28.382,3.162-57.076,3.515-85.634,5.111
	c-3.863,0.216-7.719,0.574-11.874,0.889c-0.854,5.983-1.985,10.878-2.187,15.81c-1.14,27.889-4.172,55.566-8.414,83.144
	C112.573,457.818,113.283,463.45,113.283,469.102z"/>
<path class="st1" d="M3387.151,1266.052c2.594,1.479,6.223,3.603,9.903,5.632c3.141,1.732,7.515,2.813,6.198,7.643
	c-1.307,4.796-5.845,5.242-9.815,4.916c-7.589-0.623-15.143-1.754-22.687-2.843c-21.042-3.037-42.023-6.548-63.116-9.163
	c-35.265-4.372-70.574-8.429-105.917-12.121c-12.524-1.308-25.212-0.965-37.8-1.761c-6.586-0.417-13.193-1.33-19.642-2.712
	c-2.62-0.561-6.892-3.025-6.846-4.513c0.111-3.606,1.305-8.608,3.895-10.403c4.998-3.465,11.076-6.219,17.048-7.211
	c7.112-1.182,14.618-0.648,21.89-0.068c16.229,1.295,32.5,2.503,48.604,4.806c22.612,3.234,45.07,7.536,67.63,11.158
	c8.494,1.363,17.138,1.801,25.624,3.2c11.426,1.883,22.76,4.322,34.149,6.435c2.235,0.415,4.544,0.429,7.348,0.675
	c21.093-67.069,36.027-135.387,52.133-204.475c-3.758-1.581-8.046-3.082-12.06-5.123c-21.711-11.043-44.829-18.471-67.747-26.374
	c-12.524-4.318-25.126-8.693-38.02-11.581c-16.07-3.598-32.198-4.292-47.356,4.858c-3.442,2.078-8.341,1.743-13.609,2.709
	c-2.809,9.146-5.766,18.622-8.629,28.128c-7.383,24.516-14.7,49.053-22.088,73.567c-9.013,29.906-18.598,59.654-24.343,90.445
	c-0.992,5.321-2.761,10.028-8.665,12.365c-9.758,3.862-18.421-0.876-17.601-11.309c1.011-12.857,2.744-25.862,6.076-38.291
	c6.967-25.986,15.054-51.678,22.939-77.411c5.639-18.401,11.904-36.611,17.502-55.024c4.151-13.654,8.17-27.386,11.301-41.297
	c1.859-8.26,6.479-12.62,14.004-15.166c6.795-2.299,13.164-4.637,19.351,1.854c1.583,1.661,5.65,2.096,8.209,1.507
	c27.569-6.347,53.386,0.06,78.83,10.091c13.284,5.237,26.815,9.855,40.042,15.226c13.813,5.609,27.418,11.733,41.068,17.737
	c6.711,2.952,13.064,6.342,20.816,2.335c2.626-1.358,6.602-0.829,9.785-0.231c6.28,1.181,7.906,4.269,6.734,10.684
	c-1.238,6.779-1.206,13.886-8.151,18.387c-1.802,1.167-2.329,4.652-2.979,7.191c-5.774,22.55-11.393,45.139-17.163,67.69
	c-3.783,14.786-7.646,29.554-11.644,44.284c-5.732,21.12-11.473,42.239-17.527,63.267
	C3392.955,1252.274,3390.05,1258.486,3387.151,1266.052z"/>
<path class="st1" d="M2106.722,1187.906c4.497-13.107-1.366-25.135-5.135-37.411c-0.75-2.444-2.345-4.865-4.152-6.706
	c-6.114-6.228-8.76-13.961-10.136-22.235c-5.606-33.733-10.973-67.507-16.715-101.217c-2.65-15.561-6.302-30.954-8.814-46.534
	c-1.142-7.082-1.117-14.459-0.719-21.653c0.465-8.403,10.925-17.316,19.305-18.767c39.588-6.853,79.977-9.733,118.016-24.35
	c14.863-5.711,30.037-10.778,45.375-15.034c14.999-4.161,30.348-7.111,45.624-10.191c6.173-1.245,10.866-3.583,14.55-9.065
	c5.239-7.797,10.313-7.143,14.896,1.223c0.946,1.726,1.756,3.625,2.15,5.542c4.485,21.821,8.873,43.662,13.302,65.495
	c0.395,1.946,0.305,4.387,1.457,5.716c6.384,7.364,6.023,16.665,7.6,25.345c2.786,15.33,4.546,30.867,7.844,46.078
	c5.475,25.252,7.883,50.94,12.007,76.377c1.274,7.858,3.719,15.643,3.973,23.515c0.239,7.385-0.088,15.613-3.153,22.047
	c-3.049,6.4-10.327,10.497-18.078,11.053c-9.89,0.71-19.904,1.643-29.73,0.842c-17.05-1.39-34.23-1.773-50.857,1.062
	c-21.768,3.712-43.165,9.831-64.518,15.66c-15.243,4.161-30.079,9.788-45.233,14.304c-9.5,2.831-19.24,4.864-28.893,7.164
	C2118.251,1198.175,2116.567,1197.443,2106.722,1187.906z M2295.708,901.351c-11.137,2.072-21.284,3.56-31.224,5.919
	c-10.329,2.451-20.478,5.672-30.667,8.689c-9.525,2.819-19.11,5.497-28.467,8.806c-12.184,4.309-23.87,10.325-36.303,13.564
	c-24.048,6.266-48.425,11.311-72.757,16.432c-9.472,1.993-11.943,4.47-10.484,14.152c1.288,8.549,2.863,17.056,4.34,25.576
	c4.482,25.862,8.719,51.771,13.586,77.561c2.209,11.707,4.364,23.723,8.885,34.627c6.882,16.598,13.176,33.266,17.402,50.721
	c1.734,7.164,3.027,8.822,10.155,7.993c11.687-1.359,23.973,1.689,35.06-4.526c1.371-0.769,3.264-0.554,4.874-0.958
	c9.326-2.343,18.629-4.782,27.963-7.094c7.712-1.91,15.407-3.944,23.198-5.467c11.736-2.293,23.493-4.622,35.344-6.137
	c13.476-1.723,27.047-2.824,40.609-3.696c8.157-0.525,16.376-0.096,24.849-0.096c0-11.796,1.529-22.651-0.51-32.789
	c-1.487-7.393-3.125-14.664-3.53-22.209c-0.089-1.655-0.443-3.295-0.659-4.944c-2.311-17.712-5.484-35.365-6.72-53.151
	c-1.752-25.209-3.949-50.262-10.288-74.802c-1.993-7.717-3.564-15.557-5.873-23.176
	C2302.102,918.456,2299.051,910.767,2295.708,901.351z"/>
<path class="st1" d="M2252.077,297.729c-6.398,0-11.984-0.221-17.548,0.038c-23.605,1.099-47.193,2.643-70.808,3.412
	c-13.577,0.442-27.197-0.592-40.789-0.4c-12.918,0.182-25.825,1.101-38.737,1.681c-5.86,0.263-9.102,3.159-9.872,9.102
	c-1.23,9.489-2.795,18.933-4.073,28.416c-1.732,12.839-3.467,25.68-4.944,38.55c-1.971,17.17-3.684,34.37-5.532,51.554
	c-0.781,7.262-1.752,14.506-2.408,21.78c-1.038,11.492-1.806,23.009-2.892,34.497c-0.168,1.781-1.043,4.612-2.227,4.995
	c-6.764,2.192-13.522,5.553-20.955,2.518c-3.988-1.629-5.264-4.708-4.987-8.798c0.853-12.604,1.466-25.228,2.496-37.817
	c0.786-9.609,1.948-19.193,3.144-28.762c3.38-27.044,6.873-54.074,10.303-81.112c0.957-7.54,2.28-15.066,2.678-22.638
	c0.73-13.873,10.053-20.906,20.58-27.109c3.709-2.185,8.034-3.488,11.379-6.09c4.768-3.71,10.085-5.014,15.738-5.025
	c10.906-0.02,21.814,0.374,32.72,0.627c11.969,0.278,23.939,0.541,35.906,0.902c18.274,0.552,36.382-1.922,54.574-2.821
	c9.917-0.49,19.89-0.065,29.831,0.188c4.807,0.122,8.363-1.207,10.448-5.873c0.768-1.719,2.217-3.223,3.613-4.554
	c4.951-4.716,10.745-6.891,17.343-4.118c6.514,2.738,9.8,9.263,8.451,17.536c-2.792,17.116-4.776,34.29-4.057,51.633
	c1.97,47.554,0.161,95.049-1.721,142.552c-0.381,9.617-1.584,19.634,0.529,28.789c1.863,8.075,3.197,16.099,4.221,24.258
	c1.348,10.742-0.13,12.856-10.72,14.867c-10.819,2.055-15.591-0.67-17.839-10.189c-2.329-9.86-2.301-10.678-12.18-11.016
	c-14.916-0.51-29.903-0.239-44.808,0.614c-15.229,0.871-30.594,1.803-45.524,4.667c-11.803,2.264-23.548,2.998-35.406,3.849
	c-20.421,1.466-40.524-1.332-60.672-3.828c-6.162-0.763-12.379-1.095-18.528-1.937c-2.206-0.302-4.457-1.241-6.385-2.394
	c-3.378-2.021-4.248-5.076-2.096-8.517c4.432-7.089,10.089-12.644,19.122-12.478c5.966,0.11,11.958,0.661,17.868,1.506
	c25.412,3.634,50.799,5.43,76.512,2.827c35.35-3.579,70.791-6.262,107.724-9.462
	C2254.457,429.792,2257.848,364.384,2252.077,297.729z"/>
<path class="st1" d="M3259.893,270.726c0,24.254-0.021,48.509,0.026,72.763c0.006,2.982,0.434,5.96,0.555,8.944
	c0.243,6.034,0.718,12.015-6.346,15.278c-1.76,0.813-2.958,3.514-3.763,5.599c-3.099,8.025-9.398,10.723-17.322,10.946
	c-1.328,0.037-2.752,0.182-3.979-0.207c-11.569-3.669-23.026-0.215-34.545,0.296c-18.586,0.825-37.2,1.827-55.789,1.6
	c-29.946-0.366-59.876-2.113-89.822-2.436c-22.613-0.243-45.242,0.731-67.86,1.339c-24.95,0.67-49.89,1.698-74.842,2.275
	c-20.26,0.468-40.53,0.544-60.796,0.672c-2.94,0.019-6.18-0.011-8.731-1.199c-1.934-0.901-4.18-3.636-4.254-5.631
	c-0.608-16.238-0.821-32.493-0.984-48.745c-0.127-12.61,0.125-25.225-0.04-37.834c-0.147-11.253-0.546-22.505-1.031-33.748
	c-0.141-3.267-1.032-6.496-1.456-9.759c-1.061-8.175,1.799-12.138,9.279-16.065c7.767-4.078,15.565-4.291,24.053-3.737
	c9.913,0.646,19.931-0.416,29.906-0.632c23.229-0.504,46.459-0.895,69.687-1.425c23.255-0.53,46.504-1.437,69.761-1.689
	c22.567-0.245,45.143-0.019,67.712,0.274c27.579,0.357,55.192,0.325,82.711,1.873c10.05,0.565,19.25,0.852,27.418-5.277
	c6.276-4.709,11.992-10.16,17.986-15.248c3.289-2.792,6.492-5.717,9.991-8.223c6.159-4.412,12.538-2.966,15.264,4.089
	c2.495,6.455,4.618,13.306,5.334,20.146c1.59,15.189,2.196,30.481,3.203,45.73C3260.777,270.704,3260.335,270.715,3259.893,270.726z
	 M3112.467,368.674c0.005,0.131,0.01,0.262,0.014,0.393c10.29,0,20.58-0.092,30.868,0.017c29.841,0.317,59.743,1.686,88.808-7.531
	c4.454-1.412,6.868-3.244,6.69-8.216c-0.319-8.937,0.13-17.912-0.427-26.828c-1.387-22.191,2.341-44.459-1.382-66.631
	c-1.247-7.427-0.726-15.144-1.871-22.596c-1.212-7.894-4.153-8.618-10.38-3.653c-10.508,8.379-22.778,14.142-35.892,11.397
	c-12.928-2.706-25.772-1.365-38.567-2.896c-8.232-0.985-16.542-1.722-24.825-1.813c-23.243-0.255-46.498-0.502-69.733-0.037
	c-29.252,0.584-58.493,1.781-87.732,2.894c-21.588,0.822-43.158,2.095-64.748,2.855c-12.927,0.455-25.876,0.48-38.813,0.37
	c-8.313-0.07-10.544,1.693-11.026,10.117c-0.076,1.328-0.072,2.662-0.094,3.993c-0.412,25.269-0.863,50.537-1.206,75.806
	c-0.095,6.977-0.302,13.996,0.32,20.927c0.812,9.053,3.006,10.983,11.916,11.243c10.954,0.32,21.922,0.449,32.88,0.311
	c23.896-0.299,47.79-0.778,71.684-1.261c20.944-0.423,41.892-1.514,62.828-1.295C3058.68,366.521,3085.571,367.816,3112.467,368.674
	z"/>
<path class="st1" d="M30.812,152.559c6.918,3.793,7.155,10.041,7.457,15.911c1.415,27.549,2.94,55.099,3.761,82.669
	c0.899,30.184,1.341,60.389,1.481,90.588c0.139,29.937-0.145,59.881-0.619,89.815c-0.436,27.568-1.101,55.139-2.164,82.689
	c-1.039,26.927-2.99,53.819-3.999,80.746c-0.658,17.569,0.044,35.189-0.579,52.76c-0.671,18.92-2.4,37.801-3.255,56.717
	c-0.809,17.892-1.101,35.808-1.58,53.715c-0.133,4.974,0.169,9.975-0.236,14.922c-0.812,9.919-16.566,19.676-25.915,15.864
	c-2.011-0.82-4.311-3.732-4.457-5.822c-0.528-7.544-1.319-15.362,0.073-22.68c2.197-11.551,2.713-22.962,2.234-34.639
	c-0.335-8.159-0.618-16.488,3.628-24.229c1.261-2.298,0.917-5.776,0.55-8.614c-1.152-8.891-2.136-17.602,1.128-26.413
	c1.185-3.199,0.869-7.216,0.354-10.731c-1.401-9.552-1.548-18.923-0.526-28.632c1.598-15.174,1.432-30.531,2.111-45.807
	c0.382-8.577,0.963-17.145,1.446-25.717c0.037-0.663,0.095-1.344-0.008-1.992c-3.206-20.175,2.295-40.129,1.484-60.283
	c-0.561-13.932,0.065-27.922,0.459-41.877c0.328-11.613,1.419-23.21,1.585-34.823c0.27-18.871-0.158-37.752,0.143-56.622
	c0.157-9.89,1.704-19.761,1.78-29.647c0.093-12.181-0.791-24.366-1.068-36.554c-0.253-11.162-0.078-22.336-0.414-33.495
	c-0.588-19.476-1.48-38.942-2.131-58.417c-0.331-9.913-0.52-19.834-0.576-29.752c-0.042-7.512,3.892-12.316,10.739-15.158
	C26.071,156.067,28.117,154.294,30.812,152.559z"/>
<path class="st1" d="M90.803,681.165c0.574-10.489,1.308-20.972,1.688-31.469c0.77-21.243,1.343-42.492,2.008-63.739
	c0.11-3.51-0.944-5.782-4.164-8.178c-6.794-5.058-6.629-8.798,0.262-14.141c9.095-7.051,18.748-11.555,31.25-9.682
	c16.317,2.444,32.428-1.634,48.283-5.301c12.543-2.901,24.855-6.797,37.292-10.168c11.216-3.04,22.419-6.146,33.712-8.874
	c6.449-1.558,13.035-2.654,19.616-3.539c10.022-1.348,16.682,1.595,19.252,8.503c0.717,1.928,1.01,4.833,0.057,6.428
	c-5.581,9.338-5.792,19.84-6.391,30.033c-1.365,23.235-1.863,46.521-2.833,69.781c-0.137,3.292-0.912,6.561-1.447,9.832
	c-1.012,6.189-3.105,12.415-2.854,18.548c0.375,9.138-5.409,13.58-11.825,16.515c-6.576,3.008-14.057,3.064-21.513,1.08
	c-5.65-1.504-11.716-2.347-17.543-2.121c-18.332,0.711-36.143,4.455-53.883,9.28c-15.893,4.323-31.867,8.602-48.837,8.004
	C98.508,701.45,89.783,698.357,90.803,681.165z M125.779,580.366c0,8.513,0.279,15.787-0.057,23.033
	c-0.754,16.26-2.084,32.497-2.645,48.762c-0.319,9.226,0.643,9.663,9.812,7.965c20.841-3.861,41.653-7.879,62.519-11.598
	c13.355-2.38,26.786-4.339,40.851-6.594c1.465-5.188,3.552-10.445,4.346-15.89c1.182-8.111,1.686-16.345,2.057-24.545
	c0.721-15.937,1.167-31.886,1.651-47.833c0.027-0.898-0.642-1.817-1.322-3.611c-3.105,0.419-6.423,0.449-9.482,1.354
	c-11.772,3.482-23.457,7.257-35.184,10.896c-8.545,2.652-17.065,5.395-25.667,7.849c-8.271,2.359-16.579,4.638-24.971,6.505
	C140.938,578.162,134.039,578.998,125.779,580.366z"/>
<path class="st1" d="M1202.978,845.308c5.005-8.494,9.767-16.331,14.261-24.319c1.805-3.208,0.66-6.019-2.865-7.115
	c-4.106-1.276-8.326-2.309-12.569-2.997c-16.737-2.714-33.745-4.308-49.358-11.646c-4.418-2.077-8.494-4.882-13.322-7.7
	c2.028-4.788,3.282-8.927,5.413-12.55c5.623-9.559,12.112-11.724,21.71-6.15c13.94,8.094,29.16,10.692,44.738,12.51
	c5.273,0.615,10.545,1.418,15.733,2.529c8.652,1.853,14.827,7.6,19.553,14.529c1.788,2.622,2.11,7.021,1.532,10.338
	c-1.904,10.932-6.513,20.852-13.057,29.85c-7.037,9.675-13.785,19.573-21.131,29.007c-7.125,9.152-14.543,18.12-22.408,26.638
	c-6.159,6.671-13.725,11.74-22.982,13.197c-2.975,0.468-6.145-0.306-9.318-0.518c2.837-20.309,17.491-31.962,28.585-47.347
	c-16.856-0.443-32.821-1.282-48.781-1.186c-24.939,0.151-49.886,1.632-74.808,1.229c-19.569-0.316-39.25-1.613-58.614-4.362
	c-16.794-2.384-31.976-9.668-46.407-19.299c-17.035-11.369-28.981-27.026-42.1-42.038c-12.442-14.237-19.637-31.233-28.326-47.445
	c-6.016-11.224,4.35-25.973,17.229-25.555c5.765,0.187,9.544,4.243,10.929,8.969c4.592,15.668,13.984,29,22.768,41.94
	c14.126,20.809,31.058,39.351,55.28,50.376c20.377,9.275,41.661,12.416,63.092,12.539c36.202,0.208,72.42-2.116,108.629-3.444
	c2.644-0.097,5.278-0.686,7.9-1.143c8.667-1.509,16.537-0.971,22.19,7.201C1197.613,842.992,1200.168,843.658,1202.978,845.308z"/>
<path class="st1" d="M487.247,504.599c-0.549,2.857-0.538,3.931-0.955,4.801c-6.315,13.176-3.879,27.393-5.006,41.19
	c-1.814,22.197-2.556,44.464-7.005,66.444c-3.161,15.615-4.738,31.56-6.724,47.395c-0.4,3.183,0.447,6.546,0.879,9.805
	c0.836,6.304-0.862,10.076-6.487,13.18c-3.192,1.761-6.483,3.457-9.916,4.645c-7.049,2.44-11.047,0.018-12.399-7.502
	c-1.039-5.779-5.796-6.816-10.077-8.02c-2.782-0.782-6.002-0.559-8.937-0.15c-16.42,2.288-32.777,5.071-49.227,7.1
	c-15.792,1.947-31.647,3.572-47.523,4.563c-7.884,0.492-9.631-3.093-7.065-10.85c2.452-7.413,7.717-12.422,14.235-15.862
	c3.724-1.965,4.962-4.21,5.869-8.2c2.289-10.079,3.568-20.025,3.735-30.471c0.279-17.473,2.686-34.907,3.98-52.373
	c0.442-5.964,0.226-11.976,0.313-17.966c0.069-4.723-2.639-6.6-6.952-6.45c-2.63,0.091-5.249,0.61-7.863,1.005
	c-2.615,0.396-5.21,1.184-7.827,1.25c-3.891,0.098-8.439,0.993-10.529-3.647c-1.981-4.4,0.777-8.217,3.599-10.673
	c4.148-3.611,8.933-7.383,14.075-8.785c13.736-3.745,27.748-6.577,41.759-9.192c18.919-3.531,37.802-6.453,55.841-14.129
	c10.785-4.589,22.979-6.061,34.665-8.266c6.992-1.319,14.139-0.189,20.023,4.154C484.352,499.532,485.939,502.879,487.247,504.599z
	 M375.65,538.357c-0.937,13.732-1.78,26.311-2.659,38.888c-0.857,12.249-1.464,24.525-2.711,36.735
	c-1.249,12.233-3.154,24.398-4.983,38.192c26.681-2.057,51.635-3.981,76.347-5.886c0.707-1.505,1.31-2.359,1.521-3.301
	c6.614-29.537,9.378-59.52,10.328-89.71c0.25-7.953-0.006-15.955,0.828-23.844c0.538-5.087,2.639-10.008,4.442-16.44
	c-4.133,0.273-7.508-0.221-10.327,0.809c-11.107,4.059-22.036,8.606-33.038,12.952c-3.653,1.443-7.243,3.136-11.01,4.182
	C395.144,533.499,385.815,535.754,375.65,538.357z"/>
<path class="st1" d="M1918.995,1034.909c-5.628-9.026-16.059-9.642-24.77-13.44c-8.774-3.825-17.735-7.222-26.78-10.874
	c-2.37-9.648,2.362-16.427,9.449-21.322c5.971-4.124,12.411-2.158,18.84,0.887c11.386,5.393,23.231,9.811,34.719,15.001
	c4.485,2.026,8.447,5.176,12.782,7.571c11.032,6.093,9.884,18.689,6.496,26.46c-3.266,7.493-7.342,14.638-13.402,20.738
	c-8.86,8.918-17.452,18.316-24.746,28.519c-7.635,10.68-17.963,9.152-28.857,10.169c-1.651-11.431-0.166-20.52,8.602-27.542
	c4.582-3.669,4.42-3.871,4.925-12.337c-9.857-1.572-19.834-3.974-29.918-4.575c-14.259-0.851-28.246-2.173-42.387-4.924
	c-16.133-3.138-31.799-7.401-46.595-13.902c-26.055-11.449-48.813-27.954-69.174-48.068c-17.496-17.284-30.958-37.402-43.152-58.328
	c-7.624-13.083-13.1-27.488-18.809-41.596c-4.674-11.551,2.028-23.115,14.163-26.05c6.414-1.552,11.529,1.124,12.582,7.871
	c3.375,21.637,14.328,39.643,25.599,57.823c10.07,16.243,21.285,31.48,34.994,44.605c24.45,23.409,53.298,39.548,85.994,48.487
	c17.363,4.747,35.094,7.212,53.138,7.709c10.634,0.293,21.292,1.092,31.842,2.43
	C1909.471,1030.849,1914.181,1033.29,1918.995,1034.909z"/>
<path class="st1" d="M2637.84,301.847c-15.664,2.906-27.761,8.219-39.956,13.323c-13.764,5.761-27.656,11.213-41.475,16.843
	c-11.669,4.754-23.343,9.501-34.962,14.376c-21.142,8.871-43.099,15.205-65.276,20.758c-16.094,4.03-32.423,7.131-48.495,11.243
	c-6.748,1.726-13.015,4.438-20.268,2.169c-6.45-2.017-8.425-5.679-3.947-10.656c3.477-3.865,7.834-7.416,12.502-9.613
	c6.222-2.929,13.017-5.708,19.756-6.272c21.374-1.787,41.671-8.308,62.412-12.844c30.695-6.713,59.554-18.6,88.114-31.391
	c14.841-6.647,30.028-12.52,44.988-18.907c6.704-2.862,13.163-6.299,19.865-9.164c6.27-2.681,12.708-4.507,18.868,1.385
	c7.383-6.962,10.896-14.863,14.634-23.153c-17.23-1.479-32.304-2.693-47.357-4.135c-2.919-0.28-6.125-0.839-8.556-2.322
	c-6.876-4.194-13.308-3.015-19.83,0.488c-1.174,0.63-2.284,1.423-3.519,1.887c-4.331,1.627-12.763,0.04-14.905-2.957
	c-3.57-4.994,1.473-7.926,3.266-11.433c1.126-2.203,3.561-3.867,5.673-5.413c6.946-5.084,13.993-10.031,21.042-14.974
	c4.172-2.925,9.276-3.12,13.73,1.183c5.738,5.543,12.592,6.891,19.856,7.975c8.871,1.324,17.696,2.965,26.582,4.164
	c4.574,0.617,9.234,0.669,13.86,0.797c4.121,0.114,8.118-1.447,11.945,2.456c4.319,4.405,8.493,8.621,8.968,14.994
	c0.242,3.241,0.118,6.822-1.025,9.794c-3.337,8.67-7.116,17.183-11.024,25.617c-2.651,5.724-5.948,11.147-8.715,16.821
	c-6.552,13.436-13.136,26.862-19.334,40.461c-2.307,5.061-3.621,10.581-5.294,15.922c-0.681,2.175-0.562,4.796-1.755,6.581
	c-5.399,8.08-25.125,7.333-30.416-0.76c-5.274-8.068-5.803-15.591-0.284-24.032c6.175-9.445,11.471-19.483,16.803-29.448
	C2635.905,310.629,2636.336,307.024,2637.84,301.847z"/>
<path class="st1" d="M1889.034,421.185c-7.536-11.307-14.903-19.727-26.12-24.773c-19.69-8.857-40.244-11.246-61.459-10.219
	c-22.13,1.071-42.103,9.009-61.018,19.829c-10.364,5.928-20.917,11.849-30.196,19.262c-10.021,8.006-18.962,17.459-27.793,26.828
	c-6.814,7.229-12.352,15.659-19.164,22.891c-5.429,5.765-12.875,8.146-20.852,7.911c-4.389-0.129-6.798-2.939-6.044-7.352
	c0.486-2.84,1.891-5.659,3.419-8.161c12.084-19.788,27.725-36.268,46.303-50.132c11.215-8.369,22.558-16.366,35.246-22.45
	c5.025-2.41,9.115-6.708,14.035-9.409c33.146-18.196,68.763-24.411,106.064-20.053c11.443,1.337,22.45,6.13,33.877,7.985
	c8.368,1.358,14.993,5.148,21.13,10.25c6.779,5.636,13.187,11.721,20.383,18.172c0.919-0.719,2.858-1.893,4.366-3.478
	c5.185-5.447,4.928-9.456-1.229-13.838c-4.85-3.451-10.077-6.37-15.135-9.529c-7.598-4.746-15.255-9.402-22.772-14.272
	c-5.905-3.825-6.625-7.669-2.339-13.248c2.208-2.875,4.882-5.472,7.672-7.803c5.415-4.522,8.415-4.817,14.412-1.082
	c13.256,8.255,26.917,16.003,39.412,25.301c17.547,13.058,20.497,28.207,3.938,46.843c-15.59,17.545-34.309,31.49-58.126,36.664
	c-0.946,0.205-2.173,0.461-2.68,1.136c-6.549,8.719-17.009,6.115-25.597,8.855c-1.808,0.577-4.024,0.35-5.954-0.02
	c-5.979-1.145-8.001-5.966-4.8-11.202c5.259-8.603,13.084-13.904,22.356-17.406C1876.206,426.479,1881.955,424.04,1889.034,421.185z
	"/>
<path class="st1" d="M3025.908,544.64c5.415,1.536,9.768,2.771,14.675,4.163c-2.102,9.052-10.363,8.681-16.063,13.383
	c1.099,14.617-0.813,28.653-20.404,30.869c-4.418-4.872-2.273-10.462-1.79-16.015c0.448-5.146,0.095-10.361,0.095-16.484
	c-6.293,0-11.909-0.517-17.403,0.084c-34.409,3.763-68.875,5.976-103.517,5.389c-6.251-0.106-12.547,1.262-18.783,2.209
	c-1.476,0.224-2.933,1.329-4.137,2.341c-0.982,0.824-1.43,2.261-2.364,3.171c-4.479,4.362-13.454,7.046-17.316,4.545
	c-5.239-3.392-4.356-9.173-4.232-14.392c0.582-24.484,1.364-48.965,1.811-73.451c0.12-6.565-1.142-13.165-0.896-19.716
	c0.141-3.748,1.266-7.934,3.292-11.048c6.8-10.451,17.698-14.604,29.249-17.236c3.876-0.883,7.895-1.415,11.867-1.551
	c18.6-0.637,37.218-0.842,55.808-1.672c12.929-0.578,25.902-1.338,38.712-3.075c14.023-1.901,27.689-0.542,41.313,2.265
	c7.562,1.558,10.034,5.513,9.978,13.323c-0.209,29.245-0.317,58.49-0.426,87.735C3025.372,541.094,3025.701,542.713,3025.908,544.64
	z M3004.304,544.783c0.606-4.292,1.637-8.172,1.622-12.049c-0.086-22.537,0.655-45.093-3.949-67.424
	c-2.879-13.962-3.658-15.221-17.644-15.428c-1.988-0.03-4.013,0.05-5.964,0.398c-26.848,4.796-53.961,6.597-81.17,7.692
	c-8.908,0.358-17.801,1.853-26.624,3.296c-7.338,1.2-8.085,2.111-8.444,9.687c-1.022,21.53-1.909,43.067-2.648,64.608
	c-0.279,8.123,0.892,8.862,8.94,9.657c22.502,2.224,45.054,2.285,67.612,1.738C2958.28,546.419,2980.516,545.555,3004.304,544.783z"
	/>
<path class="st1" d="M3096.368,463.305c-2.841-1.534-5.385-2.908-8.482-4.581c4.858-11.956,14.531-17.129,25.613-18.37
	c11.135-1.247,22.539-0.111,33.825,0.012c1.328,0.014,2.656,0.338,3.981,0.323c21.49-0.251,42.979-0.502,64.467-0.858
	c2.27-0.037,4.596-0.509,6.781-1.161c16.516-4.929,30.194,5.748,27.29,22.714c-4.24,24.767-2.04,49.744-4.097,74.548
	c-0.983,11.849-2.799,23.738,2.578,35.322c1.802,3.884-1.698,9.35-5.836,11.322c-2.998,1.429-6.031,2.881-9.194,3.851
	c-6.652,2.041-11.139,2.268-12.177-6.366c-0.114-0.944-0.621-1.84-1.115-3.239c-5.204,0-10.455-0.018-15.706,0.003
	c-12.929,0.052-25.858,0.146-38.787,0.178c-16.27,0.04-32.541,0.05-48.811,0.032c-2.309-0.002-4.651-0.023-6.921-0.391
	c-6.575-1.066-7.581-2.455-7.572-9.236c0.018-12.623,0.459-25.27-0.185-37.861c-0.813-15.888-2.515-31.731-3.875-47.59
	C3097.607,475.688,3096.955,469.428,3096.368,463.305z M3220.78,461.268c-2.786-0.736-4.341-1.446-5.923-1.513
	c-7.944-0.338-15.896-0.732-23.843-0.692c-20.256,0.104-40.51,0.426-60.765,0.672c-0.998,0.012-1.993,0.15-2.992,0.194
	c-4.575,0.203-6.53,2.853-6.469,7.156c0.038,2.659,0.39,5.313,0.577,7.97c1.351,19.206,4.329,38.303,2.825,57.694
	c-0.472,6.093,0.962,12.335,1.518,18.446c2.536,0.587,4.122,1.203,5.736,1.29c15.591,0.838,31.183,1.691,46.785,2.298
	c4.634,0.18,9.366,0.014,13.933-0.732c7.161-1.171,14.156-3.486,21.337-4.375c9.747-1.207,10.754-1.462,10.67-11.244
	c-0.092-10.591-0.945-21.174-1.419-31.762C3222.072,491.55,3221.436,476.43,3220.78,461.268z"/>
<path class="st1" d="M919.417,1060.66c-12.619-1.267-23.471-4.309-33.176-10.473c-13.092-8.314-26.288-7.647-39.761-1.377
	c-18.961,8.824-37.542,18.6-56.948,26.3c-24.025,9.532-48.783,9.016-73.28,0.645c-4.892-1.671-6.723-4.796-5.569-9.031
	c2.483-9.11,16.048-18.395,25.432-17.396c0.992,0.106,2.193-0.027,2.928,0.483c5.845,4.056,12.7,3.214,19.192,4.242
	c16.735,2.65,31.794-1.351,46.947-8.758c17.206-8.411,35.107-15.815,53.375-21.512c15.878-4.952,32.403-2.968,47.715,4.197
	c18.252,8.54,35.683,7.537,53.761-1.334c11.237-5.514,24.089-7.659,35.573-12.763c21.56-9.584,44.039-15.524,67.368-17.018
	c11.413-0.731,23.06,2.226,34.604,3.488c4.566,0.499,9.147,0.874,13.709,1.409c2.913,0.342,6.041,0.319,8.655,1.435
	c6.115,2.61,7.063,9.205,1.156,12.178c-6.955,3.5-14.863,6.566-22.488,6.909c-9.817,0.442-19.777-1.904-29.651-3.234
	c-16.739-2.254-33.122-1.085-48.927,5.107c-18.871,7.394-37.661,14.992-56.467,22.551c-1.527,0.614-2.975,1.501-4.332,2.445
	C946.883,1057.736,932.117,1057.421,919.417,1060.66z"/>
<path class="st1" d="M168.2,234.364c-5.813-8.653-8.804-9.326-18.344-6.507c-6.935,2.049-14.205,2.993-21.359,4.237
	c-1.098,0.191-2.377-0.654-3.966-1.14c0.55-6.264,2.718-11.866,7.545-14.788c15.925-9.638,32.894-15.058,51.109-6.559
	c17.586,8.206,20.394,20.018,13.613,36.338c-9.75,23.466-29.65,37.563-54.892,41.076c-10.816,1.505-22.857-0.315-33.373-3.663
	c-10.611-3.378-18.082-12.639-21.528-23.508c-2.577-8.126-4.036-16.79-4.658-25.311c-1.185-16.224,11.624-33.113,27.356-36.891
	c4.468-1.073,9.165-1.577,13.763-1.615c4.772-0.04,8.364,2.701,9.542,7.355c1.079,4.263-2.143,6.691-5.259,8.777
	c-1.924,1.288-4.069,2.25-5.973,3.564c-4.612,3.183-7.948,7.494-7.808,13.195c0.213,8.677,1.487,17.235,5.94,25
	c7.466,13.021,22.307,15.395,33.802,5.492C161.277,252.896,166.138,244.858,168.2,234.364z"/>
<path class="st1" d="M996.362,1135.925c-6.414,3.974-11.706,8.142-17.695,10.635c-3.652,1.52-8.378,0.495-12.622,0.551
	c-4.901,0.065-9.845-0.339-14.697,0.17c-10.808,1.134-21.595,2.536-32.342,4.155c-11.13,1.676-22.206,3.709-33.297,5.635
	c-12.496,2.17-24.373-0.518-36.062-4.576c-1.2-0.416-2.339-1.305-3.241-2.232c-8.193-8.424-18.614-8.54-28.704-6.275
	c-20.148,4.522-38.948,12.853-57.36,22.182c-5.488,2.78-11.942,3.719-18.016,5.254c-3.963,1.001-7.984-0.386-9.353-3.901
	c-1.014-2.604-0.258-6.635,1.128-9.29c3.478-6.662,8.917-11.567,16.279-13.886c20.233-6.371,40.516-12.588,60.715-19.067
	c10.63-3.409,21.545-3.691,32.505-3.656c11.09,0.034,21.737,2.003,31.482,7.745c1.61,0.949,3.698,1.371,5.6,1.498
	c15.267,1.015,30.364-0.192,45.527-2.421c16.073-2.364,32.333-3.551,48.545-4.832
	C983.669,1122.908,990.88,1126.335,996.362,1135.925z"/>
<path class="st1" d="M2840.769,134.645c-0.438-25.778,11.795-42.913,31.249-55.781c4.419-2.923,9.192-5.335,13.901-7.79
	c7.551-3.938,14.571-3.408,21.108,2.496c1.895,1.712,4.402,2.96,6.84,3.824c18.076,6.411,29.594,19.605,37.707,36.283
	c7.551,15.523,1.379,29.103-11.985,40.018c-9.692,7.916-20.871,12.892-33.08,15.614c-17.387,3.877-34.36,2.581-50.413-5.152
	c-9.271-4.466-13.988-12.679-14.799-23.004C2841.088,138.502,2840.867,135.853,2840.769,134.645z M2894.515,87.398
	c-11.868,7.718-22.941,15.935-27.705,30.051c-6.003,17.791,2.137,33.084,19.096,35.533c12.211,1.763,23.838-1.165,34.728-6.514
	c7.861-3.861,14.138-16.669,10.94-22.515c-6.52-11.919-13.053-24.007-26.429-30.067
	C2901.865,92.402,2898.942,90.134,2894.515,87.398z"/>
<path class="st1" d="M890.533,191.433c6.861-1.08,17.785-2.274,28.45-4.634c9.671-2.14,18.944-6.068,28.607-8.259
	c10.34-2.344,20.899-3.844,31.433-5.131c3.051-0.373,6.543,0.787,9.494,2.041c11.907,5.057,23.796,10.187,35.472,15.749
	c10.776,5.134,22.125,4.472,33.182,3.062c14.768-1.882,29.292-5.612,44.016-7.946c4.026-0.638,8.577,0.298,12.562,1.547
	c6.004,1.881,6.348,6.079,1.506,10.17c-5.487,4.637-12.203,6.539-18.798,8.578c-8.524,2.636-17.063,5.811-25.829,6.944
	c-16.052,2.076-32.292,3.914-48.42,3.673c-8.203-0.123-16.547-4.486-24.443-7.839c-8.216-3.489-16.042-7.935-23.901-12.216
	c-7.336-3.996-14.919-3.08-22.323-1.092c-10.895,2.926-21.609,6.525-32.394,9.855c-11.125,3.436-22.213,7.194-34.037,7.05
	c-6.281-0.076-12.659-0.255-18.781-1.462c-2.71-0.534-6.348-3.391-6.915-5.814c-0.578-2.468,1.328-6.635,3.495-8.421
	C869.647,191.741,877.973,190.813,890.533,191.433z"/>
<path class="st1" d="M476.416,224.052c11.665-1.042,19.482-1.837,27.315-2.408c5.475-0.399,7.409,4.242,9.228,7.862
	c2.039,4.055-1.955,5.785-4.75,7.454c-11.978,7.15-24.165,12.961-38.947,10.287c-10.165-1.839-17.422-7.778-24.415-14.511
	c-2.154-2.074-4.146-4.315-6.199-6.492c-4.547-4.821-10.157-6.332-16.408-4.638c-10.548,2.859-21.232,5.432-31.467,9.191
	c-27.972,10.276-56.316,15.704-86.041,9.269c-2.904-0.629-5.993-0.363-8.93-0.884c-5.532-0.98-6.803-3.32-4.738-8.296
	c1.843-4.441,4.439-8.223,9.358-9.694c7.215-2.157,14.009-3.856,22.156-2.87c16.707,2.022,33.393,1.762,50.245-3.243
	c20.558-6.105,40.588-14.901,62.784-15.044c11.471-0.074,20.885,3.872,29.11,10.91C469.726,215.234,473.606,220.841,476.416,224.052
	z"/>
<path class="st1" d="M1514.376,651.726c-7.552,4-14.352,7.979-21.467,11.281c-10.514,4.879-21.522,3.043-32.312,1.058
	c-3.105-0.571-5.843-2.998-8.821-4.423c-3.777-1.807-7.502-3.866-11.475-5.083c-5.986-1.834-10.709-10.914-6.805-15.888
	c3.544-4.515,8.604-8.352,13.773-10.926c4.598-2.289,9.676-0.24,13.901,3.057c3.356,2.618,6.753,5.317,10.501,7.271
	c6.082,3.172,12.232,4.865,18.504-0.427c3.244-2.738,7.515-4.22,11.123-6.574c8.964-5.851,18.724-6.424,28.519-3.554
	c3.857,1.13,7.763,4.062,10.325,7.24c5.526,6.854,11.354,10.779,20.577,7.688c5.712-1.914,10.269,1.752,14.284,5.195
	c2.984,2.559,2.254,7.396-2.093,11.268c-7.076,6.304-15.304,10.631-25.083,10.61c-11.138-0.024-20.822-3.443-27.839-12.771
	C1518.465,654.725,1516.159,653.29,1514.376,651.726z"/>
<path class="st1" d="M2163.919,354.889c-4.379,3.362-9.081,6.381-13.07,10.154c-9.225,8.723-19.337,15.975-30.844,21.422
	c-6.584,3.116-13.067,1.726-19.49,0.381c-2.286-0.479-4.605-2.7-6.101-4.723c-6.507-8.802-0.485-26.585,9.905-29.742
	c4.494-1.365,7.844,0.614,10.266,4.156c1.461,2.137,2.35,4.666,4.066,8.188c3.745-1.957,7.668-3.088,10.341-5.567
	c10.061-9.33,21.597-16.255,33.505-22.897c16.779-9.361,28.129-2.529,31.984,14.128c0.742,3.207,0.604,6.616,0.89,9.93
	c0.392,4.55,2.728,6.595,7.349,5.654c0.652-0.133,1.293-0.341,1.951-0.422c11.853-1.464,14.152,0.674,14.54,13.958
	c-5.209,3.055-10.299,7.232-16.127,9.099c-5.086,1.629-11.006,0.754-16.558,0.781c-1.957,0.009-3.907-0.663-5.876-0.892
	c-8.626-1.001-11.036-3.827-11.665-12.83c-0.456-6.537-1.398-13.039-2.124-19.557C2165.881,355.704,2164.9,355.297,2163.919,354.889
	z"/>
<path class="st1" d="M3158.128,112.964c7.973,1.136,17.086,2.719,26.265,3.63c5.179,0.514,10.481,0.133,15.704-0.216
	c12.205-0.816,24.388-1.992,36.599-2.669c1.996-0.111,4.604,1.077,6.05,2.535c5.028,5.071,3.644,10.82-3.121,13.021
	c-3.766,1.226-7.796,1.644-11.712,2.405c-11.094,2.155-22.126,4.743-33.302,6.319c-10.804,1.524-21.78,2.829-31.054-5.779
	c-1.769-1.642-5.618-1.789-8.382-1.486c-13.196,1.45-26.331,3.446-39.524,4.919c-4.896,0.547-9.929,0.602-14.832,0.144
	c-5.172-0.483-6.843-4.978-2.904-8.293c3.976-3.346,8.672-6.993,13.541-7.908C3126.424,116.774,3141.626,115.205,3158.128,112.964z"
	/>
<path class="st1" d="M824.741,449c-3.94,14.381-16.642,17.708-27.896,18.118c-17.127,0.624-33.413,2.954-49.335,9.076
	c-6.165,2.37-12.633,3.972-19.01,5.759c-2.194,0.615-4.592,1.24-6.787,0.969c-6.346-0.783-8.767-6.401-5.159-11.703
	c7.576-11.131,17.785-18.168,31.123-21.165c9.516-2.138,19.552-3.038,27.498-10.236c2.299-2.082,6.911-2.572,10.329-2.271
	c9.215,0.811,18.329,2.733,27.54,3.64C818.631,441.737,822.233,444.333,824.741,449z"/>
<path class="st1" d="M2679.358,687.366c6.948,0.388,12.373,2.276,16.067,7.815c4.046,6.068,8.313,11.988,12.334,18.071
	c3.669,5.551,2.524,10.938-3.517,12.978c-4.92,1.661-10.392,2.339-15.604,2.277c-4.33-0.051-7.677-2.089-9.226-7.399
	c-3.42-11.732-8.128-13.312-19.378-8.147c-12.328,5.66-24.709,11.207-37.086,16.76c-7.995,3.586-15.756,1.479-23.213-1.599
	c-4.366-1.802-5.145-6.278-1.399-9.716c4.105-3.768,8.828-8.591,13.829-9.349c19.668-2.984,36.837-12.588,55.201-18.948
	C2671.415,688.706,2675.763,688.166,2679.358,687.366z"/>
<path class="st1" d="M3235.427,1155.22c2.9-17.571,15.792-19.267,30.78-18.727c6.311,0.228,12.492,4.058,18.733,6.248
	c2.807,0.985,5.584,2.067,8.429,2.928c7.952,2.405,15.874,4.945,23.921,6.987c5.432,1.379,11.036,2.146,16.6,2.926
	c5.871,0.824,11.944,0.828,16.812,4.85c-3.56,9.774-10.303,14.48-22.117,14.276c-10.561-0.183-20.984-0.43-31.494-3.792
	c-14.49-4.636-29.746-6.844-44.607-10.372C3246.771,1159.187,3241.24,1157.059,3235.427,1155.22z"/>
<path class="st1" d="M2630.133,816.71c-2.737-0.436-4.399-0.616-6.022-0.973c-9.07-1.997-9.777-6.303-4.431-14.131
	c7.952-11.646,20.424-15.376,32.152-20.504c17.318-7.572,34.748-14.898,52.283-21.951c3.584-1.442,7.849-1.705,11.784-1.636
	c4.985,0.088,7.391,3.806,8.985,8.132c1.622,4.401-0.736,6.905-4.065,9.002c-1.687,1.063-3.292,2.417-5.137,3.042
	c-23.645,8.01-45.755,19.186-67.298,31.701C2642.514,812.802,2636.552,817.043,2630.133,816.71z"/>
<path class="st1" d="M3352.177,1088.11c-1.174,4.493-2.141,9.838-7.952,12.13c-5.987,2.362-12.476,2.5-16.745-2.152
	c-5.036-5.489-10.289-5.559-16.926-5.28c-12.563,0.528-25.232,0.411-37.753-0.654c-6.411-0.545-12.775-3.296-18.833-5.83
	c-5.619-2.35-6.076-5.413-2.093-9.966c5.614-6.416,12.406-9.959,21.195-7.336c12.553,3.747,25.469,3.693,38.376,3.782
	c8.609,0.059,17.224-0.053,25.827,0.201C3345.232,1073.241,3352.476,1080.433,3352.177,1088.11z"/>
<path class="st1" d="M948.615,261.317c-5.576,0.614-11.148,1.267-16.731,1.816c-1.623,0.159-3.299,0.195-4.91-0.018
	c-4.82-0.636-10.31-0.024-12.262-6.333c-1.891-6.111,2.509-10.031,6.142-12.533c7.543-5.195,15.61-10.608,25.594-9.191
	c14.288,2.028,28.365,1.518,42.346-2.11c4.829-1.253,9.068-0.217,12.829,3.365c5.514,5.251,5.048,11.92-1.783,15.327
	c-5.325,2.656-10.874,5.421-16.633,6.53c-11.346,2.184-22.906,3.251-34.378,4.78C948.758,262.407,948.687,261.862,948.615,261.317z"
	/>
<path class="st1" d="M820.158,1239.881c-8.592-0.648-17.187-1.273-25.776-1.955c-3.878-0.308-8.167,0.326-9.984-4.643
	c-1.77-4.84,1.017-9.343,3.639-11.524c8.418-7.002,17.84-12.389,29.766-10.89c9.855,1.239,19.826,1.534,29.702,2.633
	c4.549,0.506,9.284,1.282,13.417,3.107c5.259,2.322,5.834,6.187,1.716,10.185c-3.029,2.941-6.677,5.591-10.528,7.271
	C841.986,1238.483,831.378,1241.03,820.158,1239.881z"/>
<path class="st1" d="M737.143,531.839c-3.01,0-3.678,0.051-4.337-0.008c-8.52-0.762-11.062-4.685-6.395-11.69
	c3.592-5.392,8.536-10.041,13.476-14.335c5.07-4.407,11.655-5.43,18.147-7.048c10.22-2.548,20.032-6.786,29.945-10.5
	c7.077-2.651,11.188-1.852,16.005,3.349c2.746,2.965,3.052,6.065,0.215,8.773c-2.588,2.47-5.565,4.719-8.741,6.343
	c-5.548,2.836-11.352,5.181-17.098,7.617c-9.682,4.105-19.406,8.11-29.102,12.182c-1.787,0.751-3.51,1.654-5.289,2.426
	C741.033,530.222,738.075,531.445,737.143,531.839z"/>
<path class="st1" d="M743.573,598.122c-5.161-0.087-9.109-5.63-7.063-10.522c1.117-2.671,3.011-5.171,5.043-7.276
	c7.474-7.745,16.572-13.151,26.409-17.314c4.684-1.982,10.65-0.619,13.404,3.419c1.077,1.578,1.308,4.5,0.653,6.363
	C778.661,582.345,754.104,598.299,743.573,598.122z"/>
<path d="M-164.646,2326.859c7.241,0.527,14.255,0.719,18.112-5.622c4.879,0.663,6.319,3.225,6.248,6.441
	c-0.08,3.602-3.107,4.275-5.93,5.639c-5.597,2.704-10.972,6.025-15.969,9.726c-1.752,1.298-2.508,4.381-3.001,6.795
	c-0.378,1.851,0.33,3.938,0.63,5.908c0.505,3.32,1.331,6.812-2.489,8.764c-2.487,1.27-7.814-1.995-9.333-5.94
	c-1.659-4.308-1.687-9.443,2.447-11.687c6.756-3.667,7.596-9.489,8.282-15.852C-165.514,2329.778-165.064,2328.557-164.646,2326.859
	z"/>
<path d="M-180.741,2305.616c7.583,6.48,8.945,11.975,5.877,20.726c-1.837,5.24-3.547,10.525-5.672,16.855
	c-3.091,1.454-7.13,3.568-12.842,0.347c6.595-7.904,3.955-19.19,11.816-26.739C-179.725,2315.04-180.965,2310.072-180.741,2305.616z
	"/>
<path d="M-218.805,2367.857c-6.715-2.495-11.857-4.405-17.047-6.333c1.966-6.804,8.864-11.664,15.941-10.915
	c3.26,0.345,6.608-0.035,9.838,0.444c1.706,0.253,4.079,1.303,4.616,2.62c0.516,1.265-0.924,3.347-1.566,5.047
	c-0.096,0.253-0.536,0.366-0.798,0.57C-211.714,2362.322-215.603,2365.358-218.805,2367.857z"/>
<path d="M-304.949,2243.8c-4.986-1.667-10.125-2.991-14.908-5.115c-3.621-1.607-5.305-4.91-4.055-10.083
	c8.231,2.959,12.625-2.28,16.849-9.744c2.94,2.965,5.326,5.372,6.339,6.394c-1.79,7.503-3.138,13.154-4.486,18.805
	C-305.21,2244.057-304.95,2243.8-304.949,2243.8z"/>
<path d="M-144.382,2252.056c0.099,12.746-3.34,15.13-15.044,10.106c2.553-8.444-1.304-14.986-7.73-20.44
	c9.065-5.575,11.616-3.97,15.713,9.67C-149.243,2251.599-146.792,2251.829-144.382,2252.056z"/>
<path d="M-327.091,2323.312c0,0-0.302,0.582-0.302,0.587c0.88-3.809,1.76-7.622,2.798-12.124c3.521-1.407,7.44-2.972,12.518-5.001
	c0.566,2.572,2.03,5.345,1.244,6.341c-3.126,3.956-4.119,7.96-1.774,12.472C-323.594,2328.691-323.594,2328.691-327.091,2323.312z"
	/>
<path d="M-219.324,2283.111c4.409,0.22,7.817,0.391,11.201,0.56c5.9-4.349,0.835-8.689-0.433-12.658
	c3.075-2.871,5.593-1.954,6.93,0.639c1.422,2.758,3.14,6.325,2.48,8.98c-1.145,4.605-4.021,8.78-6.44,13.678
	C-212.05,2293.712-216.676,2290.838-219.324,2283.111z"/>
<path d="M-220.62,2397.346c9.927,2.217,9.927,2.217,7.056,10.806c-3.121,9.34-3.739,9.847-13.396,10.205
	C-224.854,2411.38-222.835,2404.688-220.62,2397.346z"/>
<path d="M-206.593,2392.71c-7.89-0.686-13.395-1.164-19.203-1.669c-1.367,2.576-2.667,5.029-4.896,9.23
	c-2.374-4.012-4.534-6.474-5.338-9.319c-1.025-3.626,1.919-6.775,5.643-6.206c6.773,1.035,13.479,2.527,20.181,3.977
	C-209.483,2388.879-208.976,2390.021-206.593,2392.71z"/>
<path d="M-103.237,2331.063c0.891,4.22,1.863,7.674,2.238,11.19c0.141,1.326-0.748,3.452-1.81,4.024
	c-1.104,0.596-2.986-0.218-4.518-0.478c-0.285-0.048-0.553-0.356-0.776-0.594c-2.874-3.065-5.739-6.14-9.756-10.444
	C-112.295,2333.355-107.801,2332.217-103.237,2331.063z"/>
<path d="M-181.244,2184.074c-0.504,3.053-0.901,5.454-1.379,8.35c-5.822-0.511-10.91-0.957-16.146-1.417
	C-195.941,2182.241-195.453,2182.04-181.244,2184.074z"/>
<path d="M-310.113,2255.157c-1.123,0.687-2.814,2.517-4.639,2.663c-3.254,0.259-7.754-5.92-7.071-9.331
	c0.215-1.072,1.311-2.459,2.307-2.79C-316.421,2244.67-309.761,2250.597-310.113,2255.157z"/>
<path d="M18.266,2204.676c5.158,4.332,3.999,7.719,0.763,10.71c-2.837,2.621-6.053,5.371-10.148,0.257
	C11.891,2212.125,14.772,2208.757,18.266,2204.676z"/>
<path d="M-126.603,2269.409c-4.625,0.39-8.625-0.297-10.198-6.669c3.333-2.865,6.945-5.969,11.169-9.599
	c-0.455,6.272-0.828,11.405-1.201,16.537C-126.832,2269.678-126.603,2269.409-126.603,2269.409z"/>
<path d="M-80.363,2320.362c-6.993-7.654,1.84-10.356,2.954-15.898C-72.412,2312.208-72.77,2313.99-80.363,2320.362z"/>
<path d="M-126.832,2269.678c4.309,2.297,7.377,1.204,9.712-3.117c1.563-2.893,3.677-5.488,6.589-9.742
	c0.488,8.539-4.438,16.524-9.693,17.868c-4.292,1.098-5.98-1.41-6.384-5.268C-126.603,2269.409-126.832,2269.678-126.832,2269.678z"
	/>
<path d="M-73.591,2405.619c2.694-1.384,5.273-3.322,8.131-3.918c1.425-0.297,4.424,1.543,4.855,2.975
	c1.011,3.363-1.573,4.592-4.564,4.369c-2.54-0.189-5.048-0.806-7.57-1.233C-73.023,2407.081-73.307,2406.35-73.591,2405.619z"/>
<path d="M-296.799,2388.997c2.942-1.685,4.801-3.606,6.505-3.478c1.608,0.121,3.053,2.399,4.57,3.728
	c-1.742,1.595-3.292,4.007-5.298,4.479C-292.232,2394.01-294.151,2391.277-296.799,2388.997z"/>
<path d="M-231.271,2324.902c8.468-5.567,8.468-5.567,15.126,3.722C-221.842,2327.222-226.269,2326.132-231.271,2324.902z"/>
<path d="M-181.059,2406.706c-3.857-2.302-5.837-4.769-3.487-8.396c0.51-0.787,3.413-1.091,4.231-0.419
	C-177.135,2400.5-177.303,2403.452-181.059,2406.706z"/>
<path d="M-184.992,2284.965c5.794,1.143,9.132,2.94,8.942,9.471C-180.441,2292.081-183.289,2289.838-184.992,2284.965z"/>
<path d="M-282.08,2283.823c-4.203,4.08-6.915,4.253-9.899,0.037C-288.227,2280.162-285.727,2282.169-282.08,2283.823z"/>
<path d="M-241.266,2176.667c-3.006-0.522-6.012-1.044-9.017-1.567C-246.587,2171.585-243.49,2171.576-241.266,2176.667z"/>
<path d="M-178.379,2122.814c3.485,5.63,1.944,7.739-1.261,8.849c-0.822,0.285-2.108-0.768-3.181-1.206
	C-181.563,2128.292-180.305,2126.127-178.379,2122.814z"/>
<path d="M-238.93,2335.676c1.89-0.467,3.781-0.934,5.671-1.4c0.278,1.166,0.555,2.333,0.833,3.499
	c-1.887,0.425-3.774,0.85-5.661,1.275C-238.368,2337.926-238.649,2336.801-238.93,2335.676z"/>
<path d="M-51.75,2148.698c-2.034,1.402-3.729,3.165-4.31,2.853c-1.351-0.726-2.395-2.351-3.049-3.838
	c-0.184-0.417,1.736-2.466,2.144-2.312C-55.386,2145.996-54.027,2147.177-51.75,2148.698z"/>
<path d="M-170.784,2383.95c-3.869-0.677-6.136-1.073-10.063-1.76C-175.957,2377.816-173.815,2378.862-170.784,2383.95z"/>
<path d="M-289.669,2236.359c-2.329,1.019-3.85,2.286-4.864,1.962c-1.043-0.333-1.87-2.15-2.187-3.463
	c-0.097-0.4,1.989-1.985,2.754-1.788C-292.693,2233.398-291.68,2234.729-289.669,2236.359z"/>
<path d="M144.05,2115.014c5.291-1.013,6.84,0.668,4.571,6.101C146.631,2118.459,145.34,2116.737,144.05,2115.014z"/>
<path d="M28.159,2242.58c1.339,2.126,2.44,3.269,2.684,4.572c0.093,0.495-1.785,1.905-2.762,1.903
	c-0.97-0.002-2.841-1.471-2.735-1.92C25.659,2245.821,26.76,2244.695,28.159,2242.58z"/>
<path d="M-163.991,2404.772c-1.543,0.933-3.013,2.227-3.379,1.967c-1.019-0.723-1.579-2.092-2.32-3.206
	c0.975-0.619,2.029-1.813,2.904-1.694C-165.915,2401.958-165.224,2403.395-163.991,2404.772z"/>
<path d="M-100.302,2277.294c1.351,1.335,2.703,2.67,4.054,4.006c-0.483,0.596-0.967,1.192-1.45,1.788
	c-1.539-1.144-3.079-2.288-4.618-3.432C-101.645,2278.868-100.973,2278.081-100.302,2277.294z"/>
<path d="M-253.031,2388.885c-1.874,1.308-3.043,2.124-4.211,2.939c-0.492-1.022-1.536-2.174-1.334-3.033
	c0.239-1.015,1.435-2.198,2.449-2.485C-255.544,2386.14-254.499,2387.604-253.031,2388.885z"/>
<path d="M-209.769,2309.664c-0.411-1.183-1.264-2.436-1.093-3.528c0.136-0.867,1.424-1.807,2.403-2.177
	c0.465-0.176,1.992,0.89,2.002,1.414c0.02,0.997-0.705,2.008-1.12,3.013C-208.307,2308.812-209.038,2309.238-209.769,2309.664z"/>
<path d="M-147.715,2297.418c-2.737,1.827-3.861,2.799-4.031,2.653c-0.85-0.724-1.6-1.679-2.027-2.703
	c-0.105-0.252,1.176-1.564,1.744-1.515C-150.846,2295.957-149.713,2296.644-147.715,2297.418z"/>
<path d="M-230.286,2264.93c1.624,0,3.247,0,4.871,0c0.052,0.5,0.104,1,0.156,1.499c-1.638,0.247-3.276,0.493-4.914,0.74
	C-230.21,2266.423-230.248,2265.677-230.286,2264.93z"/>
<path d="M-295.623,2320.088c-1.781-0.815-3.561-1.63-5.342-2.446c0.178-0.524,0.356-1.049,0.534-1.573
	c1.856,0.539,3.712,1.077,5.568,1.616C-295.116,2318.486-295.369,2319.287-295.623,2320.088z"/>
<path d="M-192.864,2058.74c-0.872-0.693-1.526-1.213-2.18-1.733c0.705-0.766,1.41-1.532,2.115-2.298
	c0.591,0.58,1.643,1.153,1.653,1.742C-191.266,2057.128-192.178,2057.821-192.864,2058.74z"/>
<path d="M-181.469,2227.284c-0.745,0.971-1.277,1.663-1.808,2.356c-0.747-0.695-1.494-1.39-2.241-2.085
	c0.608-0.63,1.146-1.64,1.847-1.771C-183.111,2225.68-182.35,2226.643-181.469,2227.284z"/>
<path d="M-190.59,2355.183c-1.254,1.029-2.508,2.058-3.762,3.088c-0.374-0.448-0.748-0.895-1.122-1.343
	c1.237-1.049,2.475-2.098,3.712-3.148C-191.371,2354.248-190.98,2354.715-190.59,2355.183z"/>
<path d="M-217.39,2344.021c-0.646-1.319-1.412-2.17-1.334-2.936c0.068-0.667,1.065-1.695,1.691-1.725
	c0.648-0.031,1.781,0.872,1.891,1.507C-215.041,2341.443-216.033,2342.209-217.39,2344.021z"/>
<path d="M-254.327,2227.918c-2.325,1.666-2.816,2.017-3.306,2.368c-0.501-0.706-1.003-1.411-1.504-2.117
	c0.493-0.347,0.992-0.99,1.479-0.98C-256.692,2227.207-255.732,2227.584-254.327,2227.918z"/>
<path d="M-174.423,2200.902c-0.626-1.125-1.45-1.992-1.264-2.419c0.258-0.591,1.242-0.972,1.988-1.177
	c0.218-0.06,1.064,0.927,0.966,1.192C-173.002,2199.223-173.619,2199.818-174.423,2200.902z"/>
<path d="M-83.967,2364.977c-0.402,0.459-0.805,0.917-1.207,1.374c-0.512-0.63-1.023-1.259-1.535-1.889
	c0.523-0.294,1.107-0.89,1.552-0.8C-84.691,2363.757-84.358,2364.51-83.967,2364.977z"/>
<path d="M-305.21,2244.057c1.587,0.926,3.173,1.852,4.76,2.778c-0.483,0.518-0.967,1.036-1.45,1.554
	c-1.014-1.53-2.027-3.06-3.045-4.589C-304.95,2243.8-305.21,2244.057-305.21,2244.057z"/>
<path d="M-208.512,2229.261c-0.316,0.509-0.541,1.31-0.972,1.444c-0.47,0.145-1.131-0.33-1.709-0.534
	c0.435-0.712,0.871-1.425,1.307-2.137C-209.429,2228.442-208.971,2228.85-208.512,2229.261z"/>
<path d="M-320.471,1972.635c-0.335,0.513-0.67,1.025-1.005,1.536c-0.574-0.473-1.147-0.946-1.721-1.419
	c0.467-0.412,0.896-1.078,1.412-1.153C-321.405,1971.543-320.913,1972.26-320.471,1972.635z"/>
<path d="M-311.348,2359.356c-0.324-0.44-1.006-1.12-0.902-1.277c0.372-0.562,1.012-0.946,1.551-1.397
	c0.201,0.534,0.634,1.118,0.534,1.587C-310.257,2358.696-310.929,2358.999-311.348,2359.356z"/>
<path d="M-113.62,2293.406c0.405,0.354,1.093,0.677,1.136,1.07c0.046,0.434-0.499,0.931-0.787,1.4
	c-0.537-0.453-1.074-0.907-1.612-1.36C-114.463,2294.146-114.042,2293.777-113.62,2293.406z"/>
<path d="M-161.241,2221.096c-0.556,0.153-1.252,0.569-1.574,0.373c-0.364-0.223-0.394-0.994-0.569-1.527
	c0.714-0.169,1.428-0.338,2.142-0.506C-161.241,2219.99-161.241,2220.545-161.241,2221.096z"/>
<path d="M-187.744,1988.385c-1.186,1.684-1.524,2.164-1.862,2.645c-0.487-0.693-1.12-1.334-1.391-2.103
	c-0.109-0.309,0.621-1.313,0.888-1.283C-189.216,1987.746-188.359,1988.172-187.744,1988.385z"/>
<path class="st1" d="M2418.059,1439.199c1.298,0.393,2.596,0.786,3.894,1.179c-0.099,0.361-0.198,0.723-0.297,1.084
	c-1.318-0.318-2.635-0.636-3.953-0.953C2417.822,1440.072,2417.94,1439.635,2418.059,1439.199z"/>
<path class="st2" d="M113.283,469.102c0-5.652-0.71-11.284,0.119-16.678c4.242-27.578,7.274-55.254,8.414-83.144
	c0.202-4.933,1.332-9.828,2.187-15.81c4.155-0.315,8.01-0.673,11.874-0.889c28.557-1.596,57.252-1.949,85.634-5.111
	c24.382-2.716,48.451-8.415,72.576-13.21c15.969-3.174,31.82-6.96,47.672-10.691c20.08-4.727,40.03-10.032,60.183-14.406
	c13.617-2.955,27.44-5.147,41.274-6.823c5.023-0.609,10.347,1.269,16.288,2.12c0,41.872,0,82.951,0,124.845
	c-2.427,0.297-4.72,1.196-6.677,0.719c-17.468-4.255-34.477,0.283-51.448,2.943c-18.353,2.877-36.492,7.135-54.715,10.832
	c-17.25,3.5-34.395,7.637-51.758,10.427c-18.265,2.935-36.721,4.718-55.125,6.705c-2.74,0.296-6.651-0.086-8.323-1.806
	c-7.743-7.962-17.076-5.673-26.2-4.979c-2.275,0.173-4.55,0.928-6.73,1.688c-12.724,4.437-24.997,1.222-37.021-2.639
	c-4.814-1.546-7.984-0.87-11.725,2.264c-8.521,7.142-18.434,11.658-29.423,13.593C118.463,469.388,116.459,469.102,113.283,469.102z
	"/>
<path class="st3" d="M3112.467,368.674c-26.896-0.858-53.787-2.153-80.688-2.435c-20.936-0.219-41.884,0.872-62.828,1.295
	c-23.894,0.483-47.788,0.962-71.684,1.261c-10.958,0.137-21.926,0.009-32.88-0.311c-8.91-0.26-11.104-2.19-11.916-11.243
	c-0.622-6.93-0.414-13.95-0.32-20.927c0.343-25.27,0.794-50.538,1.206-75.806c0.022-1.331,0.018-2.665,0.094-3.993
	c0.482-8.424,2.713-10.187,11.026-10.117c12.937,0.109,25.886,0.084,38.813-0.37c21.589-0.76,43.16-2.033,64.748-2.855
	c29.239-1.113,58.48-2.31,87.732-2.894c23.236-0.464,46.491-0.218,69.733,0.037c8.283,0.091,16.593,0.828,24.825,1.813
	c12.795,1.531,25.639,0.189,38.567,2.896c13.115,2.745,25.384-3.018,35.892-11.397c6.227-4.966,9.167-4.241,10.38,3.653
	c1.145,7.453,0.624,15.169,1.871,22.596c3.724,22.172-0.005,44.44,1.382,66.631c0.557,8.916,0.108,17.891,0.427,26.828
	c0.178,4.972-2.236,6.804-6.69,8.216c-29.065,9.217-58.967,7.848-88.808,7.531c-10.288-0.109-20.579-0.017-30.868-0.017
	C3112.476,368.936,3112.471,368.805,3112.467,368.674z"/>
<path class="st4" d="M125.779,580.366c8.26-1.368,15.158-2.205,21.908-3.707c8.391-1.868,16.7-4.146,24.971-6.505
	c8.602-2.454,17.122-5.197,25.667-7.849c11.726-3.639,23.411-7.414,35.184-10.896c3.059-0.905,6.377-0.935,9.482-1.354
	c0.681,1.794,1.349,2.714,1.322,3.611c-0.483,15.947-0.93,31.896-1.651,47.833c-0.371,8.2-0.876,16.434-2.057,24.545
	c-0.793,5.445-2.881,10.702-4.346,15.89c-14.066,2.255-27.496,4.214-40.851,6.594c-20.866,3.718-41.678,7.737-62.519,11.598
	c-9.169,1.698-10.13,1.261-9.812-7.965c0.562-16.265,1.891-32.502,2.645-48.762C126.059,596.153,125.779,588.879,125.779,580.366z"
	/>
<path class="st5" d="M375.65,538.357c10.164-2.603,19.493-4.858,28.737-7.424c3.767-1.046,7.357-2.739,11.01-4.182
	c11.003-4.347,21.931-8.893,33.038-12.952c2.819-1.03,6.194-0.536,10.327-0.809c-1.803,6.432-3.904,11.353-4.442,16.44
	c-0.834,7.889-0.578,15.891-0.828,23.844c-0.95,30.19-3.714,60.174-10.328,89.71c-0.211,0.942-0.814,1.796-1.521,3.301
	c-24.712,1.905-49.667,3.829-76.347,5.886c1.829-13.793,3.734-25.959,4.983-38.192c1.247-12.21,1.854-24.486,2.711-36.735
	C373.871,564.668,374.713,552.089,375.65,538.357z"/>
<path class="st6" d="M3004.304,544.783c-23.788,0.772-46.024,1.636-68.269,2.176c-22.558,0.547-45.111,0.486-67.612-1.738
	c-8.048-0.795-9.219-1.534-8.94-9.657c0.739-21.541,1.626-43.078,2.648-64.608c0.36-7.576,1.106-8.487,8.444-9.687
	c8.823-1.443,17.716-2.938,26.624-3.296c27.209-1.095,54.322-2.897,81.17-7.692c1.951-0.348,3.976-0.428,5.964-0.398
	c13.986,0.208,14.765,1.467,17.644,15.428c4.604,22.331,3.864,44.887,3.949,67.424
	C3005.941,536.611,3004.91,540.492,3004.304,544.783z"/>
<path class="st7" d="M3220.78,461.268c0.656,15.162,1.292,30.282,1.97,45.401c0.475,10.588,1.328,21.172,1.419,31.762
	c0.085,9.782-0.923,10.037-10.67,11.244c-7.181,0.889-14.176,3.205-21.337,4.375c-4.567,0.747-9.299,0.913-13.933,0.732
	c-15.601-0.607-31.193-1.46-46.785-2.298c-1.614-0.087-3.2-0.702-5.736-1.29c-0.556-6.111-1.99-12.352-1.518-18.446
	c1.504-19.391-1.474-38.488-2.825-57.694c-0.187-2.658-0.54-5.311-0.577-7.97c-0.061-4.303,1.894-6.953,6.469-7.156
	c0.999-0.044,1.994-0.182,2.992-0.194c20.255-0.246,40.509-0.568,60.765-0.672c7.947-0.041,15.899,0.354,23.843,0.692
	C3216.439,459.822,3217.994,460.533,3220.78,461.268z"/>
<path class="st1" d="M433.313,1223.274c2.843-17.009,13.022-25.639,30.324-28.323c12.326-1.912,24.325-5.887,36.502-8.81
	c9.965-2.392,19.934-4.806,29.981-6.806c7.435-1.48,14.822-2.029,20.945-7.795c4.172-3.928,9.216-7.525,16.056-6.374
	c7.916,1.333,11.544,5.762,8.495,13.112c-5.456,13.147-14.084,23.149-29.552,24.445c-6.59,0.552-13.271,0.384-19.786,1.367
	c-9.799,1.479-19.622,3.186-29.183,5.738c-7.323,1.955-14.181,5.583-21.382,8.075c-8.71,3.015-17.467,5.995-26.39,8.257
	C443.827,1227.554,438.109,1226.957,433.313,1223.274z"/>
<path class="st1" d="M525.767,1125.044c-3.15-0.639-5.181-0.793-7.019-1.471c-6.103-2.25-10.7,0.017-15.369,3.957
	c-9.851,8.313-19.565,16.944-30.258,24.056c-9.287,6.177-20.411,8.094-31.585,6.1c-8.929-1.593-10.525-6.299-6.018-14.352
	c4.682-8.365,11.509-12.849,21.171-11.825c6.461,0.685,11.02-1.543,16.053-5.727c13.001-10.807,26.835-20.609,40.305-30.855
	c3.493-2.657,6.998-3.005,11.193-1.488c5.215,1.886,10.682,3.078,16.043,4.559c0.316,0.087,0.659,0.08,0.99,0.111
	c6.242,0.596,11.011,4.005,12.748,9.65c1.777,5.775-4.523,8.319-7.863,10.133C539.619,1121.444,531.989,1122.986,525.767,1125.044z"
	/>
<path class="st1" d="M2116.437,1049.277c4.243-17.207,9.118-20.807,24.246-19.691c0.332,0.025,0.669,0.028,0.993,0.095
	c14.268,2.965,27.558-0.09,40.645-5.9c10.591-4.702,21.537-8.607,32.349-12.805c11.504-4.466,18.543,0.914,16.813,13.121
	c-0.537,3.792-2.292,7.41-3.748,11.903c5.28,1.857,10.36,3.644,16.161,5.684c-5.985,9.746-14.169,15.035-23.491,18.534
	c-5.239,1.966-10.857,3.162-16.411,3.993c-9.347,1.398-13.252-3.699-9.69-12.427c1.106-2.71,3.163-5.019,4.625-7.602
	c1.727-3.05,3.281-6.198,5.331-10.105c-14.784,5.926-28.497,11.36-42.158,16.919c-10.093,4.107-20.684,5.37-31.3,4.148
	C2125.929,1054.583,2121.362,1051.377,2116.437,1049.277z"/>
<path class="st1" d="M2155.639,975.945c13.189-1.598,26.358-3.385,39.571-4.749c20.469-2.114,40.969-3.923,61.45-5.914
	c2.303-0.224,4.558-0.962,6.862-1.163c5.921-0.516,9.402,1.627,11.84,7.041c2.76,6.128,1.085,10.448-5.351,12.478
	c-4.068,1.283-8.448,2.807-12.561,2.502c-16.292-1.209-32.176,2.823-48.371,3.078c-14.201,0.224-28.407,2.142-42.542,3.871
	c-9.816,1.201-19.532,3.264-29.256,5.134c-2.545,0.489-4.897,2.138-7.438,2.456c-3.076,0.385-6.682,0.852-9.315-0.348
	c-8.171-3.722-8.198-6.284-2.513-13.356c6.938-8.63,16.471-10.636,26.573-11.486c3.635-0.306,7.318-0.049,10.979-0.049
	C2155.591,975.607,2155.615,975.776,2155.639,975.945z"/>
</svg>
