<svg version="1.1" id="Layer_1" xmlns="http://www.w3.org/2000/svg" x="0" y="0" viewBox="0 0 851.1 2434.8" style="enable-background:new 0 0 851.1 2434.8" xml:space="preserve"><style>.st0{fill:#fcf87a}.st0,.st1{opacity:.61;enable-background:new}</style><path transform="rotate(-84.9 567.4 131.8) scale(.99999)" class="st0" d="M457.5 33.5h219.9v196.7H457.5z"/><path transform="rotate(-80.9 158.4 650)" class="st0" d="M48.5 524.6h219.9v250.7H48.5z"/><path class="st1" d="M289.3 538.1c3.5-3.8 5.9-7.1 9-9.6 7.7-6.1 15-3.6 17.3 5.8.8 3.1 1 6.7.5 9.8-5.8 35.5-11 71.1-18.1 106.3-5.7 28.6-11.4 57.4-21 85.1-1.2 3.4-1.5 7.1-2.4 11.4 2.5 1.4 4.9 3 7.5 4.2a16 16 0 0 1 8.4 9.3c4.3 11.8 1.4 19.1-10.4 23.7-5 1.9-10 4.1-15.2 4.9-4.1.6-8.6-.1-12.6-1.2-10.2-2.9-20.1-6.5-30.3-9.4a227 227 0 0 0-70.1-7.1c-19.6.5-39.2 1.6-58.8 2-21.6.4-43.1-.9-64.5-4-2.9-.4-6-.9-8.9-.7-6 .4-9.4-2.3-10.6-7.8 6.9-16.7 19.9-20.3 36-17.6a454 454 0 0 0 81.5 5.5c8.9-.1 17.9-1.2 26.8-1.3 18.6-.2 37.3-.5 55.9.3 9.2.4 18.4 2.8 27.5 4.5 7 1.3 8.3.9 10-5.9 6.3-24.8 12.9-49.5 18.3-74.5 6.1-28.6 11-57.4 16.2-86.1.9-5.2.8-10.6 1.2-16.2-8.7-7.4-19.7-7.7-30-9.1-22-3-44.2-5.2-66.3-7.7-6.3-.7-12.6-.8-18.9-1.5-10.6-1.2-21.1-2.6-31.7-4.1-17.1-2.3-34.1-5.1-51.3-7-8.3-.9-9.7.7-11.9 8.4-2.2 7.7-4.3 15.4-6.2 23.1-8.9 35.1-18.2 70.1-26.3 105.5-3.7 16.4-10 32.3-9.6 49.7.1 3.9-3.4 8.6-6.6 11.5-3.3 3-8.1 4.6-12.6 5.9-7.2 2.1-11.9-2.2-10.9-9.5a215 215 0 0 1 8.6-38.6c4.8-14.4 7.5-29.5 11-44.3 7.3-31 14.4-62.1 22-93 2.8-11.5 6.6-22.8 10.2-34.1 1.4-4.3 2.8-8.9 5.4-12.5 6.4-8.8 12.4-10.4 22.6-6.8a346.5 346.5 0 0 0 67.9 15.7c36.5 5.2 73.1 9.3 109.7 13.8 10.5 1.3 21.1 2.1 31.7 3.2zM669.1 38.3c-6.4-.7-11.9-1.5-17.5-1.8-23.6-1.4-47.2-2.4-70.8-4.2-13.5-1-27-3.5-40.5-4.8-12.9-1.2-25.8-1.7-38.7-2.5-5.9-.4-9.4 2.2-10.8 8-2.2 9.3-4.8 18.5-7.1 27.8-3.1 12.6-6.2 25.2-9 37.8-3.8 16.9-7.3 33.8-11 50.7-1.6 7.1-3.3 14.2-4.7 21.4-2.3 11.3-4.3 22.7-6.6 34-.4 1.8-1.5 4.5-2.7 4.7-7 1.5-14 4.1-21.1.3-3.8-2-4.7-5.2-4-9.3 2.2-12.4 4.2-24.9 6.5-37.3 1.8-9.5 4-18.9 6.2-28.3l18.9-79.5c1.8-7.4 3.9-14.7 5.1-22.2 2.2-13.7 12.2-19.7 23.4-24.7 3.9-1.8 8.4-2.6 12-4.8A24.5 24.5 0 0 1 512.9.3c10.8 1.1 21.6 2.7 32.5 4.1L581 9.1c18.1 2.5 36.4 2 54.6 3 9.9.6 19.8 2.1 29.6 3.4 4.8.6 8.4-.3 11-4.7.9-1.6 2.5-3 4.1-4.1 5.4-4.2 11.4-5.7 17.7-2.2 6.2 3.4 8.8 10.3 6.5 18.3a259.7 259.7 0 0 0-9.6 50.9c-3.1 47.5-10 94.5-17 141.5-1.4 9.5-3.7 19.4-2.6 28.7 1 8.2 1.5 16.3 1.6 24.6.2 10.8-1.5 12.8-12.2 13.6-11 .9-15.4-2.3-16.6-12-1.3-10.1-1.1-10.9-10.9-12.3a513.4 513.4 0 0 0-44.6-4.2c-15.2-.8-30.6-1.5-45.8-.2-12 1-23.7.5-35.6 0-20.5-.7-40.1-5.7-59.9-10.3-6-1.4-12.2-2.4-18.2-3.9a16 16 0 0 1-6.1-3.1c-3.1-2.4-3.7-5.5-1.2-8.7 5.2-6.6 11.4-11.5 20.3-10.4 5.9.7 11.8 1.9 17.6 3.4a317.6 317.6 0 0 0 75.8 11c35.5.2 71.1 1.4 108.1 2.1 9.8-63.6 20.1-128.3 21.5-195.2zM447.6 1075.9c-5.6-9-16.1-9.6-24.8-13.4-8.8-3.8-17.7-7.2-26.8-10.9-2.4-9.6 2.4-16.4 9.4-21.3 6-4.1 12.4-2.2 18.8.9 11.4 5.4 23.2 9.8 34.7 15 4.5 2 8.4 5.2 12.8 7.6 11 6.1 9.9 18.7 6.5 26.5a65.7 65.7 0 0 1-13.4 20.7 222.4 222.4 0 0 0-24.7 28.5c-7.6 10.7-18 9.2-28.9 10.2-1.7-11.4-.2-20.5 8.6-27.5 4.6-3.7 4.4-3.9 4.9-12.3-9.9-1.6-19.8-4-29.9-4.6-14.3-.9-28.2-2.2-42.4-4.9a217.8 217.8 0 0 1-46.6-13.9 229.6 229.6 0 0 1-69.2-48.1 275.4 275.4 0 0 1-43.2-58.3c-7.6-13.1-13.1-27.5-18.8-41.6-4.7-11.6 2-23.1 14.2-26 6.4-1.6 11.5 1.1 12.6 7.9 3.4 21.6 14.3 39.6 25.6 57.8a198.6 198.6 0 0 0 121 93.1 227 227 0 0 0 53.1 7.7c10.6.3 21.3 1.1 31.8 2.4 5.2.4 9.9 2.9 14.7 4.5zM171 325.9a42.7 42.7 0 0 1 25.9-11.5c6.1-.4 9.4 3.7 7.6 9.5-.6 1.9-1.4 3.9-2.8 5.3-6.5 6.3-9.1 16.7-19.9 18.4-.8.1-1.6 1.1-2.3 1.8-15.8 18.6-36.9 28.5-59.7 34-24.2 5.8-36.2-3.9-39.5-25.6-2.3-15.4-2.7-31.1-3.7-46.7-.5-7 1.2-9.6 7.7-12.2 3.4-1.4 6.9-2.5 10.5-3.1 6.9-1.1 10 1.3 10.6 8.3.8 8.9 1.2 17.9 1.8 26.8.4 5.9.5 11.9 1.3 17.8 1 7.5 4.4 9.6 11.6 7.6 2.1-.6 4.1-1.7 5.1-2.2-2.3-9.4-4.6-17.9-6.4-26.5a43.8 43.8 0 0 1 .9-23.5c3.8-11 4.7-22.9 8.9-33.6 13.7-34.9 36-63.4 67.7-84.1 4.7-3.1 10.4-4.6 14.9-7.9a210 210 0 0 1 36.4-20.5c21-9.8 42.9-15.9 66-17.2 2.9-.2 6.1-.1 8.8.8 4.2 1.4 5.6 4.9 3.6 8.8a27.2 27.2 0 0 1-16.8 14.7c-9.6 2.6-19.6 3.5-29.2 6.1-12.4 3.4-25 6.8-36.8 11.9-10.9 4.7-21.1 11.2-31.2 17.5a136 136 0 0 0-46.3 44.5 131.7 131.7 0 0 0-20 59 62.7 62.7 0 0 0 9.5 34.7c6.3-4.8 11.1-8.8 15.8-12.9z"/><path class="st1" d="M165.2 615.4c-7.6 4-14.4 8-21.5 11.3-10.5 4.9-21.5 3-32.3 1.1-3.1-.6-5.8-3-8.8-4.4-3.8-1.8-7.5-3.9-11.5-5.1-6-1.8-10.7-10.9-6.8-15.9 3.5-4.5 8.6-8.4 13.8-10.9 4.6-2.3 9.7-.2 13.9 3.1 3.4 2.6 6.8 5.3 10.5 7.3 6.1 3.2 12.2 4.9 18.5-.4 3.2-2.7 7.5-4.2 11.1-6.6 9-5.9 18.7-6.4 28.5-3.6a22 22 0 0 1 10.3 7.2c5.5 6.9 11.4 10.8 20.6 7.7 5.7-1.9 10.3 1.8 14.3 5.2 3 2.6 2.3 7.4-2.1 11.3a37.4 37.4 0 0 1-25.1 10.6 32.4 32.4 0 0 1-27.8-12.8c-1.5-2.1-3.8-3.5-5.6-5.1zM575.4 85.7c-4.7 2.9-9.7 5.4-14.1 8.7a117.6 117.6 0 0 1-33 18c-6.9 2.4-13.2.3-19.4-1.7-2.2-.7-4.3-3.2-5.6-5.3-5.5-9.4 2.4-26.5 13-28.5 4.6-.9 7.7 1.5 9.8 5.2 1.2 2.3 1.8 4.9 3.2 8.6 3.9-1.5 8-2.2 10.9-4.4 11-8.2 23.2-13.8 35.8-19.2 17.7-7.5 28.2.5 30.3 17.5.4 3.3-.1 6.6-.2 10-.1 4.6 2 6.8 6.7 6.4l2-.2c11.9-.2 14 2.2 13 15.4-5.5 2.5-11 6.1-17 7.3-5.2 1.1-11-.4-16.5-1-1.9-.2-3.8-1.1-5.7-1.5-8.5-1.9-10.6-5-10.2-14 .2-6.5 0-13.1 0-19.7-1.2-.5-2.1-1-3-1.6zM393 2405.6c9.5-2.5 18.5-4.6 27.3-7.1 3.5-1 4.7-3.8 3-7.1-2-3.8-4.3-7.5-6.8-11-9.9-13.8-20.8-26.9-26.7-43.1-1.7-4.6-2.6-9.5-4-14.9 4.8-2 8.6-4 12.7-5 10.7-2.8 16.9.3 19.7 11a112 112 0 0 0 22.8 40.5c3.3 4.2 6.5 8.5 9.3 12.9a32.4 32.4 0 0 1 3.6 24.1c-.6 3.1-3.5 6.5-6.2 8.4a72 72 0 0 1-30.3 11.9c-11.8 1.9-23.6 4.1-35.5 5.6a446.8 446.8 0 0 1-34.7 3c-9.1.4-18-1.4-25.6-6.9-2.4-1.8-4.1-4.6-6.2-7 16.4-12.4 35-10.2 53.7-13.3-11.6-12.2-22.3-24.1-33.7-35.3-17.7-17.5-36.4-34.1-53.8-52a492 492 0 0 1-38.4-44.5 112.1 112.1 0 0 1-19.2-46.5c-4-20.1-1.4-39.6 0-59.5 1.3-18.9 8.2-36 13.5-53.6 3.7-12.2 21.4-15.3 30.3-5.9 3.9 4.2 3.7 9.7 1.4 14.1-7.8 14.3-10.6 30.4-13.6 45.8-4.7 24.7-5.9 49.8 3.5 74.7 7.9 21 20.7 38.2 35.7 53.5 25.5 25.7 52.7 49.7 79.2 74.4 1.9 1.8 4.2 3.2 6.4 4.8 7.2 5.1 12.4 11 10.6 20.8-.2 1.8 1.2 4.1 2 7.2z"/><path transform="rotate(-75.9 707.5 1197.3)" class="st0" d="M587.6 1094.1h239.8v206.3H587.6z"/><path transform="rotate(-12.6 238.1 1911)" class="st0" d="M104.9 1791.2h266.3V2031H104.9z"/><path class="st1" d="m785.6 1325.6 9.9 5.6c3.1 1.7 7.5 2.8 6.2 7.6-1.3 4.8-5.8 5.2-9.8 4.9-7.6-.6-15.1-1.8-22.7-2.8-21-3-42-6.5-63.1-9.2-35.3-4.4-70.6-8.4-105.9-12.1-12.5-1.3-25.2-1-37.8-1.8-6.6-.4-13.2-1.3-19.6-2.7-2.6-.6-6.9-3-6.8-4.5.1-3.6 1.3-8.6 3.9-10.4 5-3.5 11.1-6.2 17-7.2 7.1-1.2 14.6-.6 21.9-.1 16.2 1.3 32.5 2.5 48.6 4.8 22.6 3.2 45.1 7.5 67.6 11.2 8.5 1.4 17.1 1.8 25.6 3.2 11.4 1.9 22.8 4.3 34.1 6.4 2.2.4 4.5.4 7.3.7 21.1-67.1 36-135.4 52.1-204.5-3.8-1.6-8-3.1-12.1-5.1-21.7-11-44.8-18.5-67.7-26.4-12.5-4.3-25.1-8.7-38-11.6-16.1-3.6-32.2-4.3-47.4 4.9-3.4 2.1-8.3 1.7-13.6 2.7-2.8 9.1-5.8 18.6-8.6 28.1l-22.1 73.6c-9 29.9-18.6 59.7-24.3 90.4-1 5.3-2.8 10-8.7 12.4-9.8 3.9-18.4-.9-17.6-11.3 1-12.9 2.7-25.9 6.1-38.3 7-26 15.1-51.7 22.9-77.4 5.6-18.4 11.9-36.6 17.5-55 4.2-13.7 8.2-27.4 11.3-41.3 1.9-8.3 6.5-12.6 14-15.2 6.8-2.3 13.2-4.6 19.4 1.9 1.6 1.7 5.6 2.1 8.2 1.5 27.6-6.3 53.4.1 78.8 10.1 13.3 5.2 26.8 9.9 40 15.2 13.8 5.6 27.4 11.7 41.1 17.7 6.7 3 13.1 6.3 20.8 2.3 2.6-1.4 6.6-.8 9.8-.2 6.3 1.2 7.9 4.3 6.7 10.7-1.2 6.8-1.2 13.9-8.2 18.4-1.8 1.2-2.3 4.7-3 7.2l-17.2 67.7a4972.2 4972.2 0 0 1-29.1 107.6c-1.7 6.5-4.6 12.7-7.5 20.3zM134.9 2059.7c4.5-13.1-1.4-25.1-5.1-37.4-.8-2.4-2.3-4.9-4.2-6.7-6.1-6.2-8.8-14-10.1-22.2-5.6-33.7-11-67.5-16.7-101.2-2.6-15.6-6.3-31-8.8-46.5-1.1-7.1-1.1-14.5-.7-21.7.5-8.4 10.9-17.3 19.3-18.8 39.6-6.9 80-9.7 118-24.3 14.9-5.7 30-10.8 45.4-15 15-4.2 30.3-7.1 45.6-10.2a20.8 20.8 0 0 0 14.6-9.1c5.2-7.8 10.3-7.1 14.9 1.2.9 1.7 1.8 3.6 2.1 5.5l13.3 65.5c.4 1.9.3 4.4 1.5 5.7 6.4 7.4 6 16.7 7.6 25.3 2.8 15.3 4.5 30.9 7.8 46.1 5.5 25.3 7.9 50.9 12 76.4 1.3 7.9 3.7 15.6 4 23.5a49 49 0 0 1-3.2 22c-3 6.4-10.3 10.5-18.1 11.1-9.9.7-19.9 1.6-29.7.8a201.4 201.4 0 0 0-50.9 1.1c-21.8 3.7-43.2 9.8-64.5 15.7-15.2 4.2-30.1 9.8-45.2 14.3-9.5 2.8-19.2 4.9-28.9 7.2-8.5 2-10.1 1.2-20-8.3zm189-286.6c-11.1 2.1-21.3 3.6-31.2 5.9-10.3 2.5-20.5 5.7-30.7 8.7-9.5 2.8-19.1 5.5-28.5 8.8-12.2 4.3-23.9 10.3-36.3 13.6-24 6.3-48.4 11.3-72.8 16.4-9.5 2-11.9 4.5-10.5 14.2 1.3 8.5 2.9 17.1 4.3 25.6 4.5 25.9 8.7 51.8 13.6 77.6 2.2 11.7 4.4 23.7 8.9 34.6a341 341 0 0 1 17.4 50.7c1.7 7.2 3 8.8 10.2 8 11.7-1.4 24 1.7 35.1-4.5 1.4-.8 3.3-.6 4.9-1l28-7.1c7.7-1.9 15.4-3.9 23.2-5.5 11.7-2.3 23.5-4.6 35.3-6.1 13.5-1.7 27-2.8 40.6-3.7 8.2-.5 16.4-.1 24.8-.1 0-11.8 1.5-22.7-.5-32.8-1.5-7.4-3.1-14.7-3.5-22.2-.1-1.7-.4-3.3-.7-4.9-2.3-17.7-5.5-35.4-6.7-53.2a409.3 409.3 0 0 0-10.3-74.8c-2-7.7-3.6-15.6-5.9-23.2-2.3-7.8-5.4-15.5-8.7-25z"/><path class="st1" d="M633.9 1214.7c2.9-17.6 15.8-19.3 30.8-18.7 6.3.2 12.5 4.1 18.7 6.2 2.8 1 5.6 2.1 8.4 2.9 8 2.4 15.9 4.9 23.9 7 5.4 1.4 11 2.1 16.6 2.9 5.9.8 11.9.8 16.8 4.8-3.6 9.8-10.3 14.5-22.1 14.3-10.6-.2-21-.4-31.5-3.8-14.5-4.6-29.7-6.8-44.6-10.4-5.7-1.2-11.2-3.3-17-5.2zM750.6 1147.6c-1.2 4.5-2.1 9.8-8 12.1-6 2.4-12.5 2.5-16.7-2.2-5-5.5-10.3-5.6-16.9-5.3-12.6.5-25.2.4-37.8-.7-6.4-.5-12.8-3.3-18.8-5.8-5.6-2.3-6.1-5.4-2.1-10 5.6-6.4 12.4-10 21.2-7.3 12.6 3.7 25.5 3.7 38.4 3.8 8.6.1 17.2-.1 25.8.2 8 .4 15.2 7.6 14.9 15.2zM234.8 1767.1l3.9 1.2-.3 1.1-4-1 .4-1.3zM144.6 1921.1c4.2-17.2 9.1-20.8 24.2-19.7l1 .1c14.3 3 27.6-.1 40.6-5.9 10.6-4.7 21.5-8.6 32.3-12.8 11.5-4.5 18.5.9 16.8 13.1-.5 3.8-2.3 7.4-3.7 11.9l16.2 5.7c-6 9.7-14.2 15-23.5 18.5a77 77 0 0 1-16.4 4c-9.3 1.4-13.3-3.7-9.7-12.4 1.1-2.7 3.2-5 4.6-7.6l5.3-10.1-42.2 16.9c-10.1 4.1-20.7 5.4-31.3 4.1-4.7-.5-9.2-3.7-14.2-5.8zM183.8 1847.7c13.2-1.6 26.4-3.4 39.6-4.7 20.5-2.1 41-3.9 61.4-5.9 2.3-.2 4.6-1 6.9-1.2 5.9-.5 9.4 1.6 11.8 7 2.8 6.1 1.1 10.4-5.4 12.5-4.1 1.3-8.4 2.8-12.6 2.5-16.3-1.2-32.2 2.8-48.4 3.1-14.2.2-28.4 2.1-42.5 3.9-9.8 1.2-19.5 3.3-29.3 5.1-2.5.5-4.9 2.1-7.4 2.5-3.1.4-6.7.9-9.3-.3-8.2-3.7-8.2-6.3-2.5-13.4 6.9-8.6 16.5-10.6 26.6-11.5 3.6-.3 7.3 0 11 0l.1.4zM494.5 1668.3a384 384 0 0 1 34.5-11 251.7 251.7 0 0 0 56.7-22.4 225.2 225.2 0 0 0 109.4-134.4c7.7-23 15.1-45.8 13.2-70.5-.6-7.7 4.4-12 11.8-12 14.2.1 24.6 11.1 22.4 25.1-2.6 17.1-4.9 34.4-9.9 50.8-8 26.3-17.6 52-32.5 75.7a261.7 261.7 0 0 1-63.9 71.1 250.6 250.6 0 0 1-47.8 27.5 375 375 0 0 1-45.5 16.5c-11 3.3-21.4 8.5-31.9 12.8 2.8 9.2 2.6 9.5 8.7 12.3 11.5 5.5 15.5 15.1 16.7 28.2-12.3 1.7-23.3 6.1-34.5-3.7a269.7 269.7 0 0 0-34.8-25.1 76.3 76.3 0 0 1-20.2-19.4c-5.8-7.7-10.3-21.3.3-30.9 4.2-3.8 7.7-8.3 12.1-11.7 11.3-8.7 23.3-16.7 34.4-25.6 6.3-5 12.9-8.9 20.6-5.9 9.1 3.6 16.1 9.8 16 21.1-9 6.4-18.1 12.5-26.7 19-8.6 6.5-20 9.9-23.9 21.3 4.9-2.9 9.5-6.8 14.8-8.8z"/></svg>